<?xml version="1.0" encoding="UTF-8" standalone="no"?>
<!-- Created for Inkscape (http://www.inkscape.org/) -->

<svg
   xmlns:dc="http://purl.org/dc/elements/1.1/"
   xmlns:cc="http://creativecommons.org/ns#"
   xmlns:rdf="http://www.w3.org/1999/02/22-rdf-syntax-ns#"
   xmlns:svg="http://www.w3.org/2000/svg"
   xmlns="http://www.w3.org/2000/svg"
   xmlns:sodipodi="http://sodipodi.sourceforge.net/DTD/sodipodi-0.dtd"
   xmlns:inkscape="http://www.inkscape.org/namespaces/inkscape"
   width="3200"
   height="800"
   id="svg2985"
   version="1.1"
   inkscape:version="0.48.1 r9760">
  <defs
     id="defs2987" />
  <sodipodi:namedview
     id="base"
     pagecolor="#ffffff"
     bordercolor="#666666"
     borderopacity="1.0"
     inkscape:pageopacity="0.0"
     inkscape:pageshadow="2"
     inkscape:zoom="0.35"
     inkscape:cx="1600"
     inkscape:cy="400"
     inkscape:document-units="px"
     inkscape:current-layer="layer1"
     showgrid="false"  />
  <metadata
     id="metadata2990">
    <rdf:RDF>
      <cc:Work
         rdf:about="">
        <dc:format>image/svg+xml</dc:format>
        <dc:type
           rdf:resource="http://purl.org/dc/dcmitype/StillImage" />
        <dc:title />
      </cc:Work>
    </rdf:RDF>
  </metadata>
  <g
     inkscape:label="Layer 1"
     inkscape:groupmode="layer"
     id="layer1"> 
     <g>
<path style="fill:none;stroke:black;stroke-width:2px;stroke-linejoin:round;stroke-linecap:round;" d="M 
1485.066 261.9408
1490.8843 264.63513
1496.842 264.16962
1501.958 263.9831
1504.9539 268.8836
1513.0925 269.49707
1510.26 275.09314
1500.1084 273.476
1504.0212 276.66766
1504.5912 283.57593
1511.377 283.35333
1516.0907 279.99832
1521.9843 279.03784
1520.561 273.0404
1522.9705 267.11508
1515.1566 264.44894
1518.861 261.20325
1522.7383 258.84497
1527.4279 260.7433
1530.8917 263.86792
1536.7296 263.0652
1539.9451 268.11813
1539.1609 272.8978
1535.8282 270.9773
1532.1335 268.35336
1528.1724 271.91544
1529.3958 278.93216
1533.2457 274.336
1536.5388 277.3984
1540.6277 280.7228
1543.6919 274.6942
1549.0721 274.06473
1547.3491 268.12634
1543.5159 262.71857
1543.6741 256.4781
1537.1248 256.0094
1530.7234 256.85654
1530.4114 252.2617
1528.006 247.40784
1527.9539 241.06668
1533.6833 246.20384
1537.3419 248.82353
1542.2134 251.54527
1544.7096 246.39511
1540.2673 244.82544
1543.4553 239.56476
1535.7585 239.86082
1536.7651 232.58356
1529.5897 233.1514
1524.6277 234.53516
1528.6709 226.12517
1520.8328 220.35759
1518.4973 215.53716
1522.0029 226.21506
1518.4812 232.42041
1511.866 226.18741
1508.3801 233.29779
1513.6493 236.91837
1514.5663 244.39359
1520.1404 239.52592
1520.4615 244.50146
1522.6067 248.40298
1523.0161 253.46759
1516.4935 250.66496
1516.3885 256.12982
1510.4576 254.01132
1511.1549 259.12018
1507.4634 262.70966
1504.1489 257.93512
1501.3513 255.10611
1495.4902 256.3582
1488.5481 256.60577
1482.888 256.68292
1479.0417 253.82901
1475.3792 250.06279
1477.4906 244.18988
1469.6506 243.30661
1463.5918 243.36014
1464.7256 250.60208
1469.4962 255.23325
1467.5288 261.9881
1477.0303 260.19775
1474.1865 265.90747
1468.2432 271.08054
1479.9761 273.5971
1484.7367 269.92105
1493.5431 272.653
1493.6937 280.70792
1493.917 289.19315
1503.0942 290.14597
1501.3813 295.63065
1504.9984 298.2582
1507.2686 301.0526
1504.724 305.83035
1501.5214 308.8877
1502.2101 313.7108
1498.0515 316.2357
1495.6323 311.5356
1491.7771 308.60968
1497.9626 303.8662
1495.3641 297.4363
1487.0701 291.07507
1490.7837 299.81628
1486.9501 303.90524
1486.1084 312.86682
1480.7139 306.13226
1482.2413 297.37122
1474.356 300.24078
1473.5413 307.32593
1477.615 312.85748
1480.4626 317.85547
1472.5935 314.8785
1468.5979 319.20987
1466.5427 323.99683
1456.7474 324.67117
1458.0466 330.66772
1463.3058 328.1107
1465.776 334.58765
1464.5878 340.07602
1468.2671 345.06073
1476.2446 354.50253
1474.646 348.7441
1482.7048 342.36972
1490.2576 337.6966
1474.6418 339.70334
1473.7588 331.5177
1476.3811 324.14105
1481.9792 327.66568
1485.4532 332.5235
1488.8822 326.71387
1487.002 321.30478
1491.9265 317.42352
1497.1243 321.4361
1497.6788 326.49072
1495.8782 331.8642
1501.0065 335.8711
1507.5255 328.30826
1520.2085 325.9319
1514.4305 322.1518
1505.5425 320.67548
1510.9528 314.77826
1508.7343 309.77234
1510.8345 302.76926
1514.8829 300.22592
1512.9387 295.1232
1513.0347 289.45258
1518.738 293.3238
1524.7224 294.77112
1521.537 296.5789
1518.7084 298.53668
1520.7015 302.0475
1521.4117 307.01514
1514.9113 306.77023
1518.9243 313.42203
1523.7198 319.0951
1532.1609 319.81506
1528.9397 313.64502
1528.3931 304.74252
1526.5463 300.35477
1531.6177 307.65826
1535.5779 311.75476
1542.3253 317.14465
1541.0945 312.77325
1539.4791 306.43005
1535.5029 302.87207
1539.5908 300.44708
1540.7146 296.2384
1534.149 295.79285
1529.2938 292.70325
1521.2667 287.8098
1526.4438 285.0466
1531.2494 287.29742
1534.659 285.86005
1539.94 286.58044
1543.7809 290.1838
1547.6638 294.7489
1547.3315 301.00577
1545.9335 305.4263
1543.7297 308.8595
1550.4576 312.10822
1558.6693 312.4826
1567.839 313.08688
1576.4948 307.86356
1570.7275 307.96954
1570.5895 302.73874
1563.0955 305.65417
1555.0837 305.18738
1554.7019 298.0079
1559.0624 290.1199
1552.7079 288.98627
1549.6052 282.54773
1552.5735 277.02463
1558.0311 281.4267
1560.2244 277.53174
1562.477 275.22586
1561.7727 271.99164
1556.2582 271.67682
1553.2617 268.06757
1554.3767 264.2016
1552.2604 260.81552
1548.5741 258.40524
1552.365 254.49738
1548.8711 249.76855
1550.6182 243.18549
1549.9357 237.16618
1556.3435 238.91739
1557.0234 243.921
1562.1206 243.57921
1566.0024 248.00482
1555.5874 248.97778
1561.3005 253.19475
1559.3425 259.11163
1564.3848 263.72562
1560.3586 267.06714
1566.6615 269.90497
1573.83 267.86414
1571.6376 262.13318
1568.1824 258.5357
1569.2361 253.24094
1575.1643 251.9442
1581.7747 251.0714
1588.4725 248.53427
1590.8265 254.0362
1595.2784 258.3167
1590.2925 261.53107
1586.4174 258.0379
1579.2051 259.78342
1584.8126 265.43958
1590.112 265.01453
1594.0966 264.46722
1590.95 268.29724
1592.0175 275.8145
1586.667 275.3145
1589.5475 271.68753
1584.4265 271.20007
1579.5422 269.29596
1579.6277 274.46146
1573.9453 276.99796
1568.2236 277.09793
1564.3744 284.0632
1570.4197 286.85876
1565.7004 291.63483
1563.8534 298.062
1571.058 296.79727
1575.043 299.55353
1579.0729 299.2981
1582.6196 302.14133
1581.4939 307.25845
1582.863 311.51886
1586.6815 307.0043
1590.5441 310.14124
1588.2612 314.3138
1594.9209 315.94012
1595.2057 308.80466
1591.7896 305.27737
1600.9004 304.08047
1596.1404 301.21808
1589.4883 300.11157
1591.6431 291.09247
1585.8 294.4431
1580.7944 293.35242
1575.6807 294.12003
1576.184 289.31735
1577.7313 283.32785
1580.6653 278.07782
1583.9797 278.81552
1586.945 281.68085
1585.6707 287.07037
1592.9393 281.8797
1598.6184 279.74164
1597.8484 274.5762
1596.2119 269.92328
1598.9954 264.32993
1604.6765 260.5664
1605.838 266.74402
1602.8707 272.23157
1609.447 274.4447
1605.2859 279.52014
1599.5911 286.28534
1596.5137 293.73187
1602.2463 295.41586
1608.8422 294.13318
1609.921 286.40634
1615.5765 282.2289
1619.7743 286.30182
1621.471 278.185
1616.3928 274.2807
1613.025 268.81375
1612.4492 262.5033
1618.0042 261.5559
1623.0137 263.41595
1620.1335 266.90295
1623.4812 270.9419
1625.7637 274.8757
1626.2346 279.62054
1630.085 279.56454
1630.1395 275.61545
1629.691 271.49994
1630.4695 267.70465
1631.4421 264.54575
1626.324 265.45303
1625.0929 261.16614
1627.908 258.91672
1626.1969 255.14114
1630.0262 251.8331
1635.0012 251.73026
1638.86 247.65198
1640.935 240.57048
1631.2565 239.92094
1630.1106 245.91637
1619.9275 239.04102
1623.4569 234.20844
1619.6173 226.51079
1619.3938 220.4208
1618.9739 215.38849
1626.8889 220.84947
1626.9492 227.24876
1632.4843 232.07121
1638.089 232.39911
1643.8705 233.26956
1650.2761 238.34642
1656.9172 236.62387
1661.4482 236.5766
1664.4688 237.94963
1665.8182 233.449
1662.227 231.90814
1656.8131 230.71075
1650.5593 230.8311
1650.7057 225.20378
1650.0142 220.2434
1643.6594 219.11554
1642.3113 226.1908
1637.1124 223.49878
1636.1342 219.49438
1631.6787 219.0734
1631.1108 213.38635
1636.0183 210.36823
1636.1821 214.78708
1639.8376 214.72397
1644.3241 213.6215
1643.7219 210.39403
1640.7988 207.05986
1636.678 204.85895
1636.1707 199.78897
1634.1179 195.08649
1641.174 192.47997
1636.2546 187.16411
1644.5515 184.92029
1646.0502 195.56175
1642.0656 201.13786
1646.9563 200.0841
1651.8585 201.5084
1646.1914 206.29071
1649.294 214.78732
1651.238 208.27782
1657.3046 204.37494
1664.0602 203.02109
1668.2112 199.40732
1670.3164 196.75067
1676.6091 201.47977
1676.99 209.15074
1669.9385 207.07678
1662.1395 209.00218
1655.6176 211.95645
1656.0781 218.9102
1659.0383 224.33757
1663.03 227.27042
1667.601 223.75876
1661.4558 216.271
1667.9941 215.40982
1672.9452 219.32262
1678.0618 215.54108
1683.9902 214.66301
1685.1433 209.89313
1690.389 214.68663
1687.6345 221.25285
1692.299 221.67741
1697.4275 220.65324
1699.0228 216.38177
1695.3401 214.32816
1693.8553 210.73997
1691.033 208.26091
1687.227 205.4304
1683.1372 202.7493
1681.6791 196.77148
1674.4407 196.80313
1675.1737 192.77539
1670.0686 190.49738
1667.312 193.2597
1661.8091 196.25114
1655.5364 195.2957
1649.1553 190.67596
1657.3198 187.53746
1664.8555 187.04846
1658.3374 180.59006
1652.0751 184.08447
1650.5044 180.87851
1649.1567 177.48204
1642.8712 176.18309
1638.703 181.15793
1635.0271 175.89392
1629.1832 172.94794
1621.872 170.48648
1622.2195 176.8193
1616.1321 175.56743
1613.406 179.10045
1608.5867 179.32507
1611.9712 185.0225
1613.148 191.5164
1607.3345 188.5003
1601.406 187.73462
1602.2961 193.79065
1608.4991 195.61339
1610.6561 200.14194
1613.7523 203.8676
1619.0052 201.13821
1616.3097 195.5993
1617.7664 189.87213
1623.6783 190.19897
1620.0024 183.8208
1628.8789 183.3923
1630.0247 190.88225
1623.6909 196.16711
1620.3326 195.8642
1626.4597 200.7222
1630.8315 205.94945
1624.9968 211.49022
1617.9756 207.9498
1614.6074 213.00015
1613.2178 217.93604
1609.1333 217.33533
1605.7605 221.02269
1611.1011 222.81183
1614.1415 225.51648
1615.2897 230.92581
1612.5985 235.55437
1607.7412 233.22734
1608.2212 228.09923
1602.764 227.64635
1600.7896 234.87436
1604.126 241.28534
1609.0732 242.04955
1614.1799 241.47758
1614.8246 247.23654
1619.5015 243.79294
1623.008 246.13397
1621.6842 251.77383
1621.754 258.60883
1615.5372 255.2144
1608.7997 249.4011
1607.9274 255.36497
1600.54 254.65778
1598.5286 248.75542
1597.7191 241.63255
1592.3279 249.08122
1585.1028 246.07457
1583.2347 241.27014
1587.6772 241.4721
1592.0048 242.5178
1592.599 236.85193
1586.9414 233.51886
1577.6401 235.30144
1579.9338 240.04178
1575.1782 243.86444
1568.7722 241.39816
1562.3969 235.96469
1565.9513 230.3544
1570.3408 234.24803
1576.4298 229.40916
1580.1127 224.73419
1581.7339 219.26392
1585.7201 227.38864
1594.6005 230.43259
1596.6531 225.13371
1590.6724 222.35022
1599.2114 219.91946
1602.7927 214.59256
1609.3304 210.87723
1605.897 205.25816
1601.9841 199.18744
1593.8422 196.74706
1597.9067 202.93596
1599.1459 209.50992
1591.7997 207.29974
1592.0457 215.96251
1586.2461 213.42532
1581.8126 212.57089
1578.449 211.78197
1581.0073 207.89922
1585.2151 203.60747
1579.2947 199.66917
1578.7683 203.98306
1576.3145 205.09692
1576.3711 208.7814
1573.992 211.06314
1569.3506 209.17679
1572.7312 204.14233
1566.6743 203.95496
1567.5078 198.29381
1574.6133 197.68048
1571.3076 192.95389
1575.371 190.92667
1576.7788 186.0325
1580.7344 190.19054
1583.977 196.39804
1586.427 191.28766
1589.2042 188.07028
1593.8901 188.92972
1594.9221 184.4385
1596.3647 179.8287
1600.7268 180.31583
1604.1917 178.78758
1605.3154 173.23203
1610.4661 171.94095
1615.0007 167.76384
1612.6136 169.4318
1610.084 166.11572
1606.301 167.74745
1601.4634 169.64388
1595.2659 166.03726
1593.7561 172.48532
1586.0276 171.76147
1589.4998 178.88559
1583.7798 182.05241
1575.4752 177.78027
1577.971 181.02664
1580.0568 173.13675
1574.9799 169.29593
1568.879 171.96019
1572.552 174.83429
1570.4591 181.28214
1562.0991 179.32077
1566.4149 185.486
1567.405 191.13849
1561.7305 191.65671
1557.3214 188.72704
1550.2648 189.28647
1554.1433 184.99185
1560.3622 170.90642
1552.6609 177.4386
1545.9836 181.91016
1540.2458 180.90201
1535.3829 185.02771
1539.7156 190.67015
1545.9768 191.47269
1544.265 196.02966
1542.8844 200.59402
1539.5112 196.19518
1531.4429 193.15756
1535.8811 194.6981
1537.5211 202.79784
1540.9532 207.15514
1542.615 215.75232
1552.4495 215.70276
1547.7704 211.11761
1557.7053 209.22052
1551.1168 205.72209
1549.0596 198.39146
1554.7122 196.68005
1559.3674 200.30595
1561.7537 205.49402
1563.3218 210.7003
1569.7974 215.24194
1574.7162 215.89285
1573.0886 220.23196
1574.1077 224.0774
1569.7672 226.85376
1567.9554 222.64514
1562.6323 225.61353
1559.3812 221.5607
1566.1394 218.59015
1565.255 213.97325
1557.744 216.90526
1549.6445 224.25159
1556.5651 231.12308
1545.9739 231.55023
1538.9847 224.12228
1532.4523 220.85529
1531.6432 214.12096
1525.2477 210.62987
1531.3075 204.54367
1534.0243 200.2891
1526.8083 201.54129
1522.1842 196.55548
1515.1608 199.31891
1519.5186 205.10495
1517.7035 209.83977
1512.6953 216.05176
1509.824 220.03166
1511.4928 211.24149
1503.8457 212.54907
1499.2057 219.29288
1493.7888 225.62442
1501.406 228.30115
1501.124 235.19084
1505.3457 239.06688
1508.2743 241.8522
1510.1041 245.58092
1508.7351 250.44102
1505.4658 246.16028
1503.5547 249.3565
1498.1892 250.55511
1491.2122 252.39227
1485.8956 248.35306
1493.5706 246.83946
1498.289 245.37842
1503.1378 244.05911
1501.7375 240.99504
1497.8743 240.41246
1492.5735 234.84122
1490.76 241.81383
1483.6334 239.15942
1475.3215 236.08328
1466.371 233.36522
1459.7439 238.59306
1456.4658 233.64395
1452.6323 241.48198
1458.6068 245.53008
1455.4365 247.71225
1456.2189 250.89293
1450.8357 248.62053
1444.1565 249.27293
1438.9667 248.5194
1435.3586 246.26233
1434.1869 240.33417
1439.97 240.28452
1446.6936 240.92601
1439.9763 232.78876
1427.7042 233.19597
1427.9027 243.12454
1419.1703 239.09665
1410.4017 237.42747
1405.4509 242.21823
1397.7812 243.77267
1404.6575 249.06076
1413.1396 247.0427
1420.3524 251.2132
1427.7045 252.31334
1433.1038 251.88446
1437.3901 255.3049
1433.5791 261.164
1428.6665 265.0224
1421.928 265.09705
1423.7189 259.10486
1415.8591 258.04794
1409.6104 259.56494
1402.1179 256.8252
1396.4976 251.22018
1390.3041 248.24084
1384.0972 253.11089
1390.1311 257.714
1394.4502 265.30322
1402.212 265.68
1407.1394 268.4448
1414.641 266.39044
1414.0852 272.3762
1411.7722 278.13046
1407.2588 274.86362
1400.7539 274.01874
1392.7493 275.01364
1383.2024 269.13098
1382.8756 264.68988
1380.5394 259.59555
1374.2959 261.28552
1371.3258 264.92258
1371.7974 268.91507
1367.8854 272.33994
1367.532 277.1678
1362.6449 279.44217
1356.1268 282.76175
1362.3628 286.1003
1368.3618 288.92834
1370.1285 282.24783
1374.1233 286.73468
1380.2388 284.10724
1375.6174 279.17267
1377.1693 272.72092
1383.9424 275.74173
1387.3464 282.47754
1383.8085 289.93695
1388.3971 294.18793
1382.1902 296.57224
1384.0055 303.07364
1389.2297 299.69263
1396.2362 302.43448
1390.478 305.4853
1390.7998 312.13614
1394.9004 319.49878
1386.6411 325.35693
1383.1096 319.66486
1379.5774 323.7805
1373.9717 322.3976
1369.547 325.6494
1371.5061 329.90106
1369.1869 335.7014
1363.6855 333.5843
1361.8772 339.54565
1357.3745 340.2231
1354.3225 343.1589
1350.7898 343.94785
1354.8502 336.86264
1356.1353 330.6063
1363.3337 323.63666
1359.5405 319.0936
1358.2786 313.43082
1359.4417 307.62982
1366.0895 309.35693
1363.9127 314.04437
1370.0515 317.03372
1376.4459 318.5334
1375.251 312.78796
1382.3177 313.23737
1377.1605 307.0471
1378.8484 302.80792
1378.572 298.99875
1375.6614 296.78714
1378.2104 292.12854
1373.7097 291.63654
1370.9412 294.63504
1369.2017 299.5936
1373.5833 301.3351
1369.9004 306.76776
1362.6375 300.38113
1363.7749 293.3487
1355.8054 291.11075
1354.4208 297.46622
1356.2446 303.08878
1349.2896 303.23566
1350.7366 308.42285
1353.5435 312.80066
1346.2399 314.67737
1350.5981 318.74243
1354.793 322.0575
1345.559 324.73334
1349.236 329.78348
1349.5637 337.13004
1343.4769 336.2843
1345.8584 343.92355
1350.0402 351.23837
1345.086 356.93097
1357.2794 355.00497
1359.0896 346.61227
1365.8125 348.39926
1372.0479 342.6698
1373.2948 350.83453
1379.7904 348.44904
1378.4996 355.0752
1383.1595 354.61206
1387.8036 353.89276
1381.9243 360.2811
1374.6682 359.9651
1368.2675 356.56592
1361.7179 360.654
1368.6814 365.7889
1376.6675 368.45566
1384.2781 371.91013
1382.8438 365.30002
1389.6501 362.8401
1395.8438 362.04465
1393.0046 354.87396
1396.333 350.42896
1398.0321 357.53452
1403.7985 362.65253
1407.3735 368.41345
1411.79 373.1457
1400.0089 368.93466
1394.6453 373.11633
1390.3799 370.7229
1386.6924 380.45166
1392.1145 379.64157
1399.1709 375.6842
1406.3214 377.68396
1412.4701 380.63922
1417.7921 383.78265
1419.2345 378.89935
1417.8373 373.71893
1415.4092 368.99667
1421.6656 372.96127
1423.1245 368.732
1428.6235 368.7412
1434.8058 368.41107
1440.0984 368.82715
1442.438 364.35327
1436.2683 361.01068
1429.2498 362.41736
1424.3118 360.665
1420.6208 358.61932
1416.6189 358.02206
1418.8828 353.24286
1421.1074 349.19675
1415.0586 348.389
1407.9453 351.29428
1413.0839 353.6148
1412.2214 359.80026
1416.1437 364.4
1408.5881 357.78693
1404.9618 355.48273
1401.8673 357.96127
1400.418 353.68292
1402.0524 348.88666
1405.1353 344.25568
1409.7471 347.2627
1411.8796 343.65134
1412.3485 340.21704
1416.5873 338.21823
1416.3578 332.6237
1409.9797 334.79968
1404.3546 337.80252
1400.1172 340.01962
1397.6569 343.9797
1392.2472 345.78107
1386.6436 346.38293
1381.2065 343.10687
1380.1548 339.0786
1377.5837 336.82117
1374.3851 335.59006
1376.438 331.2812
1379.138 327.71143
1382.7405 332.5299
1386.8217 337.7496
1391.1099 330.55862
1391.3125 336.9574
1395.0977 338.27698
1397.4839 332.4959
1396.7142 326.60608
1401.9248 331.98547
1405.9673 330.07095
1409.9508 327.00125
1414.3479 324.8583
1417.9978 327.3902
1420.7163 324.40598
1420.7119 316.53796
1416.392 312.3961
1425.792 309.34824
1430.6012 311.0074
1431.8966 317.06387
1426.3689 322.66077
1425.5153 329.27518
1422.6031 332.78204
1422.4774 337.18362
1421.2512 342.99396
1427.1344 348.46088
1426.7695 354.5753
1432.5701 356.0273
1434.6647 350.5912
1433.2866 346.03113
1439.5912 344.57944
1446.8015 344.9265
1451.3759 349.05096
1446.8313 353.28455
1439.5947 352.80096
1442.3853 356.86273
1453.9373 363.64572
1453.0122 356.6919
1456.7795 352.39862
1455.7123 346.03024
1456.9614 339.414
1455.0011 339.86984
1451.6442 340.3184
1449.533 336.1268
1445.865 334.39786
1441.9801 338.5385
1439.3721 332.3259
1435.0613 337.65488
1432.5134 341.29742
1428.1227 343.02292
1427.683 338.3947
1429.4948 334.1615
1432.2834 330.76767
1434.7664 327.14398
1433.4568 322.26382
1440.9713 325.67072
1439.8496 317.05286
1437.1703 310.89072
1444.7871 308.55753
1446.9559 315.56042
1443.6855 320.88013
1453.1387 314.9934
1454.6951 310.33575
1449.155 301.15848
1442.9578 296.80096
1436.6337 301.80606
1430.3523 295.37015
1429.0259 300.88306
1427.7982 304.30615
1422.0627 305.2345
1418.0857 304.0814
1413.3038 304.7769
1411.2028 310.63623
1409.801 318.04773
1406.0842 320.8694
1402.773 323.43314
1403.1531 312.06393
1403.6411 304.9184
1402.1936 298.2464
1406.9565 293.129
1401.7041 289.4096
1395.5872 294.46616
1392.2518 287.63818
1397.0588 282.83405
1403.0033 281.82065
1408.0347 283.41083
1413.3162 284.9974
1411.5103 298.04233
1420.172 298.42828
1421.096 294.15973
1415.9014 290.27924
1418.3906 278.3963
1422.1528 271.69498
1427.811 276.74142
1431.2323 280.0301
1425.1451 281.09656
1421.0627 284.32758
1424.7556 290.2569
1429.6301 287.4107
1433.0533 282.55322
1435.7837 284.79443
1437.3774 290.58807
1443.2527 285.04712
1438.6051 279.13336
1436.2849 273.92206
1429.313 272.37067
1433.5278 268.82062
1439.5829 267.0932
1445.2944 264.3144
1442.3943 258.3092
1449.877 255.73051
1457.5658 254.98813
1461.9774 259.497
1459.6658 265.1961
1452.6312 261.096
1451.3689 265.55182
1442.6389 272.5691
1445.464 276.8976
1448.1218 270.97507
1452.8165 269.72275
1458.2615 271.4683
1462.7349 276.01147
1462.4777 282.69083
1455.8309 284.77567
1456.1697 278.2218
1451.1179 276.58536
1449.3303 281.94678
1449.1102 288.79034
1454.1326 293.33905
1461.8634 289.62372
1468.145 286.71576
1470.2942 282.3991
1469.1792 278.50098
1474.6703 276.29843
1474.3813 284.8078
1481.8865 280.9404
1482.5786 287.67883
1476.9258 290.45923
1472.6938 292.02176
1467.8254 294.20316
1461.016 297.789
1456.207 303.8051
1466.3005 303.0331
1468.019 308.5963
1467.3846 312.4939
1460.9674 310.5077
1462.6553 316.39688
1455.6439 319.9305
1449.76 322.1709
1447.8062 328.10873
1452.8281 332.43475
1457.3108 335.55545
1459.017 340.32642
1460.9834 344.54816
1462.3043 348.86102
1461.6206 353.75946
1466.5111 352.08307
1468.849 355.3542
1467.8313 359.99756
1460.4875 359.0462
1462.895 364.20593
1458.939 367.2157
1447.6393 360.38766
1447.3452 364.7993
1448.6523 368.201
1445.5834 372.633
1451.3739 370.48822
1456.0593 370.52338
1453.0547 376.14716
1448.208 384.83228
1444.2959 380.2375
1439.553 374.66733
1439.4695 387.12323
1442.4645 391.69977
1441.5297 397.46945
1435.6631 399.53464
1434.6399 392.00717
1428.844 391.1147
1434.4094 385.3802
1430.49 382.58237
1434.5552 377.8615
1426.3457 375.9184
1425.7739 382.0659
1423.5847 386.64926
1422.071 391.9715
1416.3821 389.38107
1410.9962 388.99744
1404.8931 386.9583
1399.454 381.5039
1397.2671 387.77048
1395.2622 393.23752
1393.8811 398.71152
1397.491 402.63043
1400.1952 397.16882
1407.5569 396.94647
1416.959 397.19907
1424.8303 400.1836
1428.7996 396.9906
1424.1615 406.14374
1429.6147 405.3912
1434.8076 407.78867
1431.0635 414.1334
1424.0134 417.7066
1418.9071 418.50107
1418.0663 423.1379
1410.4939 418.87997
1413.5812 414.36276
1419.9623 411.76172
1418.3373 405.20184
1411.2822 406.18597
1404.6245 405.52536
1399.7307 408.97797
1405.7421 413.03162
1405.6449 417.1826
1405.5248 422.46167
1401.8113 419.9098
1398.1826 426.58942
1403.0782 429.70105
1408.6807 432.84424
1408.073 425.3556
1412.0623 423.67603
1415.2429 428.9854
1423.3303 428.44507
1429.9851 422.64545
1478.4176 432.04352
1476.0304 442.77448
1486.9711 435.63324
1484.9694 441.60516
1483.0339 448.76575
1477.7795 450.4787
1470.888 450.04108
1474.6793 454.55664
1477.4207 457.88412
1471.6503 457.98712
1469.963 466.55954
1472.5256 462.56772
1479.5349 462.63464
1484.5007 467.8233
1490.7849 461.9675
1484.9114 459.85742
1481.8862 456.02548
1488.967 455.45416
1495.3 452.26205
1490.0284 448.27783
1495.2029 444.8352
1496.6141 438.09662
1493.9794 431.81702
1496.5067 425.1402
1490.7849 424.41095
1486.9719 429.48706
1482.9231 428.74365
1479.1956 424.65146
1481.332 419.5169
1487.3944 418.27216
1498.0527 416.93515
1502.3864 423.01453
1501.9448 430.58325
1507.703 431.8807
1513.5176 436.13086
1506.1511 439.23273
1502.4413 444.25177
1511.0718 446.4474
1510.385 451.16464
1518.2812 448.98126
1514.9545 441.72736
1521.9121 439.7301
1527.3202 440.86118
1531.923 442.35303
1537.2734 441.40863
1542.6246 444.34814
1547.7545 445.86227
1551.8335 440.16232
1554.0542 446.03842
1555.2124 450.0893
1552.961 455.0306
1560.3157 454.9253
1561.8533 460.04883
1565.926 460.8122
1570.8333 460.77777
1575.0073 457.8591
1570.6119 454.02927
1565.623 452.15854
1567.1038 447.60303
1561.2397 446.80243
1557.4585 442.7253
1559.3408 439.3136
1562.1324 435.0254
1558.9159 432.73248
1556.0339 431.99078
1551.7485 432.833
1546.793 434.4251
1540.606 433.68677
1542.7529 426.25497
1536.3938 422.957
1533.3372 428.7337
1532.6475 435.31293
1526.4768 430.46213
1520.0503 430.89008
1512.5225 428.35602
1510.3804 420.0985
1506.1658 417.00253
1515.2097 423.32178
1519.8616 420.71448
1524.837 423.5254
1530.1641 420.84222
1525.3125 415.62054
1520.8059 412.4442
1515.1243 414.36725
1516.4241 407.313
1520.7068 407.58655
1518.791 402.1799
1514.9137 399.09735
1504.4294 401.80615
1510.6892 407.44208
1504.7448 410.3609
1499.1061 409.15216
1494.0364 411.39764
1487.7817 410.18576
1493.9302 402.1513
1496.5486 394.86407
1502.2682 392.1836
1507.7369 390.90112
1512.4222 394.08395
1511.1863 382.29562
1521.1244 378.37598
1518.668 390.1185
1523.5059 396.15756
1529.1794 394.04758
1525.6721 401.29926
1528.1776 405.7834
1523.3384 404.70935
1523.8069 409.28174
1526.9373 410.0565
1531.0692 409.96088
1533.4701 414.50842
1537.9377 418.1612
1540.2559 414.6563
1543.1384 418.7885
1548.2797 420.86584
1552.884 426.31128
1555.7662 420.01813
1562.349 421.31586
1567.2103 417.89203
1567.3546 413.4189
1571.0508 411.5875
1563.8042 409.50095
1560.3331 414.53717
1556.6653 409.20557
1551.6614 405.94846
1549.8727 413.29443
1546.2876 408.63388
1540.9803 411.44037
1538.8625 407.67868
1536.0623 406.66977
1532.8707 405.44867
1530.1537 400.5703
1534.9784 400.50204
1540.5298 400.80612
1542.8433 405.70386
1545.7883 402.87057
1549.0729 402.81406
1551.0405 399.9281
1554.4875 401.16492
1558.242 399.4397
1558.4093 403.41486
1562.3134 404.4192
1566.8313 405.55243
1570.4617 404.53754
1567.9045 399.24335
1562.4191 398.80597
1565.1892 393.943
1568.9132 388.81415
1573.0785 384.35376
1570.3765 379.139
1572.114 372.3683
1566.9454 373.01328
1563.5314 374.95386
1560.184 368.20416
1551.6201 372.0648
1558.739 374.395
1556.0728 379.62067
1563.2067 380.21625
1561.3118 384.519
1560.4492 389.21808
1557.2566 394.16046
1552.1414 394.16675
1546.8755 396.27914
1547.0308 399.81845
1541.2393 395.28876
1539.4375 389.999
1545.6968 389.90753
1551.4242 386.4981
1551.1875 378.9986
1546.135 380.40662
1538.9365 379.6081
1538.0225 384.86032
1535.2571 394.91476
1531.9801 388.0758
1526.2261 385.71838
1531.7288 376.37708
1531.3411 368.69833
1542.721 374.30383
1542.3369 367.1599
1548.1781 362.28455
1553.2026 365.98633
1557.4407 360.7944
1566.1473 361.59564
1568.0164 366.46643
1575.5629 368.15524
1579.301 364.4444
1577.3318 358.8878
1587.0681 359.31467
1593.2435 363.12885
1589.6023 369.6699
1585.0066 366.94238
1582.7134 373.07617
1578.0721 377.21896
1581.3765 384.44724
1585.9962 379.98267
1589.8563 375.3154
1594.8806 372.3637
1599.0208 376.09875
1599.3508 367.577
1602.8713 362.29926
1605.4817 371.8106
1606.3809 380.1286
1600.217 385.1469
1591.6492 383.66156
1583.1653 390.83215
1577.1277 389.71017
1573.6543 392.87585
1572.8174 397.47906
1574.2593 402.17136
1575.196 406.38763
1576.0453 410.1505
1577.864 414.1118
1578.3033 419.03107
1572.507 419.65332
1570.3297 424.45435
1569.991 428.98553
1563.7799 427.40393
1566.7732 433.73096
1565.1235 440.56458
1569.3173 444.20013
1570.9965 438.6573
1576.922 440.53912
1574.4988 445.62436
1577.1995 448.9926
1576.3428 453.60718
1580.6968 454.3579
1584.7505 457.0641
1586.3137 461.54852
1590.5404 461.93823
1590.9761 455.8286
1587.206 452.26593
1583.7985 449.72968
1584.3579 445.27777
1583.7577 440.65512
1583.6108 434.7107
1578.4956 433.94055
1573.0375 434.18683
1573.0215 430.78375
1577.2925 426.91647
1582.2257 423.1334
1586.888 427.51105
1591.0945 432.28772
1596.5073 429.41168
1601.6824 432.23422
1598.5753 438.0595
1595.1029 440.48578
1589.5876 437.18744
1591.1641 440.8612
1594.1354 444.1473
1591.5254 448.48544
1597.4269 446.7317
1601.3615 445.00818
1605.8867 446.31512
1609.7437 450.23584
1613.5361 455.9972
1606.8403 457.43393
1603.1002 451.88934
1596.9866 453.53473
1601.2988 460.21118
1607.3906 466.01462
1600.3926 469.911
1596.9548 466.00812
1594.5955 460.97778
1589.2161 467.64972
1584.3088 470.4992
1585.6068 473.46436
1590.9707 473.97827
1594.2994 476.30164
1592.2888 481.23264
1599.8352 480.76562
1597.9557 474.70578
1605.1615 475.0871
1612.6047 474.74426
1609.727 478.67844
1608.6089 482.79382
1604.6792 486.28174
1601.3628 490.30518
1602.7329 496.7329
1596.5969 502.57822
1601.4216 506.47617
1608.3376 503.88034
1611.1868 512.4763
1605.4496 509.0
1597.4855 513.6491
1605.8767 517.4365
1613.1411 521.08966
1618.7593 524.18805
1622.5991 520.37036
1621.8212 515.2118
1632.7561 510.88068
1640.1195 510.99377
1648.0669 506.07257
1650.2129 511.4127
1651.7002 517.4965
1657.1997 520.6467
1655.4404 514.6331
1655.9808 510.45294
1660.3262 511.0864
1662.3777 520.35474
1666.4187 519.86566
1670.8389 521.83496
1673.6951 524.5921
1674.377 528.5238
1679.308 523.12164
1678.0784 516.3098
1675.4746 520.0156
1669.9392 517.37396
1664.2285 513.9215
1666.7717 508.12033
1672.8365 507.42493
1670.7628 513.0391
1676.6201 511.85876
1683.9197 510.94452
1680.731 510.05347
1677.8793 506.6026
1677.9781 502.20715
1684.2446 502.268
1686.7681 505.05087
1688.5325 508.2179
1689.8856 512.48236
1694.2664 505.45154
1695.0498 498.1639
1688.342 496.3126
1682.367 495.6982
1676.2543 496.77594
1672.7374 501.54706
1668.2704 502.61667
1667.2395 497.09857
1661.952 502.57336
1655.5961 505.3025
1653.3544 499.39874
1659.0828 495.2165
1649.8795 493.59027
1645.9749 497.4205
1642.393 500.55652
1636.6364 503.28992
1635.7638 493.2223
1633.3999 485.58112
1646.7412 489.03488
1646.4929 481.93478
1640.4254 482.87656
1634.7924 478.38498
1629.4043 476.6784
1623.823 475.42133
1618.5284 477.38705
1614.5226 482.2166
1611.8625 487.40118
1610.1548 491.98944
1609.0209 497.59164
1614.3735 500.72723
1616.4128 494.6305
1622.1035 492.87744
1619.1825 489.0418
1619.2771 484.0608
1625.5161 482.0306
1626.6193 487.1997
1627.5195 491.35504
1625.7883 495.15866
1628.9429 498.37885
1628.3362 503.93195
1621.4135 499.79367
1614.1011 506.3015
1618.8339 508.54797
1625.7845 509.53928
1631.4802 517.44336
1638.6985 520.0954
1644.6118 515.0486
1647.6936 521.1018
1651.2854 525.7054
1655.2943 529.9302
1658.1567 526.6217
1662.493 526.5663
1667.321 525.83655
1667.7495 531.1089
1670.932 535.7346
1675.2015 532.9387
1679.447 532.7134
1681.8662 528.52905
1686.2197 526.73395
1689.5303 528.1956
1693.5166 525.9383
1692.8845 522.07117
1684.165 520.6897
1688.6342 518.4499
1693.3668 515.1727
1696.1396 517.91364
1700.281 519.48206
1705.206 516.5786
1712.6016 517.6084
1722.7073 517.9232
1735.541 512.5435
1731.9182 518.5993
1727.4314 525.8325
1721.8649 529.29407
1716.0593 525.0144
1708.4998 527.20197
1701.6134 526.2994
1697.8439 531.3835
1692.978 532.42993
1689.342 534.92145
1686.2509 531.99176
1683.1866 536.85754
1688.5125 539.5467
1695.1819 542.35815
1695.6873 537.68
1704.8214 537.79224
1714.5906 533.54865
1715.2375 539.65515
1722.9402 537.1016
1724.6732 541.74646
1723.978 546.5169
1721.5309 551.1561
1716.5698 553.686
1715.3647 545.5925
1706.5312 548.7731
1696.8483 547.51373
1699.2341 553.125
1697.8939 558.2418
1692.1571 556.54205
1688.2759 560.8881
1681.0054 561.7365
1684.4355 567.4454
1683.4889 572.50604
1687.336 575.6041
1685.4539 581.86896
1688.1947 588.26306
1696.686 593.6017
1705.8372 597.22974
1714.3999 598.0769
1721.3188 594.7783
1726.3396 590.49866
1734.333 585.30316
1739.4966 578.9341
1734.9891 572.1836
1730.885 567.8005
1725.2985 570.95905
1718.9003 574.1207
1716.8696 570.0957
1719.5974 566.284
1711.7596 567.077
1704.7053 572.97406
1710.2845 577.0027
1716.0388 579.7103
1723.0156 578.8193
1729.956 577.7872
1731.8416 582.20264
1727.1794 584.476
1721.0797 586.3531
1715.1593 586.03705
1709.5876 588.545
1702.6326 585.06555
1696.3247 583.94904
1692.5684 579.38873
1697.1565 573.967
1692.42 568.09875
1697.3005 564.955
1702.7457 564.41064
1705.7316 559.3438
1710.5906 558.82214
1714.899 559.8457
1719.3187 559.8712
1723.446 561.70654
1728.5371 561.98865
1734.114 558.9359
1731.0879 552.6925
1727.7021 549.3032
1730.5282 545.049
1733.6886 540.11365
1729.1038 534.2483
1733.9675 527.4343
1739.928 531.1196
1741.5349 536.9844
1748.2827 538.35004
1749.0956 536.062
1740.822 523.37
1742.8481 516.98267
1751.4583 521.7622
1748.9583 528.13855
1753.8541 531.88074
1751.0056 534.6276
1755.5557 539.6814
1759.8032 542.6289
1763.5857 539.72955
1760.2737 534.81305
1759.3347 527.2781
1764.0491 522.6706
1761.5737 517.2689
1757.3752 515.37634
1753.5015 512.8261
1748.8369 515.0652
1749.1238 507.78094
1743.8888 502.26282
1741.756 509.06073
1735.7635 504.49713
1732.6675 500.5746
1728.9784 497.21912
1724.8654 494.23444
1729.6198 490.40906
1724.3757 486.48166
1724.9028 480.15073
1732.7079 476.01617
1733.2117 481.87506
1730.6155 485.69574
1734.6266 493.84274
1740.4237 494.02478
1738.1621 486.9173
1745.2404 487.669
1743.8689 482.74054
1738.3818 479.4646
1742.8013 476.0993
1747.9797 477.17566
1747.3567 472.05978
1751.5208 468.13083
1752.7908 462.3015
1745.9059 465.80585
1741.2101 469.2495
1738.5465 472.81555
1734.7905 471.0177
1731.3334 469.23297
1727.595 471.20514
1723.6201 471.27185
1719.7135 474.34625
1715.7242 478.18893
1714.7667 484.10944
1718.9257 488.2417
1723.0579 491.4801
1714.0718 491.30136
1709.2462 487.0396
1709.6207 494.76965
1716.8267 499.2577
1724.1455 500.1158
1727.8416 508.79257
1721.2787 508.56567
1715.778 509.50092
1711.054 505.3425
1707.559 509.82428
1698.5593 511.60596
1702.1188 507.5451
1703.3652 502.2031
1703.5496 496.80066
1701.5823 490.98642
1697.3457 487.45468
1700.6432 482.94232
1704.0023 483.9295
1708.5553 482.19052
1708.5894 477.29376
1706.3835 473.30878
1702.8065 468.6491
1699.1416 463.82648
1702.9307 460.8349
1705.8727 454.39014
1707.8906 458.25214
1707.2275 464.06287
1713.2537 460.1051
1713.1284 464.6161
1711.6061 470.0761
1719.4446 467.22113
1719.8218 462.88037
1714.6702 455.05673
1719.9084 456.77975
1722.6165 452.64206
1723.2258 460.39435
1728.8909 462.43463
1735.2416 465.40976
1738.5259 462.69614
1743.3279 460.21106
1731.3818 455.71912
1737.0293 453.1257
1744.6224 455.0584
1751.2739 453.3429
1752.6807 446.41467
1747.3103 448.08264
1743.5911 448.60522
1743.7241 441.30963
1740.187 446.58295
1735.9766 443.99023
1733.3038 440.08533
1732.1475 435.15952
1734.0665 429.7909
1732.6824 424.04132
1727.3945 427.3731
1723.7051 434.05585
1726.6962 440.14087
1730.4968 443.81857
1728.2242 449.7152
1725.3997 445.43747
1719.0526 442.22864
1713.5789 447.39697
1708.5867 441.53366
1705.0839 449.30286
1698.6294 447.41818
1697.089 452.03024
1698.5876 456.83997
1693.4962 457.52502
1692.0647 462.4852
1686.1104 459.43918
1685.8677 465.99216
1689.8268 469.89117
1695.8608 468.6631
1701.9504 472.56213
1700.8285 476.5445
1696.6025 480.98157
1694.463 474.95593
1689.8557 478.93542
1686.5405 484.07904
1691.782 488.80096
1682.9589 488.00815
1678.4719 490.5444
1673.3337 488.2693
1671.6184 493.45032
1665.9875 490.4609
1659.0916 487.7558
1652.4556 484.21533
1656.7893 481.05844
1657.4536 474.96628
1658.6733 469.61035
1658.6096 465.06665
1653.4452 464.22742
1649.0653 465.73154
1653.803 469.88327
1648.2363 470.72546
1650.5618 476.86053
1642.0819 474.92136
1633.1075 470.62045
1627.1781 469.5792
1624.2964 464.12933
1620.682 470.10263
1614.5769 469.43237
1612.8596 463.42377
1616.4673 461.5648
1620.1338 461.567
1622.7073 454.41357
1617.5332 449.2173
1613.9615 443.73877
1609.4869 442.504
1604.965 440.54822
1606.4618 435.3729
1613.1753 435.68262
1619.0654 435.64075
1619.7781 441.48322
1624.802 445.7486
1626.7185 439.7923
1625.364 435.60556
1629.3026 434.55927
1631.3561 431.1323
1627.0991 428.33936
1629.3818 425.3396
1629.1289 420.4189
1633.1086 418.19296
1637.1294 425.14807
1637.8628 433.1065
1644.3193 428.88074
1648.6418 434.53683
1650.6445 441.5799
1644.0314 441.79297
1639.6226 445.1329
1636.7626 438.0151
1632.9426 442.7524
1630.4877 449.3708
1637.1995 451.06726
1631.07 455.68842
1628.6361 460.59885
1633.0002 464.0133
1638.5688 463.96494
1638.2937 469.07916
1642.6884 469.80746
1644.0011 465.98077
1644.76 462.39624
1650.5935 461.2164
1649.4712 455.95016
1644.8081 457.7435
1638.435 458.3071
1643.5159 452.1009
1648.8232 447.87207
1654.4073 449.84387
1658.48 452.81442
1654.533 457.3405
1661.4656 456.40002
1660.0681 460.1452
1664.8077 462.86337
1671.1125 461.61646
1670.4042 469.76868
1664.1119 469.28452
1666.0101 474.96713
1662.8668 479.88086
1667.8944 483.3908
1673.946 483.00092
1678.9182 481.8921
1682.1765 478.1709
1685.68 474.43417
1676.0917 477.06186
1671.6028 476.77783
1675.9867 471.44406
1681.5524 471.57468
1678.9276 465.9065
1677.7737 460.30807
1681.4866 456.29456
1677.9312 452.61276
1681.9941 448.83984
1688.264 452.3061
1692.887 447.2689
1697.573 442.5228
1701.934 443.10498
1697.0552 438.68982
1695.9395 433.95837
1698.0894 427.34192
1701.3005 420.50818
1697.383 418.01617
1703.0396 414.8542
1700.0085 411.46518
1694.5062 411.88245
1691.2766 416.5219
1688.1523 408.51144
1697.1154 406.08994
1701.9805 402.4079
1703.4113 407.59235
1707.8625 404.02963
1710.9304 400.20312
1715.6011 395.12863
1711.1431 393.6801
1708.9026 389.00912
1711.7626 383.03976
1717.7386 381.00287
1723.3114 382.93054
1726.1211 387.03925
1732.3163 384.4906
1724.7662 377.4533
1729.9254 370.23688
1730.5242 377.6534
1735.3733 378.51392
1737.5757 373.5809
1744.497 372.00827
1741.5839 367.5565
1742.2805 362.7297
1736.4731 364.58737
1731.2441 363.68262
1727.4236 359.73688
1733.1741 358.20697
1732.9528 354.08444
1737.426 358.0295
1741.3186 356.65793
1746.2365 357.29114
1752.7603 354.0499
1753.0618 360.0901
1749.5186 365.6289
1756.9972 369.38986
1764.0701 363.41455
1760.0369 356.47253
1765.5496 351.29025
1758.8389 349.56366
1753.0779 347.5339
1746.4253 347.98312
1739.7297 349.53857
1734.1415 347.66547
1728.8765 346.17096
1728.2717 351.34253
1724.517 351.8386
1720.3923 347.60092
1714.0338 350.82996
1714.9019 341.71606
1719.5391 334.77722
1726.5378 336.84937
1724.1782 342.28683
1732.59 340.53513
1742.6372 340.09668
1741.6245 334.25317
1754.203 334.02454
1751.9004 340.40424
1760.9575 341.4581
1768.3705 343.42807
1775.3969 344.6034
1775.6243 349.12732
1779.926 350.00107
1784.7415 348.14072
1790.4653 345.80707
1797.0542 349.69
1798.7181 344.7237
1794.9692 341.09735
1801.169 336.98874
1797.9844 328.90134
1791.8098 324.97366
1787.1438 331.50543
1792.5786 335.61545
1785.2545 338.38995
1778.3672 341.21497
1779.3079 335.62286
1784.1731 327.2901
1776.0731 329.67203
1770.2167 335.11957
1762.0986 330.47003
1750.5929 328.11816
1754.1761 322.02106
1752.686 315.99057
1749.5615 310.34045
1741.6968 309.70715
1735.0911 315.61737
1742.6699 316.91617
1742.9014 323.28372
1742.3713 328.5843
1735.5779 323.85413
1734.7401 329.47382
1738.6461 329.83704
1735.6873 334.3772
1731.0779 332.90152
1725.967 330.98654
1730.708 325.50183
1724.5348 326.33536
1718.8741 326.58405
1714.3176 321.8958
1712.5944 329.37067
1706.721 327.01706
1708.7811 333.58487
1705.342 337.97147
1706.0111 343.9808
1705.642 351.85043
1698.3724 353.7662
1698.2805 358.64133
1694.2648 360.60663
1691.4777 362.674
1689.7393 366.95074
1686.8657 363.8216
1682.573 360.1855
1679.9851 367.40707
1682.7777 374.54932
1685.6895 370.28168
1691.7217 370.90475
1696.5635 367.12097
1701.6382 370.698
1701.7507 364.13306
1706.7302 367.0217
1708.3394 360.63156
1714.1528 357.44495
1721.6743 356.08054
1721.7018 363.8779
1714.3062 366.48495
1720.5806 371.8585
1714.7844 375.76294
1709.0972 373.482
1705.667 380.5205
1701.4194 387.57858
1704.9534 397.29782
1699.1041 394.55307
1693.0564 400.55734
1691.2686 393.29382
1688.802 387.19223
1695.2424 383.43857
1701.2505 376.5763
1695.9198 374.69833
1689.954 377.1301
1685.621 381.20453
1678.9176 377.68488
1678.6677 384.1902
1681.0525 387.55792
1684.0149 390.4227
1683.3755 394.78027
1684.9427 399.8764
1680.4502 403.19214
1675.0879 402.07297
1672.9817 397.09436
1676.7917 392.0796
1670.0073 387.90805
1673.3555 379.81198
1667.6343 378.80896
1662.4475 377.5765
1660.7615 379.5986
1656.27 376.645
1659.0759 381.72836
1664.2783 383.6161
1661.8673 388.43356
1656.5071 393.19604
1654.8755 387.81805
1656.3545 383.78223
1651.8682 381.39136
1648.626 386.37048
1649.5764 391.13293
1652.3428 395.81567
1647.8033 397.1583
1645.5823 401.45993
1652.7992 404.63428
1645.9459 406.43768
1645.3013 411.6399
1651.5262 413.03717
1658.0083 416.35468
1659.4418 410.19434
1665.624 410.8811
1663.601 406.44025
1659.7709 404.01282
1658.7678 399.8332
1661.1234 394.9361
1667.0402 395.3015
1666.751 402.26242
1671.7542 406.5905
1673.7764 411.06628
1680.3054 410.36383
1683.5299 417.05783
1690.3486 421.42035
1689.3313 426.3264
1691.7697 430.0996
1689.7023 434.93036
1688.6394 439.37814
1693.1162 440.53204
1687.657 444.99243
1683.0406 440.85516
1684.0254 434.7683
1682.9219 430.3382
1683.5328 423.49362
1677.4421 427.4619
1673.5232 422.45135
1677.193 416.9487
1671.8499 415.50778
1667.802 413.77686
1666.9294 418.91003
1664.1055 423.13925
1666.0527 428.73364
1669.5979 431.97888
1671.6901 435.69843
1668.7831 441.55194
1674.3817 443.34595
1673.7593 440.63434
1676.6943 436.2843
1678.9729 441.38617
1676.9196 446.1574
1669.9966 446.9492
1672.4822 450.54175
1671.2163 455.04028
1664.5111 451.91705
1661.6002 445.12488
1655.8267 438.86102
1662.2654 437.30505
1659.8169 429.385
1653.7527 430.3167
1654.2957 423.03366
1646.4512 420.41223
1640.8765 416.691
1635.1782 413.4837
1636.6398 408.31747
1628.9221 405.8051
1625.545 411.73004
1619.2312 406.65106
1613.7384 408.48993
1606.1489 405.45795
1594.2535 406.65634
1597.7898 411.76572
1601.5046 415.76422
1603.8477 422.48566
1606.2032 418.47974
1609.9126 414.03378
1618.1733 417.54523
1624.1313 420.4358
1622.533 430.7159
1617.4637 427.3486
1611.1223 424.02222
1607.7081 429.5411
1603.3585 426.61426
1600.3506 424.85324
1597.3008 423.05417
1595.1913 419.29987
1590.6826 420.0169
1586.1144 418.10788
1585.9622 412.6795
1583.6373 408.05136
1580.7078 403.51657
1578.3514 397.70148
1584.531 396.34103
1588.6864 401.64093
1592.0117 395.1212
1596.6003 391.789
1600.8672 396.7802
1606.1582 394.30368
1610.0374 399.02344
1615.4065 399.55786
1613.884 392.44263
1612.385 386.60022
1615.0107 379.03024
1620.0226 385.6219
1623.3606 379.91376
1625.8857 384.89255
1622.323 390.26367
1619.6787 396.6493
1624.0591 401.1247
1625.5513 397.13397
1625.6934 394.01974
1631.3552 385.383
1630.5336 391.2469
1633.022 398.57343
1639.72 404.1173
1639.896 396.7524
1641.9756 390.3999
1637.4855 385.77704
1643.4766 383.08295
1640.7837 379.83127
1637.2098 378.063
1632.1514 379.17468
1628.1672 376.39343
1620.4042 373.90292
1623.3961 370.3194
1616.5217 366.3342
1611.5541 369.59006
1615.2944 359.89044
1620.5059 361.81848
1623.5328 366.02548
1628.2195 368.12744
1629.3035 372.24646
1633.9144 372.21942
1638.598 372.29907
1643.1711 373.73712
1651.2784 376.60858
1646.4497 379.85175
1648.578 373.47906
1644.7661 368.45566
1644.7207 363.6396
1647.7292 361.0383
1645.1697 357.40524
1640.2048 359.51605
1640.2201 364.4116
1638.7092 367.72943
1634.6127 366.79364
1632.3279 362.46872
1626.7898 361.36902
1624.7418 357.3536
1619.3396 353.5224
1622.9891 345.99738
1626.9216 350.1838
1625.8638 353.77167
1631.3285 349.5688
1634.8245 355.72168
1640.6373 352.45868
1635.4292 346.44983
1629.5271 342.89734
1631.425 337.42822
1636.9431 339.5653
1636.804 333.46185
1641.6462 331.02682
1645.0115 325.7599
1650.976 325.9
1652.9154 320.66684
1659.7156 323.75424
1659.8622 318.90918
1664.951 320.28848
1665.6896 315.815
1661.5862 312.09674
1634.9868 277.47577
1634.7582 271.32935
1640.0635 272.5892
1646.085 268.75555
1647.1077 264.76663
1646.2137 260.29578
1641.4043 260.7046
1639.9932 267.3468
1636.6002 263.36105
1630.9685 261.11975
1633.8591 257.96057
1637.969 255.79346
1642.9965 253.669
1648.0121 254.58673
1652.5331 255.72345
1655.531 253.01294
1656.9977 248.58354
1651.7329 248.62932
1647.1643 245.68716
1657.7021 243.63425
1663.008 241.91125
1660.9285 252.8039
1664.6833 249.80179
1666.7043 245.6701
1669.8987 243.77786
1668.0123 241.18988
1668.3444 238.33282
1672.5748 240.69012
1675.9429 240.57573
1677.7258 247.2508
1679.4813 239.13243
1683.7858 241.91107
1685.5624 235.84622
1681.821 231.93594
1679.7316 227.28668
1676.4156 232.79228
1670.7051 234.95787
1669.4624 229.87881
1674.6721 226.37808
1678.0432 223.01291
1680.3699 219.84521
1682.9463 222.4733
1685.7756 225.3642
1683.2035 228.00702
1687.745 230.0394
1693.1985 232.69144
1689.4578 243.31065
1697.892 238.00403
1703.0806 238.0469
1705.563 236.70866
1707.1198 234.60138
1702.2747 231.97978
1698.0326 227.04019
1703.0366 222.99783
1707.6472 227.82388
1710.0143 233.61496
1709.2002 238.71652
1708.5994 241.45438
1709.4885 243.7531
1708.9701 247.23222
1717.4722 246.89468
1711.5603 250.71568
1704.2637 248.13144
1703.1245 242.22594
1696.4287 246.59103
1699.7634 252.53583
1688.3765 251.31909
1682.1722 253.92361
1676.8655 253.98141
1671.0265 249.17746
1671.008 253.88493
1670.6677 257.09686
1669.3854 259.78793
1664.8481 263.21307
1663.8154 257.92606
1658.0005 259.53296
1652.0199 261.2433
1654.1517 265.54858
1669.6926 309.3634
1672.0183 318.38577
1668.6548 322.9578
1661.2141 327.72488
1659.5637 334.2687
1652.655 333.11258
1646.651 332.99884
1642.6321 337.26868
1639.863 346.81198
1643.126 342.5733
1649.5049 339.49615
1651.015 346.59213
1645.2427 347.69873
1646.163 352.6051
1650.6691 354.84787
1655.5286 354.91974
1657.0559 350.1656
1664.0264 352.5504
1665.0542 360.81015
1658.719 359.62158
1652.9801 361.93384
1650.0381 366.6656
1653.5732 369.54147
1659.1047 368.8138
1662.7439 372.93695
1667.7042 370.34372
1674.4196 370.92365
1672.9578 363.0459
1671.7504 355.5595
1671.0962 348.66467
1665.6868 345.50635
1660.9037 344.7213
1656.8851 341.34583
1668.8795 336.80713
1667.8066 329.42728
1675.5905 329.83035
1680.9708 334.13943
1681.6443 339.73425
1676.9866 341.75092
1672.1212 343.0405
1679.9316 347.98068
1677.6915 353.33844
1684.6515 347.24133
1687.3573 353.8288
1696.6808 346.57318
1690.5671 344.7649
1685.7373 342.5279
1687.7809 336.59552
1695.0386 336.5213
1700.6013 331.514
1700.7305 324.86432
1705.981 320.08176
1710.8379 315.11108
1712.026 306.85123
1704.1802 307.96796
1698.6754 306.96255
1694.741 310.84045
1699.3594 316.85864
1689.4502 318.00912
1682.0996 319.88446
1694.716 324.87766
1688.8013 328.13367
1682.2219 326.76953
1676.0612 321.85614
1675.4856 312.50537
1680.4648 310.0219
1682.923 303.5311
1688.4398 310.27426
1688.8142 302.5752
1693.6204 303.55182
1693.152 298.36154
1700.128 298.84073
1707.4299 298.41205
1715.3914 297.8667
1722.4268 295.0983
1729.6371 297.27545
1722.2749 302.78003
1721.2859 308.81915
1719.2373 315.05106
1725.8528 320.70712
1728.334 314.839
1728.2751 308.66748
1733.2166 304.54437
1740.8892 298.52844
1746.8992 302.72577
1754.4517 295.9624
1760.8596 301.06396
1770.9749 303.96878
1761.7156 306.61758
1753.9476 306.33353
1761.6594 314.275
1770.3794 313.53116
1767.2977 323.0102
1775.9983 321.73502
1781.325 323.6748
1786.3555 319.35678
1778.8018 315.42502
1779.1418 307.48077
1784.2866 310.71442
1788.9797 311.71698
1793.3727 316.4367
1799.9666 320.18915
1804.9688 328.3316
1810.3204 324.74088
1814.2626 332.5957
1810.1516 338.1211
1808.666 344.80164
1803.1451 345.24365
1807.1122 352.0263
1813.2273 350.0451
1813.3842 355.68515
1807.1948 357.24338
1800.8687 356.60495
1794.6853 359.0539
1789.4875 353.6373
1788.2867 359.43942
1780.7468 358.85333
1774.5884 355.44873
1772.8958 349.14008
1770.2163 351.40195
1771.7622 361.93182
1774.7551 370.2096
1780.7058 376.87827
1789.5503 375.83368
1790.169 383.33383
1795.7828 377.52344
1801.4412 376.48505
1802.7168 383.23932
1796.9326 387.08765
1802.0706 392.14343
1798.5675 398.3618
1792.3401 395.02426
1788.4973 390.73285
1785.9077 385.7016
1780.9049 384.41028
1779.3756 390.6624
1783.0492 396.00204
1784.5808 402.19672
1786.2388 410.3214
1792.6545 404.2437
1800.0784 406.26636
1806.031 402.11407
1810.4261 395.7779
1809.8817 389.08627
1808.1716 382.55624
1815.4607 383.57916
1821.8777 386.06696
1831.3176 382.98676
1829.3721 378.6169
1824.7509 376.85974
1819.0261 376.2955
1815.0759 371.57904
1811.4348 378.7157
1807.5967 374.5293
1801.6003 370.49655
1792.2458 367.6434
1784.1659 368.18768
1785.3677 362.89758
1799.51 365.3736
1807.6821 361.4929
1807.9749 364.79297
1806.8711 368.7774
1811.1726 367.87512
1815.5175 359.97968
1815.813 364.7437
1824.1473 368.49704
1822.9756 361.4233
1818.8259 356.74768
1819.842 352.6413
1816.8427 345.962
1820.148 341.86215
1822.716 337.58948
1825.09 347.6396
1830.025 351.17078
1826.1154 356.58746
1833.9214 356.05206
1835.6299 362.3082
1831.0543 366.62
1833.6328 373.11316
1836.4987 378.02585
1839.4541 379.77173
1841.0372 382.13867
1842.3602 375.55518
1841.1543 369.06906
1847.3367 378.83383
1844.5945 384.7315
1847.8442 389.47577
1850.6083 398.45886
1853.165 409.99133
1847.4224 404.73132
1844.6902 398.76514
1843.6868 394.69897
1839.0083 392.6097
1838.445 386.82532
1832.1943 388.44287
1825.9409 391.0637
1825.9283 395.75458
1831.4948 395.75952
1835.5338 400.82867
1840.8135 402.78107
1839.201 408.8717
1833.3352 410.98874
1827.6646 411.46176
1824.3508 415.9161
1820.2017 416.98557
1821.9773 409.3313
1827.814 403.7517
1823.7117 399.63055
1818.7173 394.7558
1816.2246 402.1246
1814.9242 408.20435
1814.9578 416.41125
1812.3044 421.84875
1806.013 419.76874
1809.1489 410.66943
1803.7073 413.9389
1798.1962 412.32495
1793.1738 413.51816
1787.2915 415.52905
1789.4297 419.24872
1793.0743 420.79602
1797.7849 420.73544
1800.5095 425.77325
1797.8257 434.8685
1791.26 435.7247
1793.1726 428.92163
1789.4263 424.37497
1785.7002 425.5791
1783.4044 419.443
1780.5189 424.3155
1775.8335 421.93198
1775.4578 418.08588
1777.0327 413.9369
1779.7449 407.57166
1773.8273 406.0582
1770.0526 402.4487
1773.7283 396.42377
1773.3503 388.4232
1771.179 381.68494
1764.2284 375.92786
1758.6836 384.53537
1764.8479 387.02673
1763.9755 393.2279
1766.1244 398.98248
1765.065 406.4466
1766.6284 413.88177
1763.5049 423.34186
1770.1774 422.2635
1771.9448 427.78162
1778.1582 428.46432
1784.7389 430.4488
1776.8899 435.58453
1782.8599 437.45172
1785.659 442.12177
1791.3486 442.43896
1795.0471 443.6754
1800.0422 441.7287
1804.4355 445.45667
1800.0505 448.22897
1796.2186 449.87787
1794.2994 454.7359
1789.2234 456.9734
1787.3854 462.28806
1795.0608 462.6711
1791.6892 470.9054
1792.7922 479.4737
1802.4255 471.51733
1807.9578 469.33737
1806.0107 481.15744
1799.4998 478.73288
1798.46 489.94806
1805.756 492.7296
1801.8063 497.82776
1795.5745 501.02765
1791.7045 506.19418
1792.0914 512.4051
1791.6019 519.6315
1792.3917 527.8736
1788.2106 524.37585
1782.6919 521.5351
1780.1041 517.2578
1775.3271 514.6046
1773.4473 511.1456
1775.913 507.49078
1774.0688 502.2357
1768.8097 497.2363
1773.273 496.53577
1778.268 495.7176
1779.7107 500.49902
1780.4751 505.156
1780.8096 510.25488
1785.0586 512.8292
1787.0533 508.70575
1786.5414 504.63043
1787.0642 500.84216
1786.1289 497.30576
1785.9216 492.92053
1791.0759 488.91748
1787.4728 481.17368
1782.363 483.9063
1781.5198 476.00757
1783.0845 467.86694
1778.3115 463.005
1778.6079 458.3493
1783.0133 454.15598
1789.7489 451.7843
1789.7009 447.3451
1784.4299 447.97137
1778.5427 447.48788
1772.0515 445.8972
1771.1611 440.44568
1763.3296 436.87057
1773.428 431.60034
1768.1403 432.94418
1760.7578 430.65448
1755.0977 427.4812
1755.7533 418.96698
1754.7285 411.61935
1759.2322 407.71982
1759.0532 401.6754
1759.8071 396.76328
1757.3005 393.01324
1754.3999 386.716
1750.86 388.6904
1755.7164 390.4416
1754.531 398.76788
1749.5653 398.619
1750.0952 405.56958
1744.0989 403.25513
1738.5565 405.25653
1735.419 409.48767
1727.6223 408.09735
1722.7089 413.91357
1719.4912 408.3991
1723.0927 401.57294
1729.2809 400.79657
1736.1816 399.49744
1741.5653 396.31113
1745.8718 393.93698
1750.9973 393.0503
1745.6302 387.66656
1751.476 382.73532
1752.4753 375.94174
1746.3181 378.84076
1741.9127 379.76147
1738.4287 382.67096
1740.1096 387.8692
1734.9314 391.3111
1731.6299 395.77417
1727.3235 392.64307
1718.0435 387.85248
1721.3866 393.40866
1717.3492 400.6191
1713.717 406.56268
1709.8226 409.7302
1706.2699 411.4272
1715.326 413.43182
1716.2158 418.81622
1711.5891 418.2589
1707.9083 416.03027
1707.1655 422.08252
1704.416 427.1372
1703.3484 435.85675
1709.6716 431.4126
1716.6641 432.74765
1715.098 424.89392
1721.6233 421.60437
1727.4346 420.0658
1730.7579 415.09833
1735.3011 420.97052
1737.9624 416.18933
1745.1932 412.34204
1746.3849 419.10565
1742.2987 424.002
1738.0669 426.3382
1741.1798 431.17575
1740.481 436.38995
1746.5659 435.00317
1748.6252 426.53888
1750.9834 433.54327
1750.7833 440.6877
1755.7656 436.23602
1759.8939 442.3685
1760.5459 448.9538
1766.1533 449.42538
1770.2571 452.5218
1775.358 454.04065
1770.7947 459.67194
1764.1296 456.6047
1757.0259 456.49512
1758.8231 463.08514
1763.4595 463.83444
1768.4276 466.16562
1772.402 468.70676
1777.5684 470.58075
1774.7458 474.50424
1770.3843 474.84726
1770.8107 478.79608
1762.456 476.97284
1760.5784 470.32727
1753.9353 474.14133
1755.2946 479.62134
1749.968 482.01645
1750.4719 486.5908
1755.0071 489.64227
1759.1204 485.09845
1766.5068 482.15878
1774.5747 483.31366
1778.5804 489.1903
1772.6282 491.74255
1767.2786 488.55786
1762.2092 493.41272
1757.6852 497.1217
1751.8855 496.00128
1749.4012 491.97217
1745.0989 492.12598
1746.0426 497.37396
1752.6255 501.7076
1758.6642 503.28827
1755.9508 507.66736
1762.5308 509.39398
1764.3638 502.3612
1768.9736 503.16486
1770.3455 507.5642
1767.3213 513.49805
1769.2532 517.8714
1773.096 520.3537
1772.4297 525.4463
1767.1455 531.31274
1768.1848 537.2868
1774.99 535.1796
1773.0387 530.94727
1779.0203 528.291
1784.7698 527.8099
1782.9614 532.146
1781.6438 536.34735
1778.8933 539.7358
1778.29 544.00964
1780.6909 548.03296
1777.8523 550.5575
1778.6979 554.806
1772.1653 553.70197
1765.6135 552.3306
1767.9948 547.1012
1773.4739 547.35205
1772.3839 541.6216
1768.133 542.06506
1765.746 543.5154
1763.0886 546.229
1758.2485 547.12726
1759.2961 552.313
1759.1636 557.61365
1762.6769 562.273
1767.8374 558.8025
1772.1494 561.8509
1774.9827 565.3908
1770.386 568.5904
1770.3638 572.9146
1770.1182 578.1139
1765.7356 580.9231
1764.9382 585.7462
1770.1649 585.4902
1774.9475 582.0823
1775.4285 577.6487
1774.299 574.18616
1775.7332 570.37836
1780.6318 577.4385
1779.1567 573.8663
1780.3118 568.36
1777.2925 558.85565
1780.4434 562.48096
1784.7396 566.0161
1789.3477 566.7114
1790.7839 571.568
1792.0928 575.9784
1785.3464 573.7492
1784.9312 578.9449
1781.4941 582.58453
1778.8994 585.2515
1776.6263 590.07446
1772.6255 589.35944
1769.9231 591.8961
1769.1669 596.21533
1774.8187 598.20776
1782.1832 601.386
1780.9445 595.8501
1782.1865 590.75684
1785.6848 587.54785
1787.8572 582.386
1791.3137 588.9872
1787.9773 594.5571
1794.0801 594.5777
1798.5355 593.1931
1800.698 598.5923
1804.9852 593.41394
1804.0591 588.6552
1799.5217 586.89233
1794.408 584.9789
1795.2253 580.0965
1796.0228 575.0413
1797.3446 568.7117
1796.029 561.64246
1801.7927 559.1007
1800.6221 552.04535
1790.1056 553.742
1783.9904 553.1924
1787.1896 559.5886
1795.3196 552.6898
1797.347 547.33215
1800.0913 544.11176
1804.8696 544.4357
1806.5159 550.4568
1808.3123 558.1217
1806.8894 554.41766
1809.6235 546.51086
1803.7748 538.2286
1798.4197 537.92883
1795.333 540.96564
1790.7917 543.1422
1791.3248 547.9426
1785.0536 545.14105
1790.1646 537.76074
1787.0544 534.0203
1794.1633 533.1803
1798.5533 529.82404
1803.1406 531.1909
1807.7938 533.4801
1812.5942 537.5754
1813.5753 542.4899
1814.212 551.04504
1816.3323 557.3172
1816.0078 564.6535
1821.7471 566.3186
1828.0894 563.90173
1821.2712 561.29694
1824.9944 557.56396
1830.4031 555.1277
1833.4536 550.7815
1834.9775 545.6585
1828.1082 548.563
1821.8943 552.17065
1820.509 546.06396
1824.5402 543.0062
1823.9719 538.7356
1818.7275 534.24817
1813.6757 532.1483
1811.4089 527.86444
1816.256 524.26373
1820.1812 527.37195
1824.2377 529.7335
1826.9724 534.3097
1831.0215 540.82214
1837.4167 540.6503
1833.6512 535.21063
1832.92 529.941
1831.6293 526.1263
1826.9326 526.23755
1824.2195 520.0118
1818.6917 517.9333
1822.1853 513.1815
1817.6715 508.62823
1825.2561 507.21286
1826.5264 500.84787
1831.839 505.72516
1831.1396 511.0647
1836.4988 512.1219
1842.892 515.3751
1837.27 517.14435
1829.6444 516.0414
1828.3088 521.94104
1832.888 521.49457
1838.0364 522.4758
1841.6069 525.9559
1840.7933 531.3285
1842.301 537.0501
1846.4833 543.283
1851.072 533.0641
1860.1267 534.94507
1856.5348 537.9031
1854.491 544.0937
1860.6274 547.82935
1857.4624 552.21326
1860.0161 558.89014
1851.9177 558.15717
1849.4353 566.0797
1854.5377 564.13965
1860.2377 566.86725
1865.1187 569.3721
1865.5276 575.5808
1868.3875 572.8967
1870.4453 568.1728
1871.8276 573.00964
1877.2075 573.5908
1873.0527 577.83203
1879.2202 581.02875
1879.1768 586.7074
1882.0686 592.5136
1875.1722 591.4509
1870.4473 594.8428
1876.2568 596.38495
1874.8885 599.1095
1871.8047 600.2988
1877.4677 603.0286
1886.8436 603.452
1891.6746 602.30536
1897.0674 603.1897
1897.7437 596.85547
1892.5391 595.6084
1882.6998 599.0869
1888.7969 591.97565
1883.7781 587.26807
1887.7263 584.0665
1895.162 580.3867
1894.6434 586.3484
1900.3239 590.2645
1906.3588 593.3607
1907.2112 587.5585
1911.7285 584.0769
1913.3691 579.25806
1915.015 573.8529
1910.2974 571.73895
1907.5757 580.1092
1901.821 583.5255
1900.0994 576.77
1892.1118 576.4407
1886.4905 575.8845
1883.032 570.7779
1878.7648 567.59216
1874.9258 565.6162
1871.9415 562.7921
1866.8939 560.84784
1866.1095 552.66516
1873.937 556.0603
1875.4116 551.2818
1877.5305 546.5421
1873.0935 545.2218
1870.2292 547.23804
1866.1455 545.2204
1861.8975 542.1104
1865.9176 539.04626
1870.2675 539.7057
1874.4845 541.2012
1876.6968 534.9243
1869.246 534.49286
1864.2686 534.00916
1861.2386 528.4696
1864.1855 521.2768
1856.7775 522.16327
1849.5149 525.98395
1848.1809 519.6831
1848.4734 511.43954
1854.9084 514.2949
1855.6471 508.1793
1850.5022 503.3166
1855.7622 497.3432
1853.6288 490.96924
1848.7522 495.20984
1840.7708 488.22028
1841.2822 493.23776
1843.9232 500.10715
1843.7881 507.5543
1839.0675 506.83618
1836.4141 502.6413
1836.2211 497.3874
1829.8933 493.62582
1834.664 486.81268
1831.5869 481.19415
1836.5828 476.26086
1840.7756 480.99658
1844.9688 484.07715
1848.9526 486.71008
1857.2776 484.99707
1852.9858 478.19626
1846.8422 477.05426
1842.4961 474.80438
1838.1321 471.1391
1831.6272 471.78204
1829.1045 468.25412
1825.1356 467.54712
1825.8678 463.34933
1830.0159 458.93622
1836.0555 465.47153
1841.8544 462.4614
1844.2083 468.09424
1848.7559 471.35104
1850.6504 464.16464
1855.0148 469.81946
1860.9132 469.71533
1860.3921 462.72162
1868.0109 459.35626
1866.2755 465.2689
1867.8871 469.25436
1872.1246 469.87665
1876.632 471.74054
1872.7843 475.77954
1868.3108 474.99707
1865.4058 475.59348
1861.0751 475.153
1861.8718 480.7375
1868.2964 484.9566
1870.6552 480.66318
1875.1432 481.5963
1878.246 484.55136
1873.3217 490.95026
1868.1206 491.05627
1861.7184 491.1056
1863.324 497.5039
1867.8391 501.02277
1868.5156 506.56213
1863.6332 503.13635
1858.2499 503.07834
1862.8976 508.98535
1861.9429 515.17017
1867.7002 514.0425
1871.3601 516.4441
1875.9226 515.9284
1873.736 511.50885
1871.8496 508.62366
1874.9863 504.2783
1872.9011 498.88498
1877.3103 493.84393
1881.473 488.4398
1884.6259 483.8634
1896.5897 483.4547
1901.5106 490.33734
1901.8447 485.1058
1891.5139 480.08136
1887.6863 478.2944
1884.4316 477.18976
1881.2505 479.55176
1877.8013 478.7105
1880.0272 475.4847
1882.6997 471.05725
1882.6349 464.3368
1875.0503 464.90244
1876.4116 458.10602
1870.8741 451.30322
1877.5527 450.79828
1877.1827 444.75354
1875.6753 441.252
1872.9431 437.7494
1867.4061 438.59424
1862.8965 437.67505
1859.3022 439.21216
1854.6351 441.11316
1858.7727 445.37
1865.97 444.65375
1865.5061 451.68262
1861.9089 453.65533
1858.4156 450.2647
1857.5825 454.54553
1859.7189 458.11105
1855.4465 459.62326
1852.3595 457.8275
1852.5183 453.25635
1853.6713 449.2647
1850.703 446.20297
1848.427 442.74957
1847.0219 439.65524
1843.5278 438.0495
1840.0674 437.9978
1836.3081 436.9216
1831.1099 439.03012
1830.602 444.4765
1833.0369 453.89417
1838.3591 453.8105
1842.1686 457.37302
1848.1313 457.86032
1846.3848 452.0395
1843.7798 447.7075
1839.8022 445.42358
1837.3291 441.55127
1834.1727 443.4646
1834.5476 448.26166
1827.1494 450.01877
1821.7288 454.9211
1816.5867 460.40378
1818.7762 467.7082
1822.7886 471.94476
1827.627 475.0727
1824.9974 478.55963
1820.0482 479.74338
1823.5753 486.80914
1821.0613 494.4594
1816.6731 501.80026
1809.5186 513.7253
1812.1102 519.7627
1806.291 526.3525
1803.6794 521.96704
1798.3069 519.05145
1801.589 510.43903
1807.4177 503.9957
1810.7468 496.54367
1815.0334 491.1618
1807.8959 487.61005
1813.984 482.31454
1812.7429 474.6202
1813.2029 468.83456
1810.6464 466.54282
1811.0333 462.8708
1805.7922 464.87143
1801.6533 463.8309
1800.2272 459.51096
1801.2401 455.30844
1805.6836 451.06052
1808.7258 457.23724
1814.8313 454.51508
1816.9827 450.66193
1810.877 450.96494
1811.3512 445.2395
1808.3702 439.84332
1803.8779 436.27985
1803.1265 430.16504
1807.736 430.6776
1808.4023 425.75305
1815.485 427.36047
1812.5819 432.68274
1815.0679 439.7755
1820.253 438.21753
1817.8206 446.7514
1825.096 442.77402
1824.5354 432.9641
1819.8164 428.9583
1819.7908 423.22894
1824.9263 424.5625
1826.7755 419.63937
1832.2614 417.4144
1833.791 421.87094
1830.4326 427.09058
1832.6455 433.37997
1837.7827 427.9337
1840.6638 432.42426
1846.5896 433.63644
1845.8303 428.07712
1845.6191 421.7693
1849.1987 417.14288
1840.9801 424.20038
1838.3262 421.05966
1839.3074 417.18356
1842.9636 415.6596
1844.2942 411.30084
1848.6155 411.1888
1853.7468 418.24094
1852.4556 423.64404
1852.28 429.0615
1852.1815 435.28174
1856.9502 435.7872
1858.0305 432.52814
1860.1227 429.48865
1863.6943 426.32574
1867.795 432.7207
1873.0032 429.67883
1878.2593 434.86774
1886.037 439.65497
1892.0289 444.77606
1884.8212 448.61285
1885.431 456.39426
1892.8743 455.14758
1898.304 452.6349
1907.0986 454.40073
1902.1472 461.6029
1909.2456 464.36884
1907.779 470.02744
1903.3972 470.5144
1899.2314 470.62537
1896.613 466.94965
1894.4808 461.31366
1889.2014 463.1606
1890.2727 470.5996
1896.0446 476.19882
1901.3956 476.8436
1906.2583 475.79453
1916.8754 469.31235
1911.6265 475.6197
1908.6643 482.9027
1916.0303 485.11377
1918.326 477.3355
1927.2969 475.8238
1930.3477 488.0465
1923.7798 485.19067
1919.4939 490.35297
1920.4365 495.72327
1925.3191 493.20514
1929.519 496.50555
1933.7817 500.6703
1933.395 506.57016
1933.8306 512.90173
1934.9553 518.9685
1936.8138 524.2765
1937.9033 533.0719
1933.1171 532.42804
1935.4053 529.12976
1932.0753 525.95966
1928.8291 522.4791
1923.5071 524.254
1925.6179 516.60205
1926.0347 509.78223
1925.6545 503.69528
1919.9486 501.47043
1913.2063 504.83337
1918.4906 510.27832
1917.0482 519.4735
1910.8058 512.0995
1903.4407 509.7102
1906.7253 504.9265
1899.2454 504.9826
1901.886 500.72766
1911.479 498.86206
1913.7571 492.3492
1906.7257 493.6242
1898.0417 495.39996
1894.2292 504.62146
1892.9154 499.05173
1887.6646 496.8565
1891.873 493.4638
1891.6038 487.94955
1887.0887 490.48907
1884.9454 493.30585
1881.8173 493.77203
1881.3812 498.6318
1887.5236 502.82166
1881.9305 503.95004
1879.0466 508.00647
1880.9796 512.34283
1885.1257 515.71826
1882.8878 518.5405
1880.6954 521.33105
1876.1483 521.8586
1870.0718 522.05164
1869.6505 529.5134
1873.0911 526.4896
1877.1925 528.5641
1881.8038 529.2406
1886.1587 528.582
1888.2909 523.95264
1891.9264 518.17676
1888.6804 516.7013
1887.9471 511.2953
1890.7948 508.36252
1896.8425 510.42072
1901.5845 514.715
1897.3097 517.22577
1896.1582 521.8517
1893.7202 526.3495
1897.1094 532.45337
1900.9061 528.2712
1902.2089 523.1122
1907.736 518.82104
1910.9371 524.6657
1908.8362 530.0569
1909.5256 535.02673
1907.1838 538.3765
1904.8848 541.7092
1899.9092 543.3236
1901.0742 537.43
1903.8071 533.00146
1895.8066 538.0074
1890.2158 533.4906
1887.2278 539.46643
1881.1764 540.57465
1883.6849 549.1569
1882.5087 557.6537
1877.629 561.4979
1882.8496 563.551
1889.1306 566.5632
1890.0527 560.42456
1886.9034 554.74786
1889.8872 550.9114
1892.3501 544.17676
1896.8914 549.4883
1904.4427 548.5337
1908.8053 553.1877
1911.9819 548.5317
1911.4072 541.4657
1917.3326 541.6078
1925.5415 538.4114
1921.0251 534.86176
1916.4088 533.67993
1914.1171 529.679
1919.4789 527.8524
1927.6311 529.3579
1929.7266 534.4723
1933.7474 540.5095
1934.4918 549.8888
1928.2563 546.6677
1922.5697 545.1767
1917.6768 547.7352
1919.3855 552.3827
1925.07 554.55676
1930.815 558.18115
1929.9672 566.6009
1924.4469 563.8856
1919.482 560.2418
1916.1556 556.3611
1912.4678 555.4844
1907.7283 559.11096
1904.3317 555.96375
1900.2012 555.5195
1892.7009 553.74426
1895.2913 556.93896
1897.1382 562.15173
1894.8143 570.3977
1900.3768 569.1112
1905.155 572.7848
1901.9915 564.3716
1907.059 564.42773
1912.6377 562.61475
1916.4298 566.6806
1920.8373 569.8873
1926.5715 573.0145
1922.4036 576.6876
1918.9915 579.1312
1919.2588 584.5564
1914.4275 589.8785
1911.7087 597.9278
1903.3596 598.7306
1905.0203 607.90607
1895.0289 609.3589
1887.0006 610.75977
1879.2598 608.05646
1880.4623 613.12634
1884.7692 618.6098
1879.0356 616.57556
1877.7258 620.2476
1874.0233 624.38666
1869.3141 621.4106
1873.2317 613.579
1869.6099 609.88025
1870.4026 604.7203
1866.4883 600.41296
1858.6838 598.4945
1865.0232 596.17505
1867.5872 590.6319
1871.1282 584.7883
1867.5681 579.7678
1862.8055 584.57196
1862.2229 590.7644
1856.2744 589.8273
1851.6835 596.71436
1845.1794 599.51886
1843.3735 593.51526
1848.4755 589.6428
1849.8079 583.6534
1851.1486 577.703
1856.7576 581.3296
1861.7356 578.4818
1859.7837 573.6005
1853.9731 571.4235
1848.0637 572.8202
1842.6584 574.6793
1842.9115 569.97046
1841.7102 565.6254
1844.6361 567.3867
1846.182 564.7458
1845.3507 560.68225
1844.0859 556.1194
1849.8198 551.4779
1841.1436 550.12463
1837.8806 556.2147
1833.4559 558.6633
1833.4607 562.54395
1838.3389 562.9732
1840.5005 560.9482
1837.3269 566.2355
1833.3904 567.70526
1832.3948 572.5779
1828.6184 572.47546
1825.7603 569.30725
1823.1172 572.175
1821.2001 575.4165
1818.6597 570.6609
1813.249 570.4414
1809.8667 562.76404
1806.3274 568.5953
1802.9763 573.61646
1799.063 575.90045
1803.0449 580.7145
1809.7617 580.3261
1810.8083 576.1958
1816.6292 575.3308
1817.9795 580.1296
1824.749 578.71265
1831.1958 578.8776
1835.8599 576.73315
1837.633 571.8136
1838.7146 581.5157
1843.4717 580.0372
1841.4414 587.67676
1835.1003 584.9458
1829.1128 583.85956
1823.6909 587.57104
1819.6771 585.44653
1814.5991 585.28845
1808.6105 584.83594
1810.1296 590.43555
1815.3765 590.96387
1817.1418 595.07227
1809.096 597.5978
1807.0066 604.7817
1809.4457 614.3829
1817.8589 618.0421
1830.9019 619.2051
1832.1063 610.11237
1824.3887 611.6959
1817.5161 611.0967
1815.5765 606.8826
1816.3394 601.05334
1824.1251 603.4759
1829.8568 602.27026
1833.6696 599.744
1831.545 595.239
1824.1245 595.6228
1828.632 590.5089
1834.8611 590.5853
1840.0881 595.80115
1837.8613 598.117
1838.294 603.96783
1839.5979 611.36346
1846.4238 612.51575
1845.4906 605.4586
1852.7854 605.50336
1861.3286 605.65295
1862.917 612.31555
1863.4392 620.0626
1856.117 620.1207
1853.2208 613.4634
1840.8594 620.7376
1848.4287 621.1223
1859.5986 627.8769
1850.3547 629.0973
1842.6997 629.6383
1834.9623 628.93774
1825.6882 627.57623
1817.0355 629.4193
1808.5365 626.8325
1802.792 620.5107
1796.8254 616.5448
1794.075 623.41516
1797.9685 631.3746
1786.704 625.95245
1779.2395 628.3932
1775.5266 634.2298
1769.9797 629.45374
1765.75 620.9622
1763.7725 625.1709
1765.1562 628.4003
1762.1859 631.6709
1757.7184 634.3937
1756.3198 628.41675
1758.4194 620.59705
1752.8701 623.2842
1749.8325 617.33105
1748.7661 608.81506
1739.8674 613.2293
1740.7299 620.2024
1749.5774 629.1804
1743.7543 624.8132
1742.59 631.5627
1733.4385 631.1992
1735.3706 626.7674
1733.9049 622.68933
1732.303 617.5773
1730.446 609.44214
1732.7664 604.43225
1737.8221 606.4242
1741.6244 602.51526
1742.3058 596.05176
1747.4243 592.80054
1751.8425 590.5701
1753.4672 593.8883
1753.8523 597.7305
1749.1721 600.88074
1755.531 605.4954
1760.3445 603.1273
1761.5298 611.47107
1769.0088 615.66437
1776.3197 618.506
1783.7285 616.9435
1788.8759 614.70746
1793.1167 614.91547
1801.3033 612.8237
1799.4276 605.82904
1793.19 608.6671
1792.4802 600.40283
1788.4695 604.271
1785.0298 607.9956
1781.9244 612.0158
1777.3408 608.0895
1771.3165 605.5487
1766.0413 602.28577
1761.7285 597.39923
1765.345 591.4663
1760.4948 592.313
1758.0923 589.9412
1755.3876 588.8738
1758.7428 584.2818
1759.552 578.4369
1765.3694 574.7339
1761.1257 572.0044
1767.0977 566.29407
1762.1006 567.5632
1755.6882 565.8776
1753.596 560.313
1750.8287 554.9901
1746.904 549.8487
1753.9211 549.6926
1751.7361 544.5593
1746.9288 542.02246
1740.1005 545.69336
1741.4186 554.4819
1741.1974 560.3992
1748.0553 562.2119
1739.3748 565.01263
1743.3557 568.9707
1746.6663 574.37744
1751.2617 570.0916
1755.9607 573.4852
1753.0837 579.58966
1751.1193 586.15967
1746.9816 581.0353
1742.9569 587.2145
1737.2616 590.34595
1731.6042 590.91754
1732.6406 597.21765
1725.4777 601.88104
1718.5597 605.0133
1726.5674 611.2997
1722.9937 612.343
1717.875 613.72314
1715.414 621.40247
1722.5796 620.0302
1726.2072 625.41943
1717.9705 631.61707
1714.7406 627.74854
1704.5327 633.4769
1695.4586 631.1575
1698.0493 625.9317
1702.8394 620.63794
1708.6719 624.93085
1710.5663 615.0991
1709.9374 606.88727
1701.6777 612.4571
1694.5149 615.37463
1698.0315 604.1638
1689.6438 598.0463
1682.87 598.39075
1684.3828 603.0572
1688.26 609.14624
1684.1484 616.0514
1688.8254 617.7705
1690.1758 623.7597
1684.7295 625.7918
1682.2994 620.7574
1679.4575 625.38855
1676.016 622.7478
1676.5164 616.8194
1679.8612 612.42944
1680.4486 607.9597
1678.4735 604.2406
1676.0261 599.8323
1670.9673 601.2747
1671.6333 606.2728
1674.1576 610.4883
1668.5624 612.2306
1670.7358 620.3963
1671.4102 627.7023
1675.3574 629.7582
1682.503 629.6647
1689.2817 631.69507
1680.0704 633.17725
1668.8577 632.3627
1661.494 631.95984
1665.8262 627.69543
1667.737 624.2226
1662.2781 623.8925
1659.9353 627.2241
1655.4141 628.38135
1649.3145 626.1312
1640.4855 624.30725
1643.3689 618.9441
1650.1234 616.5589
1657.4406 619.79443
1664.6658 617.4726
1660.4086 612.2117
1655.1553 610.23816
1653.2523 604.0324
1656.9664 594.1654
1659.3898 600.1918
1663.8125 605.43823
1665.7294 598.5819
1667.9695 594.3385
1671.9279 591.44885
1675.7632 593.3036
1681.5658 594.54755
1680.8312 589.1228
1677.1016 584.96277
1678.9071 581.0372
1678.8804 575.5565
1675.2213 570.09894
1672.0566 564.3364
1673.4891 555.1238
1679.6462 553.6528
1685.8728 553.55054
1688.922 546.99457
1681.5745 544.93445
1677.0095 539.0177
1673.2863 546.0241
1668.3906 540.4604
1662.0447 533.46655
1659.8374 540.80975
1664.1917 545.6949
1665.9968 550.4494
1665.9164 555.0705
1665.4354 559.9878
1659.0319 558.5939
1656.6803 550.5729
1649.9008 549.88684
1643.5718 547.92944
1647.8167 542.796
1652.5483 539.7297
1652.6517 533.6466
1643.6768 536.8506
1641.4424 540.5571
1646.1326 532.73663
1645.5481 526.78986
1641.1212 524.6634
1641.1072 531.77185
1637.1777 529.1869
1631.6816 532.1858
1632.6332 525.01263
1627.5393 523.7822
1625.2886 528.1534
1621.2621 529.72546
1622.8418 535.37695
1616.372 533.61975
1612.6646 529.36536
1609.1633 538.58966
1603.3832 540.9765
1610.8802 547.86566
1602.9047 549.54645
1598.3689 555.9313
1604.8202 561.5069
1610.9076 559.01355
1615.1133 554.2404
1617.0392 549.58826
1619.3269 546.45294
1614.8514 539.93097
1620.0132 541.75323
1626.2452 539.2064
1629.9264 542.55493
1633.9797 537.0862
1634.4022 543.0716
1638.7688 543.38745
1637.3031 547.80273
1630.6708 548.71674
1624.9175 545.49976
1623.248 551.86145
1627.844 555.44116
1632.3948 559.458
1635.5709 554.47296
1637.0239 550.9787
1639.4948 560.5934
1643.3308 554.95
1650.1819 557.9804
1652.8976 563.032
1656.0448 561.63916
1656.665 566.543
1658.3517 571.22455
1664.427 567.4878
1668.5061 574.88617
1673.3171 577.80865
1672.1764 586.0432
1668.2028 581.43933
1663.1249 583.18646
1664.7765 589.20996
1657.7318 584.8433
1662.1985 576.14343
1655.6978 577.64526
1652.1724 572.7218
1650.7612 568.407
1649.825 564.612
1646.0591 563.4736
1642.5074 565.07007
1642.7717 568.49585
1642.8096 571.89246
1645.6882 573.70886
1649.2814 576.33405
1650.962 582.0558
1651.4431 587.6738
1648.7535 592.645
1647.3892 597.9203
1647.2598 602.8196
1647.075 608.8506
1641.7798 601.1239
1637.5308 603.0605
1632.3245 605.5337
1633.4287 609.15393
1638.2649 609.16797
1642.5459 610.73267
1637.4221 614.3584
1635.1531 620.30554
1640.856 630.8596
1632.5382 627.1648
1628.8376 618.75806
1626.1808 627.3349
1619.4918 631.36194
1618.2903 626.03503
1620.9832 621.26
1624.2015 617.359
1630.757 613.88574
1628.0892 607.8589
1623.1384 608.45856
1618.1807 613.3397
1611.3633 609.51166
1609.5255 615.1198
1611.3799 617.57935
1615.3866 620.63794
1610.5079 623.22455
1608.8384 627.1952
1610.8618 634.39343
1603.967 630.2772
1599.4017 630.4734
1591.2273 626.4469
1590.6238 620.37274
1596.7183 617.1888
1591.4094 614.0294
1590.2861 609.2035
1586.382 611.7622
1582.7065 613.36633
1585.3632 617.771
1584.6333 623.63654
1579.4946 619.87384
1573.7258 620.3692
1568.1519 624.7229
1570.947 631.45496
1574.5132 626.2787
1577.9188 630.9446
1583.2688 627.88464
1585.7148 632.2986
1594.4572 630.8143
1599.1483 623.6287
1603.2922 619.39276
1606.5273 613.9197
1603.1547 611.6074
1597.5115 611.4199
1598.0652 606.2205
1604.9738 604.27716
1611.2064 601.9175
1617.7028 603.6863
1623.5061 599.4814
1627.7622 594.6399
1627.8716 601.94165
1632.5021 601.6048
1633.831 596.94354
1641.1526 591.95105
1645.333 581.8723
1641.0154 577.5149
1638.4045 580.66736
1637.3298 585.3686
1633.26 590.6
1627.48 589.5054
1622.7588 588.4581
1620.9722 593.8772
1615.4287 595.331
1609.2864 594.86194
1605.2585 590.5148
1612.4501 588.72034
1617.5157 586.03394
1617.1475 578.86865
1620.438 573.5657
1621.785 569.4583
1625.8783 573.02893
1623.279 576.97815
1623.4109 581.24963
1628.5967 583.7551
1628.4171 577.50745
1634.3387 577.78955
1631.2264 572.30664
1637.7881 571.68463
1637.2954 567.2866
1633.1155 565.50006
1626.2336 564.39856
1620.2397 559.5895
1615.825 566.70197
1607.2037 571.6929
1610.7573 575.51483
1608.9683 583.12976
1601.6871 581.14636
1597.7703 589.73804
1601.8921 597.7601
1595.6653 598.6356
1593.5106 603.6481
1588.9724 605.4849
1589.2307 599.9427
1592.3239 594.1692
1589.1316 589.95844
1592.7839 583.7532
1594.8643 576.8561
1604.1151 569.0768
1598.5696 567.44275
1593.3179 566.034
1590.326 558.3479
1583.0642 558.2588
1585.0442 564.68726
1587.0491 569.95654
1590.0468 573.86206
1584.842 580.2626
1584.065 587.43024
1585.5613 594.6455
1583.5618 600.44
1578.2603 594.74585
1576.0305 590.1041
1577.7515 584.40796
1571.6962 585.46423
1567.3406 581.70886
1563.7336 585.91846
1560.2728 581.7865
1566.5322 575.0289
1570.0308 577.48505
1573.9305 579.5778
1578.4325 577.9265
1581.1431 572.50635
1577.3867 568.11975
1573.0431 573.1435
1571.9595 566.15643
1575.6013 561.47034
1578.6213 556.15137
1577.0692 553.2682
1572.3885 553.2196
1568.8342 554.78375
1563.1831 554.23096
1563.2197 547.6371
1567.8948 541.7798
1573.2942 541.3207
1574.0457 546.402
1575.9437 549.9493
1581.7036 547.7651
1589.6621 548.8686
1594.1831 542.2307
1594.7823 533.74097
1604.4877 530.4691
1602.174 524.06104
1596.0309 522.72107
1589.4414 523.65173
1582.5234 526.3546
1582.5005 536.8305
1572.7333 531.28143
1574.1707 523.3605
1576.485 517.3704
1583.3748 516.21313
1589.1604 516.06335
1591.1636 512.54346
1591.3044 506.92328
1584.7505 506.98376
1578.9681 510.41034
1573.3337 510.95154
1568.0077 512.82635
1564.7073 508.4165
1560.1318 511.14645
1561.1431 515.8267
1564.989 517.2425
1568.9194 519.803
1566.0555 524.72473
1563.5074 528.1697
1564.8616 533.1737
1563.2385 538.26807
1556.7755 536.1415
1559.103 541.68787
1554.743 544.7379
1550.2645 548.9335
1556.7335 549.9997
1555.7686 553.8043
1556.5961 557.1649
1560.1339 558.3182
1561.2125 564.49146
1563.7701 562.9199
1567.1235 560.8129
1567.3085 568.2607
1563.4404 572.5342
1557.5608 575.75415
1552.8269 579.30164
1549.8951 572.9198
1559.2716 570.6706
1556.9255 567.42334
1555.4489 562.9917
1554.075 559.5986
1550.3599 566.37146
1545.1516 561.4507
1549.3875 559.244
1551.1191 555.1182
1546.1278 553.4973
1541.0215 553.782
1539.0917 557.3209
1538.0154 561.21765
1541.2094 566.69135
1543.5908 570.43787
1544.4012 574.78296
1545.9084 580.35767
1550.0079 585.4171
1555.2649 590.4666
1549.9855 596.6889
1546.5966 592.3838
1541.6382 592.7066
1538.2062 593.52545
1533.7589 593.584
1535.7733 598.9509
1540.7258 602.00146
1547.5867 606.15045
1545.6895 613.14484
1549.6934 616.02716
1550.678 619.9622
1555.8293 617.22363
1558.6816 609.14905
1553.4775 601.60297
1560.1323 599.3972
1561.7654 592.0347
1567.5684 589.9675
1568.5068 596.2893
1568.1382 604.4913
1576.1356 602.2712
1581.9282 607.0214
1577.1472 611.9756
1570.396 613.12396
1564.2527 616.3095
1561.718 622.3325
1562.6503 629.7277
1555.9829 633.0734
1555.2474 627.027
1552.1573 623.36646
1546.1536 622.2797
1540.8121 620.21814
1533.7505 623.1398
1541.1765 627.6509
1547.5503 630.42566
1536.5742 631.194
1529.3048 629.9653
1522.5337 625.69714
1526.5881 620.19965
1521.0388 619.7295
1519.8456 631.7876
1510.2219 630.0026
1499.7533 632.29224
1495.7352 623.74255
1489.9219 630.94434
1489.742 624.84045
1491.4138 619.1228
1489.8269 610.8954
1496.1729 608.40924
1496.7671 613.96423
1505.1074 611.797
1500.3378 618.5803
1504.8323 623.3291
1513.4885 620.5272
1518.1571 613.2422
1511.9897 608.5475
1509.0571 601.6552
1508.4868 595.49756
1502.1376 603.97473
1496.6177 602.0062
1490.1709 605.01373
1490.968 598.7011
1497.7434 594.671
1501.7472 597.68835
1504.4216 589.9705
1493.5503 591.38153
1490.2235 586.8729
1483.1672 586.63806
1481.0118 581.70044
1475.4064 580.0366
1473.7974 575.46277
1472.1321 569.989
1470.1257 572.6194
1467.4155 575.5561
1463.8827 575.21936
1462.6777 580.0435
1472.7976 586.09424
1465.7642 586.67664
1459.8496 591.5721
1455.027 587.6203
1450.3013 583.614
1443.8245 582.30927
1445.9255 588.7202
1446.4724 594.67126
1452.6309 593.98254
1453.5146 599.5294
1457.2284 607.68494
1460.4714 602.0179
1464.9711 596.6882
1473.4528 595.8787
1482.8291 593.02985
1484.2133 599.9257
1479.8408 602.8185
1477.7133 608.54095
1482.2183 611.32135
1485.9406 615.47327
1484.8162 619.82416
1473.7947 612.10535
1472.7146 604.175
1467.3915 605.9697
1463.9037 611.4614
1459.9963 616.7842
1455.0446 617.10815
1464.4941 622.3314
1470.5382 616.00745
1473.736 621.0343
1479.5911 625.21326
1484.3007 624.8272
1478.7502 633.6228
1470.6119 629.8331
1461.2261 629.52594
1451.8999 625.7068
1451.1542 620.00934
1445.5457 618.87085
1439.8777 619.3517
1435.6775 625.4575
1429.5712 618.479
1421.6495 614.90576
1410.8188 608.468
1406.4502 602.46515
1404.0549 596.0406
1398.6245 591.0888
1397.4937 584.1732
1401.5532 578.9913
1396.3167 577.5015
1392.0908 579.4961
1387.8464 571.5599
1395.0406 569.1154
1400.471 572.57324
1403.7246 567.88574
1406.7799 573.8595
1411.8953 576.86847
1406.397 580.79504
1405.118 585.93964
1408.7637 590.7009
1416.264 594.09814
1411.5399 600.27783
1416.6962 605.2715
1422.4253 606.96545
1427.6575 611.10065
1433.6213 611.7825
1439.291 611.8698
1436.4392 606.63354
1439.2222 605.1615
1441.529 604.9864
1443.7195 603.0702
1443.7073 607.14526
1445.1062 610.319
1448.6454 613.361
1452.1581 610.44727
1450.8435 605.50214
1447.5605 601.5781
1443.2788 598.86755
1440.7451 596.0531
1441.4512 592.19727
1438.595 589.01483
1437.3196 583.49603
1436.6243 578.2339
1433.1283 576.187
1430.1696 576.6946
1427.2568 575.8429
1423.2949 574.2498
1420.5358 577.93146
1424.2388 579.55884
1427.7847 581.5296
1431.5696 582.76807
1432.3574 590.33966
1435.6968 595.7354
1439.4109 601.58044
1435.7708 600.65015
1430.6184 604.8767
1429.9568 598.2492
1423.7089 599.76953
1425.1912 591.4374
1422.8225 585.6753
1414.29 585.03204
1418.1621 581.3323
1417.3201 573.2741
1414.5272 567.0497
1422.818 567.19836
1427.1967 570.78754
1431.5144 571.46545
1437.6177 571.6709
1442.1815 574.13446
1447.2277 576.7497
1447.1271 567.35706
1452.4977 573.02844
1456.4069 580.81885
1458.6913 575.1336
1459.3604 571.05865
1457.2964 566.9439
1456.1934 562.10376
1463.1846 561.8252
1467.5944 557.5493
1462.6815 567.36725
1466.2803 569.2882
1469.5273 565.12366
1474.9277 568.2923
1480.7014 572.9197
1486.0292 572.282
1489.9545 568.9168
1491.3646 574.99054
1487.5052 579.52106
1494.7568 579.63293
1501.2262 583.66394
1501.9685 574.85205
1495.3588 569.0161
1491.3583 561.66693
1483.9291 564.9851
1477.8411 565.13025
1475.9507 559.60144
1471.9391 553.9169
1471.5771 548.88055
1472.0852 542.34314
1467.0006 540.8247
1463.1785 545.48303
1460.4424 552.8893
1454.2477 546.01965
1446.112 545.2757
1439.9961 548.04944
1435.626 548.8711
1432.0657 546.1895
1427.2191 544.3346
1421.175 549.32184
1424.8547 548.9546
1428.7129 552.85864
1432.3687 559.1588
1436.2262 556.4166
1442.7922 555.7676
1445.7737 550.9039
1452.1865 553.50757
1450.3167 560.13916
1440.7747 563.1418
1433.2922 566.10504
1427.722 561.4307
1421.9263 558.6632
1416.3236 554.667
1413.4146 559.1613
1410.201 562.8804
1404.7177 563.46234
1405.2026 556.9374
1401.6619 550.09485
1395.9122 551.1399
1397.5852 559.62415
1388.8698 562.35156
1390.8469 555.489
1390.0494 546.7927
1390.1768 539.86475
1392.7458 533.2811
1388.2383 528.2831
1393.0166 522.6014
1398.562 525.47626
1401.1141 529.0242
1399.7666 532.354
1400.12 536.99695
1397.1293 542.6481
1404.5283 542.26355
1407.7346 547.2577
1409.9534 552.0102
1415.802 548.8603
1418.4298 544.8632
1411.7753 542.39307
1417.8358 541.7206
1417.9927 537.7142
1422.3989 540.75903
1425.9576 539.49994
1430.5199 540.6997
1436.621 538.27765
1442.8916 538.1509
1449.7645 536.88226
1451.9385 541.17957
1457.0737 537.73755
1463.5518 536.4096
1470.9645 535.9347
1464.8389 528.95966
1458.6854 530.51514
1452.1687 529.11725
1445.9066 529.9828
1445.7932 520.59796
1454.8223 518.08594
1457.7928 522.93835
1460.763 514.84033
1466.5337 512.2456
1470.6237 507.1963
1467.7161 502.13092
1472.8091 495.53326
1474.531 500.5228
1476.856 504.85193
1474.9541 508.1986
1477.9939 511.15625
1479.8477 515.45776
1473.8887 514.41895
1470.7855 518.54315
1466.321 522.3441
1472.8921 524.48254
1471.3945 529.85315
1476.8127 532.8647
1482.4175 535.3165
1478.2417 542.64453
1485.9653 545.86273
1481.3936 548.48505
1478.7094 552.4286
1483.7914 557.3535
1489.78 554.23755
1493.7896 551.7743
1498.0698 548.3301
1505.5315 549.71423
1499.898 554.0059
1503.7372 557.7374
1510.8088 557.4073
1508.4398 560.89136
1499.2798 564.01404
1505.0757 566.0053
1511.0894 572.8556
1515.3181 578.8384
1511.9382 586.29706
1518.724 589.51733
1523.5076 593.2283
1522.0616 598.0843
1516.4912 599.0218
1519.5277 605.5466
1524.5491 609.8715
1526.9348 614.63873
1531.0895 617.08905
1536.4187 616.2898
1537.7549 609.40924
1530.9994 610.6853
1529.3477 604.31696
1528.7727 598.4028
1528.7345 592.7771
1525.8159 587.2152
1530.4624 587.1047
1534.2375 586.1372
1541.6306 586.4985
1537.2491 581.48627
1540.3301 577.0987
1535.3208 573.8582
1529.6326 572.6107
1525.6116 580.45105
1522.058 573.7825
1522.2913 568.6578
1516.7852 567.8014
1510.7256 566.2307
1514.1047 562.2023
1518.9165 563.861
1517.8108 560.37366
1522.6964 558.28265
1523.6069 562.80145
1527.1534 566.30774
1530.5696 563.89905
1534.6807 564.4025
1530.0833 557.0879
1527.1399 552.93475
1535.4556 549.22473
1528.5857 548.97363
1523.1385 545.2426
1527.1438 542.4835
1532.3955 541.9422
1532.3884 536.1755
1534.4004 532.30634
1536.9404 528.2573
1540.8661 531.6719
1542.5585 535.9577
1538.9763 539.71594
1543.1228 547.1121
1546.5911 541.46265
1551.8848 539.4382
1546.476 534.8722
1551.1592 533.8437
1557.1501 530.62006
1558.5946 524.623
1561.7175 521.3194
1555.9592 518.9356
1554.6737 514.2462
1554.3711 508.57043
1558.5652 505.16516
1560.9684 502.5354
1560.7109 497.60693
1555.1757 496.05457
1558.3458 491.14856
1559.3649 484.8027
1556.1462 479.42297
1550.5242 483.27646
1544.989 485.50116
1548.2253 492.02365
1542.2806 496.65753
1536.9142 495.343
1543.5127 502.78333
1550.7996 500.56818
1548.5018 508.02817
1541.472 508.40485
1537.2568 509.55685
1539.0876 504.8403
1535.4982 503.0479
1530.3749 502.55945
1530.9778 499.0678
1532.5836 495.63885
1531.9216 487.72263
1538.7751 488.5273
1540.2961 479.94824
1538.8845 472.14557
1532.8013 476.51608
1525.4452 479.29224
1515.3502 483.86426
1523.0425 489.26068
1526.9827 496.0475
1523.9027 500.67084
1519.2793 497.57068
1514.0137 496.3938
1511.4341 492.31177
1507.6938 488.74615
1505.6074 483.17303
1509.678 477.5224
1514.2201 473.8065
1519.8977 471.961
1523.7573 465.5459
1530.6335 467.24225
1537.5835 464.55588
1543.9312 464.5614
1548.9917 467.15912
1546.0834 470.72714
1548.2454 475.78247
1554.1249 473.53625
1555.8962 469.26996
1560.271 472.23566
1564.2871 476.6303
1569.467 481.93378
1566.2241 487.82297
1564.7722 494.45212
1569.0564 497.203
1565.1467 501.35315
1570.3704 505.82172
1572.7025 500.8297
1571.9795 492.05298
1579.2338 501.16125
1586.9509 498.65143
1593.9744 495.45737
1596.3176 490.44574
1597.4304 485.2761
1591.0519 486.93747
1585.5442 490.76328
1578.1366 491.21265
1577.7476 483.17413
1584.8246 482.88947
1588.2878 480.5866
1586.9911 476.6324
1582.0203 478.4211
1578.743 475.8828
1572.0542 475.62314
1575.6814 471.9178
1580.3718 470.42596
1577.8542 466.8924
1582.7307 465.75156
1579.5028 461.00763
1574.5715 465.08673
1570.821 466.63574
1569.066 471.34824
1566.7512 467.1624
1564.0364 469.98694
1561.1367 465.51987
1557.3713 460.52267
1554.8141 463.75897
1550.3398 462.60516
1546.2834 454.7931
1541.4763 458.7542
1536.5923 454.40964
1536.782 448.81958
1527.3589 448.9792
1531.2263 458.63135
1523.9702 456.18002
1516.1627 456.7542
1515.141 464.01837
1509.136 459.2984
1505.8433 454.93588
1503.0044 450.1026
1499.1514 456.75238
1496.4122 463.10242
1499.1063 468.49133
1503.8824 464.0428
1507.5227 469.73068
1503.8135 476.8838
1497.5386 480.8949
1496.4353 474.9819
1491.5558 469.9498
1486.9763 475.2027
1486.592 481.6174
1486.9238 487.05222
1491.6223 487.46832
1496.3357 487.30804
1501.3345 486.14267
1501.7256 490.84006
1499.3687 495.854
1493.3644 496.5401
1487.1804 496.2567
1487.0126 503.6462
1488.1127 510.54852
1484.5612 515.5196
1489.5973 515.47614
1492.5996 519.79224
1497.3184 520.39954
1498.3116 516.06165
1503.5873 517.6825
1500.6199 509.69476
1493.0913 509.7313
1495.4893 504.47882
1500.8875 502.2002
1506.0898 502.13412
1506.5073 496.91193
1515.5667 502.64767
1522.1029 506.90146
1528.4209 507.3835
1533.1984 509.75388
1535.0748 513.71783
1538.0101 516.2504
1543.2582 512.54144
1547.7544 516.28625
1549.509 521.6779
1554.1221 524.8157
1550.53 528.1344
1546.3298 530.2156
1543.3164 525.66846
1540.8918 520.5389
1534.4341 522.842
1532.989 518.23157
1528.8165 517.6731
1529.6403 513.32556
1523.5594 513.3152
1523.5472 518.50574
1518.357 521.931
1518.0757 530.71484
1522.7341 528.24414
1523.4309 523.5669
1528.6357 523.0221
1530.7886 528.17883
1527.3568 531.7294
1523.9537 535.0217
1521.0688 537.77875
1520.2789 541.6006
1515.5317 542.94147
1515.8021 548.75543
1521.1653 548.88525
1522.5281 553.52856
1518.5836 553.64044
1517.5844 557.3622
1514.6802 557.1189
1514.0905 553.60925
1510.2625 552.4886
1510.7175 547.9844
1508.8562 544.47125
1509.2954 539.3183
1514.9904 536.4661
1512.5266 532.74896
1508.8762 529.89954
1512.041 527.30505
1515.7942 525.15985
1518.0542 518.36536
1515.9111 515.7844
1517.7263 512.52136
1516.6735 508.06958
1511.604 511.94226
1511.1887 504.7644
1507.0906 507.6352
1505.4941 512.6049
1508.4475 517.124
1511.8851 519.01154
1514.3986 520.5153
1508.3794 522.7442
1503.7078 525.8256
1498.2856 524.3315
1495.5936 529.9263
1500.5691 534.83875
1505.3438 532.5944
1502.2966 539.58105
1499.488 542.82416
1492.6254 543.2591
1489.9065 536.7694
1488.0638 529.7478
1489.0564 524.6754
1486.9434 520.0753
1483.0348 522.4883
1483.6581 526.73193
1480.4908 527.0507
1477.2501 525.9381
1476.9957 520.42554
1480.5005 519.58325
1483.238 518.3298
1482.9946 512.2091
1483.05 508.33612
1481.7057 503.6024
1478.8359 501.851
1481.1096 498.42026
1479.0416 495.66425
1477.2773 491.58276
1468.481 488.56458
1474.1167 483.22906
1481.4932 488.51575
1480.4902 478.3331
1477.633 468.3675
1475.4058 473.87915
1470.2968 476.11664
1464.7441 480.92578
1460.0696 487.29047
1467.1245 495.38647
1460.7319 495.35092
1459.4155 501.17783
1461.4807 506.7867
1455.5627 510.83383
1454.3229 504.15906
1452.378 497.03976
1453.4443 490.42053
1452.3569 481.83258
1457.1931 474.67365
1464.3057 473.53452
1468.6622 470.43686
1459.9939 465.92145
1448.2189 470.23724
1437.415 469.79437
1434.5342 475.2849
1428.7661 474.30536
1423.3365 478.63843
1416.8885 484.44525
1424.3612 487.52344
1430.3651 484.04883
1430.0537 478.26923
1432.6008 478.9275
1440.5437 476.44565
1445.7758 480.50385
1446.323 490.62848
1441.6178 484.60397
1435.9259 480.97824
1435.6545 486.57678
1438.6235 489.92993
1438.4008 493.49158
1443.3855 496.50482
1435.8502 497.34857
1430.2148 493.4627
1423.0916 496.63916
1417.3159 493.19846
1415.8477 498.69882
1416.8127 502.15277
1413.0251 502.8055
1414.1025 505.59296
1418.2241 507.25287
1419.1074 513.96313
1425.2916 516.29675
1428.4031 512.6606
1424.0929 508.99814
1421.9851 502.96762
1428.8113 502.1064
1432.1184 507.39313
1435.8551 503.20148
1440.3282 501.5921
1443.7197 506.09534
1445.8936 500.3871
1449.4863 501.90546
1449.4321 506.41925
1450.3712 509.43964
1452.0269 511.8625
1450.6841 515.5327
1447.6179 513.4441
1445.5172 511.4737
1441.9878 514.2462
1439.19 510.6375
1434.6226 511.58627
1434.1444 516.6167
1439.0247 526.5437
1433.4392 532.1852
1430.5259 536.14355
1427.3809 531.5549
1426.0593 535.4166
1422.0195 534.76965
1418.0469 531.294
1416.924 526.59326
1423.2441 528.24634
1430.3054 527.203
1432.2034 521.58624
1424.6243 521.49304
1419.8643 521.843
1415.4073 522.4068
1412.842 525.67175
1410.2903 528.2191
1413.3055 533.03827
1412.7041 537.4438
1407.0144 535.53235
1405.4595 531.21704
1406.1353 528.0015
1404.4666 524.16736
1408.9521 520.9497
1412.1766 521.8772
1414.401 517.1931
1411.3503 508.14926
1408.4698 512.7106
1403.3264 518.31323
1395.2188 515.1569
1400.0538 509.09323
1400.6976 501.89044
1406.6672 501.6721
1411.1019 500.33533
1410.7689 495.64636
1411.2839 489.41388
1405.4973 494.21005
1377.7748 459.37814
1373.0225 465.0182
1368.6887 464.29065
1369.7772 459.6839
1365.1627 459.78864
1365.767 454.4845
1375.3153 455.38412
1371.5349 450.2883
1364.9673 449.37656
1365.4324 443.72968
1372.2915 442.0216
1381.135 440.04584
1378.8958 444.1671
1376.7994 448.3254
1383.6416 450.15707
1391.5098 444.09946
1397.9365 437.29077
1386.3936 440.4179
1382.3844 433.155
1388.7736 432.6479
1391.0454 427.21384
1386.8247 420.76837
1383.4095 422.41998
1383.4181 426.78342
1378.4253 426.79138
1376.5848 429.94565
1376.3534 435.99628
1371.6694 432.9256
1367.5198 433.29962
1361.4104 438.58884
1364.446 435.9554
1362.3896 427.8318
1370.138 424.67657
1377.6083 422.5927
1373.6394 419.0864
1373.4128 414.1427
1368.44 413.68732
1364.0353 418.73755
1358.089 419.4752
1355.3113 422.69614
1350.115 421.6314
1344.6443 424.29465
1341.3882 431.51324
1348.137 429.77173
1355.011 427.31738
1353.0237 432.92664
1355.0094 436.90363
1348.6467 438.66302
1345.0543 441.83752
1338.7927 440.50653
1334.8127 436.5144
1331.996 432.31625
1326.5625 434.52216
1323.4346 427.06064
1317.7789 427.89264
1314.3423 436.4172
1311.4994 431.7336
1304.9192 434.62302
1299.3184 438.88928
1304.0703 443.72958
1311.8473 446.2646
1317.3153 455.6801
1324.8271 453.07968
1322.253 446.30627
1317.9435 443.6864
1320.9806 436.8379
1328.7781 442.39087
1333.2649 448.52194
1338.6189 456.82358
1343.215 460.3951
1351.5012 459.19226
1347.9835 466.3504
1350.8918 473.44495
1343.3597 474.58713
1346.1658 481.15012
1338.5525 478.83508
1332.7854 481.7336
1325.7343 481.64816
1320.0917 479.765
1322.062 489.97043
1317.7793 498.10068
1320.7506 503.95395
1326.1979 499.25256
1328.472 503.81296
1336.2717 506.4784
1340.6228 503.54535
1349.7864 500.4934
1342.362 498.1429
1335.7942 498.04132
1331.7415 500.1599
1328.597 494.46094
1330.2563 489.01144
1336.6213 488.90744
1342.3043 486.38232
1343.8114 492.41022
1351.5786 489.5378
1359.1663 484.95087
1353.2219 481.1834
1359.2197 475.796
1364.5164 469.45532
1357.0132 466.0996
1359.0309 457.86362
1359.4556 450.98505
1359.2959 445.3109
1355.2168 441.49103
1351.8342 445.89914
1354.279 451.3092
1347.6953 452.58847
1341.7528 448.9399
1332.8308 455.1578
1328.9858 461.685
1337.8584 464.8719
1343.6284 469.5726
1339.6719 469.77765
1334.3584 472.20355
1327.9551 470.9784
1322.3309 468.25623
1317.7625 470.97467
1315.9608 476.25595
1313.7324 481.41977
1309.065 475.1004
1311.8179 470.36218
1316.3542 463.98676
1310.1062 459.53052
1302.7563 451.88873
1303.5228 459.5711
1302.237 466.15338
1302.1686 472.6743
1303.029 483.04123
1308.6868 482.30505
1315.2017 490.34616
1309.3682 492.7154
1300.6923 491.6037
1297.5317 486.27252
1292.6265 478.4026
1291.3406 468.154
1295.6516 460.53467
1289.8949 456.31906
1286.3608 459.08765
1282.5127 463.14923
1281.701 470.75253
1273.2247 466.9962
1272.03 459.28882
1269.677 453.844
1264.492 450.18134
1274.0494 448.1324
1278.9445 454.42957
1285.5654 452.203
1290.4668 451.47333
1292.9503 455.13974
1296.1187 452.07062
1293.3241 447.12524
1289.6973 444.73993
1286.4545 442.59003
1282.1884 443.24036
1281.1448 447.59363
1274.5687 441.44406
1268.4606 443.19247
1262.2462 441.56552
1260.5457 433.72107
1268.7764 434.7614
1274.8019 433.47714
1280.0894 435.04767
1282.887 437.78683
1288.1725 437.87097
1293.3026 440.7054
1295.2727 435.9975
1291.5029 432.58008
1288.2397 429.6408
1280.5339 428.6496
1285.023 425.34668
1273.4457 423.77255
1264.3265 428.4494
1263.0359 422.4557
1261.0295 413.3921
1268.1143 410.0183
1270.216 416.19824
1278.2129 415.44885
1283.8873 419.2433
1289.894 418.89404
1290.318 412.6754
1286.0726 409.4626
1281.0011 410.04877
1279.7158 405.0725
1275.4202 407.14685
1271.6375 405.5975
1264.5275 404.26862
1266.8385 396.96576
1272.9827 398.47443
1279.8434 400.00543
1284.2168 402.9554
1291.9135 407.25793
1299.1821 410.80658
1296.0308 403.43573
1288.2495 403.00107
1283.1404 393.24887
1277.7781 394.644
1269.3226 390.6831
1274.3796 387.55933
1284.5691 387.31088
1280.0967 382.85205
1274.305 381.02405
1268.9302 378.09833
1278.0348 375.20624
1285.6321 378.04404
1290.0863 371.42258
1293.082 368.43787
1295.3857 363.87656
1300.6422 360.3835
1306.2313 363.35556
1305.2251 358.10693
1310.0073 357.03778
1314.562 356.5853
1316.2513 361.8686
1316.8417 368.3058
1310.8682 366.11627
1303.5369 369.34186
1299.1936 368.31805
1306.8777 371.8408
1304.7336 377.27307
1311.3949 373.25153
1318.6768 374.86066
1324.0748 376.19904
1328.9362 376.37378
1332.9541 379.0791
1336.4362 375.87338
1337.7407 382.32538
1336.43 388.67136
1343.1339 386.29065
1345.3877 391.77292
1344.401 396.4223
1346.7571 401.54187
1356.5411 402.56976
1351.9353 406.2212
1346.5931 410.403
1340.7692 406.21628
1334.5989 406.49707
1338.044 396.7047
1331.4874 392.92206
1330.5969 398.64185
1329.0466 402.54266
1323.2057 405.337
1316.0312 406.26218
1316.5896 399.94604
1317.7178 393.92163
1316.8787 388.23376
1321.5964 389.28244
1324.7554 397.1496
1324.7969 392.12317
1329.0261 385.41534
1323.5289 382.97827
1319.1188 382.06296
1315.6385 377.54028
1312.8916 380.92615
1308.8237 383.51642
1305.4648 386.1749
1299.2998 382.84335
1297.5188 375.93762
1291.0933 375.99118
1292.4506 381.50702
1290.7935 386.89093
1295.2894 390.98547
1290.6393 396.63483
1299.491 396.95087
1301.1058 388.7724
1308.1023 391.78867
1313.5941 385.67343
1311.6854 390.3554
1311.4135 396.44028
1304.7037 393.37238
1305.6514 399.5042
1305.8837 405.42786
1309.1228 412.21896
1301.1227 417.336
1294.3784 418.42346
1291.8547 425.5129
1297.647 423.4771
1298.398 429.46667
1302.8987 427.68222
1305.3835 425.0598
1311.0565 426.02377
1308.5709 419.99493
1316.0187 420.0893
1316.7734 413.63876
1322.6741 414.61365
1327.4153 409.47702
1333.1699 412.13043
1329.6353 415.78183
1327.2589 421.03598
1331.4456 426.4878
1337.4645 424.40536
1337.9789 416.348
1344.7915 417.20676
1351.9619 416.5398
1351.2793 412.13507
1354.4989 411.38525
1357.74 411.98773
1362.451 411.8241
1363.3434 406.52814
1367.3547 403.10406
1370.2999 406.05527
1372.8372 409.19104
1375.2311 405.54803
1379.4448 406.67273
1381.4799 410.89218
1377.2522 411.68542
1379.0612 415.6477
1381.4991 417.9023
1384.4792 417.072
1388.1637 415.96033
1390.2144 419.79388
1393.9832 422.15915
1398.3225 415.8204
1393.3381 414.74933
1387.4094 411.74188
1385.2747 406.94037
1393.5596 407.68552
1390.0245 403.06494
1388.9419 397.53375
1388.0967 393.07703
1391.4071 390.16928
1389.8463 386.2699
1384.7272 388.18478
1378.3481 391.41327
1381.8628 395.6157
1383.4718 401.22186
1377.1389 400.84973
1371.3286 398.49753
1369.6549 393.40045
1363.7527 389.348
1362.651 399.16025
1358.8125 393.1958
1352.3424 394.96777
1350.2115 387.8615
1351.9946 382.58398
1357.0273 383.6379
1364.8916 381.6789
1372.137 386.24118
1379.3186 383.89185
1379.2617 377.3015
1370.309 374.8186
1358.2522 375.91183
1360.1104 368.3514
1349.8033 363.09406
1350.8522 370.90637
1348.492 379.21933
1344.2773 378.3989
1341.4071 376.16766
1341.5879 371.41223
1341.4092 364.6329
1335.97 369.02643
1335.0219 372.4889
1332.3325 367.74268
1328.5898 369.70615
1323.7197 369.5654
1320.5245 371.64545
1323.0151 364.79355
1328.1212 362.4742
1334.7773 363.48193
1334.8528 359.06238
1336.9719 354.46054
1341.4705 349.88275
1333.7964 347.75677
1339.4326 342.44308
1332.5051 336.66492
1332.0632 341.68076
1329.1593 353.16818
1323.5126 357.22986
1317.9968 352.82407
1320.6353 346.61887
1324.9907 341.41888
1313.0692 341.9616
1309.5309 348.73108
1304.7142 353.39645
1300.1514 349.74768
1295.9838 353.84396
1290.7504 357.2505
1286.0583 362.06494
1283.4722 367.35297
1279.7343 368.50397
1274.6301 369.65854
" />
</g></g></svg>
