<?xml version="1.0" encoding="UTF-8" standalone="no"?>
<!-- Created for Inkscape (http://www.inkscape.org/) -->

<svg
   xmlns:dc="http://purl.org/dc/elements/1.1/"
   xmlns:cc="http://creativecommons.org/ns#"
   xmlns:rdf="http://www.w3.org/1999/02/22-rdf-syntax-ns#"
   xmlns:svg="http://www.w3.org/2000/svg"
   xmlns="http://www.w3.org/2000/svg"
   xmlns:sodipodi="http://sodipodi.sourceforge.net/DTD/sodipodi-0.dtd"
   xmlns:inkscape="http://www.inkscape.org/namespaces/inkscape"
   width="3200"
   height="800"
   id="svg2985"
   version="1.1"
   inkscape:version="0.48.1 r9760">
  <defs
     id="defs2987" />
  <sodipodi:namedview
     id="base"
     pagecolor="#ffffff"
     bordercolor="#666666"
     borderopacity="1.0"
     inkscape:pageopacity="0.0"
     inkscape:pageshadow="2"
     inkscape:zoom="0.35"
     inkscape:cx="1600"
     inkscape:cy="400"
     inkscape:document-units="px"
     inkscape:current-layer="layer1"
     showgrid="false"  />
  <metadata
     id="metadata2990">
    <rdf:RDF>
      <cc:Work
         rdf:about="">
        <dc:format>image/svg+xml</dc:format>
        <dc:type
           rdf:resource="http://purl.org/dc/dcmitype/StillImage" />
        <dc:title />
      </cc:Work>
    </rdf:RDF>
  </metadata>
  <g
     inkscape:label="Layer 1"
     inkscape:groupmode="layer"
     id="layer1"> 
     <g>
<path style="fill:none;stroke:black;stroke-width:2px;stroke-linejoin:round;stroke-linecap:round;" d="M 
1412.1628 384.88678
1412.6812 386.26718
1413.2562 384.42133
1413.0192 380.93063
1411.9883 380.29987
1410.1299 381.0246
1410.1978 380.44824
1410.4763 378.77014
1411.038 378.05182
1410.6533 379.2745
1413.4263 380.2341
1414.4016 380.97943
1415.3345 380.58942
1415.4983 381.37534
1416.4941 381.97726
1417.8329 382.18198
1417.3607 383.1358
1416.2565 384.1535
1416.6381 386.94586
1415.3229 386.33713
1414.9733 386.66193
1415.2439 388.91486
1414.4412 391.0772
1415.1964 392.82996
1413.2506 391.71704
1413.8518 391.2606
1414.3486 388.71298
1413.9001 387.6837
1412.7687 387.97992
1410.7924 388.40805
1410.5676 387.50342
1410.1373 385.54367
1410.185 385.2741
1409.0562 383.25763
1408.0212 383.59534
1408.0667 382.82928
1406.9166 382.463
1407.3177 381.4348
1406.072 377.1555
1408.872 377.16754
1409.4779 377.2956
1409.5177 377.38068
1410.8206 376.581
1411.3248 376.03137
1410.9535 375.46246
1411.52 374.4936
1411.6338 374.09344
1411.2229 373.57953
1410.2053 373.43274
1409.8445 373.4414
1409.6538 374.0807
1407.4437 373.37827
1408.3794 370.43787
1408.6611 368.88495
1410.4685 371.2574
1411.0591 371.18127
1412.3495 370.91937
1412.7616 373.12387
1414.7537 373.45236
1415.9741 372.75684
1417.925 373.26083
1416.1486 373.7033
1415.6882 374.88977
1414.9409 377.89813
1414.8538 379.07745
1416.495 376.67795
1418.1417 376.9519
1420.0813 376.5766
1421.1616 376.95285
1420.3408 378.65594
1418.8804 379.94214
1419.0566 380.92554
1419.1858 381.20062
1419.5393 380.45276
1422.5175 380.47247
1424.272 381.30304
1425.1818 378.25497
1471.344 381.23285
1474.6868 382.29083
1475.1624 383.9824
1475.6742 383.75092
1476.2687 385.10345
1476.9153 384.9864
1476.5535 386.67932
1473.5144 387.54315
1473.7732 388.52734
1474.4565 389.51947
1475.884 389.7523
1476.5242 390.3194
1476.9548 391.0421
1476.0305 390.90283
1475.251 391.84277
1474.2695 391.81415
1474.0166 390.3227
1473.5138 389.82236
1473.1592 389.7058
1471.4739 390.31223
1473.4958 390.73535
1473.0776 391.96936
1471.9341 396.1123
1472.8157 396.40918
1473.7556 396.55994
1473.935 396.68024
1473.5458 397.25525
1471.8737 397.98083
1471.4218 402.5575
1471.4966 402.6551
1472.4705 402.67462
1472.9685 405.15475
1473.0507 405.35275
1473.2559 407.04355
1471.7095 409.04465
1473.1537 409.9681
1472.8904 412.53513
1472.283 415.95312
1473.0178 416.5227
1473.7499 420.041
1474.4993 420.50485
1474.5135 421.67245
1471.5288 422.62787
1473.4075 423.7932
1472.7655 427.1527
1472.4266 428.48874
1472.5471 428.6671
1473.7528 430.62573
1473.9261 430.9624
1473.2004 432.19385
1475.0112 433.1422
1475.2385 431.24933
1479.6646 431.48468
1477.363 429.35822
1476.2385 429.85666
1475.4277 428.22992
1473.9797 428.9547
1473.329 427.41953
1473.4806 426.5378
1475.1492 425.79318
1476.657 425.96228
1477.2834 425.63766
1478.1154 427.14697
1478.5986 426.15158
1480.0544 426.21014
1481.1914 425.98187
1480.1915 428.6554
1480.4951 428.9133
1482.055 428.60617
1482.3438 429.21326
1482.728 428.8768
1483.8268 428.7442
1484.3456 428.38458
1484.1505 426.6395
1486.0977 427.6882
1486.8735 428.23325
1485.7494 429.6463
1485.8848 431.38425
1487.1884 431.90292
1486.2599 432.4049
1484.8237 433.05344
1482.0737 431.62704
1481.6904 433.3617
1482.4052 432.8689
1485.4708 433.29865
1486.3676 433.906
1486.378 434.11813
1488.2222 434.29108
1488.7083 431.74158
1488.6554 431.37415
1488.6096 431.13086
1490.5137 430.5094
1491.7886 432.1795
1491.4534 433.2071
1492.3643 431.8191
1495.02 430.9303
1495.448 430.7971
1496.393 430.84372
1496.3589 430.25244
1498.4954 429.29633
1500.2223 428.63644
1501.0007 428.999
1501.2605 428.78906
1502.459 429.74744
1501.8628 428.37305
1502.0984 428.20953
1501.7273 427.14752
1501.5343 427.19263
1500.0466 424.4587
1500.5918 424.10345
1501.3036 423.13458
1502.2136 421.61227
1503.1678 419.69687
1504.4504 418.674
1504.9714 418.23505
1505.0975 416.91205
1505.7815 416.56613
1506.0186 415.76764
1505.6289 415.79794
1504.5186 415.79172
1504.7446 415.56714
1505.7805 414.48618
1506.0779 414.43628
1506.2583 412.94833
1504.7253 412.51013
1504.743 411.86874
1505.5846 411.3512
1506.627 410.45782
1505.3007 409.6371
1504.3823 408.90515
1503.9064 407.37506
1504.3236 407.07443
1506.3481 407.48853
1505.9675 404.10117
1505.3058 404.3313
1504.3091 402.74652
1505.1814 401.54126
1505.6582 400.23145
1504.1434 397.46997
1503.749 395.5437
1505.9885 400.05197
1506.2579 401.84656
1506.644 404.00812
1507.7454 403.70288
1508.1199 403.6446
1508.2036 404.94257
1507.3253 407.7368
1508.7512 410.84875
1509.687 414.08154
1507.9156 415.3523
1509.562 415.7226
1508.6355 419.09177
1507.613 421.70236
1506.0604 421.567
1505.0354 421.01636
1505.3601 421.5482
1502.9279 424.81067
1502.8667 425.1533
1502.9746 426.49768
1502.3542 426.8127
1502.9705 426.63074
1504.0526 427.20004
1504.9385 425.55173
1505.8691 425.04218
1520.9094 431.35547
1521.125 432.71777
1522.1785 431.7574
1523.7604 430.99448
1525.6024 432.77747
1526.4169 432.71637
1526.9993 432.77795
1528.449 432.9863
1529.2947 433.82886
1534.1248 433.1126
1535.9901 432.90488
1537.3799 433.74457
1537.8342 431.7724
1537.9019 430.60297
1536.8278 430.259
1535.7538 429.54022
1535.1625 430.2262
1534.9332 429.45807
1532.5856 430.05768
1530.1764 430.5614
1529.3655 429.60825
1529.3357 430.6842
1527.6536 430.6839
1526.3835 429.93515
1526.1213 430.23633
1525.8318 429.81226
1524.7959 427.16037
1523.1375 429.1618
1523.7274 430.1159
1522.772 429.4483
1522.3292 428.60687
1520.9458 425.84872
1523.543 422.97327
1523.789 421.62708
1523.5791 420.139
1523.6688 418.9432
1525.3633 419.2086
1524.0223 418.1902
1522.0872 417.21204
1522.2501 416.63324
1522.4691 416.06247
1522.0234 415.88843
1520.9497 413.7434
1522.7495 413.0443
1521.9119 412.15912
1521.844 411.3049
1522.2146 409.44452
1523.9065 410.2292
1523.1182 409.2562
1523.2129 408.20563
1520.9185 407.48975
1520.7351 406.92917
1523.6022 406.11707
1524.855 406.70578
1525.2107 408.30072
1525.6323 407.75815
1526.6277 407.50775
1527.3121 407.99387
1526.7734 408.28326
1527.5765 409.41928
1528.5168 408.5923
1528.2739 407.75885
1530.1395 407.296
1529.6318 406.76855
1530.6514 405.42892
1531.1016 404.84393
1531.1765 404.33713
1530.0801 402.45724
1528.844 401.97095
1528.3495 403.8405
1525.565 404.93042
1523.8348 403.09448
1523.6735 401.89862
1523.1353 401.67612
1524.5361 400.99725
1527.2108 401.07764
1527.459 399.8462
1527.6951 401.44055
1529.6174 400.74802
1530.2987 400.10605
1530.8998 402.4505
1531.9622 402.71933
1533.272 401.46112
1534.2639 403.64008
1535.1875 404.80417
1535.5394 403.60425
1538.3042 404.26465
1538.7417 403.69308
1539.3674 404.26804
1539.9856 402.79575
1540.864 404.437
1541.963 407.24182
1540.4604 407.88226
1537.1115 409.68524
1537.2339 411.66364
1535.1489 409.90784
1535.4636 407.20575
1533.1431 406.6744
1533.8674 404.62347
1534.1123 404.22473
1532.9939 404.90195
1532.0353 406.80542
1532.5146 407.9171
1532.8334 408.90613
1534.3738 411.65173
1531.7383 412.789
1531.2845 411.9692
1531.0348 410.30185
1530.9807 410.18906
1529.2189 410.15167
1527.433 410.24963
1527.1785 412.49506
1526.4109 413.09192
1528.2716 415.81055
1528.5646 416.04224
1528.5027 417.627
1530.1455 416.1568
1529.9487 417.53732
1529.8389 419.39392
1527.855 417.97656
1527.356 417.59152
1527.3826 417.79053
1527.1047 418.12744
1525.5537 419.57336
1525.4326 420.80344
1527.9508 421.5184
1529.0859 422.16843
1526.4894 423.3553
1527.6641 423.14716
1529.833 424.41742
1530.9907 424.29004
1530.5264 425.1341
1530.7844 426.41632
1529.9492 426.74072
1531.2642 427.2597
1532.5481 427.904
1532.3789 427.17236
1534.9512 426.04108
1535.0825 426.26807
1536.2734 427.24756
1536.6199 427.2785
1536.4514 425.1222
1538.4293 425.9793
1538.8527 427.27222
1538.3379 428.72412
1540.7655 428.04172
1540.5779 427.85727
1539.9143 427.03955
1541.4764 425.87646
1542.0835 427.19415
1543.8684 432.23752
1542.7214 434.01547
1543.1857 432.78806
1544.8828 432.45148
1545.5127 430.5577
1545.5365 430.42755
1546.1985 429.2459
1546.4169 428.25034
1546.0656 427.19556
1547.0847 424.9487
1545.5016 424.5827
1544.7133 424.9522
1545.545 425.59137
1547.2645 427.34863
1549.5718 426.67905
1549.5718 427.3916
1548.2433 428.52454
1548.1165 428.8459
1549.0234 429.1991
1549.8291 432.10895
1563.6514 431.27002
1565.9093 431.73132
1566.5854 431.93954
1565.8433 432.9261
1566.8539 433.57318
1568.751 433.0196
1569.3198 431.95822
1570.1873 431.78174
1570.6188 431.50595
1570.7214 432.11874
1571.5078 432.8873
1571.9061 433.85632
1572.614 432.74484
1573.7101 431.28516
1573.8774 431.4605
1574.7615 433.27893
1577.0146 432.39105
1576.585 431.2224
1576.6135 430.93347
1576.1195 430.10815
1575.8132 429.8921
1576.5707 427.93713
1577.9258 428.49432
1577.9833 429.0962
1578.8047 428.8482
1578.3958 428.74988
1578.4802 426.15027
1576.0923 426.42194
1574.9916 426.7166
1573.6886 426.30725
1571.2983 426.36176
1570.3059 426.54382
1572.4506 428.6677
1571.6475 429.18283
1568.2435 430.49677
1568.1589 431.18872
1568.3765 431.73114
1568.1693 430.68488
1565.6306 428.94553
1565.4126 427.81464
1564.4595 427.6771
1563.2532 426.90283
1561.5957 422.6781
1563.8015 422.853
1563.8545 421.77985
1563.0157 420.77588
1562.949 418.12375
1563.6936 418.25095
1563.7771 418.2827
1563.9009 418.58447
1564.6782 419.01218
1564.8126 418.94882
1565.2113 418.76044
1564.874 418.3318
1564.6221 417.65805
1565.8156 417.4547
1566.6011 418.25192
1568.6554 420.1423
1567.7661 422.94067
1567.0681 423.23203
1566.9138 425.16022
1565.7532 426.21664
1565.4536 427.42725
1566.2109 427.45605
1567.0193 425.72363
1567.947 423.62677
1569.3984 422.84485
1568.8939 421.59167
1570.8386 418.63647
1572.2227 420.56744
1572.3678 420.49158
1572.4667 421.48178
1573.1539 422.81427
1578.0271 424.7518
1578.5029 425.31
1582.5437 425.50958
1581.0585 427.38376
1582.1211 429.12607
1582.7644 428.8451
1583.5704 426.48764
1584.679 427.59628
1586.4114 426.77332
1587.1484 428.5759
1587.6495 428.59314
1586.6609 429.8242
1586.508 430.09357
1586.4016 429.96954
1584.7014 429.52856
1583.9703 429.9409
1583.7019 430.81683
1583.6433 429.78705
1582.6293 429.6941
1580.2228 429.58698
1580.447 430.62036
1578.0205 431.24152
1577.9445 431.2512
1580.3805 433.24997
1582.3181 431.62805
1584.4087 431.70847
1585.0173 433.58496
1586.6466 432.43298
1588.2634 432.88257
1589.5092 430.69104
1592.308 431.2086
1591.5283 430.1186
1589.5076 426.88852
1588.6615 426.51157
1587.7069 426.30392
1587.8914 424.98935
1590.1434 425.70587
1603.515 420.9967
1604.0674 419.2849
1604.9127 415.914
1602.7721 415.36847
1602.0602 414.46872
1605.0144 413.82748
1606.4292 413.31442
1608.5222 413.30365
1608.0225 414.2125
1609.4199 416.56952
1609.9656 417.91998
1608.8845 418.04065
1607.5303 417.49216
1607.4199 423.04108
1607.0557 424.9046
1605.2869 425.82343
1604.9578 425.26556
1604.7698 425.906
1604.7881 426.35327
1605.4796 426.51828
1603.6311 431.80542
1603.4019 432.81787
1605.1406 431.997
1607.7422 432.99756
1609.9463 433.76624
1609.9929 433.25885
1609.2701 431.1908
1609.6387 430.37878
1610.8772 430.57465
1610.988 430.95398
1612.5603 430.90463
1612.9282 430.41632
1612.0579 429.5329
1611.65 428.96185
1608.9114 428.2209
1609.254 426.623
1608.2013 426.2772
1607.5662 424.5511
1608.2759 422.011
1612.3323 421.42957
1612.5067 420.48386
1610.4705 418.14526
1610.7576 417.9803
1610.7263 416.47882
1610.6571 415.23328
1611.0535 411.66757
1611.5084 411.5599
1613.336 411.65308
1613.3247 412.43585
1615.0029 412.34344
1614.7402 411.22375
1613.4022 411.0708
1612.8115 410.6576
1614.5577 407.95746
1613.0223 409.12897
1612.3796 410.64264
1611.492 411.4847
1610.2819 411.15512
1608.8295 408.7047
1609.8439 406.55453
1610.6683 404.61224
1612.5317 405.39246
1613.195 405.28125
1614.1633 404.43597
1614.8821 404.18488
1618.5164 405.42163
1619.2866 405.26328
1618.5834 406.13837
1619.5134 407.71912
1620.6536 407.84213
1623.245 407.83102
1623.1855 409.52637
1623.3737 409.64252
1623.9172 411.8558
1626.3738 409.23322
1628.1613 410.03857
1631.5923 409.17502
1632.0234 408.78668
1630.4253 407.1366
1630.4873 405.3044
1632.4893 406.2433
1636.7687 403.96457
1634.6494 401.81824
1634.4093 401.33603
1632.6876 400.01288
1633.9369 399.68292
1634.1239 399.4997
1635.7395 401.03552
1637.6115 402.1036
1651.6733 405.4598
1654.0413 406.39926
1654.8367 405.46112
1656.5068 407.11945
1658.0876 407.7271
1661.4158 406.40802
1657.9937 408.50974
1654.7129 408.005
1655.3083 411.2354
1656.6655 410.2959
1657.042 410.04608
1658.7156 413.5797
1657.0314 414.7685
1660.2961 415.83496
1659.4231 416.6277
1657.1001 417.71985
1658.6055 420.002
1660.2468 420.44513
1659.7427 423.24524
1660.5381 424.755
1660.275 424.90906
1659.6737 425.3774
1656.6925 427.72507
1658.0265 429.05624
1658.2708 430.36023
1656.1146 428.25787
1654.8586 427.7838
1654.3318 427.34814
1655.1025 426.4992
1656.2495 424.69122
1657.7031 423.85986
1658.9908 422.37302
1656.484 423.04108
1656.1687 423.20227
1655.7428 419.62445
1656.5647 416.39032
1656.184 415.87766
1655.0363 413.76367
1653.7593 414.72247
1653.8732 413.99878
1653.5881 412.4183
1653.6536 409.12897
1650.4523 409.42993
1651.2773 412.79865
1651.428 415.22003
1652.3157 414.64166
1653.1642 415.0362
1653.6791 415.68628
1653.3323 415.79486
1650.772 418.71677
1650.6129 420.98154
1651.129 421.67224
1653.1799 422.11984
1653.8318 423.59348
1652.5355 422.76593
1652.4868 423.16272
1651.3706 423.4486
1651.7461 426.4698
1651.9019 426.92844
1652.8485 428.30988
1652.8241 429.34845
1651.6001 430.08017
1650.8477 431.26144
1652.7039 429.79968
1656.7255 432.24533
1659.3857 431.6887
1659.5522 431.4769
1661.48 431.0837
1661.4736 428.34457
1662.6427 428.25485
1661.7411 427.50534
1662.689 426.3592
1662.2605 424.88867
1665.3782 426.02502
1666.6458 424.71497
1666.8176 424.15756
1669.542 425.49927
1670.5093 425.29388
1671.482 426.07785
1671.0602 428.5798
1672.6622 428.5827
1673.7412 430.23773
1672.6652 429.89047
1670.3977 430.40085
1670.1146 429.99695
1669.5688 430.28073
1669.4119 430.7588
1668.2635 431.2265
1667.6587 430.4652
1667.5565 429.47272
1666.4722 430.29834
1666.188 429.47662
1664.781 428.67957
1664.9333 429.4989
1664.5599 431.22568
1664.4441 432.09192
1666.7579 431.29413
1668.1982 432.721
1669.2499 432.8108
1671.4686 431.20923
1672.0374 431.9248
1672.2056 432.12988
1673.7778 431.8409
1674.2997 431.6582
1674.7727 432.47284
1675.981 433.17297
1676.009 432.61093
1678.9122 432.51974
1676.8706 429.68442
1676.4978 429.33932
1675.7703 429.29208
1674.8959 428.32068
1673.7218 427.015
1674.6526 425.51364
1674.8792 425.6356
1674.924 425.68747
1675.4645 425.62424
1676.7898 425.02045
1677.6631 425.7511
1677.9779 425.93466
1688.2363 419.65475
1688.2943 418.96274
1689.1261 416.0177
1688.9047 415.47253
1687.9766 414.52618
1688.9435 415.0172
1690.696 412.8718
1691.1289 414.9749
1691.1355 417.72314
1692.2693 417.78412
1692.6903 418.20935
1693.223 417.17368
1693.2466 415.3806
1693.563 414.2192
1694.3672 413.3486
1695.8542 412.2771
1693.9248 409.76105
1694.415 408.7369
1695.7367 409.4618
1697.1831 410.47253
1697.9977 412.86118
1696.3662 413.50818
1696.6682 414.7662
1694.9194 416.3322
1694.2833 417.45825
1695.1855 417.32965
1697.3416 417.52133
1697.041 418.9651
1696.1761 419.859
1696.8015 420.51416
1694.8157 422.75995
1694.7147 422.1064
1693.6361 420.2127
1693.2245 419.46494
1692.9921 418.51843
1692.8291 418.5108
1691.5173 420.72055
1692.2612 421.45605
1692.7875 422.5289
1693.7047 426.12634
1694.4757 429.0821
1695.381 430.60388
1695.4514 430.488
1695.4951 429.28668
1696.8136 428.46954
1696.3081 427.5788
1697.1265 425.24338
1698.7405 426.61554
1698.7985 425.53516
1699.2606 424.80298
1699.0969 424.448
1698.6458 424.036
1697.1793 423.29843
1698.334 422.92194
1699.1378 422.00165
1701.8372 421.54953
1701.5447 422.15613
1700.7937 423.74908
1701.4636 424.9575
1702.3115 425.61285
1702.7896 424.947
1703.1136 425.55048
1703.4535 425.33835
1704.7812 426.46494
1704.8215 427.54794
1704.406 427.2879
1703.884 427.3636
1703.5947 429.29147
1700.9893 429.4237
1698.8723 428.81763
1698.7373 429.53284
1697.8132 428.91022
1697.6481 429.62933
1698.5326 430.706
1700.3622 431.39648
1702.4084 431.60553
1703.928 433.11215
1704.9033 431.72504
1705.9099 431.86847
1706.352 430.78964
1708.6357 432.1584
1710.0299 432.7456
1709.4537 429.2472
1708.8867 428.71765
1708.9979 428.00934
1708.8728 426.84875
1706.4116 427.52502
1705.0121 427.75104
1707.3574 426.53967
1707.7893 424.54343
1708.1542 424.23474
1711.4866 421.5185
1712.9495 421.623
1714.7731 422.9045
1714.146 425.27487
1712.5848 424.38046
1709.5596 425.01068
1710.5139 425.58923
1712.2356 428.9032
1713.9712 427.61768
1714.2869 427.25818
1716.2677 428.43146
1716.1353 426.5265
1718.3407 424.37692
1718.7089 424.1026
1718.9972 424.0041
1718.4977 424.00238
1715.9668 424.7002
1715.1139 423.2461
1715.3202 421.37204
1715.1594 420.94464
1715.7029 421.00372
1717.0962 421.8708
1717.2566 421.61023
1717.9326 419.37494
1717.0195 419.31976
1717.0204 418.77917
1717.3186 417.2828
1718.889 417.26865
1720.1255 418.2346
1721.3868 418.43866
1722.501 417.53674
1722.4113 418.05005
1720.7571 419.49176
1719.6719 419.63388
1719.1881 420.09833
1720.4562 420.68097
1721.3271 420.43225
1722.2943 422.15753
1720.8053 422.4195
1720.3771 423.34775
1719.449 424.1593
1719.5582 424.56317
1719.5531 424.96384
1720.2219 425.17612
1720.695 423.83752
1721.1052 423.09213
1721.8248 423.25363
1723.3362 421.5183
1723.2769 421.08783
1723.6161 418.90033
1723.4539 418.80212
1723.4702 418.22894
1725.0181 417.51245
1735.7932 419.84747
1737.7793 420.17822
1737.2328 419.78473
1736.4077 417.91943
1737.8094 417.05087
1740.3953 416.92334
1741.1418 416.4171
1740.5981 417.93817
1739.7861 418.0641
1739.6499 420.5141
1742.1318 420.8001
1743.0681 421.73474
1742.4402 421.83258
1741.8448 421.4686
1739.8298 424.4437
1737.9014 423.8523
1739.6223 425.5808
1740.8413 426.2041
1740.7065 427.27875
1743.848 427.58496
1743.3555 426.47705
1745.0144 424.9754
1745.5345 424.23264
1746.9294 422.94165
1746.4653 426.1549
1746.3967 427.84802
1746.924 428.47107
1744.4878 428.44812
1743.6401 428.11212
1744.352 429.05328
1745.0264 430.00317
1747.6082 432.5029
1750.413 433.13757
1752.3037 432.68884
1753.9016 433.43762
1755.613 431.7003
1756.7299 430.71555
1756.501 433.53317
1757.9062 434.49487
1758.7018 431.8943
1759.7112 432.7019
1761.4839 433.25513
1761.2212 432.57056
1759.8357 431.16724
1758.581 430.24683
1759.0889 429.82623
1759.4927 428.31934
1761.0431 427.81967
1763.3914 428.85446
1767.5494 427.94232
1767.613 426.9857
1767.0543 426.14423
1768.6648 426.35312
1770.1154 425.9112
1769.573 424.84338
1769.7762 423.87973
1768.3633 424.13217
1767.4066 424.71936
1766.78 426.04062
1765.7065 423.48947
1767.9408 420.13885
1768.4707 421.34326
1772.0148 421.05
1770.2327 419.16705
1768.4021 419.86578
1767.4967 418.82004
1768.3003 416.87643
1766.0735 416.42218
1766.6583 414.7127
1767.5425 414.3952
1768.3544 413.46555
1769.5515 415.10675
1769.9475 416.3423
1771.7794 413.9608
1772.448 415.67706
1773.773 416.10825
1774.5508 418.49084
1784.708 423.7524
1785.1713 422.7826
1786.5049 418.90656
1787.9109 418.95966
1787.2368 418.6739
1786.3789 416.33823
1787.1975 414.64926
1786.5125 414.2529
1785.7424 413.1804
1786.8013 413.02563
1786.9623 412.81018
1787.6744 413.21448
1787.2438 412.3725
1787.3154 411.8702
1787.6187 409.5542
1789.7512 407.6058
1791.1987 404.9422
1791.4003 407.2784
1792.9435 408.08032
1794.004 408.18307
1794.3604 409.77338
1789.9861 411.83298
1789.7689 413.2166
1789.6898 414.15402
1789.6655 414.64206
1791.1122 415.91443
1790.354 416.3222
1790.1343 418.09314
1789.3053 421.31604
1788.2576 421.52844
1788.6306 423.04852
1787.4089 424.2249
1788.323 425.10687
1788.5476 427.29022
1787.9866 427.4085
1786.9792 428.864
1787.3864 431.37476
1786.081 433.25143
1788.6891 433.57312
1791.1982 434.60327
1791.4785 433.09515
1790.95 431.83188
1789.777 431.52832
1791.2085 431.69196
1792.8867 430.82797
1793.5674 430.60767
1795.6879 430.55682
1796.5365 426.91217
1793.9371 430.23334
1792.7888 429.98117
1792.3652 430.33496
1792.4935 429.70456
1790.265 428.4994
1789.9169 428.6678
1789.6904 426.90756
1790.1069 426.4679
1790.5178 426.16293
1791.9176 425.76978
1790.6488 425.57037
1789.7129 425.71616
1788.9506 425.0028
1788.6592 423.39642
1789.784 421.67175
1790.8186 419.97803
1794.763 420.17322
1795.1167 418.66342
1796.5388 419.6555
1796.591 417.9035
1795.6212 417.5924
1794.8427 415.7426
1794.492 415.0041
1796.342 413.01587
1794.6204 411.68518
1794.9852 409.81458
1795.093 409.81683
1795.2559 406.74655
1795.731 406.77136
1797.1768 408.727
1796.8636 409.1312
1798.4248 409.6258
1798.4269 410.26852
1799.1108 410.13684
1800.0603 411.0611
1802.2117 409.1042
1802.3595 408.0501
1802.1584 407.65625
1802.9133 408.04797
1804.2122 409.51007
1803.8262 411.39426
1804.7009 409.84933
1805.8494 409.44345
1807.4181 411.82782
1807.5916 410.64215
1808.5662 408.977
1806.9897 407.115
1808.3411 406.47946
1808.5515 405.67282
1809.573 403.58505
1810.9658 405.64243
1812.5894 405.71103
1812.5842 407.609
1813.3867 408.96188
1813.0398 409.81238
1811.434 409.91757
1810.5225 410.98553
1813.5087 412.20972
1816.2847 410.00262
1815.9106 409.42242
1815.815 407.9869
1816.7042 407.35873
1816.825 404.70627
1818.9932 405.53195
1819.4133 406.3263
1820.1378 406.96686
1820.8088 407.18332
1821.2598 407.93823
1821.0044 408.66656
1820.5299 408.48447
1819.058 409.07016
1818.3828 409.70447
1818.843 410.6878
1818.4539 412.2688
1819.1865 413.67307
1821.0082 413.17563
1823.6399 412.12994
1819.7986 414.6618
1818.9381 414.74402
1820.165 415.37045
1820.5215 416.25525
1819.7354 418.55722
1820.5504 419.23853
1822.0573 421.38586
1820.5117 423.13696
1818.3882 424.98218
1817.8627 424.42004
1816.531 423.2225
1817.8397 422.39923
1819.464 422.46603
1818.1971 421.65695
1819.2556 418.53586
1819.315 418.47482
1819.6038 417.03452
1817.9907 416.401
1817.6802 414.64035
1816.3181 414.9808
1816.5476 412.4818
1815.587 412.27805
1814.7705 413.5903
1814.3569 415.8559
1813.3182 416.23654
1815.5529 415.99774
1815.757 418.6211
1814.4851 422.6773
1813.6917 423.6982
1816.8113 425.45508
1817.276 426.23218
1817.3956 427.22327
1817.2463 428.47314
1813.415 428.49
1812.9038 429.94794
1815.1736 433.87106
1817.2261 430.46045
1817.3351 431.7699
1820.6101 434.21954
1820.6045 434.27203
1822.5962 433.18127
1822.78 431.23822
1821.8262 429.8701
1821.8333 429.2575
1821.4978 429.39462
1819.0376 428.56308
1817.5511 427.21423
1819.5962 427.17053
1819.73 425.5073
1819.9323 425.12024
1820.6344 426.93134
1821.4805 427.07056
1823.5171 426.25177
1834.8136 419.8452
1835.6073 424.03806
1835.4066 424.91293
1834.9355 428.3499
1834.1838 428.63434
1835.3168 429.6377
1835.9347 429.63635
1835.4734 431.11145
1838.5715 430.86557
1835.9106 428.58942
1836.0671 427.9239
1837.8478 425.1261
1839.1956 425.55426
1840.6019 427.47772
1841.9419 430.05087
1842.5775 430.4277
1842.5405 431.04868
1843.3977 430.419
1844.4546 428.63654
1845.8054 428.6588
1846.4406 429.68906
1847.2131 430.63104
1845.4678 431.37354
1845.6537 431.84543
1846.2583 433.5509
1849.3074 434.58453
1850.0007 431.46252
1852.5337 432.5876
1853.2451 430.6671
1854.523 431.79205
1855.1926 432.03644
1855.8395 431.7069
1858.6511 431.16205
1858.3801 434.6631
1859.4922 434.25763
1860.5735 433.8919
1862.5981 434.448
1860.2183 432.13303
1860.9956 430.99847
1861.7788 429.91058
1862.8762 429.9271
1864.062 428.7987
1862.785 428.1821
1862.96 428.05954
1863.4841 426.04135
1861.5865 425.7489
1856.5695 424.76532
1854.4054 424.30328
1854.0529 426.48935
1853.3467 427.64316
1855.2524 425.80023
1856.328 426.6781
1857.6802 426.51965
1859.4202 428.83276
1861.0996 428.80035
1861.489 429.57324
1860.8757 429.50177
1859.0925 430.01324
1857.9832 430.24243
1855.3665 430.10797
1852.6602 429.2335
1851.5686 430.3918
1849.5154 429.6429
1849.6157 429.0428
1849.3379 428.92712
1849.0654 428.84155
1849.2627 428.04028
1850.5364 428.40146
1850.8564 426.98203
1851.2827 425.464
1849.0078 425.6428
1848.1848 427.72214
1847.5115 427.75986
1846.8914 428.10406
1845.9979 426.65826
1848.3359 426.62436
1846.9984 424.28745
1842.8318 423.15802
1841.0613 425.58746
1840.3038 425.30206
1838.29 424.76562
1837.7446 424.0213
1837.8347 421.73816
1837.1743 420.7337
1838.1761 418.57703
1837.1075 416.32614
1836.8153 413.7678
1835.3777 414.19812
1834.1614 412.477
1835.6294 411.479
1837.2528 410.2514
1840.3932 411.742
1839.197 413.92004
1838.7529 414.93042
1839.2417 416.80444
1840.3593 415.62323
1841.5641 415.33945
1842.795 416.3344
1842.175 417.42273
1842.0947 417.98193
1844.6475 419.01633
1844.0083 415.52698
1843.8105 412.94418
1842.2793 412.73212
1840.989 411.8612
1842.7423 410.9574
1844.0535 410.33566
1842.4485 409.08713
1841.0682 408.73764
1840.656 407.86243
1841.9098 406.86337
1844.287 407.91537
1844.324 403.69653
1843.8774 404.3093
1839.2683 406.09296
1837.76 405.149
1840.7074 402.53342
1841.6194 401.9918
1841.1223 401.5228
1841.4873 400.76144
1844.1935 400.60687
1844.3215 399.46567
1843.1709 399.5586
1842.1785 398.94598
1841.5305 398.4087
1841.5862 398.1002
1841.6953 396.63177
1842.8217 396.63745
1842.02 395.38226
1842.5105 393.0208
1844.4786 393.5735
1843.6621 391.6665
1843.0037 390.8525
1841.9237 390.1236
1844.6224 387.6563
1844.0326 385.13107
1844.4955 384.46875
1844.1796 384.74237
1841.9656 384.78467
1841.5076 384.55676
1839.9395 385.77747
1839.1641 385.55127
1838.9312 386.56085
1839.5161 388.1706
1835.9236 387.9798
1835.3739 384.85336
1836.7976 384.13507
1838.5688 384.30136
1839.3706 383.65927
1840.6415 381.936
1841.9547 382.98602
1842.7748 382.0537
1842.9436 381.3956
1842.5659 380.34128
1844.2058 379.20007
1843.071 376.83322
1844.0093 375.7275
1843.091 375.90173
1841.873 378.73053
1841.3888 380.1548
1841.3169 380.22446
1839.2354 379.60483
1838.763 377.2008
1841.518 375.68414
1841.7874 375.36288
1842.0513 374.40576
1840.674 374.29514
1840.1008 371.20447
1840.887 369.57834
1839.5383 371.40607
1838.4368 371.93298
1838.4602 372.2846
1837.6445 371.87534
1837.6123 373.4657
1837.2368 375.65424
1836.0112 376.32684
1836.8726 378.63934
1839.1301 379.8393
1837.0444 380.89172
1836.704 381.5171
1835.8099 379.4618
1834.5172 380.1582
1822.5813 382.2005
1820.7266 380.114
1820.3807 379.15826
1819.1282 376.9179
1818.336 377.06427
1817.9253 379.6162
1816.4927 378.36728
1815.4626 378.4243
1816.323 377.38556
1816.5276 375.50375
1816.6377 374.82065
1816.3525 374.35895
1814.9585 374.7573
1813.7302 371.30743
1811.3171 374.21396
1808.7498 373.87946
1808.2926 373.79086
1806.3005 374.05475
1807.4609 371.73557
1807.687 369.9084
1806.2157 368.12878
1804.64 368.0935
1803.9929 369.394
1806.2672 371.63757
1803.8474 372.2818
1803.1487 370.827
1801.0907 371.30865
1799.8201 374.4499
1800.7306 374.90314
1799.1759 376.43683
1800.6176 377.0473
1800.5989 376.5096
1801.4629 376.08704
1803.8811 374.94604
1805.3729 375.10214
1805.0576 376.3886
1804.5554 376.4655
1803.6288 378.66235
1805.8734 378.14243
1807.9685 378.0716
1808.7542 377.47238
1811.3892 377.00327
1811.623 377.33957
1813.9779 376.56982
1815.0203 378.11353
1815.1863 378.54834
1812.9686 381.1659
1811.344 381.7054
1810.9867 381.74203
1811.8922 382.35495
1813.4567 382.96835
1815.4258 383.10095
1815.5647 380.95724
1815.9838 380.83786
1817.2417 381.10144
1818.5133 380.79565
1819.0214 381.06808
1819.5352 380.78986
1820.8768 381.44714
1821.407 384.12207
1821.2991 384.29187
1819.8967 383.81708
1819.4326 383.9066
1819.601 385.5744
1816.7771 385.52927
1816.6934 385.81613
1815.9619 386.03268
1813.9387 386.4746
1814.0735 388.15524
1812.9932 389.4087
1814.6675 387.75146
1815.0992 388.0536
1815.1915 387.7651
1816.6062 388.17767
1817.9076 388.94247
1819.6514 387.6266
1819.9017 387.1963
1820.749 386.8673
1820.7969 386.00302
1822.3506 385.6688
1823.416 385.68665
1822.2349 385.82538
1821.8694 388.123
1823.1697 388.61066
1820.5002 390.49557
1819.2085 390.55627
1817.9137 391.0984
1817.3572 391.90216
1817.169 392.01154
1814.4698 393.08795
1813.6976 393.25998
1813.2404 395.09882
1815.2808 394.94092
1816.491 394.9969
1816.3939 397.43723
1815.0802 399.7044
1814.2612 400.2752
1815.0278 400.01633
1815.9651 398.1895
1817.3887 395.75107
1819.0911 395.79498
1818.998 396.99384
1819.24 398.28253
1817.9094 399.97266
1817.4865 400.45142
1818.0039 401.64905
1819.3726 402.2019
1819.831 401.3247
1821.1494 401.16965
1821.2368 400.57104
1821.2003 399.78882
1822.4277 399.88403
1823.9785 398.4455
1822.8278 397.3818
1821.6292 396.52917
1820.7678 395.45465
1821.1619 395.03854
1820.2847 394.51877
1819.7478 393.34515
1818.6696 393.47595
1819.8682 392.3243
1821.3796 391.3471
1824.161 391.99118
1834.8834 390.84018
1835.386 390.83405
1835.4362 392.95312
1835.606 393.8032
1837.3628 392.306
1837.8518 392.5365
1838.3765 392.27155
1837.463 391.6887
1838.3062 390.13977
1838.6754 390.0517
1840.0271 390.22882
1840.4854 391.2256
1842.0231 391.20663
1841.9983 392.4256
1840.8726 393.87854
1840.6403 394.4016
1839.8136 396.9823
1839.0964 398.07272
1838.7485 398.43286
1839.2432 397.40466
1838.8077 396.3009
1839.205 395.64246
1838.0479 394.98688
1836.2864 397.46994
1834.8794 397.2527
1835.4814 398.1734
1834.2716 401.11993
1835.6035 402.31317
1837.221 403.38184
1836.0728 404.7245
1837.4952 406.35544
1837.8112 407.296
1836.6079 407.5383
1836.5889 407.6689
1837.4752 408.5711
1837.3152 408.8408
1835.8921 410.3817
1834.888 409.64465
1834.9441 408.6267
1824.4386 406.8281
1823.2804 409.06357
1823.5142 406.04956
1821.507 402.4548
1820.4707 404.00928
1817.7881 404.34406
1816.5175 404.318
1816.2722 402.14252
1815.6332 401.14413
1814.7543 401.87192
1815.1283 402.23886
1814.0208 405.68427
1813.2335 405.52524
1811.9747 403.4898
1811.737 403.4572
1810.6138 402.8365
1808.7289 402.69077
1808.2279 403.32126
1806.0339 401.79352
1806.0978 403.1369
1804.2185 404.07367
1801.2483 404.4411
1800.3643 405.78122
1800.1946 406.35974
1798.7764 406.34906
1799.2461 407.77252
1798.2025 407.22723
1797.2653 405.5515
1798.764 403.71967
1798.8965 403.11728
1799.9084 401.79865
1799.3479 401.5232
1798.8047 402.8258
1797.7439 403.47656
1796.304 402.70468
1795.3159 402.34155
1794.8862 402.0771
1794.3046 401.6225
1792.3052 402.2174
1791.7195 404.114
1791.2162 401.95807
1792.1042 399.5952
1793.4269 400.33664
1793.8335 399.41498
1793.4194 398.6689
1793.141 397.99994
1794.0562 397.13373
1793.6345 396.37048
1794.5034 395.10376
1795.2195 395.4857
1796.4006 395.79517
1796.1792 393.87213
1794.5076 394.79486
1792.1804 395.16858
1790.9028 395.33807
1792.3472 393.24084
1791.4897 392.36975
1792.0864 391.96405
1793.4194 392.5858
1794.5605 393.27655
1795.3408 392.20465
1792.8491 388.74396
1793.7703 387.2636
1795.1738 386.17413
1794.9807 382.6329
1795.0072 382.2494
1795.8398 382.21677
1795.7639 380.33472
1794.9675 379.998
1796.8606 379.08078
1800.4121 380.8349
1800.6655 379.46912
1798.2114 377.56238
1796.8044 377.96057
1795.7092 378.09967
1797.8601 375.74768
1795.9175 375.10556
1796.8606 374.44946
1797.7573 373.67407
1795.6765 370.91467
1795.0778 370.71417
1793.9225 373.13855
1795.2732 373.3093
1795.6346 374.4741
1794.3381 375.1849
1791.4115 375.1684
1790.0613 373.80258
1789.8778 374.67938
1788.9438 376.2799
1791.4838 378.37573
1794.341 378.96005
1792.0913 380.08875
1791.5634 381.8839
1791.6558 382.2162
1794.2463 382.9032
1793.7148 385.80835
1791.2686 387.84564
1790.5884 386.33398
1789.8767 383.7081
1789.5554 382.98706
1789.4619 381.2722
1789.2976 380.85187
1788.156 379.47144
1788.0918 379.8363
1787.4412 383.10995
1786.7108 383.57086
1786.59 384.1474
1773.332 383.29465
1772.3064 381.49875
1771.471 380.95004
1770.8367 381.26575
1770.1464 380.37372
1769.1018 378.6399
1771.0582 378.43024
1769.8363 375.9355
1767.8384 376.3137
1767.5435 375.49216
1767.1534 375.37695
1766.5215 374.5993
1765.4432 375.15472
1765.2583 374.50525
1765.4677 372.87714
1763.0236 369.72595
1761.893 372.70416
1762.2607 372.99667
1762.2017 374.5399
1760.9319 375.2789
1759.9058 374.78708
1760.6418 373.89526
1760.035 371.42944
1759.5681 371.19492
1757.6523 368.56372
1754.6625 369.7763
1754.2047 368.89398
1751.9037 369.23376
1752.3713 371.79367
1752.0277 371.66516
1746.5684 371.62598
1748.397 374.13568
1747.4507 376.47165
1747.162 376.17908
1745.057 375.3315
1743.8468 375.54688
1743.8953 375.06268
1743.2029 374.82996
1742.2837 373.3674
1742.1833 374.67145
1741.6555 376.17554
1741.8539 377.40674
1741.5896 378.72876
1741.9723 378.7555
1743.1967 376.76425
1744.0493 376.35767
1744.4343 377.59833
1744.0387 378.68884
1744.0837 379.46448
1744.7755 380.13788
1744.9365 379.31808
1745.6418 379.14902
1748.0546 378.0084
1749.6086 377.7456
1750.3225 379.90985
1751.1605 378.1535
1753.002 377.49597
1750.3845 376.5313
1751.8928 375.15503
1751.9485 374.53314
1753.0386 374.3901
1752.1951 373.36118
1752.9691 373.162
1753.6497 373.5985
1753.8597 373.48877
1756.8625 372.4912
1756.9722 373.54526
1757.5415 373.84808
1757.6809 375.2254
1757.7585 375.70367
1756.1425 376.60022
1758.8369 377.52728
1760.3643 378.70114
1760.9287 380.6856
1761.7927 381.05844
1761.3379 379.14166
1763.3722 378.16415
1765.0083 377.89703
1765.4329 378.9139
1767.4003 377.9266
1768.0632 379.3587
1766.8107 380.85406
1765.1715 381.45935
1766.9988 382.36935
1769.6199 383.7522
1770.0491 382.2328
1771.0479 382.65134
1772.2059 387.29486
1771.8882 387.43552
1771.2543 387.8009
1770.4478 388.60666
1770.071 388.83698
1768.0546 388.55096
1768.0447 388.54062
1767.1362 388.66852
1766.6172 388.485
1765.5425 388.528
1765.178 388.34457
1763.492 390.89777
1764.5677 391.29962
1767.9663 390.5625
1768.607 391.61716
1771.6659 391.78024
1772.3425 388.23315
1785.6174 393.00928
1787.3837 388.93173
1791.031 389.21887
1790.7007 390.02863
1788.9563 390.6607
1788.7927 391.7843
1790.9629 393.451
1788.8142 393.35358
1787.9996 393.57965
1787.2305 394.7016
1786.857 395.61432
1787.9185 395.95126
1787.8611 397.19275
1787.4442 396.7734
1786.6343 396.86157
1785.9155 396.86923
1786.408 397.31564
1786.5543 399.38287
1788.548 400.18823
1789.2262 402.31897
1789.3705 402.9914
1787.9111 401.96518
1787.7518 402.3447
1786.2649 404.99658
1784.8746 405.7237
1785.0818 409.58258
1785.146 410.6561
1784.8457 412.8542
1774.4996 414.2817
1772.5824 413.1209
1771.3247 413.1356
1767.9047 412.0365
1767.397 411.68652
1765.1631 412.6771
1765.3324 412.94598
1764.9587 416.07553
1764.9902 416.99927
1764.5037 418.84946
1763.3867 419.50058
1762.4412 422.19476
1762.4274 422.96948
1762.3839 424.33667
1763.0283 423.70688
1764.1879 422.31372
1764.2849 424.2752
1763.4154 425.43112
1760.5416 426.40656
1758.7555 426.79126
1757.3198 423.3192
1755.8179 426.24814
1755.8679 426.32196
1757.3967 427.45944
1758.3452 429.15588
1755.6836 428.20953
1754.431 429.48883
1753.1279 430.36932
1752.1736 430.25583
1750.1211 428.88486
1749.9324 428.86398
1748.0663 426.03192
1750.2483 426.6123
1751.7021 428.09967
1753.8286 426.5464
1753.8787 426.37885
1752.2324 422.84726
1751.1465 422.45178
1749.1426 422.6698
1745.6003 421.66586
1747.2462 419.2854
1746.604 418.8393
1743.7515 418.5189
1746.0107 416.51035
1743.4087 414.9856
1745.9314 411.8901
1746.6788 411.80014
1746.5508 409.28607
1745.3528 407.07172
1744.6257 406.94138
1743.8193 409.0296
1743.5283 408.8988
1742.741 409.3061
1742.6621 408.6932
1743.1355 405.96762
1741.8298 405.01715
1739.7585 404.24628
1740.9554 404.42798
1742.4961 402.99472
1741.1355 402.5713
1740.0762 402.29953
1739.6034 401.94147
1739.3813 401.7489
1738.8484 401.8049
1736.8959 402.85022
1738.1365 403.72748
1738.4535 404.0525
1737.3608 406.3609
1737.6292 406.5858
1738.7123 405.80096
1740.0128 406.77768
1739.6604 408.48254
1739.9874 409.05463
1740.359 411.36816
1742.0889 411.58676
1742.1555 412.28815
1741.4038 412.76514
1741.9205 413.7606
1741.6575 414.16525
1741.4703 414.46335
1740.6073 413.7411
1740.7549 414.26263
1739.8624 415.2326
1739.906 415.55087
1738.5643 414.60498
1736.9763 415.23865
1725.3749 411.56775
1724.6039 412.3988
1724.5115 413.64026
1723.116 413.0398
1723.2715 414.0117
1721.8815 414.2431
1720.9084 414.06024
1720.6576 414.67407
1718.5594 413.63885
1717.597 413.28992
1715.5009 413.9608
1716.4133 412.84576
1715.8933 411.29623
1716.5918 411.1899
1717.7594 411.25775
1720.1874 410.86273
1721.7172 410.6801
1722.5972 410.6817
1721.7676 409.45038
1723.4355 409.0958
1725.9768 408.62567
1724.0552 409.1151
1722.8605 408.49872
1722.6965 406.8979
1723.4655 406.93396
1724.0187 406.89597
1725.8538 405.0262
1725.1572 401.9995
1724.987 401.02744
1724.2256 401.3901
1723.8861 402.27515
1722.7611 404.04706
1723.2407 404.5318
1722.5459 404.61884
1722.1255 403.6865
1720.0049 402.3329
1720.6655 405.61053
1721.2178 408.41443
1720.3599 409.5584
1719.8579 409.2398
1719.5247 408.95026
1719.3455 407.5899
1716.2771 408.23923
1717.5762 406.69666
1717.6793 405.45258
1718.2117 404.71716
1718.1985 404.6649
1715.7045 402.78256
1717.61 401.2291
1717.7999 398.09637
1716.5815 396.15424
1716.1687 395.29834
1717.6434 393.45578
1718.6052 392.29022
1720.4219 393.22974
1720.7477 391.49286
1720.8577 390.2483
1720.927 390.3509
1721.4573 391.94586
1722.7537 392.49634
1724.7986 390.8532
1723.2307 393.47287
1723.8611 395.3304
1721.5591 395.01654
1721.4401 394.9691
1719.8102 395.19635
1719.628 395.1616
1719.3477 396.40637
1719.5981 397.89648
1719.6204 398.9085
1720.1687 398.88547
1721.5875 397.9448
1721.8201 399.43222
1722.4427 399.19025
1724.1201 398.78806
1725.4548 398.37622
1736.1935 398.61337
1737.9276 399.04358
1738.1512 399.78745
1738.7153 399.9741
1738.5511 398.91394
1738.5778 398.68634
1739.8761 399.22482
1741.7551 400.8166
1742.4788 399.19492
1743.1277 398.62167
1743.7051 400.14838
1743.2352 401.61813
1743.0139 401.98083
1743.2537 403.47437
1743.2893 404.20795
1744.1792 405.01865
1744.3582 405.69043
1744.4443 404.81284
1744.7976 402.02557
1745.6923 400.4675
1746.26 397.52255
1745.9878 397.37555
1745.8712 397.30652
1747.2623 394.19833
1745.4587 391.31308
1745.3922 390.8332
1747.2754 387.25092
1747.1793 383.68918
1746.2593 381.79147
1744.7592 381.21332
1743.4656 380.90265
1743.7122 384.0152
1742.6571 382.96017
1741.5345 382.2563
1741.3884 383.34604
1740.725 383.114
1740.8289 382.99377
1740.4495 381.3486
1739.0555 380.15558
1739.4773 381.50702
1737.6322 382.67462
1735.5157 383.17502
1737.7439 385.72168
1739.5753 386.27844
1737.4192 388.2765
1736.332 389.18137
1736.7542 390.00177
1737.9272 390.9032
1740.1602 390.0805
1740.2615 389.8896
1740.8784 389.15497
1741.388 388.1823
1740.0547 387.93018
1739.9519 385.17294
1741.7114 385.42242
1742.9878 385.2862
1744.138 384.82843
1744.5813 385.50644
1744.3962 387.43835
1744.3933 387.6845
1743.6163 388.4535
1744.3722 391.77277
1742.7999 391.60803
1743.0045 392.71344
1743.3423 394.1897
1743.3108 394.69757
1740.0583 394.21942
1739.6179 396.97336
1737.9258 396.101
1736.057 397.7977
1736.8562 393.99423
1736.5459 393.9643
1736.0416 393.14685
1736.8164 392.57553
1737.0559 391.8552
1735.7407 393.02472
1725.7385 391.30365
1725.964 387.86337
1723.8472 387.0758
1724.5632 385.90387
1725.5156 381.80917
1723.4119 381.50558
1722.6177 379.95062
1722.5049 380.31613
1723.4716 381.81934
1723.5325 386.6507
1722.2657 388.03748
1720.1868 389.1352
1719.3401 388.75116
1718.0361 389.33627
1717.6241 389.52808
1716.9153 388.9073
1717.5819 387.9409
1717.3912 387.94983
1716.2495 387.68115
1715.4846 385.03442
1717.195 386.26132
1719.6709 385.19226
1720.6643 384.09894
1720.0457 383.7479
1717.168 382.6837
1717.9995 380.81784
1718.7867 381.44257
1719.9153 380.04877
1720.1735 378.93137
1721.9294 379.57617
1721.9548 379.20026
1722.7307 377.9116
1721.8992 377.27264
1721.3108 377.89938
1720.7003 377.12485
1721.4963 375.0183
1720.2787 374.4973
1717.0817 374.10895
1719.1487 375.06836
1720.3433 375.88202
1718.6249 378.35358
1718.0043 379.23718
1717.4829 379.1572
1717.6793 380.6397
1715.971 381.57285
1713.9551 379.5106
1715.1884 377.53583
1716.0465 377.07532
1717.7307 378.06482
1715.6475 377.2431
1713.9779 375.87875
1713.6953 374.64893
1712.6744 376.69916
1712.0487 376.66672
1711.0974 374.45053
1711.6526 373.9931
1712.3599 372.27545
1713.4092 371.91937
1713.2296 369.48584
1711.2915 371.47144
1708.1484 372.42932
1708.3247 370.4526
1705.6382 368.21887
1705.2496 371.19516
1704.0886 371.4068
1702.9836 370.04453
1702.6279 369.8427
1700.9941 369.47067
1701.3594 370.7108
1701.1592 371.50214
1702.3762 373.96567
1702.6687 376.0301
1703.736 376.1114
1704.5186 375.8293
1706.1451 374.79523
1706.2996 374.05078
1707.5883 374.3625
1708.0684 375.0072
1707.901 375.12274
1707.5637 375.3922
1707.232 376.30347
1707.9509 376.04782
1708.2571 377.21832
1705.5662 377.6803
1704.838 379.12216
1705.3254 379.63617
1703.7751 379.54218
1702.8464 378.54514
1702.8723 378.24225
1702.5958 378.13007
1701.997 376.0959
1700.2651 375.1755
1700.2754 375.8451
1700.2129 376.80023
1700.2361 377.08615
1699.8015 377.48145
1698.062 375.5023
1697.0618 374.7362
1697.9326 374.07077
1698.312 373.06906
1697.037 371.42453
1695.8584 372.59247
1695.4037 372.2207
1695.1794 372.56348
1696.1399 375.41443
1692.5356 375.51303
1695.2722 376.5993
1697.0098 377.04242
1697.2118 376.6579
1698.4386 377.1037
1697.5994 378.40695
1696.7405 378.41504
1695.4424 378.88074
1697.0774 380.7043
1696.7047 380.68564
1694.9222 381.7401
1693.6506 381.85114
1692.5582 380.16928
1691.7006 380.5881
1689.3959 380.01068
1690.6804 380.27136
1691.6241 382.62354
1692.0677 383.1269
1692.2921 383.3353
1693.9277 382.5058
1694.4019 383.55478
1695.9827 382.96362
1696.3375 382.6964
1698.1249 383.6358
1697.2983 384.12836
1695.7102 384.1223
1695.499 384.71576
1695.4785 385.35165
1696.148 385.54443
1695.5614 386.41608
1695.6885 386.61377
1694.3694 388.03424
1691.9954 389.64984
1691.2784 387.50644
1688.3013 384.99927
1688.0967 387.4317
1689.1439 387.98016
1691.8813 389.63824
1693.168 390.35815
1695.6387 387.73215
1697.2057 389.50775
1696.0039 390.3082
1694.4846 392.32727
1695.1646 395.0947
1692.6807 396.28452
1692.4524 396.78293
1693.5121 396.1788
1696.0846 396.1253
1697.4475 395.21225
1696.8446 396.48328
1696.2178 396.52435
1697.0142 398.00574
1696.9216 399.94977
1697.4199 401.59006
1696.2028 400.4697
1695.8435 399.49792
1695.6405 398.6001
1694.3429 398.02524
1693.896 398.15912
1692.8511 400.22516
1691.9795 402.03976
1691.5586 403.0415
1692.7964 403.12915
1693.4304 403.3958
1692.3706 403.89658
1693.0605 404.55038
1694.2177 404.51758
1692.6963 406.521
1691.9717 408.89633
1692.0454 409.68146
1692.4387 410.82513
1692.3022 411.5007
1689.7615 410.5024
1689.3838 410.65768
1688.9695 410.5766
1689.3157 408.8817
1688.5613 408.9869
1688.5255 408.38586
1688.8262 407.09845
1689.8411 407.0013
1688.3088 405.44165
1689.327 403.6501
1690.7085 402.69666
1689.9578 400.95477
1688.9885 400.86688
1690.7817 400.1699
1689.8086 397.91443
1690.3572 397.70334
1691.7122 396.3186
1691.2562 395.28452
1691.5942 394.51526
1690.615 394.57565
1690.5874 392.3785
1691.4966 391.48895
1691.7932 390.5279
1689.9617 391.59998
1689.8934 392.30023
1688.8569 394.7682
1687.3514 394.59714
1660.0686 400.27487
1660.1626 403.3023
1657.6469 402.66595
1657.483 402.54315
1658.5569 404.6089
1657.7645 405.66537
1656.7295 403.9453
1656.017 403.01147
1654.2424 403.71725
1652.7656 404.18976
1652.6213 401.72168
1653.1318 402.4353
1654.2793 403.1847
1655.1641 401.75034
1653.9517 401.86313
1653.759 401.50998
1653.8242 400.4757
1655.5328 400.4946
1655.482 401.31805
1656.7787 401.40378
1657.7588 401.259
1658.8289 400.65085
1658.7646 400.52768
1657.8213 400.11652
1658.4296 399.70557
1659.8511 398.85263
1659.1085 397.27365
1657.8071 398.49042
1657.0295 398.66052
1655.5964 397.16037
1655.3608 396.46774
1653.503 395.3193
1653.8253 392.96704
1654.2756 393.1412
1654.7351 393.11642
1655.4071 392.85883
1658.7769 394.06726
1659.8259 394.9299
1659.4434 392.2429
1656.3931 390.87494
1657.2246 389.85934
1658.646 389.3846
1659.3872 390.5027
1661.8062 388.82404
1660.6375 388.55023
1660.2489 385.7191
1658.9332 383.75742
1659.0941 383.46606
1658.8528 384.15326
1657.8253 385.7561
1658.1155 387.10947
1657.1526 386.81616
1656.0739 387.52155
1655.9829 389.0713
1654.9952 389.0206
1654.2039 388.15656
1653.9761 386.77753
1654.6729 386.15088
1653.83 385.93628
1653.0333 386.95837
1653.6577 389.64447
1652.9158 389.92526
1653.0715 392.72504
1652.1732 392.83173
1651.871 392.701
1651.8556 390.30188
1651.2368 389.8156
1651.22 389.81573
1651.2646 388.28217
1650.1976 386.58832
1651.8348 383.69324
1654.0057 383.87152
1654.8413 384.05573
1654.3297 383.89014
1652.8224 383.32907
1651.4463 381.39795
1651.4896 379.17746
1653.063 379.12085
1653.2544 378.4322
1653.7698 378.43396
1653.5525 378.6523
1653.6552 379.15375
1654.9475 379.23712
1654.6555 380.83932
1655.0763 382.8543
1655.4424 382.7656
1655.9084 383.02682
1656.6567 383.2821
1658.5325 382.98972
1658.9519 382.3922
1659.2344 379.17676
1660.3777 378.4221
1660.8888 377.71945
1661.077 377.37936
1660.0215 377.60132
1659.6606 377.67053
1658.1084 379.47504
1656.1405 375.36716
1657.0697 375.09192
1658.0817 374.42834
1658.9043 373.88983
1657.5005 373.12787
1658.9238 372.0405
1659.8242 372.5462
1659.55 372.05554
1659.8837 371.279
1659.273 370.3581
1656.403 370.17917
1654.5425 368.3708
1652.7191 370.59784
1652.0 370.1972
1650.6276 370.242
1652.0188 371.0995
1652.907 371.11456
1654.5623 372.2256
1654.0181 372.70563
1654.7324 374.15344
1653.5754 376.44104
1651.2317 376.39514
1651.386 377.04782
1651.1187 377.6366
1650.0823 377.39862
1650.1667 378.49924
1650.0896 378.74924
1638.5265 381.34363
1639.307 384.35715
1638.2699 385.6108
1635.5239 385.51108
1633.532 384.0925
1633.0162 383.8901
1634.7876 382.88596
1636.4797 383.41125
1636.1481 381.72003
1635.3799 381.50317
1633.4814 379.86533
1632.5845 382.27405
1631.1979 381.73242
1630.9515 379.94135
1631.859 379.04596
1630.6758 378.37106
1630.1663 376.9793
1630.4451 376.64777
1628.3943 375.63922
1629.5563 374.9212
1630.9817 375.06946
1632.5022 376.0216
1631.9512 377.02185
1634.8989 377.6772
1636.3892 378.77084
1636.5751 378.72873
1636.2964 376.46417
1634.4711 377.01733
1633.6373 375.72946
1633.0814 375.09506
1630.6598 374.55682
1630.0991 374.2706
1631.3152 372.74377
1632.27 372.01782
1632.0508 371.1371
1630.8535 372.26666
1629.9512 371.92828
1629.862 371.3197
1629.0999 372.102
1627.3958 372.47275
1625.9717 372.10236
1626.0687 370.46777
1625.0715 372.12134
1624.471 373.32675
1624.9722 374.61768
1626.0546 374.49863
1626.6787 373.8338
1627.4729 373.40497
1626.9856 375.04233
1626.3878 375.48862
1625.9008 376.7614
1624.2007 375.01865
1624.0475 375.71674
1621.9028 376.68723
1621.1086 376.65924
1623.1707 378.38303
1624.1107 377.56873
1625.8923 377.88354
1627.3691 380.2534
1628.9304 379.5173
1629.2703 381.3993
1627.4563 383.91687
1630.0701 383.5178
1630.2489 384.75275
1631.6501 383.79016
1632.5684 385.49933
1633.2642 385.79706
1633.8967 386.68808
1632.9268 387.76355
1634.4609 388.3003
1634.6602 389.331
1633.659 390.9892
1632.0874 390.70068
1630.9512 391.14374
1630.4253 393.6646
1631.2097 393.4371
1632.1112 394.1107
1632.8988 393.14392
1632.7505 392.7364
1633.648 391.7491
1635.3527 391.58398
1637.301 391.33334
1637.9023 391.71982
1637.0033 389.95837
1638.6583 390.35138
1639.6958 388.82947
1640.0559 391.99484
1639.7661 392.61508
1636.8453 393.70758
1639.0474 396.0311
1638.6553 398.02267
1638.0521 397.70532
1636.9967 397.55075
1635.6135 396.84775
1633.2926 396.4668
1632.3698 396.62766
1632.5835 397.94894
1630.859 397.4355
1630.7662 398.35645
1631.6516 399.65344
1631.5524 400.081
1631.3503 400.05634
1629.075 400.4255
1627.3966 400.31955
1625.9421 402.24207
1627.9407 402.2751
1628.296 402.7301
1629.6077 403.80823
1628.0427 406.29626
1628.507 406.5189
1628.4316 407.68625
1628.0692 408.852
1626.9224 408.84753
1625.7725 408.61914
1626.4695 407.15353
1622.4789 406.59467
1622.2349 404.89844
1622.1458 404.14288
1623.7263 403.86865
1623.3737 402.9682
1623.1008 402.82855
1620.8273 403.35858
1621.356 404.78284
1619.7415 405.16302
1619.4092 405.18463
1619.2312 404.8077
1616.565 403.5793
1614.5032 401.74826
1612.8584 399.33618
1611.0992 396.6318
1611.0942 395.96872
1611.4052 396.20834
1612.5818 398.52173
1611.5259 401.8401
1610.4425 401.58862
1608.4695 402.39743
1609.7927 404.90598
1608.0697 406.8961
1608.4357 408.35004
1605.4435 409.76807
1605.7349 410.4476
1604.3784 410.5654
1604.3467 409.65305
1603.268 408.65173
1604.91 407.26715
1604.7954 406.85883
1602.4939 406.1285
1603.9238 404.99997
1603.7588 404.31137
1602.2676 402.59164
1605.2998 403.6109
1606.6937 403.48572
1606.0117 402.78986
1606.4482 401.8476
1605.009 401.38782
1605.7996 400.61987
1606.881 399.1679
1605.0292 399.73578
1604.8821 400.3127
1602.6742 398.83698
1604.8798 397.07416
1603.9675 395.84332
1606.0105 396.30832
1605.3925 397.19214
1606.3304 398.04196
1607.3425 397.00262
1607.5746 396.88474
1609.1799 396.54962
1608.5912 395.58594
1606.3021 392.88025
1606.6272 391.83838
1607.3262 392.0554
1608.69 392.38214
1609.65 393.3714
1609.755 394.06824
1611.0361 393.2363
1611.3936 390.50342
1610.812 389.5766
1613.1086 389.81183
1613.873 387.13303
1613.2056 386.85507
1611.6165 386.46338
1611.6333 387.23203
1611.7933 387.46664
1610.802 388.0564
1609.9698 388.03366
1609.1909 388.91345
1608.8071 389.65015
1609.1454 389.9654
1609.153 390.6368
1608.0623 390.2016
1608.2847 389.79767
1606.6486 388.7876
1604.8291 390.63403
1604.5132 392.11652
1605.6451 389.27588
1605.8053 385.0957
1607.7634 384.12436
1607.135 383.7142
1606.5854 382.328
1602.5488 384.60474
1602.0173 379.31427
1605.0233 378.72467
1606.029 378.62717
1605.6346 379.91046
1607.3651 381.0478
1608.8915 381.4437
1607.785 380.24323
1608.8091 378.87708
1606.6289 377.1975
1604.0767 376.91858
1603.0148 373.59027
1604.3474 373.56458
1604.3695 375.85773
1605.2454 376.80075
1607.3999 375.7872
1608.0096 376.16638
1609.7697 376.2501
1611.1191 376.3327
1610.3242 376.53915
1610.0669 378.37152
1610.2982 381.6845
1608.685 384.1407
1608.6472 384.4599
1609.6254 386.04486
1612.6576 383.36227
1611.7314 382.63022
1612.103 382.1255
1612.8352 381.91803
1613.4792 381.5217
1613.9203 379.97263
1613.7557 379.84558
1613.2725 379.6015
1612.3721 380.5256
1612.4248 379.42676
1612.031 379.07663
1612.1549 377.68967
1612.3059 376.65485
1612.9126 375.79773
1613.4961 376.17676
1615.1942 378.61276
1616.9117 378.36566
1617.9077 377.68918
1617.365 377.28815
1615.978 375.51987
1616.4984 375.38806
1618.0535 373.71814
1618.4863 374.19492
1619.178 374.68906
1619.7867 376.3691
1620.7102 376.2588
1620.1707 373.69458
1622.119 371.56528
1621.0624 371.6124
1619.1614 371.68698
1619.0071 370.9809
1620.294 369.18515
1620.684 368.49814
1619.2749 369.29315
1617.6846 368.39166
1617.2869 369.44308
1618.2158 371.07544
1618.0873 371.65558
1618.2129 373.06418
1616.9755 371.5744
1615.7974 372.21362
1614.3206 372.2335
1614.1917 372.12634
1614.0914 371.4321
1613.8379 372.0
1609.7318 372.20673
1609.2764 371.10016
1609.611 368.20883
1608.0205 369.7556
1606.1893 371.3659
1605.8756 369.75464
1603.5325 370.489
1591.5314 374.2849
1590.9423 369.83444
1589.1289 368.99683
1586.5662 370.6544
1585.3601 369.83563
1584.9751 368.8243
1583.915 371.0792
1583.5131 372.964
1583.8677 373.28415
1583.8274 373.3675
1584.3115 373.76624
1585.2539 374.31747
1585.8293 374.28134
1586.8374 373.83298
1587.3127 373.84283
1586.8035 373.02673
1585.7148 372.47406
1585.7678 372.278
1585.9755 372.3458
1587.4586 372.00427
1587.9712 373.8484
1587.4443 374.52954
1587.656 377.03937
1589.0994 376.06018
1590.4229 375.40024
1589.3026 376.74554
1590.2882 378.11716
1590.8938 379.47998
1587.1052 379.68988
1585.262 378.15
1585.0864 376.0526
1584.679 375.2563
1582.95 375.28345
1583.8053 379.10898
1581.8591 377.73236
1579.271 377.98224
1578.1633 376.65317
1575.7814 377.72693
1573.698 378.3381
1572.8865 378.02386
1572.5615 376.80334
1572.2991 376.89548
1572.2363 376.79224
1571.2726 377.3863
1572.1365 378.31134
1571.3196 380.8015
1572.2712 381.84125
1570.5613 382.92554
1569.7864 380.90317
1569.3726 382.34848
1566.5978 382.5626
1565.6895 383.6555
1565.758 385.67758
1563.9515 386.57455
1565.0027 387.70026
1566.353 388.67468
1566.5812 386.6944
1568.1289 386.3985
1568.7537 386.17102
1571.7207 384.5864
1570.7332 388.11594
1572.148 391.5804
1570.5205 389.5135
1568.8505 387.97186
1567.9286 389.1434
1567.7963 389.0957
1567.8259 389.30414
1567.5227 389.89618
1567.4596 390.20123
1569.1482 392.31067
1568.9261 392.60162
1569.7572 392.9016
1570.8713 392.72375
1572.1226 393.84973
1571.5256 395.04858
1570.2717 395.55084
1569.1875 393.9477
1570.7097 395.55048
1571.7101 398.36212
1568.9235 398.03967
1566.9893 396.6738
1565.8774 396.17307
1564.3845 396.52792
1565.3447 397.3868
1568.5999 398.3291
1567.9598 402.3834
1568.7089 401.99728
1570.3412 398.98727
1571.2134 400.14255
1572.7114 402.34534
1573.0781 402.08356
1574.7356 402.38977
1575.6343 404.5321
1574.2561 405.47595
1574.9888 405.89108
1575.8376 404.89767
1577.1516 405.4729
1578.24 404.23407
1577.9686 403.02045
1578.995 404.22592
1581.698 404.52966
1583.783 403.04468
1583.0339 404.25278
1584.3484 406.54578
1584.4583 408.7597
1581.1516 409.91696
1580.4783 410.47015
1580.515 408.29126
1580.896 407.9834
1582.2864 407.26685
1583.0549 405.565
1579.9106 406.07886
1579.5303 406.99866
1577.8226 409.19464
1575.9087 408.01755
1574.082 407.89145
1572.6747 407.87976
1572.9694 409.4305
1571.9675 409.3886
1571.4233 409.7072
1570.4192 410.29697
1571.6073 411.1715
1571.0713 411.2334
1569.511 413.81616
1569.694 415.90625
1570.7627 417.47974
1568.9121 416.9048
1567.2373 416.41525
1566.522 416.4261
1567.0564 415.67273
1567.6483 414.82257
1565.9216 412.56003
1564.0325 412.46295
1563.0161 413.44638
1562.4067 412.88705
1561.4945 410.08945
1561.5107 407.727
1561.6624 406.68884
1562.2441 407.43723
1563.539 407.15955
1563.8794 407.22388
1564.1804 407.8871
1564.2749 408.23434
1563.6106 409.03394
1564.5032 409.11914
1564.823 409.9665
1565.2686 410.22668
1564.7917 411.04694
1565.1184 411.26694
1566.9741 410.42218
1567.384 409.33286
1568.1924 410.556
1569.9426 409.0746
1568.5962 408.25217
1570.4672 406.2481
1571.1273 403.4267
1568.5549 403.27963
1568.2222 403.41528
1568.1732 404.17883
1566.9769 404.62045
1566.7854 404.29077
1566.5334 403.41412
1566.179 403.9585
1566.5453 404.21814
1566.636 405.52942
1566.263 404.8377
1563.6901 405.4702
1562.7068 404.73364
1562.5094 403.57858
1563.7625 403.31366
1562.7147 401.93442
1563.6914 399.85162
1563.9932 398.2345
1562.543 398.16403
1562.6266 397.44598
1562.6813 396.15146
1564.3584 395.50375
1564.665 392.69318
1562.7922 391.5842
1562.541 390.9276
1563.5405 389.8005
1564.0569 389.31317
1563.0737 388.9166
1562.5989 387.90778
1562.0615 386.24207
1564.0116 385.62704
1563.5413 385.2829
1563.5657 383.90366
1563.7776 383.10254
1564.1259 381.8418
1566.06 382.13568
1566.3911 381.46277
1569.0676 380.52707
1567.8529 379.2995
1565.3556 379.1902
1564.0752 377.93958
1564.8429 375.99484
1564.7708 374.05734
1566.9565 373.3872
1568.5615 375.01343
1568.4888 375.42636
1568.839 375.136
1569.221 374.58057
1570.7009 373.87155
1572.4121 375.88904
1572.6903 376.11932
1574.0698 375.3442
1574.9524 376.40472
1575.8728 375.03827
1577.3765 374.11517
1578.4218 374.27612
1579.2463 374.1589
1579.6978 373.7617
1580.9807 374.39923
1581.5629 374.7733
1581.9753 374.63596
1581.8014 374.20578
1581.7317 373.80502
1581.4375 373.35492
1581.8104 372.78537
1581.3799 372.2804
1578.5078 370.31415
1576.9521 371.32056
1577.2913 373.03253
1576.8103 374.05072
1575.6279 374.13803
1575.088 374.25024
1573.746 372.47882
1573.1943 372.06122
1572.8096 372.34662
1571.3088 372.7887
1571.1453 373.64758
1571.0975 372.65796
1570.0769 371.9549
1569.8746 371.60742
1571.4602 368.66882
1566.2864 368.02612
1566.4229 373.40015
1564.3646 374.0318
1563.887 373.8308
1562.2141 376.06287
1551.2695 375.42844
1550.5801 375.9228
1550.5239 371.1733
1550.5157 370.97076
1550.1434 371.53534
1548.1453 374.02618
1547.176 375.29205
1547.4913 375.71225
1549.4357 375.7816
1549.522 377.94446
1546.113 378.23578
1545.3132 377.95007
1545.9883 376.85303
1544.1736 376.4278
1543.8795 375.89172
1543.8938 376.0741
1543.6295 376.60434
1541.9694 379.53937
1542.2344 377.0929
1542.2341 376.14438
1539.9009 375.16547
1539.1342 375.82654
1538.6218 375.52988
1537.887 374.5228
1537.1234 373.53842
1537.4446 373.8264
1540.2078 374.4651
1540.8853 374.18915
1541.0103 373.5443
1541.3314 374.62866
1544.0096 375.3233
1544.2542 375.0047
1544.8987 374.62704
1545.3623 373.16406
1546.8323 373.0079
1547.0651 371.7889
1547.6553 371.0195
1545.2015 371.20724
1544.863 372.55328
1544.2609 370.8369
1541.887 369.4637
1542.7551 371.71603
1540.0073 372.48178
1539.3906 370.95618
1536.9788 373.31262
1537.0071 370.92413
1537.1201 370.25262
1537.0309 369.73236
1536.3049 369.25793
1536.3425 368.6006
1535.5798 368.94342
1532.7806 370.80322
1532.9585 371.97833
1533.3645 372.31293
1531.8013 372.29712
1531.3647 371.8576
1531.3029 373.54236
1531.3103 373.75208
1530.403 373.3524
1529.2585 374.0298
1530.1582 372.97742
1530.2935 372.95935
1530.9219 371.96753
1530.6945 369.44846
1528.1091 368.95224
1527.4805 371.76562
1526.9641 371.7058
1526.5845 372.8502
1526.05 371.74683
1523.29 371.60422
1522.3214 370.24567
1520.9664 370.65698
1521.8188 371.00952
1523.9055 372.7896
1524.302 373.55615
1526.4719 374.90985
1527.9095 373.71002
1528.6001 376.0437
1528.1613 376.12518
1526.2385 375.2818
1525.0493 375.9763
1524.3577 376.41623
1524.6923 377.59985
1524.108 378.04596
1523.1273 378.8258
1521.5195 379.01987
1521.0381 379.5273
1520.6812 380.5221
1521.4775 381.46906
1522.0835 381.30493
1522.0155 380.74863
1523.4316 380.17218
1524.1228 380.94116
1524.9912 379.79062
1526.2212 378.66486
1526.3387 378.38397
1527.7762 377.86298
1528.4553 377.66367
1528.5524 377.1742
1529.8748 377.90198
1530.4015 378.43173
1532.7983 376.8333
1533.9506 375.7209
1533.8466 377.63644
1531.7727 378.34058
1530.8313 380.50568
1530.8293 381.12225
1529.4972 379.6588
1529.4678 378.6794
1529.319 378.6416
1527.6655 378.59323
1527.4437 378.69284
1527.9868 379.20184
1527.8513 380.8126
1528.0259 381.50494
1528.5349 381.69824
1529.0275 382.32358
1528.1621 382.21567
1528.2208 383.00665
1528.26 384.7789
1529.7588 385.56833
1530.6248 384.43542
1529.8545 385.9701
1529.5487 386.50107
1529.7158 386.58325
1530.8972 387.26657
1528.8694 387.98364
1528.7987 388.72418
1528.4023 387.74106
1527.8229 387.43286
1524.677 386.55713
1522.5151 386.181
1521.9272 386.99924
1522.3792 387.23804
1522.8965 386.7876
1523.3818 387.7635
1522.7092 390.20795
1522.4215 390.91928
1523.5706 390.7722
1524.973 389.14874
1524.9614 390.34882
1525.6018 391.00043
1528.416 389.87305
1527.6501 391.06628
1526.7317 392.57614
1526.612 392.75888
1528.0786 393.01157
1530.171 393.64313
1529.9741 394.2813
1529.7285 396.77853
1529.9272 397.59076
1529.6165 397.33362
1528.7896 397.64893
1528.535 394.66147
1527.7249 395.16388
1525.866 393.103
1525.9185 391.43665
1523.2275 393.025
1522.4108 392.93552
1521.9738 393.47107
1523.7605 393.8556
1523.6909 395.01465
1525.5496 396.53903
1524.0764 397.94028
1522.0734 398.5667
1521.3119 399.1499
1509.1084 399.38385
1509.011 399.5191
1508.1035 397.95068
1508.0708 397.9179
1508.7601 397.2636
1507.7854 395.83545
1507.2175 393.93597
1509.0728 393.21478
1506.6033 391.8946
1506.4573 391.0626
1507.0355 390.49103
1507.1212 388.90527
1507.1608 388.8785
1507.1267 387.90118
1506.4508 386.28952
1507.1802 385.51587
1507.3102 385.40582
1506.0667 385.29413
1504.8691 386.94757
1504.9022 389.5848
1504.0013 389.97983
1502.1685 388.7247
1501.3523 388.79596
1501.783 387.35205
1502.0087 386.85776
1501.8179 386.09042
1502.1411 385.72388
1502.5018 385.716
1504.6124 384.6714
1506.2113 384.16342
1505.377 383.3159
1504.8477 383.17114
1506.0815 381.65158
1505.2683 381.6322
1502.5961 380.38156
1500.4187 379.91077
1498.3163 380.16953
1499.2245 379.98816
1500.346 378.7502
1501.8307 378.31274
1502.4512 378.05072
1503.5198 378.56976
1505.5873 378.52353
1504.426 377.81723
1504.5447 376.21765
1502.3467 374.89594
1501.7928 372.98944
1500.6074 373.92993
1500.143 372.79266
1499.1606 372.68906
1497.0734 371.03406
1498.157 372.05258
1497.4064 374.7837
1499.2131 374.64023
1499.4811 374.87793
1500.53 377.28125
1499.4889 377.8177
1497.3798 375.84485
1495.2568 376.60535
1494.6832 375.95685
1493.8854 376.52576
1493.7433 376.73813
1495.1339 377.52545
1496.028 378.47485
1495.5867 379.31818
1497.6727 379.60706
1496.92 380.7401
1496.668 380.87753
1497.2842 381.36716
1498.7501 381.6844
1501.5424 383.67352
1500.8967 383.99396
1497.7184 384.9179
1500.0359 387.21082
1499.7478 387.8309
1499.0691 389.8178
1499.2944 391.24045
1499.9137 391.2407
1500.982 390.40228
1500.9559 390.83624
1501.5547 391.57947
1500.8285 391.87207
1502.0562 393.81088
1501.949 395.10962
1501.5891 395.989
1500.7793 396.035
1499.9955 397.03574
1499.6095 399.74774
1499.0232 400.51605
1500.0447 402.47385
1501.712 402.71387
1501.7858 403.33356
1501.8389 403.41318
1502.2325 405.12012
1500.6097 404.8059
1501.0635 405.8956
1501.5559 407.3895
1501.0986 409.30457
1499.5583 409.29492
1499.595 410.02454
1499.8967 412.55048
1499.113 414.5875
1499.2759 415.0694
1501.1975 414.77206
1501.1136 413.80768
1501.2225 413.71082
1501.1307 413.16223
1502.2395 412.357
1503.4291 412.05124
1504.0427 412.7972
1503.5819 413.2889
1502.747 414.77667
1501.947 417.46857
1501.7549 418.036
1498.1202 419.57812
1498.3878 420.41437
1498.7506 423.25354
1498.2378 424.75305
1497.5935 427.81952
1496.541 428.54636
1495.826 426.9972
1495.3209 428.00482
1495.347 429.1174
1492.3512 430.31927
1490.5631 429.11484
1491.2085 429.11996
1493.01 428.25537
1492.8928 427.88412
1493.1447 425.04333
1489.3623 425.8849
1488.5203 424.28146
1487.0798 424.10837
1487.2224 426.47458
1487.1357 427.20764
1487.0789 426.55408
1485.3943 425.74573
1483.3099 423.76376
1482.2687 424.87585
1481.1683 425.06195
1480.493 424.57166
1479.4583 425.0
1478.3325 425.13007
1478.8937 424.0639
1479.3354 422.31042
1478.7604 421.99377
1478.0305 422.18036
1477.4626 422.10934
1477.6136 420.42694
1480.2441 421.20404
1478.4873 419.51508
1478.4438 419.2293
1479.3452 418.48483
1478.7971 416.2837
1481.314 416.0741
1479.8042 415.11365
1478.0024 416.3612
1476.5829 418.14056
1475.1881 417.68958
1473.4973 416.48645
1474.3484 415.57007
1475.2245 415.50363
1475.9336 415.46277
1476.7522 412.97116
1478.0996 413.10846
1478.4783 411.8032
1479.2142 412.4991
1480.4473 413.54135
1481.24 412.7535
1481.612 412.68787
1480.9568 410.25482
1481.5422 407.89218
1479.9977 410.9214
1478.5833 409.85376
1478.221 409.57825
1475.7742 409.60907
1474.9075 407.22882
1474.4077 406.69073
1475.1028 406.67853
1475.4941 405.2524
1475.4131 403.94943
1476.6858 406.06952
1477.6797 404.17462
1478.6182 404.6814
1479.1876 404.34613
1481.2128 403.93994
1481.0188 403.17737
1481.0555 403.06113
1481.5228 402.2588
1481.8552 400.7019
1479.331 399.2876
1479.0845 397.91855
1478.6327 399.19562
1478.119 401.03143
1478.1534 401.281
1477.8795 400.90793
1477.1946 401.4227
1475.9626 402.21222
1475.2976 402.14093
1474.3534 401.88135
1473.9204 400.1869
1475.3229 398.5197
1475.2272 398.3768
1475.3508 397.03915
1475.4601 396.95465
1474.8337 394.58783
1475.6299 394.93896
1476.5718 395.69086
1477.426 394.64954
1476.3688 394.33286
1476.263 393.82236
1476.2928 392.24658
1477.9185 392.7505
1478.0189 392.8231
1479.496 393.99594
1479.8662 393.16766
1479.8596 392.4926
1480.4354 392.3918
1480.8578 391.4509
1480.5724 390.5785
1479.2734 390.22852
1478.4585 390.27362
1478.155 388.40573
1478.4595 385.65393
1481.1936 385.66342
1480.1746 383.8365
1478.5125 382.17603
1479.1357 381.96838
1481.8789 383.03815
1481.5771 380.62653
1480.1624 379.84958
1481.342 377.54602
1482.4211 376.87473
1482.543 376.94983
1483.997 378.1281
1483.8973 376.0732
1483.9104 375.20026
1483.3809 374.4206
1482.7393 374.17255
1481.3512 376.77472
1480.3113 379.46985
1479.6737 379.69797
1477.9294 379.95526
1475.9783 380.5938
1472.6143 379.01376
1473.2952 375.8341
1472.9746 372.6731
1473.1843 372.22418
1472.8815 371.64975
1474.0062 371.85986
1473.8922 373.7127
1477.03 376.72052
1477.3245 377.7796
1477.5374 374.55872
1478.7568 373.009
1478.8835 372.1003
1479.2833 371.98566
1478.6897 370.8902
1478.8362 370.75864
1479.9316 371.20248
1481.7203 370.174
1483.7827 372.95236
1484.6521 373.71753
1484.4983 374.13568
1486.1254 375.10577
1487.2019 376.6898
1487.2112 377.05438
1488.0513 378.2861
1488.3984 378.90405
1488.4719 378.40228
1491.0154 378.42725
1491.8132 378.09796
1490.2621 376.9327
1489.5703 375.2138
1489.8741 374.76437
1490.6189 374.42014
1492.371 374.4498
1493.5029 374.33383
1493.9099 373.78
1490.2253 371.3131
1490.5032 370.5118
1490.3914 369.414
1487.8259 369.87354
1487.6873 371.02716
1488.6913 373.46454
1486.7484 373.0692
1485.1074 373.45068
1482.7794 369.11377
1480.8143 370.3949
1479.1683 369.84808
1477.7888 370.22473
1476.4904 369.7116
1475.3428 370.60007
1475.1671 371.5547
1475.5994 372.39862
1475.1163 370.922
1474.7739 369.71124
1473.4058 368.7315
1471.9888 368.15887
1424.8291 372.82202
1423.9028 373.0475
1423.574 372.93274
1422.0208 373.62424
1420.8502 374.05316
1419.6111 376.0359
1418.9539 376.21088
1418.5153 374.22726
1418.7126 373.818
1418.4558 373.4736
1419.4432 372.639
1420.4149 372.6274
1421.1925 372.2199
1419.3391 371.67163
1418.6365 369.04697
1421.451 370.3222
1424.0312 369.84665
1423.7484 369.29492
1421.54 368.74792
1420.6155 367.9809
1417.7559 366.62045
1417.0344 368.33673
1415.7543 370.05292
1414.9849 368.89685
1414.6167 369.71667
1411.8153 368.47186
1414.887 366.9062
1415.5114 366.95026
1415.8647 365.7151
1416.2356 365.59534
1414.9734 364.60345
1413.5972 364.71912
1412.1267 364.5888
1412.1388 364.9802
1411.0581 365.2347
1409.3857 364.08655
1411.9634 362.32288
1411.4973 360.38336
1412.1118 361.243
1413.087 361.7972
1413.6816 362.18274
1415.262 360.99573
1414.3945 359.38513
1416.0515 357.2077
1414.4286 355.3526
1414.7483 353.59238
1415.3069 353.8613
1416.2375 353.14703
1418.5452 353.21674
1417.2328 352.7318
1414.9006 352.49097
1415.009 350.58484
1414.2925 350.64722
1412.9216 351.80414
1411.6239 352.93048
1411.5741 350.95508
1412.0187 350.43808
1411.8975 350.12543
1414.4362 348.4521
1413.5396 346.88165
1411.4681 347.14526
1408.564 345.776
1407.0792 346.02045
1408.7079 346.04907
1411.2551 348.05194
1411.775 350.13486
1410.6174 350.92987
1408.0178 349.77985
1406.392 348.22437
1403.0472 348.4018
1403.0078 348.2541
1402.11 348.6158
1401.188 346.93344
1401.9536 345.83734
1401.0526 346.22116
1400.9325 347.53387
1399.5645 349.26764
1401.843 351.4657
1403.417 351.41745
1405.0271 350.32455
1406.9722 351.54633
1407.9299 353.98267
1409.9839 353.59042
1409.0364 355.08197
1409.676 355.83188
1409.7837 356.2668
1411.4393 357.79468
1412.2537 358.95245
1412.458 359.3596
1411.5657 359.1301
1410.0332 359.8879
1408.8832 360.674
1408.5145 362.03442
1409.2378 363.38828
1407.2189 364.28906
1407.5381 365.84717
1407.6338 366.30624
1408.5029 366.40662
1409.3765 367.27182
1408.7776 367.7716
1408.6466 368.61078
1406.3995 368.10614
1404.1853 365.13412
1404.5939 363.6047
1403.2167 361.9852
1402.0718 361.90723
1400.8986 359.19434
1403.1365 359.93698
1403.4839 359.65698
1403.5015 360.21283
1404.3469 360.50354
1405.2345 360.97433
1406.8986 360.83954
1407.8472 359.79114
1406.9995 358.875
1407.4507 358.7667
1407.6221 358.64316
1408.9556 356.73373
1408.2375 356.14804
1407.7554 355.54868
1406.3333 356.37775
1404.5105 356.5816
1403.312 354.54257
1402.61 354.1263
1402.2489 353.69452
1402.5995 354.97296
1402.1665 355.6604
1400.9163 355.453
1399.8766 355.31256
1398.5083 355.99396
1396.4784 357.27338
1393.2552 357.32196
1396.1554 356.93353
1397.564 356.56677
1398.8918 354.69373
1398.8044 353.8836
1398.2273 352.25873
1397.9001 352.53244
1395.7394 352.47583
1395.7628 352.30243
1397.4755 352.14865
1398.0784 350.41626
1395.9343 348.57733
1395.3024 348.0245
1396.571 347.90723
1397.4741 347.1794
1396.6989 346.27313
1397.5553 343.62936
1394.9293 342.06592
1394.3245 340.26083
1394.7981 341.93475
1394.5433 344.6176
1394.8293 346.1373
1393.5548 345.6598
1390.3805 346.1997
1390.6643 347.9682
1390.863 349.69003
1391.042 351.27997
1392.6766 352.62848
1392.4042 354.42172
1392.4835 354.79767
1391.9705 354.50586
1389.4858 353.75485
1388.1793 355.2032
1388.045 354.93512
1386.1942 354.22083
1385.9734 355.0555
1385.1187 354.2107
1385.4238 353.562
1385.9661 353.5713
1387.0104 352.90442
1388.2578 352.7838
1387.186 351.81577
1389.5858 349.90112
1386.803 350.50766
1386.4158 350.80927
1385.6597 349.87292
1384.5854 350.34247
1383.8342 353.15414
1383.5415 351.58737
1383.6152 348.73383
1382.3699 348.12524
1382.3118 347.13568
1383.4885 347.31885
1385.2126 346.60858
1384.4757 345.20236
1384.116 344.4118
1387.0109 343.9255
1388.3026 342.7042
1387.3538 340.1529
1387.6199 338.9316
1388.9009 338.34006
1389.3337 339.78592
1388.8503 340.45547
1389.3289 340.9895
1390.3586 342.60443
1391.8344 340.8608
1391.71 340.75983
1392.2869 337.4346
1388.0259 336.10672
1387.7598 337.36465
1384.8613 336.79657
1382.1708 336.33258
1382.0767 338.89746
1383.0254 339.70465
1384.3727 339.07532
1384.2935 339.8483
1383.3574 341.2044
1381.1047 340.91315
1380.6694 342.38037
1382.1237 342.75928
1380.6327 344.04633
1379.3037 344.28867
1379.7338 344.69452
1380.2793 345.0431
1382.0659 346.66443
1380.3322 346.94263
1379.5605 347.79916
1379.2737 346.71054
1378.9103 345.6539
1375.133 345.26535
1373.4575 346.842
1372.7595 348.81128
1371.762 348.35556
1371.0183 347.26425
1370.9636 347.3684
1368.9319 347.07123
1367.9149 346.60614
1367.7457 347.7094
1370.1763 349.87006
1368.116 350.9681
1366.4456 349.13318
1367.3113 346.81357
1366.9037 345.58746
1364.021 347.63818
1364.5173 349.4391
1363.4717 350.3801
1363.457 350.61877
1363.4985 351.61523
1364.5662 352.01532
1365.2476 351.60214
1365.9751 352.69147
1366.4797 352.98386
1366.7979 351.1108
1368.4523 351.06097
1370.0997 351.6058
1371.1396 354.16272
1372.4387 353.84406
1372.7122 352.32727
1372.3859 351.29102
1372.7076 351.82492
1373.1311 352.55768
1373.498 352.94342
1374.13 352.3729
1374.7263 352.16473
1375.1958 351.6821
1375.4679 350.4135
1376.5472 348.6168
1377.1123 348.02817
1378.1489 350.31635
1378.7285 350.32214
1377.739 351.55942
1377.1969 352.10626
1379.8657 351.83798
1381.3179 351.53732
1381.1509 354.11383
1380.1382 354.26617
1380.7126 355.48724
1378.4124 357.34607
1377.3307 357.21777
1377.4954 356.79572
1376.9159 354.5783
1377.1345 354.2749
1375.002 353.7098
1373.2926 353.95322
1373.1337 354.48553
1373.1458 355.36603
1373.7916 355.94788
1371.4281 357.20566
1370.5038 356.17477
1369.046 356.38412
1367.4863 356.87213
1367.2892 356.74103
1364.8066 356.90094
1365.832 355.3248
1367.4146 355.1806
1370.3281 356.10284
1371.1044 357.06708
1370.6216 358.59814
1370.1946 359.431
1372.7935 359.24762
1373.7275 358.00684
1374.2406 359.18195
1372.8494 360.94418
1371.8555 360.0984
1371.6171 361.65976
1371.3429 363.69492
1371.088 364.54477
1369.564 363.84814
1368.435 363.86908
1368.3247 363.7163
1368.3655 364.31882
1367.9767 364.42966
1367.7595 364.4897
1368.5033 364.93658
1369.1748 369.23743
1367.2618 364.89523
1365.7589 364.83017
1366.5458 363.51447
1367.7139 362.62534
1369.0244 359.37122
1366.8033 359.59396
1366.2048 358.97653
1365.2386 359.03403
1363.7251 359.46564
1363.2693 360.46494
1363.9253 361.29163
1362.2103 361.23837
1362.2244 360.5339
1361.6324 360.34247
1361.1958 358.25983
1362.2666 354.96216
1363.6445 354.09567
1363.7216 353.05896
1361.5037 352.74936
1361.6782 351.09283
1361.4974 350.98776
1361.7512 349.45895
1360.8269 348.48798
1360.6688 347.37915
1358.2766 349.41522
1358.4452 351.5859
1359.4822 352.16998
1357.3898 353.0891
1360.4404 357.00055
1360.5619 358.478
1360.6146 360.53473
1358.2383 360.30078
1358.3699 361.54126
1358.03 365.74084
1357.4955 367.28015
1360.5784 363.1943
1362.4546 363.1422
1363.3113 364.89856
1363.4199 366.30466
1363.4275 367.30133
1360.9364 368.1434
1362.1997 368.24936
1363.6017 370.7749
1363.6007 372.39697
1364.7444 372.61777
1365.2549 372.8088
1365.3127 374.6551
1364.2324 375.63205
1361.7622 375.72235
1360.2314 376.17477
1361.1034 376.00424
1362.0385 374.16827
1362.9945 374.81
1363.7316 374.348
1362.6338 371.93756
1362.2891 371.787
1361.2164 369.77927
1360.7009 370.59503
1356.9128 370.79797
1356.9346 371.48547
1356.196 372.8714
1353.9178 372.77808
1353.7644 372.76642
1353.9536 372.2589
1353.2833 370.9364
1354.0917 368.3305
1352.9622 369.97092
1350.7131 369.22763
1350.5868 369.02545
1350.7781 371.28415
1351.1843 372.21283
1352.2576 376.11667
1351.1216 376.37482
1350.3403 377.2693
1350.4071 378.296
1353.6963 376.92273
1353.9371 377.1368
1354.1053 376.25293
1355.8 373.62177
1356.3668 373.95343
1358.9669 374.9679
1357.4253 376.20947
1357.5706 378.12778
1356.0586 378.58234
1356.3694 380.2181
1354.5903 378.872
1353.281 379.60535
1354.5798 381.0501
1355.925 382.5376
1357.7424 381.88525
1360.3134 380.1545
1359.5836 379.54175
1359.7892 378.67273
1359.6453 377.12695
1360.4001 378.5691
1360.477 380.04816
1360.3156 381.76917
1358.5275 383.4902
1357.2743 384.76312
1358.1196 385.0194
1360.1204 383.65964
1361.6232 383.7259
1363.0775 384.0661
1362.9 385.16504
1362.6711 385.04285
1361.4192 385.41644
1362.4441 385.63156
1362.746 385.96555
1363.2816 386.32056
1362.5942 386.9013
1362.0693 387.09885
1361.9766 388.03864
1361.9789 389.24628
1363.1804 389.97156
1363.2152 387.91888
1363.8499 387.4532
1365.4326 387.29404
1366.63 385.6858
1366.1421 384.4425
1364.8906 384.97504
1364.624 383.3418
1364.5654 383.16687
1363.8749 382.21692
1363.3542 381.42407
1363.5034 380.00742
1363.9954 377.73804
1365.8008 380.62317
1366.0309 380.5488
1366.9036 380.49536
1367.6143 380.73987
1369.3923 381.02905
1367.6426 381.1456
1367.6995 382.63123
1368.728 383.90143
1369.2361 384.44708
1367.5706 385.37408
1367.5325 385.7351
1367.2502 386.5404
1367.1877 387.81708
1368.6237 391.07727
1370.66 391.75684
1371.8801 390.71545
1373.3724 389.9225
1374.4016 389.97385
1375.1582 390.145
1375.9956 390.74557
1376.1125 392.02707
1378.2095 394.82428
1377.0103 397.36557
1378.1941 398.61765
1378.3423 399.54004
1378.8276 400.97534
1378.1581 401.32483
1378.793 402.63425
1380.368 401.38412
1380.2083 400.33057
1380.0349 399.30518
1380.1599 398.4536
1380.0145 396.49854
1378.9412 395.78537
1379.7838 395.10187
1379.987 394.14096
1381.4985 393.57812
1381.8342 396.02695
1382.3728 397.86023
1382.9797 399.22482
1381.8411 400.597
1381.3992 402.5831
1381.8882 403.12463
1382.5121 403.74847
1384.0168 404.09772
1381.7867 404.2912
1382.0612 405.04395
1381.8135 405.22714
1381.8126 406.79233
1383.8916 409.00018
1384.0388 409.11194
1383.7432 409.77463
1382.5603 408.82285
1379.8092 406.5682
1380.6395 405.44275
1380.739 404.77014
1379.8623 404.81247
1377.8623 404.73395
1377.1965 404.1629
1376.5012 401.3601
1374.2867 402.17673
1373.2529 402.57025
1373.1094 402.8753
1373.404 402.5997
1375.1229 401.30878
1376.4552 400.4908
1375.804 398.93286
1374.592 396.76132
1375.6276 395.44748
1374.3436 392.98633
1374.5627 391.82928
1370.957 392.15308
1370.4529 393.10474
1369.8599 392.83942
1369.6681 392.56723
1367.0865 390.36703
1365.4733 389.5064
1365.5315 390.20178
1365.0823 390.6231
1365.6924 391.25128
1365.8036 392.48822
1366.1652 393.2796
1366.6932 394.43542
1366.2417 395.02692
1366.0503 393.4006
1364.9104 392.64996
1365.1826 392.15222
1362.999 390.47385
1362.7734 392.515
1362.902 392.61438
1361.9836 393.35498
1362.9711 393.90906
1362.2168 395.962
1359.971 397.29388
1359.5922 397.02606
1358.6111 395.73682
1356.8849 395.31586
1359.2919 397.52097
1359.766 397.48352
1360.3384 398.41428
1361.477 400.23605
1361.4622 400.62558
1362.5479 401.34714
1364.428 398.40906
1365.9379 396.1864
1366.443 396.88397
1368.6702 398.4002
1368.5256 397.27722
1368.7559 396.14523
1369.8419 396.0324
1369.9507 397.13354
1370.2555 397.31723
1373.0757 396.8664
1373.8942 397.37387
1373.1864 398.21735
1372.5168 398.94623
1372.229 398.43646
1371.8936 398.72263
1371.273 400.21674
1370.2097 400.61212
1370.685 401.72748
1369.6826 402.20038
1369.6072 401.8083
1367.333 400.8298
1366.8177 400.66357
1366.0862 401.39548
1366.8904 402.24622
1363.8882 404.45923
1363.3499 404.58783
1358.4486 414.90598
1360.4827 416.61325
1360.5339 417.44348
1361.4893 418.15048
1361.4462 419.22906
1361.4354 419.45087
1362.2887 421.06323
1362.2014 421.91486
1361.791 422.56662
1361.6718 421.40857
1360.3214 421.9709
1358.1083 421.0776
1356.522 421.81406
1356.2539 423.96906
1357.227 424.2766
1357.3322 424.4084
1356.2039 424.42816
1355.1815 423.76462
1355.3018 422.32336
1355.0577 421.1849
1356.0085 420.05283
1357.6777 418.27448
1355.1764 414.79883
1353.0275 415.15607
1353.5776 414.29175
1352.2258 412.78668
1349.763 410.19232
1348.3248 411.08057
1347.8787 410.66205
1345.7744 411.01035
1337.4292 409.86707
1336.8339 411.6921
1343.4032 415.104
1344.5491 416.0307
1343.8306 417.75256
1344.0817 419.01535
1344.4243 418.623
1346.0162 416.47296
1345.0106 415.45386
1346.9019 415.60602
1347.2355 413.2884
1348.7363 414.80475
1350.5112 414.36377
1351.522 413.11475
1352.5117 415.4288
1354.3872 416.7812
1354.1428 418.08224
1355.6636 418.65182
1353.6338 419.04962
1352.4565 418.42676
1352.3667 419.87372
1353.2368 420.61276
1352.6241 420.7638
1351.5723 420.39642
1350.1727 419.51852
1348.6594 419.4577
1348.488 418.78717
1347.7969 419.13583
1347.5958 418.56482
1347.3552 417.5249
1345.9839 418.17908
1345.9235 418.70154
1345.6567 419.20013
1346.5602 420.06006
1346.0217 421.36426
1346.7866 421.9901
1346.7479 422.5995
1347.4976 422.70898
1347.763 421.10483
1349.1335 422.16632
1350.3446 423.53625
1350.9207 423.70663
1354.2057 426.49377
1357.8232 426.88385
1360.8441 427.0339
1364.2631 427.94092
1366.0265 427.13397
1367.7983 425.95245
1367.7675 427.2922
1367.6624 427.7774
1368.5564 430.48956
1370.5835 427.9616
1371.9437 427.71643
1372.0897 429.5399
1374.5162 430.04257
1374.8582 431.43732
1374.1418 431.23288
1373.9747 431.4958
1374.2651 432.242
1375.4365 433.82452
1372.3912 433.7357
1371.8397 433.12827
1370.1814 432.90182
1369.0337 434.83276
1368.2588 436.08334
1367.9485 436.14655
1367.1042 437.35602
1367.1165 437.6413
1366.5698 438.97394
1365.8846 441.11862
1365.3958 441.40387
1366.2124 442.8319
1366.5061 442.98743
1365.6627 443.047
1365.9648 443.90808
1366.0193 444.04745
1366.4985 444.4913
1365.4084 446.3277
1364.9146 445.91418
1363.5546 447.08676
1362.8259 446.57324
1358.9519 446.77197
1357.1036 446.5963
1359.5388 443.85516
1359.9279 443.9768
1361.7539 442.73462
1363.4565 443.11996
1361.3816 442.50754
1360.383 442.4161
1359.0426 440.7453
1356.8477 440.00482
1356.595 440.80994
1358.9365 442.2741
1358.6431 442.96106
1357.5134 442.8298
1357.1274 443.20917
1352.9896 443.40353
1353.2151 444.78757
1351.29 446.1488
1350.6458 445.8635
1349.9924 446.1609
1348.9263 447.15878
1349.2312 447.51328
1348.7461 448.79565
1349.0604 449.18463
1350.5886 449.8667
1351.5933 448.96185
1351.4862 449.9006
1350.675 450.86874
1349.6885 450.8681
1349.8408 451.93652
1348.9027 453.95392
1348.4777 455.51202
1347.1199 457.601
1346.5319 457.73007
1346.0408 457.55115
1345.9725 457.11337
1346.7068 455.32214
1347.2373 451.52777
1344.8154 449.64084
1342.7773 449.062
1343.7634 448.64682
1344.9594 448.74228
1346.6055 445.99384
1344.5422 446.2732
1342.3708 446.5328
1341.5214 447.38055
1340.6316 449.39227
1339.5798 448.05396
1339.9856 446.56177
1341.3308 446.4515
1339.6367 446.1478
1338.7052 446.35577
1339.7041 445.61383
1339.9144 445.38828
1340.3767 443.1639
1339.0708 444.70728
1336.7418 445.0161
1335.4817 445.8906
1335.7397 446.65817
1336.2131 447.8397
1338.2151 448.84442
1337.2802 451.41766
1337.8743 451.89575
1336.2024 452.09433
1332.3381 450.7573
1331.648 452.67633
1332.4417 454.01764
1333.7578 454.95898
1334.8478 456.85898
1334.7932 457.28125
1336.7649 456.2071
1336.6465 453.1391
1337.0045 452.41473
1338.001 456.73706
1337.9773 457.67834
1337.3892 457.76276
1336.7134 458.64038
1336.4963 458.90283
1336.666 460.38428
1338.0917 463.16794
1341.2247 463.66672
1339.9642 462.80527
1338.4163 461.20825
1338.8721 460.46796
1338.0886 458.80762
1340.7144 458.8756
1341.9412 457.3651
1343.558 461.1722
1342.0593 462.40118
1343.6327 461.28522
1343.8511 461.20444
1344.238 461.3989
1345.4082 463.50397
1346.9048 463.2265
1345.514 461.24902
1346.8138 458.09247
1347.4694 458.05832
1349.3252 457.69235
1349.1875 455.9731
1351.2819 455.25464
1351.9517 454.6183
1353.9917 455.531
1356.241 454.50836
1355.6624 451.43454
1355.553 451.20944
1355.2769 450.05157
1356.0448 449.58264
1354.4812 448.5147
1353.5415 448.93115
1352.2429 448.09442
1351.5208 447.48706
1352.8153 447.28705
1352.8574 446.60605
1354.7922 447.01535
1355.7712 447.57663
1356.8805 448.01974
1359.2445 449.42633
1360.2544 450.11926
1361.0798 448.9795
1364.6102 449.9897
1365.6699 446.80527
1367.3752 446.3004
1368.2761 445.48785
1368.6683 445.2191
1369.144 444.56274
1367.6665 443.848
1369.095 443.7738
1369.2213 442.52695
1369.5298 442.4096
1371.352 440.32288
1371.5603 440.27136
1371.6775 438.15073
1370.4371 437.75793
1369.8823 436.0354
1371.9286 436.10382
1372.7158 437.3397
1374.0385 437.54675
1373.7615 438.10446
1374.2834 439.2774
1373.3048 439.49768
1371.9133 440.3081
1372.5132 441.948
1373.3201 442.8669
1375.2705 442.63232
1375.0781 446.09515
1375.435 445.33264
1377.3181 442.90967
1376.5195 441.52698
1378.0315 442.04224
1377.8993 444.25812
1378.7439 444.06274
1378.9215 443.46478
1379.6987 442.45837
1379.8823 441.4476
1381.072 441.5433
1382.2238 442.37817
1383.6338 442.56305
1382.8479 441.5914
1383.1937 441.2652
1381.315 440.07574
1381.2555 440.0166
1380.6768 441.0042
1379.81 440.94934
1377.49 440.65253
1376.975 439.77844
1376.4937 438.89935
1376.9756 438.84344
1378.8292 436.96994
1377.4388 436.13498
1377.3971 436.03162
1375.9973 435.3347
1377.0432 434.775
1378.0609 435.03204
1378.8748 434.57382
1379.0963 435.48972
1381.0276 436.17224
1380.0461 433.88205
1380.7522 432.23642
1380.667 431.15283
1381.8018 430.35043
1382.5391 431.0002
1384.1681 430.7784
1384.2607 430.89337
1384.1294 432.06406
1385.1749 433.11008
1385.4243 431.11203
1385.2174 428.05103
1382.7426 429.7619
1382.65 429.0774
1380.6906 428.5332
1379.3203 428.1548
1378.5051 425.59735
1378.9312 428.08447
1378.2843 431.67584
1376.1682 429.91846
1375.3069 430.31525
1374.9519 429.8136
1375.271 429.71918
1375.2427 428.5072
1374.2825 427.34424
1374.3491 426.36157
1373.3192 425.86777
1372.1741 425.44284
1371.3684 424.29626
1369.4734 425.0217
1368.918 424.9248
1367.7732 424.25568
1367.3408 424.84152
1367.4121 425.51392
1366.4065 424.8741
1366.068 425.4605
1364.1333 425.69357
1364.7051 424.46225
1365.4248 422.9005
1364.0305 422.43723
1364.8887 419.23862
1366.7483 418.70346
1366.9053 418.1551
1368.7354 420.19333
1368.7588 422.64966
1368.905 423.25055
1369.6179 424.16907
1370.2384 423.73846
1371.2773 424.10992
1371.8132 422.78427
1372.9926 422.9709
1373.1853 422.10144
1373.5681 423.1035
1374.7902 423.6145
1374.4587 424.47803
1374.9159 424.56177
1376.4391 424.4084
1377.853 423.1447
1382.4604 412.72552
1384.589 410.1991
1384.7313 410.0476
1386.8898 410.8829
1387.2695 411.70422
1388.8103 410.37347
1389.103 410.2213
1387.8629 409.4151
1388.7405 407.77844
1387.8226 405.23297
1387.2783 405.45312
1385.0186 407.2779
1386.4001 404.87006
1385.5701 403.7821
1385.7737 403.59262
1386.5452 402.80524
1387.2197 403.90973
1388.698 404.24728
1388.1194 403.76788
1387.4758 403.10034
1389.311 399.29745
1388.7498 398.99164
1387.7432 400.13257
1385.2216 400.0743
1385.4797 397.5708
1384.2942 396.6756
1385.8944 394.85214
1390.7601 394.35507
1390.6361 394.89142
1390.5654 397.49902
1389.8883 398.50717
1392.0358 398.36743
1391.133 396.96457
1392.5236 396.09323
1392.4498 395.85202
1393.5074 395.4127
1394.2305 395.29883
1395.7603 394.96667
1397.2871 395.8282
1394.8103 395.21613
1393.634 394.70493
1394.2 393.7298
1395.9976 392.20172
1399.0615 390.61008
1399.5197 388.85303
1401.0566 391.58566
1399.1436 392.64084
1398.5769 393.35126
1397.6016 395.13684
1398.3889 395.32526
1399.1912 395.72668
1399.8514 395.2005
1399.7618 394.0827
1400.0476 393.43817
1401.3407 395.31476
1402.0137 396.94092
1403.4624 396.75922
1404.945 398.12314
1405.7109 398.3469
1405.8936 395.81104
1405.8923 396.9419
1408.4126 398.41492
1408.1997 400.21307
1408.3792 400.535
1405.8582 400.4594
1406.2908 401.6024
1405.5852 402.90753
1404.2745 402.85007
1404.2429 402.601
1402.29 400.52325
1402.0034 400.44418
1400.6509 398.4924
1398.4456 396.36044
1397.7711 397.09277
1397.4958 398.16052
1398.8688 399.20508
1401.6096 400.65952
1401.6879 401.06503
1400.0978 401.39435
1398.4716 401.52026
1396.502 403.2096
1396.3447 404.0338
1395.4982 404.19452
1394.471 404.0614
1393.4646 402.81854
1394.4865 401.1693
1394.8302 400.37854
1393.4192 399.4078
1392.4764 399.23532
1392.6813 401.07013
1393.0181 401.37115
1393.439 402.80402
1392.5767 404.2494
1392.197 405.47238
1394.0216 406.67413
1394.5107 407.61716
1394.3708 408.15924
1393.9989 410.2237
1393.7815 409.68756
1391.8184 407.21936
1392.237 406.82977
1390.701 405.53925
1389.3901 405.81366
1389.7148 406.328
1391.2021 408.97913
1389.9465 411.11533
1391.0198 410.99667
1393.6621 412.43646
1393.6724 413.20956
1392.2863 424.85455
1391.6586 424.83704
1392.5573 426.92868
1394.0104 425.07288
1394.4459 426.7763
1395.5002 427.74158
1397.0942 425.83472
1397.6384 424.0556
1398.8513 424.56714
1400.6184 424.7644
1401.4161 424.47852
1400.6565 425.79968
1401.453 427.2795
1402.3582 427.95453
1401.9136 428.35956
1402.4037 429.86853
1401.6387 428.5349
1399.4528 426.20337
1399.4622 427.404
1396.7987 429.25555
1396.8964 431.44907
1400.1674 432.73593
1403.363 432.27954
1404.6299 431.90906
1403.8895 429.25372
1404.1406 425.2776
1406.387 427.45148
1406.2576 428.2234
1406.2778 428.2021
1409.2104 427.5465
1407.7778 425.25726
1407.06 425.20248
1407.2719 424.78772
1407.445 423.06796
1408.4181 422.59778
1408.759 420.88934
1407.2836 422.11493
1403.3569 419.64255
1407.4077 420.4603
1407.7949 420.2279
1407.7441 419.3487
1409.3965 417.62387
1409.3298 418.94482
1410.815 421.56088
1410.2994 424.5503
1411.2104 425.34592
1411.9833 425.52097
1414.1016 425.24326
1414.6418 425.65436
1414.1279 424.89032
1413.0735 424.29956
1413.1653 422.76904
1412.368 422.21515
1413.4159 421.7486
1412.7756 419.31824
1410.6798 418.1068
1411.2556 416.79498
1413.8921 416.15317
1413.8689 416.30548
1413.6897 417.37903
1414.3756 419.7296
1414.5137 419.79114
1415.5625 417.5144
1415.628 417.45737
1415.5842 414.96405
1416.6797 413.8733
1416.9583 414.1999
1418.5586 416.2315
1419.7898 417.1523
1421.0088 414.72482
1421.4034 413.4477
1421.6555 412.58054
1421.9473 412.15802
1423.0505 412.54828
1424.0236 411.7025
1424.686 409.8641
1424.5981 409.4371
1423.5205 408.38342
1413.2441 403.662
1412.0627 403.50226
1411.7944 402.48914
1411.2075 402.47226
1409.72 403.80322
1409.7759 403.5227
1409.8712 400.3171
1411.409 397.84726
1411.1943 396.85803
1410.2073 396.24924
1409.5701 395.377
1408.0662 394.35202
1407.8113 394.9154
1405.9246 393.77637
1405.3439 392.6834
1405.0972 392.956
1404.5914 392.79584
1401.5209 393.21567
1404.6606 390.36276
1404.646 389.2779
1404.9863 387.69244
1404.9811 385.15234
1405.1173 384.66425
1405.0769 384.2641
1404.7227 383.7569
1405.6152 383.44055
1406.0629 383.56293
1406.5636 384.67197
1407.5846 385.56235
1407.6254 386.4535
1405.7798 388.3636
1405.2349 389.8182
1408.9717 392.02902
1410.78 390.8064
1410.9456 393.2662
1411.2224 393.7185
1412.03 395.00656
1412.9371 394.67084
1414.7598 395.51645
1415.7538 396.53503
1414.6462 397.77698
1413.9832 397.6275
1413.8313 397.79074
1411.8782 398.04095
1412.8273 398.89508
1413.4026 400.15125
1415.5286 399.781
1414.9186 401.83295
1423.7156 407.4548
1425.8657 405.3387
1428.2358 406.45737
1429.4274 407.94647
1429.3564 407.53455
1430.9054 405.796
1434.3798 406.40613
1434.2676 407.1729
1433.6733 408.76096
1432.3232 408.67636
1432.0405 409.7652
1430.6597 409.87213
1429.0906 409.63263
1427.688 408.23254
1426.0776 409.44543
1426.5382 411.7395
1427.1628 412.28
1425.0544 412.1523
1425.9753 414.2893
1427.5415 414.9129
1427.9766 414.5897
1428.9431 415.56573
1428.7002 415.99792
1430.4042 417.04144
1430.7026 417.5254
1431.6656 417.35324
1434.2421 418.6106
1436.2725 417.89856
1436.8853 416.24188
1437.771 416.7669
1439.0449 415.44037
1440.3937 416.31958
1438.6613 416.39267
1439.1187 419.11774
1439.0881 421.18256
1437.5447 418.72543
1435.8569 418.44897
1434.0132 419.1783
1434.8221 420.16498
1436.1521 420.48047
1435.3237 423.5035
1433.8715 422.73376
1432.4869 423.15546
1431.1653 422.70874
1429.2654 422.22324
1429.4514 421.03195
1429.4352 420.74936
1432.4371 421.61212
1431.7963 420.5725
1430.1145 417.87848
1426.8674 417.5068
1426.5624 420.07953
1426.6514 421.12778
1425.4255 421.76196
1425.1771 421.92712
1423.5403 422.47543
1419.5891 423.9948
1424.6797 421.57727
1423.81 419.24896
1423.5674 418.7921
1423.5422 417.61337
1422.3334 418.483
1421.8467 417.64453
1421.163 417.04248
1419.7196 419.22687
1420.1494 420.43158
1419.2809 421.00098
1418.8169 419.9233
1419.0107 419.20624
1417.9948 418.70016
1418.071 419.02255
1416.6857 420.2649
1416.9082 421.96164
1416.3828 423.60776
1415.5562 423.3375
1414.5627 424.26926
1415.8033 424.45605
1416.0294 424.6399
1416.1311 426.65988
1415.6819 426.53537
1415.1199 426.93478
1414.7878 426.61835
1413.6428 426.91742
1412.2869 427.0702
1410.61 427.99677
1409.9104 430.11072
1407.9087 436.16724
1406.1775 437.08395
1406.692 437.6013
1406.495 439.64862
1407.2803 440.6206
1411.4152 437.80768
1411.419 439.67905
1412.4518 440.83566
1411.6157 441.82812
1410.1216 443.0283
1409.4462 443.70807
1409.1127 444.0423
1409.6808 444.0898
1410.0403 445.48483
1411.3773 447.4502
1412.2036 446.25787
1412.1062 444.63165
1413.0472 443.68903
1416.0592 444.77893
1417.4282 443.72165
1417.3947 445.26135
1417.0201 446.09338
1418.74 445.70477
1420.5576 445.35812
1418.9497 444.03845
1420.5266 442.795
1420.7112 442.33423
1420.9697 442.7287
1421.9474 444.14145
1423.027 445.63654
1423.2776 446.489
1421.8154 448.04358
1420.3253 448.4309
1420.8384 448.42114
1422.092 448.6689
1422.4349 447.8753
1423.3707 446.6722
1425.779 447.69794
1425.5978 446.88947
1427.2605 445.41354
1426.2983 447.02878
1426.7313 447.5825
1425.4601 450.05954
1429.687 455.0028
1431.7778 453.6527
1432.7186 454.6516
1434.7147 453.1809
1435.2776 450.81625
1435.4326 451.56372
1436.5063 453.21997
1437.7556 454.44434
1437.5884 458.16025
1437.9058 459.953
1435.0635 461.04062
1434.2573 459.2119
1432.3428 458.972
1435.0704 458.4359
1435.5494 458.61804
1436.366 459.4642
1436.7369 458.0229
1435.846 456.98752
1435.4966 456.1297
1434.8297 455.95383
1433.3086 457.11838
1432.8439 457.2912
1431.5284 457.52975
1431.0737 456.8315
1430.1539 456.9655
1430.088 456.39682
1428.7273 457.04248
1424.6792 453.19684
1423.5626 453.93286
1422.6001 453.32336
1420.2692 454.1263
1420.4188 452.94482
1418.4263 451.15704
1417.7273 451.11896
1417.2881 450.61334
1415.0061 452.03012
1415.3464 450.8111
1416.5768 450.11252
1415.9241 449.10486
1416.1024 448.18707
1416.8042 446.68573
1416.1423 447.10126
1415.0581 448.24512
1414.4911 449.01733
1411.9529 449.78894
1411.3601 451.71848
1410.7334 450.88647
1407.3291 448.8315
1406.8063 448.92197
1405.0068 449.09247
1403.2019 447.94592
1402.9736 447.1917
1406.1356 445.96484
1406.832 446.511
1408.8098 447.0532
1408.9052 444.60715
1406.0758 442.83057
1406.2983 440.08856
1404.0084 440.264
1403.5022 441.18445
1402.817 440.42737
1402.888 439.42126
1401.6975 439.5905
1402.4536 438.82065
1402.5348 437.34348
1402.3237 436.55902
1400.219 436.55322
1400.1373 437.71295
1399.1204 436.59772
1397.4363 437.99097
1399.1517 440.48996
1398.1719 441.45673
1399.5258 440.66772
1400.65 442.48877
1401.1516 441.99506
1402.2277 443.21368
1402.5923 443.5553
1403.0995 443.2464
1403.3523 443.00494
1403.4951 442.36615
1404.7681 441.6875
1404.9357 444.11688
1404.1274 444.50195
1403.5271 443.88815
1402.2988 444.3608
1401.7025 444.65842
1398.7767 445.31604
1397.3193 444.90588
1395.8381 443.99316
1395.8679 440.98163
1396.5079 440.6938
1396.0703 437.10678
1397.6226 435.65985
1395.731 435.60797
1393.7418 434.93893
1392.1035 434.2124
1391.9338 432.91757
1392.4365 431.9662
1395.5408 431.34787
1395.082 430.47717
1393.3501 429.84735
1392.8053 430.53278
1391.5814 430.0291
1391.1608 429.97455
1391.1661 429.4859
1391.154 428.81775
1393.5398 428.06128
1393.769 427.63547
1390.7383 428.18112
1390.1575 428.08435
1389.9541 427.87677
1389.9463 426.8703
1388.5271 427.8687
1387.9557 428.2916
1387.086 428.84515
1387.5961 429.09717
1389.092 429.16522
1390.272 429.53806
1390.3818 431.62717
1390.2332 433.1798
1390.7251 434.60364
1389.7314 433.14313
1389.0892 433.84125
1388.6403 433.8978
1386.1023 433.47153
1385.0891 436.26654
1386.7731 437.08618
1384.792 436.54138
1383.7389 436.25314
1383.0712 436.24753
1382.8398 439.23853
1384.003 439.3503
1386.8226 440.4565
1387.0367 440.86353
1387.3164 440.44223
1386.4729 438.32187
1387.9526 438.4071
1388.3213 438.03342
1389.7157 438.0013
1390.2974 436.43027
1390.7623 436.97626
1392.7549 439.24396
1392.8191 439.24814
1394.3992 438.01306
1394.5323 440.1333
1394.6493 440.6379
1393.5571 440.75644
1391.7249 439.7678
1390.8827 441.68427
" />
</g></g></svg>
