<?xml version="1.0" encoding="UTF-8" standalone="no"?>
<!-- Created for Inkscape (http://www.inkscape.org/) -->

<svg
   xmlns:dc="http://purl.org/dc/elements/1.1/"
   xmlns:cc="http://creativecommons.org/ns#"
   xmlns:rdf="http://www.w3.org/1999/02/22-rdf-syntax-ns#"
   xmlns:svg="http://www.w3.org/2000/svg"
   xmlns="http://www.w3.org/2000/svg"
   xmlns:sodipodi="http://sodipodi.sourceforge.net/DTD/sodipodi-0.dtd"
   xmlns:inkscape="http://www.inkscape.org/namespaces/inkscape"
   width="3200"
   height="800"
   id="svg2985"
   version="1.1"
   inkscape:version="0.48.1 r9760">
  <defs
     id="defs2987" />
  <sodipodi:namedview
     id="base"
     pagecolor="#ffffff"
     bordercolor="#666666"
     borderopacity="1.0"
     inkscape:pageopacity="0.0"
     inkscape:pageshadow="2"
     inkscape:zoom="0.35"
     inkscape:cx="1600"
     inkscape:cy="400"
     inkscape:document-units="px"
     inkscape:current-layer="layer1"
     showgrid="false"  />
  <metadata
     id="metadata2990">
    <rdf:RDF>
      <cc:Work
         rdf:about="">
        <dc:format>image/svg+xml</dc:format>
        <dc:type
           rdf:resource="http://purl.org/dc/dcmitype/StillImage" />
        <dc:title />
      </cc:Work>
    </rdf:RDF>
  </metadata>
  <g
     inkscape:label="Layer 1"
     inkscape:groupmode="layer"
     id="layer1"> 
     <g>
<path style="fill:none;stroke:black;stroke-width:2px;stroke-linejoin:round;stroke-linecap:round;" d="M 

320.7106781186546 179.2893218813451 320.7106781186551 179.2893218813456 
339.0729412954027 204.7226528699586 295.2773471300413 160.9270587045972 
283.0096917876489 155.7304711740702 344.2695288259297 216.9903082123512 
347.2027270477664 226.9945742460533 273.0054257539467 152.7972729522335 
264.2834089664305 151.1463239765829 348.8536760234172 235.7165910335695 
349.6865992961001 243.620582118118 256.379417881882 150.3134007038999 
249.0420122846878 150.0470629185711 349.9529370814289 250.9579877153122 
349.6218243221094 257.6979427678582 242.3020572321417 150.3781756778905 
235.9626398280558 151.1098260856701 348.8901739143299 264.0373601719442 
347.9207326484677 270.1389867179474 229.8610132820526 152.0792673515324 
224.2063619046534 153.4956837859987 346.5043162140013 275.7936380953465 
344.8966409948779 281.2570306880885 218.7429693119115 155.1033590051222 
213.5352524045031 156.9667099095793 343.0332900904207 286.4647475954969 
340.9037988185093 291.406324135451 208.593675864549 159.0962011814907 
203.7931076991721 161.3667008279792 338.6332991720208 296.2068923008279 
336.0570959337817 300.7017568744544 199.2982431255456 163.9429040662182 
194.8771040788625 166.5928328314006 333.4071671685994 305.1228959211375 
330.4315435880277 309.2183401524312 190.7816598475688 169.5684564119723 
186.7216790282242 172.5795434044932 217.2873588087174 203.1452231849863 
246.8547768150137 232.7126411912826 327.4204565955068 313.2783209717757 
324.0725223815359 317.0014545696704 249.3393121939438 242.2682443820783 
207.7317556179216 200.6606878060562 182.9985454303296 175.9274776184641 
179.2893218813452 179.2893218813452 200.0 200.0 
250.0 250.0 320.7106781186547 320.7106781186547 
317.0014545696705 324.0725223815358 249.5100005277232 256.5810683395885 
193.4189316604115 200.4899994722769 175.9274776184641 182.9985454303296 
172.5795434044933 186.7216790282241 187.5050446525806 201.6471802763115 
248.3528197236885 262.4949553474194 313.2783209717759 327.4204565955067 
309.2183401524313 330.4315435880277 246.6490693167277 267.8622727523241 
182.1377272476759 203.3509306832723 169.5684564119723 190.7816598475687 
166.5928328314006 194.8771040788625 177.2377197248105 205.5219909722723 
244.4780090277277 272.7622802751895 305.1228959211376 333.4071671685994 
300.7017568744544 336.0570959337817 241.8919082232406 277.247247282568 
172.752752717432 208.1080917767594 163.9429040662182 199.2982431255456 
161.3667008279792 203.793107699172 168.6493734671587 211.0757803383515 
238.9242196616484 281.3506265328413 296.206892300828 338.6332991720208 
291.406324135451 340.9037988185093 235.5942579749228 285.0917326579811 
164.9082673420188 214.4057420250771 159.0962011814907 208.593675864549 
156.9667099095793 213.5352524045031 161.521735593387 218.0902780883107 
231.9097219116893 288.478264406613 286.464747595497 343.0332900904207 
281.2570306880886 344.8966409948778 227.86771361959 291.5073239263792 
158.4926760736208 222.13228638041 155.1033590051222 218.7429693119114 
153.4956837859987 224.2063619046534 155.8447098557069 226.5553879743616 
223.4446120256384 294.1552901442931 275.7936380953466 346.5043162140013 
270.1389867179474 347.9207326484676 218.6024748431729 296.3842207736931 
153.615779226307 231.3975251568272 152.0792673515324 229.8610132820526 
151.1098260856701 235.9626398280558 151.8485035096872 236.7013172520728 
213.2986827479272 298.1514964903128 264.0373601719442 348.8901739143299 
257.6979427678583 349.6218243221095 207.4562918323556 299.3801733866067 
150.6198266133932 242.5437081676444 150.3781756778905 242.3020572321417 
200.9579877153122 299.9529370814289 250.9579877153122 349.9529370814289 
243.620582118118 349.6865992961001 193.4483466514913 299.5143638294734 
150.4856361705266 256.5516533485087 150.3134007038999 256.379417881882 
151.1463239765828 264.2834089664304 152.5852479890839 265.7223329789314 
184.2776670210686 297.4147520109161 235.7165910335696 348.8536760234172 
226.9945742460535 347.2027270477665 168.9075253301271 289.1156781318401 
160.8843218681599 281.0924746698729 152.7972729522335 273.0054257539465 
155.7304711740702 283.0096917876487 216.9903082123513 344.2695288259298 
204.7226528699588 339.0729412954028 160.9270587045972 295.2773471300412 
179.2893218813447 320.7106781186542 179.2893218813457 320.7106781186551
" />
</g></g></svg>
