<?xml version="1.0" encoding="UTF-8" standalone="no"?>
<!-- Created for Inkscape (http://www.inkscape.org/) -->

<svg
   xmlns:dc="http://purl.org/dc/elements/1.1/"
   xmlns:cc="http://creativecommons.org/ns#"
   xmlns:rdf="http://www.w3.org/1999/02/22-rdf-syntax-ns#"
   xmlns:svg="http://www.w3.org/2000/svg"
   xmlns="http://www.w3.org/2000/svg"
   xmlns:sodipodi="http://sodipodi.sourceforge.net/DTD/sodipodi-0.dtd"
   xmlns:inkscape="http://www.inkscape.org/namespaces/inkscape"
   width="3200"
   height="800"
   id="svg2985"
   version="1.1"
   inkscape:version="0.48.1 r9760">
  <defs
     id="defs2987" />
  <sodipodi:namedview
     id="base"
     pagecolor="#ffffff"
     bordercolor="#666666"
     borderopacity="1.0"
     inkscape:pageopacity="0.0"
     inkscape:pageshadow="2"
     inkscape:zoom="0.35"
     inkscape:cx="1600"
     inkscape:cy="400"
     inkscape:document-units="px"
     inkscape:current-layer="layer1"
     showgrid="false"  />
  <metadata
     id="metadata2990">
    <rdf:RDF>
      <cc:Work
         rdf:about="">
        <dc:format>image/svg+xml</dc:format>
        <dc:type
           rdf:resource="http://purl.org/dc/dcmitype/StillImage" />
        <dc:title />
      </cc:Work>
    </rdf:RDF>
  </metadata>
  <g
     inkscape:label="Layer 1"
     inkscape:groupmode="layer"
     id="layer1"> 
     <g>
<path style="fill:none;stroke:black;stroke-width:2px;stroke-linejoin:round;stroke-linecap:round;" d="M 
1232.3127 434.67944
1229.8958 436.38464
1233.0513 431.8119
1235.549 433.20346
1238.7839 433.2236
1239.1488 437.68762
1240.1642 442.02707
1243.4382 445.5372
1246.398 446.10373
1249.5624 443.5714
1245.0243 440.08566
1243.5555 435.12717
1245.5559 431.13022
1245.5093 425.38452
1251.2177 424.89417
1257.8367 427.66888
1263.1068 430.37677
1267.7092 429.7563
1272.3154 427.29465
1277.1545 430.9361
1274.0371 436.03467
1272.9087 443.04352
1278.5089 441.85864
1285.0093 442.25757
1289.8721 439.2253
1281.002 438.67294
1282.9014 435.37277
1283.7637 430.27008
1289.707 432.16916
1295.9707 431.62067
1302.0801 430.10944
1307.5004 430.54745
1313.7083 428.71088
1309.6304 434.58533
1304.1969 435.1059
1305.8052 440.0569
1303.761 444.99536
1308.8804 443.5697
1309.666 447.32867
1312.8627 447.55225
1314.1465 450.97934
1305.9781 450.05893
1300.8335 451.89804
1299.2041 446.3607
1301.9004 441.48593
1299.2642 440.07385
1301.1055 437.36493
1298.928 434.4043
1294.0754 436.43958
1296.3146 440.93784
1293.6078 444.76624
1288.625 445.6644
1294.725 450.01105
1295.6035 455.594
1290.4568 453.76862
1287.4072 450.0522
1281.2969 446.55774
1276.5936 448.19763
1273.7365 451.51447
1268.602 449.20053
1263.4486 447.02487
1266.0781 441.3034
1268.0007 436.24692
1260.0874 435.1073
1251.7932 431.69174
1250.0149 438.4455
1255.0199 437.73752
1259.7861 441.17493
1257.8522 446.0882
1253.5952 445.06293
1249.927 448.67404
1253.6196 451.5931
1258.4551 452.40024
1262.9128 455.58704
1266.1311 461.7881
1260.355 462.6124
1255.367 461.82373
1252.3519 457.97787
1248.7827 464.05917
1252.8113 467.51367
1257.4924 469.16183
1252.413 473.83972
1255.4543 476.3921
1258.2526 474.16974
1261.1016 472.48395
1264.1787 474.65353
1265.634 477.9538
1262.2605 479.0879
1259.1293 478.19147
1255.0634 481.27914
1251.025 478.36105
1249.7983 481.90024
1252.4988 485.51996
1254.5883 488.73657
1257.033 492.3087
1259.1229 487.2229
1258.315 482.68823
1262.0074 482.97815
1266.3969 482.63705
1264.1079 487.40863
1268.791 487.60022
1270.6362 491.37738
1263.7648 492.6543
1261.4545 497.1383
1259.6787 502.27734
1258.4368 507.1628
1261.9531 511.40692
1262.9045 514.16046
1264.8694 517.7803
1261.711 521.01166
1268.6008 521.48157
1268.1962 527.33966
1264.1691 531.37506
1262.3472 526.0137
1257.1044 523.2252
1258.8464 517.20807
1257.3514 512.57574
1253.9553 517.1174
1252.0647 520.4433
1247.4124 518.29346
1242.0686 519.88983
1240.4775 526.4939
1246.2898 525.6941
1251.8427 523.7357
1250.7556 527.4939
1246.1812 531.3248
1241.9722 531.8663
1237.1442 533.12836
1235.3716 529.3009
1230.5977 530.06226
1225.3428 528.19946
1226.1407 523.3032
1230.8157 523.2287
1233.7 525.808
1237.2588 522.2955
1232.519 518.36365
1237.3909 515.6106
1234.4454 511.02393
1234.0225 506.34372
1228.9374 513.4209
1224.8685 509.28827
1219.155 504.99268
1218.2291 510.70538
1213.6138 508.26965
1210.772 511.67786
1211.3735 516.1106
1216.695 516.60376
1221.8114 515.2255
1226.3323 518.65814
1220.3615 521.017
1221.3508 525.03687
1219.168 529.9896
1219.1218 537.6339
1212.7737 534.4222
1212.8289 527.6615
1214.4618 521.94385
1207.6677 520.26
1205.3563 512.95654
1200.6931 510.09848
1190.4983 503.0924
1186.1837 498.8542
1185.8853 504.7072
1194.0461 508.20346
1196.6472 515.29614
1201.4316 520.3475
1195.4144 522.61206
1191.3087 518.34766
1188.8062 514.4683
1186.6233 509.6507
1182.2698 513.6925
1179.081 508.0747
1180.7396 501.64917
1183.4058 495.39587
1187.4496 489.70007
1191.8679 491.03427
1189.5121 494.8584
1191.5264 498.37524
1195.6179 500.4957
1199.5862 503.8285
1202.7205 499.60297
1205.5736 503.05432
1207.4807 506.88058
1211.2322 503.31403
1209.1477 497.65308
1205.8547 494.01657
1200.9866 494.13828
1196.2441 494.5816
1196.249 488.92175
1199.7963 485.70123
1204.9254 486.23352
1209.1772 487.8794
1212.8816 490.7043
1214.3706 494.75146
1213.6272 498.78717
1215.7849 502.04175
1219.3033 497.25854
1219.2788 490.84616
1214.2563 483.10474
1209.807 478.77795
1212.5707 473.85275
1217.284 474.35532
1219.3767 477.3358
1220.887 481.27795
1219.6613 485.52472
1223.8711 487.33774
1226.6494 489.99597
1225.7095 493.3165
1224.6703 496.8792
1223.9504 502.19357
1229.2355 503.948
1234.5548 500.8504
1230.8955 497.68246
1230.0645 492.92853
1231.8365 489.92517
1235.0865 488.76514
1234.2168 493.2956
1238.3096 494.1024
1237.9778 498.52637
1242.1995 497.79596
1244.612 494.47302
1249.7664 497.7644
1248.3064 505.31024
1244.0374 502.70764
1238.9917 502.8928
1240.814 508.3761
1243.6154 513.03094
1248.7845 511.32593
1252.9282 512.45685
1253.7759 507.03235
1254.1381 501.6206
1256.2894 496.75275
1250.708 491.5111
1246.0732 489.9906
1247.051 484.70404
1242.5625 486.06085
1238.8336 488.342
1236.0247 482.6433
1239.524 480.51242
1245.1833 478.57635
1243.7109 473.71494
1248.9479 472.2274
1245.9758 468.6285
1240.6611 467.9333
1239.5873 471.19284
1239.2498 475.75864
1235.2805 474.4547
1230.6603 474.82397
1231.6218 479.5189
1232.4147 483.67438
1232.1912 486.4525
1229.6146 488.3045
1228.3602 485.8078
1226.8187 483.45905
1226.1685 480.94153
1226.4414 478.036
1223.889 476.30585
1224.125 472.1181
1228.5552 469.28085
1233.5963 468.40646
1236.1948 464.26038
1233.4863 460.97418
1233.1669 456.17218
1239.0618 457.92133
1240.5714 463.94373
1244.8723 461.235
1243.9576 455.6535
1248.9663 454.60034
1245.7228 450.7368
1240.4587 447.10242
1239.7086 451.7942
1233.9934 451.0556
1229.3638 453.92773
1225.802 451.71677
1222.04 449.63226
1220.8632 446.23444
1224.0189 444.03595
1227.8625 443.7607
1228.1077 448.0332
1232.1078 445.58994
1235.4004 447.89963
1236.9623 445.0689
1235.1936 439.95392
1231.2073 441.02036
1226.6201 439.3469
1225.5394 434.64108
1222.7476 440.16257
1221.5088 437.48474
1217.4785 438.18274
1213.7914 437.13757
1214.8319 441.1494
1212.6621 444.1925
1209.9287 441.7115
1209.441 437.43536
1210.8989 433.97656
1210.6237 430.08813
1212.1603 425.27844
1216.8876 429.17307
1221.9835 428.46127
1215.9067 433.52283
1218.9703 434.62018
1221.8049 433.42938
1227.6952 430.2199
1231.9712 426.96933
1237.2986 428.59457
1240.7195 426.2505
1242.964 419.50168
1237.2566 421.5931
1232.9801 419.74994
1228.3455 418.63702
1225.0707 423.97644
1217.0826 423.59418
1219.2292 418.46713
1211.8677 414.85913
1206.589 409.69305
1201.495 409.25226
1196.3606 405.28607
1197.4431 402.51294
1197.3264 400.05096
1200.9443 403.20807
1205.038 404.13898
1210.919 409.5802
1215.5437 410.75977
1225.5773 413.9054
1220.2205 410.68628
1215.0792 405.2203
1210.1514 404.0127
1211.4532 399.18454
1207.6449 398.896
1204.6611 397.95917
1201.1422 396.82666
1204.9331 392.07553
1200.2264 385.96936
1198.0588 391.51938
1196.6558 396.54028
1192.6128 397.89825
1191.7595 393.9205
1191.8431 389.72174
1193.7297 385.5327
1196.361 380.71283
1192.8921 376.56287
1190.047 379.34875
1187.9382 383.74878
1185.6908 377.096
1183.4497 371.91998
1189.9691 372.1665
1190.7937 367.47632
1189.2959 363.31943
1187.8524 360.16595
1188.9792 356.914
1187.5479 352.64197
1182.7039 353.43835
1183.1559 349.55978
1186.5995 346.69342
1184.6259 341.64655
1186.2388 336.05103
1183.5663 330.78125
1187.3359 325.90088
1185.575 318.96344
1181.1273 316.15564
1177.0509 318.33887
1183.0682 323.76962
1178.4242 324.31335
1177.4484 330.39883
1172.7107 332.8744
1179.1377 337.23685
1173.5442 341.49643
1179.3977 344.67184
1174.8625 347.59308
1178.125 351.39267
1172.9001 351.73865
1170.6708 355.2605
1169.8862 347.03162
1165.6813 349.85593
1166.8531 354.5545
1162.5667 359.5138
1162.7632 355.0079
1158.7639 353.40588
1153.094 352.17413
1156.2559 348.98193
1161.3599 347.67596
1165.8921 344.8252
1167.4993 340.59653
1168.938 336.22144
1165.9901 331.6164
1161.656 330.93573
1162.8408 327.14127
1161.7559 323.27997
1165.6877 322.33478
1167.8345 327.31708
1172.4104 326.16486
1173.0261 321.59592
1168.6063 320.84302
1171.7385 317.5025
1174.0164 313.80328
1178.1667 311.47052
1183.8317 311.8163
1188.6224 313.54852
1186.7559 307.2373
1184.931 302.06433
1190.0339 299.94684
1184.4568 295.8012
1189.715 291.58444
1193.676 284.07803
1190.9977 279.3336
1186.1434 275.62903
1185.6444 269.75238
1193.5018 263.54053
1191.3165 268.27832
1189.954 273.46295
1195.9634 273.92834
1199.6403 267.30225
1200.1292 260.24658
1203.227 252.5567
1208.6892 249.43475
1207.7693 240.47435
1219.8541 223.16045
1211.9214 233.40544
1204.228 245.68878
1199.9463 244.02928
1197.5953 251.89899
1193.6233 256.00272
1188.3777 258.6809
1186.116 263.35254
1182.5697 264.95108
1179.932 267.4015
1180.3667 270.88702
1176.2744 271.79526
1173.8015 275.7453
1170.2118 279.1571
1167.537 284.0284
1172.9241 284.87195
1173.0027 289.6229
1169.2303 289.6712
1164.3241 289.01923
1160.4254 293.44885
1157.539 297.43555
1156.2413 301.27316
1156.9645 304.90848
1155.8243 308.8396
1149.7965 306.4231
1151.7865 312.73755
1145.9624 315.2785
1139.8163 320.01978
1135.2697 327.268
1130.1779 335.08667
1128.5476 342.87643
1123.1859 341.2011
1124.3188 346.46753
1120.2423 350.06378
1119.4749 356.0794
1119.7867 360.87463
1116.3842 364.40414
1113.3859 359.91498
1110.906 364.50647
1106.8918 371.95258
1112.4491 373.1845
1110.3295 368.2514
1115.4054 368.10785
1117.0989 371.2193
1116.3276 375.34103
1119.4807 378.26123
1121.0901 374.3773
1123.9298 378.00415
1126.9384 374.7773
1128.9873 378.06213
1125.1868 382.47803
1127.8032 387.52386
1131.7131 395.26605
1125.1622 398.69672
1132.003 401.0238
1135.7178 403.4204
1138.9211 405.83228
1137.7053 409.60178
1142.3116 409.86542
1146.4248 408.73517
1151.2416 406.57465
1155.2646 411.7136
1158.3794 406.2904
1154.2233 400.14612
1154.7485 392.54773
1148.9906 394.30798
1146.808 400.4256
1141.3436 402.06525
1140.805 394.69916
1135.6895 390.3165
1132.6871 386.05847
1132.1937 381.19138
1133.4291 376.8939
1136.8618 380.12573
1137.568 384.58228
1141.7278 382.24594
1141.2816 375.91037
1146.0402 379.93735
1141.9038 387.98523
1147.1881 387.22272
1152.3434 386.91278
1159.0737 388.87915
1157.1134 383.63535
1152.1412 381.29163
1150.5874 377.1095
1149.5591 373.3645
1147.915 369.1152
1141.6305 369.75903
1136.1721 371.81128
1131.4874 372.50897
1127.4252 370.32117
1123.6182 371.79196
1122.269 368.21967
1122.1735 364.60675
1126.7285 360.54816
1127.0476 355.39072
1125.4382 351.2273
1129.619 348.8676
1131.2023 352.69797
1133.0532 355.95676
1133.9464 359.94543
1129.7787 366.88977
1133.9144 364.566
1137.4236 356.77234
1139.8296 354.83237
1137.2227 352.41663
1140.6228 350.71884
1139.0381 346.88
1134.6926 349.71637
1133.2017 345.396
1135.035 340.94125
1140.194 342.63495
1141.4768 339.3319
1141.8109 335.6117
1137.174 334.47934
1141.597 330.4841
1144.1285 326.73737
1146.5464 322.53662
1150.4528 319.41565
1155.8138 319.32608
1158.6067 313.6136
1163.0063 311.0432
1166.85 309.2273
1162.404 304.40552
1167.8402 302.43732
1164.6833 298.28027
1167.7375 294.28967
1171.4945 299.72607
1172.5828 303.70944
1172.6276 296.70306
1173.2388 293.42468
1176.749 291.86212
1176.7291 288.1764
1179.31 285.23068
1176.6398 281.867
1177.1392 278.55878
1179.8987 276.41693
1182.4124 274.17468
1185.7334 279.78952
1182.1067 281.2891
1186.6978 285.4317
1182.6013 289.12042
1180.3534 292.6027
1178.2881 296.03534
1176.7701 299.0069
1176.2454 302.47968
1180.6053 301.0761
1180.2722 306.56387
1175.2982 306.9154
1169.6487 306.62366
1172.4252 310.07166
1170.0261 313.4977
1167.5525 315.03555
1164.5927 316.47528
1161.6335 319.01007
1158.0812 324.50183
1154.7305 326.87198
1150.4281 326.42603
1151.4984 331.59537
1146.7472 332.23492
1145.7498 336.6325
1147.1477 340.27042
1144.5145 343.8786
1147.8733 344.22516
1152.9464 340.5854
1149.8254 336.81882
1153.3164 336.63983
1157.6932 337.60452
1155.9331 333.44193
1158.3582 329.60895
1161.6666 334.75116
1162.236 338.98657
1162.1625 342.8923
1157.3583 341.33713
1157.9294 344.99878
1154.1263 344.9664
1150.8011 343.7434
1150.5446 348.1716
1147.7296 350.91586
1144.3796 347.56906
1143.8447 351.4261
1142.4209 354.30048
1147.1917 354.34982
1153.2755 357.10007
1148.2997 358.202
1144.4526 356.87985
1141.8746 358.44614
1138.8794 360.9907
1141.2422 364.72763
1145.3547 362.0349
1149.5927 363.27246
1153.9158 365.30417
1158.0603 362.26437
1160.5083 369.80823
1155.5785 371.54208
1156.8729 377.40662
1162.3524 376.28842
1167.0735 374.65167
1166.9226 370.06146
1164.4003 365.43564
1169.2582 361.85754
1174.0825 358.15683
1172.4918 366.65588
1172.0785 370.5691
1176.7832 363.817
1178.921 359.82333
1179.6577 355.79868
1184.0916 358.06165
1183.1216 363.05197
1184.3511 367.35898
1178.4271 368.39938
1177.7789 372.50665
1180.935 377.37494
1182.8682 384.33252
1181.6669 389.91675
1177.7251 382.68164
1173.4158 379.79916
1176.4191 376.63025
1173.3486 373.64093
1170.5587 376.3874
1171.0311 384.81842
1167.6637 380.65747
1162.3447 382.34625
1164.8865 387.34076
1162.9923 392.85748
1159.6614 396.0625
1160.9948 400.9271
1165.0696 404.44537
1170.0742 406.50592
1169.6655 400.96664
1166.2805 398.33936
1167.3315 393.57935
1170.1915 390.06232
1175.7766 388.5273
1172.279 395.39233
1172.9026 401.6523
1176.25 397.95917
1177.7921 393.81555
1186.9004 390.51324
1183.0424 395.47336
1185.1936 400.08276
1188.2166 397.13132
1192.3087 402.09167
1188.0565 404.89136
1183.2635 404.6605
1178.8491 406.11032
1180.3457 400.33337
1176.3636 401.08215
1177.3785 403.443
1174.3457 405.52106
1175.953 410.57
1173.3854 415.19797
1172.2792 420.458
1168.2965 424.6303
1174.1886 427.049
1170.932 430.3244
1164.7877 429.19977
1161.1758 425.8366
1162.4119 421.56317
1166.3668 419.18005
1166.665 414.79318
1170.4373 410.9312
1164.3186 409.80908
1160.36 414.76184
1156.5996 419.82336
1152.59 417.16528
1148.6426 414.1242
1143.5614 414.8346
1139.2457 413.94946
1135.1567 412.89246
1131.1514 412.33783
1127.5352 412.60324
1124.6893 415.45578
1121.7263 412.16144
1122.0728 408.27185
1125.2025 408.9533
1128.8068 408.56055
1132.6893 407.48312
1127.4393 404.40576
1122.2786 403.96567
1119.5614 399.88425
1114.4498 398.07208
1117.9753 394.6179
1123.7837 392.2744
1119.2778 387.35217
1118.76 383.10907
1115.0962 380.0088
1110.151 376.8581
1105.4923 379.0954
1101.5687 382.08142
1098.5676 387.78516
1096.3071 394.72006
1094.9401 399.60394
1097.3729 404.17844
1102.1299 404.2691
1105.9548 402.1522
1101.0648 399.35675
1104.1028 395.45493
1100.297 392.49713
1104.3713 388.493
1109.6641 387.1627
1110.9844 382.54724
1115.7413 390.0166
1112.3177 391.81305
1109.3175 394.016
1108.5345 398.1468
1110.5629 401.80145
1115.193 403.00507
1118.3967 406.8357
1117.126 410.95697
1118.5897 415.95367
1120.7747 420.43066
1125.5759 421.27142
1129.4553 418.8095
1132.7827 416.81223
1136.2117 418.3911
1138.4934 421.18893
1140.999 417.49094
1142.4347 420.02295
1145.8005 419.2083
1149.6932 421.42737
1148.2273 425.07675
1152.504 429.95386
1155.7367 424.75537
1158.9279 430.0979
1156.5253 434.65442
1147.3276 433.85016
1146.2888 428.59067
1142.0754 431.68896
1141.6768 426.85907
1142.2542 423.2003
1137.621 426.75964
1134.0162 423.82385
1129.9668 425.74377
1125.2898 427.7539
1121.0332 426.11035
1116.4358 423.43298
1113.433 419.77292
1112.6306 414.84955
1114.049 412.35004
1110.2098 416.48984
1108.6962 419.07776
1105.5326 419.69724
1102.6494 418.64352
1103.4009 415.16522
1107.227 414.4273
1110.2285 410.4873
1113.8763 407.55267
1110.3981 405.8086
1106.2094 407.00925
1107.0028 410.73407
1103.3864 411.35712
1101.5178 408.21442
1098.3645 409.68646
1098.459 414.0567
1097.6263 417.14682
1094.1233 410.46777
1091.4243 405.7157
1090.5211 414.57904
1086.6453 420.5821
1091.1353 422.78778
1087.1349 429.34064
1092.2502 431.32733
1095.8138 434.17133
1087.8494 436.24878
1083.9822 438.39816
1080.776 441.51428
1083.0393 446.03268
1080.4552 451.5377
1081.8606 456.0542
1077.1155 460.4713
1079.9205 462.13367
1081.787 459.7788
1084.2123 463.43588
1086.8334 459.7944
1089.9784 456.69806
1087.64 451.22437
1089.7347 445.16638
1093.5212 440.19836
1100.1211 435.99448
1099.8375 431.38824
1101.2665 427.6593
1095.9396 426.5394
1095.263 420.6275
1099.3103 420.41522
1101.1404 423.04294
1104.4326 424.75778
1108.3395 423.23016
1112.0593 426.36603
1106.1683 428.01596
1104.5974 431.90292
1106.5145 435.10504
1109.2574 430.94696
1113.6965 431.29672
1118.5197 430.25067
1120.1461 434.27252
1120.4952 438.83884
1115.6656 440.6353
1115.7684 435.89355
1111.1693 436.94504
1109.8806 441.7489
1104.9731 438.5953
1102.9994 442.2445
1098.8433 440.62024
1100.3739 446.58112
1095.1646 448.56018
1095.1481 455.33313
1101.8696 457.82825
1101.2252 452.24347
1106.802 453.26767
1105.3909 445.9188
1108.709 446.83337
1110.7063 449.472
1114.4001 445.8551
1118.8911 444.21765
1123.5664 444.78546
1127.9902 447.8578
1129.721 442.6272
1134.9598 442.662
1131.8892 436.79257
1125.2316 440.17834
1124.8502 435.93567
1125.3458 432.3784
1130.0247 431.4266
1135.4116 431.31403
1138.9725 435.76874
1141.2218 440.35376
1148.7378 438.79486
1150.6317 444.9287
1156.1982 440.28183
1162.3722 436.24094
1167.5504 433.70337
1168.4797 439.51257
1164.0175 442.96838
1159.3088 446.68332
1159.2534 451.63556
1153.1678 451.04245
1147.034 451.78802
1143.5421 446.7271
1138.5646 447.0645
1134.8777 449.16425
1131.9177 451.7137
1137.6912 454.3325
1142.1085 456.81454
1147.6562 457.5301
1151.8555 459.0188
1155.5491 460.94345
1158.9408 463.297
1163.139 460.61423
1156.7037 455.88037
1161.5481 456.20972
1165.9869 453.7872
1167.5967 448.9975
1172.6306 445.14084
1173.6296 438.45013
1175.6924 434.21375
1179.2793 431.16754
1184.2393 430.3277
1187.3724 427.47998
1179.5723 425.1168
1178.3203 420.72485
1180.9498 416.7899
1180.7404 410.34055
1185.3804 410.53876
1192.1211 407.45685
1196.9208 409.44403
1203.6794 414.5216
1206.6338 418.7771
1211.8676 419.99487
1202.4557 423.3676
1196.7351 424.87445
1196.2544 420.7954
1200.0488 418.63843
1196.8204 414.69443
1191.7104 412.15598
1186.855 415.30884
1191.0413 418.2718
1187.0446 421.91782
1191.872 424.63425
1193.5309 428.70038
1195.2013 431.4239
1195.5974 434.87115
1199.4967 437.45325
1200.8347 429.6649
1206.7595 426.009
1204.7042 433.32407
1205.333 438.40295
1201.6488 441.6843
1205.4275 443.00452
1207.1882 446.32773
1209.3016 450.51706
1212.7402 448.05902
1215.632 446.45654
1218.8762 441.1407
1219.5365 443.54608
1217.9451 446.91257
1216.7437 451.88745
1213.319 455.38632
1217.234 460.7806
1222.7869 456.39072
1227.4435 462.16342
1222.114 466.02527
1216.6494 467.99146
1211.6798 467.92624
1208.2455 465.15497
1207.0981 469.29626
1206.2987 471.99866
1205.5367 475.2528
1204.4724 480.31833
1200.3779 479.2286
1200.5494 475.45764
1201.9623 472.60434
1202.1912 468.4453
1199.6696 464.5208
1194.8398 460.41
1199.7318 456.80536
1204.068 462.13904
1209.6853 459.77
1205.2709 454.7118
1202.7688 449.61423
1199.4219 447.71167
1197.2845 444.3064
1194.7932 440.21472
1190.4661 436.2166
1187.4938 441.74646
1185.0051 435.904
1180.6696 438.645
1177.5171 442.4912
1182.524 443.8407
1179.084 448.37805
1174.0073 451.77145
1171.7678 457.546
1167.5681 459.02414
1167.1451 463.27478
1167.888 466.6787
1167.4921 471.1677
1162.0356 474.135
1167.3657 477.16074
1172.2083 479.03613
1174.4443 475.0774
1173.0345 471.84894
1172.7295 468.02927
1171.9956 464.21677
1174.8809 461.4582
1177.6201 465.63977
1180.6721 470.02646
1179.8125 473.96323
1184.1912 467.1264
1188.0571 466.38593
1181.8474 461.44287
1178.2352 456.80243
1183.4409 452.90833
1185.2915 447.35544
1189.3099 448.3495
1192.545 444.2385
1194.0486 449.65195
1194.2693 454.11105
1188.9573 455.89368
1186.5443 460.11105
1190.4009 463.07764
1192.5741 466.4745
1196.2788 465.88632
1195.2603 469.48602
1198.4884 472.25067
1195.0386 472.5808
1191.9084 474.88843
1188.5706 471.3468
1186.3187 476.40112
1180.5927 478.31467
1176.9701 478.12753
1184.3159 480.6189
1192.0258 479.25168
1196.6361 476.8545
1196.3641 481.91187
1190.6993 484.1925
1184.6147 485.32843
1182.5237 490.56024
1178.1783 489.9099
1177.513 486.17194
1180.1626 483.15707
1176.1688 481.93735
1173.012 484.21567
1168.8396 483.9455
1164.2517 484.6338
1161.3662 480.59644
1156.3422 477.60934
1155.738 473.33826
1163.3032 467.5615
1158.7308 468.44366
1153.0189 467.84015
1146.4188 462.58762
1146.7593 468.208
1148.9426 473.89282
1143.9961 476.20102
1141.8086 480.76788
1138.1531 478.8709
1134.0272 477.23422
1130.9568 473.72882
1126.2577 468.9907
1129.2574 464.18634
1133.4719 468.20847
1139.3861 472.1113
1140.8555 465.8248
1137.2162 462.4781
1133.6554 459.8178
1130.6113 456.51877
1127.7084 453.6042
1122.8334 456.55066
1124.3386 451.98972
1121.3445 449.18576
1117.7397 451.78143
1113.5986 451.4492
1112.214 455.9275
1117.6846 457.22284
1118.5908 461.1281
1126.9928 459.81964
1123.3015 463.8415
1118.8722 465.91827
1113.1561 467.95886
1114.9338 463.75665
1111.323 461.94885
1107.5825 459.19952
1104.1484 462.24365
1105.275 465.46252
1106.4359 468.3499
1109.2805 470.11386
1111.9447 473.41772
1109.3077 478.4836
1105.519 474.6681
1103.1632 471.73834
1101.6014 469.20236
1100.4061 466.19092
1098.4069 463.55612
1096.849 459.9569
1092.6268 463.49155
1087.5801 465.7994
1090.5452 468.3089
1093.2035 471.50708
1095.6365 467.86127
1097.9346 470.48373
1099.5284 474.48096
1104.8256 481.50912
1112.1775 482.95724
1115.8416 487.43063
1118.7977 491.34625
1117.7628 495.921
1113.4047 496.6317
1112.3987 492.5765
1109.857 487.60776
1108.308 497.222
1102.8815 496.49268
1096.8336 496.0339
1100.3037 491.02182
1105.7207 489.8897
1098.8081 485.55743
1099.3462 479.87543
1094.1141 476.83142
1087.9784 476.10422
1087.3617 471.75452
1082.993 468.37436
1078.6399 466.79773
1080.2874 473.01144
1079.9357 478.717
1078.7894 484.68964
1081.3578 488.02057
1084.5425 491.20367
1087.43 486.46457
1086.3148 480.8694
1092.6395 483.48715
1093.4747 490.47775
1090.7869 496.52548
1087.8794 493.04123
1080.5135 494.67188
1086.1046 499.601
1081.3845 500.95712
1082.2369 506.8667
1084.822 512.58386
1090.5333 512.30664
1087.5762 518.2716
1089.9073 525.289
1094.1337 531.62805
1098.6343 531.16174
1099.782 538.4791
1106.5953 544.99243
1114.4253 544.84326
1120.5908 544.9204
1121.2411 538.57306
1114.5308 538.8535
1107.4806 536.8048
1104.0859 531.8701
1101.2577 528.5351
1101.6831 525.1184
1097.245 525.1891
1093.9956 522.52356
1093.5975 518.08435
1094.8228 511.30038
1095.1184 514.9631
1098.9818 519.79663
1100.8545 515.92786
1104.6815 513.8898
1103.74 508.39145
1100.9318 509.79285
1098.3854 512.6537
1097.5647 508.18213
1094.9598 505.8504
1091.186 507.56015
1086.783 506.3897
1090.3169 502.53235
1094.338 500.86365
1099.1324 502.52576
1104.1962 501.17035
1104.9827 505.0047
1109.8816 504.0976
1112.1244 500.55457
1115.3148 502.06622
1117.5499 506.47638
1121.2406 505.5533
1122.94 502.16315
1118.8326 501.40573
1120.6702 498.14215
1123.0646 496.28552
1124.466 499.15268
1130.0062 496.4311
1129.3507 499.9056
1126.8975 501.76306
1125.725 505.71796
1128.4114 509.5372
1131.3715 505.04987
1137.2262 507.32532
1135.4923 502.95093
1134.9432 498.5814
1132.5505 496.09103
1136.459 492.58505
1131.9106 490.38324
1127.8165 487.10995
1127.0394 495.2463
1124.2054 492.0594
1122.019 486.02426
1118.7651 480.97678
1114.8442 476.5844
1119.8333 475.3205
1119.3529 470.31967
1125.084 474.28088
1126.1742 480.09555
1131.9913 482.7215
1136.5938 485.54745
1141.3298 485.883
1141.5813 490.9538
1146.3422 493.1977
1147.5308 498.6778
1143.6104 497.3083
1139.3898 497.44537
1140.1433 502.51642
1144.4618 502.42902
1150.3943 503.12534
1147.268 504.91504
1142.4868 505.93298
1145.0503 509.04608
1141.7426 509.57684
1138.8167 511.7445
1133.5946 511.94275
1129.9231 516.5315
1128.2219 522.0648
1131.6584 522.8574
1134.7607 524.71924
1132.4733 527.645
1131.17 529.64905
1129.841 532.7813
1126.3345 529.1675
1124.8508 525.2445
1124.6576 519.0011
1125.6108 513.5392
1121.7604 509.96283
1121.0378 515.169
1116.7867 512.40625
1113.6985 508.2857
1108.3174 509.1147
1110.0166 512.7431
1113.0444 515.43445
1117.0449 517.8301
1121.1394 521.5484
1116.8268 521.88666
1115.0068 524.9027
1110.3579 524.03925
1111.4504 520.1284
1107.6687 517.5366
1104.234 521.1681
1106.4375 526.1278
1109.721 529.56854
1112.8861 533.2381
1117.777 533.407
1114.7742 528.6748
1119.8204 526.6449
1120.9236 530.59045
1124.1855 533.42584
1126.205 537.7562
1130.3909 537.77625
1133.5902 536.2176
1136.4667 534.31476
1137.2773 538.99475
1134.3195 542.1802
1134.3915 547.1924
1139.5775 544.2049
1146.4852 544.5473
1150.5751 540.6123
1147.9961 537.223
1152.4418 534.282
1155.1564 537.1736
1154.9034 542.2107
1152.03 546.41046
1148.874 550.14856
1144.4314 549.0069
1140.3351 548.42786
1136.885 551.1963
1132.3394 552.49243
1126.8176 552.6606
1129.9537 547.0082
1128.6246 542.2029
1125.0491 545.6704
1120.4824 550.76245
1114.2224 551.8544
1120.1116 557.72656
1126.315 565.70337
1126.2118 559.65045
1132.4421 556.78424
1134.9088 559.7816
1132.894 563.0321
1132.9707 568.5039
1139.3951 564.10925
1139.7643 560.5862
1138.053 556.5465
1141.8079 553.5553
1143.8157 557.78894
1145.3566 561.254
1143.009 566.5062
1137.6732 567.53577
1139.2408 571.9496
1143.8575 571.74084
1147.1722 569.50793
1149.138 575.2943
1154.9863 575.57825
1160.7681 577.1987
1164.836 579.61804
1168.9336 578.2355
1172.9125 577.0236
1177.07 580.1593
1183.9117 580.72125
1190.6262 580.2124
1194.016 575.12604
1190.1686 571.86316
1192.8341 568.8147
1193.2092 563.7012
1188.2253 566.32837
1186.6893 570.99
1184.2521 574.424
1179.1658 575.7258
1175.6031 571.2689
1181.4436 569.8323
1181.4963 565.87524
1180.2823 561.4229
1183.698 557.8567
1187.4766 561.89417
1191.1687 555.8397
1187.9664 556.5584
1185.2048 552.7953
1180.3861 550.5736
1183.604 547.1686
1187.1118 544.9847
1189.878 542.67596
1183.7872 541.3342
1179.5115 538.94604
1186.2325 536.2799
1189.2396 532.01385
1185.2935 529.933
1184.2103 525.9496
1180.8209 524.5029
1178.2261 523.0755
1180.0193 529.80817
1178.6605 533.6277
1174.3828 536.3359
1173.6357 541.3782
1177.7067 545.2439
1174.3611 550.46674
1178.5059 555.5963
1175.02 561.77704
1175.5214 566.09155
1170.5139 564.2915
1167.6885 566.84094
1164.3654 568.77734
1170.7024 571.7071
1165.9469 573.1641
1160.9983 569.69
1159.2201 572.8688
1155.6425 568.62537
1151.3151 570.5741
1150.2722 566.17365
1146.8778 564.18896
1152.1193 562.918
1157.0184 561.70776
1160.0862 565.5656
1163.2815 562.40454
1164.7272 557.47595
1168.2198 560.0996
1173.1549 559.2053
1173.1895 555.598
1168.8259 554.275
1168.5637 549.73975
1170.8876 545.63763
1168.5604 540.0962
1162.3002 539.5094
1164.2261 542.6225
1165.194 546.28796
1163.5669 551.588
1159.7606 555.6827
1151.4677 558.48694
1148.2153 554.71094
1154.5448 553.8143
1156.9398 549.3617
1159.3676 546.5577
1159.7839 543.29785
1158.2333 539.77203
1158.4707 535.2561
1161.891 534.2461
1165.7166 535.55585
1169.592 533.9933
1172.6449 530.4519
1173.1458 526.13855
1174.9746 521.6107
1171.2079 520.697
1170.3059 517.1342
1165.4586 516.58606
1161.1337 516.7
1165.6265 522.9796
1164.7501 528.75684
1157.8654 524.09045
1157.3472 529.6113
1150.2731 529.26935
1151.5897 522.6001
1146.4287 523.1323
1143.0975 526.5267
1144.0969 529.4897
1144.5536 531.6937
1146.085 533.27576
1144.8271 535.9956
1144.3486 540.96643
1141.1046 539.3269
1140.733 535.64075
1140.2795 531.88495
1136.2145 530.78424
1138.1241 527.0409
1139.935 522.1135
1135.5803 518.4401
1140.1027 515.63116
1144.5061 518.0644
1146.0106 513.4309
1148.4193 509.3625
1151.7495 511.7911
1150.766 516.72107
1157.1483 519.03955
1156.4442 514.05756
1155.8667 510.0542
1151.754 507.00778
1155.867 505.50452
1156.7026 501.6225
1151.5367 500.39404
1152.6807 497.22214
1150.1028 495.82196
1151.7393 492.8171
1149.9335 490.00244
1148.1383 487.1064
1145.3901 483.91095
1147.9983 480.36493
1151.6346 480.61127
1155.1436 481.93695
1156.9199 485.2984
1154.5692 489.0561
1156.2114 493.86288
1155.7998 497.8166
1160.1449 497.7251
1164.4905 500.63593
1161.928 504.61163
1159.8141 508.41684
1162.0874 511.75433
1165.9409 509.97717
1168.0736 505.4997
1169.0267 501.08176
1168.9833 495.10715
1163.8488 495.15894
1160.2694 490.00278
1166.0175 490.1798
1172.1321 489.25238
1173.8738 493.99387
1178.2463 495.90503
1173.205 499.0893
1174.931 503.62146
1172.034 508.70886
1169.982 513.1131
1174.8386 513.34827
1177.9198 514.95215
1177.7478 518.57745
1182.5398 518.92926
1185.694 521.00134
1189.27 522.1247
1189.9011 525.8179
1193.8029 528.7505
1194.0789 534.7535
1199.5896 528.18726
1206.1879 526.2614
1205.8948 532.0631
1200.1957 535.1556
1198.8137 541.0331
1193.0903 540.4869
1196.146 546.52734
1188.9683 549.1961
1192.503 550.5205
1196.1235 553.0563
1194.676 558.2108
1197.2987 562.3176
1200.6703 560.0471
1201.6683 555.3176
1206.5739 559.63556
1208.8925 551.1538
1201.5015 550.0426
1205.1456 544.972
1206.2317 538.5864
1212.6224 541.1124
1214.3435 545.7528
1218.2844 548.14734
1218.6854 552.96185
1212.3184 556.2862
1217.2406 558.7481
1215.2699 562.3672
1215.292 566.63226
1211.1945 571.8146
1208.6575 566.2256
1202.9332 565.74817
1199.7219 568.0997
1196.0842 568.8245
1199.3638 572.92596
1203.4941 573.50903
1206.7511 576.4256
1201.4127 578.7328
1197.6425 581.91425
1205.78 582.433
1211.8475 584.66187
1211.5022 578.2473
1216.8578 581.49866
1216.94 576.31805
1218.1182 571.6932
1220.646 567.8809
1221.933 563.9989
1223.6971 570.4433
1224.1936 574.011
1222.5815 577.4328
1222.5394 581.92993
1227.7024 579.4663
1231.951 581.4781
1227.7891 574.7992
1228.713 571.63293
1230.494 569.2499
1226.6809 568.16266
1225.7368 562.11237
1224.2944 559.27765
1221.3616 557.1882
1227.2687 555.9431
1230.8325 554.4104
1224.1045 553.26953
1226.2808 550.75195
1224.8235 547.605
1224.3062 543.3646
1230.8353 548.0352
1236.5154 549.2855
1232.1682 543.42395
1225.6708 538.38934
1226.4391 533.3717
1232.9064 537.13684
1237.1844 542.07043
1240.8843 537.58276
1241.6277 544.0658
1240.6234 548.41437
1241.228 553.36597
1237.1288 554.37775
1233.6931 552.3064
1238.6299 557.41016
1235.4862 558.723
1232.6713 559.67426
1229.4125 560.1875
1227.538 564.7052
1230.8975 565.2423
1233.3633 567.87146
1234.6102 563.8679
1238.1592 566.70044
1238.7977 562.16284
1241.942 559.8994
1244.3586 557.88153
1250.3268 558.0237
1249.2323 561.20215
1246.5964 563.0701
1242.4575 564.94055
1242.6672 569.3028
1239.8367 572.07886
1236.7958 571.8733
1235.5365 569.38806
1233.0259 572.50183
1230.5543 574.71356
1232.1362 576.9762
1236.0894 575.38257
1235.6222 578.92896
1239.5966 580.1963
1240.4973 576.6133
1243.8109 574.3042
1248.5042 566.8638
1247.9957 571.7634
1246.5547 577.9237
1252.5992 576.11145
1254.7897 570.0832
1254.8528 563.53265
1254.3152 557.07697
1251.4357 552.9739
1246.8435 555.3788
1244.9164 551.97485
1246.219 547.0702
1248.2214 550.4984
1254.6287 550.0531
1250.9283 547.1564
1245.965 542.84784
1250.2341 541.4528
1254.1307 542.4438
1254.8903 546.3574
1258.0106 543.7723
1261.706 541.52264
1258.3992 538.4955
1254.1224 537.2255
1246.1597 537.8906
1250.6426 533.8978
1255.418 528.1158
1257.2168 531.55646
1260.5643 534.29675
1264.068 537.37726
1266.8135 540.2296
1270.6927 537.80664
1268.4916 533.917
1272.605 531.3909
1277.1409 530.87604
1280.6675 528.9277
1274.7203 525.0051
1277.434 518.25824
1273.2937 519.0275
1271.4042 514.348
1267.4365 514.4021
1267.5001 510.60703
1269.9132 506.7048
1266.7156 507.31317
1262.4739 508.5791
1264.0796 504.9746
1264.7556 500.7436
1268.5181 497.3618
1270.4609 502.87158
1276.6478 504.39276
1275.1481 499.3154
1281.2422 498.8869
1287.4801 498.5645
1285.405 502.84534
1282.278 504.20642
1280.6799 506.56516
1276.2484 509.55246
1272.4325 508.92242
1276.697 513.7289
1281.2281 509.40463
1285.7244 509.24838
1281.4119 512.73193
1282.5356 516.67365
1280.6611 520.4566
1281.2651 523.72437
1284.3732 525.99805
1288.7776 526.16846
1285.6124 530.31055
1282.4464 534.63684
1283.9124 539.05035
1276.6067 536.31415
1273.4648 540.8607
1278.2512 540.906
1281.2877 544.4234
1284.045 549.1899
1280.653 552.8662
1275.0497 556.4591
1279.1293 557.687
1283.4934 557.4934
1286.5262 554.14526
1289.8583 552.2036
1289.3969 558.43353
1285.504 562.12476
1280.5703 562.2522
1276.2317 561.64417
1275.271 566.199
1270.0486 567.3341
1271.0901 560.485
1265.997 562.01825
1266.4312 555.96985
1262.9827 552.49316
1265.8931 548.7152
1269.9828 549.58636
1271.2986 553.7016
1276.2366 551.97284
1276.8287 548.341
1275.907 544.60815
1272.377 546.2196
1269.3804 543.71
1265.1511 544.17755
1261.5731 546.43054
1259.0582 549.31287
1257.4746 553.2091
1259.2512 556.7891
1260.7164 559.6884
1260.7374 563.47595
1261.5294 567.40045
1259.8468 574.6314
1264.6277 570.50946
1267.8074 573.7222
1274.032 572.3887
1279.0103 569.1997
1283.0522 571.3857
1282.7052 565.9643
1288.1914 568.2825
1289.2797 564.7236
1292.978 561.9082
1296.3752 565.54407
1302.1481 562.57874
1306.2286 559.2471
1312.8384 560.42017
1310.7056 555.8205
1310.02 552.1197
1309.372 548.4606
1314.1348 551.36536
1316.1935 555.9456
1320.0984 558.71204
1326.8025 556.1533
1322.74 555.2425
1319.2673 553.66144
1318.9811 550.15784
1322.684 550.781
1326.3359 551.64856
1331.1097 552.83344
1334.3658 549.4533
1339.2869 551.6177
1342.0177 548.19714
1346.5413 548.1855
1349.7523 544.4873
1355.3904 542.7705
1360.8005 539.6568
1368.1658 537.7467
1368.6292 532.16595
1363.9258 530.9167
1359.3558 534.2423
1355.3777 532.2246
1350.9751 534.2696
1350.9224 538.607
1345.2274 538.0361
1344.9141 542.5027
1341.3141 544.1376
1337.7628 546.84424
1336.6633 542.56384
1340.2609 539.4275
1337.012 536.3167
1336.938 532.07104
1332.0507 532.4159
1331.288 536.9021
1333.2815 540.7051
1330.8816 544.65784
1328.4298 547.7621
1324.1329 547.17993
1323.8018 542.71387
1326.5955 541.7151
1328.1812 539.3602
1326.7983 535.2523
1326.6838 530.59045
1336.0538 527.49896
1331.8773 525.9419
1327.4406 524.88947
1325.6743 521.24927
1320.7256 521.48627
1318.1482 516.7002
1310.9125 517.8086
1314.9434 523.3071
1322.7845 526.5053
1319.6094 530.2395
1322.6023 536.17334
1318.5161 537.7019
1314.1318 530.9378
1308.2643 528.4719
1307.3502 522.7134
1301.8351 523.71265
1299.6082 527.85443
1302.8112 531.8362
1298.0747 534.07996
1293.8577 534.87354
1296.1831 539.456
1295.9307 544.0685
1301.9355 542.858
1302.5328 537.4403
1307.494 535.4439
1311.7296 537.2359
1315.5125 540.76
1320.156 544.3301
1317.129 547.0183
1313.6644 547.25195
1312.2725 543.54736
1307.5632 542.42896
1305.3789 547.32654
1304.2377 553.1548
1299.8422 548.0875
1298.6038 552.9005
1297.2212 558.2219
1293.7168 553.90076
1293.8839 548.8279
1290.146 546.37866
1286.3997 543.85126
1289.8873 540.5697
1290.486 536.96497
1288.2405 533.84125
1290.9669 530.2866
1295.2421 530.27124
1293.241 526.31024
1294.6436 523.1672
1298.0793 520.5935
1303.487 517.2551
1297.6963 516.8371
1297.9355 512.92914
1293.4095 510.93445
1291.864 515.0461
1292.4265 519.30347
1287.2808 521.87463
1287.5905 517.76855
1285.9025 513.569
1289.4342 511.48163
1287.7009 505.82053
1291.1785 507.00546
1292.6731 502.72467
1295.9478 507.16074
1300.581 508.08466
1301.9968 502.76697
1297.4409 500.4908
1292.7379 497.08215
1293.034 492.23145
1297.9021 494.11618
1302.1007 497.3269
1302.8768 492.83063
1304.1589 487.07367
1300.0806 489.31012
1296.5431 488.49365
1292.3469 487.41025
1289.0387 485.039
1287.141 491.11395
1281.1633 491.8874
1274.6951 493.97467
1276.0249 486.49835
1271.7319 482.171
1275.1031 476.3186
1270.1508 477.48804
1269.3007 472.89905
1265.0414 471.01328
1263.5281 467.36688
1269.2869 467.50305
1274.3071 470.24158
1275.3147 465.31064
1271.8912 462.5527
1269.7555 456.75208
1274.4911 456.33112
1278.0884 454.67184
1281.2119 455.88422
1282.3623 451.14413
1285.4744 455.52863
1290.1555 459.4342
1287.2084 467.47815
1284.1852 463.74402
1284.9147 459.86838
1278.0182 460.03964
1279.3083 464.08844
1280.0925 468.4544
1279.9011 473.9239
1284.359 471.02094
1286.1857 475.2197
1279.3632 480.51584
1283.7185 483.59418
1288.3687 480.12427
1296.3134 483.99512
1293.4631 480.8994
1291.5568 476.29623
1293.117 471.33362
1291.9072 466.79193
1292.7926 462.791
1297.0892 460.24847
1297.191 465.77936
1299.5688 470.44666
1301.9597 474.707
1296.7351 475.41647
1298.9502 479.82257
1301.1656 484.25986
1304.706 479.72693
1310.6602 478.29095
1308.2736 474.07898
1310.6971 468.571
1306.3118 466.5645
1305.361 470.51013
1301.7124 467.25412
1301.0562 463.4924
1301.826 457.42816
1304.5638 462.10825
1309.3087 463.198
1306.9545 456.5865
1311.4712 454.0517
1311.6648 459.58466
1316.3596 458.95178
1315.7152 465.63864
1314.5856 471.25403
1316.4618 474.71237
1315.8209 479.1096
1320.6989 476.91852
1320.5464 471.136
1323.541 467.45282
1327.7642 471.23007
1324.6255 475.10776
1325.9156 479.18884
1328.8127 482.15317
1327.9797 486.78296
1333.3969 486.2192
1334.9124 490.66122
1333.6299 494.95306
1337.4056 496.909
1342.9573 492.05774
1349.9458 494.5605
1345.0404 499.01733
1344.4907 505.94427
1339.4175 502.0277
1333.5532 502.04282
1328.9817 504.93234
1331.1561 510.43124
1334.0623 507.9572
1338.884 508.17
1337.661 512.48883
1333.8256 513.4264
1329.674 514.2579
1326.4865 510.51523
1323.97 505.9698
1319.56 502.99524
1315.8734 498.0329
1326.8224 499.36493
1328.9187 492.92334
1322.9613 495.38083
1319.2681 491.72498
1323.8785 489.70334
1322.9557 485.3326
1320.8022 481.52917
1317.8639 484.88196
1315.1968 488.2868
1313.0687 483.6516
1308.5161 484.72153
1306.7515 490.672
1310.8538 490.8424
1314.5156 493.22656
1308.4645 496.27533
1307.2595 501.15985
1312.8164 503.93964
1306.6339 506.97174
1305.4576 512.6033
1311.0522 511.15338
1315.5765 511.2242
1319.822 509.53687
1322.3752 513.0974
1324.7207 516.1865
1328.1157 518.2573
1331.5961 520.3193
1334.399 516.17957
1335.3799 519.24567
1337.8602 521.9252
1340.6917 525.994
1341.2725 530.15845
1342.2908 534.51416
1346.306 532.49585
1350.6478 529.74194
1346.1001 527.2339
1350.6587 524.54663
1354.7908 526.20416
1356.3276 520.7467
1359.6202 526.73596
1362.2351 522.8154
1363.4745 518.11316
1368.659 516.25903
1373.8491 517.39355
1373.3516 523.83575
1367.3882 523.24506
1370.0322 527.6702
1373.4819 530.7484
1375.7034 533.8815
1379.9738 534.6096
1382.8954 530.677
1379.8391 526.45886
1378.9263 521.38
1379.7471 516.6588
1383.5486 515.44214
1383.9789 511.00507
1382.1873 507.63156
1378.9183 511.10144
1374.0969 511.72156
1375.5774 506.12115
1370.6924 507.32147
1367.6287 511.09827
1362.7158 512.15564
1356.5063 509.73572
1357.9432 515.49963
1352.0571 517.16614
1347.6946 520.63776
1343.291 522.6841
1343.1293 517.73474
1338.9664 516.27704
1342.9558 512.2086
1348.0349 513.38904
1350.7908 508.46515
1351.7991 502.22076
1357.4945 500.31024
1360.8318 505.18512
1365.8523 505.51086
1370.2463 500.69568
1364.0463 497.73288
1369.4956 493.78644
1376.0746 495.81146
1381.658 497.1449
1377.2456 501.57794
1381.8303 503.8213
1385.4534 504.8012
1387.9906 506.17694
1389.6282 509.9068
1388.2347 514.7384
1386.7372 519.839
1387.2407 524.38184
1387.5594 529.20544
1393.6615 527.8412
1393.226 521.5904
1397.9437 522.12256
1401.8623 523.46985
1404.536 518.8199
1409.2483 521.4469
1409.3345 518.0349
1415.2959 517.0941
1418.2812 512.9412
1413.0559 511.29742
1414.4954 505.67258
1409.1921 507.13486
1410.198 502.45795
1405.2002 501.87158
1409.4341 498.40588
1404.8284 494.1589
1409.0364 493.5243
1413.3547 492.11615
1414.4309 487.28082
1407.2246 487.93866
1409.5759 482.78088
1402.2351 480.77625
1405.9504 477.10333
1402.208 472.16223
1404.4695 466.33777
1410.9688 464.10553
1409.7427 469.86566
1415.8044 470.26025
1419.4556 472.49017
1422.7158 474.05038
1417.908 476.9028
1411.9319 475.7207
1415.8213 481.57944
1421.6304 481.76743
1424.4717 484.76862
1428.3307 485.68097
1429.1964 488.44287
1429.4587 491.2502
1425.6472 489.2527
1420.9874 487.8336
1418.499 491.10822
1416.9984 494.85504
1411.9742 495.49496
1414.4263 497.5669
1415.115 500.9913
1419.6349 497.0578
1420.1713 501.99097
1420.5806 505.6784
1417.6699 508.344
1422.8242 509.77148
1423.4089 515.32874
1428.4402 511.8564
1435.1421 511.43256
1433.2169 508.15063
1429.2863 507.46405
1432.6805 504.59384
1436.8174 504.56317
1439.5206 508.45773
1440.765 505.2805
1441.9202 502.94696
1445.5674 506.5398
1447.9135 502.13977
1452.9943 502.64914
1451.0134 498.0942
1451.5713 492.20374
1446.517 493.28537
1447.8184 488.6446
1453.5778 487.28366
1457.5963 489.79807
1455.3674 496.56958
1459.968 496.33978
1463.6108 489.1515
1461.9246 483.85352
1467.3737 482.43683
1471.7908 484.50986
1469.5605 490.26575
1464.428 494.23254
1467.4672 497.21802
1473.3806 495.95065
1475.2491 491.34448
1476.2957 488.0123
1481.2373 491.91968
1482.2174 487.40662
1486.0334 485.49957
1489.6118 486.29114
1493.5762 486.82947
1494.2794 483.8856
1494.3291 481.07626
1498.1316 483.5575
1498.3539 478.75995
1500.9219 480.11887
1503.6367 481.01654
1506.3529 478.54376
1509.2273 474.79834
1510.8256 470.6889
1512.1056 479.17563
1516.7904 473.79254
1523.144 469.35706
1526.6986 472.70273
1533.2192 468.69415
1538.8447 466.11298
1535.9978 462.186
1533.6772 459.29428
1535.2681 455.3781
1530.3635 456.66925
1527.4714 454.22556
1524.2795 450.7679
1521.0802 451.18896
1517.6145 453.19763
1515.102 456.09863
1511.325 455.2273
1507.4062 454.63336
1506.0017 450.02405
1511.905 448.49835
1516.8346 446.83273
1518.3049 442.45062
1511.7535 438.34262
1515.8853 437.29968
1517.573 432.3399
1516.0702 427.61972
1512.0981 423.90656
1513.1755 418.32883
1505.4197 424.61334
1500.3811 422.483
1497.101 419.15747
1493.4749 412.9841
1491.645 417.86093
1487.9951 420.25336
1482.2758 418.81674
1481.6372 421.90778
1477.7969 419.61896
1477.3606 423.81433
1475.8835 427.40878
1479.2438 429.906
1481.4188 425.63107
1485.0562 427.5335
1485.7809 423.36804
1490.8643 425.07947
1495.374 425.8729
1499.7881 429.49887
1508.7351 430.71664
1506.424 438.21454
1507.9851 443.85898
1500.088 441.31415
1502.8164 434.55856
1497.0543 435.20386
1494.0178 439.8302
1494.0444 446.79697
1501.5232 446.88092
1500.4888 453.4577
1496.9178 451.66455
1496.0768 457.47882
1491.6603 458.17572
1490.7115 452.3554
1483.1317 449.35852
1482.2994 442.62915
1486.9735 444.9951
1490.174 442.03354
1487.1464 437.4203
1491.9574 432.72504
1486.7307 431.2376
1481.2749 433.14365
1482.8425 436.62265
1478.7161 438.89706
1476.5964 434.66232
1473.4414 431.08502
1473.3002 438.58893
1477.3284 444.21616
1474.4537 450.67242
1467.3933 455.6494
1467.7345 461.39777
1469.544 465.5907
1473.237 469.05966
1475.1205 463.77667
1472.749 459.3347
1475.3762 456.67856
1479.463 455.41498
1484.1816 455.19394
1486.7626 458.85617
1490.3121 463.3066
1486.8394 469.10568
1485.8049 464.5002
1480.6307 462.02866
1481.5259 467.88617
1477.363 468.85004
1482.854 472.91132
1487.4221 476.12848
1489.2214 472.53195
1492.1599 469.00156
1494.8691 463.99582
1499.445 466.78906
1501.8036 463.23688
1499.5374 459.91644
1503.2712 455.70245
1506.2661 460.01422
1510.6545 463.00464
1514.5361 460.8719
1519.4948 458.5233
1524.1802 458.3691
1528.7153 461.33063
1530.3079 465.51523
1524.3884 464.0265
1519.4856 463.89117
1515.989 467.4858
1508.8066 467.7906
1505.399 465.8779
1503.6426 470.69772
1503.0275 475.28693
1499.1611 473.61157
1496.781 469.64313
1495.165 473.7989
1491.8865 475.976
1495.0029 478.18564
1491.2167 482.2264
1488.3999 480.26385
1483.4812 478.08826
1481.3003 481.59125
1477.5275 484.92627
1476.5353 481.19125
1477.6436 474.9209
1473.071 478.03717
1466.581 476.29684
1470.4397 472.42493
1465.2433 468.8979
1460.6827 466.71063
1455.7936 468.75043
1453.9534 473.3957
1460.1401 476.4106
1455.843 481.5902
1450.7408 484.02704
1446.0195 484.0056
1449.4766 479.68866
1449.8778 475.909
1447.8722 471.4325
1445.2794 467.60938
1449.1304 465.01825
1453.6041 462.0753
1460.8647 459.9005
1460.531 453.7154
1462.8677 449.3497
1467.9258 449.27563
1472.2426 444.29004
1467.1135 444.0166
1462.5891 443.06268
1460.2107 438.6062
1466.8035 438.73993
1470.1057 434.59396
1461.617 433.59186
1456.3922 433.5594
1451.2434 430.46045
1451.5239 437.3845
1447.372 436.96152
1445.6565 431.65622
1440.9993 430.78613
1442.0565 436.5739
1436.4883 436.76324
1436.5168 431.62668
1439.363 426.39328
1432.8531 425.9437
1431.2087 430.09717
1426.3628 426.8154
1428.4014 423.92188
1422.9872 422.06088
1426.9551 419.89435
1426.0275 414.80273
1421.2765 417.67575
1418.6848 414.16357
1413.2268 414.48724
1414.249 419.4638
1409.4353 422.74457
1407.052 417.68683
1401.1267 418.0
1403.0011 421.2695
1403.9861 424.58667
1404.9932 429.05634
1410.0808 428.5294
1414.0405 425.99536
1418.5779 423.65924
1422.9988 428.8342
1426.1362 434.25293
1421.6052 433.57614
1417.2666 430.59772
1412.9385 434.14508
1407.6604 432.59253
1407.1366 436.7912
1404.6495 444.7066
1408.9202 443.2335
1412.4026 447.47473
1413.5492 443.52792
1412.0829 439.3319
1416.4231 437.73242
1420.5908 437.36777
1419.0839 441.07114
1416.443 442.8264
1421.1462 444.32703
1424.5273 445.39154
1428.3081 445.72165
1432.6833 447.55505
1435.2402 450.43735
1438.8689 448.54944
1435.5187 446.20505
1432.9751 444.40784
1430.6113 442.9515
1427.4918 441.33862
1424.0447 440.06467
1429.1819 437.86932
1431.0408 434.29184
1432.7266 439.60974
1435.9622 441.41003
1437.8322 444.7302
1439.738 441.93756
1443.3822 442.15488
1445.8433 445.33075
1449.5065 446.68918
1450.1614 450.74908
1453.2532 446.19904
1450.5975 442.4065
1455.1721 439.1168
1457.2861 442.79074
1459.2202 446.75485
1455.7959 446.70395
1455.845 450.84393
1455.1782 456.22702
1450.5232 457.13766
1447.4016 455.79742
1444.8209 452.90424
1442.3748 449.58594
1436.5459 455.3592
1440.3967 456.02304
1444.0271 460.22717
1437.329 461.60385
1441.7086 465.05713
1442.0725 470.54102
1442.1643 475.61115
1443.4036 479.8499
1439.5952 483.14914
1443.0981 487.95273
1439.7635 489.5267
1439.9106 494.57443
1445.0192 496.82617
1443.7083 500.36438
1439.3173 499.54785
1435.7695 498.14154
1431.4517 497.35785
1433.8318 501.31042
1429.5792 501.95123
1425.6195 505.17377
1426.0425 499.7568
1423.228 497.0295
1424.7472 493.40442
1430.022 494.25226
1434.5195 493.38425
1436.4939 490.589
1432.9447 488.8408
1435.7274 485.92163
1431.9552 485.2436
1430.9032 482.2727
1428.165 481.14105
1427.6499 477.9234
1423.1571 477.40353
1427.9275 473.48578
1431.2966 474.66656
1435.032 481.40533
1435.3322 477.30026
1437.5874 472.82983
1437.3833 467.77927
1432.6648 470.46704
1432.404 465.09177
1426.0034 464.1174
1426.468 470.3709
1422.3113 468.8001
1418.6372 464.78064
1419.726 459.29565
1422.7498 455.59433
1427.6028 454.7724
1429.8755 459.61823
1432.8424 454.9919
1430.9619 451.43073
1428.9902 449.0423
1424.3805 450.0097
1419.0208 449.95
1417.1218 446.52707
1416.023 453.40073
1414.3754 459.55246
1408.9614 460.0022
1408.083 455.7212
1411.8907 454.37997
1408.415 450.60083
1403.373 449.71347
1399.1455 447.41333
1399.8837 452.32324
1401.4321 456.7379
1404.9456 458.801
1400.5542 462.57162
1396.4266 455.0655
1393.7297 451.02582
1389.0236 452.3003
1388.7695 446.2667
1384.1404 450.42456
1381.9731 446.78723
1378.8933 444.05197
1374.676 442.47113
1372.0227 445.3398
1375.7386 448.39352
1369.6132 449.59543
1373.3529 452.8954
1371.66 457.2053
1378.2184 453.65283
1383.3146 456.21466
1389.2345 457.75806
1394.9941 459.40546
1391.0374 464.17773
1396.6233 465.90195
1396.3796 470.84583
1391.8613 471.65012
1395.7799 476.3213
1397.0013 480.2884
1392.2886 482.115
1397.585 484.24887
1399.4944 486.95007
1401.8483 490.11533
1400.909 497.41595
1398.7625 502.59702
1402.3682 508.1624
1409.7379 514.08765
1405.4082 512.70734
1399.9601 515.2241
1394.2843 514.29333
1395.6222 507.61517
1391.6033 504.7491
1388.3843 501.81085
1384.9086 500.583
1386.1969 497.1034
1389.7273 497.07098
1393.1974 500.80432
1393.9791 496.38867
1396.1993 492.4723
1391.9331 488.4618
1387.1833 492.30026
1381.5684 489.90002
1375.3416 489.48804
1369.5618 488.0672
1370.4796 483.38043
1366.572 480.74042
1364.3853 474.1988
1359.347 474.81476
1361.6199 479.60382
1363.3942 485.30127
1362.779 490.28308
1358.084 494.48083
1354.3643 490.62274
1358.0765 483.5738
1354.6326 485.92773
1348.6411 486.3031
1344.0348 483.3742
1339.7742 487.37927
1337.9564 482.32202
1333.1616 480.20493
1331.416 475.04327
1337.1255 475.96735
1341.9226 477.81458
1346.5577 476.2706
1350.3341 479.92453
1355.5034 478.6413
1352.0354 474.07556
1354.2129 469.85504
1358.7458 470.14328
1364.2112 466.982
1368.8396 470.90247
1370.4756 475.56982
1374.2401 478.01974
1376.5743 483.3297
1382.0873 482.81537
1387.0972 484.9372
1387.1914 478.41916
1389.2181 474.61572
1380.1111 476.7011
1378.7861 470.27496
1383.9368 472.4626
1387.1384 468.60065
1384.4124 463.69305
1379.311 461.20288
1374.0598 460.7042
1374.9991 467.82727
1370.511 465.47314
1366.6156 460.99762
1359.9615 462.87952
1354.5203 464.52145
1354.5349 458.58746
1358.4615 454.48755
1362.131 457.33603
1368.1759 455.3154
1365.4475 453.14413
1363.3633 450.25766
1365.8171 445.83038
1368.5061 442.60202
1371.117 438.5643
1373.0388 433.26392
1377.0814 439.1428
1379.2521 436.04382
1383.5122 433.9294
1383.8663 440.6214
1389.3494 440.94614
1393.4705 437.34558
1394.6282 442.76685
1395.2333 446.6349
1400.213 441.54742
1403.4252 438.25262
1397.3948 438.49448
1398.4474 434.3309
1400.5131 431.37292
1400.3455 427.1115
1396.8035 424.7336
1393.6807 429.29272
1393.5393 432.92767
1388.5403 435.7132
1388.1146 430.45734
1390.9557 425.18295
1383.8118 427.1816
1378.9906 430.32187
1375.8296 426.32666
1369.174 427.67584
1367.0912 431.6917
1366.3708 435.39514
1363.5115 440.03577
1361.8989 435.1847
1358.5344 430.9748
1357.5864 436.06638
1356.6816 440.20428
1356.585 443.61932
1361.252 444.994
1359.1448 449.84238
1355.9371 447.34003
1354.3345 452.2561
1350.8702 450.5866
1346.6007 451.02667
1348.8026 457.0119
1342.7952 454.84717
1337.6853 455.42914
1336.9696 460.66302
1340.7559 465.2536
1342.8235 459.82285
1347.4694 463.50446
1349.514 468.55832
1344.6917 471.00183
1339.5331 470.62033
1333.8832 469.25098
1332.6487 463.4961
1327.1968 462.9159
1320.6318 462.11935
1323.8822 456.73822
1318.0696 453.2929
1321.429 449.6246
1325.6772 447.3464
1316.4697 446.01294
1314.867 440.98117
1310.256 439.00436
1314.8691 435.50177
1318.1635 433.588
1320.1038 431.1446
1321.9661 428.24594
1326.9209 426.8946
1325.1252 432.81616
1327.2596 436.31598
1321.8125 438.03052
1319.9614 443.3398
1323.7628 442.5002
1326.2162 444.3047
1327.3511 440.32294
1330.8511 439.2086
1331.7683 435.18652
1331.2966 431.2348
1333.1821 427.2746
1339.6727 425.02963
1337.3004 433.1401
1339.91 438.45087
1338.9282 443.2129
1334.9529 444.2256
1334.54 439.58246
1330.9951 443.45618
1328.356 443.8878
1331.3689 447.74487
1327.4602 451.982
1331.6628 456.14618
1335.259 450.62802
1338.4072 447.07367
1341.681 450.1411
1342.4213 443.23276
1344.8678 445.35474
1348.1301 445.71735
1351.6628 444.70178
1346.4299 439.33392
1352.053 438.7492
1353.3915 432.96786
1348.3005 433.95862
1343.1321 431.21945
1348.2373 426.30762
1353.8932 426.2281
1359.6754 425.12518
1363.52 427.7896
1365.936 420.58698
1371.7137 421.8128
1379.184 420.78223
1385.534 422.1687
1385.9645 416.1936
1390.9443 418.96802
1394.4453 419.92502
1397.52 419.04724
1391.9968 413.02722
1396.9678 413.89532
1400.901 413.2011
1403.644 410.5793
1408.0098 411.65085
1413.5042 408.9398
1418.3291 404.6954
1421.813 409.50946
1426.6943 406.43027
1429.1042 411.09503
1433.0107 405.24927
1437.9558 401.59702
1445.5989 398.7002
1442.8231 404.5339
1443.9133 411.37408
1440.2357 410.83884
1437.4799 407.86316
1433.8961 411.7553
1440.5093 416.47284
1436.1597 416.21738
1431.1869 416.94116
1432.3019 421.1515
1436.8291 422.28198
1441.2938 421.19696
1444.7981 422.40332
1445.47 426.84784
1449.0927 424.63025
1453.4109 422.24066
1456.2029 427.5721
1458.8451 423.82773
1462.4662 422.2973
1463.6365 427.29758
1465.439 431.73193
1469.6196 428.6938
1467.8796 424.24146
1472.4517 424.71857
1471.9714 420.32568
1468.0432 416.50192
1466.1283 420.45398
1457.2109 419.16608
1456.2922 414.8543
1461.615 416.53342
1466.337 412.3947
1461.6974 411.8435
1456.74 407.97705
1453.0027 410.29602
1452.4617 415.76892
1449.8508 417.9035
1449.3734 420.93442
1445.5562 418.60577
1445.0596 415.2782
1449.3547 414.14465
1448.2151 411.3211
1447.3442 407.79755
1448.9513 403.82712
1453.1713 400.00183
1458.8837 401.9372
1462.096 406.46982
1466.6134 408.2489
1467.5325 404.51135
1464.5391 400.7931
1460.1648 395.77747
1466.6675 396.50403
1469.4606 392.48724
1476.2771 389.75925
1473.6914 397.05237
1470.895 400.59534
1473.5028 404.36035
1473.412 408.70505
1470.5121 411.66867
1474.417 416.5783
1475.8699 412.775
1480.5688 414.1469
1484.9718 416.57773
1487.6006 413.2647
1484.3154 409.8407
1478.488 408.60254
1487.268 406.4686
1491.7803 407.79858
1496.7622 408.2706
1502.7783 406.1621
1501.4319 411.30453
1498.8174 414.9427
1505.6759 417.7889
1510.5563 414.4251
1513.5156 411.2735
1506.5953 411.4096
1507.8684 406.73798
1512.3124 408.2551
1511.8516 404.5356
1509.0421 401.94662
1505.1129 401.5509
1501.6765 399.48178
1498.3728 403.58078
1494.9154 401.30573
1493.3425 397.195
1491.4202 393.7124
1487.1062 393.00974
1487.9126 397.8592
1490.0488 402.1931
1484.491 402.46094
1480.1713 404.92316
1479.4158 400.28015
1477.7186 395.37643
1483.0826 396.5324
1482.1036 391.87378
1484.6031 387.55908
1490.07 389.0709
1495.0662 390.8565
1497.5131 385.90216
1500.9989 386.64706
1505.5413 382.46494
1511.9675 383.4679
1517.1614 382.14105
1522.585 382.22812
1521.5671 388.0919
1527.3657 387.8015
1526.5007 392.75458
1528.0143 398.92206
1524.6547 404.81445
1520.6752 400.6433
1523.786 397.18103
1519.8818 394.94382
1517.4202 389.96533
1512.3218 390.02496
1507.7415 389.44617
1503.7185 389.12408
1499.9717 391.71164
1497.3987 394.20203
1498.3767 397.38693
1502.9673 394.35602
1506.2786 395.72067
1509.8917 396.80722
1514.426 394.7304
1515.0837 398.5874
1514.2004 401.50537
1515.5958 405.5621
1519.3883 404.39108
1518.9167 408.80304
1517.7578 413.79916
1519.1447 418.21555
1519.75 422.3028
1521.8062 426.41364
1524.1616 429.48923
1526.9655 432.1618
1526.4664 436.62683
1521.5526 437.15527
1523.4569 444.01465
1527.3657 441.1401
1531.873 439.4315
1531.2482 435.2791
1532.8325 431.69385
1533.9175 428.08295
1537.0405 426.33762
1533.6991 423.51633
1529.4414 426.49374
1525.9081 422.2874
1525.4088 417.7589
1530.6897 419.25705
1535.7802 420.02136
1536.0155 415.93372
1533.2383 413.53537
1539.1299 412.20602
1543.1244 409.04623
1543.963 412.83545
1541.8506 416.31287
1546.0901 414.24188
1549.5059 410.97058
1552.2634 408.5156
1551.9901 403.83954
1547.5073 403.93723
1543.3684 404.50165
1539.4484 402.49866
1536.6909 405.5036
1534.839 408.91537
1530.7549 410.9808
1528.0913 413.53378
1523.9341 414.46136
1522.8573 410.7501
1527.8916 408.70673
1529.2983 405.4972
1531.5564 403.56967
1533.1418 400.11145
1536.2312 398.28622
1532.7124 393.5072
1532.9302 387.79037
1527.6296 381.80963
1530.1318 377.37082
1535.896 375.69333
1540.1438 378.39948
1536.2476 380.26584
1534.0048 383.32483
1538.9108 384.7346
1539.5925 389.07248
1540.9856 392.57468
1537.9008 395.0266
1542.8013 398.13425
1545.889 392.837
1549.26 398.14746
1554.412 395.14658
1551.1873 391.6986
1550.1671 387.238
1548.823 382.0345
1543.977 385.8645
1543.5646 381.04175
1544.5707 376.1568
1548.5923 374.20334
1553.7977 374.86444
1552.6545 369.74365
1557.8514 368.47958
1561.6841 370.1566
1559.1233 374.87985
1561.998 380.26816
1554.707 380.6295
1557.7656 386.0722
1558.0931 391.56067
1562.806 389.61337
1564.3903 393.52856
1567.8406 395.59042
1564.5427 398.7452
1559.5414 396.492
1561.0057 401.02667
1564.4518 404.8537
1561.5527 408.76486
1561.79 414.53082
1567.0334 413.23267
1572.7327 413.54767
1576.5548 419.34668
1570.4526 420.17255
1563.8088 421.36615
1557.7582 420.8363
1563.928 428.7893
1569.1421 426.90817
1574.3804 427.3253
1579.3977 428.80896
1583.9946 429.11215
1580.4733 423.86664
1583.5427 419.55322
1586.9297 424.3381
1591.0642 421.55014
1587.1758 416.84006
1580.423 415.16513
1583.0111 411.7389
1583.7855 407.63315
1587.3336 410.11646
1588.2786 412.88068
1591.5564 413.52548
1593.423 416.70282
1596.7965 419.1963
1602.1108 420.5099
1606.2765 419.4048
1603.518 415.4004
1607.2555 414.27682
1610.5316 414.92
1613.8604 416.58823
1615.5237 412.74286
1617.8284 408.22192
1613.4244 407.8438
1610.6512 405.16138
1610.1609 410.46286
1605.3445 409.9963
1602.3384 406.01416
1600.2377 409.91537
1599.2795 414.43332
1595.5687 411.2861
1597.055 405.89923
1600.226 401.87997
1593.0905 404.13293
1592.4172 408.34528
1588.5967 406.45886
1586.2804 403.4179
1585.7427 397.87836
1587.8923 394.98523
1588.7688 401.32346
1592.3479 401.16733
1591.2388 397.5927
1594.5787 394.35602
1596.4839 399.17828
1602.6345 397.7445
1607.4377 399.74286
1606.2733 404.23737
1611.2158 400.3703
1614.2039 401.46884
1617.2673 402.7696
1622.0635 403.6502
1624.4043 398.44696
1622.9026 390.6655
1619.103 395.20062
1615.8302 397.5997
1612.2441 395.42047
1606.9421 395.13107
1603.2795 391.98557
1599.0793 392.92816
1604.262 387.08325
1606.305 389.99927
1610.4912 392.64404
1609.0911 389.86523
1609.0227 385.8161
1606.3535 382.25073
1601.7683 382.77954
1599.6798 387.22934
1594.9211 388.0006
1591.1763 388.83435
1589.5114 391.93817
1584.3306 392.2273
1585.8723 387.71555
1581.8894 387.6002
1579.3368 393.166
1580.7863 397.12997
1582.6472 400.31055
1583.0778 403.47205
1578.428 402.02124
1579.5403 406.2048
1577.4197 410.6457
1573.9409 407.19806
1568.9235 406.97308
1569.3472 400.31348
1573.5414 402.6183
1575.6571 397.87888
1572.5938 395.0665
1577.196 389.69202
1572.7085 391.31744
1568.4597 390.07782
1565.6952 385.67645
1568.0187 380.7264
1573.4426 381.72592
1572.2872 386.5503
1577.7712 385.4795
1577.8875 380.51364
1582.535 382.4428
1587.0634 381.30957
1588.8221 384.75363
1591.7708 379.8958
1596.2937 382.4972
1596.3143 375.474
1601.4567 377.4078
1607.329 377.7026
1611.8579 375.85934
1617.2224 378.73596
1612.9371 382.44446
1613.0352 388.61163
1617.1553 389.2895
1620.3225 383.7472
1626.1423 382.93512
1623.8087 376.128
1618.6285 374.31418
1616.2727 369.10446
1611.6176 370.88635
1604.3517 372.48114
1605.206 367.21008
1599.2983 368.86932
1598.7947 362.06012
1595.4497 363.73254
1591.5391 364.44223
1595.1287 367.95215
1591.3494 369.12582
1590.8938 373.6933
1586.6329 377.12192
1582.3232 376.96967
1578.4126 375.1073
1572.0361 375.87558
1565.8325 373.9188
1565.0023 368.41077
1571.2515 364.94858
1571.3223 369.52747
1575.8193 370.33624
1580.7588 369.81638
1585.6847 371.3272
1587.9749 365.2059
1584.1094 365.0465
1578.6108 364.0235
1586.9274 360.49554
1591.5787 360.4948
1595.3943 358.67502
1601.4512 356.75632
1603.199 361.94614
1607.5193 357.6837
1610.1395 364.67822
1616.6721 363.9901
1613.1709 357.901
1618.81 353.69147
1620.4778 359.62372
1625.492 362.72614
1622.426 366.485
1621.1276 370.64038
1627.2512 370.86325
1629.6218 377.04245
1634.2485 373.70953
1640.146 374.83298
1639.7329 380.9188
1644.438 377.9143
1647.8888 378.53662
1651.6624 378.24265
1653.8978 375.01495
1658.0652 373.4371
1662.2355 374.11276
1664.1886 371.2245
1666.8463 368.65253
1666.0557 365.14142
1662.6813 364.4295
1658.6669 363.48737
1659.7063 368.31287
1654.2878 369.38696
1648.4607 372.3933
1643.4817 368.9369
1637.669 368.27866
1629.8823 367.0456
1632.3167 362.69086
1634.8016 365.15378
1639.2617 361.63934
1645.0691 362.20544
1649.7222 365.6242
1653.8381 362.75034
1657.6836 359.5107
1655.185 356.80942
1649.4396 356.04285
1642.5452 355.69357
1636.385 355.8707
1633.3479 352.2142
1633.4608 358.36633
1629.2632 359.4685
1625.4697 355.80237
1627.8651 351.5453
1635.7458 348.01584
1639.72 350.50034
1646.0126 348.57343
1651.9478 346.57895
1657.4622 345.74805
1656.3625 352.2323
1661.8234 354.70142
1662.2284 359.5296
1667.3933 360.15427
1666.7416 356.4261
1668.2834 353.03802
1665.5203 350.5426
1661.896 348.74643
1661.4565 340.91864
1669.2922 341.79706
1666.9366 346.66608
1672.249 348.21503
1676.1979 351.54688
1682.469 349.90692
1687.8123 350.94495
1691.2402 356.52515
1697.2239 360.66693
1691.2128 363.31003
1684.895 363.72723
1681.8854 356.84186
1673.3341 357.3812
1670.0731 363.11182
1672.7025 366.0874
1677.414 362.70358
1678.315 368.77502
1682.8086 371.31274
1679.4651 376.87885
1674.7126 374.52588
1672.0656 370.2691
1668.548 373.49792
1670.0374 377.6859
1666.0944 380.98395
1664.2446 377.09937
1661.174 379.70966
1657.3773 378.749
1654.7891 382.09958
1658.2596 384.9369
1662.3044 383.8499
1668.1398 385.66028
1670.7253 382.9514
1674.556 381.04517
1679.1931 381.5285
1681.5786 385.36127
1685.9658 386.65808
1687.4966 380.87292
1685.4805 376.5487
1689.9945 371.37683
1697.499 372.6206
1695.3213 367.12976
1700.74 366.93848
1702.7648 362.31378
1705.5438 359.15622
1701.4785 358.33014
1700.0264 354.92746
1706.1201 355.81842
1707.2866 352.80905
1699.6301 351.2376
1695.004 350.38043
1691.4155 347.44272
1687.7876 343.29498
1679.656 344.2462
1674.8953 339.1681
1681.5958 337.68546
1687.0603 337.3979
1691.5251 334.59863
1697.644 333.74344
1703.875 331.67407
1710.3107 334.49988
1714.9387 331.27872
1719.47 336.84402
1715.273 340.55038
1718.1633 344.64197
1722.5756 342.44055
1727.4579 343.54184
1734.6427 348.05463
1737.2048 353.13474
1740.4791 349.61932
1738.84 346.9192
1731.6818 343.8722
1730.665 338.5858
1725.5901 337.48218
1724.8517 332.38055
1720.531 331.00836
1719.4294 326.21082
1725.6768 326.6046
1729.8353 332.84476
1731.6257 327.93744
1736.5244 326.51273
1737.1045 321.8944
1742.8066 327.68677
1747.6511 325.44525
1743.2483 321.8194
1748.6896 319.32346
1753.194 321.6621
1754.6765 317.1369
1759.4772 316.91504
1762.9204 313.89124
1768.5485 313.25763
1767.3154 318.76715
1763.8647 320.11703
1759.6017 321.90817
1762.4807 327.1551
1757.0115 325.2154
1755.5662 330.13126
1752.5441 325.93585
1749.7112 329.48807
1749.9473 333.63464
1745.6234 332.9255
1741.7137 334.2963
1739.6553 330.60065
1735.5979 331.8172
1735.052 335.56522
1740.0854 337.7633
1736.1105 339.35608
1734.9805 342.45544
1737.6575 344.156
1740.9467 342.8264
1744.1224 349.89996
1748.167 351.4786
1752.1166 350.53973
1756.0137 348.78638
1760.5513 349.03683
1761.7429 343.30234
1758.2981 341.58472
1757.5859 337.9339
1752.8618 344.07297
1747.018 344.95798
1743.9854 341.04572
1746.4652 338.35565
1751.1869 338.7017
1754.8765 334.77322
1760.7671 332.8381
1765.271 335.5979
1767.5769 327.9919
1769.9485 323.38657
1774.3525 327.49292
1777.6324 322.71356
1773.7899 320.346
1771.2651 317.2766
1776.8438 316.31805
1774.0859 312.25348
1779.0829 311.0183
1784.6501 313.2611
1780.8849 315.68195
1781.313 320.44482
1783.1819 325.3365
1785.3557 319.18158
1788.9504 322.72687
1791.4159 317.86148
1788.4569 314.90265
1788.6946 307.01083
1796.6827 304.0611
1800.1835 308.43
1805.3408 306.20847
1810.1306 302.86584
1806.0557 310.45383
1802.0447 312.6775
1804.2688 317.498
1808.2383 314.32343
1811.471 316.99173
1819.2344 316.31058
1820.9797 312.2408
1816.3196 313.2462
1812.8905 312.70483
1811.8347 308.51605
1816.3616 305.81302
1817.481 301.30768
1822.7289 300.0335
1828.5315 297.56488
1832.574 300.65213
1834.633 305.5628
1839.8229 307.3024
1844.147 306.56677
1840.6213 301.14084
1836.1257 297.2467
1839.261 294.03577
1844.7922 295.13904
1850.4337 293.91675
1854.9764 291.4423
1854.152 298.56085
1852.7197 303.59985
1848.5826 299.85022
1846.7458 303.70612
1849.1726 308.10754
1852.6238 309.8504
1851.891 314.0267
1856.7424 318.3165
1859.4358 315.00677
1857.3442 310.80737
1862.5586 309.7135
1862.9891 304.59253
1859.4891 304.87497
1855.8068 306.34714
1857.6294 299.9479
1861.1399 298.79663
1864.9739 298.3205
1866.8599 295.66003
1860.4546 293.2928
1865.5273 291.5006
1869.1506 287.394
1871.833 294.43347
1877.7789 296.36316
1881.5889 291.48428
1875.6082 289.1668
1879.0382 284.5588
1884.6292 285.4779
1888.0925 281.08713
1890.2141 285.21567
1895.3077 283.65924
1900.758 280.5407
1907.4595 278.82935
1907.8026 284.21716
1908.1885 289.65607
1901.6951 287.92908
1903.6135 293.53165
1904.1965 297.28143
1911.3762 295.0175
1913.9436 288.4632
1918.5367 285.94153
1924.2056 286.12186
1924.846 280.12433
1920.1224 279.57794
1914.4781 281.09894
1914.2853 275.39337
1920.4695 273.82483
1923.795 275.5805
1927.7532 275.87442
1929.4901 281.30377
1931.1293 289.1145
1936.0385 287.26443
1933.4874 283.85944
1936.5938 280.428
1933.7056 274.65076
1929.4427 271.10095
1936.7827 270.50708
1940.6069 267.72858
1950.2046 268.34256
1956.6361 263.0268
1956.5669 266.92175
1958.7803 270.78754
1954.0728 271.7865
1956.712 275.57477
1955.8877 279.59784
1960.7583 275.28857
1962.6328 271.98798
1963.0427 268.08606
1965.553 264.26712
1971.2156 261.376
1973.8533 267.29013
1970.8054 269.64685
1967.8164 271.1073
1965.3358 274.88562
1973.2073 273.28918
1976.8163 272.763
1980.4265 271.45312
1983.985 269.97003
1979.9973 268.30954
1980.1912 265.45517
1976.0269 264.04492
1978.2026 261.35742
1982.0376 260.44736
1979.6108 256.75745
1985.1251 256.61725
1991.0363 253.8133
1999.4899 251.91266
2003.3389 258.48666
2007.4958 256.5498
2005.0928 252.32373
2008.8 248.84702
2011.3909 252.45068
2013.9646 247.90515
2017.2053 249.75287
2021.2643 250.02055
2024.786 252.89958
2026.1826 247.47166
2030.0193 243.42838
2036.7351 243.70053
2041.3398 241.8353
2047.7719 241.18036
2051.8198 237.02832
2056.1636 239.42526
2060.127 238.40494
2063.0537 234.32916
2069.79 233.87773
2081.8474 229.66075
2091.18 228.45555
2109.1653 221.4664
2099.2534 224.74823
2085.05 233.07835
2076.2676 234.12967
2066.3262 237.52635
2063.0247 238.40794
2064.4995 241.29453
2060.6453 241.57626
2056.979 243.91489
2052.2622 243.59708
2048.559 247.86554
2045.4183 245.20935
2041.8226 247.79584
2042.8136 253.23595
2037.4155 251.44012
2033.1665 248.50745
2030.6835 254.27245
2024.58 258.45557
2018.7983 259.63354
2018.1598 254.24527
2015.0876 258.02197
2012.7725 254.94287
2012.2156 258.43982
2009.6687 259.42896
2014.4998 264.38626
2008.7897 263.09235
2006.1501 266.3026
2002.6511 264.3731
2000.4252 269.61084
1995.1125 265.99896
1998.6763 262.2137
1996.3414 257.14453
1990.2959 260.7163
1985.2866 263.87323
1987.0542 268.01456
1990.8759 267.72516
1993.468 272.0039
1988.5446 272.4439
1985.0037 274.9187
1980.314 276.29968
1974.5276 279.11304
1969.0725 277.69757
1966.1562 282.94745
1962.2878 278.99707
1959.3826 282.46484
1958.4366 287.14807
1953.8754 283.9526
1951.1145 289.06647
1949.2837 284.59103
1948.1627 280.161
1952.2223 277.29
1948.5178 274.81152
1944.7422 271.20773
1939.4238 276.24048
1943.4683 277.92114
1943.6838 283.73236
1940.5916 287.36584
1945.6385 290.54028
1940.6587 293.39886
1936.1359 292.37476
1936.1008 298.13895
1931.0471 296.81747
1926.6405 292.60547
1919.4904 293.6667
1924.971 299.70255
1919.7278 301.656
1915.0425 300.57043
1908.355 299.5907
1909.2837 304.659
1902.7571 310.07202
1902.4077 304.49368
1904.1582 301.55115
1899.4327 299.1227
1894.9746 301.29108
1897.6843 304.9614
1896.6514 309.79327
1892.153 314.33307
1892.0059 309.68393
1891.073 305.6682
1890.5083 302.20667
1889.9548 298.09875
1892.2446 294.9937
1895.8206 296.5117
1898.5424 293.34708
1895.9082 289.63828
1891.6208 289.98895
1887.142 290.12546
1886.9463 294.27554
1883.377 296.87238
1886.5328 301.02313
1882.0436 301.16254
1882.7877 306.15768
1886.3116 308.2712
1886.1968 313.79706
1881.4473 314.51007
1877.8406 316.90042
1874.2283 318.06097
1870.3564 314.4033
1874.9407 311.21323
1877.7173 307.4706
1878.2085 302.75397
1873.1865 305.0391
1873.644 300.09186
1868.985 300.62793
1865.1862 302.25153
1867.2566 305.52118
1870.5322 307.24356
1867.8141 310.20422
1865.0051 314.0096
1865.0093 317.82428
1862.6722 320.68967
1870.3682 319.58057
1874.9401 322.98062
1868.0073 322.53366
1865.8573 325.42303
1862.2168 326.89114
1859.2391 329.68
1854.7344 330.27426
1850.6952 332.74356
1847.4373 329.81458
1845.8439 325.10114
1850.967 327.1475
1854.6604 325.68158
1857.647 324.19388
1860.1362 322.31186
1853.1779 320.76672
1848.6587 321.82587
1848.8341 316.93668
1844.6456 311.79315
1844.1271 317.88336
1840.9036 321.17114
1836.4165 323.5486
1840.4814 325.95032
1842.326 329.90753
1845.4406 333.5935
1840.6375 336.20874
1837.8958 332.33887
1834.4896 329.18707
1829.955 333.66736
1834.7264 336.64926
1831.1515 340.0453
1825.9784 339.12683
1826.4553 343.61536
1821.6274 341.66028
1821.0986 344.52194
1816.56 344.9856
1812.6279 348.93658
1810.4875 344.4496
1812.5996 340.70956
1815.8843 339.9296
1817.5226 336.57672
1820.8201 338.6557
1825.3113 334.02298
1820.8182 332.9005
1815.7969 332.9488
1813.4285 329.6388
1813.0295 325.26154
1818.7045 326.1001
1823.8884 328.26306
1825.2295 323.37436
1828.9937 328.0698
1831.8359 324.4078
1836.5271 318.2347
1840.0623 314.55594
1835.9059 312.20404
1830.8416 309.4983
1826.7527 304.45944
1822.6055 307.8199
1826.8345 312.79462
1831.5051 315.81912
1831.7521 320.2932
1827.4196 318.00064
1824.2985 318.62628
1820.7979 320.2013
1816.56 319.89136
1813.7422 319.9371
1812.0693 321.94263
1809.1931 321.14566
1805.8477 321.53442
1806.5605 325.72678
1807.9132 329.1162
1808.1675 332.80667
1811.2998 335.7732
1808.1494 338.95987
1805.9956 343.06137
1806.1643 349.03937
1803.0468 353.82928
1798.711 352.03195
1795.2102 356.6032
1791.0667 355.82867
1788.7019 358.92
1789.284 353.11884
1791.3878 350.37704
1794.5029 351.94208
1800.2542 347.12164
1802.2582 341.4212
1803.9224 335.7767
1799.3115 333.78687
1802.6028 330.13184
1800.2379 326.54514
1801.394 323.18845
1799.2778 320.38043
1799.8594 316.5577
1798.2484 312.6655
1794.8257 308.51984
1791.054 311.11615
1793.8777 313.47736
1796.3447 314.75644
1795.6467 317.68195
1794.5243 321.10184
1793.9276 324.66638
1795.0795 327.47153
1796.7722 330.09314
1794.511 332.63336
1795.7277 337.35175
1798.55 339.0335
1797.5961 343.05518
1794.7468 347.52875
1793.6011 343.34555
1790.4501 340.51947
1790.1685 346.2328
1787.4712 349.23996
1783.0703 348.45358
1785.6858 343.33026
1778.9398 344.71173
1775.5977 348.84198
1771.1082 347.34933
1773.0393 342.81796
1775.8048 338.94052
1780.5383 339.91394
1783.6355 336.44373
1787.7858 335.89984
1792.4214 336.03354
1790.5477 331.45715
1787.5148 328.76862
1781.0999 330.07916
1777.5907 333.5726
1771.7502 333.1457
1770.803 337.99216
1767.1326 341.00494
1766.1721 345.29858
1766.5483 349.78912
1765.9055 354.22888
1763.1473 356.67078
1769.716 360.73218
1771.9181 354.53064
1777.3767 358.17365
1779.1437 352.67746
1784.9651 353.76086
1783.8357 358.2441
1781.7146 362.58093
1775.3477 363.95956
1768.274 367.18246
1762.9966 363.2812
1760.4956 368.49445
1756.2642 371.9222
1751.687 369.46954
1752.5364 363.8866
1756.9758 360.72482
1759.7461 356.9543
1756.2375 354.21393
1751.3351 356.65253
1748.0874 360.37778
1744.0046 362.60913
1743.9978 356.3194
1738.6547 358.00317
1732.36 356.87497
1734.4368 360.7931
1738.6951 362.67944
1739.8794 366.10443
1743.9327 366.80377
1746.5924 369.5846
1747.6669 375.27597
1752.1831 378.0936
1742.0997 378.30646
1743.0181 373.67786
1740.4249 370.73486
1736.8159 369.19202
1736.6504 373.5116
1737.2839 377.6755
1738.0452 383.3293
1732.4672 383.71637
1730.1802 382.03076
1732.2224 377.16034
1728.1633 379.85727
1725.4473 379.82318
1723.2899 376.6421
1723.7737 371.0796
1727.489 374.0431
1732.373 372.07672
1728.9121 369.19122
1732.3575 368.1961
1734.4512 366.65805
1735.5593 364.55807
1730.8052 363.67816
1726.8914 366.65427
1725.6912 362.7655
1727.7344 359.2022
1722.9335 357.25488
1724.9597 354.0432
1729.3674 353.23944
1730.6536 349.17816
1724.7031 348.63815
1719.4507 348.7772
1714.1038 347.38486
1709.5598 345.0251
1709.1815 340.71042
1704.0748 338.8599
1699.6738 340.85275
1695.2502 338.60822
1694.2656 342.9959
1699.0564 346.21094
1703.9344 345.5929
1704.4065 350.11652
1709.0706 349.01892
1712.78 352.44482
1718.8813 352.9355
1718.6782 357.8459
1714.7417 357.62048
1710.6858 357.19104
1708.7639 360.0121
1706.9751 363.2252
1706.1042 367.05368
1704.7302 371.9255
1704.6829 376.9791
1710.0544 379.99457
1713.7773 377.44733
1711.1771 373.6568
1711.1647 368.30853
1712.0981 362.84808
1716.5004 364.83252
1720.6952 361.87512
1722.8518 366.26266
1719.6448 368.68555
1715.9353 371.09897
1719.5566 373.99506
1718.7117 377.98865
1716.9861 381.50903
1721.7786 381.2093
1723.8762 384.1635
1726.0553 386.3917
1719.6881 384.822
1720.0535 388.35458
1715.3396 390.67
1715.0142 386.74646
1713.4766 383.35767
1709.6846 385.0097
1708.8739 388.6313
1709.1833 392.5339
1704.097 394.11426
1699.8899 392.85712
1697.633 397.39792
1695.3943 393.67575
1691.585 395.39462
1689.5425 398.27142
1692.0853 392.244
1693.5566 389.94
1697.5466 388.80978
1702.7725 387.2534
1705.0553 382.36456
1697.7131 383.948
1698.9094 378.52155
1693.2036 378.4511
1691.8348 383.91095
1691.6633 387.53442
1687.8273 390.5122
1686.956 394.36505
1683.0957 393.3601
1679.1847 391.5322
1675.4623 386.90057
1671.9292 390.69623
1666.6202 389.79718
1664.9695 386.6268
1661.8015 388.57312
1658.2081 390.55576
1665.2725 393.20346
1669.9008 396.58575
1675.3008 396.0321
1680.1068 398.14044
1684.5916 398.46484
1689.1323 402.06696
1684.8844 403.72287
1681.8499 402.26132
1677.5286 401.9076
1673.9052 403.17514
1670.1477 402.85107
1665.6722 402.4973
1664.3453 397.96686
1659.4229 401.62488
1653.1748 400.6281
1659.9302 395.6732
1654.8213 394.5551
1649.7798 389.81708
1653.554 386.75195
1648.9558 383.12558
1644.6279 386.51703
1640.5101 390.9272
1644.4952 394.3722
1649.5968 395.88287
1647.071 401.9421
1652.4911 405.7845
1656.7625 407.5423
1662.3455 408.54
1674.2771 408.73273
1668.002 408.6006
1657.677 413.54163
1653.3359 418.59387
1650.6857 411.7652
1647.9751 407.42358
1642.2632 406.47226
1643.7173 411.81952
1644.3246 416.70868
1648.8689 416.1441
1645.4366 422.16306
1638.4124 413.8508
1633.8169 417.3861
1639.7438 419.83347
1635.7706 424.33728
1630.1022 423.3352
1627.804 419.30725
1628.9031 413.89865
1633.0717 409.54138
1637.4186 407.38702
1641.4034 400.58798
1637.2177 396.85333
1638.1848 385.6462
1632.5481 382.88196
1634.47 389.7685
1627.9883 389.60004
1630.3127 393.9083
1631.3076 398.22845
1631.5774 403.00693
1627.9293 407.62933
1623.5297 408.28503
1622.3313 412.24042
1619.221 415.51605
1618.5303 419.66443
1614.4558 420.54028
1610.9094 419.0274
1609.3219 422.00586
1608.5308 425.8004
1614.4979 424.97626
1619.6646 424.28333
1623.9429 416.6794
1623.4572 421.57016
1628.2969 428.90546
1623.9198 426.7965
1618.328 428.6137
1618.9692 432.52512
1612.7756 431.1152
1609.3429 434.95758
1605.8469 429.6574
1601.8735 426.4625
1598.7089 423.64484
1595.162 425.4614
1592.4708 428.57465
1588.8192 430.0027
1586.7754 434.18658
1591.86 435.16647
1596.249 431.83234
1600.5994 431.9283
1604.4053 434.47363
1603.3533 438.8171
1598.2817 437.36542
1596.3328 442.2597
1593.0339 439.40393
1589.8833 444.36322
1588.2623 440.6584
1585.4156 438.07977
1581.5505 434.18988
1576.6144 432.81638
1573.5884 437.198
1577.5615 438.8592
1581.4321 438.55103
1583.4124 442.67966
1583.5486 447.17316
1578.0115 447.25116
1577.8162 442.61252
1571.8499 444.96814
1573.2284 451.02686
1566.8191 452.49194
1564.1821 446.21472
1562.5752 441.27216
1567.9584 440.88605
1568.5796 434.25354
1561.481 435.85837
1559.3737 430.21997
1554.146 433.05334
1554.2749 426.5722
1550.7728 422.1197
1547.5149 424.75336
1544.3292 426.05902
1548.0259 429.8205
1547.6937 434.8841
1551.6339 438.8354
1542.7933 437.47388
1540.2711 440.85736
1546.3743 441.4984
1545.7528 446.7434
1540.1257 444.6158
1536.8164 447.0448
1542.0435 449.4718
1546.2216 453.95013
1549.9943 450.04498
1551.6791 445.1504
1557.1143 439.03174
1556.8386 443.66046
1556.9329 448.29895
1562.0759 450.0536
1560.485 454.0323
1557.7123 457.7679
1555.1641 452.8158
1551.5891 455.2364
1552.639 460.41125
1547.9338 458.90292
1545.6406 463.34192
1540.9293 460.79425
1541.8777 456.34515
1539.3148 452.9033
1535.3076 451.1446
1531.9178 449.50998
1527.2489 449.1865
1528.5558 445.82397
1532.4114 444.18063
1535.7987 441.3838
1536.5522 436.2153
1540.7341 433.91794
1543.1008 430.7953
1537.7124 430.9403
1540.4554 427.61655
1541.9722 424.3792
1539.1892 422.94537
1539.8419 419.02057
1544.294 420.75317
1545.9136 417.82956
1548.9835 414.96326
1550.5652 418.29834
1554.4519 415.91528
1556.8853 412.32886
1556.3416 408.21387
1558.0286 404.76556
1555.4745 400.6277
" />
</g></g></svg>
