<?xml version="1.0" encoding="UTF-8" standalone="no"?>
<!-- Created for Inkscape (http://www.inkscape.org/) -->

<svg
   xmlns:dc="http://purl.org/dc/elements/1.1/"
   xmlns:cc="http://creativecommons.org/ns#"
   xmlns:rdf="http://www.w3.org/1999/02/22-rdf-syntax-ns#"
   xmlns:svg="http://www.w3.org/2000/svg"
   xmlns="http://www.w3.org/2000/svg"
   xmlns:sodipodi="http://sodipodi.sourceforge.net/DTD/sodipodi-0.dtd"
   xmlns:inkscape="http://www.inkscape.org/namespaces/inkscape"
   width="3200"
   height="800"
   id="svg2985"
   version="1.1"
   inkscape:version="0.48.1 r9760">
  <defs
     id="defs2987" />
  <sodipodi:namedview
     id="base"
     pagecolor="#ffffff"
     bordercolor="#666666"
     borderopacity="1.0"
     inkscape:pageopacity="0.0"
     inkscape:pageshadow="2"
     inkscape:zoom="0.35"
     inkscape:cx="1600"
     inkscape:cy="400"
     inkscape:document-units="px"
     inkscape:current-layer="layer1"
     showgrid="false"  />
  <metadata
     id="metadata2990">
    <rdf:RDF>
      <cc:Work
         rdf:about="">
        <dc:format>image/svg+xml</dc:format>
        <dc:type
           rdf:resource="http://purl.org/dc/dcmitype/StillImage" />
        <dc:title />
      </cc:Work>
    </rdf:RDF>
  </metadata>
  <g
     inkscape:label="Layer 1"
     inkscape:groupmode="layer"
     id="layer1"> 
     <g>
<path style="fill:none;stroke:black;stroke-width:2px;stroke-linejoin:round;stroke-linecap:round;" d="M 
1522.0358 54.943703
1530.4263 49.69735
1541.7754 46.92421
1539.0276 34.265156
1533.449 37.13251
1526.9722 39.57247
1518.9951 43.172417
1512.7601 50.86609
1512.94 59.720604
1505.9468 59.42211
1499.004 52.400978
1494.1533 44.051983
1487.1007 44.33787
1480.9927 51.363873
1474.2797 51.138016
1466.2449 54.57548
1464.5752 64.22992
1459.4163 70.58933
1458.6816 76.80477
1449.6919 79.43769
1446.5962 85.98085
1445.1495 92.332695
1448.8607 99.59142
1430.6648 102.71857
1439.8748 103.012474
1449.3029 109.76901
1456.5955 103.41933
1457.4282 112.30425
1462.9772 119.19848
1466.8545 115.830414
1468.6523 109.02337
1465.0648 101.723404
1455.5789 93.081436
1458.842 84.90228
1464.1787 90.24658
1475.7162 99.56653
1467.794 94.335655
1468.2964 81.83155
1473.7273 75.785324
1477.763 87.55886
1486.7483 86.518295
1492.942 93.09463
1503.3787 85.99865
1495.6138 81.51456
1486.9797 76.05326
1480.0629 71.011604
1478.1422 63.648415
1487.5393 56.37855
1495.5002 62.82017
1496.1093 71.72403
1505.6443 72.28807
1512.4653 74.04356
1515.3698 79.31886
1514.3914 86.87273
1509.8649 94.98611
1512.1311 102.91567
1504.3484 108.080864
1499.0898 101.15758
1485.0999 99.62654
1490.1031 107.46396
1496.5425 114.88295
1500.2498 126.0143
1492.5944 125.2672
1485.2416 118.21047
1478.3918 110.22284
1475.8674 118.39419
1476.0193 125.10598
1479.7551 134.48663
1479.9419 143.46994
1485.8838 145.03848
1487.8356 150.26445
1493.3274 145.83847
1489.2449 140.32794
1484.2463 139.89429
1485.1133 128.7836
1490.8788 134.64174
1497.7156 138.75475
1505.7308 137.36531
1512.4126 145.1942
1511.0171 155.78192
1517.059 152.63165
1522.8218 157.04399
1523.2089 162.7271
1516.7692 161.41301
1518.1785 167.69519
1515.5187 175.10464
1520.0066 180.41492
1520.817 186.49283
1527.2429 176.89494
1527.2485 169.84137
1530.3281 165.24182
1533.9746 161.13385
1532.1178 154.37886
1542.2104 154.63446
1545.4452 161.69334
1552.5615 156.02853
1552.3992 165.84459
1558.4819 169.22174
1550.711 175.40146
1541.6346 168.99332
1535.1172 178.57773
1543.908 180.21832
1553.4457 183.18362
1558.1442 176.66757
1564.852 177.46494
1559.4907 186.42908
1555.2633 192.70901
1562.588 197.65305
1570.3049 191.93832
1569.7188 182.92023
1579.6975 185.20244
1578.731 198.02396
1572.063 202.68378
1574.9807 210.9165
1571.5674 217.84763
1576.6006 226.69926
1578.1162 236.04596
1574.5135 241.9418
1571.2783 248.1893
1581.9175 244.672
1578.9746 250.97604
1572.7615 259.66232
1564.2823 253.37259
1558.2435 255.66379
1561.2214 246.05438
1566.5221 239.79794
1564.8955 232.97165
1566.0188 224.62999
1555.394 225.56242
1554.9421 238.10687
1547.552 245.46185
1536.7275 244.99097
1543.0565 232.99228
1537.419 220.64319
1532.2002 227.92697
1523.3804 221.82715
1512.8135 220.2331
1512.8541 210.22765
1515.7778 203.05528
1523.3303 206.02191
1526.2754 211.56564
1531.1575 215.21756
1534.2507 208.71037
1536.6172 200.90747
1544.3131 208.33379
1548.3481 218.33134
1559.509 211.97717
1564.6399 204.57462
1552.7937 202.52493
1543.5691 191.92094
1535.123 189.1154
1529.4501 189.46043
1525.4113 195.52483
1517.0942 193.84978
1510.2251 195.44122
1510.5193 185.72067
1505.3655 178.58759
1509.1866 168.97559
1504.4154 161.64314
1499.7125 152.22983
1489.1552 157.89134
1481.0139 152.2445
1479.0952 158.966
1477.1348 166.87659
1471.3601 164.08656
1465.5054 168.99826
1471.8431 174.91916
1471.0121 185.28777
1463.9653 180.1951
1461.4395 187.91953
1454.1902 182.69333
1459.3976 176.13553
1455.4929 172.54202
1454.9674 167.4465
1458.053 163.23898
1454.0901 156.26501
1448.8699 151.47574
1448.0608 166.65662
1439.4633 169.20738
1437.1895 163.42296
1441.9995 156.76294
1430.1302 155.17929
1423.9597 159.70288
1429.0397 146.1636
1439.5978 146.29623
1451.9713 143.36542
1454.2466 135.94667
1460.8608 133.9126
1466.4667 137.1807
1468.802 144.0492
1462.119 143.11742
1459.7902 148.73044
1461.7205 156.03073
1465.5372 159.56166
1471.172 159.21278
1471.8123 154.53677
1469.1515 149.77982
1476.078 148.07776
1473.7218 139.41882
1470.777 131.17348
1468.4065 125.039474
1460.7141 123.59112
1456.4534 128.10938
1448.537 127.313255
1453.8799 121.647385
1448.2449 119.983154
1442.8359 113.49054
1437.2684 120.05521
1439.4932 127.77501
1442.5703 132.20436
1449.2926 133.45293
1441.9613 138.56458
1429.8953 128.82523
1424.4263 138.46338
1415.3969 146.33456
1410.927 152.38611
1411.9429 161.25826
1414.9065 168.27634
1421.5364 169.55768
1429.4841 169.81473
1426.1775 178.4392
1430.6266 189.33218
1438.3666 176.22491
1447.9368 177.9403
1441.1575 185.35434
1445.7815 192.19711
1452.8822 188.67828
1455.5522 194.12737
1467.956 194.76932
1474.4108 201.0783
1474.9365 209.06686
1475.6136 216.40434
1468.8159 213.8382
1467.0972 209.65599
1465.1584 203.87167
1457.3881 209.71338
1456.393 202.93547
1453.1714 199.03741
1438.888 196.10004
1445.6317 200.09781
1448.9236 209.24864
1439.9985 209.73447
1435.0092 216.37396
1432.4587 221.59088
1436.3035 227.77692
1440.8481 233.0452
1426.6357 226.63464
1421.5452 219.53906
1416.4707 227.81595
1413.6709 236.91325
1421.7944 235.84583
1428.7031 235.94983
1434.5659 236.71063
1435.8683 243.94841
1435.4905 252.14787
1430.5784 257.8151
1439.9822 259.64172
1433.9565 269.2295
1426.7981 264.30615
1425.366 273.58987
1419.6252 282.13736
1416.9482 266.03967
1413.1256 271.14038
1410.43 279.28424
1412.0858 287.48438
1405.9843 288.25604
1408.5326 294.2138
1408.1333 301.04025
1409.736 308.47388
1414.1753 316.92938
1405.7192 317.4361
1401.7263 322.6501
1397.5363 320.30273
1398.7131 311.89767
1399.9528 302.56876
1400.4768 293.41534
1398.9633 285.74854
1401.2286 279.23016
1401.7286 272.7032
1401.1259 265.20197
1400.7064 254.18814
1411.0605 258.32556
1419.8259 261.0829
1422.8615 255.90105
1427.9147 249.90088
1425.9342 242.91977
1420.7744 247.42534
1415.4536 251.08902
1410.1187 245.68784
1400.9257 241.25977
1400.5531 232.14555
1404.3037 226.35703
1409.6917 218.43687
1399.162 212.93118
1404.4639 201.76353
1399.6622 193.0927
1414.3004 195.25896
1414.7262 203.25763
1415.6714 211.42052
1424.7285 209.82744
1429.6552 205.16876
1431.6255 199.22923
1419.3882 193.08041
1422.2664 187.0932
1414.2306 180.34143
1405.5708 184.14958
1399.8558 176.31566
1402.2134 166.59592
1403.3169 157.94667
1395.2926 154.4144
1394.6726 148.86156
1402.3839 149.81046
1400.8383 140.92351
1409.2661 136.98138
1416.8728 131.11444
1417.5027 119.80032
1419.918 110.28902
1430.2731 113.48482
1423.4534 103.44508
1428.9451 94.34045
1433.6619 87.414696
1439.472 81.427444
1426.905 75.8524
1434.5349 74.5703
1441.1799 74.70282
1447.0498 70.73249
1447.248 60.890915
1454.7532 62.64489
1454.2239 52.03219
1451.7117 42.35347
1462.0208 34.613697
1468.0776 41.718113
1479.1777 38.476486
1482.5232 28.764145
1474.9473 23.992943
1465.7661 25.115845
1453.5198 27.424126
1445.9851 34.94821
1439.1565 37.395008
1439.2412 46.040665
1441.5925 52.0453
1438.538 58.506218
1441.2091 65.546265
1434.522 65.45647
1428.784 62.297234
1421.5515 58.751812
1415.4619 51.57266
1408.1187 56.324287
1413.528 61.228462
1417.4187 65.187485
1422.1819 69.136475
1410.3857 68.6929
1406.0024 75.85651
1400.1357 82.377556
1409.0825 84.43174
1418.7231 83.7245
1416.6597 96.98257
1411.9993 105.07002
1404.9119 104.13888
1407.0625 94.196884
1399.5466 96.93593
1397.6992 88.419
1393.3855 93.65375
1392.7633 99.79872
1392.444 104.30865
1399.0637 105.26793
1393.7072 110.392815
1387.7235 106.0721
1386.9467 111.78249
1395.2494 117.04405
1401.2795 113.88647
1408.578 112.81291
1405.9597 122.98727
1400.9458 131.4177
1395.5432 125.1155
1389.4878 135.60791
1389.5956 144.96033
1380.3783 132.78871
1372.092 122.433525
1380.6486 123.75537
1388.22 121.196014
1379.5608 113.52544
1383.0287 103.41199
1373.0779 102.47537
1364.7012 97.56024
1353.6506 91.4052
1340.8901 98.6087
1346.0466 107.22742
1349.7097 99.92358
1358.7751 105.15907
1369.7336 111.82595
1360.4675 116.25899
1351.6758 112.9074
1339.344 111.30276
1331.5857 103.505554
1322.1942 102.670525
1311.4128 101.73574
1300.4061 96.593895
1310.9092 85.42366
1307.2263 76.08568
1302.2344 67.78926
1305.0842 59.886147
1312.369 65.851204
1315.2094 58.47281
1317.2533 51.247864
1305.3989 47.266502
1302.5448 35.731068
1304.961 24.300606
1300.3732 15.069981
1308.7936 12.236666
1317.1434 12.431518
1316.7269 21.036879
1321.5334 28.960905
1314.1055 32.40335
1320.6853 41.62751
1326.9769 28.346601
1331.0498 33.88646
1335.7698 42.046776
1329.4205 53.44856
1339.5176 54.037773
1347.2695 49.856792
1348.1079 37.83609
1355.3335 30.420769
1352.0038 20.648848
1339.6144 25.873943
1328.2222 22.257256
1325.491 12.945281
1333.5602 13.972542
1341.5146 14.329046
1348.1436 14.456355
1356.5977 10.969305
1364.6921 12.771845
1371.6799 10.125295
1371.7834 17.08051
1385.2329 16.523144
1375.9069 27.100294
1367.5453 27.496479
1363.8074 20.226252
1358.5396 20.00719
1365.3654 32.335854
1365.1659 39.83298
1367.7146 49.57203
1359.4207 45.797665
1356.3765 52.117657
1349.4211 58.196728
1355.1206 63.300644
1355.9797 71.7696
1346.4663 67.997025
1339.5631 68.903656
1334.7795 64.414536
1328.6323 63.827435
1322.0964 61.698814
1322.0842 69.17752
1316.065 74.39011
1321.5774 78.347565
1323.8473 92.599266
1336.312 91.74126
1328.6537 83.255005
1330.6759 74.081604
1340.9126 81.41986
1349.7905 80.00483
1359.8914 81.77588
1371.28 87.79556
1379.0321 95.441376
1386.4609 93.62152
1387.0627 84.83551
1380.1139 76.30646
1369.0627 77.05545
1368.6166 67.57449
1365.0457 59.351547
1375.1486 54.82237
1380.3076 61.963753
1385.8707 67.31545
1389.6133 56.56984
1392.331 65.849655
1391.2051 75.077415
1399.9106 72.39399
1398.6128 67.036125
1399.3193 60.657913
1399.506 50.50058
1384.9557 45.866478
1377.1609 40.049744
1393.0032 40.23518
1394.1962 27.814873
1403.7654 14.092873
1415.9895 23.837414
1407.7122 29.177961
1408.5115 40.79877
1420.9921 43.789658
1426.765 51.745018
1432.771 53.00843
1432.282 40.578815
1424.769 32.337715
1420.1534 17.684315
1417.7373 10.561963
1425.432 10.3337965
1428.2346 14.073471
1432.218 17.22919
1435.8446 23.434477
1440.0419 28.651724
1440.676 12.893774
1447.8657 17.434465
1455.975 13.972365
1464.5356 13.103732
1472.2736 13.617117
1482.3358 14.377613
1492.3766 16.472292
1501.7565 14.483963
1508.3793 10.745892
1515.5615 11.563205
1521.5254 14.286734
1514.5288 18.506907
1508.2295 21.95377
1499.8079 27.905914
1490.5209 28.673018
1493.2407 35.75542
1500.8134 40.02321
1507.324 43.470886
1510.8518 32.423122
1518.3943 25.468718
1524.7437 31.060173
1535.5864 23.622486
1527.0612 20.78424
1529.7335 11.894516
1538.3994 13.548625
1547.3367 13.297053
1546.2648 25.266808
1546.6403 36.679047
1554.7512 39.05538
1561.8257 33.07248
1556.8685 27.22427
1556.3298 18.04247
1559.8987 11.302975
1568.3324 11.356269
1569.1614 18.196526
1573.0825 24.416897
1565.7334 25.514044
1570.5658 32.413612
1577.4036 28.396126
1582.2336 31.870413
1586.6991 23.271225
1581.5917 17.28103
1577.0906 11.892772
1590.1438 13.860709
1597.95 12.068194
1604.6434 15.454509
1608.9429 23.47255
1604.5511 35.189598
1604.0803 27.98863
1595.9143 23.230206
1593.5453 31.432945
1586.7241 33.001682
1579.3688 36.780907
1584.9366 43.479397
1592.48 40.573742
1592.0568 49.340878
1588.1929 56.70538
1583.7817 64.979416
1585.2634 74.016525
1583.5286 81.66551
1585.5789 88.14407
1587.1906 97.49093
1577.7856 103.10303
1571.4675 94.311035
1568.1561 86.22979
1559.1216 89.088005
1558.629 98.66684
1561.2062 107.24541
1553.3098 110.846405
1547.7043 110.58846
1542.57 108.041306
1534.2249 104.13091
1541.0304 96.95552
1548.1062 102.743774
1550.4812 94.92561
1552.2024 84.26332
1548.1788 77.764206
1556.0668 75.11879
1561.0388 79.15632
1559.3706 68.32663
1564.3301 63.90886
1571.0131 59.05001
1568.6116 76.76054
1576.6312 77.91009
1574.2734 69.0715
1576.7689 62.304943
1580.5557 58.03912
1580.4974 51.020138
1576.5662 43.938442
1573.033 37.639175
1566.0405 40.295216
1568.6971 49.833553
1554.1069 48.874447
1557.7356 56.238914
1550.877 65.646225
1542.9641 66.46298
1538.5583 56.544674
1532.7678 63.43913
1524.3745 63.60759
1516.6968 63.921738
1515.5234 68.620766
1522.5221 73.629364
1531.6885 72.21496
1522.8044 82.97788
1530.1677 83.147766
1539.2041 77.63599
1540.5496 86.28238
1546.5991 90.00156
1533.913 92.00113
1525.8293 93.57083
1522.4891 100.464775
1522.196 109.865295
1512.7206 111.58383
1507.5287 117.67122
1510.352 125.5065
1515.6018 133.00223
1522.837 140.42459
1521.7773 147.89378
1526.6703 149.69717
1533.47 144.2579
1543.7283 141.92145
1535.2085 127.811035
1526.5056 132.76086
1521.302 121.25423
1530.6113 116.05602
1537.8538 113.291016
1543.0151 118.12001
1547.6377 122.08132
1548.5901 131.30374
1558.5452 129.41165
1568.1796 126.39119
1564.0071 127.72289
1554.9744 121.72027
1560.8201 119.34361
1567.8909 111.926956
1570.7871 120.75223
1579.5115 125.622604
1573.8809 128.61722
1568.7468 132.88147
1566.3939 137.33955
1564.5752 145.07306
1557.8313 137.70937
1555.3608 146.92967
1565.0303 153.54411
1562.0009 161.00114
1565.9137 169.07114
1577.8567 174.85785
1573.7688 168.93219
1572.4473 160.56384
1580.8606 159.50624
1575.3168 151.85191
1573.3748 144.58975
1575.3828 136.16135
1584.9739 130.568
1581.9191 138.74075
1586.2598 150.71985
1591.4009 145.42145
1590.9711 138.03467
1596.7117 133.69255
1604.6182 128.73471
1609.2649 136.69568
1603.4993 149.3428
1616.5364 141.96869
1620.9037 154.01752
1625.6104 144.18178
1625.5498 134.43105
1621.9344 127.66254
1613.4066 122.85942
1617.002 113.95433
1623.9714 117.41921
1621.0989 109.14779
1628.9824 101.75658
1624.1836 105.04588
1615.8767 103.958885
1610.783 109.285675
1605.0426 113.28948
1600.3264 119.51987
1592.23 125.153824
1585.7739 119.92465
1578.406 114.72469
1590.5497 112.20984
1596.3386 106.24456
1604.3433 103.54645
1595.8673 99.098595
1595.9075 88.6931
1597.4768 78.24048
1589.98 69.7215
1595.1902 65.78638
1598.7908 55.52621
1601.471 47.269344
1602.2932 41.096443
1612.047 41.8665
1612.312 49.79614
1610.2471 56.59156
1603.4067 66.11261
1613.202 66.003586
1612.5999 74.87208
1612.044 83.918915
1605.2278 87.39267
1602.5322 95.17717
1609.9624 98.67067
1616.7018 95.34439
1623.4507 94.69341
1629.4878 94.21646
1635.6984 94.771576
1637.469 100.41315
1637.3958 106.9198
1632.0142 111.365166
1642.6426 111.59188
1645.0105 104.871216
1649.3413 98.75963
1654.8192 83.97786
1658.44 90.66972
1661.9927 98.17906
1664.6697 106.602165
1657.2717 110.20155
1650.4165 112.04748
1648.5908 118.92858
1642.7863 123.93026
1634.9963 118.794
1630.5659 123.86257
1634.6394 130.60565
1634.6962 139.12422
1634.9031 150.14351
1644.3412 149.34457
1646.2549 139.04036
1647.1736 130.4205
1658.1749 129.6897
1663.4285 121.375534
1670.7075 114.98544
1678.6257 110.086716
1683.3612 116.56146
1694.3789 114.10805
1698.1227 119.1531
1705.5013 112.69793
1704.3928 122.58963
1698.9141 125.72739
1695.1421 128.2266
1689.5615 126.709335
1681.6183 127.54114
1673.0178 125.68219
1670.9355 133.19824
1673.4572 139.62413
1665.3545 138.25677
1657.4835 140.495
1653.8857 148.1984
1663.8873 151.36446
1674.376 148.515
1680.8501 160.72159
1694.9038 152.39307
1685.1294 148.15926
1681.4443 136.9283
1691.2861 139.62093
1698.3789 138.50153
1701.6411 132.0374
1705.29 138.90063
1711.204 134.92932
1709.238 126.99822
1717.6023 126.73097
1721.0438 118.70557
1712.2966 118.231064
1716.2523 111.97503
1724.6976 110.74722
1722.0514 105.826004
1718.7773 101.12691
1710.9655 104.693985
1701.8099 103.21353
1695.3196 104.89681
1688.1636 107.31799
1689.207 99.408875
1680.707 99.86367
1674.0657 106.65356
1671.938 100.84366
1670.103 91.97674
1672.386 83.37924
1667.3726 77.25746
1663.3662 69.94177
1668.5034 66.05336
1665.6232 57.737907
1661.4565 50.82214
1654.8162 45.65271
1648.9833 47.43861
1643.2863 48.777412
1639.0613 54.214138
1644.603 60.346222
1652.0806 55.896263
1655.9735 65.712746
1659.1917 74.71044
1653.282 74.487564
1647.0813 77.84005
1646.2507 83.90367
1644.4905 91.35718
1638.4143 87.047935
1639.1746 79.8623
1647.8206 72.28313
1648.9999 66.49623
1643.1647 65.74326
1633.882 62.781902
1640.4993 71.379745
1633.2206 73.87492
1630.7921 80.313156
1631.1548 87.56841
1622.5094 85.01846
1621.8157 75.17224
1625.6855 67.208885
1622.168 55.807434
1630.3257 52.556652
1635.0673 46.939735
1632.7122 42.44557
1621.9658 44.385387
1621.7983 34.817757
1616.4187 29.723677
1615.5255 21.349546
1613.7131 12.878965
1623.9677 12.373674
1632.7517 12.489604
1638.9463 14.917564
1645.4122 10.129023
1649.2174 15.929675
1641.8936 22.99686
1632.6057 25.347334
1624.2509 21.694447
1630.4652 36.07638
1638.0752 37.26635
1642.9248 41.388023
1648.3955 39.803833
1654.2328 38.5192
1643.7213 32.30462
1650.2595 26.079758
1655.4885 33.391228
1661.4941 30.062584
1659.109 21.827187
1658.9116 12.430819
1669.79 14.717993
1681.7214 13.047564
1694.6549 12.863281
1696.5966 26.955868
1696.824 33.08949
1692.3698 37.718674
1697.3169 40.413727
1696.0515 53.991608
1692.3593 61.372845
1692.4329 46.317623
1685.0293 40.885075
1679.544 33.88215
1688.0524 30.518873
1690.4768 22.052841
1681.3983 23.043709
1671.2976 25.859085
1669.4207 36.213737
1662.4457 41.8564
1671.3164 46.830532
1679.2028 46.75067
1686.0505 53.380035
1677.0099 59.10562
1683.8088 66.580215
1680.2819 76.067
1681.3132 87.93637
1688.7036 92.57198
1697.4573 94.73558
1695.1206 87.130424
1691.3806 82.01196
1690.1382 77.767746
1688.7118 72.28793
1696.0369 72.136116
1701.604 67.43795
1707.3999 61.769257
1704.8492 52.191723
1702.6509 42.756466
1712.8428 44.049988
1715.77 56.097942
1723.0669 64.897896
1715.7798 68.87709
1708.9019 72.38809
1703.6112 77.23415
1702.1514 83.73093
1705.5137 94.42523
1712.3187 93.55062
1713.9624 86.59474
1711.7241 79.6265
1719.1206 80.04495
1720.9065 89.80999
1722.6482 96.89319
1731.6274 100.72783
1730.4663 92.52874
1728.7585 85.370316
1726.9657 76.672615
1739.6882 81.9606
1740.7954 72.05737
1750.0143 73.76254
1757.3691 64.97151
1747.685 61.41642
1738.9397 59.85534
1738.9542 65.20441
1731.5494 68.92799
1730.0374 58.35054
1738.9973 53.368896
1733.2855 47.85481
1742.4984 43.638977
1746.7963 33.550674
1738.2612 30.68079
1731.4478 26.758743
1732.2299 39.650055
1722.9707 49.54377
1722.565 39.837463
1725.2697 32.3976
1716.5537 31.463093
1708.6531 35.839973
1703.801 28.626484
1699.3698 20.570822
1705.3878 17.07847
1710.0641 11.545633
1715.4958 20.678055
1710.1033 25.897345
1721.9413 25.604116
1726.4402 19.68696
1721.5583 12.872691
1733.4955 16.577787
1739.1646 13.237688
1745.1204 18.490402
1751.8175 21.576439
1756.2656 15.317024
1764.1608 19.086939
1770.4573 26.176512
1760.6255 24.96288
1757.5881 30.828075
1756.3715 40.315918
1750.9813 50.036964
1759.7103 54.54458
1769.2468 49.983208
1769.4651 39.19464
1781.8868 28.709753
1834.0204 64.31453
1839.0632 63.58629
1843.6672 67.15573
1844.7354 73.50753
1851.6552 74.46901
1855.771 81.652626
1859.1613 87.86679
1859.0691 94.80063
1868.3173 93.54757
1875.5095 105.58691
1865.5605 104.05649
1857.6746 101.12297
1857.3915 107.85055
1851.9043 104.923645
1848.9011 107.16442
1851.4108 113.5357
1845.7646 115.41057
1841.269 113.981964
1845.308 109.07942
1844.2981 101.885765
1851.9153 98.97763
1851.6312 94.282166
1852.4541 89.99042
1849.8882 87.41144
1844.9678 88.430405
1844.9492 94.79211
1835.0579 97.0327
1834.858 87.10254
1843.4928 82.65622
1836.0145 76.6193
1831.4373 70.82404
1827.1084 80.33009
1822.1014 86.38368
1823.4993 93.15991
1812.7585 88.2211
1815.984 99.228325
1819.5747 97.27486
1825.706 101.88717
1836.7087 106.34859
1833.5337 113.763214
1838.5472 122.906876
1829.5083 128.83035
1827.4132 118.68597
1823.3793 109.5081
1812.78 109.49444
1812.303 101.73857
1806.0316 103.113174
1802.8926 107.89958
1800.0696 112.484344
1791.8115 117.688255
1800.4115 119.72146
1808.8676 117.65466
1817.9312 116.964035
1820.5328 125.76509
1812.8584 133.43335
1809.1504 126.72692
1802.5577 128.62213
1795.6826 128.3753
1787.0212 129.05046
1779.1982 134.45049
1774.9355 142.54797
1766.4177 146.71155
1765.5627 158.25226
1773.6407 153.08151
1779.778 150.29152
1785.544 150.31616
1782.4978 140.48145
1788.1211 142.00742
1797.5913 138.87411
1803.5477 145.80038
1810.573 142.54787
1819.5148 138.322
1825.9504 139.82321
1831.9359 138.83969
1838.0925 132.43056
1849.1687 120.58496
1853.1528 125.40221
1846.4558 129.9194
1845.4128 137.44492
1840.314 144.10452
1830.419 155.21324
1828.3652 149.29065
1823.0637 146.7582
1818.1201 148.80806
1811.9609 152.72612
1815.3673 160.80109
1814.0625 171.12726
1820.5557 181.28638
1832.9896 180.89099
1834.0555 173.48021
1827.7622 165.70956
1840.5002 161.11578
1843.8645 153.08406
1849.8284 149.59555
1853.241 144.57993
1855.9884 138.2934
1853.169 132.90839
1858.3766 130.4661
1863.5488 130.17395
1861.929 122.53534
1860.2649 114.63699
1871.7493 115.2882
1882.6803 119.374344
1878.077 126.05874
1870.0917 126.36526
1870.8391 135.02402
1863.7635 137.20941
1862.7825 143.73816
1870.3463 142.87288
1871.7017 149.7476
1878.9097 143.54327
1881.7827 133.0763
1888.7366 138.5894
1889.0421 149.19669
1875.0486 154.4325
1883.1572 158.08061
1895.5504 159.47629
1893.8005 169.30173
1888.134 173.49945
1895.769 183.97699
1897.9277 193.79202
1893.4711 200.22235
1892.9454 204.72472
1896.5175 210.5252
1890.8691 212.90375
1886.3573 207.08817
1874.9232 205.96832
1883.2653 199.21545
1889.3333 194.33037
1880.1824 189.25566
1885.199 181.29776
1878.5469 176.33775
1871.1255 177.89476
1862.8391 176.28996
1877.8586 168.30887
1874.2471 161.97214
1867.3169 168.44957
1860.5814 164.03128
1866.3594 157.78596
1861.363 150.46945
1854.718 156.75117
1852.3732 166.2319
1845.0635 172.29999
1854.042 177.11243
1846.65 182.354
1838.9565 185.27586
1851.526 188.38213
1855.7744 185.1076
1862.8713 185.2909
1870.2767 192.91321
1860.2849 200.29607
1854.9197 194.29291
1845.0974 192.47128
1838.6505 194.09106
1833.9006 195.76123
1827.8885 189.37231
1814.0186 190.5772
1811.5215 199.63847
1806.6599 208.75224
1797.9348 211.92389
1790.1238 206.55801
1791.6715 212.90039
1790.2571 218.12016
1786.1902 224.31946
1795.0039 229.24643
1787.0262 233.9144
1779.2966 235.98515
1779.6732 245.95915
1773.7675 251.64536
1767.1931 252.38144
1768.1663 260.13116
1773.8247 263.96112
1775.1267 256.8744
1781.1194 260.95688
1789.0259 260.90808
1791.5532 253.48767
1783.8365 253.91208
1787.8638 245.20499
1793.9418 246.45425
1798.4729 251.86314
1807.752 256.46204
1812.7169 260.1372
1809.9574 266.45514
1803.3021 266.8096
1800.8109 258.531
1794.8032 258.70074
1795.9114 265.66376
1794.926 273.70642
1803.782 275.80933
1811.2948 276.0511
1818.3203 282.12775
1818.8842 294.25635
1825.9563 292.05646
1830.7252 287.14804
1829.7173 277.58264
1823.0803 274.69006
1817.219 269.84192
1820.1936 263.52234
1822.6201 257.7318
1826.871 253.09642
1825.604 245.91425
1835.0278 250.16098
1832.0017 261.44287
1827.648 267.0614
1835.5181 269.46796
1842.5729 270.24368
1842.0128 275.36963
1837.1305 279.6386
1845.3864 284.9755
1839.5328 287.1612
1837.9712 295.55695
1829.4076 301.89526
1823.8752 309.169
1815.6011 306.37207
1808.3198 312.74527
1803.7617 306.50998
1807.6765 298.61945
1810.2458 288.69305
1802.3088 285.9784
1794.5648 299.0464
1794.0645 310.0323
1784.3528 308.9069
1781.4271 301.32758
1770.8291 296.65253
1771.539 308.9207
1762.4279 307.0171
1761.505 315.3845
1767.0057 322.17194
1777.7499 319.377
1788.2068 318.61075
1795.9788 322.43866
1800.3638 313.56143
1809.7363 320.08682
1813.5662 315.59546
1819.4442 315.48163
1823.8987 319.71783
1825.6007 325.48004
1819.9316 329.26193
1817.2463 322.41492
1811.8436 325.79044
1812.4436 331.55524
1814.9745 335.41675
1809.4741 339.76556
1805.0205 335.4826
1805.8555 328.59625
1803.1133 320.82248
1795.022 329.4461
1789.0979 335.14288
1799.085 334.08185
1801.0718 341.58148
1794.9082 342.31354
1789.1079 341.6889
1787.2285 346.99805
1784.7291 352.7954
1795.4674 351.11188
1804.2665 348.7208
1803.7289 357.18378
1805.6489 364.70392
1813.9799 361.4181
1814.4602 352.3139
1810.6409 346.9098
1815.6926 344.5477
1818.0144 340.50003
1822.5254 335.91058
1826.656 332.03458
1831.5728 332.67612
1834.0648 336.56442
1830.3557 337.6868
1827.9852 340.27383
1822.9036 341.8051
1825.959 345.43234
1832.3444 348.1688
1832.9681 343.82867
1836.7493 340.9897
1838.7646 349.08765
1846.7479 344.25034
1850.3081 350.7169
1844.4946 353.13058
1846.665 359.55234
1849.7874 365.97458
1851.7788 372.74866
1856.8733 372.344
1861.7268 370.98325
1866.4551 364.46643
1867.992 355.1666
1857.9661 364.44275
1858.1777 355.9897
1857.8005 346.5691
1865.2375 340.03754
1872.4509 348.28253
1876.9457 342.85248
1877.2588 335.7406
1870.6794 329.90613
1862.5981 328.6838
1856.4224 337.00934
1848.8848 336.7325
1842.1902 336.85385
1837.0973 332.4858
1831.9729 328.03775
1832.0325 322.97913
1830.8916 317.37964
1833.3741 313.0472
1836.2332 308.43643
1842.8801 306.04544
1848.8029 299.37357
1851.0305 292.46262
1852.5876 284.8467
1848.7854 277.31696
1851.6528 269.4884
1858.1282 263.15314
1864.8323 261.4244
1863.0221 270.29068
1857.5219 278.4841
1868.2178 282.51105
1867.0505 276.50754
1874.487 271.5039
1882.4004 274.2303
1878.1426 279.67862
1875.1206 285.50665
1871.6405 290.46234
1866.9797 290.9395
1860.4922 288.3238
1861.9025 296.13074
1858.3167 301.2853
1853.9397 306.51102
1850.6361 313.45557
1842.5872 318.1034
1840.6981 326.4245
1850.71 327.3379
1856.239 321.00845
1863.0327 319.92316
1869.5002 319.34464
1878.6992 324.48035
1887.0559 325.27133
1886.1749 318.60358
1885.7485 311.1532
1881.1323 307.5698
1876.4979 309.66788
1875.0928 315.31906
1868.5887 310.43692
1861.1807 311.15305
1865.3944 304.86194
1867.6492 299.35916
1873.1799 303.093
1877.2823 294.77225
1882.3494 301.86823
1890.2112 298.78787
1890.7385 290.02957
1882.3549 286.78525
1890.3256 280.66055
1897.6981 272.8832
1889.433 271.3096
1882.1693 266.2638
1883.7346 259.99557
1894.0135 261.03537
1897.051 249.07536
1889.4915 244.20123
1898.4845 236.41258
1893.8257 227.65576
1896.4465 219.27654
1886.6129 231.68393
1878.685 239.12463
1879.0332 246.47113
1884.2937 252.82079
1872.5942 262.49832
1866.4353 255.53459
1873.1127 253.00058
1870.6001 244.10214
1876.5165 232.2324
1880.8567 230.30064
1881.3578 222.16678
1882.2609 215.26376
1873.0238 222.43016
1870.293 231.55145
1864.7858 235.31146
1856.5394 237.9884
1861.6409 245.63422
1861.6537 252.2717
1854.0371 252.70714
1849.1409 259.46594
1843.5205 264.8961
1838.5193 259.68692
1842.931 252.897
1845.0372 244.26398
1847.8464 235.9667
1849.3894 227.14696
1839.5004 227.42441
1838.3419 235.92168
1832.6993 243.01187
1828.6823 237.79657
1822.2152 233.86728
1818.5293 241.82227
1815.9971 250.40556
1807.1042 249.72356
1802.6804 243.80786
1796.5845 240.80411
1802.9478 231.88828
1808.9325 239.6847
1813.5897 231.77365
1819.8252 226.33322
1827.5267 216.9254
1825.3065 223.50275
1831.0818 230.80344
1833.0054 223.39685
1835.0315 217.27068
1840.4851 220.19601
1844.898 215.40756
1850.1323 216.72394
1855.32 218.93596
1862.3049 224.3352
1865.6672 214.67528
1861.8723 207.92618
1851.703 208.72433
1844.3416 203.08383
1838.8528 211.28838
1832.4553 209.52159
1825.6531 207.09137
1828.6257 199.71878
1819.0265 205.78696
1816.4753 212.53647
1815.2905 218.34137
1811.5276 224.16234
1806.3657 221.70908
1801.3652 222.97382
1796.8303 221.64584
1801.6191 218.24126
1802.5956 214.97209
1798.6846 205.79741
1797.9734 199.70197
1799.1971 191.26791
1805.3481 181.57268
1800.5259 175.33775
1792.8035 176.901
1787.9111 178.36035
1789.5527 186.51456
1788.3708 194.12242
1788.1328 200.2102
1778.548 198.25977
1780.3369 192.01999
1779.9143 183.82217
1776.8967 177.89209
1770.6516 172.94292
1777.1069 172.1342
1783.6759 174.31927
1783.9071 167.90607
1793.7418 170.63127
1798.3483 166.31088
1803.2448 159.73128
1802.7858 152.5162
1793.9128 149.80817
1793.1261 159.76776
1786.717 156.57443
1781.7615 161.1542
1773.7935 165.2934
1755.5905 163.9597
1746.2661 176.83218
1742.315 187.25133
1750.4788 201.91785
1743.6472 211.09955
1742.5905 205.87523
1739.6777 197.64807
1730.4606 195.7445
1721.8511 202.26984
1731.4928 207.12216
1730.6976 215.65323
1724.282 217.6544
1725.0059 232.33218
1732.7903 227.3005
1738.7278 215.28056
1738.5823 223.7191
1746.9539 229.26166
1749.8942 236.09113
1757.1038 237.0706
1763.3318 239.24895
1763.4559 231.58282
1758.9783 225.6417
1747.7815 219.35922
1756.6868 216.56216
1764.5073 214.87677
1769.3027 210.23343
1760.2911 207.98369
1757.7814 201.8353
1756.2588 190.24199
1757.8435 181.53642
1755.6587 173.30606
1764.0569 169.94289
1767.0322 179.90623
1770.0428 188.80893
1766.3907 196.73906
1765.2059 203.13339
1772.6489 203.10538
1777.4348 206.87582
1783.788 207.32237
1780.9677 214.52292
1775.584 219.57452
1771.3206 225.12163
1771.5027 233.08104
1772.0481 240.25694
1771.7118 245.59274
1768.7161 247.81458
1765.0732 243.40213
1764.4573 247.59412
1761.4814 255.20732
1761.6686 260.962
1748.668 267.54242
1753.0563 261.32242
1753.4346 253.76309
1758.9878 248.38715
1752.6199 244.08202
1745.1594 245.10672
1740.0948 237.96202
1729.9606 242.3496
1727.7362 255.53654
1737.4141 249.08932
1746.0457 252.47397
1742.4111 260.774
1734.0874 262.73
1734.5035 272.25555
1741.3591 274.36194
1746.7002 277.45386
1752.2615 274.66452
1758.2854 273.06073
1759.3632 266.50897
1764.1562 268.9505
1768.1997 267.80988
1770.5007 272.29895
1776.885 270.82593
1781.6069 266.59875
1787.119 269.54535
1783.0032 276.78378
1787.6746 281.81366
1794.8584 282.35022
1792.9288 290.2691
1785.1858 293.3424
1776.8131 293.88632
1780.5764 286.06567
1774.2968 278.40454
1769.4214 285.79907
1764.7583 278.17834
1757.8179 282.5304
1749.9479 284.85284
1750.4587 295.3562
1757.4292 290.7279
1764.8011 296.11896
1759.3358 297.77405
1755.3529 302.05792
1754.447 307.8495
1748.5037 309.21936
1743.7781 304.29266
1744.4788 297.52426
1733.7236 298.39694
1740.135 292.88342
1742.1665 285.96948
1732.8335 287.20407
1730.6239 280.49283
1725.9608 271.29187
1720.12 291.00815
1722.6112 300.86606
1724.5809 309.05563
1712.6741 316.1032
1716.7618 325.80292
1728.5452 327.7165
1730.3447 338.3792
1737.0813 331.11658
1739.904 337.05884
1742.843 343.95068
1749.5801 347.2684
1758.0142 349.21515
1755.5049 342.33423
1748.937 340.1936
1747.0369 335.9971
1747.346 329.28864
1742.864 319.64066
1737.7562 323.75793
1732.4546 318.84863
1725.373 316.90512
1735.6366 309.4817
1745.7916 314.7417
1752.4814 317.26175
1757.2712 318.34836
1755.8789 326.28836
1758.435 334.32416
1763.3906 342.16342
1769.2866 339.45392
1770.5925 332.3452
1778.2217 331.9168
1784.7766 327.60626
1781.6034 341.39975
1775.6935 346.09235
1767.3007 350.85327
1767.5298 361.4979
1776.4028 357.546
1784.5688 361.90314
1793.5817 361.81396
1796.8235 373.93967
1803.9894 371.99365
1810.5342 372.90903
1814.8413 375.86667
1820.7394 376.56442
1826.9171 374.63324
1826.363 384.80524
1832.4962 378.72775
1837.6466 373.73798
1832.3295 367.603
1826.8102 362.81995
1820.1255 368.22836
1822.4061 360.1651
1819.1416 356.49265
1822.5236 353.11932
1823.4246 348.9105
1829.6149 353.79477
1831.8135 360.04156
1837.6362 358.0433
1840.0773 366.16132
1843.7443 370.4306
1846.361 373.83832
1846.7063 378.41522
1854.0297 377.41635
1853.3976 381.46823
1849.0735 385.51523
1843.5747 385.78308
1838.7882 381.0222
1838.2894 391.78802
1829.9426 395.38058
1827.9781 406.0233
1814.7678 405.6192
1818.3068 397.70004
1818.6606 390.00336
1816.5977 382.74194
1808.7732 381.08325
1807.2622 386.55743
1806.5272 394.7306
1799.781 387.8458
1794.3086 382.1063
1787.4365 385.20688
1789.2039 390.54672
1791.8982 393.0694
1797.2499 395.6364
1803.2368 403.3941
1795.0326 402.6805
1788.64 402.8282
1786.4473 397.4122
1781.4493 392.7129
1777.0643 387.22015
1766.0437 392.50922
1771.829 398.9328
1778.033 400.9403
1779.6179 408.46265
1788.0818 414.34448
1796.55 411.96613
1807.0465 412.55695
1800.7158 423.30115
1786.9857 425.0614
1777.6395 420.77084
1768.7385 419.3484
1767.367 410.45184
1763.6301 402.7684
1757.1932 395.91125
1753.7244 401.60175
1756.0526 409.15283
1752.79 415.30246
1746.3428 416.45276
1756.0415 424.29245
1760.9496 418.89062
1771.377 429.01514
1765.8745 433.58923
1759.2568 441.33405
1753.2673 435.06808
1746.9833 428.51935
1738.6113 440.15097
1726.6539 441.30774
1715.4004 441.59564
1721.6298 434.91644
1716.7797 431.0173
1725.0779 427.77255
1732.4856 428.9298
1735.4978 423.18036
1741.8434 423.38913
1737.2842 413.7387
1745.7234 406.42062
1744.2334 396.19955
1734.7668 402.57666
1723.6929 397.4792
1723.2842 385.48853
1714.8579 387.03748
1707.8466 394.79987
1706.2639 386.24207
1707.9893 380.28735
1713.372 376.089
1721.3809 372.1616
1719.3608 360.7916
1712.6326 365.91974
1707.1947 360.75876
1701.6968 362.15192
1696.4961 364.63147
1702.9976 375.89804
1696.5549 372.65634
1685.3452 374.2821
1688.562 366.98877
1681.7551 365.25204
1688.0605 359.34827
1694.3129 353.87823
1701.1675 349.65524
1706.0212 346.58893
1711.7549 350.74203
1717.8602 352.80463
1725.9612 355.8441
1732.6475 353.95383
1730.8003 365.5381
1735.3983 375.23264
1732.5651 386.28036
1739.7727 389.17712
1745.7178 383.3586
1750.47 375.67133
1754.4951 382.60468
1752.4155 390.30945
1760.3342 386.05103
1768.8744 384.61035
1773.2161 379.53632
1781.2571 379.29477
1786.2124 372.19907
1776.4934 374.21558
1775.439 367.9011
1769.3855 372.75742
1763.5181 376.8141
1759.0991 369.0999
1756.9629 358.6284
1747.6892 356.0764
1746.042 366.98923
1738.5884 360.56015
1738.6191 354.57623
1742.329 350.5916
1737.6455 348.48215
1736.0168 343.9779
1729.6926 347.2463
1721.6215 347.36877
1722.2952 341.4422
1719.7205 333.94025
1711.6523 338.8438
1701.5869 332.1443
1694.5331 343.8303
1685.1716 351.35007
1679.6617 346.33838
1675.4534 355.8385
1671.2621 347.0377
1665.1705 352.90204
1663.9454 360.7163
1669.7051 361.4098
1676.3882 362.80682
1677.7557 368.43115
1675.4983 372.37546
1669.1943 369.32846
1663.6565 372.71384
1657.7161 365.01935
1658.9939 369.77695
1656.1589 375.89838
1653.7491 383.2142
1651.4374 391.18872
1647.3693 397.446
1640.3289 396.6329
1631.7035 395.94342
1621.2979 395.0398
1617.428 403.15686
1615.7151 411.23602
1626.3636 411.73215
1632.8188 406.38608
1640.918 407.45288
1643.5618 414.61328
1649.5051 411.83215
1650.7528 405.64465
1658.7046 402.63583
1663.9243 396.15814
1661.5479 387.05353
1666.6785 379.6737
1676.5813 380.19202
1683.7985 385.1965
1691.6766 380.2281
1697.4972 387.10156
1696.4565 396.54077
1688.8835 391.7671
1680.9363 394.1457
1671.5808 390.21814
1675.1755 401.04712
1687.654 403.57654
1681.3126 405.4867
1677.2308 413.77673
1687.8103 417.12286
1695.066 422.55273
1690.6096 429.49716
1697.083 436.1566
1700.3422 429.99338
1703.4409 424.98694
1703.1 418.99432
1697.3167 413.69403
1695.6663 405.59906
1704.6611 407.8567
1712.0747 403.03607
1712.0863 411.6004
1709.385 417.44257
1714.496 418.92404
1720.4071 414.32098
1716.5393 412.1728
1721.0741 406.2752
1727.7798 410.05457
1728.4149 416.4272
1725.4745 420.58575
1720.9286 420.21176
1717.7832 419.56818
1717.4753 424.2867
1711.026 426.39755
1707.5605 432.50165
1704.6528 438.26523
1705.1875 445.94794
1696.4363 450.3441
1697.6371 443.4026
1690.2466 441.86755
1683.2705 436.20905
1680.5626 445.46393
1686.596 454.24725
1675.4907 451.7492
1667.69 450.93628
1672.9153 442.8724
1675.1582 433.24777
1678.3306 424.21002
1667.1873 428.25803
1663.357 420.3353
1668.9126 415.83347
1670.2251 404.68307
1664.3823 408.77072
1657.3895 414.1838
1651.2452 418.17746
1650.7073 424.0515
1656.4259 425.37836
1660.1866 428.94492
1659.7922 434.67566
1663.2843 436.39032
1668.863 436.32428
1666.7229 441.79977
1663.1288 446.1158
1658.1971 451.99387
1651.5824 450.67685
1642.3339 450.4597
1635.0579 448.8932
1630.9978 454.8834
1636.5653 453.7402
1645.3925 444.69003
1647.507 435.65048
1652.1963 442.25412
1658.7025 443.26898
1656.0906 437.68542
1654.4349 432.0871
1645.2826 427.8606
1642.7783 421.4321
1635.8168 417.6095
1634.3838 425.43793
1625.1486 421.63757
1626.0076 430.86176
1636.5419 430.48767
1638.3597 434.9527
1637.2563 441.78247
1628.2633 440.71945
1618.4534 441.328
1624.0592 450.4878
1610.6638 454.96057
1605.219 448.96188
1593.3418 451.96722
1585.4993 450.64523
1588.69 442.76837
1592.345 438.40497
1596.9875 440.44458
1603.2181 441.0787
1610.3296 437.9703
1614.3499 430.2678
1615.5664 424.04858
1617.6824 418.53867
1611.7495 417.07922
1607.6094 424.71808
1606.6489 416.55478
1602.188 410.23553
1608.3975 405.12054
1607.1038 398.24377
1602.4551 394.93893
1610.0674 390.14853
1604.0452 384.8237
1604.4664 378.8263
1601.3508 374.36322
1602.3743 368.69348
1605.7778 363.06427
1607.906 358.15472
1621.8147 358.69638
1631.867 356.26233
1629.7003 363.52255
1639.4731 367.57455
1633.5527 373.1755
1625.3452 370.32068
1618.1003 371.20514
1612.9907 364.8856
1609.9614 374.44293
1614.1454 382.65674
1623.8951 382.48337
1636.5205 384.03488
1645.7878 378.10532
1649.2148 369.37598
1647.1266 360.7038
1656.2722 358.29242
1654.5685 351.77454
1638.5613 359.8324
1638.4976 352.8409
1625.8157 349.57248
1613.5925 353.06635
1601.5657 352.451
1598.9807 361.10754
1591.7667 363.2005
1585.9404 371.47552
1593.8867 371.5484
1594.5747 377.7096
1597.8474 382.28082
1597.3429 388.01303
1597.1825 393.46344
1595.6177 401.23373
1593.2141 409.4842
1585.5673 410.59595
1586.0317 418.0415
1588.3901 425.07062
1593.9335 419.56943
1600.2351 418.90686
1599.4645 425.52902
1601.7944 431.48016
1593.3735 431.32916
1586.7749 433.48117
1579.7142 436.76068
1571.6798 436.2807
1567.6481 446.13116
1574.4935 444.56088
1581.2224 445.3459
1576.9683 450.62457
1580.0181 460.2254
1578.4373 470.3149
1577.5059 480.50122
1576.9943 488.87912
1579.4744 497.4919
1573.8082 502.14728
1579.655 510.49973
1578.2466 519.407
1567.3439 518.5719
1572.094 511.49902
1565.5676 504.83484
1558.6553 509.39685
1559.373 516.34973
1548.803 511.34006
1549.586 524.2324
1542.3313 517.41986
1535.3351 513.1288
1531.438 505.75388
1535.7639 499.16376
1542.0046 501.5311
1548.491 496.14038
1552.9747 505.098
1557.2885 499.83627
1559.0245 491.35803
1570.0575 492.78424
1567.3008 484.04443
1562.2349 479.3829
1567.6647 474.00424
1572.2544 471.77368
1562.1094 470.4964
1568.5615 466.42294
1565.7816 461.40588
1572.7125 461.73816
1572.8335 457.21307
1572.8245 453.59802
1559.7563 448.8036
1554.946 439.55225
1548.5698 436.2021
1545.838 447.2645
1538.2848 446.69885
1540.9861 439.2855
1536.5112 432.04794
1541.8314 424.57037
1547.4978 416.48315
1551.9792 424.83884
1547.5757 429.8709
1560.6033 431.2856
1563.0845 438.8106
1567.8237 429.79233
1573.6073 427.2575
1580.4702 428.6418
1579.5 422.23947
1577.7158 414.12195
1579.168 405.82138
1572.9515 403.2486
1564.6198 412.9404
1572.8666 417.12494
1568.9236 421.25266
1563.7769 421.1245
1560.2102 425.45224
1557.2787 420.23413
1554.1029 416.21826
1555.7195 408.01877
1564.3792 402.7639
1567.5083 392.44904
1576.2222 394.89758
1585.6116 398.38007
1588.3591 390.36377
1592.488 384.3167
1586.9373 381.607
1577.1982 385.98608
1579.9027 377.53534
1546.1296 354.89844
1556.1637 347.45465
1561.0946 338.50946
1555.3479 332.21393
1568.2753 329.8553
1570.6438 319.8758
1578.3727 314.8275
1564.7026 315.06863
1556.5974 313.50986
1559.6385 323.91077
1549.0712 323.56015
1539.6482 328.99393
1541.7311 339.93176
1548.7289 336.85736
1548.4005 346.69662
1536.8745 345.22003
1529.8916 346.94467
1535.2773 354.29172
1539.5728 365.06476
1529.4331 384.60992
1529.605 373.2115
1522.7589 362.8475
1526.0961 354.57477
1519.4746 346.23813
1516.3734 335.35843
1521.5349 337.74295
1526.7968 337.44305
1533.1082 338.48248
1531.8262 330.7591
1530.7018 323.5237
1524.6359 329.1783
1520.5393 322.16077
1515.652 316.97308
1512.45 328.96838
1505.331 321.1009
1509.4297 312.88733
1509.0951 305.62988
1508.5002 299.9626
1513.0715 294.70654
1511.6316 286.10388
1523.431 278.28674
1529.0775 277.9864
1535.2902 278.90982
1535.8071 286.9218
1531.2645 289.12415
1524.744 290.59476
1518.9956 286.64215
1519.026 298.09686
1518.3547 307.0887
1525.5669 305.11572
1531.5459 296.8576
1533.1251 307.63312
1528.2804 315.8391
1538.9602 318.73483
1545.1484 312.33054
1541.07 304.69287
1540.6313 297.4389
1542.7659 290.18936
1543.4894 283.55264
1542.5159 275.05942
1551.6038 272.70477
1554.1409 282.8463
1557.4209 292.61652
1549.7305 293.7212
1550.5786 303.05597
1558.6729 303.9348
1566.4664 305.76614
1574.5522 305.1504
1574.0054 296.79315
1564.6725 291.7201
1570.6699 286.3423
1579.4067 291.68762
1576.0833 282.27032
1581.257 277.5965
1568.7251 273.77545
1559.7921 268.62582
1554.5198 262.65134
1548.1884 256.2377
1539.9558 256.62674
1537.1658 266.5288
1530.2422 255.883
1519.5653 258.2003
1523.8447 266.69418
1518.2173 277.08197
1513.8422 274.37854
1510.0581 270.23816
1509.7306 260.99893
1503.9506 266.30634
1502.6106 277.04816
1503.1425 284.45178
1502.5857 290.513
1506.3419 294.30032
1502.7805 299.48474
1498.7739 301.65884
1495.6254 295.10434
1490.7013 303.55505
1486.9349 295.5393
1486.5413 287.6627
1494.2919 287.2505
1493.8411 279.58575
1494.5269 271.10236
1491.4939 265.0539
1483.5916 264.43738
1494.5845 257.21393
1500.2839 246.3953
1507.5754 254.36308
1520.2229 249.9862
1526.9918 246.48114
1528.2793 239.27171
1527.6982 232.70569
1519.1162 234.55132
1513.7097 246.32518
1510.735 239.12773
1508.8132 230.82549
1499.4921 229.45334
1500.163 220.79199
1504.6837 211.92389
1496.4451 214.06277
1490.6179 213.77641
1496.3604 205.50928
1504.9991 201.91093
1500.1503 192.74156
1491.1099 185.4487
1497.1157 179.55652
1495.757 169.13547
1486.248 165.18156
1483.1266 173.92264
1480.6049 184.17784
1482.8165 195.05022
1489.4744 200.91846
1483.7905 208.26175
1481.1213 214.7236
1486.1389 216.00291
1484.7969 222.53769
1491.14 222.15738
1495.1807 235.82785
1488.1532 241.38902
1487.7999 230.51079
1481.1799 227.84357
1476.4039 222.09729
1476.9144 231.5535
1470.5795 231.87462
1465.8306 236.12842
1466.4956 222.79007
1467.2843 217.72398
1460.281 214.83932
1460.3077 225.66934
1456.0044 229.53741
1448.6895 217.82446
1447.685 224.60161
1446.7295 233.61386
1451.5217 232.81956
1456.7024 237.92062
1445.5632 240.80704
1443.4846 249.33066
1452.7227 248.07034
1449.5227 259.41843
1454.9275 265.81885
1442.7991 271.68198
1452.9485 276.27533
1459.6257 269.16986
1464.8447 275.578
1466.778 281.14423
1466.0825 270.26984
1466.4135 261.51334
1458.2913 258.0634
1465.0808 252.8169
1459.9148 244.70413
1466.4148 243.9102
1473.519 243.56598
1482.559 246.11505
1478.379 254.58183
1474.5967 267.7516
1485.1162 274.61758
1487.2408 280.74872
1479.301 281.21667
1472.9126 287.07672
1478.1398 294.2976
1479.7861 304.23517
1488.6233 312.14606
1497.9092 307.55304
1500.2378 312.95837
1495.4769 320.46878
1487.8069 326.2224
1483.5507 321.19507
1478.1398 315.41125
1468.345 314.9849
1466.6711 323.72272
1468.1101 331.89163
1455.9775 331.1579
1452.191 337.12134
1446.1432 327.31506
1452.4622 324.32678
1458.1884 324.03726
1455.9917 316.69714
1457.2466 308.36118
1460.4114 300.23706
1469.5481 303.14832
1467.0862 292.81128
1461.4761 293.44577
1459.8904 289.01657
1454.6866 285.55383
1454.627 293.88483
1450.0054 301.1518
1443.2141 294.72318
1443.0002 283.9558
1432.6165 285.64612
1425.8158 293.59824
1415.5032 295.09247
1420.1069 303.82913
1426.078 313.0516
1437.0082 305.0972
1444.9148 313.19452
1447.2651 320.5533
1439.518 328.8469
1435.5769 321.02448
1425.1063 324.92102
1428.7029 333.15588
1419.4911 336.81653
1413.7742 330.47125
1407.6443 325.08405
1403.7288 332.52524
1400.3976 340.57758
1404.7312 349.40607
1412.6635 344.6023
1421.2556 346.9608
1428.5103 343.63098
1433.6338 340.0605
1437.4803 336.1672
1443.6768 335.16284
1445.2239 340.75705
1450.1276 345.32834
1457.4414 348.88177
1464.1895 340.66254
1479.9574 334.57318
1492.9648 334.16846
1502.0463 329.2648
1504.323 338.5431
1509.1765 346.3192
1511.0038 355.57175
1512.416 365.7235
1513.0293 375.0174
1519.5106 378.561
1519.8862 386.44614
1519.3726 392.5329
1520.2749 399.34973
1508.596 388.90866
1512.8346 384.52625
1504.8993 380.92493
1503.6562 370.72067
1496.8813 361.81735
1498.0822 349.37338
1486.8165 349.83228
1474.9141 347.97836
1466.5146 352.13965
1466.6974 359.38998
1457.9976 359.09213
1448.8804 355.59506
1440.1315 356.91748
1440.2275 346.87558
1433.4519 351.52618
1432.1848 358.86505
1425.001 354.33313
1426.05 363.1334
1419.9032 361.37616
1414.4429 356.45905
1407.7562 361.69147
1399.8303 363.09497
1399.272 372.41916
1408.4106 382.31454
1402.0237 385.87195
1399.7595 393.127
1402.8911 399.62097
1412.1493 396.55634
1417.2759 401.74707
1421.7087 402.25848
1426.9806 401.3032
1432.0569 404.33435
1441.6003 404.96326
1437.3965 398.15924
1434.7091 390.86716
1443.4573 393.76962
1449.5802 395.73834
1453.7014 403.89206
1464.0236 403.69418
1462.2603 411.44943
1469.6564 409.06256
1476.0745 396.88953
1479.3087 404.47595
1483.6554 410.87225
1477.3252 413.95868
1471.1355 416.00903
1468.7251 424.75146
1476.9673 423.27512
1484.4808 423.06284
1488.3344 417.20883
1493.1055 412.09943
1499.4235 408.55902
1503.2942 403.87497
1494.0798 399.66382
1485.8674 395.37976
1486.8479 384.51352
1476.5364 377.89792
1476.2281 388.25647
1466.493 384.01782
1468.0732 396.46652
1459.7439 394.30942
1454.1072 386.30243
1446.6263 380.9126
1441.4675 373.17596
1435.8529 378.749
1428.5089 383.38705
1421.4631 392.9885
1418.6361 382.54688
1409.9543 372.54266
1420.2107 371.06805
1429.3341 370.2823
1435.1918 366.19174
1440.37 363.37354
1445.2137 365.52313
1451.8536 368.61377
1459.4342 375.75928
1462.3425 367.2041
1470.3264 368.88278
1477.5339 360.01425
1481.7484 367.83203
1489.261 371.81787
1496.0894 377.065
1496.2301 386.1537
1500.3257 391.32516
1505.426 396.16272
1512.3491 397.37012
1512.6965 404.67407
1507.6195 408.45148
1509.5234 414.1112
1501.1298 416.9635
1502.1761 424.01685
1494.5254 427.8261
1485.1931 431.57056
1474.0974 434.34558
1466.5339 433.5068
1469.0415 443.94662
1464.2513 451.28888
1472.9972 456.99084
1480.5999 456.13034
1483.0193 446.7906
1479.9672 439.30392
1492.0 438.61716
1525.4131 442.97107
1531.3729 437.3291
1532.4587 442.80966
1530.4294 449.31796
1522.7134 451.2049
1517.2953 457.02148
1511.628 463.87888
1505.2544 470.72446
1509.5786 479.66953
1514.2585 471.66058
1520.8572 474.79077
1527.2468 478.64938
1536.1033 473.815
1526.9227 466.8506
1529.5219 458.9316
1540.3055 460.7689
1536.6099 454.17563
1547.975 457.7898
1552.1809 451.40704
1560.246 457.2821
1558.0381 465.33612
1547.8531 467.16705
1555.8188 474.12396
1550.436 479.28656
1544.8264 484.73776
1537.0242 487.37692
1529.4764 494.2833
1528.7358 485.5162
1521.1714 486.92828
1515.7487 480.72775
1513.4482 487.48938
1511.3518 494.622
1520.3783 499.04272
1522.8125 508.59595
1526.7024 514.3421
1525.188 520.3849
1532.1426 522.32684
1538.5194 529.2136
1539.466 538.12415
1531.3528 541.83
1528.672 533.3921
1522.9241 537.03894
1519.0055 539.24536
1513.7147 540.5345
1507.8853 540.7953
1515.0248 535.20264
1518.7378 531.4459
1523.179 527.1098
1520.2493 519.4117
1514.6616 512.1192
1503.1947 501.05417
1509.6843 506.21906
1516.5817 519.03064
1516.2537 524.555
1511.7898 527.9674
1507.488 534.5734
1504.3336 528.66174
1513.5684 518.75586
1508.3971 518.33374
1501.9413 520.5718
1492.2838 523.17737
1492.5446 514.6112
1495.3242 507.92395
1495.8463 498.91306
1498.0469 494.35165
1501.0997 490.4002
1506.1505 486.27686
1502.289 481.41562
1500.9586 475.5396
1494.9885 483.34412
1488.8596 489.74512
1484.3322 496.0028
1490.3702 500.18793
1481.3722 503.57358
1480.7767 516.8202
1474.5374 509.23544
1447.7931 496.674
1459.6155 484.1865
1468.0164 471.0968
1464.3798 461.73032
1456.8662 467.38043
1453.7285 474.71118
1449.2358 485.70465
1439.1743 479.4939
1429.8989 484.78613
1422.8577 480.76672
1414.3323 484.06332
1411.2031 474.33566
1413.7832 458.5595
1418.1631 464.85007
1424.1084 472.62286
1429.2805 463.71252
1420.2395 454.77618
1424.8505 451.19003
1419.6096 444.17084
1425.6691 432.59247
1442.2087 428.4442
1444.298 444.88434
1434.9607 439.21848
1429.9015 446.33984
1433.7109 454.17938
1440.9877 464.7446
1447.2909 457.4101
1455.7854 459.0045
1451.495 450.53467
1456.41 446.07422
1457.4928 437.9544
1456.1492 429.49435
1459.4368 420.33252
1453.188 414.5892
1444.304 414.89035
1433.677 415.31137
1423.7615 409.7046
1423.083 417.71814
1418.6671 424.22202
1411.9241 439.03476
1411.2075 427.6455
1405.4939 419.5166
1410.0757 409.77084
1415.5266 409.13037
1404.7444 408.86615
1399.0386 410.65045
1398.7864 424.49753
1402.0524 430.3077
1406.2208 433.98056
1399.5563 442.60593
1401.9143 450.1993
1410.5499 451.46063
1400.761 459.46887
1404.0822 466.70822
1398.941 475.0138
1401.6853 484.38153
1397.7916 493.00934
1407.5356 493.15448
1418.0095 492.45703
1425.3318 496.6771
1434.7158 496.0072
1437.9497 507.56543
1426.9111 513.4363
1420.5491 505.81952
1411.3378 503.23242
1402.948 502.29187
1396.6425 504.40024
1398.1733 514.8811
1405.0515 513.2426
1410.8994 517.87714
1418.9259 519.59827
1425.9867 529.16364
1431.213 521.0383
1462.813 523.3949
1462.2104 531.6801
1465.186 540.3436
1471.1029 534.54504
1469.5521 517.2168
1475.4929 525.8515
1485.081 528.9102
1496.6349 532.7721
1498.4011 541.62366
1492.0958 551.4195
1482.698 549.5648
1491.4152 541.2116
1485.4415 539.6521
1478.7421 535.07965
1474.5099 540.0603
1478.045 544.4348
1472.6677 548.28296
1466.832 547.11395
1460.5524 550.0968
1453.2306 549.4518
1455.5087 536.90765
1448.6274 540.15454
1442.1282 546.10016
1446.5702 552.40625
1448.4564 559.3689
1455.1304 559.7463
1459.3389 564.4428
1467.856 570.85693
1458.2837 573.8221
1459.8202 583.91296
1458.8074 591.6137
1453.9498 583.74744
1446.9396 587.0718
1449.0714 596.0453
1457.8223 598.62537
1463.3461 600.76
1462.3677 607.8966
1464.0585 616.1453
1473.1387 621.8668
1483.3003 619.5448
1481.1296 610.2918
1472.416 604.91327
1474.364 595.46375
1468.5581 591.2428
1465.1084 582.318
1471.2437 581.64526
1477.6323 569.4844
1465.6995 560.03357
1471.1738 557.7185
1478.331 556.87
1487.6908 559.15027
1483.9431 564.47314
1483.4124 576.40063
1477.0449 585.21045
1484.9445 584.1418
1492.5902 584.1791
1499.4849 583.57544
1492.9509 593.86584
1484.445 591.38776
1483.6545 596.94885
1482.3877 602.0885
1488.3756 605.28625
1494.3951 603.6658
1505.7512 604.4741
1505.1702 597.25305
1498.8351 599.2092
1501.876 593.48236
1500.4742 589.481
1506.376 586.03204
1508.4551 579.65784
1515.0549 576.2612
1518.7888 569.29626
1525.4724 567.5449
1524.8047 577.32465
1530.6631 584.849
1536.9573 579.4652
1546.5896 575.70105
1545.7235 565.95996
1550.6958 566.86206
1554.9237 565.039
1547.9375 557.5836
1550.9297 551.19604
1541.5162 554.7851
1535.301 560.038
1540.4905 564.818
1532.7407 570.426
1528.4089 558.52136
1524.9436 549.94836
1518.0492 552.1035
1511.6687 557.6927
1521.6144 560.21765
1516.0728 561.9348
1509.8528 565.5254
1502.5293 563.3907
1503.9445 570.7959
1510.0231 572.39246
1501.7644 578.57654
1497.0688 575.57324
1493.2976 570.0622
1494.7828 561.1122
1500.2588 555.87854
1506.0857 554.6502
1501.2616 547.2158
1507.205 547.5866
1512.1273 549.068
1517.3607 544.5002
1523.7274 543.20105
1532.54 549.44946
1539.5557 548.97394
1547.3856 541.66907
1551.7616 533.75977
1556.9236 531.55066
1561.1963 531.3042
1560.1267 524.74805
1568.7935 529.584
1565.8484 533.3232
1572.9042 536.92523
1573.9541 533.66437
1572.7449 524.553
1576.9768 530.01447
1580.1342 537.42676
1574.0624 541.51776
1578.3965 546.86926
1582.5404 554.64514
1578.1489 561.16583
1577.3972 565.9742
1577.0049 570.4234
1569.4329 568.74414
1567.5652 559.8633
1572.8928 555.1626
1567.9683 550.2721
1568.0208 542.49805
1561.1875 538.19165
1559.0739 544.2784
1557.9587 550.44244
1560.118 557.2422
1559.8202 565.69116
1564.3346 566.39136
1559.8179 576.72766
1569.1317 582.2364
1574.044 575.67883
1582.458 576.29205
1580.5736 585.6093
1572.0996 590.42426
1580.6465 597.4422
1572.3262 599.999
1566.2854 595.72424
1559.1621 599.58594
1559.7842 604.97003
1568.738 606.30084
1577.6096 608.9543
1576.7173 619.59216
1578.1748 631.05255
1565.8496 631.14624
1568.8389 624.3606
1565.0388 616.15674
1562.8317 609.6322
1552.5723 614.53577
1553.2415 607.27734
1546.4777 605.5609
1549.1641 598.6067
1559.375 590.4895
1550.8213 587.3145
1541.6057 588.9678
1538.4148 598.3544
1541.8372 610.1079
1535.355 613.6755
1533.9607 603.941
1526.533 608.0995
1526.0763 597.4385
1533.9241 592.72034
1527.9852 590.879
1522.733 587.98505
1518.08 583.5969
1513.4487 589.24005
1510.8909 595.8878
1518.9617 599.5204
1514.0974 608.5874
1502.1877 614.4935
1492.0916 613.5679
1492.5522 624.1764
1497.136 630.7506
1506.7151 631.5138
1512.9065 624.3922
1520.1796 617.4309
1529.5375 618.29614
1535.6345 626.6449
1526.5354 628.8015
1522.2415 636.24365
1515.6198 640.5651
1507.1826 644.7537
1500.4336 639.8506
1492.7103 638.7038
1487.2678 634.979
1481.1782 634.16223
1471.8547 634.6137
1460.7349 626.67865
1452.853 616.11145
1448.7227 606.6834
1434.6989 608.18396
1428.5298 603.21716
1429.8616 596.03015
1439.1564 599.5142
1437.6812 590.14825
1437.5168 582.354
1442.2905 577.52026
1450.2621 576.8561
1447.5332 570.0507
1441.7549 565.4783
1437.5791 554.9663
1412.9058 546.73706
1410.2148 538.5713
1419.6812 536.0055
1412.9702 528.38403
1403.1501 525.57587
1397.1923 528.55963
1403.4424 535.1185
1399.8867 544.0598
1397.55 555.8816
1405.2877 556.68713
1398.5988 568.70715
1415.2817 574.9316
1413.5867 585.1272
1421.5385 572.9822
1423.8538 564.5414
1429.1833 561.601
1434.3254 565.11383
1428.1984 572.3659
1433.7407 575.5928
1426.4181 581.5998
1426.8757 588.6055
1420.2908 593.33093
1409.2302 595.89856
1419.6594 600.3042
1422.0674 606.5291
1412.0806 607.4731
1399.7334 601.21674
1402.563 614.93274
1405.2466 624.15454
1394.7745 635.53577
1389.727 641.4579
1385.1947 647.0961
1387.8433 654.68317
1386.7239 663.2593
1394.4271 666.9774
1396.3843 659.644
1402.0454 655.56366
1404.2092 648.1795
1394.0469 649.5005
1397.4329 642.7269
1401.5654 633.41376
1408.1362 631.9261
1412.7614 629.7205
1413.9828 637.1859
1409.732 636.90204
1408.768 642.7622
1416.4276 641.98755
1416.8503 636.2761
1419.5964 634.8541
1425.38 633.5993
1422.9377 641.37305
1426.8835 645.2143
1433.3341 646.4354
1438.1091 651.33264
1440.4763 656.8574
1441.205 662.88184
1429.9248 655.96
1431.063 661.2459
1434.2307 666.514
1441.7253 669.44525
1449.6963 669.92224
1448.4252 676.1403
1456.6289 672.6403
1464.4917 666.92426
1459.126 660.3663
1452.3578 663.4197
1446.5627 666.1185
1446.5491 659.6334
1449.6311 652.45984
1446.7725 642.4721
1437.2692 638.9372
1434.2812 632.0425
1429.8044 625.636
1421.6511 622.7772
1418.667 629.218
1415.5669 623.0111
1415.9075 615.5078
1423.5525 612.3677
1424.6812 620.1749
1427.7617 616.1317
1432.9194 618.35364
1440.5381 614.9519
1441.9534 624.3368
1448.6417 629.1895
1455.0543 634.0459
1458.5083 639.5237
1464.864 643.5958
1459.0961 651.76685
1468.7405 653.3857
1477.9329 659.89575
1472.6241 665.0705
1469.5249 674.81323
1464.6707 680.60187
1456.8518 686.4167
1461.2903 698.1308
1467.6805 694.26086
1471.7286 690.2554
1470.9695 702.4616
1477.8566 705.82513
1481.0964 696.0063
1477.445 686.1271
1479.6193 679.2466
1474.3033 676.3367
1476.7827 672.06683
1480.7175 667.8104
1488.0955 663.08374
1484.9905 654.63696
1476.1925 652.8303
1476.5513 644.49176
1483.8755 646.6129
1489.5037 646.6449
1495.8235 648.89844
1496.0583 658.1462
1503.5664 654.8995
1512.3757 654.23645
1508.3768 664.8574
1501.2202 667.40674
1494.628 667.7424
1493.1106 673.45764
1485.647 673.59454
1487.71 681.8295
1489.6001 689.3031
1498.5989 694.4816
1501.0555 689.7636
1498.5135 684.1885
1496.9475 678.2348
1507.2037 676.4499
1506.9937 686.2677
1515.6322 685.05176
1517.5869 677.2954
1515.7002 668.2733
1521.4235 659.8274
1520.3241 648.9802
1529.1661 644.3412
1527.9094 650.0711
1530.3683 653.3269
1531.5012 658.26013
1538.9993 658.32947
1537.3303 667.07544
1529.3302 665.56055
1523.9237 671.3329
1530.6681 672.709
1534.6693 677.3597
1542.8787 674.7059
1552.3157 677.845
1549.0049 671.6002
1548.0059 664.16504
1546.4647 654.2737
1539.8428 646.69183
1532.4543 638.6254
1536.3737 633.47644
1543.2852 637.81104
1543.395 621.80035
1556.42 622.8241
1549.6838 631.42993
1557.7397 634.2083
1552.6487 643.6798
1553.8832 652.26855
1560.2101 643.0571
1566.0625 641.86444
1572.6213 638.77954
1579.6667 641.8838
1583.3674 649.3877
1576.5001 652.72406
1569.2726 651.3242
1561.6494 651.5028
1563.773 658.9319
1555.6759 661.6719
1557.6658 671.7567
1562.4631 666.32886
1570.5818 667.0081
1571.4387 660.4658
1578.1942 662.69104
1584.3254 660.6653
1590.162 662.3513
1597.4116 666.0027
1599.2461 672.3666
1600.3472 678.98267
1606.5747 685.74646
1616.5977 701.292
1620.763 691.0394
1633.0873 694.3076
1630.3942 703.79346
1642.5664 705.8043
1651.6395 699.64307
1653.535 706.48724
1652.5109 712.64185
1660.6504 708.12866
1663.2407 701.37195
1666.4153 708.20667
1671.7542 710.9099
1680.2021 707.39136
1683.8901 720.7313
1680.4644 731.8871
1671.5488 732.00507
1669.0132 726.1581
1671.2804 719.71106
1661.3462 715.9757
1659.5165 723.0376
1648.2166 719.14136
1651.5258 728.5596
1656.572 734.45746
1660.0443 729.9608
1664.8169 736.6442
1660.9342 743.29926
1673.625 745.5553
1674.766 739.23315
1684.5508 744.1172
1677.3567 752.46423
1684.0868 757.38544
1683.5288 766.50586
1676.5166 761.0109
1669.9579 762.7832
1663.6149 765.7763
1661.4302 771.40393
1671.0349 770.07196
1679.9062 774.0344
1677.7083 786.6125
1670.9731 779.5957
1663.5833 781.1797
1657.6736 787.96655
1649.1709 781.9142
1643.3159 788.2216
1639.1089 781.7389
1631.8505 780.07336
1633.2534 788.36316
1623.9802 788.75287
1622.406 781.5924
1614.0363 785.81805
1606.2332 775.2226
1599.7643 778.9435
1604.8049 786.6554
1596.1268 787.6025
1586.9664 788.2693
1582.6846 781.214
1590.9838 778.62256
1594.9243 773.51117
1599.3853 773.48816
1602.0618 769.198
1611.9354 776.2019
1620.1495 771.77655
1628.4033 772.16034
1635.0844 770.14594
1638.4111 774.7352
1643.56 775.72144
1648.8092 774.41614
1655.6614 775.38763
1650.1041 767.6019
1644.0038 763.7094
1641.3843 768.9911
1633.7671 763.72925
1637.599 756.9743
1635.9751 749.29553
1637.7664 742.52313
1643.7361 742.9118
1650.5896 742.9042
1647.26 748.0514
1645.968 753.8401
1651.2974 758.1129
1656.7207 759.59125
1657.6455 765.1633
1664.8733 757.2123
1665.2084 749.7402
1655.0945 748.8186
1654.3768 738.55774
1647.8304 735.72327
1643.8433 738.3672
1642.8197 728.2235
1635.2346 717.0612
1631.1975 725.2241
1623.3816 725.4814
1614.3826 723.24023
1621.0483 712.76624
1608.8796 710.8921
1605.8804 716.8634
1599.9072 720.39417
1597.4851 729.12
1607.1534 732.2927
1603.4746 739.5979
1606.1436 747.5967
1613.2968 751.5971
1616.2764 741.3623
1615.9023 733.2543
1625.311 735.9177
1629.6759 731.0964
1637.2626 732.58325
1632.7128 737.9211
1626.5906 743.98315
1622.5303 750.6201
1625.6782 758.93085
1615.3074 763.1794
1606.7229 764.2802
1604.4777 756.6959
1598.5211 752.328
1598.5503 744.7682
1592.7628 745.869
1587.6891 745.15466
1594.3047 739.1161
1588.3054 734.9594
1588.3093 722.77527
1593.0721 715.6054
1604.3562 704.58954
1605.0243 695.518
1595.259 705.3331
1586.957 699.20874
1583.6202 691.53046
1586.6322 708.0754
1582.6536 712.9718
1580.1515 718.7025
1580.3759 726.65295
1576.0079 731.9118
1580.5231 738.62024
1581.5574 746.9555
1575.7264 748.2859
1571.4001 744.49896
1570.4032 739.9724
1567.96 733.83923
1568.3928 726.1684
1573.3684 719.9392
1566.7043 718.23914
1562.8943 722.4646
1560.6295 717.61487
1555.5055 713.24994
1547.3816 719.0293
1554.1846 724.06995
1560.1567 729.4453
1553.2192 734.39453
1546.162 732.14746
1539.2108 733.7544
1539.9907 740.1777
1547.5092 743.45764
1560.0364 739.95764
1563.7866 746.2715
1563.2793 752.0927
1569.792 751.38
1576.6459 756.2217
1584.603 759.2643
1586.644 752.4177
1592.9304 751.8649
1595.046 760.02295
1596.5037 766.56445
1591.0757 767.745
1586.4045 768.49255
1580.4161 770.70825
1574.0668 764.95526
1567.3916 759.4609
1558.7104 758.39307
1555.0801 749.1291
1548.5668 753.2092
1547.0957 761.2107
1550.5598 765.18713
1552.4866 768.8132
1555.1965 772.6235
1563.897 767.7963
1573.3423 777.11005
1572.5317 787.99335
1564.0823 780.247
1552.4658 787.4437
1554.2422 779.5338
1541.5911 774.5622
1537.7457 787.09546
1528.469 779.36664
1520.3556 787.1672
1513.8706 779.74084
1507.8254 774.9401
1505.3501 769.068
1493.5938 768.4281
1495.1141 762.54407
1501.3623 762.6516
1499.334 756.42957
1494.2454 752.8581
1493.0222 757.8036
1489.376 761.76196
1485.4873 769.56824
1478.5212 771.2174
1473.6785 768.1758
1470.7174 763.48914
1467.8895 751.5796
1475.5166 753.37
1481.8085 762.4394
1483.5928 752.8037
1488.9191 754.9065
1490.5673 743.38257
1494.7866 747.89844
1502.6519 748.2612
1508.1443 755.2824
1514.5276 758.6631
1508.4523 762.7567
1513.8912 766.8977
1519.2856 770.1076
1525.3435 767.78534
1532.5767 767.12305
1537.2346 760.8014
1540.9934 754.54974
1536.8918 749.3887
1532.894 743.7358
1526.5217 758.01807
1519.2281 754.44525
1525.542 747.6364
1520.7086 734.75116
1516.4316 741.0504
1512.017 747.8796
1505.8184 738.1731
1496.6724 737.2314
1491.4552 731.79504
1501.6995 727.54407
1512.887 727.6228
1523.084 726.3781
1529.7079 736.87494
1532.8854 729.6601
1532.2546 721.84515
1540.5602 724.604
1539.6577 714.41235
1537.3542 706.4375
1533.6775 696.15906
1541.9503 700.345
1552.529 703.6145
1564.2937 704.4777
1569.509 712.6947
1575.7736 707.17175
1573.526 697.9877
1572.1582 688.1782
1575.9277 682.1979
1581.8787 683.43646
1592.8882 687.58154
1591.0488 678.2106
1585.3524 676.67224
1587.8429 670.3361
1579.314 671.8168
1573.638 675.6876
1567.0596 673.3772
1558.4147 680.7661
1564.9391 681.785
1564.1631 694.067
1557.8867 691.25507
1552.2013 685.0089
1546.6217 690.7947
1537.0544 685.9758
1525.5479 682.02704
1527.115 690.29193
1519.6741 692.4948
1511.4469 694.3566
1516.9265 699.93384
1516.8076 706.8071
1521.9187 710.4655
1523.1537 700.89716
1527.9265 698.78265
1528.4778 706.3992
1531.3816 712.5856
1525.3604 717.7575
1516.4651 716.5604
1508.1351 720.22107
1497.0219 718.6508
1494.811 710.2111
1504.8342 711.7501
1509.5735 705.3014
1503.0891 700.2013
1491.9567 699.37177
1485.7356 706.79407
1470.7233 712.1654
1481.8921 716.9519
1491.0919 723.63184
1482.6611 726.9414
1484.7651 737.2124
1480.8983 744.4631
1468.5686 741.4733
1459.0671 747.69305
1453.8127 743.2011
1449.1683 736.1898
1448.8215 721.1748
1455.8113 725.01685
1459.2554 732.9939
1466.3733 730.80334
1475.5784 733.5343
1469.3447 721.6116
1461.7875 710.7426
1453.3672 712.8896
1444.3967 706.6342
1453.1683 701.1085
1446.3307 694.9568
1447.3423 683.593
1438.2731 675.88416
1432.0214 679.68665
1425.7615 673.4935
1422.4061 665.56573
1422.5809 657.8063
1425.4962 652.0434
1416.5284 648.5731
1416.915 654.57275
1409.3413 656.6376
1414.737 662.3087
1416.4728 674.2011
1418.234 684.16174
1414.0078 693.8617
1417.9163 701.2937
1423.136 693.37933
1424.9473 683.6965
1430.2689 688.34705
1439.6636 687.8102
1435.833 697.1227
1430.4487 702.7831
1432.1288 713.536
1440.2833 715.8478
1439.8123 728.74255
1437.2804 739.5734
1434.3396 749.3152
1424.8787 742.0954
1428.9496 732.8855
1428.8403 723.1452
1422.3262 717.75757
1424.1259 708.3466
1416.6444 709.2758
1414.5034 715.4723
1412.2074 722.2456
1406.2551 717.6271
1398.3335 723.69446
1397.6373 731.7816
1405.9517 734.5841
1407.3247 727.0783
1417.0238 726.5524
1421.9668 731.2768
1414.7605 734.5295
1412.6425 741.3637
1409.3885 747.68475
1416.2385 750.4089
1423.1642 750.5587
1426.4412 756.1527
1417.9363 760.438
1423.2957 767.65686
1429.654 760.7011
1435.2021 758.3544
1444.8383 750.87573
1451.834 760.0705
1459.2976 755.7824
1463.1505 762.57806
1462.907 770.06396
1463.1547 775.90936
1469.1969 777.64417
1474.4751 776.54877
1478.4729 780.56335
1484.3104 775.26306
1486.6157 781.2239
1495.0275 781.7379
1491.8636 775.4309
1499.0345 772.3662
1500.56 778.4308
1505.1699 783.12915
1508.1578 789.1897
1499.0535 788.3232
1490.7252 788.27844
1481.7124 787.71106
1472.7656 788.6411
1466.3716 784.7352
1457.7767 783.8102
1458.1648 790.19556
1446.3282 789.729
1448.1091 784.6792
1449.3142 778.56616
1452.8088 771.0206
1441.968 773.45215
1442.0717 763.19226
1432.447 768.87933
1434.1174 776.6095
1437.9191 783.464
1433.4253 789.22
1425.8401 782.91644
1415.0261 787.8078
1417.0261 777.3021
1406.4332 775.40295
1404.0518 786.13196
1396.246 787.53436
1392.7192 778.6704
1385.3322 773.594
1380.1016 779.2988
1388.3701 784.3761
1387.0319 789.3784
1378.5535 788.03973
1369.0256 789.2002
1356.0974 789.33325
1349.4487 782.5341
1343.7556 786.51697
1335.1406 787.3755
1342.5894 776.3065
1347.1849 769.1611
1344.7366 759.56836
1351.5669 748.3571
1357.8898 757.6388
1359.7614 766.88324
1358.7166 773.63763
1352.8079 775.7206
1356.7312 781.40424
1361.5823 785.27997
1364.0251 777.97815
1366.7651 782.9879
1372.3954 784.0779
1374.0671 779.3613
1370.8693 775.1887
1367.01 770.6312
1374.4355 768.15515
1381.2555 765.45715
1390.6881 764.67676
1398.7842 769.39624
1410.6348 764.46155
1409.5823 755.28406
1403.0369 751.2231
1401.199 759.1267
1393.1852 753.1172
1400.7485 743.2827
1390.2491 740.61053
1382.9817 747.176
1384.4602 756.7422
1375.3674 757.40845
1367.7825 760.9116
1366.5436 750.35706
1375.5137 747.39136
1373.6635 738.9103
1361.6355 742.41907
1363.6755 732.5365
1357.0743 728.9408
1358.9242 733.9813
1353.855 737.4152
1347.4435 736.7648
1343.7169 742.32904
1338.2266 747.94763
1332.1091 753.49255
1325.0298 756.51086
1322.4043 765.9512
1327.4479 770.3668
1334.8022 767.47485
1333.6669 778.30664
1326.035 778.78564
1324.3811 784.0693
1326.0552 789.3784
1317.4454 789.1084
1316.0706 782.7108
1310.6111 788.7051
1304.97 785.392
1297.3357 783.2272
1299.1464 771.8435
1307.3787 772.0748
1313.0596 776.9475
1320.2585 774.39075
1315.9142 765.989
1313.9521 758.5941
1308.2454 763.4777
1299.7606 763.1179
1306.5029 754.95386
1299.3696 755.5813
1297.5839 746.0688
1299.454 736.65906
1300.7845 729.62524
1297.6462 721.87683
1306.1509 718.699
1300.4348 713.34955
1300.3248 702.96594
1313.7626 701.76965
1309.7941 710.2047
1316.3683 719.8498
1304.8951 724.41425
1310.114 728.45593
1308.3524 738.9406
1305.5193 747.20593
1316.1973 750.9335
1318.6448 742.03265
1328.1364 740.65967
1317.8643 731.6218
1326.2981 729.95844
1326.6509 723.18677
1335.2457 722.99695
1341.1052 717.30273
1340.5588 728.21844
1335.1842 735.267
1343.3752 733.2736
1350.6182 728.99457
1357.7247 722.7509
1356.1267 714.65405
1347.0162 722.2169
1347.8069 712.20374
1340.8552 711.2097
1337.9456 707.4154
1333.987 712.5836
1327.9941 716.5654
1320.1328 710.57715
1328.3035 708.0355
1324.7854 700.4
1334.374 701.7959
1335.3964 694.00146
1342.7599 700.6718
1350.9873 703.43835
1368.774 704.1725
1359.8271 703.1404
1349.9172 691.5561
1360.9752 687.57904
1371.9961 689.8889
1370.954 678.19727
1375.8153 670.0152
1384.0349 673.1636
1384.8983 683.76654
1395.3131 676.033
1396.8746 687.1457
1390.4302 696.2605
1381.258 697.37415
1373.9912 699.61975
1377.7397 710.4459
1387.8679 707.5695
1384.3103 715.34973
1380.0035 722.09735
1375.1738 721.0373
1371.9347 717.6212
1365.3235 713.8862
1366.5515 721.98267
1368.2544 729.65515
1375.615 729.9601
1385.4297 730.3478
1389.0751 722.53955
1390.7468 717.27405
1395.2947 717.655
1393.9294 710.93494
1397.6968 704.64856
1400.2655 713.7165
1407.9363 707.0525
1403.9125 699.12805
1404.8784 692.9857
1407.725 685.44824
1408.154 677.18835
1403.2104 670.85095
1406.9622 665.1754
" />
</g></g></svg>
