<?xml version="1.0" encoding="UTF-8" standalone="no"?>
<!-- Created for Inkscape (http://www.inkscape.org/) -->

<svg
   xmlns:dc="http://purl.org/dc/elements/1.1/"
   xmlns:cc="http://creativecommons.org/ns#"
   xmlns:rdf="http://www.w3.org/1999/02/22-rdf-syntax-ns#"
   xmlns:svg="http://www.w3.org/2000/svg"
   xmlns="http://www.w3.org/2000/svg"
   xmlns:sodipodi="http://sodipodi.sourceforge.net/DTD/sodipodi-0.dtd"
   xmlns:inkscape="http://www.inkscape.org/namespaces/inkscape"
   width="3200"
   height="800"
   id="svg2985"
   version="1.1"
   inkscape:version="0.48.1 r9760">
  <defs
     id="defs2987" />
  <sodipodi:namedview
     id="base"
     pagecolor="#ffffff"
     bordercolor="#666666"
     borderopacity="1.0"
     inkscape:pageopacity="0.0"
     inkscape:pageshadow="2"
     inkscape:zoom="0.35"
     inkscape:cx="1600"
     inkscape:cy="400"
     inkscape:document-units="px"
     inkscape:current-layer="layer1"
     showgrid="false"  />
  <metadata
     id="metadata2990">
    <rdf:RDF>
      <cc:Work
         rdf:about="">
        <dc:format>image/svg+xml</dc:format>
        <dc:type
           rdf:resource="http://purl.org/dc/dcmitype/StillImage" />
        <dc:title />
      </cc:Work>
    </rdf:RDF>
  </metadata>
  <g
     inkscape:label="Layer 1"
     inkscape:groupmode="layer"
     id="layer1"> 
     <g>
<path style="fill:none;stroke:black;stroke-width:2px;stroke-linejoin:round;stroke-linecap:round;" d="M 
1573.1077 343.9382
1576.6212 346.0711
1576.6516 348.528
1574.6383 350.51105
1573.252 347.86267
1570.8053 346.99713
1569.4844 343.2153
1572.2357 340.77698
1575.4736 341.68393
1577.5586 342.51105
1579.6841 342.44
1582.6089 341.8471
1584.4529 337.58594
1586.3062 340.25223
1590.1462 339.70892
1591.1504 336.6953
1588.7137 333.9102
1584.1753 334.15555
1585.8323 330.01825
1583.1968 331.08636
1578.7974 328.5428
1578.3674 332.40714
1580.9264 335.9693
1579.7642 339.25403
1575.6594 338.0304
1575.5165 334.84088
1572.9135 330.91492
1573.5719 326.2451
1569.4778 327.68973
1568.6031 322.4045
1565.4558 324.74048
1564.1831 328.13922
1565.9666 329.89456
1566.2395 332.2183
1568.644 333.53323
1570.5922 335.95496
1570.434 338.99536
1566.4458 338.63605
1563.8451 335.71063
1562.2185 333.09247
1558.5703 333.22015
1555.2334 334.73697
1558.639 338.29785
1559.9175 342.6139
1562.5403 339.5812
1565.6658 342.4078
1567.1475 345.94684
1568.2487 348.64465
1569.8254 351.44348
1572.628 352.15204
1570.7656 354.74506
1572.9824 356.5211
1575.2803 358.29208
1574.7517 354.34235
1578.1375 355.1434
1581.2592 355.04498
1582.083 351.8332
1577.401 352.57614
1577.279 350.46765
1580.3303 349.18207
1579.8795 345.4646
1583.2301 345.7866
1587.473 344.82587
1585.927 349.2063
1587.0161 352.7896
1584.605 354.9193
1584.9945 358.51657
1581.7783 358.24094
1578.0671 358.80368
1579.6296 361.75873
1582.4686 362.06824
1585.0533 361.08374
1583.1122 364.16968
1583.5868 365.67444
1584.2134 367.46307
1585.0808 364.92224
1586.3878 363.14548
1587.0083 364.78012
1589.5251 366.6561
1587.3213 366.19785
1585.0044 370.78244
1587.7147 369.0338
1591.4077 370.20367
1591.5002 366.3575
1593.56 366.4842
1594.9885 362.72278
1590.4889 363.33896
1589.2262 360.52362
1587.2424 357.0859
1589.3411 355.91806
1592.5636 356.8316
1597.0156 355.61374
1598.7743 360.28976
1601.6804 365.4995
1605.7349 363.91486
1605.5249 367.5688
1608.2083 367.0516
1611.4287 367.68396
1610.355 364.01764
1612.8641 360.57614
1614.5284 355.44064
1616.281 353.7234
1618.3115 350.3895
1615.3505 348.75998
1612.5687 348.5614
1611.1683 350.60617
1608.2164 351.66806
1610.6248 353.9769
1611.4137 356.77866
1608.8701 359.8003
1604.4229 360.55722
1602.7091 356.16122
1606.394 354.9065
1603.9182 349.7406
1607.4266 346.85767
1610.6006 344.45505
1614.763 343.2397
1613.8627 338.3373
1609.9215 338.28976
1605.6267 340.4289
1603.9581 344.81073
1598.7914 343.87164
1600.4567 346.97443
1600.535 352.30783
1597.453 349.2356
1594.0535 351.85886
1590.1326 350.51938
1593.3145 347.45636
1592.9005 343.53906
1595.2687 339.61557
1597.4543 340.39136
1600.5818 340.6435
1601.9353 337.1236
1598.8047 337.2958
1596.9669 335.34204
1594.3094 337.26996
1593.2676 334.0503
1596.2019 332.30826
1595.8162 329.8476
1593.8491 328.17987
1591.0051 330.22778
1587.9451 329.29126
1584.803 326.15167
1582.4922 326.85706
1580.7954 324.76648
1582.1086 322.23666
1583.75 320.4975
1584.592 317.57745
1587.5164 315.21094
1590.5161 310.40662
1585.1084 311.34485
1581.417 312.61212
1575.6328 311.72406
1572.5529 314.39767
1575.1426 317.69006
1577.307 316.88824
1579.1002 315.72217
1581.2065 317.77463
1576.9862 320.4834
1579.0237 322.45398
1576.7993 324.98886
1574.7025 322.66025
1572.4197 320.813
1569.6501 317.89133
1567.5098 314.53983
1563.2117 316.25943
1562.595 319.76105
1557.6328 319.3598
1553.4238 319.3302
1554.7302 323.25055
1552.6929 326.79413
1557.6501 324.9129
1560.0885 322.9926
1562.2732 322.51154
1560.8098 326.1481
1560.186 329.40637
1555.2634 329.88974
1550.8461 331.0712
1546.2416 328.57556
1548.777 324.08777
1543.1909 310.58484
1543.971 307.6884
1547.6948 305.81393
1549.9624 301.87292
1551.1289 298.5692
1546.5773 297.84152
1544.4288 300.79132
1544.7885 304.31323
1539.9308 300.7857
1540.9604 305.33142
1538.2363 308.226
1535.6106 306.18793
1534.561 303.28082
1536.589 300.72223
1538.0894 297.3824
1535.2648 297.3673
1531.9664 297.03955
1534.0242 299.3587
1532.08 300.8067
1528.4048 298.69836
1529.2574 301.78375
1530.3595 305.60333
1503.1161 326.99637
1498.1743 326.2265
1499.941 329.5315
1498.0013 331.47748
1496.2933 333.29648
1493.3041 334.49643
1490.4559 332.2447
1486.5525 334.26648
1489.2104 336.60416
1490.5103 339.30542
1489.1111 341.87494
1488.8723 344.9731
1492.0298 344.5152
1494.895 340.79022
1494.9415 337.4154
1498.5665 336.4281
1500.5995 333.8792
1501.8997 331.30167
1504.8832 331.99014
1503.1855 333.86298
1506.0492 335.47525
1509.0924 333.25464
1509.1902 339.75195
1505.3527 339.35452
1502.2522 337.04434
1500.8613 340.10773
1498.2284 340.4391
1497.386 343.35947
1503.9977 344.03033
1508.5615 344.7547
1505.7141 348.54538
1502.346 350.57272
1500.7555 348.12436
1499.2898 345.52325
1494.8706 345.3291
1495.7075 349.73975
1498.1476 352.11798
1492.4514 349.83493
1489.4961 347.96344
1486.2358 345.86288
1483.833 343.8388
1479.6935 343.0105
1475.9658 342.14294
1471.3164 338.96863
1468.6063 337.22314
1464.7725 334.39438
1466.04 331.73126
1463.7354 329.95068
1461.2244 330.98474
1457.7766 330.20493
1452.9664 327.3896
1457.6421 325.89233
1459.9045 322.98737
1458.6097 319.39767
1453.8763 322.86157
1453.7188 319.85406
1452.0048 317.68704
1454.1825 314.8868
1457.7474 315.11316
1461.3021 309.23154
1466.3486 310.75534
1469.7258 315.04062
1473.9685 314.4563
1473.8866 319.57715
1470.6973 321.01724
1469.0156 319.38245
1466.4211 317.7778
1465.6162 314.65372
1461.9412 313.38654
1461.0396 316.50903
1462.7827 319.0777
1464.5864 321.6584
1463.907 325.16852
1464.8291 327.27383
1467.0491 328.79984
1469.7168 332.92017
1473.8058 335.5396
1475.2471 338.82404
1479.2407 338.65854
1482.2349 340.4665
1485.3445 338.38947
1482.3364 335.89093
1480.0402 332.31967
1478.5415 335.4135
1474.8196 332.4271
1477.8359 329.39923
1474.1941 328.2224
1470.0785 329.41583
1470.0199 326.40442
1467.8354 323.48663
1471.4009 323.74423
1474.6805 324.27594
1477.5635 322.47336
1481.0461 321.25397
1478.1172 318.06366
1481.2782 315.70096
1484.4512 321.10608
1487.8477 323.72437
1481.1748 325.54572
1482.258 328.6281
1483.4006 331.92282
1486.6387 331.03
1487.1782 327.51895
1493.5625 328.83838
1492.8042 324.79828
1489.9983 320.16815
1525.0208 296.2725
1520.9034 289.06836
1519.0918 284.8999
1522.6378 282.92026
1525.938 284.4569
1527.8527 281.1683
1525.7236 277.6517
1523.7131 280.02408
1518.6812 280.88452
1514.0417 278.141
1520.0538 276.7942
1522.876 274.65417
1524.9739 272.65143
1526.667 270.64557
1526.801 267.6413
1529.391 268.1789
1529.2871 271.66656
1532.1777 268.75186
1532.715 265.37085
1529.9656 261.54486
1526.7747 262.13052
1526.3821 265.26398
1523.8596 269.48727
1520.6279 271.0253
1520.731 266.5915
1517.0616 267.02878
1514.259 264.8263
1515.3523 272.52618
1509.896 269.76437
1509.7268 264.76135
1512.5364 260.7412
1516.5315 259.2588
1511.8939 256.12177
1515.5991 255.55865
1515.9194 252.3003
1519.1318 254.19043
1520.5122 257.54285
1520.5079 261.14578
1523.1006 263.5282
1527.6356 259.23563
1525.0466 257.76114
1522.255 254.80205
1524.1548 253.55142
1527.4579 254.4075
1530.2301 255.9199
1533.02 258.64093
1533.298 262.34528
1537.4243 267.62155
1535.5264 270.44772
1533.2615 272.76205
1531.0588 275.1003
1527.6383 275.48322
1531.1874 279.20203
1534.7512 280.02246
1538.0491 281.7685
1540.6465 283.4889
1539.5679 285.8742
1536.6306 285.08856
1534.0166 284.10614
1530.5096 283.99725
1532.2932 287.5965
1528.2358 288.19415
1525.1099 288.00055
1522.7881 286.52667
1524.9667 291.274
1529.9631 290.72894
1531.7125 291.26343
1528.2643 292.30844
1528.0911 294.8758
1531.2894 294.56586
1534.8901 294.88196
1537.2725 294.21127
1533.4763 292.66846
1534.9491 290.5287
1537.0369 288.31155
1538.3682 290.91638
1540.3525 292.4252
1540.7704 295.62158
1542.9077 295.54712
1544.8103 294.43396
1545.4249 292.04977
1542.3735 288.21964
1543.3337 283.22018
1541.6932 280.7646
1540.1697 279.08044
1538.3138 278.16205
1535.9282 276.34912
1537.4329 273.272
1539.9521 274.3103
1541.9983 275.78076
1543.0494 278.22882
1545.967 280.7019
1546.6935 284.77625
1547.352 287.92853
1548.6135 290.60443
1548.9099 293.72897
1550.0544 295.7573
1553.4712 294.20685
1589.5073 288.0395
1595.376 295.43155
1601.1823 293.7879
1598.1667 292.01904
1594.1118 290.37796
1595.4348 286.35452
1596.4205 282.9269
1598.7308 283.17883
1600.9045 281.67624
1601.278 285.0048
1604.7031 283.25592
1603.5592 279.6072
1605.5793 276.39337
1608.1973 277.70718
1607.7515 272.95764
1603.231 269.17157
1604.2192 272.46774
1601.8953 276.14157
1598.3085 278.63937
1597.7572 274.54166
1600.1288 271.92648
1599.0789 268.4686
1600.1377 265.64807
1602.6957 266.35907
1602.8182 262.937
1599.673 262.08606
1598.4597 263.821
1596.2406 264.4524
1596.1903 266.85834
1596.2228 269.7129
1594.1548 270.90863
1594.535 274.13998
1591.8337 275.64697
1594.0588 277.5523
1594.5032 280.36935
1593.0269 283.45044
1590.2523 283.347
1589.9036 278.85086
1588.7522 274.69327
1591.4276 272.74338
1590.8817 270.41153
1587.8352 269.6309
1591.4276 267.0932
1593.2511 264.18542
1594.3506 261.18546
1597.1212 260.94067
1595.7932 258.56778
1589.9021 262.29517
1591.0193 258.68372
1588.241 254.33627
1592.4994 254.61021
1595.3612 256.30396
1599.4028 257.76834
1601.1965 260.07715
1602.6631 256.28925
1604.0199 251.9426
1600.1836 253.54662
1596.4429 253.19048
1598.6766 250.18369
1600.8052 247.8146
1595.8585 249.5763
1595.814 246.71277
1597.9155 245.13766
1597.8688 241.86996
1595.531 243.75009
1593.1191 242.75468
1592.1531 245.39848
1593.1108 248.48688
1592.3224 251.53587
1589.5334 249.04192
1588.0505 244.96478
1590.285 241.39203
1590.5718 237.48114
1594.2661 236.23259
1593.5118 239.83804
1594.6008 241.70464
1595.9686 241.15033
1598.2184 238.89824
1596.1849 237.685
1598.0305 233.4783
1601.0122 236.13054
1601.9824 232.46701
1604.3645 234.14886
1607.2687 233.6401
1608.0306 237.25748
1604.6882 237.79153
1601.3461 239.16278
1603.8337 241.28906
1607.4675 241.32542
1611.8004 241.68492
1609.6609 244.96709
1605.6431 244.89629
1600.2451 242.79161
1602.4534 244.64975
1604.3901 247.97026
1607.0392 250.31815
1608.6775 248.24533
1612.1891 248.83372
1614.2861 253.56155
1611.5519 257.1588
1611.6539 262.62628
1614.314 265.9018
1610.6263 265.89157
1611.2849 260.05963
1608.9 253.8263
1606.0051 256.61475
1606.2197 260.55435
1606.3092 264.6744
1607.291 267.89874
1610.2384 269.80127
1611.7825 272.5331
1614.9441 275.20197
1611.2166 276.4377
1613.2292 281.4433
1608.5286 281.35828
1610.4757 286.1839
1605.3293 287.3681
1603.1423 286.6369
1599.1489 287.70587
1602.2175 290.25403
1607.4303 289.38345
1610.2614 292.45905
1605.4545 292.87384
1602.7434 297.30322
1600.7346 309.4261
1596.302 311.28156
1593.9199 316.70862
1598.3481 317.82452
1601.4875 316.68457
1604.263 318.6164
1604.8856 322.32428
1609.34 321.36176
1614.0797 316.61557
1615.4878 320.67096
1620.3375 320.09723
1619.352 323.73422
1621.1793 327.0449
1623.1061 324.18945
1624.2959 321.03482
1626.1207 318.92883
1623.1421 318.4332
1621.812 316.79108
1620.2358 315.0992
1617.8563 315.2125
1613.8999 313.03558
1610.1097 314.81384
1610.3516 318.0407
1607.2065 317.64804
1605.889 314.70456
1602.6874 313.13925
1606.5702 309.8097
1611.0237 310.4215
1615.8079 311.27692
1620.2357 309.5621
1623.8306 310.7458
1622.4161 313.5092
1624.8313 316.02713
1627.0901 313.35422
1632.1145 313.9419
1628.2604 316.60373
1630.5537 318.45416
1628.1362 321.24237
1631.3464 321.7907
1632.6338 324.45468
1633.2961 326.5064
1636.8384 324.60794
1639.1958 325.53625
1636.9161 321.82672
1634.2642 322.5528
1634.2196 319.40198
1636.3591 316.88687
1640.8596 320.35553
1648.8096 306.70883
1648.2208 301.0225
1653.1327 303.32422
1653.4177 308.07733
1655.7756 306.1731
1657.5461 305.22308
1657.3456 302.79907
1655.171 301.61157
1656.2965 300.09033
1653.4844 297.16858
1648.598 295.2071
1655.2216 292.5047
1652.6421 290.58087
1648.8103 289.74066
1651.5443 285.96484
1654.1318 285.2851
1657.1384 287.87128
1656.5048 283.36975
1656.1338 278.18396
1659.4915 279.4815
1660.6638 281.982
1661.9473 284.78796
1662.2847 287.80878
1665.5526 287.87982
1668.8258 287.05835
1672.0865 286.7744
1674.1726 285.72766
1676.652 284.73172
1677.2842 282.2102
1674.7466 278.50922
1672.1327 281.70297
1669.273 283.6164
1665.0901 281.30048
1661.26 276.1138
1660.2756 271.72287
1662.7676 266.07623
1667.5681 262.81512
1669.7583 257.93613
1674.145 257.90884
1676.887 259.20718
1679.0276 261.20868
1678.0381 255.72824
1682.2163 255.57901
1684.1448 258.27658
1682.5398 260.9817
1688.9768 261.57016
1688.2214 266.44165
1684.8142 263.03387
1682.911 266.9488
1679.147 265.15054
1676.0381 263.5431
1674.693 260.99643
1672.3865 261.8344
1672.7021 264.63147
1670.5011 267.03558
1667.0525 268.6856
1664.6396 272.16684
1668.4485 273.59344
1665.7404 276.33072
1668.486 279.2907
1671.1627 276.50586
1674.2618 273.2306
1670.8982 271.85126
1671.6907 269.69562
1673.4556 268.53336
1676.4762 267.1327
1675.3539 269.42612
1677.5457 274.89532
1681.0829 274.78317
1678.6499 270.44244
1682.152 270.8612
1686.7893 270.5766
1685.2754 274.37225
1683.0427 277.51956
1684.377 280.27142
1679.4246 279.39844
1681.5201 283.2456
1680.4655 286.66196
1678.3252 288.6189
1676.3254 290.9822
1675.3911 287.93848
1668.2422 291.69702
1672.9797 292.27316
1674.5155 297.42667
1671.1959 297.99585
1668.8892 295.45572
1664.614 292.98776
1661.9102 292.89703
1661.5818 290.57095
1660.315 288.52264
1659.4385 289.61853
1658.209 290.7508
1658.5123 293.3626
1659.5911 295.7756
1657.6482 297.8562
1662.1643 297.69592
1660.3364 300.88467
1659.7651 304.41016
1663.3608 302.7579
1665.6167 304.26804
1665.1566 297.93146
1667.833 299.65466
1670.1002 301.90002
1668.5634 304.0586
1666.9442 306.75073
1666.6375 310.64062
1661.7886 310.62457
1661.761 307.22107
1658.0339 310.7038
1656.9648 308.55798
1655.2717 312.1731
1651.6283 311.06512
1647.3242 321.20428
1651.8503 327.8719
1648.3291 325.00488
1643.9119 324.00232
1645.545 328.18787
1645.106 331.32275
1648.3663 330.51526
1650.2742 333.15082
1647.7947 334.1381
1644.5651 334.81104
1641.4734 334.96915
1642.8059 338.20068
1640.5045 339.14093
1638.7556 340.39923
1637.2467 341.99448
1635.5405 343.6744
1634.3938 340.03793
1637.1968 338.221
1638.0083 335.2173
1634.2303 336.4284
1632.5304 332.2921
1635.0846 330.99078
1636.9753 332.5917
1641.5594 331.695
1642.2539 326.65802
1640.8055 328.44012
1638.5532 329.69885
1636.1818 327.41763
1634.6104 328.65738
1632.3873 329.2514
1630.2545 327.33835
1628.8035 324.62494
1625.8494 323.8034
1624.3236 326.8866
1623.5442 329.2453
1626.4319 327.0918
1627.3354 329.54132
1629.3711 331.2682
1630.0571 333.86484
1631.301 335.6412
1630.667 338.29868
1630.7563 341.29706
1633.1263 342.96173
1632.3549 345.8165
1629.3707 344.9901
1629.696 347.65073
1628.9346 349.75458
1631.6879 350.20166
1634.3162 349.76685
1635.6908 352.73907
1632.6199 354.47333
1633.2751 357.4072
1629.9913 358.10345
1627.8871 360.91382
1625.4062 361.05002
1623.2197 360.65503
1624.2461 357.01328
1626.16 354.04053
1629.1802 352.667
1625.677 349.38342
1625.8711 345.18628
1627.4001 342.21503
1624.9629 340.9733
1627.4607 339.0395
1627.5785 336.21906
1626.8074 333.42157
1624.425 332.95532
1623.0455 331.73032
1620.9158 331.09366
1618.0208 330.48312
1616.2275 327.3156
1612.8289 325.02478
1608.8074 326.0373
1606.2593 327.9119
1603.2355 328.55566
1603.5623 325.578
1601.4746 324.1742
1600.4478 321.37888
1597.0668 321.79282
1595.1571 322.77444
1592.4592 321.1178
1589.7094 318.19373
1588.0939 321.0941
1585.8765 323.05365
1589.4633 323.9806
1587.3145 326.42288
1589.7258 326.75992
1591.8228 326.4612
1592.8232 324.046
1595.1348 325.75006
1598.2672 324.96814
1598.5173 327.39435
1600.2363 329.76172
1600.0648 333.69104
1603.1777 332.1531
1605.512 335.33325
1607.1034 331.81342
1610.6257 333.20477
1611.7229 329.6344
1614.9785 333.78226
1618.0156 338.2067
1620.2048 334.6001
1624.4369 336.44876
1622.4281 338.77145
1621.3057 342.5715
1618.4482 345.07935
1622.0139 348.23764
1620.6594 354.14563
1620.1097 359.21533
1616.5228 361.04123
1615.2462 366.16782
1614.3785 370.19678
1615.5814 372.33508
1618.3407 370.83716
1619.8999 367.6202
1620.7035 363.87433
1625.1017 365.0196
1625.4077 369.21814
1629.3289 366.09607
1630.9573 362.895
1633.6073 361.63177
1636.1787 363.97327
1638.1914 361.78036
1636.4556 358.9315
1638.3002 355.7651
1642.2822 355.8299
1645.1633 355.43918
1647.5487 358.74988
1650.603 356.97983
1648.0433 353.33237
1649.8668 349.66882
1644.5591 350.6454
1641.3525 349.5514
1638.8638 351.20386
1635.7078 347.10226
1638.2177 345.54636
1641.5239 345.8943
1641.2664 342.48694
1645.6067 341.00037
1647.2876 337.48053
1644.5886 344.06195
1646.0587 347.2884
1648.4207 344.87717
1652.1427 344.4029
1650.6326 340.56442
1652.3118 337.0678
1655.7981 339.5431
1656.1276 335.26083
1654.7585 331.37335
1661.635 332.572
1659.7443 335.82217
1665.2792 340.06906
1660.2451 340.2373
1657.2766 344.0995
1657.6016 348.64865
1653.742 349.22388
1653.4971 353.45752
1658.4293 353.86948
1655.7435 357.29633
1653.0955 360.09583
1654.4442 363.5343
1651.9249 365.57532
1649.3086 368.48175
1649.319 364.3723
1649.7065 361.76398
1645.1173 361.17184
1641.3497 359.48724
1642.0048 363.43744
1645.5237 364.74152
1646.3466 367.62363
1644.2705 371.9343
1643.0916 368.52216
1640.4321 366.0595
1639.8302 370.6543
1638.9587 375.07483
1636.3237 379.35797
1633.577 382.4585
1634.0603 385.2861
1630.0555 383.8281
1628.4084 385.9358
1626.6367 386.93405
1624.5308 386.5619
1622.9507 387.89856
1622.7734 384.5152
1623.829 383.02194
1626.1082 382.06577
1624.4954 379.2171
1627.479 378.0788
1631.1025 379.25446
1633.5281 374.76544
1635.5548 370.96442
1636.3779 368.23975
1637.4038 366.3535
1633.2731 366.55084
1630.9857 370.03186
1629.1003 373.69135
1625.4661 374.40048
1622.6229 373.5173
1621.3772 371.36304
1619.3175 374.45557
1616.4348 373.7912
1614.725 375.9444
1613.6967 373.62787
1611.6641 372.79675
1609.4894 370.28156
1605.657 371.51764
1608.1987 374.15417
1612.1693 375.95273
1610.0225 377.66965
1607.258 378.12372
1606.4042 381.72568
1609.9653 381.99384
1612.5261 384.59473
1607.8143 385.7492
1604.1587 385.03473
1601.7705 382.78793
1598.634 385.5019
1595.4803 385.95422
1593.226 386.37402
1594.9816 382.0975
1597.6172 380.5443
1600.6998 379.45026
1603.9894 377.86475
1599.301 375.73718
1602.2285 373.5016
1600.9585 369.60577
1596.9879 367.46722
1596.5608 371.84772
1592.7274 374.0091
1595.5491 376.7545
1591.7003 378.22656
1593.0385 381.68835
1590.9586 384.63986
1586.9766 384.3067
1583.2615 385.82993
1582.816 383.01172
1581.5386 380.99167
1579.9133 379.4577
1577.1172 378.73972
1573.9238 379.65634
1570.7576 378.25412
1570.373 382.53778
1566.172 383.65768
1566.1444 379.14856
1562.5864 380.6963
1559.3867 378.8465
1554.7051 379.11142
1550.3912 382.0758
1551.138 384.8476
1546.4404 384.98117
1540.6086 386.6788
1538.4022 391.64777
1535.4231 388.26755
1535.5134 385.92694
1536.0448 383.8471
1536.3022 380.68262
1538.9711 382.19223
1541.2916 381.0915
1543.194 383.0084
1545.422 381.29953
1547.1656 379.73886
1549.597 378.65454
1550.3534 376.1217
1554.1357 374.90048
1552.4471 371.12122
1555.3248 371.54028
1558.2091 373.48938
1561.7451 374.26193
1564.8936 374.49472
1568.3461 376.2649
1567.8235 372.93237
1565.4408 370.0509
1561.6909 369.24634
1558.5033 368.3603
1555.3585 367.9248
1555.7458 364.5504
1558.0215 361.74304
1559.7098 364.61337
1562.2059 362.8131
1563.3411 366.57593
1565.3452 364.1318
1569.0369 362.3232
1568.7969 366.31165
1570.3679 369.6694
1574.0507 368.13678
1573.3033 365.78723
1576.7347 366.0835
1576.9956 368.89954
1576.8027 371.50693
1573.4742 371.47263
1571.0762 373.8253
1573.8965 375.42078
1576.4053 374.64008
1580.7349 375.812
1583.6152 377.27283
1585.5957 380.2724
1590.6521 381.6026
1588.3226 379.5807
1589.3983 374.05002
1586.9917 375.39105
1583.6326 373.6389
1579.303 373.55292
1580.8375 369.6136
1580.7039 365.92444
1578.0074 364.3005
1574.3177 362.59546
1572.1384 359.86
1569.6208 357.67172
1567.1387 358.99118
1564.3168 359.75983
1561.1373 359.12045
1557.4158 358.47958
1558.8071 355.5555
1561.7056 354.9447
1564.8577 355.1843
1567.8729 355.5409
1567.623 353.40515
1566.3656 351.1201
1563.7705 351.03015
1560.9529 350.80615
1560.8285 348.14233
1563.665 347.84753
1564.1353 345.1334
1561.6274 345.26617
1559.1534 345.83774
1556.1885 345.4946
1557.1447 348.54648
1557.7788 351.60986
1555.3506 354.1988
1553.5393 357.92322
1553.7837 361.5302
1550.9037 364.74982
1548.7158 362.18573
1546.2511 359.24118
1544.9203 364.85907
1545.1697 368.69733
1549.3226 369.0616
1552.1316 367.6363
1550.0881 372.80283
1546.4741 371.1422
1546.6813 374.0947
1544.5464 376.00757
1543.3077 378.65805
1539.9406 378.26056
1540.804 374.00244
1540.7023 368.8462
1536.683 369.47522
1532.8547 366.20575
1535.8864 363.06247
1538.8608 360.86896
1540.4924 364.2494
1543.1012 361.06287
1544.6008 355.9033
1549.6572 357.8482
1550.8645 354.37436
1552.0553 351.34137
1553.1831 349.02582
1554.0992 346.76486
1555.7946 341.409
1553.3308 338.29675
1551.337 335.01587
1547.322 334.1585
1542.262 331.3866
1536.8446 333.59494
1538.9934 336.47235
1542.7876 336.89606
1545.979 339.17834
1549.5621 339.46924
1548.3921 343.95276
1552.6604 343.19885
1551.2296 346.54547
1548.7982 348.1527
1545.7394 348.69064
1547.0272 351.02145
1547.09 353.84454
1542.8724 351.76215
1537.9696 354.821
1536.6057 352.6322
1540.7761 355.17645
1542.1799 358.15585
1540.0156 358.04712
1538.23 357.87
1535.3586 358.8962
1534.5807 356.30295
1534.7947 354.3791
1533.6648 352.54892
1532.6357 349.56708
1536.171 344.19537
1537.113 347.8795
1539.6028 350.6959
1543.6394 346.85626
1543.6567 343.05478
1540.1346 343.6136
1539.5315 340.03647
1536.4354 341.33466
1536.7241 339.1002
1536.0072 337.06418
1533.7664 336.5178
1534.5005 340.2893
1532.5127 340.81628
1531.9858 345.59027
1529.6443 342.08423
1525.7294 344.41046
1527.834 347.77637
1525.9772 351.78436
1522.874 350.70966
1519.7878 353.33224
1520.206 355.82297
1518.4705 357.99573
1517.6565 361.00302
1515.4812 364.1523
1517.9246 367.7584
1513.5579 370.07526
1511.0808 376.1579
1516.043 376.36798
1517.6426 372.3952
1520.8455 371.41486
1522.1427 373.96237
1524.4551 371.96335
1523.7527 369.35364
1521.6239 367.8918
1520.9196 364.48102
1521.4197 361.0531
1525.0253 361.45135
1522.7181 357.05063
1526.1357 357.00217
1528.5928 351.7064
1529.9282 353.5908
1530.883 356.53668
1530.676 359.82513
1529.4832 362.92258
1527.3202 365.4817
1525.4163 367.27682
1528.5457 369.74774
1533.3802 372.5006
1536.4622 376.4129
1532.1144 377.38452
1532.9999 380.92175
1528.69 379.35614
1528.4788 375.4146
1528.3284 372.6421
1524.9475 374.65833
1524.255 376.487
1524.743 378.8084
1525.2043 382.41254
1528.0244 383.50037
1531.3375 384.18396
1530.947 387.9714
1529.6786 391.71774
1527.2358 386.91187
1526.552 389.67505
1520.1686 391.07068
1526.0461 392.23718
1527.5522 395.2961
1529.2153 398.38477
1527.4968 400.421
1527.5735 403.6714
1525.97 406.82495
1521.4719 408.70062
1524.9447 411.13873
1530.5978 410.3407
1533.4258 406.56256
1532.7686 401.63812
1531.9017 396.516
1532.109 393.5113
1532.0155 390.3532
1534.1837 390.85703
1535.1813 393.56818
1536.3086 396.8812
1537.8823 403.1096
1539.998 405.55347
1542.5544 407.62665
1545.5603 408.3247
1544.0193 411.1109
1541.2605 411.12024
1538.7715 409.22055
1536.1265 410.92096
1532.8689 413.55255
1535.1998 416.1593
1538.6033 414.40442
1541.7107 414.22607
1544.8688 414.0136
1545.4648 417.01035
1541.3782 419.5636
1538.9583 418.13177
1543.7618 419.5901
1545.3384 421.4524
1548.0769 423.0992
1548.3253 425.6767
1545.8367 424.8775
1543.1887 424.6451
1539.8915 423.8381
1536.6536 425.28638
1537.9637 427.09616
1536.734 429.37482
1533.9552 428.59485
1531.4985 429.4154
1535.2399 432.53168
1538.4 433.51352
1537.4944 437.40924
1535.4375 440.4205
1532.1123 441.2295
1534.6683 438.27338
1533.2661 435.9028
1530.1676 437.3731
1528.471 440.2971
1526.6272 443.1089
1529.551 445.18723
1532.3937 445.35385
1534.4343 443.6773
1537.6091 442.8729
1540.6172 444.655
1540.3745 448.26056
1536.4838 447.66345
1533.0713 449.59863
1539.1646 451.34283
1541.5264 453.0792
1538.7827 456.28525
1536.57 454.28082
1533.2317 453.67075
1527.771 452.6062
1529.2296 449.21106
1525.6804 447.90698
1522.7839 445.32288
1523.4419 441.2199
1518.8772 439.71155
1519.743 435.11145
1518.0419 432.98047
1522.3855 435.82968
1523.564 438.0929
1526.5089 434.6788
1530.825 432.83398
1527.8936 429.89777
1524.6409 429.63977
1522.2952 431.5438
1520.5659 428.65314
1516.3989 431.12085
1514.2106 429.39178
1515.2378 426.39966
1513.631 424.1333
1512.9213 420.9023
1516.7882 419.22156
1520.9607 420.62775
1519.0231 425.23727
1522.789 426.0982
1524.3483 423.16815
1526.1104 426.7468
1528.8337 425.45404
1531.7933 425.489
1534.2368 425.49915
1536.4576 422.26877
1534.4067 419.6142
1531.7568 421.56772
1528.2559 421.14194
1524.9392 418.38947
1530.2288 416.12094
1526.4514 414.81088
1520.4679 414.8717
1517.832 411.46774
1516.0409 413.52768
1513.9756 414.38263
1511.2969 415.03162
1510.1218 411.78964
1512.26 409.48236
1514.4028 409.18063
1518.3823 408.39255
1515.8643 407.98578
1509.6011 405.5929
1511.2727 401.87592
1513.4877 405.2098
1516.6508 404.6328
1519.9973 404.68576
1522.7797 402.85822
1523.8335 400.02405
1524.5304 397.63788
1523.0714 394.3879
1519.3766 396.4757
1520.1061 400.45297
1516.4281 400.43036
1513.5312 397.74225
1514.523 393.83667
1515.7324 389.05295
1514.9489 384.9579
1518.834 384.87082
1523.2734 387.0228
1521.7762 384.49203
1521.4309 380.867
1520.3932 376.81723
1517.2032 380.73523
1512.8135 380.79352
1510.2728 384.81036
1510.0531 390.6974
1509.1792 397.28754
1493.9568 400.8982
1491.0065 398.95654
1492.8984 396.34323
1489.6272 395.57153
1486.9371 397.9773
1487.6206 394.72543
1484.8451 394.2791
1481.5925 395.80478
1481.775 392.66388
1486.6532 392.25827
1488.5673 391.2855
1491.4987 392.77792
1490.2842 388.39706
1485.6462 388.08188
1484.0076 390.70752
1481.6367 387.451
1477.77 387.49463
1478.984 390.9388
1477.5886 394.77087
1474.1787 396.4129
1473.6843 392.2597
1473.6758 387.76974
1475.455 384.40256
1470.0149 387.0725
1466.7202 386.91193
1464.0999 387.9845
1460.3846 385.01874
1453.692 384.89877
1451.7208 387.90558
1448.2128 386.7174
1445.3779 388.4989
1441.7948 388.0051
1443.2897 391.82477
1440.7566 393.1495
1439.0706 390.60312
1435.845 390.9666
1432.6387 392.56213
1432.0758 396.69638
1433.8245 399.62732
1436.0267 398.13828
1437.5791 400.3037
1438.1299 402.7132
1435.5146 402.41815
1430.2616 401.11182
1433.2833 402.73914
1434.7703 406.3408
1438.6855 405.83777
1440.6488 408.44586
1440.9028 411.58014
1444.5182 409.2749
1446.4347 407.0285
1448.6313 410.4961
1451.7046 408.90228
1451.1462 404.8637
1448.9229 406.273
1446.487 402.91882
1442.1914 404.32727
1440.3558 399.54938
1436.7986 394.9154
1439.7734 396.3191
1443.4703 395.0805
1443.8151 397.39148
1444.3993 400.05063
1447.9373 398.56543
1446.6284 396.0633
1446.2566 393.25827
1445.6765 390.82184
1449.2228 390.87714
1448.5367 394.24094
1450.6731 396.16907
1453.3422 398.10077
1451.2925 401.0337
1454.2129 402.26318
1456.804 400.24445
1456.8132 396.8338
1454.0605 393.9828
1453.4084 390.36517
1456.9587 390.34885
1459.6311 388.06927
1463.4031 390.8404
1461.1045 391.2518
1458.8065 393.86725
1460.7021 396.3087
1460.0284 398.7411
1460.876 400.5625
1460.7415 402.82544
1456.7229 404.08725
1454.8391 406.68878
1458.7151 409.58057
1460.6199 406.59482
1463.6864 406.66757
1465.3682 403.81024
1467.3827 402.23547
1466.4607 399.36633
1463.868 397.3869
1463.7368 393.75232
1465.2417 391.11774
1467.477 391.77747
1470.4729 390.5022
1468.5249 395.40045
1469.8474 399.18246
1472.2466 398.54584
1474.49 400.74878
1477.7432 398.8219
1480.6841 399.74463
1483.8878 399.48425
1486.339 403.09778
1489.0447 402.3497
1491.5377 403.51923
1489.1891 408.2229
1485.0088 406.91452
1482.4014 403.9391
1478.8287 402.6927
1476.1871 402.69482
1475.2261 406.3447
1473.6248 405.67303
1473.306 403.53497
1471.1992 401.96796
1470.1323 405.281
1466.9658 408.20764
1471.8893 409.20868
1475.3616 409.9138
1475.7252 408.04697
1476.9619 406.50616
1479.4313 406.1582
1478.4089 409.2772
1482.7101 410.04684
1493.4779 444.19968
1500.3433 444.7437
1507.2289 447.4201
1505.2238 450.41296
1505.3848 455.08224
1509.44 455.37494
1505.1119 459.84265
1502.4817 458.46973
1500.8391 461.6347
1500.6047 464.52377
1496.2904 462.60718
1495.4762 458.41144
1492.5587 459.70032
1489.246 460.01172
1486.5385 461.6587
1485.8462 458.73337
1482.8567 459.43857
1480.2092 460.3646
1483.156 455.95062
1484.0522 452.9231
1487.047 453.66656
1488.8608 456.17126
1491.3254 452.1861
1495.3538 454.42294
1498.8612 458.58176
1499.5946 455.10364
1501.9209 453.29706
1499.0869 449.8667
1494.5656 448.7093
1488.9388 447.52975
1486.3103 450.13208
1481.6267 450.77194
1477.1091 453.18683
1479.7554 456.00256
1476.6263 457.5158
1473.9344 455.88147
1467.7017 458.2055
1465.8706 462.39893
1458.8398 462.76904
1456.4408 468.2694
1456.6077 472.41278
1452.7709 475.53796
1456.5504 476.43347
1456.5645 481.57477
1461.1763 485.30035
1466.4753 484.02267
1467.9368 487.49362
1470.4722 484.87085
1471.2065 481.6745
1474.8792 483.98553
1474.3945 481.57904
1474.504 479.44543
1473.349 478.2767
1470.5968 477.24887
1467.7229 479.60263
1463.1299 480.21143
1460.571 477.71326
1459.2703 475.3899
1460.8593 472.9466
1462.3402 470.1883
1464.5579 467.02023
1466.0493 472.0754
1463.2579 475.27142
1465.7698 476.36407
1468.1846 474.64392
1469.9495 471.60425
1471.5544 473.886
1473.9246 475.89026
1475.0493 472.80292
1479.5057 473.61444
1477.6228 476.34064
1477.2834 479.9304
1480.0815 479.90033
1482.5815 480.88037
1481.4863 477.37607
1486.0399 477.5871
1483.818 474.5504
1487.7374 472.7325
1492.0295 472.38837
1490.8008 469.3757
1490.2767 467.08295
1487.7188 467.28467
1485.3993 466.34506
1483.5823 467.99496
1482.3916 470.9658
1478.0011 469.5592
1474.4313 469.1709
1471.5066 468.01413
1468.7366 467.44897
1470.9688 463.8674
1473.9803 465.5982
1475.2678 463.1998
1471.4116 461.28473
1472.139 458.5632
1474.3936 460.10995
1476.9637 460.5892
1478.3733 462.7055
1477.6731 465.4148
1480.3864 467.02905
1482.0537 463.83392
1484.4512 462.23035
1487.709 463.70587
1491.1467 463.66257
1493.5574 465.91452
1496.8964 466.2451
1494.638 470.0664
1496.9685 470.34088
1499.209 469.54868
1501.0857 467.07648
1505.2954 464.38547
1507.4911 461.11652
1510.546 460.50803
1530.2407 457.7044
1535.3467 459.8075
1539.3608 463.29425
1543.3694 464.43115
1542.6003 468.40125
1546.9097 465.76282
1551.344 465.41272
1555.2836 465.49054
1556.4103 467.70612
1559.1487 467.11227
1560.8937 465.58704
1561.8779 459.09442
1560.1335 457.5628
1558.094 456.2403
1555.1532 456.74
1556.0962 458.81567
1558.6161 461.06418
1559.3329 463.30658
1555.6434 463.378
1556.1399 460.70453
1553.8318 461.9259
1552.2891 458.70602
1548.4026 457.00644
1549.6985 458.88055
1551.3816 461.64966
1548.1829 462.4146
1545.2537 460.1541
1541.133 459.48767
1542.3508 456.75885
1543.944 454.88974
1547.7548 454.57227
1548.9526 451.7159
1548.0745 448.38904
1544.2837 451.771
1543.8003 449.13696
1544.2256 446.47766
1545.4045 443.92172
1541.7688 440.72852
1547.3096 441.21448
1550.4891 439.51434
1550.3324 436.79016
1552.1344 434.93854
1550.4387 434.8918
1549.317 434.1268
1547.6487 435.5516
1546.0784 437.70355
1541.9204 437.52844
1541.429 434.07736
1544.4136 433.6633
1546.9155 433.0818
1545.9939 429.86676
1543.2994 429.72906
1540.5104 428.92737
1545.9479 427.18005
1548.2383 430.98767
1550.3433 431.39975
1548.6804 428.3514
1550.8558 426.36108
1552.0286 429.14722
1552.5698 432.63156
1555.0004 431.794
1554.2736 427.8869
1555.0952 425.29462
1558.021 427.8036
1558.0516 431.69904
1561.8958 431.59506
1559.8013 436.40308
1555.745 436.08188
1553.5576 438.63483
1556.6343 441.75436
1556.8864 445.76068
1559.175 447.4554
1560.3431 449.47238
1555.5149 450.3325
1553.2809 445.59018
1550.6809 443.853
1552.9409 449.04773
1552.5325 454.01007
1555.5823 453.78293
1557.2793 452.77194
1558.6638 451.47583
1560.4069 454.16623
1562.0725 456.23987
1563.5762 455.99704
1566.3014 455.63843
1568.2588 458.27197
1572.7637 460.0138
1568.3861 460.90097
1564.4843 460.00446
1562.77 463.0728
1568.0952 463.35675
1567.4474 465.82098
1565.7395 469.66986
1567.4869 472.72812
1569.7408 474.28207
1569.8143 477.12207
1572.3267 477.33362
1573.9235 474.36093
1575.4469 470.89816
1571.8612 471.43222
1572.0255 474.45984
1575.5979 476.23175
1575.1084 478.5117
1576.8883 480.0991
1574.1736 482.35358
1570.7561 480.39032
1567.273 478.81757
1565.889 475.99997
1564.0105 473.8933
1560.9415 475.60236
1562.8191 479.31757
1557.5099 477.24142
1544.9398 491.3109
1546.1118 494.50397
1550.2803 493.947
1552.895 497.82135
1548.5487 497.4898
1548.1409 501.14023
1551.2156 503.61414
1549.7076 507.67224
1548.5364 510.16534
1547.6385 512.0784
1545.0812 513.5504
1547.6127 516.0546
1544.2124 519.70795
1542.666 523.4877
1540.2391 522.60657
1539.137 518.6063
1542.0127 515.9543
1540.8594 511.86035
1538.7175 507.73517
1535.7411 508.54224
1536.0562 513.1181
1532.4441 514.49915
1532.8438 510.38184
1530.5325 508.74728
1527.2065 509.62982
1527.8633 513.89404
1524.9492 516.64685
1523.347 519.85724
1527.594 520.12976
1530.2454 517.8072
1531.0071 522.5681
1532.5281 526.0891
1534.7158 518.239
1536.0143 522.26117
1536.5884 525.12646
1538.962 526.718
1541.258 527.0688
1536.2217 528.2214
1537.8137 530.55035
1535.7345 532.6125
1533.2921 534.5906
1535.498 536.1441
1532.708 539.0657
1529.9038 543.0493
1525.6251 543.6564
1522.2747 545.64905
1520.776 541.1024
1515.379 540.20734
1517.0913 536.2494
1518.315 532.4264
1521.4954 535.50507
1525.4297 534.8997
1526.8367 539.03284
1529.2147 535.56335
1530.4957 532.2593
1533.6547 530.22797
1534.4224 527.2535
1529.0242 528.20966
1525.8636 524.7823
1522.0372 523.6727
1523.6129 530.0441
1518.0106 527.44885
1513.7577 532.5001
1512.121 536.97186
1511.2133 533.93726
1511.1664 529.52783
1514.7548 529.3655
1517.7986 522.63617
1519.0814 517.01025
1522.4167 511.3575
1526.2827 504.30988
1532.2578 504.6902
1536.2366 502.2606
1539.3145 503.99042
1541.9033 506.34418
1544.8296 508.10327
1544.3164 503.59784
1542.972 500.7724
1539.6733 499.7893
1539.5532 495.9178
1542.041 497.85712
1544.9564 497.95697
1542.2734 494.58652
1539.2223 489.77948
1538.1694 493.36957
1537.2017 497.91003
1530.4924 499.80988
1533.2373 496.1662
1533.2112 490.90292
1546.2426 472.1917
1549.1102 469.65216
1553.3279 469.78766
1553.16 474.13815
1557.6937 473.378
1558.0974 470.39645
1560.9658 472.89862
1562.3557 470.8911
1561.9713 468.48193
1564.2211 466.57147
1569.4331 469.21478
1573.0684 466.43146
1575.603 462.37994
1578.7042 462.07532
1580.9866 459.89246
1584.1345 459.83026
1581.4663 456.713
1577.856 457.7464
1575.1821 454.8202
1571.8192 454.43283
1569.6119 455.9123
1569.8846 452.02557
1566.6038 450.11414
1564.5636 453.39374
1562.5557 451.10907
1563.6195 447.11115
1563.9344 443.7384
1560.7034 443.64343
1561.5996 439.57208
1565.1067 432.92737
1566.5664 437.70032
1565.5988 441.10886
1567.1022 443.87012
1567.8179 446.10117
1570.3639 446.91037
1570.2322 449.4243
1573.2559 450.06393
1576.6523 449.44858
1574.9805 446.2635
1573.2163 444.3188
1570.6597 443.33334
1570.4042 440.6734
1571.417 436.16443
1568.6522 432.53265
1566.2013 428.7474
1569.3353 426.54175
1564.8544 425.86523
1560.9939 425.62103
1563.4993 421.8198
1566.2765 420.9796
1567.023 423.85925
1569.1587 421.70566
1572.8573 424.91806
1572.655 430.21588
1578.6943 426.27805
1576.3043 423.24753
1579.1855 421.39758
1582.5981 422.13913
1583.5437 425.16895
1584.9086 428.07562
1588.1465 429.48972
1590.9124 428.378
1593.5454 429.9021
1591.0938 432.93536
1589.6151 436.8156
1593.3696 437.92926
1594.4619 440.82452
1593.4536 442.56732
1594.2589 444.40002
1596.9402 440.02985
1599.1938 440.22864
1601.0833 442.03845
1602.7083 439.08032
1600.3683 437.8258
1600.6414 434.86896
1597.8446 436.4248
1595.0629 434.39218
1598.9545 432.47968
1596.6238 430.91608
1595.7275 427.95944
1598.5552 427.9968
1600.9285 429.93323
1603.7479 431.58127
1604.4597 428.62558
1602.565 426.92383
1600.3455 425.25458
1596.8923 425.174
1594.8099 422.6344
1596.3696 420.86752
1598.9878 422.5332
1603.36 423.25156
1606.566 421.68103
1609.9974 421.43393
1610.2083 418.04956
1607.169 417.15747
1604.8335 418.6218
1602.1724 420.16037
1599.0208 419.33954
1600.5122 416.7445
1601.1354 414.5218
1603.3181 414.06152
1605.4012 414.364
1603.2627 411.3614
1604.6511 408.93555
1602.2832 406.38367
1600.2 408.76013
1596.9741 408.20264
1599.2502 412.14563
1595.6975 411.52084
1592.7026 413.7711
1596.7898 415.98715
1593.738 418.29132
1589.5605 415.5287
1588.282 418.45407
1591.7902 421.33044
1593.6765 424.53622
1591.939 425.83347
1587.9948 425.0882
1589.3826 422.0742
1586.1761 421.37497
1585.3401 418.5293
1583.494 418.19403
1581.8066 419.13098
1579.2145 417.8203
1576.7206 416.18866
1574.8751 418.5637
1572.2947 420.68243
1567.3357 418.171
1570.243 416.81927
1573.2324 414.33014
1570.5142 412.55502
1567.3438 412.1499
1569.3457 409.50595
1569.6034 407.03284
1566.9082 406.25323
1564.886 408.09167
1558.1584 410.6065
1563.3033 411.41196
1565.8235 415.19244
1563.6687 417.81747
1561.2961 414.84668
1558.8674 413.4696
1556.249 413.56454
1557.9872 417.1314
1559.0942 419.09015
1560.4498 421.03192
1555.8472 420.3131
1556.4067 422.8459
1552.5543 423.59723
1550.3972 422.51633
1548.9823 419.37286
1552.8485 419.92346
1554.8958 417.6093
1554.7094 415.00266
1554.4565 411.5012
1551.9814 412.1612
1552.2561 415.82916
1549.7583 416.35422
1548.3011 413.8155
1549.5714 411.85736
1546.5781 411.10767
1548.5492 410.37134
1550.4055 409.61182
1548.3325 408.26166
1550.4575 407.23862
1553.2102 405.77185
1553.2903 408.72003
1555.9753 408.12717
1559.7639 406.43793
1564.5614 403.74252
1561.9586 401.41266
1558.2281 398.01678
1556.4152 402.20428
1553.5004 399.71393
1552.4728 402.34006
1550.8901 403.5467
1548.8844 403.13654
1547.095 397.41077
1547.0863 401.32382
1547.1106 405.73203
1543.808 403.42822
1541.2567 400.42224
1544.0004 399.93323
1543.7168 397.153
1538.6025 399.00977
1541.5624 393.71686
1545.6536 393.64178
1544.8037 390.66156
1544.7493 387.82043
1549.4227 388.3261
1552.3384 391.65305
1549.4037 392.70947
1548.5616 395.13873
1550.8127 398.04523
1554.8715 395.00278
1553.9188 387.94366
1557.5017 390.40485
1561.5302 391.72543
1560.7856 394.2303
1561.7231 397.38898
1564.9187 397.58673
1567.8097 400.0453
1568.8213 396.37537
1566.8635 393.11276
1563.1587 389.85556
1560.0315 387.38083
1556.3865 384.09348
1559.9642 384.24255
1562.6995 384.17102
1563.8344 387.07526
1567.9147 388.5481
1571.8663 386.7815
1575.412 383.5427
1573.6627 390.67236
1576.9706 388.21823
1579.0212 385.36932
1581.7524 389.2053
1584.3335 389.50824
1586.3398 392.71848
1589.3331 391.95203
1586.6716 388.5838
1588.8097 386.78986
1590.9135 388.90353
1593.6438 390.4065
1597.442 389.92487
1601.7163 389.99033
1598.631 393.62524
1600.697 396.44443
1598.4387 401.03455
1595.7451 398.7591
1595.0454 393.86023
1591.6338 396.03488
1589.5798 399.40045
1587.8907 401.776
1589.7925 403.28387
1591.4744 405.88293
1588.8674 406.4952
1587.7668 404.34357
1585.9636 403.4521
1585.5576 401.41098
1585.8075 398.06897
1583.1799 395.1125
1579.341 392.4522
1578.0277 397.8303
1574.576 394.29626
1572.4072 397.10913
1572.8302 400.92612
1570.0325 402.1865
1567.8154 403.69214
1570.1926 404.88818
1571.5815 408.27393
1573.4757 405.8912
1575.5524 403.0974
1579.7035 404.43048
1581.5974 406.68628
1578.2118 406.74866
1576.3674 409.11426
1573.3591 409.85504
1576.1211 412.4843
1580.1241 410.15646
1583.1471 410.23315
1582.0039 412.96677
1578.8452 413.7054
1581.3606 415.58557
1583.7607 415.99643
1585.9884 415.1187
1585.8779 412.5348
1585.3628 409.60278
1583.6538 407.3159
1582.4641 404.17206
1579.264 401.0809
1582.399 401.1245
1584.2783 404.34808
1586.0653 406.01202
1587.2437 408.81006
1590.4478 410.23376
1594.1206 407.07446
1592.3625 401.56393
1595.053 403.27963
1598.0112 404.87006
1600.7817 404.2219
1603.9996 403.8994
1606.3964 404.55466
1605.9347 406.5643
1608.4915 406.41022
1607.6537 402.13824
1604.6019 400.6179
1601.552 400.60986
1605.3928 397.58942
1605.7054 394.9188
1605.9604 392.41058
1605.706 389.20993
1609.033 389.04843
1611.9155 387.44794
1611.639 391.52765
1614.7783 389.58124
1616.8276 387.6207
1616.544 383.7977
1614.7009 381.4712
1612.6597 379.37277
1616.7375 378.56982
1617.5769 375.7934
1621.5586 377.00412
1620.2733 380.2164
1620.2565 382.90918
1621.2495 385.63507
1618.9364 385.40088
1619.0359 387.71796
1620.9966 388.13986
1620.51 389.6419
1620.1882 391.08606
1619.7554 393.77682
1617.2618 391.45813
1615.4796 395.79187
1614.7546 399.00806
1612.5898 395.10483
1609.4557 395.5287
1610.5493 400.86594
1615.6445 402.06628
1621.0299 402.1507
1619.7961 397.93344
1624.5378 394.58066
1626.9224 393.61365
1623.0043 391.22388
1626.1709 390.13245
1629.6925 391.15182
1632.0271 386.91388
1632.4988 389.0387
1633.3774 391.77643
1630.1423 395.5704
1633.9832 394.72162
1635.2872 396.66867
1633.2085 399.13953
1635.05 401.86682
1633.9141 404.29135
1633.915 407.0738
1631.4363 408.00946
1630.4204 404.82733
1629.7166 400.79782
1626.307 399.11398
1623.3228 397.1461
1626.4248 403.74118
1623.6978 405.06335
1626.8574 407.82208
1623.7789 408.83408
1620.0258 409.12885
1620.9915 406.13086
1617.3301 406.10336
1613.1392 406.5952
1609.8469 409.45602
1608.9856 413.23236
1612.6726 415.5714
1615.4165 413.98035
1615.251 410.79578
1619.2457 412.88794
1622.1388 411.85556
1624.3339 413.95746
1626.5356 411.9731
1629.0743 410.05365
1631.3159 410.92065
1633.3203 412.23315
1635.4829 411.80063
1635.8844 408.63873
1633.8285 409.95053
1631.0907 413.78583
1628.7903 415.3027
1627.8179 418.29498
1625.7299 417.2682
1623.5872 420.46896
1625.9231 421.57736
1629.4111 422.7633
1627.271 425.79184
1623.9779 424.7977
1621.6283 425.81525
1619.1681 427.25583
1616.8398 427.32257
1616.5369 423.70142
1619.6808 423.26996
1620.293 420.46857
1621.9023 418.22742
1622.1206 416.01132
1617.8756 416.04346
1616.7598 418.82733
1614.1389 420.88327
1612.9453 423.80075
1614.3875 425.22864
1613.7234 427.4858
1610.3066 425.2059
1606.3893 425.40405
1610.1125 429.31458
1607.0187 430.23053
1603.7013 434.1825
1605.3894 436.41916
1607.862 436.44824
1609.599 437.2091
1610.3462 438.14984
1611.6147 439.1897
1613.5105 436.49854
1610.7915 433.68488
1614.2979 431.1722
1617.6328 431.31238
1620.6494 432.15613
1621.654 429.04208
1625.0825 428.7302
1624.8184 431.43652
1625.6338 433.509
1625.6184 435.13623
1626.458 436.6637
1628.4775 436.38116
1630.4973 435.9419
1629.959 439.7684
1628.4685 443.1234
1625.1592 441.46823
1626.6931 439.31516
1624.1904 437.89368
1622.3591 437.49658
1622.8313 434.35925
1620.4404 436.79175
1618.1584 435.27734
1615.7987 436.5348
1616.406 439.103
1618.4978 440.27173
1621.319 439.5345
1622.5721 441.1378
1624.142 444.49615
1621.7959 444.51135
1619.5907 442.77588
1615.6482 442.29037
1613.3201 441.03052
1615.4238 445.17
1618.0043 445.33176
1619.6296 447.17474
1619.0537 450.12445
1617.0681 452.84607
1614.633 449.75433
1612.0393 447.68988
1609.0928 446.45654
1611.3938 444.00647
1609.6725 441.53683
1607.3806 440.69446
1604.7502 441.25458
1605.915 444.4848
1607.113 447.92218
1604.9255 449.05783
1602.3291 445.27478
1597.9973 444.0722
1599.0269 447.47083
1601.4196 449.63632
1602.4502 452.34357
1602.9598 455.55682
1604.1617 457.9383
1603.3716 460.9714
1601.2544 460.22247
1599.2856 458.68646
1596.0934 458.34943
1596.1338 454.3712
1600.3 455.13522
1598.7017 454.25595
1597.5986 451.31976
1594.6018 450.3543
1591.0449 451.36554
1595.2986 446.6839
1592.3882 447.27988
1590.1288 448.30908
1587.4988 447.66937
1585.7473 445.79254
1587.4949 443.4124
1590.2965 444.45786
1590.1471 440.69342
1587.0895 440.0847
1584.9021 439.3244
1581.887 438.28845
1581.4849 434.99976
1584.7039 435.1502
1587.3728 434.9747
1586.3895 431.88095
1581.9822 431.161
1578.041 429.84323
1577.0271 434.37677
1576.0919 437.93903
1573.4314 440.33966
1575.8096 441.82858
1577.8519 441.30115
1579.9783 441.0595
1582.7593 441.60577
1584.9226 443.011
1582.353 444.5346
1578.7687 445.40967
1581.997 447.6432
1580.2335 450.33997
1578.2482 453.05783
1582.1272 453.66855
1584.1477 451.56097
1583.7031 449.38696
1586.0063 449.54224
1588.0122 451.57208
1585.6724 453.8458
1584.6207 456.74677
1588.1638 454.4898
1591.2744 454.75507
1593.219 456.95734
1587.9899 457.49402
1586.7555 462.27063
1589.5652 460.89246
1592.7657 462.17136
1590.5782 466.58612
1592.6478 471.3131
1596.4073 466.89496
1596.4873 462.27136
1599.631 462.95898
1601.3462 465.9553
1604.342 463.91428
1606.5579 461.52026
1608.3766 459.25897
1607.7805 457.32443
1607.4763 454.9699
1606.0642 452.55136
1610.1766 451.40002
1611.4003 454.94476
1612.0449 458.2463
1610.5024 460.7889
1609.9805 463.98312
1611.4614 466.87042
1615.0359 464.04517
1614.8192 460.40326
1614.7032 455.74655
1618.4766 456.9642
1620.1147 460.29712
1618.2092 462.93747
1622.1411 463.87238
1620.5645 466.95898
1619.1799 465.14813
1616.9092 467.74277
1615.6488 471.30417
1613.2054 469.74387
1609.5303 470.619
1606.8564 470.16684
1605.9492 466.9582
1603.1412 469.7292
1600.3815 469.89417
1604.4679 472.1429
1606.3328 474.73926
1609.6736 474.27484
1612.4478 474.28314
1615.3911 474.39874
1614.8804 477.17535
1611.0977 478.21228
1608.294 477.45294
1605.8972 478.80685
1606.1439 482.8183
1606.3928 485.7309
1607.9829 488.64673
1612.4299 486.82504
1611.3726 484.60068
1609.4244 482.0798
1613.0892 480.79614
1614.8555 483.15182
1615.8724 485.33997
1620.6484 484.9874
1619.699 482.4846
1617.623 480.6764
1616.445 478.9621
1618.1621 475.43286
1618.1747 472.4693
1620.4039 470.88953
1623.0221 469.00372
1624.6522 466.62802
1627.126 466.24008
1628.914 464.57187
1629.6276 461.75937
1627.4304 461.74103
1625.3372 463.877
1623.9746 461.48517
1624.6704 458.91452
1626.1611 455.91965
1629.6509 457.93365
1629.3298 453.0313
1622.1561 454.6241
1623.6438 449.8048
1627.0015 446.5475
1629.1948 449.40808
1632.2993 446.66327
1635.9362 445.64645
1639.3687 445.23865
1642.6857 447.07477
1638.7292 448.8004
1635.822 451.96945
1641.1543 452.37024
1643.8564 454.06213
1645.5782 452.02667
1646.7678 453.65228
1643.5042 456.50763
1646.2029 455.84564
1648.5078 456.31293
1649.0332 454.4636
1649.2059 451.75403
1652.2379 451.87866
1655.0901 453.83163
1651.5673 455.79855
1648.0184 458.0484
1645.7058 459.2602
1643.4697 460.19623
1642.6823 462.69037
1638.3253 462.7041
1635.5918 461.0771
1639.8524 460.5941
1640.804 457.59665
1637.322 456.72604
1633.3618 456.06775
1632.8367 459.8352
1631.916 461.69214
1631.646 463.5609
1635.3701 464.70947
1637.9634 465.83002
1637.9375 468.81384
1635.4574 471.96323
1636.5349 473.84225
1633.3458 472.38193
1632.2867 469.89377
1634.8237 469.01508
1633.8586 466.841
1631.8467 465.74976
1629.8862 467.5405
1630.2631 471.88495
1627.5796 469.67908
1625.2246 473.1612
1621.4733 474.8011
1622.0403 478.76242
1626.5933 481.44324
1627.8889 476.4702
1631.1608 476.58997
1634.0326 475.98816
1634.2653 479.71777
1638.6334 476.2242
1643.3867 474.90283
1643.9814 471.68475
1639.0706 472.52463
1640.9172 470.8518
1642.7316 468.4298
1641.1204 466.87213
1640.8436 464.71307
1644.8867 464.8485
1646.7534 462.52023
1650.018 462.42853
1649.2292 459.9262
1651.8561 458.92743
1653.1604 461.22906
1654.752 457.38763
1656.2924 459.82748
1657.6257 461.66443
1658.4762 463.0631
1660.6833 463.56604
1663.6614 458.3479
1660.3252 459.10556
1658.7302 455.061
1658.9569 450.70844
1655.02 449.1893
1652.5125 446.45016
1649.071 447.81165
1645.435 449.21326
1650.3834 443.30945
1653.8748 442.47632
1653.0968 439.7343
1651.6678 437.36435
1655.2946 436.60822
1657.2491 433.92078
1654.3041 431.97092
1652.0627 433.92358
1648.9822 433.5188
1646.3662 431.98486
1644.0436 435.698
1647.0413 437.4648
1648.8933 440.0829
1645.6245 443.3219
1641.8813 442.6103
1640.4768 440.39374
1638.0669 439.4513
1634.4242 442.14047
1634.4382 439.23056
1632.6262 437.3695
1636.3022 434.25012
1636.8306 437.0697
1640.1008 436.06052
1641.2368 433.35144
1641.8717 431.1755
1642.719 428.7268
1643.2029 425.6178
1645.2028 429.75934
1646.4792 427.44992
1649.2786 428.3288
1648.7877 426.25705
1648.7874 424.30185
1646.0076 423.31934
1643.6163 421.7334
1640.2164 420.7688
1637.5704 419.2599
1636.2598 422.34644
1638.3295 425.94287
1640.2971 428.37982
1639.1149 430.4134
1637.3457 430.97302
1634.2659 430.45007
1632.494 433.4107
1630.0708 433.40967
1628.5493 433.44342
1627.4076 432.45538
1629.4843 429.46704
1632.8423 426.0271
1632.8351 420.88498
1630.158 418.6847
1633.5999 416.85645
1637.0355 416.12494
1638.1967 413.47144
1638.0164 410.63568
1640.39 410.14755
1643.0579 410.4841
1646.4664 408.52502
1651.186 408.63217
1650.8461 403.7129
1646.2305 404.17258
1641.2578 404.9593
1639.9358 407.57123
1637.2173 406.1494
1638.3888 402.7928
1638.1464 399.46375
1639.4854 397.10754
1642.0024 395.8026
1642.9707 402.6256
1644.3231 399.9149
1645.757 397.46588
1647.9478 395.5432
1651.6025 393.5548
1647.5238 392.96344
1643.101 393.01685
1640.1282 390.64276
1638.3518 393.6211
1636.3457 391.48956
1636.7241 386.86874
1640.6177 386.65344
1638.5566 382.94443
1643.1849 382.62006
1640.5276 379.57053
1644.247 377.71088
1647.4119 373.45667
1652.3853 371.68726
1654.7935 374.88962
1650.0122 376.28033
1649.5918 380.05173
1647.7262 383.10458
1644.8196 386.11572
1644.5402 389.32452
1645.3396 391.79706
1648.6938 389.04868
1653.3837 389.7054
1651.2563 386.03583
1654.1616 384.22446
1652.2036 382.38828
1654.1531 381.31345
1653.2703 379.1998
1656.7981 378.24176
1656.443 381.98126
1658.4703 383.1477
1660.782 380.26788
1660.225 374.13623
1653.8774 368.51685
1657.2477 366.53976
1658.7606 370.0746
1664.8958 372.94812
1669.0912 369.8658
1670.7959 364.9336
1670.8853 361.39072
1672.1611 358.9417
1676.8307 364.2414
1677.2212 361.1729
1675.0308 357.4283
1672.5813 355.1395
1670.4633 353.1233
1667.6011 350.25195
1665.5022 352.9676
1667.3309 356.50034
1665.9148 360.84296
1664.832 366.77838
1661.294 364.04272
1657.8411 361.81482
1661.38 358.42184
1662.298 354.3399
1661.552 350.582
1662.1533 346.80316
1665.6392 345.9842
1669.5627 343.96802
1670.9133 347.1058
1672.4694 349.0628
1674.296 351.30554
1675.6401 354.3371
1678.5205 357.85178
1690.3989 346.9323
1691.5436 343.61554
1691.4552 339.5474
1694.7175 342.57553
1695.9437 340.44116
1694.7029 339.12466
1692.2943 335.20844
1690.3248 335.48068
1687.3057 340.67007
1687.8474 336.33646
1689.0398 332.38776
1691.8046 331.4396
1693.9294 332.5734
1694.0223 329.3382
1695.7826 331.26123
1694.3195 334.54706
1694.9159 336.07147
1695.7725 337.28296
1697.9304 339.28912
1699.0498 337.32202
1699.0596 334.49973
1696.8811 332.92126
1699.8909 331.23737
1698.3635 327.78113
1702.6458 325.0726
1707.0023 324.16412
1708.7861 319.83325
1713.7712 318.42316
1718.3558 319.0118
1716.1187 322.1485
1712.8533 321.4381
1712.8237 323.95532
1711.3684 325.4359
1708.8903 327.20068
1711.3971 329.12585
1711.7603 332.83142
1707.6045 333.39157
1707.0684 330.27316
1703.9304 329.24158
1703.7246 333.02475
1702.0364 335.34808
1706.1707 336.82404
1702.2872 338.20837
1703.1685 340.96732
1704.7065 342.8635
1706.8215 343.44177
1706.3997 340.22357
1708.7484 339.4628
1710.2009 336.90405
1711.6421 340.04004
1714.8 340.35458
1714.0359 336.43924
1716.486 331.35223
1715.8086 326.6027
1719.1838 326.63666
1719.6212 323.54373
1721.5199 326.9181
1722.4832 328.63785
1720.8245 331.35284
1721.9291 335.20782
1728.1337 334.64062
1726.2173 332.48013
1724.9321 329.65396
1726.4026 326.40515
1724.0594 324.53128
1722.3994 321.5303
1725.6252 318.89307
1722.2556 316.7575
1719.4436 314.38318
1722.5974 312.19696
1726.072 313.00586
1728.4231 314.24225
1731.1079 314.17136
1731.2219 309.19794
1734.4839 311.32495
1738.4109 309.18045
1741.6691 313.4604
1744.0109 317.92484
1746.4598 319.9549
1742.5378 323.47028
1738.7305 322.62167
1742.56 321.27213
1741.0741 319.21262
1741.4938 316.81982
1738.7021 316.8728
1737.2041 313.41534
1735.9988 317.6015
1734.9921 320.49258
1733.5034 315.93152
1729.8499 318.18967
1731.3972 321.81815
1727.8379 322.74188
1731.2417 325.54666
1729.2977 328.70135
1730.9353 332.8224
1733.3882 329.90533
1735.6392 327.12042
1734.9172 324.19687
1738.0944 328.08777
1740.2744 325.6677
1743.3574 325.8169
1740.5383 327.69016
1741.5796 329.84818
1737.4822 331.49695
1734.5198 333.70178
1730.3345 336.07977
1727.6061 338.4344
1725.8549 336.02338
1723.6987 338.33212
1718.0969 336.6979
1720.3667 340.3492
1718.2603 343.62067
1716.5101 342.30185
1713.956 344.14728
1711.9114 343.35678
1709.6056 341.99997
1708.0432 342.53577
1709.5242 344.71323
1710.7915 347.26727
1706.4647 348.99512
1706.1152 345.89502
1702.7017 346.9002
1699.2191 345.4608
1700.2034 341.68213
1697.3616 342.49152
1694.9877 347.05737
1697.6357 349.99628
1700.6306 352.84473
1713.2681 385.91382
1714.6865 392.11115
1710.0991 393.3259
1710.3604 388.66183
1717.3033 388.51096
1720.2175 385.29596
1724.4775 385.90277
1724.7002 390.03537
1721.5554 388.79846
1719.1805 392.22668
1716.6907 395.89764
1714.5063 397.1057
1718.8884 398.42688
1722.0155 399.15222
1724.8503 398.15607
1726.6504 402.153
1730.8461 403.3557
1729.3013 399.81674
1731.1233 397.2151
1727.4987 395.3036
1724.2047 394.92282
1719.9869 395.1712
1722.0623 394.51303
1724.4183 392.4817
1728.8777 390.72726
1731.728 392.37402
1728.5 386.75934
1733.3181 386.35455
1739.6382 387.03265
1741.9395 389.4126
1736.4056 389.73056
1735.6711 393.02045
1735.0156 396.01276
1736.4954 398.63806
1734.1221 400.31262
1734.3375 403.1662
1737.2256 404.6353
1738.9614 401.17892
1743.515 401.29684
1742.9182 396.91296
1739.4178 396.08685
1741.9283 392.6347
1743.819 388.90805
1745.206 388.52667
1745.5103 391.34616
1748.2051 391.3625
1750.7312 389.82336
1747.3804 388.04367
1745.008 386.2489
1749.078 385.31454
1751.9468 386.98743
1755.1554 386.2951
1759.7495 388.20508
1759.7924 392.06793
1756.5024 390.91696
1753.5151 391.0152
1751.022 394.13287
1746.69 395.93048
1750.4512 397.90436
1750.3888 400.4253
1747.6083 400.51312
1746.4879 404.49582
1749.9502 405.94904
1751.8049 403.23883
1753.9246 402.50668
1754.6042 400.49042
1753.1472 397.87485
1755.2336 395.12946
1756.8489 398.1095
1757.527 401.2824
1757.0865 404.2962
1760.6407 403.12445
1762.7173 400.4354
1759.9297 398.93146
1760.3462 395.52734
1762.6572 390.26877
1764.071 393.24023
1765.376 396.71222
1765.8972 401.7821
1760.197 407.12158
1754.6102 406.88385
1752.7224 411.00323
1746.1406 408.7658
1741.801 405.0819
1740.0487 407.7479
1741.1315 411.7116
1736.4277 408.72943
1733.6339 406.62106
1729.616 408.2824
1725.9629 406.4696
1723.5759 409.43256
1720.001 411.58258
1717.2904 409.0781
1717.385 406.05954
1721.1909 406.28683
1722.0781 402.69196
1717.7822 402.67212
1714.4028 400.8399
1714.125 405.8415
1711.4017 409.29498
1709.6974 405.52484
1708.2106 402.44672
1711.1531 400.63794
1711.5984 396.80576
1708.2439 397.72095
1704.2603 403.8239
1705.3555 400.01685
1704.9639 394.36322
1705.4761 389.8436
1702.8364 397.63522
1688.063 400.60535
1685.9885 403.113
1683.7472 405.44565
1685.157 408.68988
1689.6814 406.38513
1686.9906 411.78314
1685.1195 414.2951
1684.2811 417.03503
1687.0708 417.10983
1686.7501 421.4784
1684.5608 420.21555
1683.8232 422.8104
1682.3048 421.34515
1680.816 422.362
1678.6848 422.27942
1677.0411 420.8061
1674.8496 419.82465
1677.9377 417.34216
1677.7773 413.68518
1681.2351 417.9104
1679.9019 419.5278
1683.2408 418.76794
1681.657 415.4203
1681.5552 411.677
1680.9214 406.40695
1680.011 402.9923
1682.2776 400.40894
1678.9312 400.9082
1677.4326 399.44882
1676.4136 396.6035
1672.4729 395.51404
1667.1738 394.43726
1668.825 398.45966
1668.5809 402.42645
1670.375 404.92072
1671.9474 406.279
1673.0553 408.55807
1674.5657 411.34656
1677.509 408.55905
1678.0498 405.50058
1674.5626 405.48663
1675.6448 402.95395
1671.8164 401.82397
1673.7319 399.88803
1677.7986 393.86475
1682.6554 397.1839
1687.6841 396.3458
1684.3491 393.97714
1686.8446 389.20685
1685.7708 391.47327
1681.1985 392.75342
1678.3503 390.84216
1679.9275 389.32922
1682.2004 388.75488
1684.9509 386.06567
1684.3088 383.34796
1684.4519 380.58716
1686.8834 376.4084
1683.1553 376.67072
1680.8569 378.299
1679.893 375.34897
1681.8477 372.0051
1683.583 368.76593
1680.8396 365.40692
1676.151 367.5594
1674.0461 370.38998
1674.5605 373.6228
1677.5103 373.67258
1677.1018 377.95117
1678.6238 380.5162
1680.6636 381.23264
1681.0354 385.00214
1678.5183 385.21997
1676.7241 381.7533
1674.7368 378.64008
1673.7705 381.0027
1672.3246 383.58835
1668.4253 384.7042
1669.4026 381.03488
1671.3857 378.54138
1672.468 375.36487
1669.009 374.88794
1667.5193 377.80844
1663.8159 378.02682
1666.2739 381.5183
1663.9998 383.70093
1661.017 384.69122
1663.4014 387.36993
1664.9429 387.82013
1666.0719 386.30478
1668.7461 388.789
1672.154 387.41818
1675.7303 385.05978
1675.817 389.48386
1671.2485 391.5511
1666.8447 388.98483
1664.9663 390.67596
1662.3184 392.50897
1661.6189 388.3861
1659.1301 386.69028
1656.1713 386.45776
1658.713 389.58582
1657.0004 392.05518
1654.5347 395.4105
1657.2434 396.42404
1659.7544 395.55307
1663.0416 397.02417
1664.5984 401.13058
1659.7844 401.3322
1649.9812 398.30624
1653.213 400.12103
1656.3877 400.62253
1658.9553 404.89563
1663.8538 405.29047
1667.2004 406.2329
1669.7194 408.82043
1666.7634 410.41058
1664.9321 410.3723
1664.0083 408.31604
1662.625 409.58258
1659.8845 408.2511
1655.5015 408.55402
1657.4756 413.4131
1660.7754 411.17014
1663.0121 413.08932
1660.6494 414.75085
1659.855 417.3955
1662.9724 417.2284
1666.5851 414.47324
1669.8396 412.47568
1673.883 415.34692
1671.9581 418.16852
1668.9303 418.24557
1665.2839 417.3398
1665.6985 420.62903
1662.6378 423.21246
1661.045 420.2312
1658.1019 420.48413
1655.4158 420.33942
1652.1577 418.35458
1655.5305 416.9876
1652.9609 413.90448
1648.8909 413.0222
1644.2792 414.34082
1640.9374 416.30292
1643.6821 418.6349
1647.6099 417.28854
1648.9895 419.82556
1650.2119 422.01828
1652.8528 421.7065
1652.6387 424.79248
1651.0093 429.989
1653.6904 428.17966
1656.1074 425.9085
1655.7916 423.16217
1658.8905 423.6139
1659.5696 426.64178
1657.0625 429.4181
1660.1194 430.67413
1660.8301 434.33408
1663.3701 437.83356
1658.9734 439.1673
1656.0664 440.2745
1656.3481 444.5738
1660.1031 446.7761
1659.6716 443.26364
1662.8169 442.3794
1665.52 442.45172
1668.1172 441.72568
1668.7897 436.4995
1670.824 439.4757
1673.24 439.9461
1675.1384 441.68927
1672.8242 444.08527
1670.1449 445.10754
1668.0552 447.722
1665.4532 446.10507
1663.2219 448.0455
1663.9198 450.7779
1663.1199 454.1129
1667.095 455.57074
1668.4548 451.67883
1672.0176 448.73456
1676.8915 444.52924
1676.6421 438.9398
1673.1082 435.0239
1676.5255 435.13657
1678.5092 433.1256
1679.6102 430.64404
1677.5945 428.21457
1675.9474 430.25217
1673.3345 429.8485
1670.4011 429.5576
1667.3308 430.24164
1665.6912 433.79034
1663.3352 430.2811
1663.2413 426.88205
1666.8391 425.27878
1670.0259 423.10382
1673.4783 424.4804
1676.6921 424.58917
1678.5176 426.42444
1680.097 424.84985
1682.252 425.69525
1683.6459 424.47253
1684.5789 427.27377
1681.3763 428.04428
1682.8689 431.43292
1680.6404 434.79846
1679.0883 437.1358
1691.8909 449.09247
1693.5577 446.2207
1697.624 445.63556
1701.9482 443.94843
1707.002 447.52454
1709.9797 453.6694
1714.9467 452.24423
1718.8925 455.36755
1718.3906 459.43185
1723.3193 456.94928
1722.0664 461.33917
1725.7244 463.90784
1726.5769 460.35095
1729.9794 460.5315
1733.3243 462.3397
1733.5726 466.87817
1733.3978 468.83212
1735.5776 470.73224
1734.2756 474.385
1732.91 471.45917
1730.81 471.5868
1728.1216 470.70273
1728.572 473.30466
1729.8865 475.69147
1730.2136 479.86572
1726.7266 478.74402
1722.2382 477.98264
1724.2754 474.93393
1725.0527 471.2516
1720.7377 471.3567
1717.5348 469.67355
1713.4075 469.80832
1714.2102 473.2772
1710.0535 473.25214
1710.7183 476.76486
1714.4976 478.0228
1716.8525 476.5515
1718.4076 474.29807
1720.0509 476.6084
1719.9187 479.244
1717.381 479.9262
1718.7301 481.89703
1721.8223 482.79437
1723.8623 480.68185
1726.7615 483.55048
1728.7649 486.9917
1732.0295 483.70605
1733.7726 488.85083
1739.2965 485.75937
1736.8589 483.16998
1741.1647 479.74985
1736.0121 480.74457
1733.4479 478.22763
1737.3018 477.53925
1738.321 474.473
1741.0597 474.77975
1744.4337 475.92517
1742.8774 473.99072
1744.1245 471.6137
1740.3413 471.57202
1737.8784 469.98935
1741.1083 468.10706
1737.669 465.6638
1734.9587 465.66382
1730.8619 468.03818
1729.6423 464.69458
1727.5986 468.0179
1723.3488 467.14938
1720.6492 465.18918
1718.0149 464.48444
1715.2142 466.57672
1713.8167 463.64697
1716.0696 461.50766
1713.5527 459.1463
1710.6753 459.98727
1711.5695 463.75836
1712.4246 465.5302
1711.3345 467.1411
1709.1224 469.06927
1705.6859 472.48975
1700.5059 469.98022
1697.9565 467.49445
1693.7721 466.26508
1695.2161 462.3497
1698.5289 462.29053
1700.435 464.32
1700.2896 459.73276
1702.4156 460.04968
1703.4465 461.87585
1705.2115 462.92258
1704.4033 464.92493
1702.0989 466.82288
1703.6826 469.4089
1706.1428 467.3659
1707.4268 464.08374
1708.7029 465.52158
1710.1343 463.5566
1708.3395 462.56195
1707.618 461.03503
1707.021 458.6247
1704.2332 457.71533
1705.8091 455.03412
1704.7422 451.86328
1701.6654 449.56317
1698.2375 450.56174
1699.4419 454.26306
1702.5623 454.95343
1702.1714 456.9635
1700.5177 457.12695
1698.1628 458.32782
1695.0996 458.15314
1692.7095 455.96225
1695.013 452.19797
1690.0128 452.9112
1686.1917 454.08823
1688.0479 457.77515
1689.9604 462.1324
1661.9232 485.69467
1651.8102 469.04782
1656.1139 466.14352
1653.8278 463.98474
1650.3137 465.62286
1646.5834 467.58136
1647.8904 471.62192
1651.5996 487.2555
1656.1793 487.8891
1659.1075 488.73022
1663.106 489.7585
1661.1427 492.61206
1658.6064 494.05493
1655.3838 494.05695
1651.2903 491.93555
1646.5688 493.0863
1644.807 497.64108
1649.0609 501.10016
1649.6931 497.6776
1653.7251 498.41476
1657.482 499.09055
1660.408 500.7193
1664.2067 501.5074
1662.654 504.23962
1661.5227 506.02472
1659.4299 508.2148
1660.5479 510.85358
1663.493 509.6843
1665.8551 509.07443
1667.6758 510.06125
1666.733 511.83017
1664.8262 511.77466
1662.6921 513.7007
1662.5647 516.7731
1665.2346 517.0953
1664.9961 519.3279
1667.3745 520.8401
1669.4888 520.27997
1671.6132 519.3375
1673.4575 517.48987
1676.3807 516.19415
1676.4978 512.8785
1672.8671 513.18555
1670.5492 515.74274
1669.434 517.53326
1667.5652 517.94073
1666.6478 515.0563
1669.1918 513.2379
1670.4949 510.40173
1669.0286 507.79
1664.661 507.33966
1665.146 505.1989
1667.1682 505.2326
1667.5818 502.82324
1669.3693 499.6939
1665.2 497.7181
1661.023 496.70935
1663.4523 494.68066
1666.0271 492.72662
1669.778 494.19113
1673.5159 502.78137
1670.9099 505.1733
1674.7888 508.47638
1679.9744 511.0957
1680.6138 516.97266
1677.3164 519.87384
1678.565 523.1738
1677.0381 524.4938
1674.7756 524.47296
1673.3615 521.5749
1670.7104 523.6771
1668.1394 524.84503
1665.2537 522.3755
1662.5791 522.43933
1665.0416 526.4015
1667.7026 530.38293
1672.6348 526.9886
1675.3722 529.7262
1677.2301 527.79034
1679.7625 526.40247
1681.9114 526.2607
1682.4761 528.0099
1685.3799 528.7312
1684.3329 525.6395
1680.8523 522.70483
1683.908 520.02136
1683.9954 523.3135
1687.979 526.58984
1689.5223 533.3617
1685.1793 541.03357
1684.0627 536.442
1685.7485 533.40173
1682.9148 531.6005
1683.2683 529.45
1680.7346 528.6937
1679.5049 530.0667
1677.2892 531.94867
1679.7563 533.18555
1680.0457 536.2073
1679.4386 539.396
1679.7488 542.8767
1675.6285 543.6322
1671.4796 541.7408
1674.0676 540.0824
1676.4368 540.36615
1676.0182 537.6675
1675.7717 534.34827
1673.2354 532.36615
1671.0364 530.04224
1670.993 535.4324
1673.8225 536.47815
1669.5233 538.2373
1666.9362 540.4921
1666.4325 537.2355
1667.1304 534.44165
1663.8278 533.082
1662.5103 529.8114
1659.6927 526.61975
1657.9142 522.44714
1661.0869 519.55005
1658.8279 516.15436
1655.3773 517.3799
1651.9036 513.9627
1655.0854 511.36298
1655.7137 507.28088
1658.3328 504.68738
1654.8606 502.68866
1650.4438 504.12195
1650.9407 508.0816
1646.782 504.9732
1644.3823 501.4052
1613.4644 508.64926
1613.7269 513.6582
1610.9326 515.8511
1610.8076 511.7235
1608.9719 509.7907
1608.4314 506.8813
1606.6779 503.60822
1605.4316 510.61548
1608.1259 513.5344
1604.8838 513.79333
1603.8342 515.8387
1601.6708 516.4607
1599.0684 516.9218
1595.3928 517.41583
1597.6018 521.08887
1598.4032 524.61865
1599.5166 527.348
1598.4146 529.3704
1597.2673 531.62
1600.4661 532.74994
1601.7964 529.855
1603.933 530.1023
1605.8031 528.5039
1606.9272 526.21454
1609.4736 524.50494
1606.0175 522.1266
1602.7471 526.1152
1601.7308 522.0763
1602.508 518.6749
1604.9912 519.1671
1606.4927 516.95447
1608.5781 517.4074
1608.7792 520.66327
1610.8418 521.45056
1611.4167 519.2185
1613.3016 518.7008
1615.1039 517.0028
1614.2612 521.443
1612.1525 522.60004
1613.05 524.29395
1612.3616 527.0384
1611.2208 529.95764
1614.6652 532.84186
1611.154 534.91113
1608.3973 532.4731
1605.5106 532.3791
1602.6775 535.67957
1605.8839 538.6209
1611.2865 538.99475
1611.692 544.67236
1605.6376 542.7821
1602.3822 545.1068
1601.6973 542.1881
1598.8763 543.31805
1596.1296 543.2935
1596.9058 546.4309
1599.5021 546.08167
1598.9888 548.17035
1599.5059 550.2886
1595.767 549.13464
1597.4486 550.1146
1598.1259 552.94885
1600.2375 553.6118
1603.6741 558.06555
1605.4912 555.00323
1606.5835 551.50964
1603.0566 553.71765
1602.1732 550.88495
1602.4733 547.8531
1606.9288 547.4274
1611.7886 550.2405
1609.5076 552.60767
1608.6035 556.3065
1610.2588 555.54517
1611.7793 556.0815
1612.051 554.15216
1614.7684 554.3656
1613.7421 556.4759
1611.5679 558.7137
1607.229 558.35596
1608.9296 562.0061
1606.1937 561.7961
1603.1499 562.0012
1600.1577 564.89465
1599.3154 561.25806
1600.1893 558.231
1599.7834 555.92737
1596.3665 558.93646
1594.5844 562.9769
1591.6213 558.4985
1596.0576 555.26624
1595.7306 551.8745
1592.9277 554.429
1592.2023 552.0064
1594.0223 547.8679
1592.3213 549.85864
1587.8433 548.6692
1590.5819 546.09045
1593.9165 545.1929
1590.918 542.10034
1592.2517 537.7829
1595.5125 540.1467
1599.8472 539.4967
1597.7122 536.58655
1595.8081 534.6987
1593.2152 534.2407
1589.8143 533.5997
1589.4723 529.3967
1592.0114 530.48376
1594.4548 530.8208
1595.4974 527.3286
1592.7451 526.6941
1590.7395 524.2233
1594.6741 523.619
1592.0758 520.8675
1589.6897 516.55237
1592.4775 511.7951
1593.0217 506.62103
1596.9635 508.3823
1597.4347 512.3826
1601.0254 513.4186
1601.1635 510.15723
1603.5433 507.89783
1603.1953 505.2982
1601.7738 502.84784
1599.313 506.4792
1597.7067 503.24506
1597.1785 486.2811
1601.7517 486.74597
1601.1405 483.15195
1603.7258 481.00354
1600.6074 478.87256
1602.8528 475.6715
1599.9263 474.25946
1596.9573 471.75607
1591.743 475.9011
1596.2708 476.1751
1596.8945 479.44382
1596.7551 482.22913
1594.1887 484.48444
1590.8685 485.60153
1586.9355 485.0493
1582.4102 484.4885
1577.8077 483.97565
1579.6595 481.25922
1581.6295 480.0947
1579.8239 479.59106
1579.2842 477.66266
1578.4847 475.79016
1576.5193 473.69305
1579.348 473.0912
1581.8827 473.422
1583.8209 472.70294
1583.8589 470.5
1580.6891 470.05527
1577.888 467.639
1580.344 465.14496
1583.2391 463.02014
1583.8636 466.44836
1586.422 468.18332
1587.7025 471.93576
1587.9893 476.67236
1591.6805 480.50714
1586.5704 480.52988
1583.8296 479.15503
1581.9027 476.96274
1584.6311 475.34174
" />
</g></g></svg>
