<?xml version="1.0" encoding="UTF-8" standalone="no"?>
<!-- Created for Inkscape (http://www.inkscape.org/) -->

<svg
   xmlns:dc="http://purl.org/dc/elements/1.1/"
   xmlns:cc="http://creativecommons.org/ns#"
   xmlns:rdf="http://www.w3.org/1999/02/22-rdf-syntax-ns#"
   xmlns:svg="http://www.w3.org/2000/svg"
   xmlns="http://www.w3.org/2000/svg"
   xmlns:sodipodi="http://sodipodi.sourceforge.net/DTD/sodipodi-0.dtd"
   xmlns:inkscape="http://www.inkscape.org/namespaces/inkscape"
   width="3200"
   height="800"
   id="svg2985"
   version="1.1"
   inkscape:version="0.48.1 r9760">
  <defs
     id="defs2987" />
  <sodipodi:namedview
     id="base"
     pagecolor="#ffffff"
     bordercolor="#666666"
     borderopacity="1.0"
     inkscape:pageopacity="0.0"
     inkscape:pageshadow="2"
     inkscape:zoom="0.35"
     inkscape:cx="1600"
     inkscape:cy="400"
     inkscape:document-units="px"
     inkscape:current-layer="layer1"
     showgrid="false"  />
  <metadata
     id="metadata2990">
    <rdf:RDF>
      <cc:Work
         rdf:about="">
        <dc:format>image/svg+xml</dc:format>
        <dc:type
           rdf:resource="http://purl.org/dc/dcmitype/StillImage" />
        <dc:title />
      </cc:Work>
    </rdf:RDF>
  </metadata>
  <g
     inkscape:label="Layer 1"
     inkscape:groupmode="layer"
     id="layer1"> 
     <g>
<path style="fill:none;stroke:black;stroke-width:2px;stroke-linejoin:round;stroke-linecap:round;" d="M 
1567.8896 275.33762
1566.3599 275.23395
1571.5082 273.24023
1570.5115 271.75214
1570.2527 265.46365
1563.5867 264.90665
1562.2184 267.2484
1563.0764 264.03625
1560.613 264.02393
1558.4326 264.51663
1558.246 263.66388
1559.78 262.90717
1561.3011 261.16925
1557.5239 257.41583
1560.8405 260.30396
1564.1871 259.14056
1569.1335 260.55005
1569.3916 260.33774
1570.4568 255.6352
1570.8793 258.08575
1574.4958 263.1901
1579.258 262.6582
1579.558 262.76724
1580.525 262.0497
1580.5769 259.85742
1579.6769 257.92914
1580.3013 257.6896
1583.2437 254.41971
1587.6404 256.0597
1592.9773 253.77208
1595.6914 255.13257
1593.6895 257.28683
1595.0039 257.76254
1596.9646 257.27216
1597.0281 260.3751
1597.782 268.54144
1594.2744 268.7292
1594.6802 268.0917
1592.2054 269.1616
1589.1593 266.98233
1589.3862 262.95428
1591.096 260.9936
1591.0552 263.03104
1586.5836 265.38556
1579.9685 266.59076
1582.625 269.53964
1583.311 271.43182
1585.777 273.6818
1590.5728 272.62766
1592.4606 269.50012
1594.8616 274.83704
1597.9498 277.0387
1595.6548 277.8383
1594.4225 277.50696
1593.9556 281.15244
1594.9227 281.5599
1596.5581 281.52045
1600.0231 282.3661
1598.7279 279.89636
1600.8876 278.2885
1601.8796 275.80225
1602.0464 274.74466
1603.3824 275.1751
1605.4429 273.12445
1605.9287 269.2666
1602.957 268.51068
1603.3821 265.75702
1604.5558 264.4432
1605.3073 264.25897
1603.665 262.6095
1604.289 262.31195
1604.4539 259.6944
1602.5515 258.72766
1602.6509 257.4826
1601.6431 257.72803
1601.0326 257.1198
1601.4121 256.03256
1602.005 253.61394
1603.0864 255.97531
1606.7474 255.33435
1607.6993 254.80057
1609.5234 256.60242
1611.3896 255.44922
1612.8967 255.52666
1611.7491 259.28967
1608.4734 261.36597
1608.0249 259.59732
1609.7068 261.3777
1614.8374 262.71664
1615.2432 265.4956
1613.2448 267.68893
1610.1497 268.39447
1607.7163 269.13635
1608.3579 271.72226
1610.2878 271.71548
1611.7062 271.2812
1616.7971 270.6579
1617.9802 272.87006
1615.8737 274.50928
1615.7197 277.61664
1615.938 277.68393
1615.0482 279.6631
1617.8453 282.2157
1617.4266 283.3779
1621.6394 288.05124
1624.0864 289.1719
1625.0237 289.23004
1624.2842 288.39606
1626.26 281.75558
1624.9211 275.96133
1625.9646 273.18085
1626.542 271.06174
1625.6152 272.27368
1620.6243 271.93695
1621.4219 266.8833
1624.7366 265.996
1619.0203 265.62143
1620.531 264.30133
1619.5068 259.06876
1617.9154 258.02652
1623.2526 256.48328
1623.9166 259.31982
1625.9602 261.3785
1624.2505 262.95404
1626.0382 264.49173
1627.0402 264.08173
1634.1235 268.2005
1635.4138 264.58643
1636.3159 263.36627
1636.396 261.7083
1630.371 260.14954
1628.6755 258.9884
1629.0049 257.47015
1631.0798 255.13016
1631.8411 253.69437
1633.3066 259.3897
1635.8276 257.35922
1642.0421 257.96756
1642.271 257.7038
1642.7312 259.0797
1648.7087 256.2356
1649.582 256.1598
1647.6248 260.1324
1645.4004 262.63794
1644.1603 264.71307
1642.4717 267.5462
1640.0237 263.71765
1637.7051 261.9302
1639.897 266.33234
1636.5892 272.44464
1634.7799 273.31
1636.5742 275.0711
1639.8556 279.89615
1641.345 273.63794
1644.5201 271.50455
1644.7192 271.40436
1644.7532 272.2983
1645.3887 272.50443
1645.2524 274.78564
1642.4073 278.56964
1646.1879 279.2587
1648.1777 282.6289
1649.2244 279.141
1650.9648 279.3874
1648.9453 277.55768
1652.4641 272.46738
1658.0289 273.16528
1657.7571 271.04034
1656.8638 270.68948
1651.6917 266.42517
1647.9528 266.1004
1648.688 267.66006
1651.9314 265.21918
1655.2363 265.2914
1656.8041 263.51712
1659.1969 265.70056
1661.1628 268.8013
1665.616 267.12225
1668.3688 260.70322
1666.6719 260.4361
1663.5688 258.9357
1660.7954 255.42566
1666.607 255.6217
1668.2073 258.50897
1670.5586 259.0131
1674.4613 261.47842
1671.9716 262.55594
1665.6158 269.89737
1664.0502 271.9603
1667.3538 275.55142
1663.2158 274.30447
1662.2437 275.64105
1661.491 274.55798
1658.7174 274.28497
1658.6543 277.7781
1656.9358 280.15265
1658.5879 282.67596
1660.5063 280.78458
1662.4438 280.31787
1665.8474 279.43533
1667.574 283.3346
1669.5446 282.4641
1668.9944 281.8557
1670.5131 280.18195
1674.7731 285.05762
1672.5299 286.3862
1671.7004 291.53018
1671.1096 294.04883
1674.6136 297.19324
1669.7866 295.6477
1669.3086 293.66464
1666.5951 292.7144
1666.8372 293.4643
1664.2252 295.81174
1659.1351 293.29572
1663.3044 292.58557
1663.5806 291.65665
1666.2203 290.67072
1667.5967 287.71478
1664.7952 285.953
1661.346 288.5624
1659.4009 289.92487
1656.5521 293.85486
1653.4843 297.0699
1651.7751 296.67886
1653.5929 291.33145
1649.2151 289.09415
1648.6609 284.28503
1648.668 286.0149
1646.7195 289.44128
1644.2947 287.38123
1642.3337 291.69632
1640.9976 294.284
1639.4849 291.2619
1638.0273 290.15973
1635.6892 292.6704
1633.2666 292.32898
1635.2006 291.82828
1635.7522 289.21124
1636.8181 284.81848
1637.3367 280.92365
1631.1978 278.85513
1630.5146 277.92206
1627.4233 281.48337
1628.0137 282.8342
1628.678 288.17133
1628.9299 289.94034
1627.5752 297.20578
1623.1023 295.7462
1618.8538 296.07642
1616.3052 296.2503
1622.2477 291.6183
1618.5544 288.7722
1615.958 286.7047
1614.0687 287.26807
1614.1667 288.98596
1612.5261 290.31857
1614.0751 292.53284
1611.321 294.02884
1610.8013 295.8748
1608.2231 294.17398
1606.1401 292.1847
1607.7474 289.90744
1607.947 286.5185
1606.0996 284.4448
1604.6685 279.73407
1605.5461 275.6615
1608.2637 275.26486
1611.7454 276.06012
1612.1766 277.79468
1611.6188 279.84912
1607.7839 280.2773
1609.6472 281.49576
1612.8959 283.27356
1610.9011 284.50278
1610.1014 287.19214
1608.3685 289.17395
1606.4238 290.1419
1602.0284 288.5828
1597.2473 289.38766
1597.3098 291.82648
1594.4562 294.02048
1591.9683 293.0535
1594.7865 295.6145
1595.4766 293.0607
1596.6373 289.10083
1594.1293 289.95563
1593.5819 289.4015
1591.1375 288.3477
1589.8551 286.84177
1588.5977 283.97003
1583.0797 283.5631
1587.1722 281.33725
1590.3151 283.72845
1589.7488 279.7805
1589.2985 278.78897
1588.0775 274.96582
1583.8232 278.48413
1583.123 278.2578
1583.4088 275.96353
1581.5065 271.99564
1578.7341 275.3589
1575.5947 279.8083
1569.8335 280.26093
1568.282 281.01495
1569.8884 285.06467
1572.8203 284.57825
1572.4299 285.77206
1573.2388 289.79318
1572.4697 291.3927
1573.5187 290.3525
1581.4714 286.82278
1583.3988 286.55334
1583.2468 287.52014
1586.3615 287.71408
1587.5127 289.2082
1586.731 289.27667
1585.9968 290.9688
1587.603 290.41022
1589.793 292.40802
1588.108 295.3814
1585.66 293.95572
1583.0566 294.0737
1582.9268 295.3157
1579.7848 295.62866
1578.8055 295.75116
1578.3148 295.9043
1576.979 296.73914
1575.2048 295.4502
1575.1409 296.40533
1574.6537 296.82962
1571.4429 295.6809
1569.0479 291.04956
1570.2233 289.37393
1569.1908 288.99603
1567.3053 286.85687
1566.4116 285.77487
1567.4347 288.36264
1565.5751 294.18134
1560.9994 290.8896
1562.1034 285.61038
1562.7133 285.17706
1564.3586 284.2577
1564.2336 283.5255
1561.2511 283.7904
1560.3512 285.01718
1556.321 283.94272
1559.0336 280.03592
1560.2397 279.83667
1565.4927 277.0506
1561.0753 278.61365
1558.3315 275.9879
1555.2852 274.02618
1553.2715 279.0993
1549.9796 277.3392
1550.6377 281.87207
1552.0553 282.36105
1551.7645 283.61075
1550.8641 282.81027
1548.7754 282.91513
1543.2788 288.0703
1541.8954 282.71973
1540.2332 277.08508
1537.2258 275.31427
1537.4419 275.2572
1540.1068 276.21686
1545.1659 276.97284
1549.5981 273.1163
1549.7148 272.4532
1551.8774 265.5767
1547.383 267.1142
1545.3085 265.16528
1548.9648 261.19867
1552.4446 265.7052
1553.1594 263.8038
1551.1073 260.8348
1550.6171 260.47855
1548.4014 260.3869
1546.8754 257.67798
1542.854 261.21823
1538.1072 259.56665
1535.5552 255.66283
1531.5878 253.42749
1526.3938 254.96973
1524.8717 254.78197
1528.2814 256.2279
1532.5286 258.6434
1537.4099 263.23578
1539.862 264.97122
1544.2795 267.25165
1545.0953 268.83603
1543.0508 268.854
1542.1189 269.54517
1542.5768 270.78864
1542.5829 271.3654
1538.7128 271.09445
1538.6804 270.68176
1539.0532 266.239
1535.6328 263.84595
1534.555 263.9754
1531.7405 262.57162
1529.5485 264.3752
1531.7571 265.43628
1531.5215 266.32803
1529.2402 268.8781
1527.796 269.52417
1525.0083 268.92078
1525.2964 275.69867
1525.605 276.97714
1526.066 277.1983
1528.5562 275.8614
1531.6033 273.3201
1530.3087 275.9079
1531.9208 278.44147
1533.2659 278.25735
1534.314 279.76007
1535.9802 279.0536
1536.9324 281.00006
1537.0347 281.2822
1536.0564 281.33145
1532.9852 281.2192
1533.1355 286.6728
1535.4364 288.512
1539.5977 288.8355
1539.5842 291.71048
1539.4619 293.15216
1535.8367 293.0579
1533.5043 294.92493
1528.9279 294.93942
1530.0312 297.4399
1532.9519 297.39014
1533.7798 303.5995
1530.7372 301.48938
1527.0377 302.9527
1526.968 299.3227
1527.7932 298.01086
1522.2416 294.62775
1523.3396 301.12305
1523.8113 303.6029
1523.9459 305.25732
1527.8795 305.92953
1528.4766 307.27017
1529.1167 310.68643
1530.0208 310.74146
1536.7654 312.57217
1533.698 315.73312
1530.8085 314.09216
1528.1238 314.66052
1525.1606 315.16992
1527.0588 324.3127
1525.6461 328.78638
1527.9664 331.09943
1530.8137 332.09482
1524.7278 334.05518
1523.682 335.25497
1525.8027 339.09366
1529.1998 339.88446
1529.0875 335.83875
1531.6622 333.5891
1533.0896 331.41602
1534.9927 332.7053
1538.6263 334.07004
1543.5441 333.04184
1544.3204 332.23175
1543.714 336.2878
1545.5602 338.08066
1545.5809 339.28348
1549.8816 338.24112
1546.9097 333.38058
1550.3008 331.1051
1549.3279 329.7406
1548.517 328.8266
1546.3054 326.8082
1545.1765 324.42975
1542.664 323.7297
1542.0839 326.4547
1539.347 328.6996
1536.4143 328.55435
1535.8444 325.39056
1534.2189 322.91727
1533.554 319.60812
1536.1788 319.51877
1536.6396 315.90384
1539.06 316.81842
1538.4009 315.772
1540.7958 312.45953
1542.2649 309.38055
1540.6738 307.59613
1541.6863 303.8369
1541.3792 302.88873
1543.4534 302.43616
1544.2057 301.87012
1544.1487 293.06738
1546.1498 290.11603
1546.9653 290.93585
1550.9034 291.63327
1553.4495 287.49777
1552.3975 292.56433
1548.6548 293.2448
1550.1018 298.97162
1551.1833 300.10632
1550.586 301.84686
1545.9645 301.52325
1545.1172 304.27155
1545.471 306.16827
1550.2682 304.8634
1550.6978 309.54688
1548.2936 310.7459
1545.915 311.9333
1543.8755 316.7358
1544.899 317.68323
1545.2418 319.85016
1545.7524 320.19745
1546.6089 321.04614
1549.3672 320.38318
1550.6755 321.88202
1550.7708 325.392
1552.0588 326.30832
1553.1895 325.60187
1554.8058 326.4173
1554.78 327.26242
1556.8813 327.49054
1559.9979 329.02155
1561.7905 329.66672
1564.78 330.08704
1561.8231 320.92218
1560.3628 315.2426
1559.2498 315.0091
1559.1189 312.65546
1557.8696 313.753
1553.7424 314.10913
1554.2616 312.38815
1552.3036 308.6529
1552.3564 308.42004
1555.5333 309.22418
1556.7185 310.31763
1559.361 306.87354
1556.0372 304.86105
1553.2705 301.33545
1558.9478 295.18933
1558.3987 298.06815
1561.5894 299.028
1564.0974 299.45282
1565.7296 294.93317
1567.0895 296.50357
1569.6161 298.21643
1566.9167 299.41687
1567.2659 300.3016
1567.533 302.87686
1572.2203 305.92853
1570.6499 307.08722
1568.0046 307.67242
1564.5276 305.69434
1566.102 309.68295
1566.5812 309.93253
1567.3462 312.4801
1561.6034 316.0277
1566.728 318.0221
1567.5581 317.80194
1571.2837 313.59766
1570.0403 315.08704
1569.0723 319.26666
1565.609 325.92938
1570.5459 328.1841
1572.0161 333.4309
1569.8275 335.712
1568.7634 341.80933
1574.2217 345.97998
1569.8704 348.03427
1570.8746 349.75366
1569.3845 349.88153
1565.0774 351.8092
1566.7312 353.75238
1569.4932 356.6817
1571.2942 352.52612
1573.9421 351.9898
1575.5989 355.14108
1577.9357 354.71204
1581.6976 353.38193
1584.5636 352.6179
1584.6871 349.26523
1584.1282 347.93768
1585.0845 348.2846
1588.6826 350.06207
1588.2964 351.71408
1590.9048 356.53278
1591.4302 356.42114
1590.3322 360.72104
1591.4535 363.8775
1592.9712 367.9416
1589.5732 373.16345
1588.3334 373.36182
1586.858 374.13995
1581.28 375.9732
1581.332 376.87607
1579.5933 376.34128
1579.9049 375.97675
1579.884 373.95786
1575.5342 372.00153
1577.5553 377.4829
1571.8417 377.83188
1570.0605 374.64496
1570.0198 373.4403
1565.8417 375.97534
1561.9519 374.48352
1563.8882 376.54968
1564.6858 380.8368
1559.5986 381.88855
1559.0334 382.6551
1554.8745 379.64096
1555.0525 379.35312
1557.1536 375.22546
1554.3181 375.22043
1554.2246 375.79694
1551.7681 377.26617
1550.3246 374.46027
1551.2856 372.79822
1555.1849 371.3346
1556.3027 367.14633
1555.7446 365.13373
1555.9141 363.2774
1554.3738 363.40622
1552.1814 363.44293
1552.8167 360.75787
1552.9291 358.4931
1548.2169 357.91574
1544.2203 361.03888
1542.5786 357.9118
1544.3911 353.48105
1546.6665 354.67648
1547.2472 355.83334
1553.4287 353.3178
1554.8951 355.41284
1554.346 357.643
1555.6815 356.95004
1559.9346 358.2247
1559.7792 360.40485
1561.8344 365.49738
1562.8639 367.20834
1562.9666 367.37085
1563.057 367.20782
1567.0452 362.01483
1567.2635 362.4907
1570.8112 363.83884
1572.3933 362.63876
1570.0199 365.04102
1571.0037 367.4177
1568.0979 369.81445
1569.7788 371.68866
1575.3438 369.42795
1575.169 367.47617
1577.138 364.70477
1573.7949 362.40414
1576.3848 362.37695
1578.1559 361.02988
1579.8112 360.447
1579.9374 363.07394
1583.0591 364.98907
1585.4799 358.10092
1585.5801 356.807
1582.796 359.8691
1578.1807 360.88098
1575.8804 358.24872
1574.2302 356.2019
1577.1993 355.18488
1578.7859 349.33502
1579.7532 348.12875
1582.1802 346.748
1582.386 344.34442
1585.8282 343.33844
1590.938 343.01035
1589.4355 347.45917
1590.7642 348.25702
1591.3944 348.92554
1597.9974 341.7204
1601.6064 342.24384
1609.8394 344.27536
1610.9963 342.1479
1613.433 343.76843
1616.423 342.547
1619.6127 345.10193
1620.6823 348.108
1619.8782 349.279
1615.3828 350.7472
1615.685 346.32715
1612.8527 351.4372
1612.1152 352.06458
1608.7942 350.56894
1605.8898 351.20935
1600.8345 352.3938
1599.5203 355.1494
1600.9637 357.66028
1601.9006 356.8685
1606.3325 356.64862
1606.4333 355.26987
1607.6345 357.06857
1607.9604 358.40732
1612.3152 361.50336
1614.6931 358.2866
1618.0616 362.96945
1618.5118 363.7473
1620.446 358.77417
1624.69 358.8891
1628.616 359.72433
1630.2825 360.51788
1632.4381 360.98276
1628.3329 364.0266
1624.4426 363.2384
1624.504 365.35016
1629.8433 367.72498
1630.286 369.4753
1632.7769 367.419
1632.4064 368.61896
1633.6836 370.58282
1631.3916 371.71027
1631.1279 373.5909
1626.894 370.87506
1625.0283 371.5578
1625.8516 373.76035
1620.016 377.38287
1618.5507 381.40564
1614.7736 379.578
1614.0143 380.1598
1608.8398 378.43774
1613.7241 380.5686
1618.8604 385.98712
1624.5017 390.0561
1625.4152 392.53046
1627.3325 395.73483
1627.1139 395.86032
1627.271 399.14038
1627.9056 399.41833
1632.145 397.08286
1632.9181 395.53683
1631.9686 394.49216
1634.1675 393.57773
1635.9062 392.18982
1634.0275 388.93756
1633.4232 393.2306
1633.7295 394.93027
1633.2164 396.9862
1633.0608 398.91132
1637.8396 401.36584
1639.0061 396.61304
1640.8055 395.58466
1641.9022 394.87842
1645.6819 395.7343
1647.8267 398.46155
1644.9495 398.56635
1645.7762 399.74094
1642.7289 403.8814
1643.0366 404.20367
1638.679 410.612
1634.6301 416.03815
1634.5947 416.14938
1642.1511 413.73193
1641.4381 409.60455
1644.0394 405.33966
1646.6077 403.6733
1646.8418 405.7328
1647.1777 408.1161
1649.3141 410.06747
1649.3818 410.48737
1652.1815 410.5875
1652.1642 415.41443
1648.0864 417.5678
1645.2506 423.3812
1644.5555 422.20847
1639.6986 420.97107
1638.2056 419.5196
1637.5388 418.8287
1636.1888 419.91315
1635.5752 423.09824
1637.6428 422.76105
1639.0328 423.62872
1641.4874 426.6668
1638.9597 430.74594
1639.5181 431.25742
1637.9595 431.46832
1639.3175 442.78888
1637.9001 449.63312
1636.4138 452.28024
1638.7714 449.8962
1640.8491 446.604
1644.1698 444.66113
1645.1342 439.98157
1645.7031 437.7005
1644.078 435.90448
1644.169 434.56592
1643.4302 432.49118
1645.1716 432.21823
1648.5254 430.68576
1649.066 429.96652
1651.8599 435.25766
1652.8225 433.33417
1652.4795 427.65732
1651.4308 425.1466
1653.4292 423.63644
1651.95 421.60632
1654.5432 421.3392
1657.7537 421.11322
1658.968 419.4881
1659.831 418.85864
1658.2334 416.812
1657.26 410.75946
1656.5103 408.1817
1656.8547 404.23044
1660.7332 407.71375
1662.5353 406.75262
1663.866 406.14755
1668.2803 409.58807
1668.185 412.37567
1668.8671 410.66156
1674.9983 409.83234
1675.3452 408.313
1675.3572 407.67914
1676.0139 406.71674
1679.5685 409.45276
1679.6714 409.74374
1675.7767 416.31274
1674.2952 417.65002
1671.7693 419.50107
1671.0217 419.95758
1674.2485 420.89584
1675.155 419.11237
1679.3231 418.66086
1680.8375 420.51697
1682.9197 424.26166
1680.3362 428.12854
1679.718 427.86545
1676.6694 427.16135
1674.9557 427.9841
1669.9807 428.19592
1670.3984 426.70026
1669.4685 426.10077
1668.9194 425.5746
1663.9727 424.49622
1662.4158 423.2234
1662.1284 423.09003
1658.7134 426.32834
1655.992 429.8536
1656.802 433.39948
1660.8135 430.98923
1661.3782 430.8565
1661.8296 435.63483
1662.9558 438.1169
1663.0146 443.659
1658.065 440.51706
1657.4436 439.18625
1655.4608 441.17535
1654.9194 442.80414
1653.2523 439.22424
1650.2391 441.5235
1652.0253 441.92966
1651.462 447.9137
1651.1438 448.63474
1657.2097 449.9233
1658.8804 449.84662
1654.0618 454.79184
1652.4065 454.79132
1649.0742 453.28174
1648.7283 453.00287
1645.1981 455.1599
1645.6296 461.09204
1648.2797 463.38327
1643.6448 461.8231
1642.3604 460.27924
1641.928 461.22772
1641.597 463.63873
1640.2577 463.16638
1637.149 461.09833
1636.0938 464.36884
1639.1382 470.8659
1636.913 472.16058
1637.48 473.9051
1638.4412 482.62225
1639.3918 483.98065
1638.8763 484.87634
1633.9302 488.31845
1633.321 491.65234
1632.0016 494.9367
1627.4882 492.8546
1626.8313 489.1682
1628.7502 483.13696
1624.3601 485.89575
1623.1558 487.46884
1617.843 490.7439
1622.1262 489.73703
1626.5425 492.9618
1625.6698 496.81528
1622.8484 496.3048
1622.6462 496.9266
1625.257 498.36237
1629.6599 501.59735
1627.654 501.9513
1622.3167 501.12457
1619.7793 505.48773
1618.6493 502.18353
1619.8176 499.13745
1619.0789 497.30273
1612.7661 495.40912
1612.4476 496.2091
1608.8844 497.8399
1609.18 499.30133
1609.5267 501.27695
1612.9785 501.43784
1613.2417 506.7324
1611.9905 507.09436
1609.8909 508.06247
1610.0378 509.37988
1612.8481 511.5211
1609.8312 516.4916
1611.3109 516.6779
1617.3723 513.98773
1620.1326 513.95715
1622.3514 513.8793
1623.3429 515.1008
1626.13 516.2651
1623.7059 519.2769
1623.783 520.22626
1625.6154 522.85406
1626.3124 526.0788
1624.8558 527.01715
1623.8411 528.35864
1623.1519 527.16473
1618.4822 525.5578
1619.2837 519.8172
1614.727 523.4873
1618.0686 525.64856
1617.1044 525.9938
1615.9346 529.28644
1616.9596 530.80255
1610.8384 530.9617
1608.8285 531.6561
1609.8286 531.46716
1612.0636 527.94775
1614.1052 524.69684
1610.7013 526.1229
1609.1052 521.57513
1607.8958 522.7433
1605.7471 521.60693
1605.5878 522.1944
1602.8192 522.79407
1602.464 520.94476
1601.6073 518.763
1599.8179 517.87476
1599.4718 516.88654
1601.1042 517.20264
1602.4686 517.4894
1603.6001 516.2002
1604.0205 511.59653
1601.157 509.7376
1603.7415 507.15012
1605.6592 505.8783
1603.7003 500.4726
1601.6599 504.71494
1593.6538 501.2628
1590.0493 501.5958
1590.3739 508.48022
1587.6948 510.05283
1585.6531 511.59738
1585.6835 511.29846
1582.1718 510.00546
1581.3147 505.89685
1577.0424 509.09467
1574.7722 507.52625
1575.573 503.27344
1574.3568 497.37415
1567.8145 500.87476
1566.4424 499.86328
1565.378 501.42413
1565.7148 503.5042
1569.4827 504.24472
1570.2974 505.64984
1572.815 507.96945
1573.7617 509.2376
1576.4465 509.94968
1576.8184 511.92987
1578.7117 515.5705
1577.1414 516.43115
1576.188 514.115
1574.2085 513.2145
1573.806 516.1461
1571.5239 514.9167
1569.672 514.40515
1569.7388 512.7066
1567.8438 512.43756
1568.6932 509.96613
1566.3561 510.0901
1565.2693 508.64728
1563.9966 513.473
1565.1794 516.6244
1564.2786 519.8808
1567.9016 521.1909
1569.5117 519.8739
1572.4026 525.1844
1572.0338 525.516
1568.7583 526.01624
1564.1079 521.75854
1563.3218 518.26105
1560.1604 519.33606
1556.7113 517.8291
1555.2725 518.84924
1558.0112 517.121
1557.9327 516.329
1559.5906 516.9603
1560.034 516.6037
1561.0001 515.1472
1558.6328 511.1358
1561.5112 510.67902
1561.2336 507.75668
1562.5831 504.2496
1559.8107 502.86935
1555.624 507.84308
1552.4961 509.79883
1552.1364 510.7583
1552.6199 512.12476
1548.9807 515.53174
1546.2808 513.1891
1545.0137 513.1845
1547.0598 510.0516
1547.0292 509.81683
1546.1239 507.51828
1545.4407 506.08466
1548.9612 506.6666
1550.4403 503.44
1552.007 503.99445
1555.2726 501.44122
1557.7205 498.5116
1561.6848 500.5459
1560.2416 492.29156
1557.4799 493.87692
1555.4175 497.40442
1552.8838 499.3867
1550.3904 498.61618
1548.9542 498.291
1550.9739 495.36847
1551.4553 493.39093
1548.7654 497.5473
1547.0074 496.594
1543.3353 499.05908
1541.3164 502.74973
1540.8342 502.36084
1535.8877 499.40305
1540.1675 496.5335
1545.1057 495.20847
1545.8081 490.6727
1543.9082 487.68768
1547.3406 485.59726
1544.9702 486.9231
1542.2925 485.8392
1542.1646 483.71603
1545.8163 481.822
1541.3962 480.13715
1538.9146 481.03162
1538.488 480.9245
1535.5005 480.6809
1533.2697 485.484
1528.9885 487.45428
1532.4415 486.3028
1534.3146 488.1439
1533.3231 488.73895
1532.2366 490.07892
1533.4979 491.69708
1534.7267 496.4973
1530.7479 493.66534
1527.4155 495.21637
1526.1711 494.87708
1524.5035 501.08142
1529.3088 501.0067
1527.1799 504.9975
1528.6539 505.54474
1529.862 505.92657
1532.123 504.47638
1536.0476 504.2303
1540.4551 505.57907
1541.1678 509.48923
1541.0184 510.82544
1539.9958 514.15283
1539.5725 514.1389
1537.1046 515.3556
1533.7262 516.0017
1533.2662 514.9219
1534.0293 513.2881
1532.0054 511.96332
1528.8423 510.81183
1525.7904 509.00116
1523.6841 509.7662
1523.515 513.3598
1521.5632 513.82715
1521.0945 515.04535
1520.1372 513.14655
1518.1794 515.04407
1519.7136 517.5625
1522.6584 519.09863
1523.3182 519.07306
1524.1455 519.07324
1524.6257 516.87146
1524.6589 515.3296
1528.9739 515.32043
1528.4667 518.8006
1526.9863 520.14954
1525.1531 523.9896
1531.0922 522.2542
1531.1222 521.4735
1533.5361 523.00964
1535.6902 526.96875
1538.4441 525.4533
1539.9258 525.0104
1534.62 522.6138
1534.4357 522.32214
1541.8417 516.8832
1544.6178 521.4734
1547.1547 521.43823
1547.4026 521.04956
1550.8229 521.3391
1552.2312 517.7727
1550.2697 519.592
1550.7432 523.7691
1543.9926 527.66907
1540.9333 526.8673
1539.7255 526.59326
1539.8904 532.5773
1543.3851 527.73474
1548.9464 530.0899
1550.8076 530.37524
1555.4255 523.5078
1556.6147 523.07056
1555.9901 521.2558
1557.4224 522.42426
1559.7075 526.90704
1561.3364 526.6329
1562.7869 531.4945
1567.7689 530.4037
1570.3784 535.44727
1568.8777 537.94446
1572.2504 538.32275
1573.542 535.70966
1576.6057 538.4133
1578.332 538.1922
1576.9309 540.90295
1577.6521 542.2793
1579.7606 542.5065
1582.5974 538.5552
1583.6359 536.73145
1585.4711 533.26495
1585.3849 531.85614
1583.2792 534.5488
1580.463 535.70844
1580.3899 532.94434
1579.6414 529.615
1578.2819 528.7671
1580.7126 527.5348
1580.236 526.36804
1577.8547 524.7446
1578.8224 519.76306
1580.1943 517.5979
1582.8903 519.5775
1587.9263 523.38495
1586.6177 518.9987
1588.8701 514.6774
1589.0453 511.10602
1589.5068 511.90656
1593.029 514.6212
1592.6326 511.71967
1595.9678 510.38434
1596.5233 510.43198
1598.6729 513.1151
1598.022 516.8616
1592.2976 516.8221
1592.783 519.85364
1593.9917 520.04333
1593.9135 521.24475
1595.0957 523.9075
1590.4595 526.391
1589.696 528.6512
1592.8894 531.2192
1592.7356 531.6483
1592.4181 534.5733
1589.8923 533.6874
1588.6627 537.4757
1591.1892 537.9044
1592.1041 537.5178
1595.1506 540.13184
1597.4829 541.4735
1596.6716 539.89905
1598.1663 532.45667
1598.6136 531.0641
1601.3806 530.59094
1603.3398 529.98425
1606.9191 529.9391
1608.0709 531.6529
1607.6403 532.4595
1608.4974 533.00714
1608.8245 538.2239
1609.3727 536.98834
1611.6537 533.09686
1613.7952 533.6078
1614.4741 534.0952
1617.5024 535.11835
1620.5707 537.1018
1622.8971 538.16644
1623.1826 534.3065
1623.817 534.0364
1624.6594 533.53296
1626.1196 531.87756
1626.4253 532.18713
1629.7041 535.3136
1628.8687 530.4409
1635.0144 527.02637
1629.6294 525.8381
1628.781 523.96106
1631.9858 523.3993
1634.0356 523.492
1633.2537 520.3025
1632.9242 517.31146
1632.5325 513.37714
1631.6183 511.32983
1631.3391 510.34027
1636.7585 510.8596
1638.988 511.26083
1638.3789 516.61554
1639.0339 517.34314
1640.2308 516.62976
1643.4553 516.20404
1641.6128 510.26154
1639.2013 511.22604
1636.709 506.92877
1637.435 504.6541
1635.3274 503.08044
1633.5546 501.00812
1637.867 496.9297
1641.3636 495.74664
1643.0953 495.9651
1645.1982 497.9751
1642.638 501.52316
1640.4038 503.46222
1640.677 506.3647
1642.5708 506.16425
1645.6611 506.6826
1645.0112 507.94516
1646.9711 509.65637
1648.4512 508.99106
1650.8339 510.47565
1650.8087 508.2118
1651.8499 507.7348
1649.9474 506.67676
1651.4681 504.22543
1648.229 503.8371
1646.6193 503.8037
1645.478 501.5583
1648.1909 499.64587
1648.9725 498.60004
1650.5981 497.45844
1653.1316 499.34625
1652.7749 497.2077
1653.2894 494.64667
1652.1835 493.2861
1650.2262 491.9214
1651.4775 491.71005
1653.28 488.77023
1654.1587 482.221
1659.2606 483.229
1658.5651 486.2772
1659.0259 487.94086
1660.2957 489.1463
1664.8354 486.99435
1667.6166 488.32358
1667.504 489.2606
1665.5024 489.42453
1665.8522 492.4061
1665.9897 496.38074
1667.4811 497.3418
1663.2117 499.01855
1662.8846 497.1344
1661.1777 495.91052
1661.3923 494.96423
1660.5225 495.47556
1656.8306 499.27368
1655.8486 503.68796
1656.3228 506.8142
1656.3048 510.97192
1651.0098 514.73254
1647.1011 514.6423
1648.1421 516.76013
1647.0768 526.52234
1642.5543 528.6688
1639.4581 530.49133
1638.5657 526.0354
1636.1316 525.31116
1639.765 524.68005
1645.3528 527.50806
1649.3666 523.4812
1655.7296 520.66864
1658.3667 518.9666
1657.9958 517.06537
1662.7266 510.08298
1664.0647 507.15686
1661.8224 506.18286
1662.1157 506.7343
1662.6198 505.2468
1665.3408 504.2444
1665.0187 505.9688
1667.4088 506.86108
1667.3427 505.8418
1671.0835 502.34506
1672.4708 501.86688
1673.1365 492.22308
1672.22 490.05734
1670.8634 486.62146
1672.0593 486.10043
1674.0349 484.9984
1675.7322 487.23227
1678.6606 488.39258
1676.4329 490.55258
1676.8267 489.10617
1676.6022 487.60544
1675.3745 486.6599
1676.7067 483.19885
1676.2393 482.57724
1676.8188 481.4345
1678.9546 483.35312
1679.3837 482.17316
1678.7341 479.1422
1677.2584 478.0162
1674.2052 480.78247
1672.5988 481.68573
1671.3594 481.6124
1672.8856 479.4591
1674.1908 477.60925
1672.8785 475.45056
1669.2761 473.26666
1669.1327 472.17487
1670.4767 467.77927
1674.4193 462.6902
1672.547 459.55194
1671.0793 460.0846
1665.8652 461.03867
1663.1445 463.33334
1664.8826 466.1489
1669.5981 467.44495
1668.5764 469.07837
1662.591 467.48657
1660.9796 466.16296
1659.9064 464.0434
1660.4623 463.50574
1662.6843 463.3441
1661.434 464.30695
1659.8129 464.94147
1660.4413 467.8058
1658.5472 471.44467
1659.122 472.53943
1659.6996 478.03833
1668.136 479.72287
1669.2064 479.16595
1666.2253 480.83618
1662.4736 480.45724
1657.9924 479.00867
1655.9668 478.53098
1654.3999 481.88132
1650.0603 485.22174
1646.5957 489.74628
1644.5442 491.10175
1643.7959 492.0136
1643.5212 491.3132
1642.2098 489.68027
1643.3549 489.19574
1643.1694 488.46722
1644.3666 488.3829
1645.0928 482.67175
1647.5496 484.18845
1647.6031 484.37585
1647.8124 484.35385
1648.5374 483.45526
1650.0692 479.0938
1654.0276 478.33093
1651.2336 475.00095
1649.6146 476.01022
1647.144 475.53146
1647.3373 474.2492
1646.0143 472.59375
1645.3015 470.86545
1648.6803 468.62396
1650.7611 467.58444
1653.1555 466.77634
1656.5955 471.7766
1655.1401 469.11646
1653.6733 465.76242
1658.8374 463.5406
1654.8839 461.9333
1654.5625 460.09302
1654.823 458.515
1656.5161 457.60126
1658.8187 456.27817
1660.1527 454.99496
1662.9081 456.11646
1663.2988 451.88507
1666.2069 452.10474
1666.2346 452.41846
1672.0521 458.4448
1672.2562 458.4663
1675.3779 459.48764
1680.0642 457.78516
1677.1553 458.23093
1674.9824 461.93988
1675.3153 469.15033
1675.6752 469.9581
1675.7303 471.73212
1677.1471 474.25403
1677.31 475.32068
1677.613 474.7938
1681.7358 474.9853
1682.3252 472.0565
1682.4589 461.39096
1682.627 457.05112
1684.3052 457.42242
1684.7368 457.86438
1686.6694 455.32367
1686.6411 451.0111
1683.3438 450.061
1682.732 451.6922
1678.8076 450.98972
1675.5923 449.75238
1668.1407 452.3056
1668.5342 448.066
1668.5812 446.12445
1664.5089 446.52588
1663.2603 445.15424
1667.0125 444.971
1667.6543 442.2812
1668.0896 441.56015
1669.3772 441.92197
1670.3599 444.26312
1675.771 442.2179
1680.505 445.9315
1683.6963 446.37988
1686.6582 445.6906
1685.3274 441.30945
1688.0537 440.0042
1686.2012 435.4594
1685.2136 434.5671
1682.7168 436.81488
1684.1663 437.80737
1682.409 439.88278
1680.1348 438.87384
1678.8623 441.46643
1678.1176 439.54745
1672.679 439.38654
1674.702 436.51794
1674.8298 435.4796
1671.3585 435.20184
1670.536 435.4782
1668.8125 438.47223
1666.8546 435.59775
1665.7627 434.02194
1668.6675 431.28976
1673.2417 433.3712
1675.939 431.99847
1679.7552 433.95697
1684.8049 429.80673
1687.1506 431.03864
1687.2677 430.0625
1686.7109 429.42053
1688.5947 425.0863
1685.8301 424.72458
1686.2964 423.44574
1686.2317 421.8132
1684.1155 419.3316
1682.582 419.95224
1682.0846 419.7618
1682.2698 415.62033
1684.613 413.97864
1685.2146 412.13925
1682.5771 412.41467
1681.6823 409.62436
1683.4562 409.2406
1686.1396 407.05383
1681.9043 407.24786
1679.7197 404.1319
1681.9651 396.21237
1677.2743 393.09772
1674.9927 398.8441
1671.8713 396.7757
1673.7148 394.5697
1674.9789 392.83688
1674.8081 392.5006
1673.9792 390.96118
1670.455 383.7727
1670.5046 380.0844
1673.4332 379.85425
1674.0695 379.11334
1672.3346 374.34692
1668.7596 376.14633
1667.5629 376.62485
1667.0576 377.51657
1669.6785 380.02283
1666.8777 383.17453
1665.9398 387.92902
1665.7634 393.38745
1666.1074 393.3733
1668.838 392.05518
1670.4857 393.04333
1669.9297 394.226
1668.5682 395.65442
1668.1937 400.1296
1662.8054 399.89703
1660.4176 398.17883
1659.4385 399.64328
1657.8617 399.71106
1656.4108 400.9741
1654.2 400.55566
1653.7249 399.7706
1648.134 397.5855
1652.5776 396.48956
1652.9984 395.22137
1653.7389 396.04733
1655.9402 394.75436
1658.9177 395.14276
1659.8584 392.7359
1662.5557 390.2129
1661.3091 389.1397
1662.9191 388.29462
1663.3977 386.97614
1661.709 385.1406
1660.917 384.44238
1660.6929 382.3474
1658.5383 383.6308
1657.9082 385.24414
1657.8159 382.69797
1656.3334 380.0449
1654.9703 383.24585
1656.2197 383.45703
1653.4744 384.52075
1649.9915 383.2599
1645.796 379.3958
1648.2454 377.7638
1651.195 376.7762
1651.3044 376.46448
1650.0885 376.00595
1644.833 372.1026
1644.2605 368.45358
1644.7341 367.492
1642.9373 365.05444
1641.0614 362.51535
1642.532 361.7447
1643.9502 360.5741
1647.999 362.47397
1651.4545 366.96722
1650.2424 367.7696
1650.5881 370.79013
1652.6808 370.11557
1655.8173 370.19257
1654.788 367.54742
1655.8494 366.92587
1659.3655 367.83746
1657.3119 370.61517
1656.135 371.15894
1655.915 375.1959
1656.2378 375.6855
1659.5212 373.23145
1663.2832 368.9277
1664.3699 367.08823
1664.6852 365.38684
1666.5425 366.1364
1662.462 363.0931
1659.7314 362.49
1656.957 364.14154
1659.5251 362.63928
1659.4675 361.6069
1655.924 356.11243
1642.7229 352.52234
1641.5161 356.19006
1638.9138 352.01816
1636.5819 351.07843
1635.0658 350.3884
1631.9504 347.03113
1630.0071 348.1294
1632.2656 349.17883
1636.6311 353.40875
1637.7219 356.44952
1638.3489 364.53915
1639.25 366.2335
1642.0432 369.47153
1642.4628 373.03732
1639.9463 373.42282
1637.8239 374.22375
1636.0984 375.67267
1637.7834 376.57513
1640.1465 376.91772
1635.4226 377.13733
1635.7588 380.27924
1638.9937 383.37946
1643.1215 382.4282
1649.0391 383.44128
1651.9824 384.93182
1652.9863 389.8304
1656.9656 392.92307
1649.573 388.06866
1647.7661 387.72568
1646.9574 393.34872
1645.1355 392.31235
1640.2898 388.85532
1642.4602 384.73312
1643.2029 384.73828
1639.5497 387.40533
1635.2129 388.08813
1636.6755 384.69122
1633.3755 385.34235
1628.241 386.69308
1627.5859 385.79773
1630.4543 384.2583
1628.6562 380.3531
1626.2798 380.4583
1623.6732 377.29852
1619.6748 371.96686
1617.7046 368.1847
1612.7074 369.72906
1609.8517 367.28564
1610.1431 365.8043
1605.5044 367.13156
1606.8156 369.88156
1609.522 370.4343
1611.1156 374.47165
1604.3641 374.5819
1599.6958 369.29465
1600.645 366.648
1602.4877 365.78635
1600.6876 363.39145
1601.3142 362.4161
1599.6714 361.88458
1600.7627 359.8673
1600.7224 359.1922
1597.2952 359.5909
1596.4012 362.43332
1597.2593 362.4007
1598.5834 368.26047
1598.1572 368.2773
1595.3885 368.7728
1594.5461 369.1345
1597.4666 370.6098
1597.3298 372.05005
1597.606 374.15796
1598.707 376.70126
1600.7888 375.5749
1603.1904 377.17383
1602.825 379.27014
1605.5945 381.8761
1604.4731 384.55112
1604.1447 384.14667
1597.644 384.9259
1593.8315 382.32394
1596.9846 379.71667
1594.3223 380.0609
1592.8799 376.99338
1592.0775 376.2467
1590.5862 378.51584
1590.2178 378.841
1591.1895 381.62378
1592.9272 381.8038
1590.6841 384.2673
1589.064 380.09253
1585.9783 378.66022
1583.5588 380.4101
1581.6874 377.95068
1580.0667 382.88327
1578.3413 384.50128
1574.5024 384.39856
1570.8833 382.5813
1568.0778 385.2425
1566.85 385.61774
1564.714 383.82227
1563.1 384.70105
1564.7087 388.85922
1565.8761 390.88013
1563.5903 388.80014
1561.6772 389.0339
1558.011 387.9122
1553.5338 386.9041
1551.2292 386.20847
1552.4622 386.53162
1553.3076 389.1953
1555.3109 393.62402
1555.2235 393.879
1549.8335 392.7307
1548.7329 395.54797
1546.8645 397.72064
1547.4863 399.88095
1543.6558 397.98553
1544.0529 397.20294
1542.7048 395.61804
1540.7487 398.16342
1540.3501 397.81552
1534.5382 398.4737
1533.6841 397.54428
1536.5232 392.6291
1542.7877 392.29614
1544.8228 392.29706
1545.2161 391.15073
1544.4517 390.76947
1538.0447 388.69818
1536.4965 389.1765
1531.904 391.33347
1529.578 390.6356
1527.6023 392.956
1526.7524 388.86664
1523.2031 383.44174
1523.9528 375.8928
1527.7831 376.9399
1528.2324 375.2026
1526.3416 371.3773
1526.0813 366.36533
1527.5171 363.1997
1528.7896 364.48193
1531.1835 372.42523
1530.3029 373.3938
1532.2324 374.5982
1531.6711 378.2895
1532.6497 379.46173
1531.1514 381.9804
1531.5164 386.2766
1534.9104 386.01874
1537.0444 385.1463
1539.7515 383.34738
1535.5557 380.38965
1535.4653 378.6467
1538.6383 378.10712
1542.3441 375.73895
1543.064 375.24252
1545.6179 375.6355
1544.7583 374.104
1546.304 371.47046
1544.2897 371.16916
1541.3464 371.97665
1540.7434 371.55392
1538.1361 372.67133
1534.5933 366.7164
1533.3345 365.64978
1535.4609 363.3274
1535.8845 362.93246
1535.1256 362.2594
1533.8804 360.03986
1533.6656 357.44882
1531.8159 357.661
1531.1687 358.21344
1531.5814 359.84885
1528.8904 362.25275
1526.8619 355.26727
1529.1128 353.89368
1527.8931 349.11777
1527.7393 348.20078
1526.5205 347.24048
1522.4851 348.04492
1524.2527 344.32285
1524.9487 345.39093
1528.6803 344.50708
1529.0947 343.08997
1531.5117 345.13507
1530.7207 345.83026
1531.627 347.82574
1532.9587 349.97873
1531.8878 346.81113
1537.1556 345.6917
1538.69 350.099
1539.8413 349.5589
1540.7196 343.91937
1539.085 341.59302
1540.8184 340.55573
1544.7465 340.82828
1544.5505 346.5708
1547.7043 347.09653
1549.0543 347.39795
1549.9987 342.84482
1555.5115 344.96265
1556.4794 350.60568
1557.8396 352.17554
1561.1802 352.62436
1561.6647 347.34656
1564.5942 344.3025
1564.5336 344.0573
1566.8047 340.85202
1565.6129 335.93228
1566.4922 330.1306
1563.4719 329.96185
1560.0332 331.86667
1558.7904 331.5184
1556.7986 336.1696
1555.6932 337.7662
1563.4031 338.29883
1563.4917 336.2451
1563.8495 337.30096
" />
</g></g></svg>
