<?xml version="1.0" encoding="UTF-8" standalone="no"?>
<!-- Created for Inkscape (http://www.inkscape.org/) -->

<svg
   xmlns:dc="http://purl.org/dc/elements/1.1/"
   xmlns:cc="http://creativecommons.org/ns#"
   xmlns:rdf="http://www.w3.org/1999/02/22-rdf-syntax-ns#"
   xmlns:svg="http://www.w3.org/2000/svg"
   xmlns="http://www.w3.org/2000/svg"
   xmlns:sodipodi="http://sodipodi.sourceforge.net/DTD/sodipodi-0.dtd"
   xmlns:inkscape="http://www.inkscape.org/namespaces/inkscape"
   width="3200"
   height="800"
   id="svg2985"
   version="1.1"
   inkscape:version="0.48.1 r9760">
  <defs
     id="defs2987" />
  <sodipodi:namedview
     id="base"
     pagecolor="#ffffff"
     bordercolor="#666666"
     borderopacity="1.0"
     inkscape:pageopacity="0.0"
     inkscape:pageshadow="2"
     inkscape:zoom="0.35"
     inkscape:cx="1600"
     inkscape:cy="400"
     inkscape:document-units="px"
     inkscape:current-layer="layer1"
     showgrid="false"  />
  <metadata
     id="metadata2990">
    <rdf:RDF>
      <cc:Work
         rdf:about="">
        <dc:format>image/svg+xml</dc:format>
        <dc:type
           rdf:resource="http://purl.org/dc/dcmitype/StillImage" />
        <dc:title />
      </cc:Work>
    </rdf:RDF>
  </metadata>
  <g
     inkscape:label="Layer 1"
     inkscape:groupmode="layer"
     id="layer1"> 
     <g>
<path style="fill:none;stroke:black;stroke-width:2px;stroke-linejoin:round;stroke-linecap:round;" d="M 
1528.7786 440.87323
1529.5507 440.61987
1530.282 440.27844
1533.3767 438.2953
1533.8873 439.32114
1540.018 438.19125
1547.5886 441.69855
1544.9535 446.24945
1544.276 448.84235
1546.4373 447.72943
1543.6414 446.89868
1535.3215 441.75668
1535.1125 441.18222
1535.8988 448.78818
1532.5422 450.77655
1532.4609 450.67078
1528.8962 447.89658
1529.4756 452.598
1528.2793 454.33533
1528.2052 453.13852
1527.0989 450.0501
1524.7635 448.47653
1524.2819 446.14572
1524.1477 444.63837
1523.8907 441.3734
1522.1107 441.4189
1520.0538 443.5653
1517.7864 448.03986
1512.9954 442.5732
1514.276 440.41452
1513.1771 436.19653
1511.8824 434.28326
1512.8381 435.27765
1516.6517 437.30917
1518.1975 438.38928
1522.0784 435.16595
1523.7085 435.9604
1525.4192 435.0603
1530.3186 436.0743
1534.4209 432.53436
1530.1382 432.14362
1526.2993 433.62827
1525.1846 433.94702
1523.3732 434.5636
1518.9999 429.11865
1517.2833 424.963
1517.615 424.27997
1516.9952 420.99728
1516.8555 419.8247
1517.1191 419.72397
1518.1017 418.60437
1521.8135 422.68793
1518.4745 426.0023
1520.8262 427.13583
1524.7913 427.50684
1526.1002 428.44348
1527.874 425.7132
1530.567 423.2348
1533.8842 424.2812
1534.8116 426.69965
1536.6749 424.62256
1537.0605 423.42242
1536.1951 421.71448
1534.7341 420.66965
1537.4507 421.14877
1538.3257 419.2201
1539.2188 420.5276
1538.2019 421.2627
1541.3042 425.3198
1542.2019 430.47617
1543.353 429.161
1545.8263 429.20837
1547.0251 429.70847
1550.1575 426.6594
1551.9949 423.35373
1553.2322 424.4327
1559.5332 421.73242
1559.8477 422.66266
1561.6833 422.62378
1561.0375 424.60776
1557.2109 425.9079
1558.5216 426.8774
1558.6553 430.4062
1555.0333 430.55798
1556.6821 432.84564
1559.2944 435.1538
1557.3141 445.37
1554.127 444.72885
1552.0825 442.61548
1551.7793 443.81885
1552.012 442.06775
1555.0826 438.82343
1553.3319 435.38046
1550.783 430.41162
1548.2957 430.77826
1549.2338 436.72205
1548.3424 440.4746
1549.3595 444.19366
1550.9265 451.07175
1552.2234 453.86078
1552.0372 457.45178
1554.0853 462.45
1546.5417 466.5659
1544.139 463.1528
1547.4312 463.1029
1547.2407 457.56262
1548.6553 456.72592
1545.5425 456.52255
1545.6691 455.104
1546.5049 452.41003
1543.1017 455.36548
1542.4176 452.2732
1539.2867 451.9603
1538.2705 452.33374
1536.7684 453.36646
1533.6278 455.89185
1530.554 457.07288
1537.4126 457.61813
1539.8423 456.97382
1539.4177 458.5377
1539.6117 461.69617
1539.7078 462.33875
1541.5713 465.15964
1539.141 466.73178
1536.6287 469.91757
1534.5789 466.19946
1534.7018 463.7772
1530.9478 464.2247
1529.377 460.9478
1528.4591 458.69592
1526.5564 455.96606
1525.1357 457.70847
1522.2006 460.22833
1520.0121 463.35223
1519.7872 465.94916
1520.1562 466.21652
1521.9094 468.5913
1519.645 469.73056
1519.6678 469.8819
1517.5273 471.04636
1515.674 470.65588
1514.853 468.69775
1517.0895 465.5012
1512.6715 460.7118
1516.3186 457.6911
1518.9519 456.07675
1512.9078 451.57104
1512.6011 450.14462
1512.6321 449.23834
1509.3357 449.45996
1510.1144 452.4071
1506.448 457.33008
1510.342 466.8076
1508.3691 469.97202
1510.1317 473.68246
1511.9545 473.92975
1514.1665 479.81396
1511.413 480.62634
1512.0188 481.36255
1513.8416 483.18597
1515.3293 488.89825
1516.7007 495.0741
1517.6619 497.21906
1517.3479 498.90704
1517.2759 503.92892
1523.4403 507.1255
1525.1648 508.64914
1525.603 506.17792
1529.9498 506.26523
1533.308 505.55975
1532.6372 502.6372
1532.9077 500.48682
1532.138 500.69916
1530.5807 501.47174
1527.937 499.96594
1526.3923 499.85645
1525.0546 499.33923
1528.398 490.2795
1531.199 486.44727
1528.1371 482.6063
1527.5175 485.42914
1526.4016 486.52536
1524.9038 486.9531
1521.1384 486.8883
1519.9528 486.23837
1517.4844 482.17258
1517.1125 479.6029
1516.3389 478.46063
1520.5167 474.1953
1522.5994 474.7745
1523.477 474.8602
1525.0762 476.68414
1522.8663 477.2573
1522.5121 480.4575
1523.4934 482.53363
1525.4471 480.80576
1527.6753 479.31042
1532.315 480.87042
1535.387 475.1001
1531.96 476.66864
1527.323 474.12207
1525.9237 469.7807
1530.7954 471.1214
1536.1743 471.41525
1537.3792 473.0368
1541.6251 473.75375
1543.2261 470.51218
1551.1215 469.72235
1557.487 473.2014
1556.7256 477.4944
1553.2205 481.56918
1551.1698 484.43442
1554.626 482.8065
1555.778 480.65475
1557.8425 479.49225
1555.8641 474.49384
1553.7253 471.53
1547.6353 477.27356
1547.6194 479.89658
1543.1731 478.11047
1545.0231 482.16644
1547.4768 484.84238
1543.2362 493.00073
1539.0293 485.36304
1535.6211 487.72144
1536.2573 492.88818
1539.9271 496.52386
1539.6455 499.68634
1540.6991 499.67365
1542.0142 501.51862
1542.7867 500.72653
1543.4146 502.21002
1542.6 504.86264
1540.3842 502.78418
1537.2623 505.91376
1537.7349 507.02118
1539.8848 510.28464
1539.2747 512.1427
1537.7812 512.74347
1539.6334 513.88074
1539.9858 515.47894
1536.0994 516.3367
1536.3496 513.98663
1533.6478 514.6162
1531.8093 510.17743
1527.8384 511.91425
1527.5688 513.53076
1525.3105 513.7897
1527.1053 514.75
1531.3146 521.1362
1540.603 525.0015
1548.7085 530.6946
1553.4761 530.7066
1555.2311 528.6003
1558.9813 536.74316
1572.8191 541.3878
1571.6599 535.02527
1576.3823 530.8699
1577.3374 535.4844
1577.4268 537.40356
1579.61 540.87256
1583.0471 539.53613
1585.4154 543.5894
1585.1003 540.7172
1584.1996 538.6472
1588.8009 536.67004
1588.1097 534.5231
1591.2065 535.6935
1595.1687 535.3174
1596.2766 534.5371
1597.2177 535.5548
1596.367 538.0198
1599.8579 535.9941
1605.4058 535.2158
1605.8042 538.72723
1607.3074 541.6537
1614.882 540.0367
1612.1511 535.5505
1608.7944 532.1184
1603.9375 530.0873
1607.0066 525.4646
1601.3618 523.38336
1598.8477 520.9254
1600.4868 519.08606
1603.3522 519.14233
1605.0999 518.6439
1607.7734 518.3698
1605.3613 511.82135
1605.8239 514.0205
1599.5369 511.64645
1596.8103 509.54648
1595.3967 505.03186
1593.1707 512.00867
1593.5916 514.44775
1590.1956 515.2338
1587.7029 511.13486
1587.446 514.2139
1586.2924 518.6476
1581.8949 517.5368
1579.5049 515.5155
1579.5806 516.4801
1581.8645 517.88934
1580.2593 519.0588
1579.8304 523.5848
1580.4968 523.2747
1582.9309 525.33875
1585.524 525.1768
1587.2784 521.98755
1587.1211 521.3114
1591.5659 521.2273
1591.9385 516.5167
1592.6643 516.9475
1596.4022 520.6554
1600.336 524.97156
1601.7732 526.586
1601.0432 528.30286
1596.4524 530.7189
1594.918 527.066
1593.6748 528.53143
1589.9497 527.5771
1588.6028 530.1885
1585.0547 530.0848
1583.2667 530.90686
1578.8737 528.5264
1575.7668 527.1057
1572.9495 525.3595
1568.6421 527.29846
1570.2898 529.55493
1568.4791 532.26184
1568.0845 532.2907
1565.554 531.9371
1561.8763 527.77405
1561.9966 527.52313
1564.0701 520.2855
1553.0903 515.8981
1550.5922 518.38104
1550.0613 518.50244
1552.4873 521.4107
1552.8535 522.4235
1553.2167 527.6
1549.0015 530.501
1547.3024 529.1774
1545.455 523.82153
1541.1025 524.0101
1544.5364 514.88434
1547.6852 515.2787
1547.4321 510.5935
1549.9539 508.4758
1551.5359 506.1899
1552.5953 505.70947
1552.5216 506.07416
1552.1099 511.88354
1556.8181 509.99323
1559.8152 510.54242
1560.0486 512.2245
1566.5823 513.1719
1566.3586 507.20895
1564.2338 504.229
1568.2773 498.5291
1569.769 496.64703
1568.0522 498.24243
1563.186 495.4494
1559.8179 496.93457
1557.9976 493.80518
1556.7943 495.09955
1560.1724 500.00974
1562.7125 504.40588
1558.7122 504.9408
1555.9004 502.37012
1552.9792 501.56647
1548.1414 498.69824
1546.54 492.6809
1548.7422 493.49316
1550.291 494.4392
1555.3162 493.15182
1555.951 486.4029
1559.0563 487.31036
1558.194 484.9596
1556.8594 483.9234
1562.3994 481.63962
1564.8906 485.70346
1564.9629 488.9107
1573.7036 493.75592
1571.79 497.9598
1571.064 500.25815
1569.5679 507.87997
1570.1323 507.9572
1571.5637 508.78772
1568.0199 513.04266
1576.0681 515.3559
1575.2036 507.7931
1574.4359 507.258
1578.1931 506.34006
1579.0612 504.92563
1576.6882 501.16205
1578.1519 501.68723
1585.2808 500.15646
1586.6919 501.59906
1592.1058 503.63617
1595.8313 504.3762
1594.4363 500.9818
1598.7174 503.6291
1605.8243 500.45355
1609.6624 501.3767
1610.6058 503.34857
1614.8674 499.70932
1613.2969 504.7072
1612.3179 508.56955
1609.2295 514.925
1611.2034 514.3749
1615.7705 512.6228
1614.6274 511.71265
1615.9718 504.8081
1621.3862 507.17096
1621.5525 504.94284
1617.9414 500.02954
1616.8204 497.21106
1619.4912 497.2787
1624.2262 497.04303
1624.7087 501.28644
1628.6228 498.01385
1627.9817 494.38068
1635.9119 491.13025
1636.2175 487.00702
1639.3351 488.0575
1637.9447 485.24286
1636.498 485.01233
1641.104 476.47617
1641.1183 473.54135
1642.2819 474.96628
1645.0962 474.98557
1647.3811 470.68842
1647.6863 474.71216
1648.6311 474.7636
1652.7655 472.95908
1654.8104 477.33295
1661.4457 479.35828
1662.5261 479.59467
1665.6139 474.0003
1665.7354 473.00806
1664.6968 473.4239
1659.9836 470.13934
1657.2404 469.78058
1656.5342 470.9226
1654.8518 472.48935
1654.1028 472.97446
1653.8279 478.06284
1649.4362 477.3014
1645.2124 479.17126
1642.5513 477.12338
1643.9083 481.27036
1646.7825 483.58514
1650.4562 484.7263
1652.49 487.71274
1653.5547 490.0654
1653.7428 486.5667
1657.2092 487.62585
1656.9897 493.67236
1656.5665 496.62985
1657.9707 495.4629
1659.1423 495.7319
1661.3641 493.79758
1663.6437 501.3506
1660.3965 501.9968
1655.8154 502.34393
1651.9465 500.61618
1651.2537 499.7201
1651.3975 497.86316
1650.383 496.8269
1648.031 493.33435
1645.1807 488.85596
1645.845 497.61682
1640.6979 497.14413
1637.2476 496.22568
1637.6611 498.07172
1638.9048 498.92798
1641.2692 499.74512
1645.877 504.82483
1646.362 503.99313
1649.0718 502.37488
1647.1207 502.84006
1649.5408 500.23007
1652.9673 502.76355
1653.3667 504.5128
1651.4974 504.69257
1649.257 511.6002
1644.2104 513.3899
1640.6034 505.656
1640.8168 503.97897
1638.7667 509.50403
1637.82 512.7329
1636.6812 513.1544
1638.6031 513.031
1648.275 514.9026
1645.9387 520.6422
1647.0054 521.3152
1645.4695 520.69855
1640.6005 519.0342
1640.9326 522.38776
1641.5217 523.7332
1643.1772 528.0728
1643.8107 526.2121
1641.9525 524.67255
1635.168 525.7812
1632.513 523.5016
1626.7395 522.8406
1630.0032 519.9717
1631.2468 518.88025
1630.3545 514.3508
1631.9817 512.2622
1628.8665 511.42596
1626.939 505.67905
1631.4261 505.26654
1632.8568 506.7594
1632.0183 501.85974
1631.0994 502.1152
1629.5552 500.6839
1628.5011 501.44653
1624.3552 506.18967
1622.4984 507.5853
1623.3993 516.4125
1622.1323 516.7232
1622.0239 519.6775
1622.8821 521.01764
1622.2069 520.77203
1617.3633 521.7356
1613.823 523.03894
1610.9512 521.8747
1612.05 525.37805
1615.1597 525.73785
1620.4023 523.19666
1623.0892 523.4297
1621.745 529.4232
1623.0673 534.5649
1623.0237 533.9203
1623.793 528.7705
1630.0732 528.3849
1631.4486 528.574
1628.7167 535.65076
1624.8439 535.93365
1623.1594 541.2195
1626.1978 539.72565
1630.6787 535.5362
1632.855 536.5499
1634.1622 538.66626
1637.6987 532.96985
1642.1796 532.5366
1651.9474 531.4471
1652.346 531.3134
1653.4467 525.4396
1658.2753 524.06213
1658.4883 524.6183
1657.2909 528.56445
1661.2198 526.1167
1665.003 520.75525
1659.4669 521.0236
1654.0579 517.2558
1653.2227 512.6459
1655.041 512.9524
1657.6482 513.74475
1656.1809 511.86908
1658.6509 509.6447
1661.9551 508.1511
1661.6918 507.35785
1664.0298 507.3086
1664.1099 512.37585
1663.7314 516.4514
1666.6914 517.34106
1667.2498 515.69794
1671.4443 513.6821
1671.4028 512.6864
1670.785 512.1291
1674.0251 509.61877
1672.0419 504.96497
1675.4943 503.7572
1676.8038 503.92554
1677.684 501.74402
1678.0782 500.73376
1678.3667 499.53842
1679.1621 497.84607
1678.0496 496.597
1677.8302 497.83884
1674.3916 497.56836
1673.5696 493.87036
1672.7601 492.12
1670.4946 494.4731
1668.9988 493.15112
1670.8414 489.11603
1670.4717 484.42282
1667.3938 480.9828
1670.3508 481.1792
1671.8309 481.46582
1674.3318 477.07745
1676.6357 481.08954
1675.9309 482.08347
1677.4102 482.23288
1679.138 483.05377
1678.4805 483.94446
1678.9839 487.80835
1678.464 491.95065
1680.5475 495.0924
1678.5349 491.1814
1681.0437 485.9908
1685.6113 481.5123
1685.0432 480.1101
1686.4082 477.52216
1685.6555 473.65805
1684.0977 468.71945
1687.425 464.61752
1685.5796 462.287
1679.9747 461.78815
1675.9237 458.1471
1675.9203 455.66333
1672.0627 457.4807
1674.1201 457.19116
1670.4146 456.292
1672.315 452.29285
1665.7393 451.3083
1663.5701 449.68097
1658.8672 446.9931
1652.0846 449.93536
1651.0327 448.0327
1654.147 446.14807
1655.8823 447.42432
1662.7021 448.48102
1666.9648 444.44455
1668.967 448.96884
1671.9064 450.84015
1675.0522 449.537
1677.6504 449.65134
1679.5924 450.83417
1682.3389 451.36627
1684.3912 449.57147
1689.3383 451.88202
1684.2258 451.14548
1682.7446 450.4725
1679.544 447.94788
1678.3108 446.96393
1676.2822 446.09143
1677.4434 445.22253
1681.8474 443.5016
1683.8528 445.26654
1686.0308 437.7964
1687.1504 437.69
1681.0858 434.0114
1684.456 428.19843
1683.8534 435.04102
1678.2712 435.39514
1677.9846 434.35016
1672.3512 436.5119
1672.3174 444.85553
1670.2892 437.20068
1666.0771 437.7738
1659.5135 431.42908
1660.9888 426.25302
1659.9095 422.71606
1658.136 421.16162
1655.5171 421.2967
1654.3457 417.63855
1654.9468 416.1836
1658.1558 416.50546
1659.4215 412.9139
1661.4904 413.3603
1662.9674 415.07947
1663.7124 418.69586
1666.2579 418.9698
1666.7737 420.4655
1670.3259 422.6339
1670.438 425.15027
1670.8616 427.96298
1671.2135 429.34534
1672.3562 428.3929
1672.7761 427.06577
1678.035 424.7896
1674.2793 418.72632
1674.3416 415.24268
1672.2233 414.52228
1669.8301 410.5346
1669.5679 409.84552
1669.0575 407.12213
1663.2225 405.66907
1663.3986 402.19824
1660.536 400.8324
1659.3027 405.58057
1654.9661 407.56598
1654.2711 408.6446
1655.2207 409.84003
1657.8118 410.53253
1657.2587 412.48056
1654.7909 412.35883
1651.7563 412.8979
1649.689 407.94003
1648.0806 403.0874
1649.641 401.66684
1652.7958 400.86096
1649.8134 399.97263
1648.6464 397.5571
1650.9792 393.36322
1649.3401 396.9496
1649.0406 398.08823
1648.8931 402.34186
1647.3551 405.38068
1649.624 408.18817
1645.7726 413.42816
1640.8784 412.20648
1636.2377 405.9002
1635.9548 402.62756
1636.1045 402.20612
1637.4427 402.67682
1644.0214 401.78305
1639.5659 399.46432
1639.8865 396.4184
1637.1909 399.54343
1631.0089 400.5692
1629.8792 396.1281
1632.4032 392.08362
1631.8387 389.6894
1634.1053 388.58997
1635.0968 387.717
1640.0386 390.04852
1644.7214 390.90573
1644.2329 388.75592
1641.6025 383.6247
1642.0725 383.0655
1646.9908 383.5492
1646.8683 380.20297
1649.7634 379.82654
1648.1772 378.59946
1643.3843 378.20996
1643.0112 375.87326
1635.677 378.75183
1634.5511 383.32867
1631.4697 381.97937
1634.5737 380.075
1635.5658 377.21814
1633.5172 374.1676
1637.9974 370.16602
1640.7019 369.67163
1644.3452 371.29944
1647.2856 375.3017
1648.7567 373.92175
1648.4025 372.06918
1656.2346 371.41626
1656.712 371.12534
1659.2942 371.32428
1659.251 369.7868
1662.8524 368.4358
1658.509 360.4898
1666.4517 360.6635
1668.8778 357.51184
1659.9504 354.79028
1653.1099 356.15497
1647.8998 354.0874
1643.8793 351.4748
1645.6107 348.51294
1647.8052 351.02777
1646.4473 353.7976
1648.3701 355.12714
1644.9001 360.64844
1653.0688 361.06213
1651.2634 364.2757
1652.4568 368.02393
1649.854 367.33054
1647.2916 367.41125
1645.1711 366.23663
1636.55 364.5183
1633.4761 360.83994
1635.6816 357.10925
1635.7424 356.97137
1637.7144 354.12012
1637.0432 352.0769
1635.8158 349.9692
1631.3003 350.61615
1626.3865 347.30188
1622.4615 346.79208
1619.5005 350.74313
1621.0803 350.79724
1624.997 347.98236
1633.1929 345.45166
1633.102 345.14612
1633.4135 343.5475
1629.7936 339.44217
1631.8073 337.24744
1632.8313 337.29483
1633.2487 337.38495
1633.1748 331.5346
1633.8667 329.9098
1633.8314 327.52112
1635.2812 328.64044
1637.9694 327.16632
1641.0201 325.97778
1642.4288 328.41544
1642.8834 328.26962
1646.0543 324.75818
1649.9015 324.69693
1646.6177 320.9599
1649.0059 313.2508
1647.6313 311.06662
1646.0664 310.76184
1645.7156 308.91565
1645.0911 308.72186
1644.7026 306.92572
1646.4406 302.91507
1654.4277 300.7422
1653.2258 304.44537
1652.7767 308.47922
1654.7603 309.13495
1653.9353 310.03043
1652.7749 314.5334
1654.3533 317.6514
1654.8739 322.4992
1658.6873 325.7185
1656.9164 329.73657
1655.2413 327.72443
1651.9448 330.29236
1654.6335 334.3952
1653.1467 333.57928
1648.1707 335.52386
1647.9994 337.0736
1645.9614 339.47964
1646.5603 334.72693
1643.2065 331.50958
1640.3867 332.9389
1639.3889 334.24078
1638.5952 332.34845
1635.7195 334.67856
1637.4316 334.8073
1639.8357 335.91827
1641.1775 340.6847
1640.4729 343.62775
1639.3267 344.45898
1640.8018 345.22803
1642.8986 346.29614
1646.4109 342.5792
1650.1771 341.86273
1650.471 343.63974
1653.3389 342.41
1652.8667 345.50653
1653.5251 346.51355
1650.8872 350.90057
1655.1777 350.2516
1656.8594 347.2411
1656.9874 345.06964
1657.4777 342.3274
1655.6124 339.73438
1656.0627 337.38556
1657.886 335.20325
1656.1279 330.7519
1659.0737 331.94977
1660.5483 330.85632
1659.4954 331.9674
1662.3258 336.6871
1663.4607 335.0783
1665.7566 333.0121
1668.6262 337.77975
1665.7062 341.8711
1661.9221 343.01367
1668.1527 345.76947
1669.1632 347.94678
1674.6608 345.89978
1671.8447 342.5455
1673.802 340.0451
1675.2971 340.7336
1675.1871 336.49268
1675.447 334.8405
1671.947 329.00754
1670.808 328.09692
1669.9192 328.05396
1671.0903 325.19562
1671.8671 326.9729
1674.7002 326.0673
1676.7976 321.23663
1676.7793 319.59772
1676.0835 318.74976
1677.8632 319.42578
1679.242 316.51654
1681.4423 314.84134
1679.6162 313.78076
1678.0065 307.4892
1673.2109 308.1571
1675.6687 303.1162
1673.4321 298.24435
1673.363 297.5986
1674.0767 297.4099
1675.2389 295.31543
1671.9966 295.318
1670.7856 295.98907
1669.3367 296.96844
1662.5043 303.9054
1664.4219 311.46393
1670.1387 314.50842
1670.4807 314.546
1671.9832 315.11102
1669.6346 319.62634
1664.5928 317.70135
1667.4287 323.76172
1662.0503 323.83313
1660.7633 321.10446
1661.3218 319.52234
1661.0491 316.86804
1662.4114 314.55774
1660.2334 311.47864
1661.3883 304.13455
1659.3147 303.26257
1655.5062 302.8175
1654.5638 300.15155
1656.5614 295.523
1652.905 294.37198
1651.4382 291.56235
1653.03 289.02362
1648.8125 289.3181
1646.4541 289.38422
1647.1246 287.5468
1646.2906 284.99634
1649.2296 278.34354
1650.0635 273.47543
1653.1729 276.0526
1657.4906 275.86646
1658.7216 278.61877
1659.4143 278.8055
1659.4111 279.83545
1662.121 282.3012
1661.5393 284.38077
1662.2292 285.4801
1660.2649 289.7823
1661.7388 291.46484
1662.2528 292.65765
1663.0762 293.5234
1664.5267 292.75443
1668.4602 291.91818
1665.213 285.60712
1669.3481 284.17188
1669.3683 284.06055
1665.3318 276.8436
1660.127 276.28693
1658.5404 273.0926
1653.946 267.58932
1644.7466 266.19305
1641.049 260.67004
1642.4165 261.95007
1643.627 270.12317
1642.2638 273.85992
1640.3794 272.52634
1635.6075 269.60712
1634.9144 272.894
1634.0497 275.1687
1635.2535 275.57632
1637.0027 277.05435
1638.3337 280.69705
1641.4185 280.46014
1640.3809 284.0107
1638.7872 285.78412
1635.0781 283.8544
1635.0863 283.64987
1633.9312 280.3004
1633.9218 283.27515
1632.5273 283.70166
1632.7717 287.41187
1635.8159 295.38922
1639.5686 296.319
1641.0704 293.22333
1646.5204 294.3112
1648.134 296.5955
1644.0382 299.20166
1636.597 301.855
1632.791 300.37073
1633.5796 302.45264
1630.9242 305.34836
1632.5812 306.36652
1632.6526 308.38235
1636.0646 306.83493
1638.761 307.29254
1640.4944 306.59152
1642.5302 308.0717
1642.219 307.91968
1638.0107 309.46817
1638.3574 310.82196
1642.0767 318.4633
1637.4851 315.97958
1633.657 316.0043
1628.5105 307.9168
1628.3523 306.63757
1626.4307 303.08176
1622.6409 296.80542
1627.937 295.40204
1624.9958 294.10968
1623.2546 291.62085
1622.3666 290.46417
1623.99 293.21558
1618.5713 298.44165
1616.829 294.6276
1619.1172 291.32645
1616.8179 286.8504
1619.7413 284.4994
1623.3118 286.0761
1623.9563 287.7475
1623.4946 286.3483
1623.8329 284.30286
1620.9955 282.5611
1621.8612 281.40762
1625.5503 279.31552
1628.283 278.61307
1630.1853 276.9414
1629.4106 275.44238
1631.5685 273.44836
1633.1587 270.973
1629.4231 270.74982
1623.6147 269.91736
1623.3596 270.8354
1624.272 273.25836
1621.8145 273.3819
1618.65 272.8341
1615.6287 273.68195
1612.1385 275.07654
1606.6753 272.71262
1605.3062 276.40475
1600.2278 272.95996
1604.2782 267.21603
1604.5637 266.7559
1602.4033 265.84805
1601.9586 261.31174
1605.113 262.81693
1605.8668 264.31757
1611.3215 264.83725
1611.484 265.6125
1611.2125 269.3608
1610.878 269.3507
1612.31 269.3965
1614.0332 268.1569
1616.2036 267.67444
1619.7097 268.67017
1621.8208 266.8164
1623.1421 265.09076
1627.4551 264.87567
1627.9302 257.00848
1625.8164 260.9005
1617.4343 260.92474
1614.8029 263.4616
1610.2781 260.5379
1612.8845 259.59192
1613.901 259.31857
1616.106 257.33514
1616.5878 253.09467
1612.0409 255.98895
1606.6837 256.72897
1604.6476 258.2722
1604.709 256.857
1601.9048 256.23645
1600.4514 256.51102
1599.0576 256.2379
1598.6602 255.2709
1600.4976 251.08482
1598.4795 253.63493
1598.4183 255.36253
1594.0156 253.94872
1593.2087 255.09567
1592.2678 256.5428
1595.1384 258.59766
1600.6846 259.74265
1598.2375 262.86407
1598.4517 266.17886
1596.9362 264.61908
1593.0793 265.43637
1592.3695 260.2586
1591.0356 260.6213
1590.1375 263.85983
1586.9414 264.2998
1590.327 265.62146
1591.1802 269.22498
1587.6831 269.3616
1586.1506 270.59283
1584.8154 263.5476
1584.1241 262.3874
1581.2 259.05743
1580.262 260.6565
1576.8948 261.91327
1577.527 263.08243
1578.6954 265.32434
1581.0457 267.50122
1580.5139 270.62808
1584.1846 270.1376
1583.883 274.1868
1586.7604 276.88602
1586.9543 278.04065
1587.7861 276.41602
1588.7722 276.71494
1591.3805 277.98535
1594.349 276.14825
1598.7213 280.2598
1601.3483 282.66574
1604.5448 277.79626
1609.8406 281.1048
1614.5906 279.37576
1614.897 279.03748
1616.3901 280.8306
1613.4528 289.18085
1613.4907 291.65698
1610.8477 291.47632
1609.9873 293.11493
1599.3287 292.3068
1593.748 289.68054
1591.8381 290.78854
1590.5894 292.80423
1584.6187 295.59067
1582.7698 298.36212
1581.778 296.2679
1574.9044 292.42026
1579.2585 289.2442
1582.3142 285.11475
1583.4463 286.75848
1587.3208 290.3156
1583.5253 285.37286
1583.1357 282.29764
1581.209 284.80807
1574.6901 285.88876
1576.6543 281.2973
1575.4326 280.7187
1573.2236 280.3038
1571.4669 278.0524
1573.1614 277.87302
1573.1449 277.0615
1575.2102 276.02432
1573.3364 273.01703
1568.922 272.61472
1568.8772 272.20816
1568.4297 271.16357
1569.2784 271.9782
1572.0356 270.33783
1575.0155 271.94656
1575.1838 271.52277
1574.0847 268.03015
1575.5967 267.58487
1576.61 263.8425
1572.431 263.4667
1573.153 261.906
1573.7245 258.39597
1573.0806 256.17462
1572.2999 256.05438
1571.5061 256.01367
1567.8652 257.74707
1563.9292 260.177
1565.4952 262.79266
1565.7886 263.51398
1565.0768 264.31265
1562.9248 266.38953
1558.7382 270.3174
1558.2736 263.4978
1554.9836 261.4804
1553.2623 264.27063
1556.3145 267.8034
1553.7225 272.50873
1554.7107 274.8472
1549.6161 269.91058
1548.7739 268.6942
1547.4703 269.85745
1541.4304 269.84204
1534.503 280.95584
1532.7513 279.37585
1527.5336 284.4369
1525.345 286.83527
1526.8037 289.97623
1527.9746 296.49213
1526.0078 297.39917
1524.5719 293.7273
1524.7595 289.8553
1526.9761 286.60327
1529.0468 286.985
1532.8821 285.72156
1537.007 287.36737
1537.0023 288.18445
1543.3518 289.37036
1545.105 290.05646
1542.845 286.00092
1542.315 284.3828
1540.876 281.7702
1542.1389 276.14227
1548.9021 272.9885
1555.7847 280.71838
1556.4962 286.1497
1558.8713 290.6888
1560.2004 286.44513
1559.095 284.40607
1559.1779 282.9474
1563.7715 282.2247
1562.8398 277.93475
1566.4436 278.8285
1567.3994 279.96252
1567.4164 280.52972
1573.0261 285.00046
1571.9529 285.96664
1569.6594 290.7219
1571.3948 294.05426
1570.7079 294.0658
1568.0662 293.97824
1565.7012 292.62628
1564.5758 291.43994
1563.9219 291.0053
1561.9036 293.95193
1561.458 295.37134
1562.7063 299.5226
1563.8997 297.5382
1566.9858 298.21964
1567.0527 301.69604
1567.4619 303.27863
1569.1248 303.02774
1572.7698 303.21924
1569.9393 303.3516
1568.8691 307.17007
1569.794 311.60724
1567.2207 321.1105
1563.7632 315.4347
1559.7142 314.86182
1563.9246 312.851
1563.9207 310.29254
1560.4114 307.7645
1559.3499 305.19705
1555.548 305.7641
1553.336 307.8957
1554.5137 302.9939
1555.5077 303.11877
1559.5383 298.41418
1557.1002 295.7645
1553.3481 294.3927
1551.6866 294.6214
1548.4034 293.45123
1548.6682 296.87927
1545.2502 297.27875
1542.7675 298.54922
1538.6577 300.37436
1536.3319 300.29623
1540.995 300.70355
1545.0295 304.24127
1546.5303 306.1574
1539.0376 307.24905
1538.9801 308.21603
1540.5259 310.11267
1541.1106 314.14435
1544.2325 315.23816
1541.4265 318.11954
1534.5571 318.8826
1534.3733 320.24597
1533.2646 320.37753
1532.8687 320.44427
1531.4646 319.35834
1527.0947 320.80896
1527.3584 319.5307
1525.1782 316.51965
1520.8531 316.25275
1526.1685 316.4203
1527.2749 316.56778
1528.0514 314.5418
1528.3804 315.35602
1532.6045 315.375
1533.1543 314.12
1532.1565 309.93958
1530.9563 306.55002
1525.5239 303.86346
1525.1075 304.28366
1523.4799 310.54614
1520.9724 310.68997
1520.1724 315.30704
1518.0442 315.81573
1519.1843 317.54095
1520.5337 318.2689
1520.3218 318.69342
1519.9253 320.75922
1521.8982 323.42764
1521.5437 325.79645
1528.8248 326.46997
1530.0245 326.8975
1531.7024 330.97772
1527.3379 333.4845
1526.3909 328.9525
1521.5857 332.0015
1521.7943 333.16428
1520.5819 337.21942
1524.7896 342.5193
1525.5746 343.23032
1525.9896 338.92697
1528.771 338.57785
1529.4797 340.851
1532.1902 348.46332
1533.9686 346.7479
1534.3035 350.69614
1527.8595 350.09473
1523.7755 354.4298
1527.0901 356.71948
1528.9183 355.88074
1529.9307 361.92023
1533.105 359.32928
1533.3618 358.57968
1535.4004 360.20016
1537.6177 361.70776
1539.7151 360.695
1539.0747 359.14767
1540.1812 353.52405
1545.4504 353.01733
1550.8522 350.2878
1551.3971 349.68384
1549.5615 345.45062
1551.1162 344.09616
1547.8989 342.97778
1545.9323 337.2281
1543.5372 342.51584
1540.4469 340.65033
1540.7156 343.98346
1538.452 343.5477
1536.3428 343.43677
1535.1732 338.07346
1537.0364 337.56476
1537.5972 335.38525
1537.0876 333.37897
1540.5203 333.7764
1540.3241 331.15063
1540.8608 330.60443
1539.9117 328.66693
1543.2358 330.34656
1544.2534 330.33142
1544.6633 329.38116
1548.8384 330.86237
1550.7317 324.03024
1547.2058 325.6244
1543.1123 324.55637
1545.4768 323.59015
1546.2065 319.43256
1550.7888 315.84088
1548.55 314.1375
1547.9062 310.2368
1549.502 309.56335
1552.0262 309.6835
1556.6843 312.07986
1558.6238 315.76123
1555.9111 320.79465
1556.5884 322.90906
1554.4861 323.8858
1554.0034 327.23474
1556.3597 328.60693
1557.4938 327.18018
1561.7892 326.64194
1565.6519 327.99408
1564.314 329.75827
1565.4424 330.18692
1565.3257 334.89978
1563.9954 337.13654
1564.0481 335.80316
1561.4832 333.99112
1557.5642 332.7428
1551.4409 329.92175
1552.8926 331.21973
1551.2847 335.4453
1549.9509 337.04926
1549.417 340.92407
1553.1157 338.22626
1555.2968 344.26938
1558.1031 343.1516
1557.0652 341.59912
1559.3665 339.5251
1559.751 337.2701
1561.3835 336.48495
1561.5513 339.07556
1562.2799 341.8154
1563.8445 343.81757
1564.2482 344.82712
1565.973 340.82245
1569.24 344.54965
1571.0259 347.71933
1575.0704 348.5007
1580.7659 353.03928
1578.7012 354.90967
1576.1971 357.13986
1576.5464 359.10214
1573.966 358.38483
1573.8868 357.98886
1570.6357 354.68878
1560.3683 351.01047
1558.7028 351.28452
1556.5764 352.50677
1555.6241 353.86108
1548.9951 353.21027
1547.1599 354.54083
1546.9846 359.4637
1541.7377 362.5329
1540.0388 364.48947
1534.5868 366.8996
1542.3054 370.6878
1545.7522 375.212
1546.4263 378.54834
1549.3516 378.23898
1548.6989 368.72235
1545.2703 366.64255
1551.9819 369.49094
1553.0991 372.8474
1556.324 373.44345
1555.7582 377.26666
1553.7444 379.18268
1553.5128 380.19943
1556.3389 380.78818
1557.898 379.07687
1559.507 379.64926
1559.8353 380.85474
1563.0901 378.86447
1564.4653 377.05457
1564.9163 378.11105
1565.6064 379.52478
1565.1637 382.3303
1560.2017 386.76596
1555.8119 384.8766
1550.419 383.5453
1551.0847 388.63217
1549.9353 388.77222
1546.3188 389.4828
1544.8896 392.53668
1542.7928 394.73105
1541.3308 395.19263
1541.6381 395.42773
1541.8218 396.95297
1543.3672 397.94965
1542.2012 399.13928
1542.575 399.9049
1541.372 402.47974
1538.638 401.08783
1538.0266 401.42978
1536.0188 402.87457
1539.7822 405.26
1538.2491 406.58496
1537.8398 407.02368
1536.6213 405.89148
1535.4263 407.49628
1532.3562 408.05603
1522.5458 415.0415
1528.4675 410.4348
1534.7773 408.55856
1539.7042 411.70724
1537.7036 413.79755
1541.7949 415.73322
1544.8567 416.94977
1542.7639 417.65405
1541.1492 419.22742
1545.4065 421.64508
1544.8806 422.74182
1548.2875 421.2671
1550.1008 422.04636
1551.3456 413.40887
1553.8457 414.44394
1555.6035 410.24643
1559.7749 409.3459
1562.9342 408.9973
1564.0007 406.50757
1565.6049 406.2435
1566.706 409.7218
1569.5669 407.2401
1572.8533 410.9051
1571.0096 411.18073
1566.2627 413.02362
1565.968 412.53577
1563.0137 414.61166
1562.2839 414.91086
1558.1953 413.82846
1558.6162 417.71042
1559.3608 418.15146
1562.8928 419.59558
1565.1328 417.3156
1564.3396 421.73068
1564.5105 421.36945
1571.4265 418.58423
1573.8816 416.8689
1574.9021 413.36118
1574.9773 411.98578
1573.3596 410.5727
1575.8503 411.14905
1584.8661 410.17676
1584.4326 408.047
1588.4008 403.98044
1594.9167 405.2683
1599.6552 398.67212
1597.3585 396.03513
1595.8412 394.37128
1599.0577 392.71014
1594.8105 389.031
1590.6492 391.03687
1591.5361 394.7879
1592.4575 395.7767
1592.5592 397.72192
1592.0406 397.71497
1589.1432 403.67175
1586.1475 402.19342
1584.2094 400.71118
1582.1346 404.47534
1580.3119 405.8585
1578.5872 406.6152
1574.3021 405.0799
1570.7339 405.44592
1570.6343 404.98285
1568.7092 404.36768
1566.0764 405.03607
1564.5725 405.07236
1563.5676 403.72833
1561.7104 404.28076
1560.0532 398.7824
1559.0917 395.37347
1556.0004 399.68878
1556.0908 402.51923
1554.4672 407.6013
1553.36 404.52072
1551.3188 405.86664
1550.4988 405.4372
1551.0908 406.61908
1550.4304 407.6997
1551.4604 411.04102
1548.607 411.01794
1546.7295 413.0549
1545.1095 413.05457
1546.189 411.8335
1546.6158 411.0367
1547.0237 409.83142
1546.4852 406.36023
1546.2732 405.9515
1547.654 402.4964
1551.682 402.10962
1549.2878 397.6877
1549.2761 398.84677
1548.439 396.79675
1551.2393 396.28293
1552.4163 392.3213
1557.8132 393.8205
1560.7603 393.7778
1562.4729 393.03317
1564.3339 394.6853
1563.911 390.6114
1567.3988 387.15717
1569.7319 383.7268
1572.8982 382.8452
1574.0872 381.09558
1572.226 378.84225
1570.2257 379.15656
1570.2319 375.62622
1570.7045 375.1941
1573.573 375.76007
1574.105 374.75812
1577.1383 375.6705
1578.5928 374.3565
1578.83 376.5708
1576.3484 378.55624
1578.7683 380.59955
1579.3658 379.69324
1581.6733 380.98068
1581.9745 383.14172
1578.6938 383.40524
1578.4257 385.39548
1575.8527 383.4947
1573.2202 385.5326
1574.5546 386.24213
1575.4653 389.43066
1572.354 390.2812
1571.9277 394.22113
1570.629 394.8648
1573.0607 395.87888
1571.0548 398.974
1574.4714 398.28278
1580.191 398.1056
1583.8418 395.59375
1583.123 389.48376
1582.6266 387.91635
1583.745 388.24423
1588.8518 385.70428
1590.2264 385.6726
1587.0046 381.32443
1591.5405 381.56747
1591.6898 381.844
1592.6444 382.8895
1592.5312 380.67072
1591.4824 376.89954
1591.002 374.3597
1590.8169 370.6573
1590.9341 377.19626
1588.8485 377.65048
1585.9474 382.748
1584.7542 381.906
1585.6128 380.0422
1584.2539 380.23627
1582.3611 378.0223
1585.3303 373.60333
1584.3999 367.59848
1582.7053 366.9881
1580.9541 368.2713
1581.8376 366.92847
1580.8298 362.8061
1580.1965 366.7374
1580.271 367.64978
1577.549 369.4452
1570.0056 368.67172
1569.5127 371.14917
1567.4473 373.9747
1566.9639 373.7309
1567.5066 370.25558
1565.1462 369.66937
1565.529 365.8322
1560.4663 371.12326
1561.6052 373.4937
1560.0237 375.88385
1559.827 373.21396
1554.9401 362.86133
1561.467 363.50412
1561.6521 362.4852
1565.1176 357.89764
1567.1119 361.38376
1570.6307 362.95117
1571.5275 365.53864
1579.4729 361.1814
1581.4746 360.75656
1583.832 361.6463
1586.4816 361.5997
1589.7388 356.7343
1590.4309 363.4852
1587.2084 367.78107
1594.2007 364.66415
1594.759 368.01166
1601.3373 369.81152
1601.7852 370.0167
1602.4983 371.52863
1603.5017 369.38998
1604.2544 368.01938
1603.7286 368.1056
1606.7686 370.2163
1604.736 372.01544
1601.7849 373.43512
1602.6438 376.18085
1602.2208 376.18405
1600.9441 379.11444
1595.8309 377.10944
1597.6802 379.5205
1598.6104 387.7027
1600.0187 388.39008
1600.327 387.5279
1601.5403 386.32004
1605.8529 384.5294
1606.8318 382.70383
1606.2396 381.22772
1602.6769 379.63315
1603.935 382.34973
1604.2423 386.55905
1604.1742 390.38153
1602.2078 397.98608
1606.3295 397.75726
1610.0863 398.45932
1610.3179 403.55634
1611.6833 400.2944
1614.4376 399.20184
1611.4943 398.77277
1612.2305 391.59473
1609.5181 390.1878
1608.6594 387.86313
1612.462 386.11273
1613.5408 378.48242
1612.2534 378.573
1610.4995 378.3009
1611.2498 376.32697
1612.7524 373.60193
1615.0074 373.75098
1616.062 372.63403
1622.2407 374.70764
1622.5195 374.87927
1620.6907 370.06213
1621.5272 368.03278
1621.9973 365.16144
1622.0887 363.21112
1618.2587 362.6031
1617.3859 364.7335
1617.6677 366.52368
1609.8094 368.17783
1613.262 363.83936
1614.3656 358.12915
1617.4507 353.10638
1619.9689 353.95117
1623.8713 356.23996
1623.7731 358.9024
1628.4077 358.03442
1628.8662 355.8398
1627.9009 358.62167
1627.1494 361.88144
1627.1401 363.46277
1628.7273 367.34857
1625.4658 370.17035
1624.375 370.25018
1627.102 370.75085
1628.1008 372.7297
1625.9987 376.40564
1622.9406 375.77478
1619.5865 378.40192
1620.3022 379.13483
1619.5988 384.28607
1618.3828 384.80682
1619.8303 389.02158
1616.5077 393.38043
1621.3417 391.82117
1623.7012 390.10605
1623.2815 389.9083
1622.2551 387.35565
1623.1719 387.2236
1624.2695 385.9308
1623.543 384.59225
1625.5388 382.10654
1629.216 383.0747
1628.2174 385.346
1626.5435 388.3977
1626.1483 389.30075
1624.9165 393.16095
1620.3948 397.71655
1618.2208 396.08368
1615.3802 399.3833
1620.2 403.73743
1619.1239 407.10178
1617.2351 408.5648
1617.3325 415.36093
1617.21 413.3364
1614.5991 408.16437
1611.7258 408.21643
1610.7607 411.8081
1607.122 408.5265
1603.5693 408.69995
1608.483 413.65024
1610.8102 415.53925
1613.1008 418.50745
1618.9923 417.90698
1619.6401 419.80212
1626.4386 423.53293
1626.7428 424.20383
1628.9316 423.26605
1625.1587 419.5511
1621.9409 414.04803
1624.0706 413.56186
1624.9282 410.33932
1623.1323 407.3231
1624.4677 405.34668
1623.0514 406.9297
1630.7297 406.04575
1632.0674 409.50732
1629.0817 411.48434
1632.373 413.83575
1632.7172 417.2057
1633.8043 417.8994
1631.3398 419.46216
1631.0203 422.70615
1633.9587 423.47272
1640.4042 423.01227
1638.9592 419.78094
1639.72 419.30295
1638.0104 415.51755
1638.0907 414.8491
1639.3982 414.92245
1642.1721 417.61212
1643.6956 418.8689
1644.3433 420.39838
1643.7025 422.09717
1644.1807 426.6638
1648.7561 425.88965
1649.727 425.26816
1650.8684 423.99765
1651.066 422.23105
1656.1406 425.44165
1659.1604 427.7555
1654.1599 429.38293
1649.2219 427.12692
1649.7065 431.7082
1647.5623 437.67834
1644.9668 439.84946
1645.4657 440.67957
1647.7565 443.9806
1649.2579 444.88986
1649.3867 447.84058
1649.0898 447.57422
1645.4304 443.89594
1642.152 441.62488
1640.3909 438.02216
1637.9154 436.14502
1640.9873 432.74945
1643.7051 431.49445
1645.4047 428.89417
1642.5057 429.64508
1635.3999 430.49164
1631.9111 427.73608
1628.074 430.1021
1631.7379 435.00043
1636.822 435.13025
1637.3562 435.32367
1636.7064 435.51657
1635.3777 436.23297
1636.6504 439.16766
1636.4138 441.82407
1636.1694 442.04694
1642.8337 446.09616
1643.2126 450.25546
1644.5127 453.25128
1646.0726 455.83063
1650.2122 460.40927
1648.801 462.17294
1647.1212 460.93268
1646.0323 464.3868
1648.7023 469.23706
1651.7537 467.70734
1653.1226 469.54724
1653.1176 466.99973
1652.8142 466.32532
1653.3938 466.1349
1654.9271 463.54257
1653.8801 460.09326
1655.4014 458.62314
1655.977 464.50632
1658.7715 464.56396
1659.1432 466.83322
1660.7355 467.01828
1661.3453 461.394
1662.2224 459.4995
1662.266 464.79208
1667.4443 465.38498
1666.7526 468.46075
1668.9896 472.31433
1668.403 465.51196
1667.125 463.66367
1669.0952 462.47058
1674.9111 464.3164
1674.4972 467.66046
1674.9438 468.18124
1675.7886 465.93597
1679.4774 466.63208
1679.0442 467.3927
" />
</g></g></svg>
