<?xml version="1.0" encoding="UTF-8" standalone="no"?>
<!-- Created for Inkscape (http://www.inkscape.org/) -->

<svg
   xmlns:dc="http://purl.org/dc/elements/1.1/"
   xmlns:cc="http://creativecommons.org/ns#"
   xmlns:rdf="http://www.w3.org/1999/02/22-rdf-syntax-ns#"
   xmlns:svg="http://www.w3.org/2000/svg"
   xmlns="http://www.w3.org/2000/svg"
   xmlns:sodipodi="http://sodipodi.sourceforge.net/DTD/sodipodi-0.dtd"
   xmlns:inkscape="http://www.inkscape.org/namespaces/inkscape"
   width="3200"
   height="800"
   id="svg2985"
   version="1.1"
   inkscape:version="0.48.1 r9760">
  <defs
     id="defs2987" />
  <sodipodi:namedview
     id="base"
     pagecolor="#ffffff"
     bordercolor="#666666"
     borderopacity="1.0"
     inkscape:pageopacity="0.0"
     inkscape:pageshadow="2"
     inkscape:zoom="0.35"
     inkscape:cx="1600"
     inkscape:cy="400"
     inkscape:document-units="px"
     inkscape:current-layer="layer1"
     showgrid="false"  />
  <metadata
     id="metadata2990">
    <rdf:RDF>
      <cc:Work
         rdf:about="">
        <dc:format>image/svg+xml</dc:format>
        <dc:type
           rdf:resource="http://purl.org/dc/dcmitype/StillImage" />
        <dc:title />
      </cc:Work>
    </rdf:RDF>
  </metadata>
  <g
     inkscape:label="Layer 1"
     inkscape:groupmode="layer"
     id="layer1"> 
     <g>
<path style="fill:none;stroke:black;stroke-width:2px;stroke-linejoin:round;stroke-linecap:round;" d="M 
1606.1897 293.99258
1605.0984 290.04572
1603.0234 287.1112
1598.4485 289.1981
1594.3357 289.9369
1600.4717 293.85388
1599.7952 295.3864
1603.9468 295.5108
1604.6381 295.7257
1605.6002 295.89075
1610.012 294.5403
1611.5536 289.22122
1615.7936 289.5293
1620.3796 286.1963
1620.5302 287.78595
1615.7686 289.65878
1613.9307 293.01794
1614.8923 293.87402
1624.4534 299.09796
1625.4121 296.5641
1629.5696 288.1612
1630.4963 286.43097
1629.6523 284.12274
1627.3751 286.24493
1624.5763 285.45642
1623.7007 286.3181
1623.0397 284.62363
1622.1917 283.48495
1623.759 281.56616
1622.3226 277.47833
1623.5818 273.87494
1623.9875 272.278
1627.5942 269.77527
1626.9656 273.81595
1628.9728 273.80502
1632.2455 274.22153
1627.4753 277.39328
1630.0283 280.05292
1630.8542 283.04752
1632.3075 282.51666
1633.3462 282.9463
1634.6284 281.34802
1636.7896 285.06598
1640.4473 285.75623
1645.7457 286.26517
1645.976 288.32
1639.3892 289.44345
1638.4714 288.86453
1636.0781 288.16083
1633.703 291.30524
1640.2689 293.6199
1643.3777 295.1302
1645.569 296.8661
1642.0491 295.60687
1638.789 296.47772
1636.8794 300.85962
1634.7755 300.56348
1637.1873 296.22806
1634.2275 295.50934
1632.0116 293.42197
1626.9767 298.0959
1634.0192 301.20798
1631.6978 303.58948
1633.9982 307.08453
1636.1396 309.98718
1631.9467 311.93576
1635.6631 315.12088
1639.1453 317.232
1642.9565 324.0904
1643.2959 325.339
1644.5566 325.3914
1648.2784 323.07526
1645.6436 324.55725
1645.8982 328.17838
1647.3851 329.43204
1653.5723 329.24835
1651.727 327.46045
1653.8497 322.30273
1649.9043 319.67145
1655.0178 318.84354
1658.7052 314.04913
1655.7758 312.73535
1653.125 312.13306
1652.9755 311.78607
1651.4402 308.76184
1646.3699 309.67496
1649.0641 319.17804
1643.1288 317.38898
1641.5435 311.20258
1643.7723 306.10565
1641.0852 304.5797
1643.4236 303.7617
1650.0337 302.27417
1651.1499 300.75348
1651.3506 297.86453
1651.4045 295.451
1654.5627 296.5744
1654.8267 294.2123
1656.8911 291.9837
1658.9136 291.10052
1662.0918 290.3047
1660.7085 292.6069
1662.8164 296.40924
1661.19 298.44196
1666.1259 300.68002
1667.6566 303.89462
1669.5781 304.62506
1667.7714 304.3345
1666.5657 309.0545
1664.854 307.59015
1664.3335 307.7706
1663.8643 306.54297
1663.7762 305.89804
1662.0388 302.318
1661.2705 303.05508
1660.553 303.63843
1662.5321 306.8826
1661.8052 308.80966
1662.9446 310.84888
1662.1368 314.5012
1667.7334 312.51447
1670.7382 308.3047
1671.6378 312.40875
1674.9662 311.04443
1674.1428 313.19012
1675.5952 314.7087
1673.8245 315.22357
1671.2612 315.81055
1669.229 318.05972
1672.195 322.90247
1669.0913 322.18073
1665.8721 319.58218
1665.7897 324.2257
1659.8486 327.5812
1658.2874 329.47968
1657.0251 337.05646
1656.3457 338.83347
1650.4761 340.6724
1654.6328 344.03842
1656.6924 345.22482
1657.2656 349.85852
1661.5273 344.2146
1660.9302 337.8512
1661.7534 337.57788
1661.7605 336.0475
1662.2434 337.0281
1663.3676 338.96674
1666.4934 344.54453
1664.4305 346.97934
1666.3318 348.3519
1667.5889 344.12524
1668.5619 342.36438
1667.9146 338.57043
1665.247 338.88184
1665.0623 336.57028
1667.5327 334.10388
1668.1226 332.79633
1677.7295 336.3857
1679.9758 333.02557
1682.2296 330.7881
1683.45 334.93097
1683.249 336.14935
1681.821 339.64297
1679.2682 339.24756
1677.0781 338.1973
1676.8374 340.35962
1677.1802 344.66476
1680.2395 346.44308
1682.5857 349.901
1680.4951 350.07806
1680.2542 346.775
1679.2196 346.917
1676.8801 347.67502
1670.5226 351.64532
1672.4469 352.27502
1675.6724 353.81772
1677.1764 354.54126
1677.7936 350.94467
1681.9072 354.49057
1678.7795 358.37695
1677.7107 358.50204
1681.4454 359.50433
1686.8755 361.4004
1690.8921 362.96774
1690.6884 361.42255
1689.195 356.44843
1688.9491 353.99094
1688.9867 352.94177
1686.1029 354.61963
1687.1086 353.58398
1685.503 347.10938
1689.7769 347.796
1689.3701 345.73593
1688.3746 344.9419
1687.023 344.30957
1685.6501 337.0638
1686.0143 334.11926
1688.081 331.90527
1685.4739 332.00607
1684.8074 328.5664
1681.436 330.16998
1678.959 325.93213
1676.6989 323.4574
1678.3118 322.4062
1684.8827 325.26404
1685.9823 325.81055
1682.4434 319.02954
1676.8575 318.0052
1675.935 315.75555
1684.2544 315.45877
1682.7737 313.12262
1682.0061 311.61963
1681.5043 307.7339
1678.267 308.6148
1675.1298 308.49652
1674.2108 306.54315
1673.2012 306.4704
1672.6547 305.69415
1673.9149 300.87347
1672.5371 297.9573
1675.3295 293.44836
1673.8562 293.27588
1665.4584 282.8305
1664.8307 283.15338
1663.6918 284.11563
1661.0707 281.40167
1660.138 283.65805
1660.3201 283.92722
1659.1783 284.4276
1657.3352 283.16122
1656.3713 281.26468
1654.9626 278.67224
1654.0632 284.09787
1654.4331 287.6046
1653.7797 289.74738
1653.088 288.00333
1652.6477 286.8177
1653.2906 283.29514
1650.3094 281.80994
1650.0714 279.8018
1649.933 278.47775
1650.9569 276.6291
1648.3231 274.9327
1649.8413 268.1142
1647.9291 266.9036
1641.4543 268.14508
1638.5349 267.2058
1643.9617 271.8752
1644.5931 272.4905
1644.5845 273.25607
1645.9883 279.67203
1641.7017 281.70477
1641.8557 280.49158
1639.5216 276.35443
1638.5127 274.71283
1636.285 274.75037
1636.0076 273.27118
1632.4716 270.5606
1634.077 269.22263
1635.7012 271.14542
1637.6567 267.28265
1636.2041 265.35544
1634.0896 265.3189
1636.2882 259.35425
1632.3997 258.9582
1630.748 261.13226
1627.6638 259.03604
1624.7473 257.55304
1625.0367 258.6404
1623.1804 260.34433
1620.0259 263.6471
1619.7853 265.95673
1618.2192 260.53174
1608.8484 252.6784
1608.9934 264.50967
1612.9966 267.61407
1614.4546 267.38245
1616.4316 267.32114
1614.0432 264.90527
1614.9055 265.34082
1617.3976 267.30533
1618.5564 271.12445
1620.0961 273.41644
1617.7039 273.57852
1616.3386 272.6391
1616.3989 275.1674
1615.7273 277.09976
1612.5701 281.89642
1610.5767 279.32593
1607.5931 279.62262
1606.8297 277.34216
1607.7537 276.41504
1611.5428 274.61993
1610.6946 272.6631
1609.102 268.5299
1606.694 266.1386
1606.0013 268.35345
1604.4155 268.36472
1596.5966 268.78058
1595.5605 266.93634
1594.7927 268.0933
1588.949 271.16397
1588.2013 272.13153
1589.0503 273.38812
1592.5227 274.2139
1594.1104 274.99445
1598.3246 276.8605
1599.3894 274.77228
1602.436 275.60486
1602.7803 277.77167
1600.1963 280.03284
1600.526 281.347
1595.4326 282.51703
1593.4098 281.65997
1590.3947 281.95483
1590.3198 284.54596
1592.9207 290.60852
1591.5096 292.05585
1588.0171 291.21524
1589.543 294.58282
1586.1569 295.6549
1581.771 292.08215
1582.0493 291.5395
1579.5581 290.233
1576.8339 286.1574
1575.7192 285.35706
1574.2466 287.64294
1569.7804 282.33298
1568.4849 288.79565
1564.8582 288.8713
1563.9036 290.76532
1569.2363 290.95276
1570.227 292.95618
1574.5875 299.20963
1566.3246 304.54395
1565.2756 306.33533
1565.9312 304.60095
1565.3684 300.09882
1564.7067 295.12396
1560.1913 300.0941
1556.3524 298.35788
1558.272 296.63522
1559.4563 294.00192
1558.782 294.49506
1556.4741 294.2188
1557.6094 293.0088
1559.1731 291.64844
1557.8202 292.96307
1555.8723 291.31647
1555.4993 289.0161
1556.9817 286.92188
1557.4453 284.49167
1556.7803 287.1751
1551.4382 287.545
1550.8502 287.6665
1551.3915 284.65512
1553.1152 284.3131
1553.4463 280.73853
1556.4717 278.22513
1551.0552 274.97894
1551.5823 271.62277
1555.55 271.16455
1561.0476 269.62054
1561.9907 267.7362
1561.3726 272.38715
1562.3422 273.1951
1565.0123 270.91992
1568.1377 275.79306
1568.5669 277.87726
1568.7346 279.68015
1565.0906 280.69604
1569.0842 281.21066
1569.1042 280.1663
1569.5488 277.84586
1577.2698 278.63092
1578.5645 282.16223
1580.3755 283.51187
1580.2598 283.46387
1577.8745 277.84662
1577.1774 277.22977
1578.7804 277.15314
1581.2496 275.06747
1578.0837 272.5796
1580.4535 270.41873
1576.4586 267.95358
1574.9867 269.73965
1575.1793 269.5171
1573.4592 265.20782
1569.5638 267.05542
1567.8373 267.0374
1568.7549 262.23822
1572.2753 259.4596
1572.5791 257.70105
1576.2714 259.90634
1578.6814 261.58746
1581.5513 260.09735
1583.5651 264.27457
1590.9476 266.74554
1593.7706 264.3568
1595.9097 259.94843
1598.9214 259.3183
1598.8047 255.06004
1595.3602 255.00641
1594.3657 253.18028
1594.5643 256.08298
1590.6567 257.2398
1589.4636 256.35687
1587.9553 260.45612
1585.5466 260.5277
1581.9463 259.47128
1579.4572 255.99722
1577.9424 257.47983
1575.9437 254.06175
1570.8649 255.99686
1568.8165 257.01508
1566.1992 256.1813
1565.522 260.59756
1564.5116 262.89136
1563.9381 261.89752
1564.0347 258.86093
1559.9229 259.0467
1558.1472 263.5414
1554.6096 262.99393
1547.199 265.30145
1546.8899 266.35626
1547.7246 268.222
1543.2284 274.98877
1546.6206 278.26297
1548.7781 281.87997
1549.0718 283.96008
1547.9792 283.8814
1546.8507 284.98602
1548.1859 287.73083
1548.4194 290.33167
1551.4861 291.64453
1550.7341 293.3715
1552.1002 294.02744
1554.7712 296.9986
1555.9512 298.81287
1554.3169 299.0132
1551.7075 298.09424
1550.0527 298.74548
1547.6536 298.62305
1549.4501 300.4898
1550.6519 302.4596
1551.3253 304.10968
1551.3489 305.62726
1550.834 304.55362
1547.8506 302.69092
1547.7504 303.20206
1544.015 303.6684
1543.0751 303.497
1543.5963 308.61377
1538.7051 313.7621
1538.2509 313.2162
1535.8198 310.46777
1532.896 308.98517
1533.986 306.5763
1538.319 300.94415
1541.8357 302.28983
1539.0747 299.36462
1536.3943 299.84656
1536.9165 298.27124
1535.7732 297.08896
1528.9694 300.62823
1523.4736 298.0138
1527.2532 294.7848
1531.754 293.3065
1532.9595 292.58533
1535.3741 292.6585
1539.0488 293.39487
1540.1853 291.06927
1543.4071 287.00443
1543.6764 285.63623
1541.4839 285.45184
1536.9182 286.24683
1538.5322 283.61523
1540.0424 282.42984
1537.5991 281.21686
1534.8868 279.81708
1536.0903 278.15515
1535.4725 273.96222
1535.2303 276.739
1530.1124 280.08853
1528.9521 282.51535
1526.3275 287.76495
1520.1453 291.20435
1521.7311 293.9165
1517.5281 294.98145
1521.2341 300.6148
1517.9601 304.84335
1518.9558 303.52435
1524.2856 301.31366
1526.5984 302.9328
1525.3729 306.61688
1521.8372 307.30588
1521.1973 307.24097
1521.7698 308.82816
1521.7327 310.73068
1518.8186 309.58588
1517.0829 310.91412
1515.3744 311.70142
1514.125 311.98996
1512.1338 310.83386
1510.9976 313.02722
1510.0042 322.01453
1511.5931 319.20242
1519.2839 315.16873
1520.0449 319.64642
1521.8152 319.1495
1525.8936 316.37698
1527.7103 313.014
1527.9915 312.32263
1525.49 311.8707
1525.7609 309.80768
1527.3635 308.25568
1528.7439 310.07767
1531.0128 311.38168
1535.1636 315.33243
1536.2178 316.31622
1542.1874 320.25317
1539.4194 318.5733
1535.2441 315.55368
1531.8446 318.37964
1532.698 320.40665
1535.9463 324.59796
1539.9 328.7367
1538.6796 332.83838
1542.0822 332.56577
1543.1245 332.49463
1547.3147 330.01215
1549.8176 328.2411
1548.5083 329.62128
1546.7246 331.00623
1545.2677 335.9068
1543.4377 336.91675
1545.5898 337.9077
1549.2408 336.33398
1553.2303 331.50464
1553.1888 331.4157
1550.3552 326.94147
1551.4365 322.7774
1555.9727 319.17474
1558.4978 317.2177
1556.0056 314.88702
1552.949 316.3867
1552.2688 316.5027
1552.0366 317.84662
1549.4065 320.33893
1546.4778 322.5201
1545.6272 319.70453
1547.3616 318.6627
1548.2625 316.8028
1545.8596 314.55237
1547.9697 312.3462
1550.174 311.51147
1554.7397 309.45605
1555.8065 306.3553
1560.2817 305.32803
1562.74 307.75925
1565.462 307.23804
1564.5298 313.08914
1559.4467 314.03958
1560.3728 319.8548
1557.5779 324.0601
1556.2789 325.39456
1557.617 328.90845
1554.9365 333.9638
1554.4772 337.7126
1552.2816 336.6281
1551.1467 338.30515
1550.363 341.55103
1543.9747 344.77817
1549.0447 343.81683
1555.3508 342.26288
1556.2996 346.36688
1552.3135 346.62848
1550.5383 348.61435
1548.4042 351.70172
1550.8545 353.36777
1552.5723 353.3711
1555.7432 351.583
1555.7797 352.9428
1557.6211 354.18054
1555.5701 354.24155
1551.2407 354.11554
1548.6229 355.01636
1544.3186 352.61475
1545.1422 356.05255
1546.9299 357.65927
1546.9404 361.70734
1546.492 363.0051
1547.3077 365.97778
1547.2769 366.70392
1546.415 369.2696
1545.3098 372.18237
1547.6658 374.6302
1547.4072 376.70563
1547.5171 378.4449
1548.4362 379.034
1551.7235 378.2166
1552.5122 379.62292
1550.9817 380.87048
1551.488 385.58752
1555.1229 382.75232
1557.2551 385.2944
1560.4146 381.88513
1559.5344 380.48346
1558.9814 377.95844
1557.4878 377.374
1555.7454 377.45764
1550.8218 376.2826
1550.3905 374.2451
1551.6953 373.46912
1549.9144 370.83234
1549.968 369.1917
1549.7507 364.17773
1549.6902 363.88824
1551.8002 365.07126
1553.6309 363.40387
1552.6362 361.84567
1551.1985 360.91342
1553.0542 361.75534
1555.1245 360.79956
1557.3267 360.31024
1557.1926 362.4441
1557.1538 366.04245
1554.8752 365.7109
1555.0339 369.86887
1556.5587 373.41064
1558.1123 372.51093
1559.6672 371.6057
1559.7562 373.59778
1562.5267 375.05396
1565.1836 378.72003
1565.9238 380.26154
1564.9473 381.40045
1565.1938 382.8757
1570.3833 387.27182
1572.1132 388.89902
1573.0408 392.0
1567.7008 393.2213
1566.5814 393.11444
1566.8599 393.0566
1567.1908 390.61728
1568.4122 388.02927
1565.5643 390.12817
1563.1555 388.58594
1561.4822 393.40778
1563.4341 393.37665
1563.759 399.11703
1562.8655 399.40625
1560.16 399.66418
1560.8982 401.1648
1558.0668 402.34006
1557.8276 403.6959
1559.3381 403.88647
1559.83 405.39844
1551.7559 410.6432
1548.6615 408.72437
1552.5743 406.4449
1554.671 402.74084
1556.2905 398.63452
1556.4526 397.24176
1553.1255 395.4366
1552.79 395.93967
1550.4894 395.58612
1547.987 395.96625
1546.98 397.76636
1549.0447 394.922
1549.4601 394.4037
1554.1936 389.5451
1550.8553 386.6998
1549.8971 389.07227
1545.77 389.99008
1541.4526 393.26056
1538.1603 392.52258
1540.5635 386.33472
1545.7538 383.26038
1543.9979 382.27472
1542.3811 380.42343
1540.3066 382.13132
1539.2234 385.3548
1536.8816 387.89255
1533.9553 392.23618
1533.0435 390.4428
1528.8146 388.43286
1528.0161 386.15417
1529.19 381.70538
1531.4167 377.92856
1534.6577 380.1562
1538.5942 375.53366
1537.9731 375.30255
1534.351 366.3557
1541.6353 367.9118
1543.2654 364.3346
1539.9625 362.15222
1542.2249 358.8602
1541.6227 358.00922
1541.8198 355.00543
1538.9159 357.54477
1537.9747 357.02206
1537.5468 357.99936
1533.1108 358.7478
1535.6416 355.72653
1533.7786 351.96774
1531.0986 349.99493
1529.3376 348.4636
1527.1344 349.36353
1525.2742 348.36548
1525.4796 349.9646
1526.2745 351.8731
1528.7903 353.56638
1528.1338 353.72028
1527.103 357.13617
1527.6249 360.337
1530.4237 358.3623
1531.9153 360.7385
1535.0281 362.41925
1534.3937 363.97983
1535.2191 364.48618
1533.4404 367.08167
1530.4541 370.86133
1527.2843 369.4074
1526.9907 373.85834
1525.5471 375.53705
1520.2788 372.84543
1518.0449 369.4887
1517.6412 364.284
1515.8875 364.12842
1518.2715 360.4607
1516.7466 358.81503
1519.2903 352.0001
1522.582 350.25482
1522.2654 347.81256
1519.3717 346.27045
1521.3325 345.71323
1521.542 345.0146
1524.7168 344.76108
1523.3177 341.96323
1523.081 341.3661
1523.6033 341.4582
1527.6345 339.28268
1531.006 335.92755
1528.3761 340.3
1531.0692 341.51752
1531.73 344.05298
1534.6033 346.9576
1536.0176 346.18164
1537.5066 347.28354
1538.4557 347.00928
1539.2502 345.39694
1540.3335 342.5671
1541.345 343.32562
1543.0405 341.61005
1541.7145 339.2182
1538.8494 341.40912
1533.4143 336.04892
1529.349 332.64127
1527.585 330.18774
1529.1409 325.76007
1527.1678 325.59158
1525.0552 323.53012
1523.1157 326.19806
1517.2501 327.05585
1516.0443 325.18146
1516.7935 328.78128
1511.9314 328.67523
1507.9784 330.98978
1507.1375 335.25122
1508.745 337.03903
1511.0061 334.68356
1511.7698 334.74323
1512.1654 334.51282
1513.1592 331.6305
1518.6028 332.52032
1519.4668 331.50705
1522.8081 335.91797
1516.648 336.15845
1515.1299 338.8803
1515.6539 343.0211
1511.406 341.5681
1509.2932 342.86774
1507.2394 341.7104
1506.3844 343.62558
1506.1378 345.5063
1510.421 345.4741
1509.6803 346.36353
1511.2001 351.42755
1513.1439 353.33868
1511.364 358.40125
1510.9635 359.08066
1511.1896 363.69427
1512.4104 365.16858
1512.7366 368.12842
1509.9132 367.61093
1510.092 372.04465
1513.6904 371.40317
1513.0642 373.53647
1514.3423 375.9146
1513.4495 376.52838
1511.2335 377.448
1513.6284 376.87695
1514.5447 376.25
1516.4973 379.23755
1517.566 376.2762
1519.8252 376.20886
1520.9175 379.60614
1521.4751 381.3125
1519.4058 381.8275
1516.6758 383.73447
1512.881 383.85458
1514.7295 384.9107
1515.4387 385.9336
1517.9282 385.61838
1516.7936 386.61578
1518.2681 389.62485
1517.1183 391.63782
1518.3462 390.87326
1519.7603 390.99414
1522.9633 390.36945
1523.1738 387.66623
1527.8546 391.57056
1525.305 393.61362
1522.2743 393.65295
1520.97 392.47565
1520.5912 392.80664
1519.8223 394.0124
1518.9241 394.2152
1517.7118 395.80707
1519.7711 397.9782
1520.6998 398.92047
1524.6721 397.0997
1526.7839 393.38718
1531.1897 395.79907
1532.0625 395.5586
1534.5156 395.0903
1536.9468 397.32068
1538.4297 401.02438
1536.1301 405.19977
1535.2285 404.41904
1527.8646 400.1556
1527.6302 399.8087
1529.968 404.4223
1531.2172 408.9643
1532.446 411.84177
1536.3632 411.0461
1538.9453 414.95276
1539.3179 408.10956
1541.5164 405.03305
1542.4373 402.2486
1542.0101 401.79172
1546.3777 400.02765
1545.817 406.7612
1546.1528 410.82663
1547.862 412.6626
1545.6208 414.8676
1541.8441 418.71777
1545.1266 420.90854
1545.8344 422.9665
1549.5155 426.18988
1548.6729 423.93622
1547.1654 422.03748
1548.8335 421.2583
1552.965 413.42297
1556.0115 413.74243
1556.5125 413.4847
1557.1826 412.9782
1561.2244 412.3641
1562.1775 411.63132
1564.0095 411.1151
1565.3672 408.44492
1568.714 403.28452
1569.5007 402.4133
1571.98 398.67267
1577.9836 401.609
1581.7303 399.59467
1580.1699 395.68402
1580.2638 395.35663
1582.438 398.04282
1585.7759 398.19763
1589.169 395.57993
1592.0887 399.8166
1593.2294 400.9845
1596.6521 400.86728
1599.4393 404.6854
1602.4019 405.52487
1603.4055 407.3559
1605.3289 409.22095
1603.6873 412.1452
1601.6943 412.52292
1598.3418 417.28036
1594.0995 417.84262
1595.8164 420.40198
1593.2163 423.45892
1590.6433 420.0201
1592.7021 415.87424
1592.9606 414.9096
1592.8215 413.9309
1590.5339 408.73767
1594.6034 409.05014
1598.0259 406.45273
1594.3706 404.50998
1594.122 404.84677
1589.5032 402.88852
1589.0133 400.4782
1587.04 400.79584
1588.5122 403.41647
1588.6943 405.6631
1588.1759 405.67084
1588.4939 409.68225
1585.4305 409.8847
1583.386 405.95615
1584.7067 402.61264
1581.2946 401.58002
1578.9843 403.3692
1572.3062 407.76575
1570.0453 409.57684
1568.4668 412.00363
1565.6726 421.03278
1567.3354 418.34082
1569.8856 412.70615
1573.0566 413.9986
1573.522 417.00482
1576.0698 413.7044
1579.2852 410.54587
1580.6538 409.31726
1582.3301 410.19565
1582.946 415.66394
1579.9727 416.61548
1579.1025 417.7157
1581.12 419.92194
1578.6926 420.64917
1575.8972 419.7287
1575.9509 420.12518
1572.2183 422.07114
1571.6403 423.06873
1565.1324 423.74762
1564.6533 421.03143
1563.2434 421.9814
1561.7163 422.48248
1556.5122 419.04834
1556.874 423.77206
1557.1805 424.80978
1558.127 424.8767
1557.6249 429.79175
1557.7792 430.38257
1558.2184 430.58603
1561.5815 429.7619
1563.7153 429.51205
1562.9373 428.39084
1561.8575 427.88373
1561.5117 425.02927
1564.7876 424.53094
1569.0781 426.5847
1571.3855 425.0121
1574.9248 424.94586
1578.5261 426.15695
1574.9297 429.50616
1572.1743 430.65112
1571.9375 434.9068
1573.7823 434.2225
1579.0941 436.59857
1579.9265 438.34558
1586.0602 435.76837
1591.698 435.18488
1589.149 433.26718
1587.2102 433.61517
1586.3584 432.85614
1587.143 431.15805
1588.156 430.4841
1587.7549 429.40732
1588.1211 427.72665
1584.8843 427.52594
1581.3364 425.53317
1579.0541 424.18832
1580.1204 422.31494
1580.8658 421.26172
1581.2344 421.58472
1586.2753 423.60834
1587.531 423.55713
1588.3196 424.58786
1589.6736 425.08453
1589.8596 429.6665
1593.8455 426.28247
1596.6069 426.65585
1596.8705 430.47577
1599.4008 428.11945
1603.99 432.21222
1604.9706 434.48926
1604.2869 428.93762
1604.0569 426.6126
1601.9879 421.9096
1606.6 420.3392
1609.0354 415.68274
1612.3164 412.72925
1611.0084 408.12665
1607.1045 407.46692
1605.0101 407.63007
1606.9202 405.9431
1606.6035 405.14056
1606.387 402.20505
1604.8059 402.2511
1606.3499 397.08176
1608.9221 394.47702
1617.7317 396.97006
1617.012 402.05856
1619.428 400.49005
1618.3242 396.0044
1621.3477 392.7699
1622.7441 389.86127
1626.3674 388.71863
1629.6008 388.76117
1631.062 386.03625
1631.5641 390.5409
1634.6587 390.5404
1636.5681 386.92017
1638.1836 385.99094
1637.074 383.71472
1636.2078 382.46106
1637.5991 380.27844
1638.4829 379.30133
1640.5361 378.78058
1640.8772 379.72925
1641.5164 380.6681
1641.2231 385.64575
1643.2019 386.88513
1645.1239 386.55478
1645.2948 385.58102
1644.1902 384.62262
1651.5774 377.7796
1649.6843 371.1701
1645.3839 372.73285
1640.2023 376.05685
1643.1676 371.7989
1640.1996 365.63498
1639.2639 364.62354
1638.2051 361.693
1644.1141 360.98438
1644.8535 362.34167
1645.4746 363.2005
1645.0305 364.32358
1643.831 365.3095
1644.5334 365.1651
1646.4614 365.72437
1646.9744 362.11676
1643.625 356.24854
1643.355 353.9574
1642.9891 351.28586
1646.5288 349.4624
1643.7234 347.6059
1644.7664 347.4697
1640.2227 348.35516
1641.4639 347.51666
1639.7865 339.18512
1639.7637 337.30344
1640.4995 333.1238
1643.1113 335.2307
1645.3545 335.76172
1643.8774 337.6055
1643.9851 340.03748
1645.0449 340.2677
1646.3552 343.64398
1646.3588 345.18158
1648.1909 346.4619
1648.4128 348.10263
1650.7692 347.16687
1651.2935 352.9176
1653.4818 357.2235
1655.6614 357.3724
1655.0337 366.00815
1651.145 368.27292
1657.2944 366.9421
1658.5488 366.08984
1664.1812 366.6402
1668.1005 361.80774
1668.4088 356.4614
1667.7554 352.82404
1667.7219 352.99225
1670.5239 359.56793
1671.8862 359.9038
1670.6007 361.5852
1668.6437 362.3161
1668.4043 368.59283
1659.8953 368.02917
1658.63 367.59558
1657.2705 368.39252
1657.6357 372.52655
1653.4563 373.1964
1653.5386 381.0863
1656.0723 380.56848
1656.6699 381.9742
1655.8774 383.37952
1658.5515 384.81555
1660.0696 386.56378
1661.4753 384.8233
1660.1238 380.64352
1663.7622 376.01227
1665.4004 373.27023
1666.6638 374.89545
1668.1184 377.9504
1669.4337 374.38513
1670.2712 371.45
1672.0209 375.09372
1672.4751 376.58835
1671.5933 380.59412
1673.1953 381.19077
1673.9954 381.10654
1676.8792 377.7546
1682.1199 379.7793
1682.21 379.69293
1680.1555 373.99826
1675.5789 372.1886
1674.2418 369.48395
1673.8009 366.17395
1676.5049 366.55966
1680.2532 364.34125
1681.7306 368.86984
1685.2166 367.32996
1686.6096 370.3479
1691.607 370.45605
1692.595 371.71225
1688.5117 373.76755
1690.1506 377.51917
1690.189 377.9608
1688.2858 381.6787
1687.2511 381.7441
1684.575 381.67133
1682.3018 381.62985
1682.7445 383.8905
1684.2001 384.58264
1684.4619 383.78488
1685.4296 384.1029
1687.5468 386.1114
1687.597 386.2192
1687.1053 386.1803
1686.2157 391.7888
1689.2158 393.03418
1690.5596 395.14117
1688.1064 396.41425
1688.0405 401.10248
1688.2529 404.0023
1683.7563 406.96515
1682.0173 399.03122
1684.1143 398.19366
1682.1211 394.03818
1680.9177 396.7917
1679.7131 396.83948
1674.8809 397.24298
1676.3428 404.18076
1674.5813 402.7242
1671.8906 399.3496
1670.1603 398.83868
1671.9604 392.81055
1671.8036 387.65778
1672.7509 385.91132
1670.5566 388.5611
1665.4475 385.879
1662.8201 388.07492
1665.0211 389.43683
1664.8745 393.2474
1669.5906 399.59238
1668.8916 401.7301
1665.6008 402.4674
1665.1536 405.4381
1664.6483 402.30286
1659.5929 398.22797
1656.4714 399.24985
1658.1433 401.29828
1660.4677 403.5127
1661.2443 406.83337
1658.642 405.10004
1658.2466 406.81372
1658.8704 409.2412
1662.2578 415.89462
1667.9565 417.5227
1670.2969 419.54575
1672.2903 414.75604
1670.5239 412.8879
1670.546 412.2346
1671.1514 408.34482
1671.969 410.36243
1675.341 411.23337
1677.3812 413.31427
1678.9672 411.45618
1681.2651 411.5515
1680.9895 413.0277
1685.6877 414.4023
1686.459 416.796
1684.984 418.44675
1683.2206 420.13007
1681.6777 421.91452
1677.9712 424.01904
1676.893 424.95923
1675.2603 424.52856
1674.3605 426.3908
1675.0271 428.327
1674.5825 430.12204
1676.1564 431.78207
1678.2675 430.41443
1676.717 431.77936
1678.09 437.94275
1679.2391 438.5926
1674.1069 443.64975
1673.1274 441.1679
1671.5217 439.7414
1672.5017 442.68054
1670.3644 443.0772
1668.78 442.1861
1668.9482 441.39136
1668.7864 439.20648
1668.1809 436.59738
1668.6251 435.3208
1673.1206 432.0647
1673.0292 431.8872
1668.2437 425.5912
1666.7269 425.80225
1664.1583 426.71262
1663.9585 429.3639
1662.9146 428.273
1659.5535 425.0571
1658.6487 427.28354
1658.9314 427.64337
1657.9728 429.24542
1657.4991 429.5659
1652.3278 427.05905
1650.6244 422.62842
1648.5007 422.39246
1649.266 419.0471
1651.3157 420.6543
1659.7615 419.64148
1659.5935 417.79257
1660.5261 417.22922
1661.2853 416.978
1659.4219 412.80124
1657.235 410.25717
1655.5923 405.50314
1650.6565 406.40143
1649.721 402.77158
1645.4857 402.83185
1649.0173 397.06967
1649.8745 396.1986
1647.9956 393.43658
1649.7561 392.45575
1651.3219 396.07516
1652.6996 393.84393
1656.3394 389.52094
1656.8408 389.59506
1655.5325 388.41986
1653.093 389.925
1651.6411 390.73386
1648.3152 388.0262
1646.2153 390.51794
1645.5333 390.0611
1641.8005 389.2911
1641.7017 396.7898
1636.2976 397.4261
1636.2354 399.84485
1636.5693 404.04028
1635.352 403.98645
1633.8713 408.32483
1629.1431 406.39154
1632.4725 403.14343
1635.0503 403.7199
1633.8284 399.01428
1635.924 396.1329
1634.4741 394.1583
1630.8423 394.95703
1629.7944 397.0155
1628.9883 395.22955
1626.0181 393.5642
1623.8025 400.40268
1628.4175 399.75815
1630.0933 399.18665
1629.0565 400.33212
1630.602 402.1295
1626.9409 402.52484
1625.3496 409.34235
1625.308 410.18576
1623.4697 409.26733
1620.1772 406.47974
1616.0774 408.08154
1615.9327 409.0285
1613.779 413.54453
1618.2532 412.05573
1620.0369 411.0125
1620.1809 411.48886
1622.0055 412.31897
1622.0679 414.6101
1622.2379 415.1198
1625.771 414.21362
1626.6177 411.27194
1627.3291 412.84946
1627.7874 416.4598
1627.2107 417.6274
1625.8145 418.18173
1622.9985 420.37396
1616.05 420.22235
1614.157 418.7352
1613.4358 419.9032
1613.3097 420.05322
1611.4109 423.4547
1611.9529 425.6566
1612.3057 425.82565
1614.3662 426.14084
1611.7861 428.35812
1610.0403 433.99567
1618.5078 434.91904
1622.5908 443.11652
1625.6322 443.88898
1627.2872 444.66162
1630.7156 443.1301
1635.2612 447.6035
1635.9207 442.19382
1635.4343 441.90878
1628.5055 438.08447
1626.9058 436.61578
1631.8274 431.1477
1628.0175 427.49664
1628.3528 432.8127
1626.2583 435.7889
1621.1263 432.11414
1619.967 431.34637
1618.5748 433.21124
1617.3403 432.95465
1615.7242 430.57745
1621.3013 424.5465
1623.2891 424.4675
1631.9177 423.938
1629.556 421.00327
1631.6222 417.75946
1630.9812 416.5578
1629.8539 411.52524
1632.8904 411.23874
1633.8467 410.56442
1636.5048 410.102
1637.0479 407.35992
1642.215 407.86523
1644.4131 406.47266
1647.3306 408.30466
1649.1576 407.68683
1653.475 410.13864
1652.0724 412.8003
1651.0564 414.8853
1649.1685 411.9498
1647.3557 412.452
1643.207 412.6825
1643.6361 414.83395
1643.028 417.457
1642.3036 420.60776
1640.3722 421.53952
1639.4592 416.49924
1637.0262 418.8012
1634.9805 422.36374
1632.81 422.7263
1637.3228 423.10873
1639.8384 425.9522
1644.4995 428.92075
1645.7307 433.28915
1645.0732 434.31085
1644.6099 434.81198
1639.3966 431.95258
1639.3993 436.67822
1637.446 438.3061
1638.2979 440.50403
1639.945 443.84445
1642.9098 445.9312
1640.313 444.6345
1641.7891 439.193
1641.9232 439.18634
1644.3812 436.10986
1647.3286 438.00665
1648.0492 439.5891
1645.6353 440.40637
1647.5607 442.3142
1649.1697 442.16095
1648.2119 439.4748
1651.2515 437.9753
1654.5679 437.7407
1655.5105 438.16486
1656.8877 437.10825
1655.6606 435.65906
1656.6033 431.42792
1659.5197 432.49463
1662.586 434.95554
1665.5308 432.4859
1665.2659 435.13547
1664.2637 438.0498
1664.3232 439.75623
1664.7617 441.2186
1664.3066 439.8878
1661.7626 439.33664
1661.0325 441.64423
1659.8732 441.88925
1654.5061 440.82275
1652.1958 444.31882
1654.0408 445.5316
1655.6776 450.8237
1657.9855 448.96777
1657.4319 447.05817
1659.3408 445.2916
1659.6737 444.004
1661.1649 443.8042
1662.654 448.67023
1662.7434 449.44284
1663.8025 449.48822
1666.1277 446.06335
1666.916 446.4572
1666.9352 447.78412
1670.3076 447.96075
1667.7908 454.06226
1669.7953 457.4052
1665.0623 452.8657
1660.9463 455.28284
1659.8123 454.64304
1657.6763 455.1832
1651.7291 452.72394
1650.0327 453.23578
1643.326 457.6095
1644.5964 449.35522
1640.15 448.68286
1637.3961 449.2768
1636.5481 449.00555
1635.7921 448.79633
1632.5498 451.7155
1630.9928 452.9094
1622.252 447.03552
1628.5359 454.08676
1627.3502 456.2763
1623.4016 457.67346
1616.3511 461.7213
1609.6216 461.6729
1610.1451 464.4227
1609.4463 465.89877
1608.0134 466.6809
1608.6549 468.81564
1608.5845 470.2707
1605.3853 468.49265
1603.6838 468.58652
1603.6316 470.51562
1600.7887 472.59924
1602.1667 474.5418
1602.2722 475.90192
1601.8762 477.52878
1605.4727 479.1008
1605.7183 479.581
1607.1893 481.52573
1610.1266 482.07797
1611.4504 481.83118
1612.9614 484.26093
1613.3885 485.10114
1611.1782 488.12006
1613.696 490.3316
1610.2769 492.261
1606.7548 492.3131
1608.2069 490.02924
1608.7539 486.50482
1609.0034 485.67636
1607.9216 486.99768
1605.0535 489.42828
1603.3804 493.1812
1606.3885 493.9222
1607.3499 494.51636
1608.8281 497.15424
1610.7592 494.6854
1615.9874 497.99487
1618.054 496.2685
1621.8325 496.89056
1623.5787 495.38727
1626.4878 496.83273
1624.0189 501.57214
1621.2572 503.96173
1618.544 503.3593
1613.625 505.04218
1609.5723 507.7882
1608.3203 505.54413
1605.875 502.37988
1604.3165 503.6192
1603.8699 503.8203
1604.2437 504.4754
1601.7078 506.12216
1596.8129 507.69257
1597.1235 511.44214
1594.7567 511.95056
1592.9716 509.44916
1593.7186 508.51678
1592.9978 505.87152
1593.6555 501.10532
1594.2782 500.7223
1592.803 499.64514
1594.1481 503.59543
1598.6079 504.76733
1597.7909 503.4887
1602.3016 497.86655
1604.7406 497.84885
1602.105 497.40613
1601.8843 492.59564
1601.1058 491.17133
1597.2241 491.63083
1596.0488 485.68552
1600.42 486.28268
1602.7931 485.8325
1599.374 485.23163
1596.8856 481.29074
1597.9761 476.55927
1595.898 480.7652
1592.131 484.66382
1593.1953 485.2585
1592.6438 489.3127
1593.4971 492.9039
1591.2393 491.47995
1587.7908 489.80878
1586.6613 489.0522
1585.5488 491.0461
1583.677 493.57587
1585.562 494.28406
1587.468 496.05942
1587.887 495.47833
1588.9862 496.30685
1587.049 497.88693
1583.6661 498.90668
1586.2343 500.64417
1585.0007 504.2162
1585.7943 508.84198
1582.3645 502.7141
1582.275 498.74142
1575.9353 498.24753
1572.7284 499.8322
1573.1747 503.06113
1578.5632 507.72116
1580.0282 506.05255
1581.0688 509.4621
1585.2568 509.24933
1589.7936 516.7091
1591.5544 519.1338
1590.5964 519.94965
1587.9171 520.1461
1586.9136 522.74713
1584.5618 517.73315
1582.7543 513.4888
1582.8673 513.02734
1582.7218 513.47424
1576.6362 512.17175
1576.5713 512.37866
1574.314 517.17456
1576.366 518.42224
1578.3398 518.9124
1575.0709 519.1018
1573.8955 519.8824
1573.6145 519.61316
1573.2708 520.54913
1572.4294 520.4292
1570.1526 523.2675
1568.5404 523.6212
1566.1914 520.4327
1565.1987 518.11707
1564.2727 515.713
1568.9191 515.3874
1572.6174 517.77094
1572.3998 514.6152
1568.9744 511.90976
1569.2197 510.50583
1570.4886 507.08298
1562.7964 507.45673
1562.792 508.77487
1561.0376 508.597
1559.4066 514.3897
1557.7053 513.23285
1557.3147 510.24207
1555.7 510.5641
1554.5593 512.0259
1550.1559 513.9223
1547.169 518.06274
1544.7258 518.35223
1549.8865 522.2184
1555.75 522.7874
1556.9065 517.7529
1553.9613 517.7517
1555.7267 516.96234
1556.9396 517.4337
1557.9631 517.97925
1562.77 519.2804
1560.3047 521.61145
1560.3221 524.0449
1558.3972 525.3998
1555.0486 527.1382
1556.2979 527.6941
1561.1693 527.9639
1562.5149 526.2487
1562.4739 529.6136
1562.228 531.43884
1566.3796 532.7615
1569.4121 534.8413
1568.6461 535.4057
1571.5183 540.4772
1574.3555 536.229
1579.9802 540.44806
1581.8763 541.6579
1580.6648 534.0593
1573.5294 531.7486
1571.2958 531.5426
1571.4224 530.28735
1572.3123 529.74146
1571.888 526.8904
1576.7175 529.1277
1578.3159 523.9525
1579.4174 523.781
1580.1338 524.3671
1583.5396 522.9898
1584.9211 525.0205
1585.1017 526.91547
1587.4808 526.7499
1589.5581 526.33563
1593.7078 526.866
1596.0427 526.3234
1592.2891 524.64124
1587.7798 527.0237
1586.7905 528.74023
1582.0946 528.64514
1581.1079 529.3427
1585.1796 532.9491
1587.3013 535.4647
1591.907 537.56885
1593.8547 534.3583
1595.4343 535.52356
1601.1008 531.33044
1605.7578 526.98303
1607.6448 526.2838
1609.6274 522.12
1608.612 521.3696
1605.5656 520.29755
1604.8041 522.23
1603.0522 522.76733
1599.8362 519.26874
1601.304 517.20197
1606.5582 515.871
1607.9763 511.561
1611.2314 512.2986
1612.4132 512.8966
1612.3536 510.13217
1614.5966 509.40768
1616.1898 512.2604
1614.7765 514.613
1615.0247 516.3097
1611.1907 516.7007
1612.9685 522.28955
1615.7473 521.4453
1616.0549 521.47864
1616.2153 520.30927
1620.9084 514.2992
1621.3591 511.25604
1623.8087 510.27332
1624.8066 510.44525
1624.6213 508.66656
1625.6478 506.90387
1625.9907 507.57532
1626.8687 509.42136
1629.0989 508.71786
1629.5688 509.2968
1631.137 507.221
1629.111 504.41306
1626.6727 505.15533
1626.6443 503.17914
1628.402 500.00684
1629.0438 500.3595
1631.533 500.99374
1633.7749 501.9784
1633.6249 503.80786
1636.4131 502.82233
1636.4312 501.11276
1636.8113 500.54852
1638.3176 499.65707
1636.7195 498.60394
1635.0054 497.06464
1635.9406 496.61224
1636.6758 497.94247
1638.092 496.5998
1641.8302 496.18466
1643.8391 494.5005
1641.4938 492.3541
1638.094 492.82745
1633.3813 489.8932
1631.3499 490.21786
1627.0469 487.19223
1628.384 492.42502
1625.2366 492.00763
1621.2344 494.0962
1620.9019 494.34177
1617.5616 493.56488
1615.9487 489.73798
1617.6965 486.2595
1615.6036 485.60117
1616.2916 484.30743
1617.9777 481.9555
1617.6168 479.48047
1617.1582 478.9221
1614.9131 478.2354
1612.5046 473.41827
1619.0219 475.24255
1621.6177 477.1051
1621.1403 478.41025
1620.2954 478.43103
1618.3613 482.14148
1622.0662 482.49402
1621.4988 481.18262
1622.9875 479.91708
1624.8694 479.06955
1626.1945 476.69757
1624.0715 475.5105
1623.4486 470.09143
1622.2928 469.33856
1617.2653 468.83347
1620.0054 465.12976
1618.2026 463.60107
1619.3333 462.97995
1624.0176 460.5741
1625.5325 461.35486
1628.6643 464.8178
1630.8867 462.33917
1631.7433 461.72314
1631.7135 464.50238
1634.3641 463.80084
1636.8855 462.59656
1636.2826 461.23434
1636.643 460.63623
1637.3832 457.6643
1646.0044 461.22327
1649.4751 462.77118
1654.2653 463.69086
1656.7573 458.4076
1658.1163 463.75717
1661.9946 462.6607
1662.911 460.0357
1666.3258 462.23328
1663.6062 466.47394
1663.0211 468.92804
1662.0417 468.64474
1658.4229 471.5114
1654.872 470.94846
1653.3352 470.68808
1654.8641 469.08002
1653.9307 465.6451
1650.2429 467.75952
1652.0569 472.46582
1650.5709 473.28748
1649.9116 474.17426
1650.4463 474.75925
1654.0348 478.3723
1654.7046 479.40485
1649.5408 480.34372
1645.8829 479.6532
1646.6595 480.60312
1648.5103 481.87762
1648.8812 482.84387
1648.3622 488.00787
1647.4111 486.7319
1643.2705 486.33716
1637.7112 483.94135
1634.401 484.5952
1633.7166 480.5169
1637.0925 480.2323
1638.8075 481.87244
1640.6316 480.9187
1640.9884 479.96796
1641.604 476.83466
1642.7927 475.2783
1644.3168 471.34564
1641.8451 472.58237
1638.5298 471.92355
1641.0603 473.88535
1638.149 480.1928
1635.2241 478.4121
1633.2162 477.76697
1630.2405 481.1808
1627.6368 478.65546
1630.8108 477.3064
1631.1796 475.11908
" />
</g></g></svg>
