<?xml version="1.0" encoding="UTF-8" standalone="no"?>
<!-- Created for Inkscape (http://www.inkscape.org/) -->

<svg
   xmlns:dc="http://purl.org/dc/elements/1.1/"
   xmlns:cc="http://creativecommons.org/ns#"
   xmlns:rdf="http://www.w3.org/1999/02/22-rdf-syntax-ns#"
   xmlns:svg="http://www.w3.org/2000/svg"
   xmlns="http://www.w3.org/2000/svg"
   xmlns:sodipodi="http://sodipodi.sourceforge.net/DTD/sodipodi-0.dtd"
   xmlns:inkscape="http://www.inkscape.org/namespaces/inkscape"
   width="3200"
   height="800"
   id="svg2985"
   version="1.1"
   inkscape:version="0.48.1 r9760">
  <defs
     id="defs2987" />
  <sodipodi:namedview
     id="base"
     pagecolor="#ffffff"
     bordercolor="#666666"
     borderopacity="1.0"
     inkscape:pageopacity="0.0"
     inkscape:pageshadow="2"
     inkscape:zoom="0.35"
     inkscape:cx="1600"
     inkscape:cy="400"
     inkscape:document-units="px"
     inkscape:current-layer="layer1"
     showgrid="false"  />
  <metadata
     id="metadata2990">
    <rdf:RDF>
      <cc:Work
         rdf:about="">
        <dc:format>image/svg+xml</dc:format>
        <dc:type
           rdf:resource="http://purl.org/dc/dcmitype/StillImage" />
        <dc:title />
      </cc:Work>
    </rdf:RDF>
  </metadata>
  <g
     inkscape:label="Layer 1"
     inkscape:groupmode="layer"
     id="layer1"> 
     <g>
<path style="fill:none;stroke:black;stroke-width:2px;stroke-linejoin:round;stroke-linecap:round;" d="M 
1523.5542 347.29208
1522.6404 350.24078
1523.6384 344.50647
1519.5658 345.2384
1519.1965 349.35983
1516.4299 350.6778
1515.6597 348.226
1512.8208 346.71716
1515.966 343.20428
1516.2488 338.0642
1520.0154 340.14984
1522.9146 342.14575
1525.2007 338.7542
1521.0431 336.2115
1525.4905 333.5737
1529.674 336.7138
1534.1873 337.00018
1533.1885 331.9954
1528.4393 329.8523
1529.2161 325.29065
1529.8135 321.80994
1523.8296 327.51544
1521.6708 331.13702
1518.023 333.1084
1519.3081 327.26422
1524.9573 324.0829
1525.6848 320.15012
1525.5168 315.63116
1527.3811 310.7344
1530.8383 314.47458
1530.691 318.644
1533.7529 317.27356
1536.0677 315.04333
1535.9995 319.24133
1538.9563 318.34253
1539.4016 313.8233
1542.231 311.60754
1543.6453 314.81943
1545.4535 318.58618
1544.3125 322.58496
1547.2817 321.04782
1549.7944 321.3575
1551.1646 319.16876
1548.959 316.41998
1547.3218 313.57227
1546.5958 310.15402
1543.9725 308.76733
1540.9598 307.41638
1538.1594 309.55966
1534.5729 311.2871
1530.787 308.09235
1533.9583 306.24466
1537.3645 305.5144
1540.1815 302.00604
1534.0771 297.01926
1531.5796 302.52438
1536.698 300.46008
1539.4998 293.43863
1541.7887 287.4057
1545.3665 285.30685
1548.9431 284.71875
1548.6489 280.312
1552.6335 276.40518
1558.6404 276.5622
1562.8501 276.66492
1557.4584 271.00208
1563.675 265.6784
1563.6085 272.01282
1567.0662 276.40442
1570.9136 273.8436
1570.8926 279.27203
1570.6791 284.112
1564.7395 280.24396
1566.2378 283.60687
1565.1014 287.85004
1567.2004 291.6588
1565.9528 295.22006
1567.0225 298.2788
1569.5477 300.3335
1571.1372 298.66547
1572.7095 296.22977
1570.574 294.37097
1571.4185 291.48602
1569.4431 288.2939
1575.2986 282.81308
1573.905 287.83777
1575.773 291.78015
1577.9088 295.0356
1576.7573 297.88208
1574.2961 299.9834
1578.2751 301.52933
1584.5586 301.16937
1587.3774 295.99307
1591.2089 297.73938
1590.4424 292.0775
1593.9856 293.8238
1597.975 291.74362
1601.1345 288.38715
1604.5903 291.01285
1609.7302 291.48535
1611.0046 287.45038
1609.6443 284.5001
1612.4865 281.6
1614.3994 278.1844
1614.914 283.027
1616.0391 286.6488
1617.4705 290.09152
1614.0101 289.22968
1621.6115 290.26532
1625.9958 290.6731
1627.4927 286.634
1630.6897 289.6423
1630.5677 293.7194
1636.9194 298.8445
1642.0115 297.1217
1639.8987 296.54385
1637.7493 293.76703
1634.874 292.7812
1634.6072 287.86194
1631.4414 284.9516
1633.7194 281.46216
1636.1141 275.5403
1639.7622 276.55777
1637.1338 280.75943
1639.3932 286.18417
1640.7812 291.97946
1644.7197 289.5424
1646.1174 293.51355
1643.5018 295.43506
1644.5236 299.39954
1641.8441 301.40057
1646.6334 304.4288
1646.5947 296.9438
1648.437 299.04343
1651.0453 300.6713
1653.0835 303.1079
1656.5818 303.89053
1654.8481 308.1129
1650.3864 309.437
1658.3795 310.30295
1659.2922 313.9338
1654.7605 315.96844
1654.9647 321.66797
1656.3164 325.93585
1658.9869 328.305
1660.2875 332.59232
1656.8229 334.25647
1658.0392 340.3561
1661.9441 339.04877
1662.5936 336.16315
1663.4404 329.37885
1661.1202 322.75586
1660.4073 318.42072
1663.3848 314.2359
1666.7041 315.5979
1666.049 320.14923
1665.1772 324.84677
1668.653 327.52017
1667.4543 331.72028
1664.5898 333.9956
1668.7197 335.38354
1666.2635 339.31033
1669.7153 338.7009
1673.1954 338.12234
1676.4459 340.839
1673.2297 345.82404
1675.7942 348.82703
1678.3413 345.36957
1681.0509 342.39987
1684.8225 340.26263
1685.5941 337.21326
1684.3833 334.59528
1681.0568 337.74347
1678.1167 336.2839
1676.2598 333.82596
1672.0226 332.0181
1675.5533 329.93756
1673.0702 326.3368
1675.6188 321.88852
1670.5746 322.60022
1671.385 318.47018
1670.9497 315.07407
1670.9236 312.1332
1673.4701 310.35883
1677.7125 309.78253
1677.4369 305.68857
1673.709 306.8061
1671.0209 305.22098
1669.5828 307.77325
1667.5166 310.48096
1663.7699 309.3286
1660.2236 305.6682
1663.7661 303.9859
1666.5349 304.70682
1668.853 304.09653
1667.0342 300.13278
1667.8931 296.1493
1672.926 296.65018
1671.8125 299.37943
1670.4548 301.74664
1673.0239 303.62335
1675.0856 301.93015
1677.1729 299.0894
1680.5173 297.58337
1680.5757 302.90625
1682.0063 308.43903
1684.4662 305.31015
1684.8499 301.94012
1686.659 299.76282
1689.3691 300.39252
1690.418 303.3018
1692.0273 307.32224
1695.444 309.70667
1692.9622 312.3229
1696.4691 314.18765
1693.8646 317.2107
1692.502 319.7727
1691.0552 322.6795
1690.6693 325.9162
1693.3385 329.2713
1689.7439 329.78357
1686.4551 327.68933
1683.2869 327.6568
1680.6704 328.02383
1684.4536 323.20282
1687.6477 323.10437
1688.45 319.3575
1689.8599 315.9219
1690.0914 312.74658
1689.2468 309.93964
1688.443 305.60193
1686.3772 308.52347
1686.1265 312.6346
1681.5112 313.35623
1676.2694 314.03723
1677.5156 317.8764
1684.546 317.02197
1681.3323 320.36612
1680.1923 324.43164
1677.0967 326.21524
1678.9749 330.26254
1681.52 332.41736
1685.4622 331.4781
1688.3022 333.63245
1690.3694 335.64944
1692.1023 339.33624
1689.2034 341.13727
1689.9337 344.8562
1689.7649 348.76865
1685.8522 347.9745
1684.9282 344.3784
1682.2817 348.1106
1681.513 352.22437
1679.085 349.90918
1676.7317 353.15356
1673.7512 355.4983
1672.4612 351.43683
1669.6478 355.00668
1670.8934 358.6982
1674.0012 359.67566
1676.9326 358.13242
1679.864 359.68832
1683.6511 359.7658
1691.7764 360.5448
1692.2505 356.53867
1688.3402 358.10324
1685.2429 357.0711
1680.2455 355.95947
1684.7407 354.1489
1687.0715 351.7179
1692.0154 352.59445
1693.1688 348.18176
1696.2844 349.2629
1696.6945 354.3967
1697.2141 358.70334
1697.3967 362.72235
1694.1387 364.3801
1690.4806 364.25192
1687.3755 362.25616
1684.8234 363.48102
1682.9678 363.35297
1680.7834 362.48068
1680.0518 366.38766
1677.1921 362.93002
1673.7292 363.93942
1671.0676 362.65503
1667.7905 363.06232
1667.837 358.6461
1665.3374 356.55676
1662.7671 354.46555
1665.4524 352.83652
1667.9749 351.95312
1669.5751 349.02832
1667.2078 346.54608
1670.8105 342.8166
1667.0511 343.46124
1663.0116 342.98218
1659.8604 346.30786
1664.1824 348.6799
1660.3269 351.6512
1660.3347 358.25742
1664.3413 360.06128
1663.4227 363.3994
1661.4961 366.0089
1659.8135 370.25302
1662.057 373.7779
1661.3632 378.00067
1664.7539 380.6439
1664.4078 384.23584
1665.984 386.88458
1668.3208 389.98413
1669.3344 394.239
1662.8115 392.61057
1665.4581 398.58832
1665.1487 404.191
1664.574 408.7689
1662.6036 412.77536
1665.4587 416.6977
1662.2483 419.57968
1664.3701 422.25348
1667.5298 423.0982
1660.8242 425.7142
1661.489 431.8625
1660.7369 437.61365
1662.9689 442.44672
1663.909 447.61325
1658.4941 446.76703
1660.7015 451.66626
1665.5759 452.44147
1667.55 447.77777
1669.8833 445.22858
1670.9299 441.00143
1674.6597 446.2603
1676.7314 450.53613
1677.648 454.43927
1675.3413 457.73456
1677.0281 460.10437
1679.6138 457.85934
1683.026 456.43906
1685.1765 460.9171
1688.8745 458.77365
1692.9167 457.68417
1691.051 463.09674
1686.3488 466.6727
1684.7322 472.2722
1683.1787 476.87958
1687.9436 478.84192
1689.9363 482.55023
1685.9409 484.23215
1683.9812 481.55844
1681.2781 480.10333
1677.8289 479.65906
1678.6332 476.46164
1676.9163 473.79962
1673.8241 470.24176
1675.9852 466.17294
1680.199 469.13705
1680.495 462.9959
1674.7399 461.41882
1672.2452 463.02155
1670.036 465.55344
1668.421 469.63318
1672.095 474.5079
1667.0918 474.21997
1663.9087 478.29257
1660.3784 481.7473
1662.2961 471.3535
1665.0419 466.20285
1666.4725 462.1123
1670.1016 459.03464
1673.066 455.4038
1670.7097 451.6344
1668.0347 455.74106
1664.705 455.80722
1665.984 458.74866
1663.2195 460.37097
1661.6934 458.33905
1661.2986 455.48764
1655.5402 455.3971
1658.1497 459.93503
1660.9985 464.23044
1655.4875 465.14825
1656.9622 469.98276
1656.9537 474.67938
1655.2164 479.04364
1649.8236 481.35764
1653.4741 485.02423
1657.6041 485.146
1659.668 489.318
1658.9128 493.53815
1660.7251 496.7976
1660.7664 502.06195
1660.5227 506.19528
1656.0186 501.3781
1654.1147 505.729
1656.3884 507.98242
1653.6831 511.4797
1650.3779 508.2168
1650.2983 513.6612
1646.5322 511.9151
1643.2828 512.6575
1643.376 508.46298
1643.9988 504.3265
1646.7739 507.26776
1647.8108 501.57593
1650.7032 503.34103
1655.0236 496.47003
1654.7999 491.20874
1650.9363 488.54907
1646.2544 486.2821
1647.1501 491.37387
1650.2568 494.2072
1651.1467 498.69983
1646.4545 497.00497
1644.7323 501.00946
1642.6794 495.24036
1642.0332 491.0603
1637.4678 496.2279
1634.0256 499.6074
1641.1572 499.51923
1639.1575 502.91644
1640.5205 506.63684
1640.8026 510.49457
1639.8894 513.83606
1637.6028 516.26434
1640.1948 517.4872
1643.2572 516.99805
1646.5371 516.9015
1649.8279 518.52325
1645.279 521.7649
1641.0929 520.7809
1635.7407 519.5892
1635.4524 522.9305
1639.1005 523.5779
1634.5221 526.7306
1631.0466 528.8087
1628.8794 530.4702
1631.074 525.65247
1630.1206 522.3829
1628.7118 519.0275
1632.116 517.8261
1628.1161 515.232
1621.6692 515.4739
1624.9933 512.4473
1626.5808 509.01044
1630.7725 508.7297
1629.9137 512.45294
1633.6705 510.671
1634.4668 514.6662
1637.5922 511.21173
1636.4169 507.75684
1635.6376 504.2097
1632.1499 504.29147
1628.8959 505.44308
1628.6523 500.68408
1622.6628 501.92307
1625.2439 505.24408
1621.8745 508.34897
1621.1691 511.00583
1617.8481 512.0648
1615.0178 514.8326
1611.8833 518.67255
1610.4672 523.14404
1612.9653 527.88696
1610.1777 532.302
1608.0889 537.66656
1604.5465 541.6206
1607.9878 542.66754
1611.563 542.01337
1612.428 535.81006
1614.3284 539.1176
1616.051 542.93274
1622.6827 538.03955
1618.7367 538.85614
1620.7761 542.8266
1625.2361 541.7162
1630.1632 541.18854
1630.6528 537.363
1626.8689 537.9161
1621.3843 533.71436
1616.3613 534.0717
1621.4905 527.37714
1618.0028 530.11365
1616.2927 523.9083
1617.2927 518.8248
1621.089 519.7952
1625.1194 518.48425
1621.6149 523.02325
1625.37 523.2853
1626.8298 526.5353
1625.4023 529.9211
1624.6871 533.3568
1627.7003 534.16376
1630.7406 533.5299
1634.2645 534.759
1634.417 538.44794
1636.5319 542.6081
1638.3794 538.0315
1642.121 537.0112
1638.8574 533.9841
1633.3708 531.1695
1637.1552 530.8966
1638.6115 527.39545
1642.904 525.1757
1643.6338 528.5168
1642.4669 531.88715
1645.6687 534.49677
1650.4111 533.9518
1654.1879 529.2706
1658.537 530.14343
1658.2145 525.8767
1651.6901 526.28625
1648.4839 529.9077
1648.1709 524.1218
1652.5027 522.34033
1653.8262 518.3806
1655.3324 515.4526
1657.8793 513.2964
1658.6378 517.183
1661.1871 513.3994
1658.1854 510.28845
1661.0685 510.0699
1664.051 509.5417
1665.2025 512.4777
1665.4834 515.7397
1662.4863 516.2466
1664.6531 519.92004
1660.576 519.9653
1656.7812 521.8855
1662.3563 523.7109
1664.2256 527.4723
1668.5298 523.3003
1668.4019 518.97974
1668.7561 515.0168
1672.4625 513.2254
1672.4487 518.4463
1676.9829 515.85547
1679.9999 511.12982
1679.1195 506.63525
1684.5703 505.77106
1686.3928 500.53607
1683.0222 498.7868
1679.709 495.2605
1679.1846 498.91992
1680.9781 502.5212
1676.7637 502.8529
1673.4586 503.03375
1671.5133 506.40405
1675.1506 509.74634
1669.0018 510.3802
1666.1006 506.74207
1665.8624 503.4021
1668.0503 500.7174
1671.0092 499.99847
1675.0625 498.75006
1676.0938 495.7408
1670.4768 495.26868
1664.7847 498.54196
1665.4858 493.82642
1664.231 489.6488
1664.4995 485.13254
1668.4009 482.67905
1671.5354 486.50934
1668.5614 489.36536
1672.2808 490.48962
1674.7524 492.8305
1678.6226 491.83838
1676.0627 488.34943
1672.5139 483.58078
1670.9683 478.23993
1673.0156 480.6378
1676.1002 481.4245
1675.2742 484.7522
1678.3054 484.97223
1680.4401 482.90662
1681.7908 486.16574
1680.1337 489.09836
1683.8354 489.3739
1687.7936 488.91064
1683.1641 492.5748
1683.1204 495.59393
1686.9319 493.82825
1689.8428 496.97327
1691.9845 492.07468
1694.0449 487.57785
1690.2058 485.8072
1695.8696 483.58575
1693.7365 482.17346
1691.8455 480.1534
1694.5138 477.65268
1699.0562 481.3877
1698.6995 476.93152
1698.3123 473.80197
1700.7036 472.5088
1703.9285 471.35117
1703.3286 466.50424
1701.6681 465.30096
1699.4419 468.5219
1695.865 472.27826
1689.8923 474.30798
1692.1897 469.91235
1694.7947 466.17
1698.6587 464.16098
1701.7068 461.81012
1705.2102 461.74384
1701.0502 457.92953
1696.35 461.03064
1696.8062 457.28525
1694.9166 453.94537
1699.0793 453.3841
1705.4055 456.7147
1704.3563 452.45428
1703.3818 447.95862
1698.6743 449.5743
1694.8741 447.52075
1693.363 450.4547
1690.3362 452.36005
1689.7532 455.4699
1686.2158 453.40985
1681.8491 451.364
1685.5569 447.9237
1689.459 447.82916
1691.861 443.97363
1692.5447 439.24518
1696.6193 436.20367
1698.8173 441.93066
1698.0065 445.58868
1705.9182 445.45618
1709.0826 446.37408
1704.9277 441.79602
1710.1597 439.2132
1705.7246 437.3272
1701.1511 437.51257
1701.9796 432.93365
1709.1975 433.23743
1708.1091 427.41486
1711.9324 426.45044
1711.4147 420.75153
1707.7798 419.57184
1704.5403 418.44873
1702.2517 422.07126
1707.9451 423.3203
1705.1758 430.0929
1702.1494 426.44092
1698.9822 427.76498
1695.8207 426.58698
1697.4664 431.77228
1693.4268 429.8241
1691.4048 433.93903
1688.4463 429.44443
1683.3395 426.78723
1683.3665 432.8725
1686.362 436.25925
1685.8171 441.55438
1680.9885 445.5028
1677.4481 441.5969
1679.4669 437.09937
1673.621 437.0327
1670.218 434.01227
1666.9274 438.01727
1666.5005 433.04257
1665.978 428.92343
1667.9407 425.93347
1671.8704 429.04575
1675.3154 432.40976
1679.9305 430.31586
1677.3478 426.34778
1673.231 424.48682
1671.669 421.00885
1668.5172 419.23212
1667.9646 414.32248
1670.0927 411.5462
1672.7131 416.4262
1675.782 413.91428
1679.5638 415.37973
1676.3136 420.09103
1680.0491 421.45978
1684.1 422.4106
1683.1965 418.42035
1684.0908 414.92844
1688.5146 414.50537
1685.6322 410.57675
1680.5864 410.80084
1675.8708 409.9583
1674.4213 406.36194
1678.1791 405.44543
1682.1123 406.972
1681.9949 403.2042
1684.133 400.26083
1686.8257 406.1817
1689.5259 403.37006
1693.2378 406.35577
1691.6721 409.8055
1693.9264 413.9404
1692.8809 418.7337
1688.3512 419.79526
1687.8401 424.54034
1692.3534 424.27972
1696.9467 421.72336
1698.367 416.76523
1701.8544 414.20245
1707.1252 414.32883
1709.0929 416.247
1711.6433 417.34555
1713.499 414.55023
1710.4196 410.97595
1714.0603 408.98657
1711.7222 405.3216
1707.2865 406.35568
1706.2316 410.84564
1702.5239 408.64777
1698.4264 409.63293
1697.2109 406.93573
1697.2883 404.4852
1694.7319 402.202
1699.3677 401.24176
1703.638 402.9309
1708.8303 401.19373
1713.1616 399.87802
1711.7192 394.82465
1707.695 396.03503
1704.0735 397.56235
1706.1174 391.76035
1702.9252 387.1163
1705.6991 384.5708
1708.6036 386.4547
1709.3694 390.4458
1712.2029 389.00836
1712.0383 384.33453
1708.6246 381.20505
1704.6633 381.20654
1705.1144 378.04974
1712.6039 379.76367
1710.2026 376.0118
1710.5312 371.17603
1705.9946 370.6991
1702.4202 369.666
1705.074 374.7413
1700.7297 373.74045
1697.7388 375.33737
1694.023 374.9549
1691.1011 372.38434
1687.6781 373.59302
1686.8162 376.59567
1689.9648 376.70898
1691.7175 379.37326
1694.3131 382.01483
1696.658 378.9245
1701.1069 377.8523
1700.5386 382.2243
1697.5388 385.6196
1693.6365 389.2369
1691.3184 384.93347
1687.1582 384.2949
1684.1356 386.68207
1681.9117 390.0058
1685.6549 392.26874
1688.7908 389.15283
1690.6289 394.05743
1695.5623 394.1471
1697.8853 390.55988
1702.6957 390.8282
1700.8817 393.54205
1700.1082 397.0338
1696.4938 398.0418
1693.1338 397.60553
1690.6626 399.86777
1686.6737 397.078
1681.2238 395.353
1678.0208 391.21545
1675.4929 394.34155
1676.0935 397.89142
1678.8376 400.48627
1674.6549 402.379
1670.436 407.63925
1669.8397 403.21408
1671.5642 400.3189
1670.9924 397.49545
1673.1129 390.41135
1671.2207 385.13098
1669.2437 381.40158
1673.6416 380.94748
1676.1326 376.79074
1672.9651 376.69992
1670.2211 376.86603
1667.4968 377.3723
1664.6663 376.8763
1666.7573 373.7022
1664.8896 369.41785
1668.9888 370.79962
1669.6306 366.99826
1675.6316 367.94873
1672.6675 372.12653
1676.7439 372.85657
1680.7859 371.02792
1679.9858 374.77612
1680.6332 378.08948
1677.3823 379.65735
1677.2775 383.13086
1674.3706 385.73517
1676.476 387.6225
1679.5316 386.40338
1682.1348 383.5394
1680.3501 381.25876
1684.3042 381.26086
1688.0305 380.5205
1684.4861 378.58087
1683.5593 375.2782
1685.6084 371.0619
1683.5956 367.88608
1685.5708 365.6068
1687.5544 365.86914
1688.2219 367.9992
1691.0728 368.4968
1694.7129 369.52325
1698.1813 370.92795
1699.0249 366.70587
1701.9822 362.77353
1705.5698 365.1556
1710.806 366.29443
1709.7881 361.40356
1702.2806 358.458
1704.3713 354.58868
1706.9417 358.02744
1710.7601 355.05136
1709.1707 349.03015
1706.3684 351.28818
1702.6514 350.63718
1700.2915 353.77313
1699.1567 349.56735
1696.0521 344.8996
1702.0271 346.72577
1706.9187 345.3564
1703.7709 343.23816
1704.5996 340.04767
1708.1875 340.6234
1705.825 336.88654
1706.8171 332.7868
1701.9155 336.31415
1701.7393 339.5727
1699.8928 342.19183
1696.0784 341.13034
1695.5432 337.6861
1698.6118 335.52554
1693.9432 333.92484
1697.1322 331.5998
1698.1035 328.7458
1702.1188 332.0359
1703.3777 327.90717
1697.745 326.21112
1694.4625 324.9609
1694.7887 321.5738
1697.9562 322.5664
1701.2373 323.2401
1706.1198 323.59796
1703.2549 319.16498
1698.2692 318.2894
1701.6716 314.98135
1700.0797 310.18716
1696.9824 305.73425
1694.7317 302.2998
1692.4417 299.28223
1694.5608 296.78357
1692.6135 294.09644
1690.139 290.26636
1685.504 290.5604
1686.5847 293.95624
1689.6174 294.07117
1690.2976 296.74527
1687.8735 297.05624
1684.5208 297.8659
1683.3779 294.69897
1680.6412 293.04263
1676.8334 292.58917
1672.712 292.62906
1670.0499 286.2698
1667.6888 290.98962
1662.5569 291.15182
1659.1407 293.5199
1663.6188 295.36826
1662.8884 299.11862
1660.2325 301.4464
1656.9211 299.3796
1659.2651 296.57935
1654.7755 295.7353
1650.4371 294.4952
1657.386 289.62534
1652.3573 289.57788
1647.4185 285.09183
1642.3406 280.6906
1646.259 277.40033
1650.0951 278.60928
1653.0051 282.11075
1658.0049 283.2757
1662.9729 286.21335
1665.8956 281.0644
1661.4817 276.3219
1655.8037 275.83423
1651.4543 272.94873
1652.8044 268.9713
1647.8494 266.9208
1645.7148 272.07065
1641.1582 273.3284
1636.6255 270.93182
1633.2587 269.06482
1631.0039 271.02158
1628.096 271.75775
1628.2241 274.65128
1630.6467 275.194
1633.156 275.5475
1629.2959 277.87198
1630.1521 280.82544
1626.8544 282.4529
1623.5575 284.36475
1620.9138 286.85175
1618.6943 284.07315
1619.3643 280.2495
1620.8411 276.37927
1624.6357 279.07465
1625.3307 275.30823
1624.4429 271.41888
1622.8849 267.77066
1628.0393 266.71912
1634.1865 265.49463
1632.1724 260.85822
1637.8083 261.9053
1640.3549 268.7641
1642.5479 266.0414
1644.4326 263.24707
1646.7498 261.2473
1649.6997 260.83923
1652.1711 264.01407
1656.649 264.5642
1659.5151 269.61713
1664.2341 269.3753
1668.296 274.36053
1669.7667 277.20935
1671.5925 279.29205
1673.5464 276.2978
1675.8428 278.43326
1672.27 282.05524
1676.8134 282.57227
1675.785 287.15262
1680.7628 288.57944
1686.1508 286.11432
1682.7819 282.7841
1680.4917 279.09634
1678.69 275.16098
1674.2043 272.00543
1668.6248 270.20905
1667.6929 264.6299
1661.1362 262.9361
1653.9154 259.3847
1647.6995 256.87122
1642.171 258.94464
1642.3516 253.5443
1636.5917 254.90892
1632.3177 255.67316
1628.5981 252.61612
1622.1216 252.44589
1616.2654 252.58374
1610.9429 250.53691
1610.9858 253.76315
1606.5204 253.8407
1603.6638 251.73528
1603.0319 256.35718
1607.4542 257.8931
1610.5999 260.34814
1611.4991 256.69653
1616.5171 255.96744
1615.1116 259.15115
1618.1248 261.88385
1620.5643 260.04532
1620.8461 256.8045
1624.8049 257.0636
1628.4412 257.14288
1627.2598 261.8786
1623.5591 263.07385
1620.529 264.73267
1617.3572 266.06927
1615.6814 264.13223
1613.4858 261.9213
1612.6462 264.78644
1611.2455 267.28784
1613.5122 270.5206
1616.2368 269.6078
1619.0952 268.65527
1620.4144 272.1155
1617.3799 274.06174
1614.5565 274.8414
1610.3446 274.26782
1609.8236 270.82733
1607.1537 268.57733
1603.5845 269.7345
1605.7607 273.4954
1601.6388 275.0893
1599.171 271.89148
1599.523 267.70294
1599.1592 263.9385
1604.0258 265.1002
1608.73 264.24564
1606.448 261.78918
1603.5369 260.49805
1600.5714 259.67102
1596.6211 261.54733
1597.6221 258.6163
1599.5131 255.71637
1597.0496 253.63867
1594.2893 257.4096
1590.2953 256.49625
1586.5125 254.76147
1583.6643 257.0597
1579.8668 256.88458
1575.4489 259.76086
1570.9666 263.14038
1567.9371 268.9555
1572.6552 268.7472
1577.0862 266.65228
1580.2017 261.33533
1584.3014 261.41553
1587.1893 261.04736
1590.164 261.67206
1593.3953 262.21857
1587.128 266.41693
1593.2627 266.9781
1594.8899 271.58386
1595.2041 276.01227
1598.1027 279.1383
1601.1713 279.43982
1604.3495 279.10437
1607.0891 277.29718
1610.4723 278.0268
1609.4011 280.9352
1606.3512 282.3874
1606.0004 286.9073
1602.5491 283.38184
1599.6139 285.00516
1597.5671 283.3741
1595.684 282.02036
1593.1948 284.08844
1595.9404 287.45786
1591.6564 288.6258
1589.4685 284.7741
1585.8087 290.8598
1584.9512 286.6134
1585.3494 282.17114
1583.2219 276.37482
1586.3157 277.7754
1590.4158 279.3493
1594.0441 279.79822
1589.9744 273.12012
1585.7253 270.87906
1581.5621 265.19992
1580.8972 270.3647
1580.4463 274.82758
1576.0874 272.7409
1576.1958 277.74393
1580.3374 281.47058
1579.1085 286.65012
1580.6516 291.02094
1583.1614 295.1644
1581.208 299.1241
1579.2797 305.6018
1574.9266 303.9694
1571.5885 303.15637
1567.5216 302.62997
1567.3027 306.43713
1570.4036 310.2515
1573.1528 307.50784
1577.0508 310.43903
1573.4186 313.398
1571.8242 317.7431
1567.2932 311.59155
1566.8757 315.39526
1569.1874 321.95978
1566.9237 326.77765
1563.4215 324.44812
1558.59 324.29657
1560.4587 319.64783
1564.8865 319.86432
1562.5497 315.1849
1557.2424 314.62195
1560.8843 311.04904
1556.3131 307.742
1562.0198 306.06976
1562.8053 300.5418
1557.5803 298.56848
1560.4346 295.6329
1563.5574 292.8025
1560.4531 291.0221
1560.3177 286.54422
1561.0518 282.05008
1556.4818 281.76636
1553.6389 285.69775
1555.7777 290.77194
1552.4357 294.61505
1548.2031 290.1516
1546.2471 295.26495
1543.6425 299.76648
1544.0557 305.25882
1547.5403 304.2554
1549.7969 299.87326
1555.2639 301.79034
1552.01 304.8126
1549.9633 308.31833
1552.2563 311.97095
1553.2996 316.3463
1556.1963 319.86487
1553.1265 322.52948
1553.9404 325.63406
1556.3464 327.91193
1557.8057 330.88516
1561.1759 328.67657
1564.0498 330.83063
1567.1711 330.95862
1567.9647 334.74017
1564.5947 335.71204
1561.948 333.2755
1559.7114 334.99118
1557.7983 338.9615
1562.0605 339.19415
1566.0095 340.06723
1563.8152 343.70544
1562.8464 347.96262
1561.1704 352.6296
1556.2578 352.9143
1556.6393 348.17258
1559.2847 343.79132
1554.2888 343.4968
1551.3513 350.7767
1549.0962 354.78122
1546.8724 356.19824
1544.1083 358.37384
1542.6974 352.88806
1545.9321 350.9071
1540.462 347.42688
1545.5544 347.26593
1549.5864 346.20688
1548.9813 342.59323
1548.0027 338.45752
1551.5969 339.8798
1553.8906 337.28214
1556.3208 334.53262
1553.604 332.48236
1552.2948 329.44547
1549.017 331.84695
1550.3607 335.23697
1545.8179 335.944
1545.253 333.12762
1544.6844 329.7543
1547.8774 328.6529
1550.2407 326.2971
1548.1888 323.95392
1545.6826 326.18863
1542.2113 325.81146
1540.4818 322.63055
1542.0154 318.39325
1537.3666 322.61032
1532.835 321.77106
1534.6674 323.13913
1533.1726 327.2073
1537.3026 327.35757
1540.3293 329.17136
1541.5468 332.72906
1538.1626 334.54413
1542.0464 338.19278
1545.3654 341.38733
1541.7511 343.25867
1537.1927 340.48703
1532.2944 342.92407
1528.6055 341.93405
1527.3064 346.1004
1531.3696 348.54285
1532.1958 352.6955
1535.6057 344.739
1536.2684 348.0149
1537.3738 351.68005
1536.737 355.12585
1541.0214 356.53476
1538.3867 357.90646
1536.8662 360.12396
1539.4056 361.63214
1542.777 362.72766
1546.376 363.61484
1548.1099 367.35104
1551.64 365.54877
1550.0498 361.51263
1547.401 359.74622
1552.3203 355.58508
1555.2036 357.38058
1552.3713 359.42953
1555.018 363.2419
1558.0034 358.51706
1562.0356 358.02203
1560.312 362.9616
1559.9756 367.62274
1555.6859 369.3354
1552.1179 370.08356
1547.1158 370.2943
1548.8256 371.8451
1550.2048 373.8021
1546.9419 375.57007
1544.8287 377.01038
1543.8229 379.33624
1542.0446 376.99915
1540.4614 380.28998
1537.6375 378.3189
1536.8533 382.79865
1533.5447 380.05243
1531.382 376.5871
1536.6534 374.03122
1539.9385 375.2745
1542.5695 373.2009
1545.1343 371.93103
1543.6628 367.98102
1539.3654 370.01364
1539.6761 365.51337
1535.7747 366.94955
1532.7192 369.00018
1534.8022 363.32956
1531.3105 362.43402
1533.9434 359.64633
1533.8433 356.6186
1530.83 357.48425
1526.5635 356.57355
1528.8529 354.5782
1526.6989 351.21252
1522.8005 354.63446
1525.4368 359.75494
1527.9252 361.33713
1528.2546 365.95685
1527.4009 370.469
1532.583 372.90234
1527.955 377.8513
1525.3593 375.42123
1521.3212 375.61096
1518.9154 372.41168
1515.1311 370.57834
1520.2649 368.40854
1523.4812 371.73102
1520.7976 365.11328
1523.4924 362.9848
1522.8676 358.41794
1519.7551 358.7961
1516.784 362.2208
1516.1879 358.27283
1519.2544 353.75702
1515.8304 352.70007
1512.3613 352.67145
1515.306 355.39417
1512.2107 358.14636
1511.3561 362.6014
1513.8854 366.25824
1511.9475 373.82434
1511.697 378.18933
1513.6086 376.57687
1516.0697 376.42734
1518.3986 376.1754
1523.3171 379.67242
1519.4089 379.80566
1516.8528 381.81683
1514.6128 382.31964
1514.7664 379.3875
1511.5361 381.04034
1508.7882 383.55258
1512.7937 384.01535
1513.4453 387.13367
1509.4521 388.1501
1510.9916 392.35223
1512.8967 395.63104
1508.7024 399.41748
1513.199 400.51556
1516.9573 397.97568
1518.3782 393.47583
1516.5383 388.72748
1519.1351 384.3462
1523.8743 384.35205
1527.6315 382.385
1531.4265 384.20557
1534.2512 387.42856
1538.5465 387.04352
1541.2915 384.07544
1543.3628 381.7124
1547.3489 379.8509
1546.6752 383.06894
1545.8214 386.0995
1550.6638 387.23212
1550.8525 381.6727
1550.553 377.72263
1553.4663 375.1661
1558.4924 373.72278
1557.2483 378.5858
1559.6667 383.44577
1554.4065 384.13864
1557.6812 388.93567
1561.5098 391.396
1558.9601 396.21942
1554.432 397.07245
1555.2446 392.37778
1552.0527 391.3233
1548.562 391.1307
1546.2762 393.11313
1543.1692 388.35617
1543.1797 391.95172
1541.4856 395.31946
1539.5452 391.70688
1536.5105 391.45203
1533.4409 391.7462
1536.142 396.25177
1531.3506 397.17554
1531.2144 393.3513
1527.7184 391.03525
1528.6552 387.73654
1521.9047 388.4815
1523.5784 393.0766
1527.3964 395.45557
1525.8789 398.9828
1521.5994 398.82782
1517.592 402.35657
1519.9241 405.02243
1523.2627 403.40228
1527.1742 402.46384
1530.8604 400.67477
1532.7137 404.7763
1535.8313 401.24097
1540.4803 398.7325
1543.1926 402.36716
1539.8552 403.29974
1537.7112 407.1654
1532.6096 409.17645
1536.2994 411.77914
1541.0715 411.54993
1540.9056 414.86325
1538.3284 416.53455
1535.2767 416.21362
1531.573 416.4963
1530.9646 413.03406
1528.1075 409.85382
1528.9355 406.27625
1526.1128 405.22394
1524.3052 407.90048
1520.7708 409.2109
1519.8826 413.29553
1523.0114 415.4266
1525.5656 412.26865
1527.0381 416.27255
1529.3806 419.5787
1524.8373 420.08704
1521.8958 422.88425
1520.2344 426.79077
1517.5239 423.12695
1519.5608 418.66547
1515.5552 414.67657
1515.6495 409.53354
1514.0127 405.18683
1508.8289 405.99176
1510.8652 412.22906
1514.2446 418.48422
1513.7129 422.7484
1511.2677 426.45224
1514.6992 427.68393
1516.395 430.03076
1513.7753 434.03058
1514.3562 439.75134
1518.9031 441.94662
1514.2585 446.1146
1517.0916 450.53607
1519.061 446.0831
1521.4299 448.76447
1524.7169 450.67612
1523.9861 445.16113
1524.2869 441.3728
1528.1327 447.39825
1530.3956 442.2169
1535.568 440.31577
1539.8704 440.93295
1541.8086 437.36057
1542.701 433.15732
1536.6301 435.49402
1532.2354 437.1275
1528.0073 438.5499
1523.4569 437.88843
1519.3224 436.41327
1519.2678 431.60077
1522.1136 433.62524
1523.8137 431.35345
1523.8832 428.73114
1525.6285 426.17926
1527.562 424.04367
1530.3105 423.24927
1532.8334 421.66565
1535.0204 419.98114
1538.0718 421.37085
1536.3866 425.22156
1532.7058 426.79645
1528.7677 429.33798
1526.613 434.3003
1524.1667 434.9068
1529.7174 433.59387
1532.9053 431.23532
1536.8245 431.00348
1539.9744 429.1424
1540.9541 423.9553
1544.4802 424.8696
1547.1113 422.59933
1545.0117 420.79822
1540.5881 419.24884
1543.0475 418.47693
1546.5457 418.0708
1548.0956 415.1814
1544.6617 414.60144
1545.0574 411.00278
1542.1311 407.95117
1544.8671 405.89478
1547.5254 403.0074
1548.0245 399.50656
1544.8444 400.172
1545.5729 396.95392
1550.3745 395.57703
1551.2432 399.99594
1549.8302 405.6533
1547.8696 408.92438
1549.9958 412.0835
1554.3201 410.4028
1554.0098 406.8913
1554.2529 403.29395
1557.5121 401.4731
1562.3354 401.19275
1559.7716 407.73215
1561.2365 413.94403
1555.7964 414.16953
1551.4425 416.9939
1553.6882 421.05307
1550.0703 421.23663
1549.8345 424.87762
1554.4268 426.35995
1557.4827 423.0625
1557.9628 418.23615
1561.751 421.85754
1561.7977 428.45947
1558.394 427.3963
1553.8997 430.84546
1558.3628 431.3984
1560.8726 433.30725
1562.8191 435.66376
1560.7346 438.25616
1562.5061 440.9272
1564.3037 443.9619
1561.5094 445.9168
1564.8918 448.32794
1564.3206 451.863
1561.0686 449.82944
1558.3494 450.3683
1556.7756 452.21762
1558.5828 454.78668
1560.9813 453.17725
1562.512 456.2218
1566.3037 456.2329
1564.5624 460.26532
1567.2534 463.51874
1563.841 466.20215
1568.5369 468.25427
1564.5276 471.67123
1570.4529 473.09177
1567.9583 475.77557
1565.2385 477.2712
1570.3448 479.31836
1569.9912 483.08716
1565.7034 481.01294
1564.1765 484.16745
1563.9297 487.1941
1565.4664 488.97604
1566.3882 491.10397
1568.5139 486.84595
1572.5803 487.83435
1576.1904 485.79803
1581.8403 490.6797
1584.9015 496.41388
1587.0688 499.875
1582.888 500.91516
1578.4075 500.39
1579.771 504.91345
1585.2935 506.02618
1588.8516 503.39453
1591.9408 499.42188
1592.8446 503.86252
1597.9609 504.0549
1602.0037 506.87146
1605.334 503.79404
1605.9998 508.74313
1609.6953 506.43854
1611.7139 503.44604
1616.9996 503.9719
1620.4824 505.87897
1615.0067 508.19345
1610.9738 509.59177
1611.5208 513.26776
1607.5851 511.89044
1607.2568 514.76685
1606.4379 517.41284
1606.7222 520.31995
1603.7644 522.579
1601.8265 520.0353
1602.7333 515.8538
1598.824 519.2802
1597.4612 515.8514
1601.7185 511.885
1596.9333 510.50253
1592.832 508.24155
1587.8367 510.51828
1588.3612 516.51306
1592.8171 514.3197
1593.4375 519.5758
1591.6372 523.75183
1587.916 526.1266
1581.9637 528.2395
1585.7415 529.34985
1589.2808 531.04736
1593.165 529.8333
1589.3784 535.3416
1590.084 538.7796
1593.4539 538.2527
1594.4324 535.24255
1597.1195 533.07056
1598.1808 530.0002
1596.2887 524.86865
1600.2805 524.21954
1601.2661 528.932
1604.032 526.557
1607.4176 525.38257
1606.6919 529.65594
1604.2324 533.31604
1603.7856 537.7831
1600.5538 535.63965
1598.1426 537.7314
1600.333 540.89496
1601.9431 543.9894
1596.7126 540.52356
1593.6807 541.95886
1588.7771 541.5958
1584.6387 539.0398
1585.1552 534.60034
1582.5597 532.1583
1577.6353 528.32184
1578.4941 532.8325
1580.4508 536.54004
1578.1433 539.1215
1574.5396 535.125
1573.5806 530.06854
1569.1539 533.1825
1564.1361 531.26605
1560.353 528.4048
1556.779 527.74603
1553.897 525.7551
1549.3456 524.1577
1551.1497 520.8967
1554.3479 522.2002
1556.8335 519.7787
1558.2944 523.53436
1561.2317 520.24677
1562.9968 517.0541
1566.9222 515.576
1570.8623 516.6006
1568.1064 521.24194
1563.4758 524.3467
1568.4551 527.06665
1573.8691 524.916
1579.1123 524.6369
1582.9434 523.6297
1586.9574 521.6151
1583.6075 519.009
1583.5983 515.5299
1582.1226 512.49194
1579.5636 509.1583
1577.6628 514.22546
1577.2864 517.8171
1579.3522 520.38654
1573.7461 520.7625
1573.9177 515.2976
1566.9143 510.74054
1571.1288 510.7209
1575.0232 510.28564
1573.427 504.89752
1567.969 505.52512
1565.0276 502.1006
1570.0388 499.2517
1574.4407 499.07288
1580.0349 495.70807
1576.4912 492.87482
1572.4454 493.00363
1568.9176 493.06784
1564.4946 494.10764
1566.5454 496.99615
1563.2332 498.74518
1561.7601 494.63226
1559.1075 495.99936
1560.5317 499.13925
1557.2137 500.30756
1559.5835 503.14612
1558.062 507.15424
1562.8533 507.63025
1561.5364 512.53625
1556.7048 512.0853
1557.8116 516.1813
1553.9968 517.73145
1551.9978 515.4622
1547.8823 518.66504
1544.8921 515.19794
1549.1846 512.51404
1552.7594 509.97223
1553.7245 505.31342
1552.102 501.73825
1550.956 498.48737
1547.0345 496.08835
1550.0178 496.15704
1555.1028 497.6832
1554.0256 493.83032
1550.0259 492.9878
1550.8693 489.18158
1547.9497 490.15356
1545.1892 488.6914
1544.6378 492.4975
1544.0527 496.71115
1540.3093 500.25705
1544.2529 502.46082
1547.5438 500.90817
1548.0422 506.3973
1544.3342 510.51123
1538.435 511.1667
1540.1743 505.66196
1533.7357 503.93335
1535.6421 498.71643
1538.4321 495.82416
1541.3077 494.97565
1540.0552 491.20667
1541.481 487.7094
1538.9613 484.06638
1536.4224 480.879
1536.2156 477.2951
1539.5312 476.6834
1541.3945 480.11395
1544.4089 482.84747
1547.4963 484.77243
1550.9006 485.31866
1554.2626 484.28503
1554.595 489.26355
1558.0419 492.03082
1561.7104 490.6623
1560.4495 486.6235
1557.3496 486.21832
1559.8949 481.89716
1562.0323 480.1574
1562.7253 476.62152
1556.7444 481.1823
1554.5137 477.9028
1550.8131 480.9358
1549.0017 476.61182
1546.0052 473.32886
1543.4027 476.61835
1542.3411 471.8646
1544.031 467.92062
1548.9065 470.12018
1555.0198 473.92868
1559.7108 475.77023
1558.6299 470.99963
1560.4788 467.81174
1553.3827 469.79868
1556.5513 465.51392
1560.8809 462.8454
1559.5225 460.02377
1558.3577 457.55817
1555.4785 457.0808
1551.6165 460.9654
1554.3309 461.46234
1556.2593 460.6275
1552.859 463.76474
1550.9841 465.74957
1546.9226 465.45544
1543.008 462.74408
1547.9001 461.39685
1545.48 457.33484
1550.4276 457.82135
1553.1382 456.25244
1554.4376 453.6314
1550.0669 453.98492
1551.9218 450.88605
1554.9236 449.7154
1558.0952 447.5222
1554.5 446.10776
1551.3901 446.9548
1548.427 447.9743
1545.1675 449.18576
1547.3904 452.1329
1543.4335 453.4972
1539.7596 454.48105
1536.187 455.1576
1540.0103 459.28235
1539.7267 466.41614
1539.2014 469.83734
1538.1475 473.4109
1535.2617 470.79303
1531.5662 471.15088
1534.1348 474.46375
1530.047 476.20428
1532.0319 478.5476
1533.1736 481.4957
1534.5923 485.4414
1536.4739 488.27362
1534.8632 490.65717
1537.1991 492.2612
1534.4761 494.03027
1530.4309 497.47958
1529.3855 492.35406
1530.5991 488.00034
1529.9055 483.20245
1524.8352 484.9135
1526.2842 480.29065
1523.5732 478.17245
1520.908 478.37872
1524.9331 474.91132
1527.9421 472.77637
1529.4077 467.97324
1534.3345 467.11383
1537.1578 463.0864
1533.1996 463.27863
1533.5034 458.94263
1528.2634 459.5257
1530.012 462.88852
1526.3712 464.95453
1524.0442 462.49847
1524.1072 459.5708
1520.8032 459.76865
1521.1477 463.92914
1524.8757 468.83545
1521.773 471.17517
1517.8323 470.15793
1519.1708 466.37384
1515.6821 462.74976
1517.0042 458.88788
1516.928 455.22507
1520.7968 456.27402
1519.821 452.31134
1522.103 453.287
1524.8457 454.34113
1525.7999 456.96094
1528.8398 453.19077
1532.1875 454.68127
1533.2739 449.7369
1533.5952 445.3132
1537.6667 443.7807
1538.1246 446.8691
1538.5957 450.05212
1541.9481 450.0177
1542.752 445.99847
1543.4792 442.30878
1546.9861 440.2562
1547.439 444.2053
1551.7983 442.48532
1555.9221 441.33807
1557.7522 444.58185
1559.4354 442.01657
1557.3663 437.31293
1553.3275 438.49084
1550.1091 438.00482
1554.2313 435.51
1556.5193 433.66684
1552.1672 433.7812
1551.2439 428.62207
1549.6736 434.08673
1546.381 436.3626
1547.4707 431.92645
1544.2258 428.75696
1547.9397 427.9757
" />
</g></g></svg>
