<?xml version="1.0" encoding="UTF-8" standalone="no"?>
<!-- Created for Inkscape (http://www.inkscape.org/) -->

<svg
   xmlns:dc="http://purl.org/dc/elements/1.1/"
   xmlns:cc="http://creativecommons.org/ns#"
   xmlns:rdf="http://www.w3.org/1999/02/22-rdf-syntax-ns#"
   xmlns:svg="http://www.w3.org/2000/svg"
   xmlns="http://www.w3.org/2000/svg"
   xmlns:sodipodi="http://sodipodi.sourceforge.net/DTD/sodipodi-0.dtd"
   xmlns:inkscape="http://www.inkscape.org/namespaces/inkscape"
   width="3200"
   height="800"
   id="svg2985"
   version="1.1"
   inkscape:version="0.48.1 r9760">
  <defs
     id="defs2987" />
  <sodipodi:namedview
     id="base"
     pagecolor="#ffffff"
     bordercolor="#666666"
     borderopacity="1.0"
     inkscape:pageopacity="0.0"
     inkscape:pageshadow="2"
     inkscape:zoom="0.35"
     inkscape:cx="1600"
     inkscape:cy="400"
     inkscape:document-units="px"
     inkscape:current-layer="layer1"
     showgrid="false"  />
  <metadata
     id="metadata2990">
    <rdf:RDF>
      <cc:Work
         rdf:about="">
        <dc:format>image/svg+xml</dc:format>
        <dc:type
           rdf:resource="http://purl.org/dc/dcmitype/StillImage" />
        <dc:title />
      </cc:Work>
    </rdf:RDF>
  </metadata>
  <g
     inkscape:label="Layer 1"
     inkscape:groupmode="layer"
     id="layer1"> 
     <g>
<path style="fill:none;stroke:black;stroke-width:2px;stroke-linejoin:round;stroke-linecap:round;" d="M 
1627.7406 320.58655
1628.312 325.26877
1628.1447 327.16345
1630.1091 326.5661
1630.4956 325.5427
1631.6997 325.76196
1631.741 324.61987
1634.7502 321.66162
1633.5334 321.5263
1630.637 320.3199
1629.1403 319.2127
1628.6289 318.33246
1629.8643 315.95486
1631.7351 318.70105
1633.0343 320.15103
1635.7559 319.85257
1636.7281 316.7546
1634.5906 314.73242
1631.7329 314.46844
1630.5552 312.86945
1630.1182 313.0112
1629.0596 310.76624
1630.9495 310.60376
1632.3032 312.7482
1636.5791 315.11606
1639.0566 313.4305
1638.3795 310.04565
1638.8844 309.3269
1641.4813 308.96872
1643.1282 305.6315
1644.6548 306.63895
1643.6914 310.96994
1644.6543 312.85828
1643.716 317.95346
1645.2219 320.52963
1647.2144 320.66043
1644.9164 324.2845
1644.0703 324.60022
1642.8269 323.8493
1640.4276 325.13095
1640.4731 323.9535
1637.5769 322.15128
1639.2361 320.26453
1637.5952 323.15747
1635.4679 324.39908
1636.846 325.59775
1638.5151 326.42352
1640.5237 327.8948
1640.958 329.3964
1638.1401 328.13843
1637.6936 328.26608
1637.6484 331.0508
1635.8782 331.19797
1635.9707 330.5073
1634.8789 328.64548
1632.9414 329.15405
1631.2505 332.4004
1628.6016 331.44617
1627.416 331.70532
1626.0548 332.40277
1625.3474 331.75
1625.2927 331.02057
1623.5327 332.48874
1622.7601 330.55908
1622.4814 329.46396
1624.3684 328.9799
1623.708 328.78876
1623.1348 326.61682
1624.5452 325.2197
1625.0133 322.25568
1624.8773 320.2156
1621.9098 319.20673
1622.1072 318.08606
1622.03 317.82996
1620.4836 318.29257
1617.4944 322.58716
1617.381 324.44122
1615.7826 321.7848
1612.2056 320.53967
1612.0999 319.9626
1612.473 322.0629
1610.3436 324.3603
1611.1935 324.9903
1611.0435 328.2788
1610.8835 329.95575
1613.0066 328.61417
1613.96 326.83826
1616.5696 329.89868
1614.9365 334.4527
1614.6774 334.63824
1615.7305 334.95642
1619.868 335.713
1622.0818 335.78412
1625.3593 339.6866
1622.4707 334.59225
1620.575 335.357
1618.1637 335.6042
1614.4147 337.99585
1610.9999 343.06415
1610.9237 343.19965
1609.9951 343.04318
1608.137 342.61792
1608.5908 345.09296
1608.1306 344.85156
1608.9248 345.29858
1611.0337 346.13522
1613.7051 347.9856
1613.6952 348.27792
1615.3737 346.68842
1616.9485 344.7258
1617.3848 345.5498
1619.1985 345.1196
1621.4255 347.81064
1621.8484 349.22437
1618.5007 349.62744
1617.6255 351.32837
1615.6173 352.28638
1614.1583 352.15488
1614.7844 354.83948
1615.0684 356.86066
1613.704 359.20847
1618.6602 360.9039
1616.2568 362.4911
1614.0593 365.78833
1613.6947 366.56793
1613.254 369.55063
1614.7539 370.96127
1615.4025 371.71323
1618.9209 372.4221
1617.281 376.5329
1614.749 378.01117
1617.0635 380.9897
1617.8956 380.9765
1616.802 383.7666
1618.0635 385.46692
1621.5128 385.28683
1618.8014 381.76718
1620.1304 380.44675
1622.4907 380.69934
1622.8578 376.6627
1621.7449 376.81122
1621.5824 374.21893
1623.6445 373.13177
1627.6036 370.0892
1628.8805 369.3656
1629.0537 369.42026
1629.5079 369.75336
1631.0421 369.73352
1632.2673 370.0694
1632.9468 369.14734
1634.1533 368.70264
1635.3186 369.1648
1635.5536 367.11847
1634.2844 366.57574
1635.0892 366.0223
1635.9285 365.3474
1637.3982 364.25098
1637.7876 360.89682
1632.978 358.72992
1632.0103 359.43927
1630.5594 361.6666
1630.8293 363.1964
1627.2437 364.57626
1627.0349 365.41806
1626.7078 365.14362
1623.8663 365.92554
1622.9662 368.2105
1622.6268 369.97482
1620.4749 369.1521
1618.7329 370.79047
1616.4614 369.33688
1616.2241 368.16705
1616.2118 367.68896
1616.7123 367.64178
1619.6248 364.55548
1619.4972 362.3358
1620.5889 362.51282
1622.2686 358.89804
1622.4529 358.12207
1620.84 355.6997
1620.9214 352.57578
1621.9835 350.67822
1622.2302 349.9588
1625.4681 351.77515
1625.7036 352.96954
1625.8755 354.41016
1626.396 356.34674
1629.4407 355.69427
1631.0065 351.03265
1633.7644 353.64462
1633.4097 355.6489
1634.7028 355.67627
1636.9604 355.41553
1637.4692 354.25803
1637.7024 352.96912
1638.8776 353.2951
1639.2031 350.70554
1641.2705 350.869
1640.6023 350.66733
1639.4717 346.98154
1635.978 345.17062
1633.0748 346.28815
1632.9788 348.51288
1630.3187 347.9581
1628.595 347.29904
1625.9418 346.62988
1629.8381 343.43225
1634.8933 342.05194
1635.1156 341.42148
1632.9097 338.6828
1634.4326 338.1324
1639.1794 337.3653
1639.5889 336.71805
1639.9172 336.4822
1639.4348 333.2066
1641.668 331.37405
1646.2871 330.51987
1646.3988 331.0169
1646.7979 334.28265
1642.1709 336.65295
1641.7576 339.3945
1642.436 343.13257
1645.0 342.00595
1644.3086 344.14996
1643.4928 345.17352
1642.7634 346.2326
1645.092 346.53036
1643.8752 348.70673
1643.9135 353.3916
1641.2408 354.97202
1641.4071 357.04816
1643.1504 356.92804
1643.4102 356.76556
1643.7783 358.07312
1641.062 362.70508
1641.9788 365.41052
1643.5098 364.48276
1645.0344 366.3235
1646.7678 371.24512
1641.1355 372.6351
1640.349 375.1804
1639.9174 370.02145
1641.0319 368.0617
1640.1136 368.61633
1636.1768 369.7719
1633.9751 373.0825
1632.4442 376.71704
1634.887 377.421
1636.8052 377.635
1634.5217 381.36206
1634.9908 383.21606
1636.6287 383.32477
1636.8394 380.60754
1639.8618 380.86557
1641.5142 380.24896
1645.1129 379.80634
1646.8535 380.86008
1645.4276 380.98825
1643.0226 383.12543
1642.3936 384.82703
1639.2493 385.51132
1638.0592 389.02722
1636.9009 389.56085
1635.7954 391.39264
1633.9062 389.42377
1632.9226 390.64282
1630.5366 388.74506
1628.0055 385.2395
1628.7334 383.1035
1628.1511 382.3966
1625.9219 384.15125
1623.5642 386.23898
1625.1274 387.9354
1628.1852 387.13348
1630.0559 389.7517
1629.6766 393.73236
1628.5876 396.93884
1626.3889 395.98492
1625.4778 392.10092
1624.4658 393.30963
1623.0096 393.61627
1622.9321 396.69446
1619.8287 394.851
1619.7336 398.92645
1622.4205 399.30383
1623.8087 398.4034
1626.3834 398.72723
1627.2899 397.97754
1627.3542 398.44165
1628.8109 398.59055
1630.0924 397.59738
1632.3276 396.39865
1632.3768 396.0368
1632.5543 394.8062
1634.4487 392.64978
1636.3455 391.9594
1637.2268 394.58188
1639.9927 395.87842
1638.5076 398.14304
1638.6559 398.19235
1640.7515 398.04626
1643.3253 395.89948
1643.0856 394.1285
1644.4359 390.2964
1645.5469 392.36615
1645.6451 396.6804
1643.2195 397.4542
1642.8113 400.46347
1641.9116 401.17688
1639.1322 400.4531
1638.0317 403.26196
1637.4928 405.0047
1637.561 405.8678
1642.2426 413.19382
1641.9917 411.96594
1636.4209 406.05078
1635.2279 404.9057
1635.8351 400.3731
1633.7727 400.46497
1633.7526 402.08786
1632.4249 401.92938
1631.8118 402.59787
1630.4243 399.98935
1627.7336 402.30127
1626.1963 403.4472
1623.9795 405.8578
1621.6577 403.7932
1621.689 404.48932
1619.3944 406.28876
1618.7693 407.56787
1620.0912 409.71786
1620.6235 409.57996
1622.9458 409.8147
1623.2069 410.10242
1625.852 409.91623
1626.8264 409.61728
1629.6509 407.48102
1631.4858 410.8122
1632.5442 412.5013
1632.0347 418.46844
1635.2734 417.83984
1637.3677 415.73236
1639.1555 416.84335
1639.7068 416.24792
1642.6832 416.62604
1641.9788 418.91016
1639.8418 417.728
1635.5228 423.51898
1631.7788 425.3182
1630.2471 426.15454
1629.1456 421.2933
1631.2075 418.2021
1627.6643 421.28125
1626.6543 419.40915
1627.9917 416.94525
1625.6445 414.7723
1627.5 413.19138
1624.9745 413.43317
1625.42 414.50192
1626.6829 417.6849
1624.1565 418.9139
1621.5997 419.00488
1623.5276 420.76782
1621.7408 423.76544
1620.9487 423.5897
1617.4238 424.84064
1615.0647 421.7933
1618.3403 419.05115
1621.542 417.98767
1616.6877 417.6867
1617.0892 415.6887
1615.4971 414.08505
1613.4739 417.11792
1612.192 416.57404
1611.3494 418.4024
1612.8975 421.10394
1611.6782 422.8236
1609.0446 425.84235
1606.8862 427.50937
1608.5242 426.35016
1611.8584 425.99084
1612.3816 427.5713
1616.9785 431.6169
1616.3453 433.57892
1617.8597 431.88464
1619.5535 432.1247
1618.6356 430.6087
1620.0042 429.1897
1621.2065 428.96115
1621.7896 428.6054
1622.99 427.4422
1625.6338 425.45715
1630.368 428.7452
1631.1353 426.99982
1632.2488 427.17175
1631.0653 428.90082
1630.5007 434.46637
1625.4482 433.8943
1621.0637 433.8308
1620.9294 433.9885
1623.8467 434.1125
1628.2288 437.30817
1628.9421 437.28967
1629.7385 438.56686
1627.6577 440.6056
1629.0869 440.50452
1630.5372 442.51245
1631.7994 442.40692
1631.4014 441.57736
1632.0913 440.11984
1633.0885 439.18707
1636.2134 438.2723
1636.4655 432.07642
1640.2703 431.00604
1638.5667 428.61108
1637.6509 427.1585
1634.1416 428.38965
1637.3013 426.4547
1640.6528 426.02673
1643.3617 424.93762
1643.655 428.73425
1644.6587 429.4696
1645.8865 431.19794
1645.9148 432.2475
1645.044 434.0335
1644.5674 433.8512
1642.3184 434.16257
1641.4763 434.35443
1642.4038 434.8111
1642.12 436.17633
1639.7766 436.61115
1639.7439 440.3108
1640.66 440.48325
1640.5945 441.16644
1643.043 440.85834
1645.0515 440.70184
1645.1453 445.78894
1645.6031 446.79477
1645.6207 452.8814
1644.4373 457.83765
1644.0801 455.32565
1644.9598 449.2147
1640.7848 447.53796
1640.2102 446.1628
1640.6343 444.83847
1639.54 446.39313
1637.7972 448.60834
1639.1174 452.53293
1638.3982 452.8026
1634.4971 452.7088
1632.9844 451.38086
1631.0071 449.2148
1630.7756 447.90125
1626.8545 446.46262
1626.9329 444.63806
1628.1216 442.40887
1624.0829 443.78064
1624.5925 447.68463
1621.8035 448.6541
1620.2507 445.91193
1618.946 444.37375
1619.2905 441.47296
1619.9205 438.44666
1619.9044 434.20685
1618.9382 435.69702
1617.0413 438.22296
1612.4353 440.649
1611.8503 438.99768
1607.0723 439.97064
1605.9054 439.57053
1605.0448 440.89255
1605.863 441.6098
1603.3754 443.64978
1601.8862 444.22662
1604.3153 446.7044
1607.9507 447.0334
1611.1001 447.81186
1611.8589 450.77026
1610.7834 452.39474
1609.0024 455.0714
1608.5447 458.41272
1608.1682 458.95224
1611.8757 457.4308
1613.786 456.67773
1614.3481 454.61188
1615.6653 453.22543
1614.6316 451.96124
1612.514 450.01215
1613.7273 446.11523
1614.5721 447.57446
1614.6029 449.79388
1616.4824 450.94617
1619.7869 451.62555
1621.1395 455.8205
1617.8947 456.65393
1619.8914 459.72162
1618.8206 460.36957
1613.4985 459.66516
1612.8618 461.3194
1608.8171 461.9935
1609.5848 462.9845
1611.6497 464.52252
1612.1442 466.46338
1614.3672 465.84103
1614.446 468.29138
1616.0353 470.31995
1615.9753 468.79944
1617.1699 466.9315
1621.3628 465.31906
1622.2163 463.2048
1623.309 463.3492
1624.016 464.1032
1624.8812 468.3365
1623.4214 469.97028
1619.5453 474.20404
1618.7908 475.3125
1621.2065 475.3403
1623.1483 477.0372
1625.3964 475.91125
1626.8003 474.78467
1627.7003 475.97687
1628.8787 475.00754
1629.727 472.77185
1630.3475 470.09348
1631.912 466.38788
1634.7141 461.44257
1634.6335 460.60938
1633.3649 459.49274
1632.8241 459.36407
1631.4198 457.1439
1629.3175 457.5843
1629.9083 459.75507
1627.5669 459.67746
1627.5953 458.92734
1625.1956 456.04407
1624.2678 452.3034
1626.8339 450.61536
1627.2775 452.5006
1628.5009 453.92734
1629.3855 455.05463
1630.6836 455.60162
1632.7742 455.04553
1634.1511 458.3565
1635.093 459.48456
1636.9629 459.3208
1635.9722 461.23877
1638.1965 462.5345
1639.0449 463.09006
1641.1788 462.01947
1642.2307 459.753
1644.4661 460.8662
1645.7921 463.34467
1645.1014 466.57407
1642.2484 469.41476
1641.5337 469.9969
1642.5477 469.40277
1642.1677 467.2894
1643.3242 464.8888
1639.3408 464.7735
1638.2239 466.1179
1636.9507 467.9604
1637.8203 469.01398
1638.2164 471.13425
1637.0575 471.7705
1634.7341 472.00348
1634.6675 469.97595
1633.5701 469.61182
1633.5874 473.4441
1635.8208 474.4214
1634.7516 475.58847
1632.0066 475.8829
1633.0437 477.5965
1637.406 479.59485
1635.8972 481.57748
1634.9995 482.66403
1635.7327 485.57422
1638.3768 489.9653
1640.8346 487.23926
1642.5864 483.56964
1643.981 480.98718
1643.0181 477.74362
1640.8059 473.2177
1643.485 473.64368
1646.4906 472.64243
1645.7369 475.35583
1644.541 480.471
1645.5833 485.5167
1641.102 489.62482
1640.701 489.95477
1644.8854 491.19562
1645.7468 493.1421
1644.1545 494.5304
1645.1403 496.37863
1647.1982 495.6029
1645.7468 498.1222
1642.5454 497.8309
1642.0079 499.81305
1639.7202 500.3971
1641.4302 504.51105
1640.8074 506.72437
1639.2869 504.04156
1638.555 503.25964
1636.4362 501.50446
1634.9058 500.61017
1632.495 498.8724
1633.5785 498.26486
1634.9575 498.87006
1636.8373 497.11005
1639.9523 496.00348
1636.0874 492.30377
1637.0332 489.3701
1633.8745 486.85944
1632.2028 485.54028
1631.4868 482.92114
1628.7659 481.8529
1625.9932 480.0959
1624.2229 478.68036
1623.6909 479.87286
1623.085 481.08167
1624.1887 481.32907
1623.1788 483.14148
1625.637 484.8808
1624.0269 487.20383
1626.093 489.09448
1627.4183 488.18127
1627.8972 487.3325
1630.7106 485.9262
1633.3748 486.17786
1633.0376 488.73883
1631.9597 491.03293
1634.759 491.59848
1634.3314 493.08484
1633.4539 494.38165
1631.239 493.85803
1632.6504 497.37927
1630.1438 499.75986
1625.0264 498.1051
1622.8777 499.56018
1624.0691 495.48373
1624.2627 490.33224
1622.8193 491.91974
1621.1294 493.3133
1620.2667 493.9729
1620.434 495.84982
1617.7686 494.34924
1615.8677 494.46164
1612.5774 500.89218
1613.8507 504.42648
1612.2867 504.77545
1612.2605 507.4277
1610.3455 507.40027
1610.27 506.56296
1608.6411 505.70135
1608.0312 504.36093
1607.6561 503.64548
1609.3091 502.48926
1607.2031 500.42493
1607.8127 499.0819
1609.489 496.38934
1609.9869 492.0835
1609.373 490.1725
1606.4667 490.21594
1605.1082 487.28925
1603.286 486.46375
1601.6716 487.3792
1601.4705 489.51257
1603.5278 489.74277
1603.8634 492.15634
1602.05 492.77673
1604.5503 495.22913
1604.1627 497.3036
1603.1255 501.3982
1604.8347 504.70578
1606.9167 510.54675
1607.0532 512.5054
1607.3561 511.74945
1609.8931 510.99475
1610.4395 511.4979
1608.1445 514.2075
1607.9076 514.28204
1605.5837 513.5137
1600.9309 514.43756
1599.4579 516.4165
1601.7688 518.0036
1604.9705 517.2908
1607.7427 518.4159
1608.8679 520.58875
1612.4415 520.2228
1615.2935 519.1229
1616.612 521.2122
1619.517 519.9434
1620.071 518.26
1619.3141 516.3987
1616.0271 515.3087
1614.2523 514.899
1613.731 515.6023
1614.8434 515.8781
1618.407 515.25977
1620.3901 512.31555
1620.7856 513.37897
1625.2517 512.5114
1623.8641 511.21838
1621.552 510.83017
1616.7991 509.62787
1616.7883 508.7535
1616.5049 504.99838
1617.9128 505.92578
1619.0781 506.39987
1622.4268 505.7699
1626.9852 505.5356
1629.3334 505.24313
1630.4825 503.56467
1631.1964 503.0709
1632.0521 502.76437
1633.6143 502.75647
1633.4706 506.44226
1633.5431 507.04388
1637.7205 507.94675
1641.5328 510.02606
1640.4348 513.20557
1642.774 511.16638
1645.9971 507.8795
1646.7384 505.47797
1645.9963 510.4231
1646.051 513.24646
1644.841 514.94293
1645.2135 516.1247
1642.6365 514.3789
1640.6886 517.18146
1640.4583 518.1014
1636.9009 522.6238
1635.3594 522.35516
1636.6947 524.2042
1637.4866 524.29
1639.969 522.6868
1642.0454 521.8738
1642.761 521.78845
1644.407 520.14453
1646.7628 519.7706
1647.0511 522.1483
1645.8075 521.72046
1645.0099 521.6281
1644.2136 524.10376
1644.9932 525.5704
1643.7035 529.1229
1642.3434 529.4055
1644.021 529.2786
1643.6704 529.838
1643.9866 532.08167
1644.561 535.4818
1644.6965 535.7867
1643.8608 537.268
1642.7537 535.8946
1640.091 536.1225
1637.1577 535.53485
1638.2781 532.5352
1637.5107 530.1746
1637.1377 528.6648
1635.6399 531.1804
1634.7853 532.08984
1633.2544 531.8485
1634.0193 528.7072
1630.044 528.12195
1629.7212 526.6667
1629.2217 525.5349
1632.5886 523.46014
1630.5898 523.1292
1629.6478 520.81354
1626.2029 518.194
1630.0005 515.3136
1629.4481 511.60565
1630.1145 512.2829
1628.6793 513.1127
1626.5112 514.32965
1626.6571 514.88446
1624.3894 519.46295
1623.1519 519.0162
1623.5485 521.8772
1625.353 523.5594
1625.4557 524.4411
1624.1852 524.4337
1622.9911 526.23773
1626.801 528.56415
1629.731 528.59546
1629.9636 530.0859
1627.9899 534.6033
1625.1025 534.541
1626.1692 532.1456
1620.0393 533.2995
1619.167 531.20404
1616.8904 529.73914
1614.1147 531.82654
1617.6515 535.1633
1617.0881 535.9283
1614.572 535.2298
1612.51 535.62866
1611.8948 534.5032
1608.5779 533.78253
1607.1681 534.28375
1606.624 535.13684
1604.9976 537.7045
1604.6962 537.4107
1602.7863 537.22705
1600.7771 537.2722
1600.9456 536.179
1599.4297 534.3983
1599.483 531.0965
1599.9061 528.597
1602.5215 527.7891
1603.2313 527.48566
1604.0347 527.89966
1602.9635 529.6974
1603.5334 530.1161
1605.2288 532.84766
1608.0757 533.07135
1611.3208 530.0222
1613.0576 529.69135
1615.7219 524.9513
1611.9614 521.7053
1609.2395 522.0421
1608.0529 522.9178
1607.5375 520.83545
1603.5828 521.516
1601.6 523.4535
1600.3237 525.81726
1598.1044 524.83057
1597.3162 517.33545
1598.7019 516.9808
1597.9329 513.82965
1597.2136 511.675
1601.1206 512.91675
1603.3907 511.25635
1601.4207 507.77783
1600.2404 506.3053
1599.1215 505.85785
1601.7485 504.7174
1600.3762 504.64856
1598.8174 502.03046
1597.8892 498.9322
1598.2043 497.45123
1600.9475 497.851
1600.022 496.24228
1598.2986 494.5138
1596.3228 489.73044
1597.6918 488.5108
1598.6976 486.61554
1599.2561 486.03732
1597.988 484.57416
1599.6609 483.8532
1601.3132 484.24335
1600.4178 482.5549
1601.1807 481.55286
1598.9043 481.227
1599.549 475.8122
1599.3407 473.92712
1598.5125 469.93735
1596.7314 469.06567
1595.5165 464.235
1597.4487 461.67
1598.8491 463.31894
1597.5281 464.62302
1599.3744 465.65656
1601.1031 465.3508
1601.3746 464.25778
1601.771 464.10275
1604.4423 463.28326
1604.0359 466.1848
1602.1588 468.4596
1602.9172 472.1458
1603.2856 472.6112
1604.3494 473.25067
1606.5999 472.19995
1607.7062 473.4132
1607.9187 479.5189
1607.05 482.32907
1605.1613 483.20578
1607.8502 484.8526
1608.8145 485.4078
1609.519 486.8148
1609.256 487.8502
1610.8145 489.12476
1611.69 489.4095
1611.721 489.40146
1612.3066 489.41138
1614.6813 488.07306
1614.791 488.96857
1615.2109 491.0294
1615.2019 492.32138
1616.3958 494.13104
1618.3383 491.9981
1619.5745 489.7198
1617.5502 489.08197
1619.0317 485.93512
1618.9506 485.64575
1619.3042 482.43307
1618.6306 479.25534
1617.0061 479.7843
1616.4412 479.10437
1614.3865 482.6618
1611.789 483.49335
1611.1307 482.125
1610.2693 481.22595
1609.9213 480.34106
1613.3044 478.65796
1614.9712 477.98645
1614.6233 476.8673
1613.8135 473.72852
1612.0308 473.6999
1610.1096 473.28162
1611.8652 469.9924
1609.2494 467.19812
1606.7665 463.0915
1606.0244 461.36786
1602.6661 457.40625
1600.75 456.93726
1599.4628 457.48737
1598.4219 457.34937
1598.5709 457.2223
1600.8615 455.80746
1599.8549 453.51367
1599.1819 452.59027
1600.232 452.69177
1601.8486 453.80002
1604.4584 454.04657
1605.7761 452.19818
1606.3159 451.52414
1608.0674 449.99878
1606.9763 449.31323
1605.8242 449.7708
1604.762 448.92075
1603.4578 447.8562
1602.7817 451.48242
1600.447 448.96564
1598.1458 448.33252
1599.7778 444.82043
1598.7307 438.99445
1599.221 435.27304
1598.1359 435.19012
1597.3503 435.00873
1598.8427 434.70724
1599.8907 434.03854
1599.6598 430.62936
1603.2932 431.52264
1610.3425 433.94012
1607.468 431.17062
1606.1438 427.4334
1605.6824 426.97028
1603.8467 427.74286
1603.7334 427.9834
1604.3752 429.01218
1603.8745 429.4033
1598.7516 428.33032
1599.7039 426.60742
1601.7538 425.02756
1601.8629 423.9651
1604.5276 426.02423
1605.8875 424.17963
1603.2001 419.68616
1600.0348 419.24164
1597.5669 423.31357
1597.9332 421.66504
1599.2697 418.0385
1599.2991 416.83215
1599.366 412.2092
1595.458 411.88605
1596.9136 408.77386
1603.7991 410.67236
1602.7614 414.3048
1602.0331 415.8686
1602.2798 416.79376
1603.1628 417.58575
1603.8945 415.75354
1606.7015 412.46912
1611.7173 414.11084
1613.235 407.43625
1615.9116 408.08505
1615.9465 407.29364
1617.4459 404.80414
1617.5697 402.37268
1615.176 399.05234
1615.495 398.24567
1615.7126 396.6164
1611.3561 391.01962
1607.7072 389.78656
1604.5957 390.76056
1604.5315 387.05795
1601.31 384.06335
1603.2222 390.98767
1605.8519 393.37726
1605.418 396.28973
1605.803 397.65503
1606.7189 399.86517
1608.7981 398.84262
1609.6499 400.88422
1607.6335 402.75458
1606.5038 406.51416
1605.065 405.5644
1602.9419 406.56805
1599.9015 405.6975
1597.0122 403.05865
1596.1626 401.78918
1599.0996 399.08862
1600.3053 399.14084
1597.6156 393.6347
1599.4836 391.77942
1598.1069 388.8431
1596.6296 386.6709
1596.8029 378.6882
1596.7185 376.33224
1596.6895 375.0262
1600.2925 371.45087
1600.4729 373.27972
1599.6963 375.35117
1600.4089 378.07794
1600.1094 379.66864
1602.3647 378.93054
1605.8208 376.52573
1607.0072 376.0014
1607.4387 375.17444
1606.7485 373.59946
1605.436 373.65088
1604.8508 372.88632
1605.4785 371.09583
1608.4792 371.03378
1609.1338 375.69354
1610.0062 376.6567
1609.2402 377.368
1607.8088 377.2661
1609.2771 378.1377
1607.8496 381.7677
1609.9164 382.2437
1610.1617 381.23492
1612.8816 378.04382
1613.4088 374.47272
1613.4241 373.92844
1614.0054 371.89185
1612.9155 370.28168
1611.4612 369.87302
1610.6914 367.0315
1609.8123 365.2871
1608.729 365.48798
1607.4021 363.8719
1605.1841 362.77246
1604.7546 362.5732
1604.178 362.32455
1602.4121 359.96674
1600.761 360.32404
1599.9443 363.49777
1598.3043 367.2459
1598.1761 369.05258
1598.0504 363.97113
1597.1462 356.88318
1596.4012 350.07343
1597.5294 348.2872
1598.5997 347.0822
1601.814 348.19025
1603.1902 353.5786
1605.5875 357.26642
1606.0916 359.8884
1607.2928 360.60266
1608.8514 359.27264
1608.6797 356.02536
1607.688 354.7927
1608.877 353.0572
1609.1702 352.16394
1607.4866 349.10138
1606.3959 344.95322
1604.5679 345.00244
1603.7761 346.25977
1600.752 345.92624
1597.633 345.57678
1599.3757 343.04916
1600.829 343.1704
1600.96 344.18158
1602.2094 342.9691
1604.7922 342.11688
1603.7778 338.30847
1601.6016 335.47125
1600.1438 332.80707
1602.1287 331.05707
1601.5681 331.7917
1605.7976 338.26392
1607.5579 339.22223
1609.6792 339.065
1608.88 338.76886
1607.7744 335.50302
1607.6509 333.43985
1610.7458 334.44232
1610.023 333.59222
1608.4453 332.05585
1607.4481 331.07852
1605.1373 325.8742
1599.6647 326.75684
1600.9568 324.4397
1601.5256 322.1823
1596.6638 322.16562
1594.3693 321.67108
1590.2842 321.59143
1593.4453 320.57703
1594.2893 318.39618
1593.2112 317.66882
1591.7695 315.76978
1586.5208 314.1792
1586.298 314.32693
1587.772 311.82645
1586.2397 308.91467
1586.9834 307.15692
1590.403 308.28467
1592.5385 309.61853
1593.456 306.76276
1594.6523 305.75714
1594.9814 300.91434
1594.6719 300.45358
1595.333 299.58514
1596.9126 300.50702
1599.9968 305.02475
1598.7808 306.265
1597.1829 305.2926
1597.3312 306.6481
1596.3572 306.6494
1595.8842 306.6726
1594.8926 309.98322
1594.721 312.16925
1595.3024 313.46808
1594.9467 316.99625
1594.5793 319.01428
1596.8723 319.25354
1601.2534 320.7883
1601.6823 319.8379
1601.9885 319.44354
1603.471 321.20374
1604.4756 320.29517
1605.869 322.63297
1607.6284 322.18933
1606.9402 318.88922
1607.3986 314.63016
1606.2826 314.60492
1604.8826 313.29074
1604.1033 315.5113
1599.6997 315.38477
1600.6204 311.7691
1603.5897 310.99976
1606.8701 309.10425
1607.2096 308.67938
1605.8721 307.89893
1605.9335 307.01288
1606.0029 303.26788
1610.1593 303.86093
1609.8176 305.99832
1612.7345 307.14386
1612.9005 308.81445
1615.5273 308.10358
1616.929 310.10504
1617.3783 310.97968
1616.9187 310.94336
1615.0881 309.43713
1613.45 311.69086
1613.9285 313.97095
1618.2578 312.62573
1622.6362 309.69662
1622.9956 314.07986
1624.874 313.94507
1624.4849 310.77118
1628.5562 308.78314
1626.4966 305.0046
1628.5018 302.11548
1627.8716 298.37634
1627.9143 297.78687
1628.9128 296.07733
1630.4724 293.52472
1628.9082 291.3227
1626.987 291.20514
1625.0283 294.88977
1625.45 295.3012
1625.7388 297.17966
1626.6729 299.48846
1626.0239 303.95087
1623.6321 304.3676
1619.6229 305.41098
1619.3248 304.4018
1616.0017 305.8277
1614.5302 305.4429
1613.0574 298.85092
1614.6133 299.12
1616.496 298.01514
1617.123 298.30856
1618.7001 299.22125
1620.3252 298.56848
1619.22 296.47107
1619.01 293.82373
1620.3761 294.27908
1621.4106 290.64737
1623.2312 290.792
1622.8077 288.54755
1623.2449 287.25964
1624.1967 287.63318
1624.7582 287.43414
1624.3597 287.05005
1625.2 285.85904
1624.0713 285.50702
1619.5887 285.3683
1617.7665 285.52374
1616.5903 289.10938
1616.0552 289.36353
1616.8545 285.7917
1618.5499 285.2274
1623.2925 284.1836
1624.6272 282.10422
1625.8219 281.63562
1627.5352 281.42383
1629.77 283.1928
1628.5396 285.437
1629.0924 289.1242
1630.1305 288.79147
1631.9323 287.95068
1632.4156 287.03552
1634.6748 288.51984
1635.5409 291.37543
1640.9747 290.0979
1642.1456 290.0057
1639.419 293.57538
1636.0382 296.31628
1637.6866 298.17282
1638.3032 295.555
1634.8601 294.32507
1632.5743 296.56165
1632.4398 298.2839
1631.1315 299.04437
1631.5972 300.6565
1635.5193 301.5711
1638.7206 302.16302
1642.2888 304.5484
1644.5236 302.67694
1644.526 302.34268
1644.4681 301.2926
1644.2725 299.65982
1644.1321 298.68677
1644.4144 297.07935
1645.061 294.91284
1644.8345 294.29614
1644.7523 292.79034
1646.2218 292.29868
1644.257 290.66693
1644.352 290.56442
1644.0876 287.84964
1643.8296 286.71088
1643.023 283.0263
1645.7539 280.5186
1643.5184 278.5571
1645.3865 277.31317
1642.7197 275.60025
1642.1129 273.8285
1639.6267 273.71866
1640.942 273.5257
1641.9421 272.00742
1640.926 270.0048
1643.2676 271.0248
1646.356 269.7517
1645.8064 269.2744
1645.2615 259.56735
1643.5573 255.28412
1639.0803 254.89249
1637.7322 255.38318
1636.2109 257.9974
1638.9993 256.6456
1639.3186 258.46222
1639.3435 259.33356
1637.0472 263.05542
1635.4517 262.03415
1633.7388 266.0868
1634.7029 268.06757
1633.2589 269.5167
1637.2726 267.599
1637.7565 268.69406
1637.2935 271.72424
1637.1187 274.0325
1636.2833 274.4272
1638.6829 275.68585
1640.0808 275.21826
1639.2452 279.14542
1641.386 279.55463
1641.3804 281.98737
1635.1423 285.0487
1633.5409 283.67407
1630.6447 278.8517
1631.9287 276.1047
1631.1744 276.02942
1629.9159 275.11572
1627.508 275.23798
1626.9502 276.21667
1628.3203 274.82916
1628.2075 270.60303
1629.5563 270.2563
1628.7987 267.56567
1628.8109 267.28577
1627.8455 266.81677
1627.3721 261.09216
1631.5187 257.27173
1633.9943 255.90324
1628.5859 254.53728
1625.5386 257.15707
1626.7153 258.14514
1626.8252 261.3932
1625.3849 262.71814
1621.6493 262.81625
1621.0422 263.59198
1622.2374 265.3673
1620.6987 266.32797
1619.9957 266.5196
1622.6404 267.29114
1625.3081 269.73572
1623.4943 270.91602
1622.6038 272.53442
1622.8652 272.96893
1622.3347 274.12045
1620.808 273.3799
1618.7297 273.87796
1617.4824 272.706
1618.2393 269.74445
1616.8125 269.2578
1616.8612 268.162
1615.1741 268.94525
1613.786 271.87057
1616.0082 272.2838
1616.3954 275.01373
1615.0955 275.59473
1615.2375 277.35562
1616.8535 277.7024
1617.5764 275.9131
1617.9951 275.9823
1620.0292 279.77252
1617.3301 282.93524
1615.6107 282.93347
1614.8298 284.17017
1611.9722 285.43
1609.685 285.45728
1608.1604 291.3157
1607.3496 291.9193
1610.2241 292.9698
1613.6241 296.00113
1615.5697 294.9015
1611.8079 295.41394
1607.6702 297.07825
1606.9445 296.6504
1607.0627 297.11304
1607.1836 297.50134
1605.1719 298.48685
1603.9053 297.49518
1602.2598 299.8695
1600.6583 299.0553
1600.7488 297.74258
1603.258 296.9311
1603.031 293.51544
1604.6195 293.65588
1605.9729 292.55966
1604.4087 291.30774
1605.4724 289.8706
1607.7255 287.90234
1606.9369 282.8438
1609.0314 282.58344
1610.3534 281.95404
1610.6432 279.62488
1611.4113 277.15186
1611.5748 275.57333
1609.0999 276.6543
1608.3069 278.48727
1606.773 279.77692
1605.2399 278.7791
1600.9637 282.1154
1603.9558 283.82016
1604.8713 286.56723
1603.2483 286.34143
1602.441 288.02133
1601.6765 288.76743
1598.8243 287.83942
1597.8732 290.72693
1598.8142 292.78528
1600.6589 294.3039
1597.529 296.55438
1594.8027 296.0949
1590.9777 291.51477
1591.9956 289.3456
1588.1908 291.8186
1587.2548 294.6798
1583.0732 295.76477
1582.2402 298.8944
1583.1735 298.45453
1585.7534 299.35443
1587.0784 299.36655
1588.6216 298.1469
1591.6863 295.7187
1593.9458 299.8735
1594.0586 300.98114
1592.0684 300.60364
1590.2722 303.00082
1588.2638 302.1137
1583.8167 302.96695
1584.4069 307.34442
1581.9816 304.67096
1583.0093 303.6863
1582.5583 302.67853
1580.7378 301.73346
1578.6693 300.45648
1574.8131 300.01306
1574.9875 302.507
1571.5544 304.72095
1570.8623 306.119
1568.8746 304.29877
1564.9814 307.12573
1566.8691 312.60516
1563.5754 311.67197
1562.1848 310.59998
1557.091 311.85056
1560.1409 313.5385
1563.3093 314.15588
1565.6421 314.53394
1561.2646 317.8371
1564.3071 319.60092
1563.3062 320.391
1565.7335 323.8874
1569.7784 320.91638
1570.2343 322.74286
1568.9128 326.15985
1568.792 327.06378
1572.4597 325.82883
1574.7897 327.2345
1574.5103 326.1797
1576.3647 323.13455
1575.0785 322.37537
1576.2354 321.12537
1577.1714 319.8579
1573.8083 318.2102
1572.1112 317.19864
1572.2395 315.77722
1571.194 315.60812
1568.2396 315.537
1570.7922 314.3833
1572.3159 313.82672
1574.8557 312.5135
1576.0215 310.51132
1575.6619 308.75357
1576.169 306.59296
1576.8551 306.06808
1576.9694 307.24414
1580.7582 312.33203
1580.3445 313.29434
1579.1562 315.4372
1577.5283 315.05072
1577.8224 318.10236
1578.8171 317.8789
1580.4397 316.38196
1584.581 316.70435
1584.6759 318.1521
1582.3014 318.8839
1583.9583 322.74707
1581.4082 324.14444
1582.4403 326.48468
1583.2056 326.37015
1584.8208 325.19775
1585.8429 325.9963
1587.1013 328.0506
1586.9606 328.26337
1589.1243 333.08618
1589.5939 333.7064
1591.739 334.5722
1591.07 329.09265
1589.2349 325.62134
1587.8425 324.04865
1591.0676 326.14673
1593.43 328.4994
1595.373 330.30417
1594.5781 332.45364
1596.2039 335.32227
1593.4514 336.69217
1589.6028 336.71118
1584.3776 335.84637
1584.3112 330.23093
1583.9373 330.65366
1580.9386 332.92206
1580.14 336.8317
1579.007 337.0744
1577.7803 334.7696
1576.8738 333.1463
1576.0621 333.34494
1576.1641 331.9223
1577.2854 329.95215
1576.4575 330.12958
1573.2106 330.07004
1570.9232 329.8794
1573.0502 334.01508
1572.1007 336.81012
1569.6029 337.6486
1568.6053 337.25885
1569.0505 335.66956
1567.0063 333.8095
1565.3774 335.97256
1563.0123 343.15558
1557.9042 340.85184
1556.6144 340.92853
1552.6667 341.40265
1549.9497 346.83002
1548.0338 347.7719
1547.0385 349.08844
1544.4302 349.9226
1545.2563 351.63962
1546.5208 351.4243
1547.3845 350.73767
1551.2412 351.38718
1552.1477 351.0587
1554.8876 349.13477
1555.0735 345.50928
1557.4952 345.5072
1558.7567 346.08704
1561.7615 348.333
1560.8469 349.49554
1563.0488 351.67084
1564.2522 351.46588
1566.5907 348.24628
1568.3158 347.1137
1568.6514 342.6417
1572.1251 343.18628
1577.0864 341.98895
1580.8406 341.03473
1583.217 342.36108
1577.7013 343.51913
1575.6 345.30063
1571.446 347.13354
1571.2937 348.78815
1569.1055 347.17392
1566.9545 349.5311
1565.1831 352.19135
1563.2239 351.9618
1561.2788 352.17856
1559.4136 353.7667
1560.4137 351.19247
1558.0424 350.5437
1553.003 351.61853
1552.5592 352.10742
1553.7007 358.05804
1552.7184 359.30502
1549.3369 356.3175
1549.0912 356.0245
1546.949 355.57455
1545.8549 354.15768
1544.7158 355.03403
1543.8362 354.8099
1542.7126 355.12756
1541.7305 355.65662
1543.7595 356.11346
1544.8583 356.27216
1547.1523 365.03113
1544.2102 364.9608
1540.7229 363.21222
1540.7458 362.10947
1540.7283 361.2514
1539.1233 357.83044
1539.3971 356.41602
1540.7195 352.53357
1543.5685 347.10608
1539.6035 344.83728
1540.4968 342.11664
1544.9647 340.4233
1545.1744 340.68915
1545.648 342.28784
1547.6019 341.28625
1548.7783 341.20544
1547.0391 339.24863
1549.5447 337.52106
1549.7762 337.36703
1550.9639 336.89545
1552.7924 336.83054
1557.0758 335.3236
1558.7244 333.12756
1560.5293 333.16974
1560.5669 332.57886
1562.3809 331.1982
1564.6328 330.82843
1563.5972 328.28098
1561.9684 326.70764
1561.0045 325.07434
1559.5562 326.78006
1559.4551 326.8141
1557.7249 329.4325
1555.9514 332.59668
1554.6991 331.8698
1552.1733 333.40076
1550.3185 330.98163
1548.3867 332.6796
1546.7175 333.71448
1546.0983 335.99652
1546.6908 335.7212
1544.886 334.3158
1544.2078 330.91553
1543.7826 326.99115
1545.2134 325.8063
1547.4414 320.47278
1551.0322 323.59433
1551.3317 324.1637
1551.4015 326.45483
1553.7814 324.06787
1554.4084 320.46164
1555.5137 318.5396
1553.5408 315.21002
1553.0807 315.8681
1550.8197 315.40674
1550.365 317.95364
1549.8069 317.9066
1549.1786 317.5959
1549.0609 318.3714
1547.0436 318.47797
1546.3733 319.51385
1545.2384 319.5489
1540.1843 319.74066
1540.2805 321.5619
1541.2725 321.381
1541.1062 323.759
1541.5164 325.74066
1543.004 327.83798
1541.5164 332.50095
1541.1318 335.15945
1541.8875 336.20023
1540.4678 335.4834
1540.1525 335.3239
" />
</g></g></svg>
