<?xml version="1.0" encoding="UTF-8" standalone="no"?>
<!-- Created for Inkscape (http://www.inkscape.org/) -->

<svg
   xmlns:dc="http://purl.org/dc/elements/1.1/"
   xmlns:cc="http://creativecommons.org/ns#"
   xmlns:rdf="http://www.w3.org/1999/02/22-rdf-syntax-ns#"
   xmlns:svg="http://www.w3.org/2000/svg"
   xmlns="http://www.w3.org/2000/svg"
   xmlns:sodipodi="http://sodipodi.sourceforge.net/DTD/sodipodi-0.dtd"
   xmlns:inkscape="http://www.inkscape.org/namespaces/inkscape"
   width="3200"
   height="800"
   id="svg2985"
   version="1.1"
   inkscape:version="0.48.1 r9760">
  <defs
     id="defs2987" />
  <sodipodi:namedview
     id="base"
     pagecolor="#ffffff"
     bordercolor="#666666"
     borderopacity="1.0"
     inkscape:pageopacity="0.0"
     inkscape:pageshadow="2"
     inkscape:zoom="0.35"
     inkscape:cx="1600"
     inkscape:cy="400"
     inkscape:document-units="px"
     inkscape:current-layer="layer1"
     showgrid="false"  />
  <metadata
     id="metadata2990">
    <rdf:RDF>
      <cc:Work
         rdf:about="">
        <dc:format>image/svg+xml</dc:format>
        <dc:type
           rdf:resource="http://purl.org/dc/dcmitype/StillImage" />
        <dc:title />
      </cc:Work>
    </rdf:RDF>
  </metadata>
  <g
     inkscape:label="Layer 1"
     inkscape:groupmode="layer"
     id="layer1"> 
     <g>
<path style="fill:none;stroke:black;stroke-width:2px;stroke-linejoin:round;stroke-linecap:round;" d="M 
1628.0994 531.0391
1629.6884 533.10834
1629.6884 539.9839
1623.1274 536.52344
1621.1453 536.10455
1620.5654 536.29376
1616.4108 537.1394
1610.1709 538.3053
1607.3325 536.851
1605.4098 536.1566
1603.8708 538.87463
1601.3752 537.7655
1598.6375 535.1063
1598.5103 534.38257
1597.4324 533.99695
1592.2207 533.9375
1590.5479 536.7585
1589.6633 538.5466
1589.2314 533.18036
1586.8372 528.1337
1589.485 528.4631
1591.879 528.96
1592.7549 526.9005
1594.5436 530.01794
1596.7031 528.19586
1600.0547 532.7243
1600.3132 533.2676
1601.6265 533.0862
1604.5338 532.8331
1606.3279 533.20416
1607.3618 533.27454
1608.8022 533.18024
1610.4319 531.5514
1608.5283 528.25696
1613.151 529.5625
1620.5466 535.1748
1627.2286 530.46857
1628.7188 528.29346
1628.9912 529.5699
1632.0247 529.77
1633.0319 525.63837
1633.3749 523.84656
1627.6757 523.6201
1625.598 525.91064
1622.8346 523.23987
1624.2827 521.4082
1626.7064 521.9258
1628.1426 520.4483
1625.3357 517.40045
1628.4044 517.55664
1630.7499 515.1454
1634.0442 517.65985
1636.7341 520.15674
1638.6271 519.2331
1639.2158 515.7723
1640.9725 513.175
1639.9155 514.40686
1639.9272 518.90326
1643.7327 518.7458
1640.7876 521.2356
1644.0281 525.8777
1643.0546 528.8377
1641.6387 528.09937
1639.9283 526.2127
1638.2728 526.50916
1639.1064 529.1123
1637.2451 528.95593
1635.7216 532.7144
1635.0859 532.87787
1637.1902 533.37775
1635.8663 536.1737
1642.1125 539.24554
1646.5917 537.365
1648.1245 532.85
1647.1976 531.2514
1643.0405 531.6274
1642.561 530.5872
1640.8281 529.68225
1641.9491 529.8566
1644.567 528.5211
1645.8304 527.35876
1646.554 524.72424
1648.8715 525.13354
1647.6293 521.5545
1651.203 520.3205
1652.9524 521.89954
1654.2661 521.64246
1654.4402 522.2273
1656.9724 522.55725
1654.6709 522.4396
1654.1086 527.76276
1654.3601 529.708
1653.7303 530.6358
1655.6337 533.1045
1653.7104 533.42773
1653.2317 536.027
1655.1562 536.4518
1656.125 534.8539
1661.1658 534.5196
1659.2083 531.6819
1658.5647 530.9077
1660.2231 528.9481
1661.1132 530.55115
1662.4972 532.377
1667.851 534.4144
1668.3842 538.8529
1670.3174 537.9103
1671.0769 538.9437
1670.804 537.444
1671.6399 536.1399
1670.7618 534.55457
1670.3733 531.84155
1669.8246 530.4225
1669.5203 527.93933
1672.0325 528.39014
1672.8911 530.25854
1674.0543 529.12683
1674.8054 529.6563
1675.8899 529.7616
1679.2166 529.5928
1678.1823 530.59955
1676.6471 535.1054
1679.0851 535.05255
1680.2505 539.5326
1685.1011 538.71875
1687.9438 534.9535
1692.2034 536.2266
1694.4674 534.3672
1695.6862 535.8086
1697.4155 537.80054
1697.5664 533.1249
1696.597 532.07544
1694.7727 530.8108
1697.5408 528.23035
1695.7579 524.3459
1698.5188 520.4708
1697.6608 518.6885
1697.2345 508.7541
1698.0864 505.67795
1695.8706 504.14606
1695.9246 499.18463
1694.7085 494.93817
1692.656 497.97766
1690.4822 502.8629
1687.3264 504.0999
1686.1975 503.63632
1682.9807 502.11353
1682.9674 505.5617
1680.9624 506.4067
1683.654 506.02902
1689.0096 506.2646
1688.9308 509.83728
1686.6958 511.31723
1690.228 511.35913
1691.2405 515.65173
1688.341 518.25183
1689.6428 521.49146
1691.3267 521.71735
1693.7064 522.3446
1695.6294 528.60956
1691.6882 528.2755
1691.0205 529.3038
1690.6603 527.82983
1686.5535 524.9041
1684.5082 523.2332
1684.2148 517.9954
1677.669 514.93414
1679.9032 512.37506
1685.2986 517.66833
1683.8066 520.2235
1685.3679 523.9224
1685.2897 527.5222
1684.477 527.7721
1678.574 526.1277
1677.0513 524.4889
1676.7026 524.5846
1674.0076 526.161
1671.6199 525.0812
1665.6968 523.3226
1665.5093 520.34656
1668.9006 518.1188
1669.4932 516.963
1670.9756 515.05884
1670.6658 514.75085
1666.524 512.79297
1662.8882 512.0527
1662.7766 515.5818
1664.45 517.09485
1662.6798 518.0186
1660.6057 518.79584
1659.1519 516.143
1657.3848 518.40424
1655.1376 516.9438
1653.7437 516.46906
1652.7185 517.416
1649.7034 513.2891
1646.8918 507.56076
1647.3264 507.1985
1650.6777 508.56927
1653.4624 505.0433
1656.3252 506.25745
1654.1057 507.21982
1653.9124 510.63342
1656.3478 510.47995
1658.3699 511.60382
1659.6456 506.93658
1664.4343 510.3471
1665.6407 511.0167
1666.1161 510.39203
1668.6733 508.37598
1670.138 508.93683
1671.1843 506.29733
1672.5615 507.14594
1674.1029 508.95343
1678.7454 510.65417
1677.1422 509.3296
1673.4807 507.28867
1673.8567 502.4248
1675.5576 500.86487
1674.8845 498.76025
1675.2448 497.96674
1676.6556 497.54004
1679.3508 497.024
1677.9731 495.9055
1676.5879 496.26877
1673.76 497.32153
1673.2982 501.28378
1667.8177 499.57373
1667.7725 499.30026
1667.6082 499.02524
1662.4143 498.89398
1662.2108 499.83008
1662.4138 502.81476
1661.7817 502.5268
1659.3112 498.79688
1656.5714 496.45114
1655.4579 496.4591
1654.4684 497.55173
1650.5852 500.6277
1650.3557 502.95325
1645.2932 497.76035
1642.9535 496.23618
1638.5325 497.6411
1640.3987 503.16266
1635.9705 502.8137
1634.7913 502.58188
1631.2828 497.1252
1630.237 498.13055
1624.6536 502.48645
1623.8552 507.3575
1627.964 505.05627
1632.488 509.07196
1638.0393 507.95615
1639.2703 507.021
1643.5247 506.4771
1643.6122 506.94257
1645.0647 510.5296
1639.4257 508.22446
1632.7607 509.72226
1632.9868 511.76392
1630.3688 513.24164
1628.6392 512.6515
1623.4241 513.81396
1621.977 510.93542
1616.9678 514.55756
1616.1837 509.79962
1621.3153 510.5661
1619.6018 507.49908
1615.1287 507.8861
1614.5234 510.24023
1610.6869 510.68307
1610.6975 505.40326
1612.0171 504.3929
1613.9907 502.80377
1616.6265 503.95334
1617.2449 502.37314
1618.3948 503.6014
1620.7286 503.23764
1621.4967 501.52438
1622.1533 501.98987
1624.5442 499.84534
1625.397 496.40778
1623.4819 496.83722
1621.4978 497.04358
1614.6024 494.94336
1610.0149 496.44113
1608.1559 498.1018
1609.6609 499.25546
1610.0027 505.502
1608.0166 505.35678
1607.2953 504.80368
1603.6024 504.27234
1603.4419 504.95602
1601.611 506.99933
1603.4541 509.9049
1600.2908 509.41928
1598.0303 510.79883
1597.543 509.92697
1596.0872 509.11816
1596.5115 508.34824
1599.3479 503.4215
1599.4261 503.16937
1595.2128 502.2496
1597.1149 500.78696
1598.8759 502.25098
1599.6647 500.87604
1599.7802 500.17514
1601.6357 498.57098
1599.3716 497.4729
1597.6606 495.89804
1595.8438 487.5815
1595.2355 485.96136
1592.4165 488.11118
1592.1633 483.4233
1590.9111 483.6744
1586.5991 486.46973
1583.4127 488.11572
1584.1028 492.15753
1585.2816 491.5882
1588.1526 492.67358
1588.8281 493.86084
1585.037 494.99887
1586.3568 497.4095
1585.7881 499.06012
1582.6443 498.5664
1582.4165 496.98984
1580.79 499.30243
1580.4434 498.67847
1578.1941 497.73273
1577.6895 495.28235
1578.27 495.2085
1579.7095 490.8475
1578.1992 489.54916
1579.3027 485.82904
1580.9803 488.18835
1582.8883 486.42432
1583.5107 484.70224
1584.856 484.37805
1585.2732 482.74323
1588.9718 481.49835
1594.6727 480.01193
1596.4398 480.6047
1597.4027 483.4588
1597.3109 485.1327
1599.933 483.6322
1601.2864 480.30457
1601.7518 476.86908
1604.5303 474.45544
1602.9535 474.13693
1598.293 477.01376
1595.5352 475.63538
1595.5549 474.84824
1595.5635 472.2634
1591.8446 474.38782
1589.5847 477.86166
1586.736 477.1703
1586.6602 477.03378
1584.2314 478.99164
1584.6931 479.8158
1580.9 481.32953
1579.0052 483.84064
1573.9883 483.27094
1573.7499 481.269
1573.3752 484.029
1573.7769 484.62802
1572.2383 487.21893
1572.5107 488.29425
1569.4253 488.5997
1568.5559 485.7353
1568.2195 484.40985
1561.6699 487.84433
1563.9161 490.52136
1565.3423 494.04407
1567.1625 493.6969
1568.7302 493.21173
1569.8439 492.32434
1570.8237 491.97968
1570.7625 495.48926
1569.1874 495.98352
1567.3408 498.90277
1569.8079 499.8995
1569.3962 502.1268
1568.6732 502.74774
1567.0479 502.35187
1566.089 502.51324
1563.4951 500.85236
1564.9172 496.88593
1562.7045 495.54346
1558.1313 498.0196
1557.8855 491.96603
1560.3472 489.58798
1558.4429 488.31342
1557.1716 488.5927
1555.4252 487.88684
1555.4055 483.25458
1552.4922 484.80426
1550.123 486.9334
1547.6344 491.3523
1549.3945 493.4417
1547.1726 493.40866
1545.3031 494.34042
1546.8047 499.14038
1550.0448 500.78833
1551.4639 501.41266
1557.3265 505.78745
1560.5072 510.2497
1563.6504 506.7425
1564.669 504.02747
1567.9303 507.76855
1564.4078 514.1553
1564.3246 514.61755
1562.7468 514.30975
1562.1387 513.25793
1559.4111 515.08875
1555.3735 512.9678
1553.8635 513.0296
1554.2375 514.66077
1557.7698 516.598
1560.3622 516.5205
1561.027 516.3258
1564.7605 516.96375
1568.3372 515.4187
1569.3805 517.9747
1567.1158 520.109
1567.5951 521.72363
1561.0039 520.9852
1561.7957 525.33704
1566.161 524.3658
1568.5244 522.943
1571.0471 521.17505
1569.8309 519.3277
1571.9072 519.05005
1572.0374 517.4278
1573.5756 515.0268
1572.112 510.65332
1571.918 504.45566
1571.8398 503.9233
1573.0546 501.3525
1572.9231 500.46393
1576.4813 497.37775
1575.4768 502.4048
1574.9075 503.33264
1577.2505 506.35132
1579.269 505.79596
1580.729 509.95343
1576.8578 511.83896
1577.7306 513.78217
1578.1681 516.2632
1577.2214 520.6738
1582.1951 519.40295
1583.2051 517.15515
1584.6918 514.96814
1584.4819 510.8883
1583.6638 510.73898
1583.6707 507.2782
1582.0193 506.4688
1582.4675 505.05563
1583.6311 503.19183
1585.3018 504.95624
1586.0894 502.55035
1589.8394 501.66956
1590.7266 498.65625
1592.6884 497.5725
1592.2712 501.42783
1591.2467 502.70016
1590.5839 506.6225
1588.2388 507.72775
1590.7356 509.96277
1589.1761 510.24557
1587.3613 510.93967
1590.3046 515.6345
1591.3892 515.2794
1592.511 516.63257
1596.7252 514.39417
1598.8162 514.3631
1600.9303 513.4352
1601.272 515.49115
1602.6014 518.4983
1606.4426 517.86554
1608.5173 521.5139
1610.4819 518.13574
1618.6372 519.75635
1615.2051 523.8801
1611.0583 524.29785
1609.2417 522.91895
1608.1487 523.76434
1607.8265 523.9365
1606.7905 524.5507
1604.5068 529.77844
1605.3114 527.2106
1604.9946 523.28455
1605.2681 522.0287
1606.0397 520.4218
1602.7661 519.3365
1596.4615 520.71216
1594.8446 519.6158
1594.3533 518.82495
1592.5801 519.49805
1590.0332 516.6227
1589.3167 517.2688
1589.7668 520.9613
1591.129 522.6625
1588.5674 523.2558
1589.9651 526.23004
1588.6663 522.4142
1587.7554 519.94086
1583.6387 520.077
1581.9143 520.6205
1579.4768 524.84326
1579.6595 522.3499
1577.9297 522.47327
1575.4762 522.0932
1576.6251 524.9893
1575.0354 526.4872
1578.9464 527.89575
1579.0852 532.925
1579.3468 533.12964
1579.9458 537.1579
1575.1152 537.3994
1573.8582 532.00665
1570.0715 529.9927
1569.1943 528.36487
1568.4982 529.8296
1567.1505 531.8132
1567.4202 533.1071
1568.7131 534.4558
1568.9863 535.73157
1565.4569 539.58655
1562.9419 533.2067
1561.1599 533.1782
1558.8203 531.6671
1557.0164 534.90717
1557.1396 539.7291
1551.979 537.2024
1550.9633 535.9782
1551.4512 535.11035
1553.196 533.9325
1550.3906 534.51526
1548.6631 532.2098
1545.6726 533.01587
1545.9297 537.5034
1542.951 539.45435
1539.7944 535.88104
1539.7285 534.615
1535.9797 536.0531
1538.4335 532.7302
1536.4518 532.11426
1530.7876 530.3653
1526.178 531.1896
1531.3256 533.853
1532.232 533.8192
1529.9856 535.59155
1527.922 536.62665
1528.5311 538.8954
1527.0955 536.369
1526.8052 536.77094
1523.1897 538.59546
1521.1543 536.7896
1522.5286 536.16327
1522.824 535.4023
1520.4552 533.3683
1521.0371 530.3483
1518.7668 527.56555
1517.1425 531.31256
1516.2804 529.56726
1514.2151 528.02893
1519.4897 525.92053
1524.8845 526.3933
1527.3912 528.559
1528.8828 523.2042
1526.563 523.2311
1525.1217 521.37024
1520.7954 515.28796
1527.2201 514.3992
1528.0741 513.58325
1527.7252 512.1339
1531.8755 510.6811
1532.6252 509.10345
1536.124 511.21613
1536.4437 509.62042
1538.5529 510.2721
1539.0349 513.03174
1537.9832 514.2407
1536.7034 515.7129
1538.3552 514.5719
1539.9633 516.7003
1537.7874 517.93896
1534.9944 516.4601
1530.9468 516.60016
1529.3021 517.113
1529.8585 519.06775
1533.0593 520.04614
1534.7703 520.3241
1536.6431 519.15533
1538.7354 520.9964
1545.741 523.6752
1543.5214 528.8307
1545.3826 527.05914
1548.3201 525.70667
1551.7646 530.6407
1552.6166 529.8135
1554.8231 531.8562
1554.7439 530.88214
1558.9924 521.204
1554.8069 518.14844
1554.2822 521.36304
1553.007 522.2523
1549.9272 520.5913
1549.8047 518.1895
1550.02 517.53845
1546.3329 515.21216
1543.1859 516.6088
1541.9791 513.5748
1545.4946 507.18134
1544.0618 505.04987
1534.0978 505.36102
1535.2406 504.1273
1544.1818 504.47958
1547.8556 502.12622
1546.5017 500.04797
1542.9353 496.55563
1539.3252 493.97858
1537.3218 490.80548
1538.7322 488.8187
1540.8225 490.15894
1545.1985 491.10178
1540.878 486.20435
1541.5037 484.85797
1547.2651 483.4132
1547.5579 483.81543
1548.7771 483.2035
1551.1296 482.45923
1554.2935 481.78363
1553.602 479.35495
1549.1285 479.06747
1548.9485 478.89526
1546.933 478.24774
1546.6923 475.84763
1552.6147 475.90674
1556.0709 477.40598
1558.1873 476.51596
1557.932 475.9275
1556.6011 476.11444
1557.0809 473.2367
1559.3777 474.94873
1560.54 475.42938
1562.2032 472.86374
1565.1852 475.18335
1569.437 481.03516
1573.372 480.41278
1575.7439 480.52917
1577.2018 477.676
1575.303 476.35272
1576.9976 471.0918
1570.4825 472.80115
1569.3268 474.67075
1567.7866 470.79797
1565.7954 471.93784
1561.6605 470.1567
1557.8157 469.99426
1557.9199 471.25134
1555.935 471.0233
1554.8328 470.2335
1557.568 465.12384
1559.2034 460.1312
1558.8844 459.63208
1560.6824 459.30426
1565.0493 453.46616
1564.3665 451.10168
1565.4004 453.86884
1570.3696 455.94366
1570.9006 455.67603
1567.4543 456.28693
1565.8502 459.58347
1569.221 460.9478
1565.4558 464.34924
1565.4906 465.57684
1572.3376 467.2649
1574.3672 466.61365
1577.5403 464.2091
1578.6804 467.86224
1580.2068 469.9757
1579.1704 473.50342
1582.1326 473.29218
1582.6028 473.9465
1585.9392 473.29834
1585.0933 469.7625
1586.665 468.91742
1583.5214 466.10825
1586.9396 464.41144
1591.9949 459.96237
1593.2296 458.60468
1592.6006 459.8216
1594.1423 461.21198
1595.1304 462.3736
1594.9689 462.18274
1593.3833 461.7053
1592.556 464.509
1593.5815 466.90204
1597.1642 465.8463
1597.3496 466.07773
1600.2551 463.80954
1599.925 462.10275
1599.2114 459.94003
1601.8845 460.2898
1605.3077 464.87396
1603.3953 469.30576
1603.511 471.583
1605.2144 468.8794
1607.3809 467.09116
1606.4233 464.1557
1608.7266 463.40585
1607.0994 463.03656
1606.603 462.7186
1605.8407 457.55634
1603.9983 456.57104
1600.3855 455.96008
1597.7173 456.6244
1596.0011 455.79794
1597.7444 454.95197
1599.029 454.98358
1602.1976 451.95392
1602.9841 449.56125
1603.6969 446.86423
1605.6185 446.77362
1607.2358 446.26865
1608.8453 442.60132
1610.23 444.1109
1610.9507 444.65048
1612.234 445.04126
1613.192 445.3095
1613.4589 446.32578
1609.1223 450.59543
1604.8345 454.32907
1606.7174 456.70422
1609.5013 457.53952
1612.1897 457.49615
1612.6733 459.97177
1615.5009 458.69513
1615.9434 456.31433
1616.6064 455.62997
1616.1735 450.99838
1615.6094 450.7799
1615.233 450.00873
1614.7471 449.23215
1616.1921 447.05063
1615.0095 442.641
1616.2098 441.4657
1611.8112 442.12225
1612.9773 438.82538
1611.8461 436.64197
1613.0193 437.94397
1617.3982 435.02618
1618.0659 436.5866
1619.7926 438.09418
1621.89 438.96356
1622.7384 439.70795
1620.0807 441.8039
1622.0947 445.98505
1623.9832 443.8299
1626.379 441.1634
1627.622 436.5622
1624.8634 435.60382
1622.3494 433.52753
1620.669 430.93195
1618.2153 428.1858
1613.3229 426.81528
1612.8723 424.00122
1614.2258 423.6446
1614.3073 423.43604
1616.0529 423.26266
1614.835 418.44678
1615.4868 418.20215
1616.9467 418.33832
1616.8865 416.36176
1610.3711 411.57346
1609.931 410.00867
1609.2032 407.9402
1608.3931 407.94348
1609.5358 407.52588
1609.5068 406.2733
1608.481 405.51144
1606.5974 404.72504
1605.7584 408.0665
1606.6561 409.89227
1607.091 414.07504
1608.382 416.20245
1603.6825 422.69406
1602.04 422.26666
1600.6099 422.41028
1601.8694 422.95282
1603.0941 426.12732
1600.8027 427.12567
1600.0886 428.90988
1599.1089 429.53586
1600.9453 431.8435
1602.2584 431.70306
1606.3748 433.79108
1608.0776 428.766
1608.8589 428.8694
1610.4038 432.94275
1609.0848 434.7534
1608.0204 438.39963
1606.105 435.9365
1603.1935 437.76965
1599.9393 441.5089
1597.1799 443.68292
1595.9929 445.19162
1595.6162 445.79785
1594.5057 444.22324
1594.1398 445.1986
1593.7351 446.41138
1592.9158 447.97202
1595.178 450.45538
1594.6298 450.245
1590.1469 450.16626
1590.7605 451.90576
1589.072 454.95566
1585.6199 459.01196
1585.7028 460.06354
1584.3398 459.8106
1583.3538 460.2849
1580.4257 460.24203
1576.729 458.77173
1582.6261 455.4522
1582.6726 457.5492
1580.7817 452.79318
1578.4714 451.9132
1583.1233 448.44586
1584.1357 448.33154
1581.5028 446.8347
1585.1569 444.25043
1589.241 444.2155
1587.7134 442.72858
1585.5276 441.48663
1578.501 442.94186
1575.6688 443.47055
1574.3098 446.39706
1578.1504 451.0401
1574.0945 451.1717
1573.6835 448.6528
1573.0055 447.24924
1570.6268 445.51788
1570.5823 445.2081
1572.2507 444.69055
1574.4583 441.1036
1576.4858 442.098
1580.9534 436.95602
1579.6873 435.92975
1578.2327 432.2716
1578.2214 431.00195
1581.3809 429.47552
1581.146 431.46655
1584.2544 434.4715
1584.4973 435.65988
1588.9219 434.325
1587.9926 438.0155
1591.7438 438.56738
1591.1125 440.35626
1594.3844 441.0133
1594.6327 439.9867
1594.7712 434.35056
1597.6383 432.62427
1594.9114 432.51
1590.8634 430.61935
1591.3475 428.3736
1591.7699 428.6129
1593.3174 426.86313
1585.2332 419.61798
1587.2368 418.32642
1590.1287 417.92368
1593.8457 416.7717
1595.8059 419.03223
1596.3882 414.58688
1595.7428 412.10718
1594.8933 410.99738
1599.0288 411.56284
1600.2737 413.682
1600.0986 415.97632
1604.0502 412.719
1603.4138 411.20087
1602.242 409.4465
1603.4368 407.17734
1597.3599 402.71753
1598.4073 402.16632
1603.3903 396.70715
1605.77 397.26416
1610.2329 395.2828
1609.2463 394.1712
1608.5431 389.69513
1611.0715 394.321
1614.7659 392.97873
1612.7212 396.3736
1609.9285 402.5434
1610.9153 401.19638
1619.2722 400.32748
1619.9321 400.713
1620.4609 395.7739
1619.1816 394.28778
1618.05 393.04684
1616.4784 390.16565
1615.1935 388.6856
1615.2406 387.95398
1611.2085 385.47394
1611.1451 380.3485
1614.0295 378.12213
1618.8032 372.61578
1620.577 372.7657
1620.3302 371.7975
1619.1882 369.328
1622.5675 367.36902
1621.9326 365.96045
1623.7307 366.739
1625.177 363.61914
1625.9312 359.86188
1628.9805 357.77667
1625.4506 353.24225
1625.5449 351.46896
1626.3718 345.24557
1628.2239 345.82257
1629.9209 345.66684
1633.891 348.23993
1631.3425 349.00214
1630.7782 351.01523
1633.8013 353.64264
1636.5139 358.30585
1639.1736 356.95758
1641.6245 355.71674
1640.6487 353.0794
1641.0892 348.5581
1643.9136 345.75018
1644.4861 345.86053
1644.6794 346.01562
1646.3159 345.52325
1647.3489 347.0733
1651.3649 344.3017
1652.8726 348.59357
1650.8553 350.35266
1648.8909 348.29248
1645.3599 349.8353
1646.1134 350.8938
1646.2179 353.04623
1645.7537 354.3219
1645.7692 356.59937
1644.0044 357.4237
1644.3215 360.5731
1641.9613 360.47327
1640.5427 362.0439
1641.2073 363.2225
1639.1841 363.85956
1637.7046 365.12158
1636.928 368.58868
1640.5297 369.63806
1646.3615 365.55408
1647.4148 365.8774
1649.4125 365.99976
1654.0771 367.29572
1655.9753 366.06885
1658.0245 365.97556
1657.7915 366.39685
1658.0681 367.61176
1659.8357 371.90796
1656.477 370.98715
1654.1589 372.28082
1651.0515 371.40204
1649.1326 372.75497
1648.83 375.21802
1647.2428 374.55206
1645.5021 375.73022
1645.3883 373.82382
1640.4481 374.75897
1639.7816 372.78192
1637.4619 371.71667
1635.2712 371.10657
1635.522 368.6837
1636.7513 368.03986
1637.0933 365.26608
1635.6753 364.53876
1634.9384 361.25937
1633.5642 361.63782
1633.3147 362.47375
1631.6605 362.3492
1632.2002 364.03345
1633.0566 366.94696
1629.7478 364.80896
1627.648 368.47845
1627.4177 373.41827
1626.0015 377.04416
1634.5471 381.48788
1635.9368 380.12106
1637.083 387.5256
1635.2502 387.46002
1634.0087 384.2009
1629.9436 382.65378
1626.8237 382.87192
1623.2998 382.53052
1617.6456 382.26483
1620.824 381.1809
1624.2223 384.1517
1623.5112 385.6372
1625.332 385.9624
1628.8972 386.1904
1627.9683 386.65082
1626.6443 389.24054
1627.3042 390.18674
1625.5732 388.79553
1623.662 391.15417
1626.3289 395.3293
1625.6873 395.57553
1622.2284 399.91913
1623.9121 401.55176
1626.3995 401.096
1627.9236 400.71375
1628.208 403.5423
1630.127 404.84595
1630.4207 405.4928
1633.3833 409.02045
1630.9647 407.91095
1627.7007 407.39008
1626.1948 405.72943
1622.5167 405.74936
1620.598 407.93747
1621.2115 408.86948
1620.856 410.41757
1618.0967 409.56378
1617.6904 410.09882
1619.0935 414.3978
1621.0222 415.25815
1622.1392 416.9038
1624.0259 417.6134
1623.7876 419.3679
1620.8678 420.06207
1621.8955 423.71613
1622.7577 425.0781
1623.3865 426.69492
1626.2477 429.92685
1627.5778 431.69052
1627.9917 434.67255
1632.7461 432.84518
1636.5986 428.3623
1640.0004 419.58228
1637.2516 419.4393
1636.3795 419.23007
1634.7831 420.609
1631.8475 420.7507
1631.9083 424.14557
1631.7383 425.9489
1627.8682 428.11285
1626.4105 423.30096
1626.0114 423.2158
1627.4993 421.41147
1628.2904 419.4209
1626.3845 415.4886
1626.1938 413.92343
1628.8364 415.07333
1631.6031 412.80933
1634.7125 411.16046
1633.8462 409.26965
1636.478 409.05612
1637.2192 409.49194
1639.2091 411.96222
1636.5966 417.79343
1639.1372 415.9139
1639.9175 411.42343
1642.5155 409.8564
1644.709 413.57855
1646.0532 408.54416
1649.928 406.30054
1650.034 402.53906
1647.6552 398.58273
1642.006 408.46127
1637.7827 403.75143
1632.3608 401.75354
1632.5432 399.91122
1634.3376 394.38098
1637.2893 392.62708
1639.5387 396.442
1641.6876 396.46716
1642.367 394.64545
1642.6125 396.4046
1645.6323 396.72736
1647.9241 394.76035
1645.342 391.49188
1648.4309 384.28925
1647.6138 383.15854
1639.9373 380.41635
1641.7688 379.3213
1648.1827 383.4289
1657.6753 382.87878
1657.742 384.84985
1657.8174 388.11865
1654.5095 392.8336
1654.4221 394.37997
1652.2482 396.19073
1655.5 397.41928
1658.7701 392.9237
1658.0411 392.34314
1659.5271 388.06543
1663.2927 383.07065
1663.394 382.8493
1662.3997 382.27765
1658.9058 381.75018
1654.6931 380.9714
1651.2625 377.5155
1649.561 376.58618
1651.9653 375.8141
1656.282 376.26483
1657.4291 375.6458
1659.4408 377.89917
1660.7057 376.63257
1661.5063 377.2152
1664.4121 378.0072
1664.5387 377.22827
1665.2485 374.8469
1663.8043 371.2209
1663.8037 370.11456
1663.8936 370.40195
1666.5825 370.9676
1669.114 371.50116
1673.9778 366.35776
1670.9458 363.1109
1670.005 364.21472
1667.7664 362.79962
1666.9135 359.0946
1666.484 356.1338
1663.2006 357.0794
1663.4578 365.03564
1662.8807 365.46796
1658.3086 362.9682
1656.2893 361.88647
1654.8903 361.9497
1653.1895 362.87872
1653.5837 362.11444
1652.9387 360.85986
1651.1208 361.70593
1650.9962 359.67078
1650.3706 359.20587
1648.7322 361.68878
1648.7152 360.31525
1647.6973 355.59042
1648.7812 354.36578
1650.6604 353.86603
1654.0055 352.88672
1653.7074 356.9946
1654.0728 358.39667
1655.991 357.37634
1656.8982 357.4868
1655.1351 354.06418
1655.7517 351.7376
1657.0847 350.69177
1657.6545 347.76746
1660.8677 348.2292
1661.8604 346.56512
1662.6682 348.6058
1661.7379 351.7949
1663.3704 351.2663
1665.6311 351.10828
1667.8341 348.8369
1670.8558 349.28046
1671.5398 347.6666
1669.2988 347.81152
1668.3525 348.10907
1667.3318 349.41138
1667.642 353.49023
1667.3411 354.3697
1668.6323 354.9107
1669.9481 354.1001
1674.3633 355.27795
1673.384 352.85034
1675.8511 348.51816
1673.0134 345.2566
1676.9431 339.997
1679.0754 339.61328
1679.0449 339.04483
1679.7429 334.1636
1679.7683 332.55917
1678.3794 332.1634
1678.4794 335.878
1675.0137 339.3955
1673.8425 338.00934
1668.9622 341.73132
1666.7181 341.53232
1667.7518 339.9891
1666.3976 335.66638
1662.4006 331.29742
1663.6936 336.04053
1663.6838 338.92688
1658.3156 342.19406
1657.5881 342.5639
1651.054 343.3908
1652.507 340.06897
1649.5123 336.33295
1649.0698 336.016
1647.173 336.69318
1641.3945 339.6611
1639.8406 341.35278
1637.7073 343.88806
1639.2743 347.03583
1639.3657 347.80756
1639.3706 347.35193
1635.1875 346.85913
1635.3752 346.68365
1635.5586 342.64355
1630.7329 341.97827
1628.3988 342.3045
1628.7087 338.03937
1632.53 338.51074
1632.8518 340.1156
1634.9932 338.6016
1638.9043 334.77478
1635.3041 331.33527
1631.3873 328.4647
1632.9259 327.4315
1635.208 327.61066
1639.9482 329.2533
1637.7507 324.93353
1637.6448 321.56528
1637.8408 319.10138
1633.6523 318.76154
1632.8049 319.20673
1633.3273 314.928
1630.5182 314.26965
1629.8451 315.65475
1628.6199 315.50714
1626.3038 308.87537
1626.574 308.77573
1625.7919 305.50012
1626.6362 308.38806
1630.0679 308.20197
1631.9402 305.04846
1636.6805 304.5121
1635.4125 301.44785
1634.6038 299.7079
1639.8734 298.3373
1647.0964 295.50464
1649.4719 297.4757
1648.8632 295.55597
1647.8062 294.84814
1644.2328 290.85187
1642.1758 290.94196
1641.5676 288.42624
1643.2108 286.41293
1642.7433 283.09784
1637.4797 282.9085
1635.7952 286.06055
1635.386 289.2405
1633.5927 287.5133
1629.6802 287.57684
1630.6682 290.77167
1630.4573 291.3313
1635.8644 291.7374
1635.1418 295.79398
1635.6545 297.3263
1632.2943 298.7553
1630.4373 300.5771
1629.4886 300.9578
1630.6665 299.18695
1631.2126 297.953
1629.6416 295.33923
1628.1794 296.3687
1625.8931 297.90463
1624.1625 299.11108
1621.1765 298.92667
1620.0829 296.09674
1623.8784 295.28265
1622.2902 292.2153
1618.1592 291.70898
1617.4207 290.66956
1615.8667 292.82642
1612.4845 292.73474
1611.0112 296.75568
1609.1913 296.19147
1604.5709 293.92273
1605.3577 291.95728
1605.1201 290.6286
1605.2802 288.33255
1605.81 288.63336
1609.0406 288.6198
1616.5385 288.36926
1614.1765 281.74374
1611.5581 278.98996
1611.5125 278.9922
1609.7526 277.57422
1611.649 277.38715
1613.5901 279.03424
1618.0049 281.9077
1620.1534 286.94995
1623.0729 289.87543
1625.4857 286.5345
1627.253 285.84125
1629.638 285.99976
1630.2227 286.93713
1631.6754 283.4357
1635.2205 281.68997
1634.6538 280.0058
1634.8275 277.06528
1632.3971 277.95178
1626.5479 281.0934
1626.0323 280.76566
1627.583 278.5074
1627.4264 274.49915
1629.4476 273.57343
1631.0167 273.05164
1629.8635 270.1288
1630.327 269.2414
1625.3181 268.68982
1622.0924 265.86102
1622.5823 271.0876
1625.4943 271.3981
1622.5386 271.2287
1622.2722 271.73737
1619.2808 269.93793
1615.5918 267.79297
1616.1143 264.10583
1616.7509 262.40887
1614.7366 263.4443
1609.9502 261.5829
1606.2074 262.07275
1604.7029 264.04166
1602.4651 265.16693
1605.273 268.34607
1607.8795 268.65332
1608.6205 267.7459
1611.5105 269.1762
1608.9382 268.01895
1607.3044 270.3856
1606.1174 273.32605
1606.0734 274.99234
1603.4683 273.5831
1602.6353 275.03442
1600.158 274.83923
1599.5186 275.58865
1596.2968 274.73593
1595.1533 275.3636
1594.2651 273.07324
1593.0303 272.81226
1590.5869 273.8629
1590.2148 275.98016
1588.1592 278.19955
1592.4202 276.15717
1593.9335 279.1714
1596.3423 276.50558
1601.3977 280.14777
1602.5369 281.22556
1608.0065 282.5205
1607.9375 285.5155
1606.4998 287.0346
1602.4904 284.84
1601.9153 283.57053
1599.0879 282.3739
1593.5728 286.30017
1590.5504 289.66687
1591.9623 293.0598
1589.5316 289.88495
1588.6482 287.87875
1586.9261 284.85126
1586.2501 284.7392
1584.8352 284.24506
1582.3429 283.0398
1580.1943 281.94244
1580.7397 282.94345
1581.087 286.3176
1582.9148 291.13382
1584.886 292.5008
1584.6411 293.91684
1579.234 294.87762
1577.2227 292.25415
1574.5059 292.59564
1574.2759 296.19226
1572.1897 297.3034
1568.675 299.36597
1569.3628 296.76886
1569.6602 292.94977
1567.9587 291.9228
1565.364 290.8841
1562.5637 290.28864
1562.3899 290.65512
1562.4377 292.0639
1562.7678 293.2055
1561.2992 293.6367
1558.573 293.8629
1558.3225 294.14825
1554.1226 294.48462
1554.8821 295.46783
1555.6272 296.2431
1555.5803 296.66568
1556.5948 298.0189
1560.8933 298.9048
1558.9694 299.8269
1558.939 302.92093
1555.4424 306.11414
1553.8794 303.97165
1550.1113 307.13696
1547.955 307.72043
1544.2153 308.56717
1540.0828 302.52936
1539.5923 301.61646
1539.2346 301.0216
1537.6641 300.99835
1537.7954 302.51114
1529.602 306.50726
1538.6604 305.6512
1538.2286 306.75293
1542.789 312.40045
1543.3641 315.5412
1544.1377 316.1293
1541.8839 320.92685
1539.8336 318.5661
1537.1002 319.33475
1533.7681 315.9604
1532.8024 312.63617
1528.5243 312.77856
1526.985 310.53882
1525.4978 307.65723
1522.8643 305.8983
1522.4824 301.7644
1515.7357 300.74512
1513.3972 299.10944
1513.8165 295.5652
1517.119 293.1408
1518.3945 290.51904
1521.7493 291.88666
1521.5084 290.70605
1521.1606 287.9954
1523.8728 286.01715
1524.4788 281.45465
1525.0223 279.09625
1526.3274 280.5755
1527.6421 279.25824
1530.9661 276.98865
1532.6553 275.4465
1534.0693 277.1098
1534.3134 279.79437
1534.3658 280.11246
1534.5559 281.28342
1539.574 283.5744
1540.0823 280.35797
1543.1056 279.7895
1543.3074 279.86414
1546.5636 281.22076
1546.3174 287.0658
1546.3439 290.92297
1545.2954 290.31638
1543.2739 291.5185
1542.7585 287.15826
1538.6146 286.57208
1536.5854 286.037
1533.4114 282.0058
1532.6138 286.5373
1524.0596 290.07788
1526.5498 292.3307
1528.3901 291.35016
1530.4308 294.78284
1528.3989 295.8987
1526.5996 296.88824
1530.0164 295.51907
1533.938 299.4312
1534.7166 298.32928
1534.9978 295.9707
1537.6504 296.64273
1540.0542 293.56714
1540.5868 293.32715
1541.0667 295.39532
1545.9019 294.90256
1547.2875 300.88776
1550.2366 301.68225
1550.4825 299.61578
1549.5684 295.1294
1549.5164 294.2287
1554.2703 288.34787
1559.0405 290.82205
1558.9143 286.87433
1556.5707 284.41736
1559.7976 282.42102
1562.7185 280.42584
1563.5037 280.43677
1562.2255 277.64917
1565.4126 278.3706
1565.75 279.58203
1566.1058 281.1865
1568.1243 281.29916
1569.8602 280.02628
1569.4766 281.69357
1571.7147 282.8005
1568.954 283.64066
1568.2302 285.84058
1567.9023 287.8996
1567.7676 286.47003
1569.328 284.86154
1570.6306 284.68027
1571.7756 284.6282
1574.6656 286.23395
1576.2147 280.3039
1575.4075 278.08908
1576.1118 277.65982
1577.0305 277.15833
1583.3563 279.81824
1585.9233 278.583
1583.3134 277.10135
1579.6055 272.87585
1578.4612 273.00226
1575.7471 275.2507
1574.6719 276.07114
1574.0364 276.57513
1573.1686 277.68997
1572.7677 277.21982
1573.7133 275.78613
1572.312 273.33032
1568.9497 270.43134
1571.5043 264.74673
1566.1447 269.41525
1564.1847 271.61478
1559.681 272.82953
1555.0924 275.39612
1552.7837 276.64417
1552.8044 279.07538
1551.9429 281.70267
1552.7179 282.46097
1552.4524 282.35065
1549.7045 282.01642
1548.7867 280.15002
1548.8416 278.31232
1548.5083 274.36053
1546.9652 275.7627
1541.1273 273.92773
1538.1832 276.6668
1537.5082 276.23395
1537.3516 274.31952
1535.6467 273.40552
1535.7856 270.42395
1541.9309 269.2003
1544.6263 268.88153
1545.5717 270.849
1549.9742 270.3723
1545.5557 265.67596
1549.684 263.649
1552.8451 261.41922
1553.7605 259.08643
1557.2777 257.91864
1558.3467 256.73953
1559.7483 259.96503
1557.248 262.3827
1560.5024 264.24298
1563.5072 264.40472
1562.5403 267.07782
1565.0051 267.14786
1564.6368 262.32645
1562.1383 262.1145
1562.9948 260.64917
1565.736 258.7609
1565.4855 256.65137
1572.0139 259.5782
1576.0343 256.5804
1576.4451 252.91025
1580.6259 259.46265
1579.5208 262.41232
1575.0978 261.81433
1574.3887 261.7941
1579.4841 263.14786
1578.8618 264.65326
1581.5911 266.7906
1582.7264 267.67264
1585.0374 266.17383
1588.4526 267.73526
1591.0903 270.55316
1591.6139 270.36304
1596.9656 270.12125
1594.7085 265.78143
1586.8788 265.65308
1585.1294 258.00543
1588.2219 255.97675
1588.5187 252.62444
1594.4377 256.39404
1595.1428 258.72296
1596.5996 262.16574
1598.7529 259.8847
1606.0339 258.70673
1608.2742 252.10625
1614.2942 257.36105
1619.4078 256.38794
1620.4668 257.90158
1621.8949 260.3781
1626.7415 257.55273
1626.8434 257.19745
1627.9587 257.9148
1627.1265 262.33905
1626.1074 264.77032
1627.7446 264.98053
1629.3865 264.23547
1630.1478 264.7768
1630.0549 262.77313
1631.3367 261.6326
1633.3778 263.41968
1634.193 263.49655
1635.437 261.99863
1641.8378 263.42477
1640.7943 267.17108
1638.675 267.0081
1637.3525 266.66162
1637.0134 269.28156
1635.1841 268.85858
1634.1895 271.66443
1636.0342 275.2646
1640.5259 278.5375
1641.78 277.22702
1641.6997 274.1471
1640.0723 270.4006
1641.4011 267.93384
1645.384 269.01813
1647.474 269.20135
1648.2283 269.87396
1647.5662 271.4013
1648.2473 274.15387
1645.6912 276.95145
1647.1715 276.21667
1648.4651 273.9446
1650.4318 273.78815
1659.7168 273.96667
1652.3154 278.72418
1652.2173 281.7682
1656.2886 282.69055
1659.1354 279.8675
1662.995 277.88214
1662.4583 279.72327
1661.6647 281.4738
1660.6378 283.31412
1660.5723 287.24597
1660.9539 286.62686
1659.2458 284.71753
1657.2063 283.39804
1657.0723 285.80804
1654.8762 290.06653
1654.426 290.37457
1650.7896 289.421
1648.5245 289.14142
1646.9346 285.69104
1645.4061 283.20566
1649.7607 282.1054
1648.8728 283.3488
1646.9204 287.5349
1649.459 289.74243
1653.9047 291.83704
1655.4065 295.79175
1656.279 298.37442
1654.4861 297.51202
1652.668 296.8034
1652.5042 297.25723
1651.354 299.044
1646.3574 305.33075
1642.5288 310.9047
1638.905 313.37152
1639.7539 315.47607
1645.4021 315.26163
1645.5651 313.86865
1646.2639 313.65692
1648.9152 312.2751
1648.967 315.45804
1646.9618 317.89426
1647.1649 318.83694
1644.3752 318.71112
1639.5192 321.06317
1641.0906 325.55228
1643.7192 324.51193
1644.788 325.09607
1646.9034 326.84225
1651.0508 327.85492
1651.436 325.18942
1648.9845 321.65314
1649.6462 320.5509
1652.8854 320.25693
1653.0427 320.3122
1654.7113 317.81458
1656.484 321.58606
1655.4973 327.7948
1658.1427 328.19608
1659.1658 330.2216
1660.5695 328.99426
1660.6373 329.03918
1664.5671 325.60706
1666.6862 324.11218
1668.3943 325.97687
1666.9058 328.21375
1668.1709 329.5365
1667.4473 330.43817
1668.069 330.09738
1671.7698 334.6419
1671.5449 332.0433
1676.0571 327.03128
1678.4352 328.86786
1682.7004 326.7353
1681.9143 326.40686
1681.2456 319.39014
1680.6487 320.49875
1678.7543 317.99136
1677.5596 321.65845
1674.7717 325.05847
1674.103 324.62927
1670.6985 320.3341
1669.0823 318.99838
1667.9902 318.3559
1668.7043 316.26733
1662.7905 316.46338
1666.2993 311.8222
1663.24 308.52362
1663.663 304.29
1663.3225 302.6905
1664.5544 301.90463
1665.083 301.02393
1665.381 303.11307
1669.3374 303.48517
1670.2726 303.4841
1671.976 308.7298
1676.3196 312.87622
1680.8218 316.05347
1680.3943 311.0503
1673.365 303.15784
1673.0508 301.45233
1671.44 298.4823
1670.2078 294.12213
1671.5647 293.8192
1671.1906 292.3974
1672.6326 288.15778
1668.8539 288.23404
1666.9529 289.55542
1661.8184 288.96802
1659.3218 290.50055
1659.1218 293.40027
1659.2656 295.144
1665.4249 294.1882
1661.6636 295.68332
1659.269 296.57495
1658.2112 297.08545
1658.8993 298.3762
1659.9623 298.39197
1658.3 298.8338
1656.7563 304.3698
1656.8048 306.401
1659.763 309.1421
1662.1982 310.42627
1658.93 315.08832
1656.0333 315.1013
1651.9207 313.44135
1650.5189 312.32632
1650.6368 310.18234
1650.9238 311.18842
" />
</g></g></svg>
