<?xml version="1.0" encoding="UTF-8" standalone="no"?>
<!-- Created for Inkscape (http://www.inkscape.org/) -->

<svg
   xmlns:dc="http://purl.org/dc/elements/1.1/"
   xmlns:cc="http://creativecommons.org/ns#"
   xmlns:rdf="http://www.w3.org/1999/02/22-rdf-syntax-ns#"
   xmlns:svg="http://www.w3.org/2000/svg"
   xmlns="http://www.w3.org/2000/svg"
   xmlns:sodipodi="http://sodipodi.sourceforge.net/DTD/sodipodi-0.dtd"
   xmlns:inkscape="http://www.inkscape.org/namespaces/inkscape"
   width="3200"
   height="800"
   id="svg2985"
   version="1.1"
   inkscape:version="0.48.1 r9760">
  <defs
     id="defs2987" />
  <sodipodi:namedview
     id="base"
     pagecolor="#ffffff"
     bordercolor="#666666"
     borderopacity="1.0"
     inkscape:pageopacity="0.0"
     inkscape:pageshadow="2"
     inkscape:zoom="0.35"
     inkscape:cx="1600"
     inkscape:cy="400"
     inkscape:document-units="px"
     inkscape:current-layer="layer1"
     showgrid="false"  />
  <metadata
     id="metadata2990">
    <rdf:RDF>
      <cc:Work
         rdf:about="">
        <dc:format>image/svg+xml</dc:format>
        <dc:type
           rdf:resource="http://purl.org/dc/dcmitype/StillImage" />
        <dc:title />
      </cc:Work>
    </rdf:RDF>
  </metadata>
  <g
     inkscape:label="Layer 1"
     inkscape:groupmode="layer"
     id="layer1"> 
     <g>
<path style="fill:none;stroke:black;stroke-width:2px;stroke-linejoin:round;stroke-linecap:round;" d="M 
1664.7831 350.8514
1659.8245 351.67294
1657.3501 348.04294
1654.8237 346.4287
1654.318 349.19672
1654.332 352.40155
1658.7216 354.06064
1657.5542 355.8081
1656.3185 358.29318
1653.7631 359.51144
1651.8185 362.52472
1649.2001 361.1412
1646.5635 363.13348
1645.8102 359.28992
1643.9109 357.19016
1640.8352 354.6174
1638.9844 352.6106
1641.4412 350.26166
1645.6973 353.75543
1650.1377 358.35504
1652.2554 358.7016
1650.7792 355.42395
1649.4976 351.49655
1650.3003 346.89575
1645.5237 348.31506
1646.4958 344.37402
1642.0305 345.33105
1638.5435 345.45224
1638.9117 341.25876
1635.3778 339.5382
1633.1072 340.973
1629.9431 340.40918
1624.7356 340.95584
1626.7743 337.168
1623.1426 334.64642
1623.7439 331.3177
1624.5221 329.18857
1626.1178 325.86017
1624.5847 323.23785
1630.2358 324.77762
1631.7302 320.14282
1634.2266 324.083
1636.6521 326.0696
1639.6602 327.15854
1638.9479 331.9703
1635.5308 331.04028
1632.3225 328.95847
1628.9861 329.24557
1627.5757 332.3146
1631.6289 332.29105
1632.2029 335.44763
1636.7869 336.96957
1640.0779 336.3053
1644.3773 340.5926
1648.111 339.18173
1644.4113 336.0764
1642.4645 329.75522
1642.1738 326.47525
1644.0684 325.52103
1647.144 324.76245
1647.4297 328.708
1645.04 332.19568
1646.6523 330.21655
1649.5166 328.6012
1652.3596 327.07623
1650.0748 323.552
1648.7515 321.37134
1646.75 320.354
1645.269 318.82007
1644.7012 321.91486
1639.5549 323.8177
1638.1134 320.5165
1635.5723 319.1217
1640.9375 320.33755
1641.8479 318.78912
1642.16 316.59894
1643.615 314.3375
1647.5742 316.97867
1649.0328 313.9356
1649.7085 311.6562
1651.0688 310.52597
1650.6664 308.5755
1650.0112 306.91272
1651.6453 304.93982
1653.9644 307.23447
1653.311 309.71405
1655.883 312.1329
1653.7279 314.03085
1651.5796 313.73657
1651.3136 316.57086
1650.8254 319.901
1656.0134 320.32053
1656.981 316.3861
1660.5614 316.00726
1661.1227 320.08444
1661.3276 323.527
1661.5076 327.42825
1658.083 326.12296
1654.3298 324.0628
1655.196 329.20737
1657.4929 329.28162
1655.5352 331.2699
1654.941 332.9945
1652.9066 330.87848
1649.4675 333.13358
1652.6501 335.5619
1651.485 341.00085
1655.5948 343.2058
1656.8566 340.35104
1655.6615 337.34354
1658.9866 337.92447
1659.2194 334.5772
1658.2798 331.75934
1662.1445 331.71356
1665.1882 333.18988
1666.83 333.88934
1668.1458 333.7598
1670.0706 333.3568
1667.9076 330.73944
1666.045 329.0207
1665.8098 325.4215
1666.085 321.02048
1664.9872 319.45352
1662.9441 317.2226
1665.1709 314.35187
1664.9535 309.7332
1666.5779 305.75623
1664.0972 300.97852
1663.7651 297.8973
1663.5752 295.31293
1661.2307 296.88025
1661.3765 299.2688
1660.47 302.2397
1662.4377 305.57733
1660.2742 307.9325
1660.0337 312.59406
1657.4739 309.3593
1655.6416 303.7528
1656.3579 299.71063
1657.955 296.77246
1659.5332 293.422
1654.5431 292.7151
1656.772 290.50726
1653.273 285.15637
1653.4548 288.3105
1650.1415 295.15833
1645.0154 295.92697
1642.2335 296.41513
1646.8606 295.8073
1653.8607 297.3343
1651.1824 300.0628
1647.7366 300.16916
1646.7307 303.7386
1641.9084 302.61496
1642.8921 299.43042
1638.9001 298.92816
1640.1105 294.29285
1635.3347 295.60175
1633.8335 299.456
1630.4259 300.5646
1635.5122 301.99594
1632.7115 303.94513
1634.2556 308.80252
1637.3027 304.5485
1639.6619 306.69116
1642.656 307.85394
1643.8807 310.3135
1646.4575 307.57037
1648.6046 309.50134
1647.0088 310.73132
1646.3212 312.44336
1641.2202 311.56418
1637.4238 311.95273
1634.2605 315.0751
1629.8689 316.0117
1626.8987 318.16867
1622.8613 318.47702
1623.8613 316.0767
1625.8923 314.77887
1623.1877 313.10547
1620.6608 314.82495
1619.8829 311.50232
1620.0437 309.21753
1619.7043 307.50256
1621.8083 306.46936
1623.6172 306.12036
1625.8274 307.64484
1624.5454 309.992
1625.3164 311.9037
1626.7415 313.78668
1629.2856 312.23297
1628.7428 309.24973
1629.6079 305.71606
1628.446 302.5484
1624.6722 302.30692
1621.0508 301.87854
1618.0544 305.51025
1617.4158 302.15
1612.9716 301.80194
1612.2712 298.27673
1609.0564 295.08087
1604.8293 297.52435
1601.8741 294.65564
1596.562 293.18933
1591.937 289.44138
1586.4253 291.19513
1580.6196 291.674
1589.2256 289.096
1590.8533 281.9921
1584.2446 284.12915
1579.7406 283.7086
1575.9884 285.37433
1576.2281 288.92834
1575.6451 292.5359
1573.2589 290.44055
1572.7288 292.50476
1573.2498 294.7149
1568.8918 295.15363
1567.9075 294.23187
1566.718 292.1621
1569.1184 291.05652
1570.7306 287.91196
1567.074 285.47186
1563.8864 283.95117
1565.5623 280.59857
1562.7622 278.02246
1561.0173 275.1772
1558.7083 276.08295
1560.0953 278.81207
1557.7103 279.6265
1556.995 282.27585
1560.7385 281.79114
1560.8705 284.79083
1561.7844 287.36597
1563.1102 286.9369
1565.6133 288.64313
1564.0427 290.53278
1563.6321 292.8305
1564.8485 294.69778
1563.5331 296.46637
1559.7256 293.3366
1560.6577 289.62854
1556.5038 287.97144
1554.5381 283.76605
1551.7546 282.40552
1547.2961 283.8494
1542.8403 287.18182
1537.7197 285.49973
1536.1655 290.40155
1539.3477 293.79578
1542.9907 290.91595
1542.7654 296.57486
1546.119 295.52057
1545.2446 292.4923
1548.0966 288.75854
1550.1052 291.63837
1550.4177 296.19086
1551.7616 297.9779
1554.5964 298.33447
1554.8823 294.56976
1557.7999 294.73276
1560.5543 299.54745
1556.4976 300.60303
1554.5321 302.17017
1552.7742 300.4278
1551.1921 299.8514
1549.5472 299.39923
1548.0386 298.32977
1545.7197 297.82388
1546.2021 301.77466
1549.9214 302.51764
1551.8867 302.90173
1553.1733 305.86624
1546.3838 307.42578
1543.3317 313.22314
1540.0468 311.4626
1539.4238 309.52545
1541.5704 309.74173
1542.5934 308.638
1540.4861 306.5823
1536.0844 304.0747
1541.2642 302.89136
1538.8992 297.94522
1533.6676 295.66006
1529.0255 294.2333
1528.9434 289.4983
1528.8989 284.98267
1531.8793 283.37128
1531.9255 286.5201
1534.6877 284.91193
1537.8356 282.07947
1540.7595 282.49637
1542.0498 279.6188
1538.9277 279.3939
1537.4808 276.83847
1535.063 279.64667
1531.3776 280.69684
1527.1392 280.27884
1525.1008 283.15906
1524.4873 287.5498
1523.5342 284.00772
1523.4102 280.03104
1519.9346 281.01703
1520.5327 277.4445
1524.7753 276.103
1526.146 271.61438
1529.0542 273.36115
1529.8291 275.9791
1532.9431 276.3215
1534.6031 272.8464
1536.747 273.1195
1534.9729 270.396
1531.7244 272.01157
1531.9673 268.01398
1537.4963 267.66577
1541.1306 265.9052
1540.9773 272.2757
1544.1165 274.52658
1542.8574 277.0181
1544.144 279.60254
1546.2135 276.8952
1545.8923 278.9996
1547.8258 280.3376
1548.5787 278.31775
1547.9497 275.88864
1548.6426 273.46417
1550.978 276.06476
1553.9375 278.6786
1555.2253 275.9572
1555.3718 273.07516
1561.0657 272.28397
1559.2446 269.40002
1557.8141 271.43326
1554.916 269.40018
1551.6106 268.0727
1554.2283 266.9351
1556.0747 266.42194
1555.2319 265.29926
1554.0692 264.4223
1552.6934 265.54578
1551.6836 264.33908
1549.1805 265.38116
1547.2902 269.52948
1544.9342 265.6035
1547.8826 264.27283
1546.835 260.22504
1550.5192 260.85236
1553.6769 260.7037
1557.6428 258.80133
1560.5453 256.16138
1557.074 262.24908
1557.2795 264.65042
1559.0599 266.38095
1561.7158 265.52563
1561.6216 262.45078
1562.5289 259.8844
1565.0293 261.29974
1565.5629 258.26025
1571.6328 258.37997
1572.8605 253.62915
1574.9731 259.062
1576.238 257.9546
1577.6799 257.8727
1580.5348 259.42096
1578.7335 255.85245
1582.6709 254.71747
1587.7665 254.91313
1587.2604 261.24603
1583.8878 261.6052
1584.0867 264.43463
1586.8835 266.69373
1583.0913 267.59717
1578.5713 264.72272
1574.4293 263.67343
1571.398 262.32892
1568.4802 263.03455
1564.4575 264.48242
1560.924 268.4274
1563.2975 268.44476
1565.2428 269.589
1568.7065 265.9862
1570.7877 268.63647
1574.3315 271.20145
1569.2981 272.17352
1566.6829 272.15073
1565.2957 274.7055
1571.0576 277.2218
1570.2891 280.78702
1572.1863 281.79227
1574.9325 281.41132
1578.3408 280.03314
1576.6538 277.70026
1577.3876 275.59924
1576.9161 273.12006
1577.5775 270.3566
1579.7491 269.45197
1580.694 272.98322
1585.3518 272.8499
1586.3835 275.9301
1581.8125 278.08942
1579.1831 277.25842
1579.7109 278.54333
1584.2648 278.72214
1587.2682 279.01175
1589.5162 277.5502
1592.2144 275.61014
1595.5143 279.43243
1598.6461 278.22723
1601.0693 281.7028
1595.8768 284.42053
1597.2058 288.5625
1600.1011 286.66544
1600.7993 289.95972
1601.9985 291.71735
1604.5269 291.18683
1606.4105 291.25586
1609.1072 290.91623
1612.0934 292.4074
1614.8871 291.39087
1612.093 289.55615
1609.6323 288.3717
1613.4268 286.7945
1611.0823 283.9122
1606.7417 285.674
1603.96 288.15347
1603.592 283.45395
1607.5419 278.90576
1610.5953 280.32623
1614.7037 276.80627
1615.3679 274.11438
1618.5991 277.24316
1621.4036 275.18295
1620.4043 270.74442
1615.2622 270.64215
1613.4655 268.1691
1615.1284 264.73932
1618.247 266.77347
1619.2183 262.86734
1623.9133 263.4917
1624.0302 266.5346
1627.4692 265.77765
1631.4268 264.10956
1634.9119 260.07037
1628.7046 261.25067
1624.3734 258.56653
1618.89 257.4406
1614.9154 256.37646
1616.5957 259.71106
1614.4731 261.45038
1613.0217 262.48474
1611.143 264.28467
1611.117 262.41052
1611.2615 260.56476
1608.6504 259.3676
1613.445 257.02155
1611.1279 255.97156
1604.796 255.06207
1603.6196 259.31744
1600.8684 260.45648
1597.9702 256.8631
1596.8838 254.18034
1593.1383 254.4278
1591.9365 257.37518
1593.4712 261.1777
1590.306 263.71457
1589.2896 266.69238
1589.7771 269.29504
1591.863 271.14783
1594.9336 273.33832
1597.1893 269.83276
1594.8798 268.9579
1593.4319 266.17603
1597.1985 265.6833
1599.2533 264.339
1598.3103 261.37698
1604.0106 262.6138
1604.1241 265.853
1609.3079 266.20532
1607.1866 270.25372
1603.0991 272.44006
1601.4952 269.43674
1598.4159 272.2642
1598.7787 274.8578
1602.1531 276.82565
1604.8315 276.7171
1607.8671 274.89545
1610.6879 273.38046
1612.0779 277.07706
1614.8195 279.46362
1616.7167 281.2205
1616.696 283.942
1615.8293 288.5398
1617.9075 286.97382
1621.9045 285.90662
1622.6642 282.99573
1620.0703 282.4733
1619.3119 281.214
1622.9285 279.67807
1623.8666 276.4533
1623.2184 272.4437
1627.1039 274.0568
1626.8096 270.87762
1629.4832 268.93536
1631.5032 271.5853
1632.8066 273.69812
1631.7145 275.66943
1629.4402 276.09943
1627.0823 278.18018
1626.8417 283.23303
1624.5911 289.43408
1620.9503 290.1831
1618.6698 290.58405
1618.6431 294.7075
1614.3748 295.1932
1619.3336 298.23642
1622.509 294.65094
1625.2572 292.80063
1625.8125 296.1034
1626.9147 298.9767
1630.0477 296.22815
1629.8376 292.08353
1633.2397 293.2653
1633.6814 287.6438
1629.9026 288.23743
1628.1821 286.0241
1631.1104 284.10422
1632.4103 281.92258
1630.5063 278.5139
1633.9541 278.13177
1637.0829 277.3641
1635.6088 280.27805
1636.7997 281.1717
1638.3223 282.42975
1639.9902 280.19952
1639.8911 276.375
1636.8212 273.8402
1640.268 272.24677
1637.4396 268.91864
1633.7102 270.1777
1634.343 265.89917
1636.5724 265.27094
1639.557 265.6768
1641.9518 266.80713
1643.1414 268.91556
1644.5112 272.035
1646.909 275.24274
1643.009 275.57672
1644.6654 277.0765
1644.5305 279.5193
1647.928 280.92703
1644.8313 283.7884
1640.7839 284.0137
1637.2866 285.09796
1636.8666 287.6521
1635.5593 290.34277
1638.5437 291.43817
1640.5638 290.17688
1641.4187 288.28613
1643.403 286.37555
1644.149 290.49554
1647.4648 292.7307
1648.3362 289.10706
1648.5768 285.0825
1650.3683 282.94888
1651.575 277.69067
1649.7075 274.53882
1648.1184 269.8712
1654.3113 273.75287
1654.3188 281.16858
1658.6835 280.15796
1657.5217 284.62842
1658.2502 287.13507
1660.387 285.09912
1663.5802 284.71942
1661.1482 289.10764
1664.5923 291.46484
1669.2576 294.39697
1668.151 299.85565
1668.0054 302.8122
1669.2992 304.5686
1672.0269 303.14508
1671.2588 307.21497
1669.6763 310.22845
1669.8857 314.91644
1669.1831 318.45874
1671.266 319.69507
1672.1927 321.31525
1668.4543 320.57123
1667.3606 322.59662
1669.9172 322.97955
1671.3472 324.0421
1672.1315 326.90216
1676.4775 329.87048
1672.6089 333.04816
1671.3441 339.4646
1668.1858 337.61188
1663.5852 337.26526
1660.455 340.9918
1659.4758 344.4707
1660.4368 347.5827
1663.8787 348.02026
1665.1038 345.74066
1664.1617 343.68967
1664.5881 341.01178
1668.3829 342.2103
1671.2112 343.8669
1669.6622 346.05402
1669.6946 349.4524
1665.9868 352.9726
1665.6727 354.8083
1667.3035 356.43073
1662.0403 357.12836
1666.1732 361.2739
1662.1196 362.14917
1656.2604 362.42133
1660.2239 365.47882
1658.5403 367.89316
1655.4744 372.2868
1655.1566 369.30237
1653.9224 365.80518
1649.844 368.3221
1646.1819 370.64267
1644.0996 372.6599
1643.8962 376.1997
1647.7556 375.26672
1652.0044 371.79816
1652.3523 374.85754
1650.936 379.65845
1650.3169 376.74585
1646.3755 381.30823
1642.6484 382.875
1640.5757 381.47897
1641.917 378.7364
1639.2244 377.52475
1636.853 376.82977
1635.5146 379.1992
1634.436 375.97278
1637.134 373.02808
1640.4886 374.52063
1639.278 371.13416
1638.7955 368.83344
1641.8702 369.8568
1641.3234 367.9459
1644.7804 366.66028
1640.7084 364.639
1637.406 365.27667
1635.274 367.2844
1632.5132 368.34555
1632.3931 372.54
1628.7932 372.80368
1626.2747 369.60275
1626.5519 365.9808
1628.8027 363.1627
1627.3717 361.7461
1631.0127 361.02414
1633.9427 363.31064
1636.9368 360.6787
1639.354 358.45258
1635.5865 356.56137
1636.186 354.22986
1635.813 351.68976
1637.6328 348.97693
1634.8398 347.5199
1634.1082 344.4725
1631.0361 344.56177
1628.3336 345.29578
1624.4867 345.27853
1622.1368 348.92603
1619.935 351.64563
1619.3723 353.73044
1620.6182 355.8969
1623.9067 354.4244
1626.649 352.17108
1627.7941 350.76987
1628.7131 349.90863
1628.6407 348.03528
1630.9927 347.9139
1632.065 349.4803
1633.0247 350.2069
1632.9365 352.55527
1631.1255 355.70337
1628.2283 356.3275
1627.0383 358.2027
1625.7078 360.86652
1623.3622 362.82477
1622.4951 360.80136
1622.6584 358.36618
1619.6099 358.91696
1617.2544 357.81073
1614.6329 358.71014
1612.6791 360.4024
1612.5082 363.17084
1610.4987 364.9724
1607.47 363.13168
1604.3682 365.56003
1601.1117 366.5012
1599.7262 370.35593
1595.0414 367.8131
1597.5125 372.167
1595.3489 374.13376
1591.7739 372.62875
1590.1133 369.634
1587.7239 368.4427
1586.2614 370.577
1588.0297 371.50854
1586.5513 372.56042
1584.1881 371.49292
1579.981 368.81427
1572.1318 370.2962
1572.7678 377.11658
1573.8812 381.78317
1573.4037 386.768
1576.352 381.4132
1578.2288 380.3239
1574.9343 379.44757
1577.033 376.49765
1578.1332 372.59985
1581.0835 372.30664
1582.4453 374.72217
1581.3102 377.51483
1581.9999 381.1681
1581.4921 384.2513
1578.7435 385.8603
1577.1764 389.39642
1578.2236 391.79248
1575.6403 395.2505
1577.3267 399.70435
1575.5966 402.67612
1573.4846 405.68494
1575.4979 405.9569
1576.9778 408.25986
1580.0446 407.44153
1578.6683 405.40338
1579.9978 402.52438
1582.4906 404.40936
1585.6721 408.19403
1586.6824 403.80664
1588.5273 402.67096
1590.4298 403.64313
1590.7515 399.79672
1593.499 398.31305
1590.6014 396.18152
1587.605 396.55615
1584.0093 394.4613
1583.0233 395.98932
1584.4797 397.24756
1582.7998 400.0227
1580.6454 397.09042
1581.378 395.2038
1580.7009 393.49286
1581.229 391.06992
1580.7166 388.83856
1583.2417 388.67224
1586.1593 391.58282
1588.2168 387.9021
1591.6488 386.7896
1594.3088 385.37604
1592.5973 383.86972
1590.9236 383.5656
1590.067 382.09607
1588.4518 381.3694
1585.6841 382.41223
1586.9729 379.3469
1585.1611 376.9093
1584.6047 374.6517
1588.5319 375.56064
1590.3401 377.9105
1595.0645 378.85425
1596.885 382.60272
1600.574 383.7131
1602.2872 380.75824
1603.9006 383.81006
1602.9517 386.02533
1605.747 385.9847
1606.5846 383.8147
1607.4395 382.82138
1609.0548 380.51245
1606.3911 380.45102
1604.3457 380.37668
1600.9021 378.4699
1598.8408 376.84872
1600.4026 373.5842
1603.067 375.0692
1605.5265 375.75656
1609.8746 378.34766
1610.8973 376.5337
1612.4648 373.66367
1607.9824 372.30566
1604.9185 369.29877
1610.2739 368.63788
1614.9285 367.3946
1616.2312 362.8276
1619.1039 362.62094
1620.1627 365.67303
1622.9989 366.03574
1623.6548 368.10214
1620.1218 369.97083
1617.466 373.23828
1621.6691 374.30624
1624.6665 373.1218
1624.7521 376.89575
1621.3495 378.5625
1618.5953 380.72864
1618.9282 376.83542
1616.5023 377.21237
1614.7673 379.1388
1613.0662 380.76562
1610.9785 383.72116
1613.672 384.30383
1615.1167 382.93298
1617.1147 382.78403
1618.3416 386.2032
1615.3417 386.7824
1612.3806 388.4463
1608.6586 387.90485
1604.1122 390.52975
1603.6708 393.56464
1603.5094 388.25513
1600.325 388.70966
1600.5309 392.3169
1601.4841 395.94382
1599.1686 397.35406
1597.6687 394.46912
1596.8688 391.77817
1597.6631 386.4077
1596.3912 388.8228
1592.6057 390.1515
1592.7853 393.9581
1596.0159 396.8861
1596.8914 399.66345
1598.1985 400.9856
1598.6714 402.07196
1599.1866 403.4317
1597.5148 404.358
1593.5295 404.7944
1593.8585 409.49655
1599.0156 408.4187
1603.5171 409.00616
1607.5897 413.14813
1610.3232 411.55295
1612.2039 409.43295
1614.4752 408.87842
1617.0369 408.85483
1616.1414 407.2413
1617.2086 404.87494
1616.5549 401.46848
1613.06 405.66882
1610.0806 405.99216
1610.2733 408.0061
1607.435 408.09433
1607.4803 404.67993
1605.8029 405.7983
1601.6262 403.95563
1602.6582 398.92926
1603.8079 400.01233
1603.9291 401.88214
1606.6531 402.59387
1610.2964 403.60773
1611.4963 401.68134
1609.781 398.63928
1606.4786 399.11414
1608.3784 393.81628
1612.477 394.95422
1614.5571 389.9785
1614.9377 392.93622
1613.5256 398.69867
1616.4965 396.08417
1618.714 396.11362
1619.2739 399.2613
1620.7526 396.29022
1621.9475 395.47253
1623.4487 397.41827
1625.8248 396.8424
1623.2974 394.58295
1621.2996 392.5272
1619.4174 393.08942
1618.8655 391.57654
1617.6052 389.7937
1620.7859 389.6637
1622.7407 391.82776
1624.6537 392.1405
1624.4908 386.68344
1627.3824 388.873
1628.9757 391.0987
1632.209 391.535
1633.2416 386.27264
1628.6967 384.25348
1625.5515 383.07562
1622.078 384.39435
1620.7021 385.6462
1622.4142 382.17328
1624.4221 380.70786
1626.8069 380.37103
1629.2195 379.53656
1631.3351 377.859
1633.1367 381.50067
1636.0812 381.8208
1638.105 379.43665
1638.1267 381.9621
1639.3148 382.98334
1638.8079 385.7204
1639.3276 389.48138
1635.6946 392.17535
1639.2424 392.62512
1641.266 393.86935
1641.9285 396.28955
1644.4824 393.40326
1646.7429 394.34387
1648.4808 393.0302
1646.9644 396.48468
1652.985 397.68683
1649.9866 400.21967
1647.2346 401.24243
1646.8425 398.57092
1644.2444 399.72998
1640.6725 400.6096
1639.7388 398.3814
1636.9047 396.71002
1638.4419 395.34747
1634.0499 395.81818
1631.4514 395.39587
1628.1445 394.08606
1627.4492 396.04428
1627.0514 399.2171
1630.4124 399.19308
1630.0554 403.15802
1631.7368 405.1513
1633.5773 402.1948
1634.0369 399.2378
1636.0707 401.33948
1637.4379 403.28793
1642.3403 404.24817
1637.5924 406.28183
1634.027 406.50665
1631.6644 409.51782
1631.8777 414.55917
1635.7476 416.85324
1633.4796 422.74084
1631.5244 421.76147
1629.601 420.14706
1625.91 420.63388
1626.3578 416.83588
1627.1002 413.45935
1628.1641 409.7983
1627.9576 406.76535
1625.9735 405.26132
1625.4604 402.87073
1623.3744 400.68677
1620.9896 403.8126
1621.2266 407.68628
1624.0596 409.52536
1618.548 409.94727
1618.4529 411.8358
1616.6388 411.81104
1613.457 414.32593
1616.5471 418.4725
1619.2903 418.43954
1617.168 415.9398
1618.6167 414.13123
1620.4773 412.00693
1622.4836 414.53577
1622.5281 417.95337
1622.6467 420.77228
1620.3452 422.50266
1624.8724 426.21957
1630.6504 428.8368
1635.9153 424.33774
1639.6543 425.1981
1641.1147 422.78403
1638.6375 419.7026
1642.4293 421.12646
1644.249 419.29218
1646.7021 420.1786
1645.525 422.9785
1645.3293 425.06805
1643.5679 426.06537
1647.2811 426.35358
1649.8867 425.34906
1648.0908 422.749
1650.8015 420.54797
1650.3716 417.92212
1646.843 414.9587
1643.9963 413.30173
1642.3287 416.5885
1640.2408 413.5698
1637.9441 412.43112
1635.1748 410.7927
1637.137 410.90808
1639.629 408.7656
1644.219 408.58173
1646.1335 410.64026
1647.9882 411.05457
1648.6426 412.85065
1649.6953 414.41302
1650.8313 411.4825
1653.0942 412.48993
1656.9098 413.0625
1657.2026 415.8713
1653.7626 414.69836
1651.1125 415.81552
1655.1511 418.66672
1658.7861 420.39758
1652.574 422.28085
1653.1692 425.47543
1656.1865 424.35925
1658.3086 425.01855
1659.8208 426.89316
1661.8787 428.60455
1663.5835 430.7179
1666.7357 431.50912
1669.1411 425.80893
1664.29 425.78387
1666.3944 421.09406
1666.4213 417.20496
1661.823 417.7575
1660.1006 414.2883
1662.5865 413.4892
1661.8948 410.33093
1658.7305 409.44662
1655.1554 406.31677
1653.1858 408.74084
1649.3076 407.66486
1647.9868 404.59897
1655.5752 403.17767
1658.597 401.19623
1661.9452 403.8067
1663.0934 406.91025
1666.2034 406.6989
1666.2428 410.01624
1665.502 412.16547
1665.4089 414.3935
1669.0735 414.08923
1671.1753 415.5177
1673.6531 419.7342
1674.1567 422.6601
1674.0271 426.34607
1674.1405 429.7414
1676.8146 430.58066
1679.4213 432.65442
1676.2921 432.90765
1676.7173 436.17346
1672.3293 433.9671
1668.9702 436.50586
1676.1548 438.3946
1680.1705 436.36957
1681.2708 439.84006
1678.669 444.1319
1675.5234 440.6209
1674.209 443.72693
1670.0588 447.3486
1672.8556 448.46494
1674.9956 446.95505
1680.1078 447.90646
1684.2767 446.24033
1680.1301 451.33954
1681.306 455.2953
1682.8336 457.94586
1682.9376 462.38116
1680.1934 461.24838
1677.5016 460.87546
1677.3845 457.86127
1677.5837 454.63925
1673.7673 456.51035
1673.3944 460.27942
1674.7047 462.21506
1675.2114 463.95532
1670.7039 461.42084
1671.0438 465.32166
1669.8148 468.66855
1668.8088 465.48187
1667.0829 466.52698
1665.239 468.25916
1664.2533 470.4041
1664.4147 473.68283
1665.8247 473.28802
1667.0723 475.52246
1669.2219 473.37106
1671.5518 471.0084
1675.1165 472.7535
1674.8687 468.1833
1676.3235 466.13547
1677.8108 464.60883
1680.4047 464.39462
1681.0149 468.15686
1680.3291 474.05783
1678.5969 478.78973
1679.2285 483.51303
1676.0918 488.03418
1675.5166 485.08832
1675.3251 482.3531
1671.9927 481.31903
1675.8636 479.30267
1678.3425 477.2484
1675.9724 475.27182
1673.1656 477.26572
1669.3737 478.8496
1669.46 483.10532
1671.979 484.10638
1667.8225 484.53903
1666.3328 487.6357
1662.314 487.5432
1663.051 490.56613
1661.1434 493.85568
1660.0327 497.2148
1661.6696 497.45102
1663.5695 498.20612
1665.3434 497.87814
1667.2634 498.38556
1668.1069 500.26086
1665.6372 500.66132
1664.739 502.11996
1667.612 502.18427
1670.2563 501.40967
1670.0658 498.1197
1672.4353 496.75586
1670.1721 495.08124
1667.362 494.86774
1667.8853 491.61606
1669.8467 488.6102
1672.1609 487.45468
1671.8466 491.83466
1669.3124 492.971
1671.4136 494.2428
1672.6418 494.2163
1676.0305 493.58932
1676.046 500.46643
1669.0121 505.10104
1664.2389 506.1054
1663.3362 503.31384
1660.9147 499.37683
1659.7238 502.21448
1661.3297 504.84296
1662.9773 504.75275
1660.5842 507.14035
1665.196 508.77325
1668.4818 511.9442
1661.5421 512.9391
1657.8848 507.88605
1656.9485 511.23288
1653.9927 511.34128
1654.8469 514.4617
1656.4802 514.27374
1658.4476 514.4118
1658.7069 516.17126
1659.6923 516.9629
1657.7979 519.9902
1654.7877 518.28796
1652.5344 514.9795
1649.3472 515.15
1646.218 515.65076
1643.1099 515.6439
1641.2664 518.8638
1641.7314 524.5231
1643.716 521.5994
1646.9788 519.2849
1647.835 521.6236
1649.4094 523.48303
1647.9683 526.2965
1644.2954 528.1101
1639.2694 528.06067
1637.4235 531.70624
1634.6116 529.3634
1633.1708 532.21936
1632.6481 533.96655
1630.3645 533.6325
1628.4963 536.11707
1625.3499 536.43115
1623.0332 538.76196
1620.4202 536.7534
1619.1543 535.0635
1616.4365 537.52295
1613.8212 535.5465
1618.8352 533.5341
1619.0238 531.45056
1618.7461 528.39374
1621.7217 529.5578
1621.8684 533.94275
1624.7805 533.68036
1626.1653 530.805
1627.5684 528.86365
1629.3502 528.9659
1631.2843 528.1056
1633.6255 526.24316
1636.3942 527.7733
1637.8142 524.12476
1636.6492 521.7618
1633.5464 522.5683
1629.748 524.25037
1626.7134 525.5503
1624.9092 527.21594
1622.534 524.66187
1619.9104 522.274
1616.4106 524.453
1614.451 528.488
1616.4961 529.63464
1612.0038 533.3369
1609.567 532.0628
1608.1703 529.11755
1608.2688 526.4166
1610.7665 528.64
1611.9696 526.1356
1613.2911 523.5656
1615.896 521.02515
1617.7733 518.51355
1613.5984 520.7029
1611.5397 520.24695
1614.0997 517.9939
1611.8328 516.1701
1615.7576 514.5437
1615.7007 511.44272
1618.9213 510.9316
1619.2659 508.01886
1621.9651 509.81476
1624.8433 505.4198
1631.261 503.3558
1633.5396 503.6737
1635.2626 505.6456
1634.6665 508.00885
1632.7548 508.3875
1629.8217 507.12292
1629.6692 509.16464
1628.1483 511.6845
1623.1786 512.72217
1619.1359 513.69794
1617.4113 516.3175
1619.6876 515.91095
1621.125 518.48755
1624.5027 516.6929
1626.7319 520.62756
1632.2555 521.6723
1631.6964 519.8392
1631.3774 515.4318
1635.5618 518.0964
1637.8054 516.4324
1637.6426 512.51184
1640.1958 507.48547
1636.8679 505.39706
1639.1005 503.98547
1638.0645 501.7137
1637.7528 498.36115
1639.0975 495.44067
1638.1542 492.87408
1635.8616 491.72998
1635.346 490.20297
1632.44 491.78232
1630.1821 495.17438
1633.1997 495.8558
1634.1448 499.17847
1628.4963 501.6081
1624.4648 498.48996
1620.0757 499.48853
1616.2494 500.4439
1619.8093 503.9225
1618.1628 506.31406
1615.9713 505.74838
1613.6162 506.80942
1612.2114 509.1886
1611.2173 511.09482
1609.5746 512.19574
1608.5077 514.11694
1608.2681 517.28455
1607.9834 519.656
1610.511 522.3461
1608.3984 522.6253
1606.8818 523.96893
1604.3296 525.0531
1605.0582 527.26154
1606.4114 529.1134
1601.4088 529.50867
1598.5951 529.8884
1605.0588 531.7542
1609.0862 537.8154
1605.7031 539.8625
1605.138 537.22876
1601.8826 536.2604
1597.5244 533.78906
1596.1337 538.56335
1591.8547 541.9592
1587.9979 539.78625
1582.2327 541.9136
1582.3984 539.205
1582.4479 536.197
1584.0536 538.82465
1586.1487 537.72424
1590.4503 533.9253
1587.312 532.92303
1585.861 530.13745
1583.2716 532.326
1579.687 532.992
1576.3557 534.9239
1577.775 539.2977
1574.9623 540.9362
1572.1139 541.75433
1566.8282 542.6461
1565.0452 539.9193
1560.1155 539.86017
1558.9531 534.5006
1557.0337 535.4121
1558.3975 536.7162
1555.6658 539.7302
1554.1877 536.4092
1549.5793 536.11664
1546.6866 533.2907
1542.0691 533.3594
1539.4928 530.53796
1536.1233 529.2591
1532.9797 528.29486
1535.2418 524.9679
1538.2521 521.978
1537.2256 519.17456
1534.8175 519.7151
1531.947 517.777
1530.6179 521.77576
1531.8962 524.38135
1532.2538 526.0439
1530.7896 526.73047
1528.6351 527.73926
1528.6682 524.8153
1526.4204 522.6032
1524.3772 524.6123
1522.924 520.2639
1527.4307 517.50555
1524.411 517.92413
1519.8469 520.24207
1521.1438 516.99207
1518.4707 514.6933
1512.3856 516.9301
1513.7108 511.74884
1516.5118 508.47507
1520.0732 506.89233
1522.9087 505.9752
1522.6123 502.63196
1524.3904 499.0929
1525.5629 492.68494
1529.3206 494.37595
1533.1072 495.37424
1535.6643 493.69818
1536.778 489.82468
1536.959 485.44812
1541.9922 485.9902
1541.5764 492.81647
1543.9694 495.08386
1547.8577 494.86728
1546.6125 489.6235
1551.2361 491.8132
1553.3976 496.1554
1555.4818 493.80453
1558.2623 497.46893
1554.2379 500.1676
1549.8892 499.0102
1547.2834 500.09396
1547.6642 497.9902
1544.3589 497.82703
1545.0939 500.93283
1541.5935 502.30878
1538.4906 498.4806
1535.6104 499.92194
1531.2312 498.94153
1527.6953 497.83273
1528.8467 502.349
1527.6669 506.23413
1525.0002 507.25195
1522.7719 508.37094
1519.456 510.0283
1521.6627 511.6887
1523.7839 513.8789
1527.5698 510.66586
1531.0361 513.51825
1535.5273 514.0033
1535.8917 516.6055
1539.3691 517.39294
1539.0028 512.7871
1535.7261 510.51962
1533.9973 510.9519
1531.7794 510.21375
1531.6423 506.92828
1532.6445 503.47052
1534.2415 502.04395
1536.3004 503.4298
1536.721 505.53244
1538.7153 507.17963
1541.6342 508.86826
1542.633 511.7534
1543.614 514.93146
1545.7668 515.7844
1547.6995 516.791
1547.7379 518.96765
1550.6864 518.5423
1552.7842 517.79474
1553.9475 516.2912
1556.6536 516.6223
1559.5952 517.18066
1562.0752 520.82294
1564.4712 517.3134
1566.8362 516.38135
1569.4098 514.6235
1566.7998 512.73816
1565.9196 514.3455
1564.0686 512.6669
1564.8792 508.76288
1566.1373 505.8022
1563.8918 505.50647
1560.6926 504.5871
1561.4741 506.69467
1561.1447 508.67343
1562.0295 510.85864
1561.189 514.49475
1558.3933 513.86316
1556.1372 513.4287
1556.0771 510.09872
1552.6017 512.0312
1549.2678 514.2899
1549.7625 510.4699
1545.8987 508.14417
1549.3638 504.28976
1552.0321 507.28265
1555.821 505.50366
1558.385 501.1179
1562.9331 500.05115
1568.2599 499.9209
1569.3492 504.7363
1568.0793 507.91174
1567.9962 510.75287
1570.0865 507.21912
1573.1466 504.8712
1577.8079 500.92722
1577.5967 505.31223
1580.6318 508.20062
1584.2476 508.0703
1584.4095 505.5387
1585.9497 500.72064
1594.2487 499.61786
1600.6465 499.10117
1596.5322 503.67014
1592.6112 505.7422
1589.3994 503.6327
1586.9906 504.82773
1588.562 506.90472
1589.3816 509.1915
1593.557 511.43115
1597.5133 512.90283
1595.0615 519.59106
1590.3645 514.27014
1586.914 514.30347
1583.2772 511.82126
1579.9989 514.05005
1576.1008 514.50226
1577.0813 511.0818
1575.5594 509.29916
1572.382 509.91623
1571.2227 511.46725
1570.8777 512.99536
1572.021 514.87805
1575.2815 517.1262
1580.4596 518.7824
1579.1619 522.59937
1578.8232 525.45935
1575.349 523.55115
1574.6031 520.897
1572.0967 517.3738
1569.4246 518.2693
1566.5681 521.91455
1569.5212 523.2987
1572.6372 524.2231
1568.1545 526.6922
1567.5095 530.71704
1567.01 528.78345
1563.3599 527.09814
1560.3435 525.2444
1558.4568 527.0837
1558.083 523.0376
1556.2068 519.7977
1553.233 521.9526
1554.9739 524.8229
1552.6925 524.7723
1550.0002 525.41327
1549.3708 521.86194
1547.4749 524.5983
1545.8712 525.15533
1545.436 523.2214
1544.8535 520.26776
1542.859 522.47894
1540.7906 525.73364
1544.1385 528.6321
1548.4297 529.6121
1551.7158 531.4895
1554.2393 527.3663
1556.0571 529.6422
1555.1328 533.0142
1558.3003 531.986
1560.4034 530.60156
1560.7178 533.15576
1562.05 536.93176
1563.9404 533.264
1567.8615 533.02594
1567.4885 536.415
1570.897 538.8672
1571.4417 532.58234
1573.731 531.277
1574.9946 529.637
1571.887 528.04144
1574.1744 526.8065
1576.1941 526.9275
1578.9773 529.3201
1584.1854 527.004
1585.0247 523.45953
1586.03 519.6416
1592.1445 524.1165
1589.3633 527.4121
1591.3308 530.2705
1594.9331 530.6636
1596.8824 524.5842
1600.5652 525.7018
1604.2375 522.5188
1601.7417 522.26086
1600.9303 518.5432
1605.1733 518.65027
1605.6918 516.1697
1603.4675 513.9763
1601.9203 509.09363
1606.2623 507.6638
1607.8018 509.74106
1609.6755 504.97473
1605.5574 502.37024
1609.0884 496.2492
1611.9298 499.15045
1613.6842 502.48743
1614.4615 497.32248
1615.8613 494.96484
1620.1367 494.3083
1620.7385 490.6673
1625.6294 489.5794
1626.6846 495.32993
1629.3115 491.3911
1628.6709 488.2151
1630.7415 487.60165
1627.6257 484.502
1624.8085 482.76706
1629.4269 481.23907
1630.8976 478.41037
1629.8848 474.92487
1630.7314 470.5343
1633.4581 468.0371
1635.0562 466.08087
1632.713 464.5478
1634.5201 462.88824
1636.4622 464.8404
1637.418 462.30377
1638.8931 461.09674
1639.261 465.5915
1641.4305 468.00458
1642.6509 469.3446
1640.643 471.55856
1637.5597 469.13403
1635.2908 474.11447
1632.8828 477.0418
1634.2222 478.8872
1633.4661 480.54623
1632.1873 482.87012
1633.7385 484.44482
1634.8444 488.2964
1635.9476 485.6845
1636.3759 481.6819
1639.3971 483.30292
1641.771 485.53867
1643.9854 487.90106
1644.9829 479.94385
1641.5244 477.66083
1637.7639 477.6067
1642.8374 474.16904
1642.9185 472.23615
1644.8484 471.41965
1645.0896 469.29745
1645.4255 466.0852
1650.1094 464.12378
1649.1141 458.39136
1645.6652 458.85934
1643.9194 456.4074
1644.5316 460.88196
1643.5792 463.81958
1640.498 462.8777
1642.208 462.04343
1641.5852 459.4383
1637.8007 456.84827
1633.1334 459.0019
1634.6085 452.13184
1638.1437 453.6573
1641.1117 454.58896
1643.0261 452.618
1640.3398 449.13715
1640.8882 442.27133
1637.126 442.0383
1637.7906 439.16315
1634.3245 437.12946
1633.4087 433.5758
1629.1226 433.5459
1630.247 437.9524
1632.406 442.83588
1633.0748 447.46283
1638.0902 446.60687
1643.4248 443.8542
1646.2576 446.78046
1643.9749 447.86166
1644.1472 450.36542
1648.1804 452.59833
1648.4098 449.295
1649.4639 447.7262
1652.172 447.66193
1649.9227 443.0183
1655.3148 444.61667
1658.3025 445.93246
1654.6487 446.57382
1655.7642 448.95648
1653.2798 453.85406
1656.8732 452.47485
1659.0409 449.623
1663.5159 445.80487
1661.9126 443.86362
1661.8386 440.19397
1658.5872 441.78976
1655.7655 443.37717
1654.9683 439.79114
1653.0015 436.58282
1649.9829 435.6701
1647.7268 433.95358
1645.7711 436.39062
1646.573 442.22397
1643.7145 439.4192
1641.345 436.81
1639.272 434.99146
1636.147 433.55307
1637.7988 429.33643
1642.0696 427.0982
1641.7832 429.08264
1642.2352 432.44165
1645.9163 430.48334
1649.4274 429.00497
1652.4137 432.51282
1656.5214 434.54016
1654.7728 428.91754
1657.173 428.78366
1659.8357 432.51767
1662.6211 436.50635
1664.5088 438.94467
1666.9172 438.67688
1666.1221 441.42987
1669.3955 443.67145
1667.6483 446.82736
1668.0725 449.68817
1673.8761 451.68015
1671.0193 454.1191
1670.1343 457.63367
1666.7761 457.4508
1667.4319 461.75522
1664.346 463.41907
1661.1268 458.82654
1663.2285 456.23822
1665.5175 452.5505
1665.2434 449.16412
1662.7195 448.94794
1661.3467 452.87152
1658.246 455.71448
1656.1503 459.3324
1654.8857 463.50256
1657.7181 464.2795
1660.9238 464.30353
1658.77 468.22675
1662.6499 468.41586
1661.0205 470.91452
1659.5338 473.009
1661.1368 472.27698
1663.0974 472.89963
1662.0339 474.13068
1663.0156 477.9415
1665.9333 478.7569
1665.6614 481.20398
1663.9756 484.159
1661.237 481.85043
1658.2888 483.1314
1655.8864 479.89816
1658.6967 479.65637
1659.9365 476.56012
1658.8148 474.7556
1656.4482 475.29565
1656.2914 472.41196
1652.5046 473.8819
1650.5979 471.53308
1654.1615 469.52036
1651.2335 468.25656
1647.6213 470.8584
1646.7307 474.07855
1648.684 475.21844
1650.4336 477.45715
1654.5853 476.31003
1653.0824 478.01172
1651.9485 479.42682
1648.7698 481.3952
1653.0103 482.78268
1651.6807 486.4648
1649.353 489.7452
1643.4482 491.53394
1643.2892 494.0046
1642.863 495.66107
1645.7351 497.35938
1641.6533 498.16425
1642.5385 501.21985
1643.3402 504.32492
1645.6133 503.2973
1648.5756 503.9184
1646.5326 507.61313
1644.8292 510.2395
1642.8861 512.0503
1645.9135 512.6697
1648.2593 510.76022
1650.2064 508.80585
1653.3533 509.12152
1653.3088 505.15613
1656.0011 501.8166
1655.7555 499.4935
1658.2593 497.63745
1655.9927 496.7962
1653.7188 496.0312
1653.3182 498.46457
1651.0447 500.4643
1647.7498 499.19678
1650.5063 494.521
1655.269 491.44025
1657.5874 488.58545
1655.2211 485.54376
1658.4263 485.45013
" />
</g></g></svg>
