<?xml version="1.0" encoding="UTF-8" standalone="no"?>
<!-- Created for Inkscape (http://www.inkscape.org/) -->

<svg
   xmlns:dc="http://purl.org/dc/elements/1.1/"
   xmlns:cc="http://creativecommons.org/ns#"
   xmlns:rdf="http://www.w3.org/1999/02/22-rdf-syntax-ns#"
   xmlns:svg="http://www.w3.org/2000/svg"
   xmlns="http://www.w3.org/2000/svg"
   xmlns:sodipodi="http://sodipodi.sourceforge.net/DTD/sodipodi-0.dtd"
   xmlns:inkscape="http://www.inkscape.org/namespaces/inkscape"
   width="3200"
   height="800"
   id="svg2985"
   version="1.1"
   inkscape:version="0.48.1 r9760">
  <defs
     id="defs2987" />
  <sodipodi:namedview
     id="base"
     pagecolor="#ffffff"
     bordercolor="#666666"
     borderopacity="1.0"
     inkscape:pageopacity="0.0"
     inkscape:pageshadow="2"
     inkscape:zoom="0.35"
     inkscape:cx="1600"
     inkscape:cy="400"
     inkscape:document-units="px"
     inkscape:current-layer="layer1"
     showgrid="false"  />
  <metadata
     id="metadata2990">
    <rdf:RDF>
      <cc:Work
         rdf:about="">
        <dc:format>image/svg+xml</dc:format>
        <dc:type
           rdf:resource="http://purl.org/dc/dcmitype/StillImage" />
        <dc:title />
      </cc:Work>
    </rdf:RDF>
  </metadata>
  <g
     inkscape:label="Layer 1"
     inkscape:groupmode="layer"
     id="layer1"> 
     <g>
<path style="fill:none;stroke:black;stroke-width:2px;stroke-linejoin:round;stroke-linecap:round;" d="M 
1641.6108 460.34454
1643.4292 462.95837
1642.0492 463.6611
1645.8992 469.0996
1649.9238 466.69977
1647.1643 466.08307
1645.0483 464.21777
1644.9175 460.197
1644.4626 457.9354
1646.4501 460.76038
1647.385 458.48874
1650.6733 455.51923
1647.3423 451.67792
1644.2644 453.81006
1644.0642 449.1538
1646.5826 448.26218
1647.0667 445.0683
1647.3219 443.20505
1647.7222 438.6245
1645.325 440.49973
1647.1259 444.29208
1641.3994 444.70337
1641.1245 444.2271
1637.8184 439.74582
1636.3737 440.5344
1636.0427 445.10712
1636.7507 446.035
1638.7407 446.79245
1637.4677 449.8949
1634.8059 452.7951
1636.9424 457.09125
1640.9268 460.44785
1637.4324 461.20917
1635.0867 461.03354
1633.5328 460.60886
1635.4414 461.8404
1633.4655 465.73508
1630.8285 468.5997
1632.4491 465.1672
1626.956 470.39133
1624.6898 479.69775
1625.7559 482.65234
1626.7698 479.62323
1632.1548 473.8745
1634.4048 469.8451
1634.7883 469.11865
1638.2576 469.03955
1642.8574 469.31146
1639.6562 473.01495
1634.7169 475.78778
1640.0491 480.64612
1636.6782 483.5951
1637.4674 485.07593
1638.3994 486.04962
1636.6484 487.4139
1635.064 487.32623
1633.4529 488.03613
1633.3618 487.39658
1634.2607 485.1908
1629.7971 485.80554
1627.4578 486.34277
1624.9722 488.22046
1630.2144 488.91196
1631.5754 490.88898
1630.1431 494.365
1632.2288 498.22382
1634.095 497.6506
1636.794 493.46667
1636.576 489.68988
1638.169 490.53143
1638.3278 490.76364
1643.8313 488.56976
1643.1989 497.31592
1641.9756 497.7652
1644.3097 498.65268
1643.4209 499.11176
1643.0704 500.72385
1644.4827 501.81335
1641.4781 504.2746
1645.5618 503.91953
1649.7369 510.15292
1649.8947 512.51227
1651.3583 511.90244
1651.9763 512.028
1651.2255 513.9173
1653.1105 516.6902
1652.0602 519.14624
1649.227 521.5688
1645.9572 519.07117
1644.0867 521.44946
1644.4471 519.5641
1643.9056 517.2141
1645.5787 518.05896
1646.2343 517.38086
1649.1641 513.4497
1647.9587 512.18634
1646.1683 514.1183
1643.2769 516.7827
1636.5527 514.0006
1638.5403 518.845
1637.5728 520.1084
1636.5369 523.25085
1637.3453 519.99493
1636.4204 519.2562
1632.9216 519.4949
1632.0281 514.4698
1631.6752 508.79364
1632.487 507.8537
1631.4377 504.95618
1634.5465 502.8055
1632.221 502.7882
1628.2836 501.59924
1627.2517 501.75165
1630.9905 505.81915
1630.1028 509.3021
1630.3901 509.64026
1628.6503 512.047
1626.8428 513.4784
1626.5642 516.68787
1626.4253 517.2222
1627.4772 519.5772
1628.6451 523.01587
1628.9702 525.89105
1627.4778 525.78973
1625.1785 527.3987
1626.9551 527.62634
1628.6558 527.32324
1629.2302 526.4552
1631.8186 527.65356
1630.7961 529.67175
1632.0475 528.0738
1641.1626 527.2298
1639.9303 524.1166
1639.6648 522.68787
1641.3234 522.0765
1643.2739 524.0737
1645.3865 525.07526
1643.2942 525.4381
1642.9364 530.5832
1643.6511 531.3522
1643.2323 533.4645
1644.0391 536.8552
1647.4753 532.9126
1649.4067 530.90533
1651.9337 531.3029
1650.8337 533.71423
1654.2529 533.69385
1654.9902 533.0847
1657.52 529.8863
1654.2505 527.20953
1654.9236 525.95044
1656.4467 520.88135
1662.5399 521.3563
1664.7346 523.87146
1665.2085 527.68475
1668.6084 526.926
1663.448 528.3791
1664.1034 529.19464
1662.8174 533.6315
1657.4214 536.99054
1663.1963 534.01294
1665.718 537.0047
1669.2346 537.0734
1669.4728 536.94006
1672.3058 534.88696
1670.6252 534.0248
1667.9119 530.4993
1669.3787 530.049
1673.574 525.7393
1673.0061 522.9398
1668.2488 523.66266
1667.8496 522.7207
1667.4183 523.74005
1665.8079 523.9132
1666.4967 521.1581
1665.5798 516.5638
1666.4966 513.5443
1668.3336 513.1522
1669.2417 516.5577
1673.2502 515.5113
1672.6648 510.42575
1671.293 503.6112
1666.7574 503.43042
1665.3911 502.94916
1664.1704 505.31097
1660.2661 503.25836
1658.6566 501.8158
1661.7958 499.24548
1658.6113 497.98605
1654.978 498.5251
1654.1788 498.39752
1656.776 503.51575
1659.6963 504.4278
1660.8325 505.56723
1663.2183 509.98114
1665.5706 510.58496
1661.857 510.80902
1661.4089 515.27185
1662.2123 517.8988
1661.2224 516.90967
1660.117 516.2554
1657.6901 519.59485
1653.9813 518.29846
1654.2976 513.76355
1655.4105 512.8551
1653.501 510.8082
1651.1605 508.37057
1650.3866 505.4607
1650.5225 504.41437
1647.8328 499.20508
1645.649 498.98083
1648.0668 492.41302
1644.6499 488.44928
1642.9315 484.5267
1645.3887 484.59686
1649.2842 485.5547
1648.9054 489.7063
1650.5508 491.7525
1652.8037 493.16333
1654.8113 490.27426
1651.1993 485.60034
1649.6617 484.25177
1649.5562 483.1808
1648.7156 481.4786
1644.7439 481.22824
1648.8901 473.98947
1651.1827 473.2047
1652.696 474.81064
1653.5422 476.62537
1652.1487 476.717
1651.3853 480.56512
1653.5729 483.24207
1658.8689 483.7739
1664.5702 482.19586
1665.887 480.95184
1666.4523 482.48065
1665.8799 484.72714
1668.4431 484.74738
1668.7297 485.74963
1668.7607 487.96542
1666.9769 488.9192
1665.3136 489.20288
1662.581 489.24152
1663.2146 491.54465
1662.6245 492.15952
1665.6963 495.37656
1666.6237 497.65707
1671.0006 497.29956
1673.0125 494.3315
1671.0818 491.61212
1669.8411 489.71393
1672.2349 490.00378
1672.3167 488.57678
1673.6072 488.29187
1672.982 484.536
1671.2098 478.1423
1671.0481 477.27594
1669.4509 477.3366
1669.5784 479.1676
1665.6667 478.78268
1663.6797 480.1744
1661.4061 480.67346
1656.2823 478.1782
1662.7551 468.56207
1668.5306 469.53088
1672.8247 462.1853
1672.5698 461.5465
1677.0354 459.34784
1677.5681 458.81213
1677.9053 461.43628
1682.0669 460.10083
1683.7759 461.7397
1685.3679 463.8659
1687.919 462.53464
1687.1195 459.03217
1685.8529 458.28436
1684.522 459.62866
1680.8853 455.8758
1679.0564 452.6483
1679.0106 449.74927
1680.2042 452.01547
1680.8584 453.82996
1681.8328 454.85666
1681.9723 455.09863
1688.1702 453.79755
1693.1693 454.1009
1693.95 460.0875
1694.1465 460.41742
1695.5964 461.84677
1696.0618 460.7281
1697.4568 461.58725
1698.4973 459.91122
1701.8998 462.34326
1699.9736 458.55225
1700.5508 452.79938
1694.2979 454.3051
1691.7454 451.60068
1690.8765 451.91745
1681.3724 448.2387
1678.665 444.21777
1678.6296 441.63586
1675.8378 440.8159
1675.7024 442.03223
1677.0072 443.39218
1673.9543 443.87042
1672.8661 445.25928
1676.0247 444.96735
1678.1141 447.953
1676.2162 448.19226
1674.7037 448.88855
1671.3839 453.1374
1670.4297 455.21738
1669.2859 455.72382
1667.8851 459.05402
1666.9521 458.37524
1665.8369 458.56366
1663.4445 462.9017
1659.7762 463.65625
1660.7916 467.21213
1655.7708 466.87378
1659.0193 462.75168
1660.1722 462.5658
1660.3823 461.7437
1658.5566 461.3
1657.3124 458.0069
1656.8115 457.30585
1656.7749 460.44495
1653.7411 460.52094
1651.4006 457.36737
1654.512 456.75806
1652.7255 454.86826
1653.0444 453.47946
1656.3083 450.73273
1656.8091 450.00513
1655.4755 449.31415
1649.4114 447.02588
1654.5444 444.0108
1660.3633 446.75604
1662.5271 447.52246
1659.1088 451.13928
1661.1821 454.88257
1662.7407 455.39667
1664.9458 452.4509
1669.8177 452.7021
1669.9128 451.10654
1668.5763 449.13232
1667.2924 449.868
1665.7158 447.0196
1664.1018 442.05783
1662.6785 441.9641
1661.8711 439.088
1665.008 440.98325
1665.2668 440.59445
1666.6265 438.07318
1669.177 439.53452
1674.4607 439.0318
1675.3551 435.48785
1677.5249 433.95892
1680.5883 434.5241
1683.5586 435.27316
1687.1499 434.19052
1686.7151 434.81458
1686.0076 437.7412
1685.468 438.30334
1684.0822 440.1457
1683.9738 440.8861
1688.5732 441.24402
1689.0879 442.87793
1691.6826 444.51727
1692.7891 445.02585
1696.8029 450.21872
1696.2827 445.77527
1700.4631 443.68787
1695.0583 438.47382
1696.5635 435.92514
1698.2832 432.00046
1698.937 430.1606
1701.0498 427.40234
1699.4666 425.19406
1699.5543 424.5687
1698.9596 424.30917
1697.1747 426.18323
1697.0284 426.20477
1693.3354 427.6528
1693.9675 428.84326
1695.7755 429.88715
1697.7109 433.62827
1692.807 435.31284
1691.7993 435.86557
1688.5526 435.51276
1687.9634 433.49402
1686.0342 432.16846
1679.1277 430.7734
1676.933 432.96115
1676.6951 426.97357
1672.5757 430.7927
1672.4724 429.6454
1671.6592 426.01245
1672.0698 425.05634
1670.0072 425.6983
1664.7278 424.87363
1661.2063 429.5283
1664.429 430.37094
1668.2227 435.03998
1664.8824 431.63306
1665.0791 428.50757
1664.452 421.2011
1665.973 419.14178
1669.4575 414.64624
1668.2432 414.53708
1664.0999 414.61932
1661.6385 413.3606
1660.3342 415.36044
1661.9403 417.0803
1662.5295 418.86334
1661.9584 419.58636
1661.2214 420.43332
1661.1622 421.02438
1658.2236 421.2052
1657.1344 416.66656
1657.7089 414.9636
1654.1587 416.96555
1653.5833 411.57358
1660.858 410.5332
1661.1382 405.21957
1661.9854 403.1778
1662.502 403.55286
1663.0637 407.21454
1667.0065 408.133
1672.8403 405.9996
1670.9824 404.73288
1665.6536 403.53284
1664.4753 403.05872
1665.009 400.72955
1666.7782 394.50656
1669.5514 394.4841
1666.7417 393.12665
1665.503 393.3623
1667.272 392.3576
1665.4767 390.72705
1666.1012 389.8413
1667.8468 390.13593
1666.854 389.36053
1665.887 389.03622
1667.6255 386.35156
1671.4646 384.5594
1673.2065 382.78668
1666.9536 384.60284
1665.0247 382.39038
1659.0787 384.8169
1656.5508 383.96945
1658.5471 381.85614
1656.853 381.31213
1656.2887 377.0488
1656.1226 374.69885
1653.9209 377.82684
1653.928 375.62018
1653.9365 372.714
1652.7893 372.51498
1646.0022 370.52313
1646.5917 366.9586
1642.9121 365.67316
1643.969 363.22943
1642.2892 363.05646
1641.5045 360.84747
1643.1539 359.1789
1646.931 359.32013
1647.6847 362.3324
1650.1208 363.54196
1651.9988 364.4787
1654.2878 366.2491
1658.4363 365.9389
1659.8464 363.7917
1660.2183 363.58942
1660.4515 363.6052
1662.1486 363.5788
1663.7423 367.56787
1665.5293 369.62872
1666.6338 372.8947
1666.8472 375.5277
1671.6262 378.11
1671.6908 378.95654
1672.7622 377.07617
1673.8182 369.56464
1673.575 367.812
1670.8452 371.78748
1666.4681 372.06006
1668.4448 368.8161
1668.3591 365.8084
1665.4327 363.0588
1667.8749 365.18097
1670.3517 365.8934
1671.5205 362.89996
1672.1307 359.29855
1672.4395 358.7413
1670.0652 358.28094
1669.8275 357.38086
1669.4337 351.68454
1663.7113 350.3792
1660.6089 349.34494
1660.2026 350.66293
1666.3958 358.45505
1666.6005 358.49692
1659.9606 360.47974
1659.9988 359.2651
1655.515 357.18414
1653.6035 356.69504
1649.2275 355.31995
1646.9381 354.5085
1645.112 356.3575
1641.0557 354.71136
1641.1584 352.7727
1641.7925 352.15204
1643.2069 353.1811
1644.5739 353.7232
1643.7334 351.35153
1644.2312 348.51343
1647.3987 346.42303
1647.7625 344.11874
1650.3965 345.66486
1647.3927 347.91736
1649.4755 350.88425
1648.7975 353.4924
1652.353 352.11057
1653.7006 349.20844
1656.6615 344.21567
1656.3048 343.29468
1655.6399 337.9811
1658.448 333.79092
1660.7505 332.65735
1660.6951 327.96698
1657.089 326.32626
1655.4316 326.7265
1656.231 324.50598
1652.7347 321.13104
1651.5826 322.48502
1648.2759 323.3233
1648.3453 331.6677
1646.4569 331.90015
1648.594 333.24506
1649.2072 337.02765
1648.1284 336.5899
1647.3625 336.07944
1645.575 334.3786
1644.8511 333.2307
1643.5159 333.03207
1641.1354 336.27875
1639.9529 336.15936
1638.9126 336.29416
1636.3381 334.54254
1632.447 333.16666
1634.3025 332.5177
1635.7954 331.7784
1639.1282 331.22787
1639.4536 331.25665
1639.4275 330.5952
1643.0781 327.44022
1641.8772 326.5652
1641.4827 323.9532
1639.2822 323.32745
1639.3069 322.99048
1640.6245 319.52008
1644.4937 315.0634
1645.0775 318.2389
1646.2505 320.5086
1647.8685 317.9256
1649.7717 319.18756
1651.5125 318.23053
1649.7799 314.42862
1652.7982 313.0973
1653.3663 315.10852
1653.4343 316.40375
1656.7557 317.66345
1656.5535 321.9508
1657.5901 324.66852
1657.8667 324.30023
1662.5408 325.03287
1665.7227 329.1117
1668.5565 330.72455
1667.7797 333.23044
1666.3792 335.10242
1664.3812 334.50934
1665.5691 339.57495
1661.2097 338.3763
1658.4185 337.5689
1659.6813 339.61322
1661.0618 341.57355
1660.5388 343.55014
1663.0631 345.248
1660.032 346.89645
1662.247 347.44476
1663.2639 345.42758
1666.331 343.8977
1665.8464 340.72244
1668.7095 340.8909
1673.9324 340.01495
1671.1477 338.75897
1671.4966 334.28616
1671.433 329.06927
1672.5974 326.79242
1671.3335 326.60846
1668.0338 323.65186
1668.0109 320.81436
1665.1377 317.79327
1664.7241 317.10648
1661.593 318.53403
1661.0073 315.75983
1663.7632 316.21295
1665.8894 316.78674
1665.5408 313.3813
1666.8208 310.72223
1665.3865 308.13367
1660.0889 309.7708
1659.1619 310.0476
1659.058 310.48798
1657.983 312.84576
1658.3734 310.3081
1651.721 308.06128
1644.7708 309.5594
1645.4025 304.86447
1647.0938 304.01865
1649.4138 301.2604
1654.8751 302.44885
1659.7417 303.8032
1662.3964 304.2702
1662.797 306.09387
1663.3401 305.72662
1666.3721 304.9338
1666.708 307.18616
1667.7332 306.12762
1670.9536 307.74295
1671.0925 301.81964
1673.9978 300.04623
1673.1854 295.37173
1668.6198 298.95602
1667.1168 296.34064
1665.558 299.60046
1664.8455 297.32397
1662.4713 293.76184
1666.1365 291.57532
1668.8379 291.1295
1667.2141 288.49362
1666.7805 288.58746
1661.5415 289.17883
1660.8531 289.64758
1658.9474 287.44208
1654.0183 284.2841
1650.8186 282.41428
1650.1691 283.1997
1648.1638 281.11893
1647.5499 280.8561
1648.0859 278.48248
1649.6027 273.5598
1653.6423 273.74652
1655.1864 274.37573
1658.1733 278.6631
1657.5273 279.49594
1659.2834 281.17828
1668.2168 281.7157
1673.9889 283.58505
1671.246 276.6588
1672.6316 274.06937
1670.1211 274.04034
1666.3518 277.1814
1667.4355 274.7393
1669.9504 272.56442
1671.2126 270.4628
1671.4438 269.4994
1668.588 269.8902
1664.0728 271.90625
1660.1879 274.1684
1658.5469 271.25275
1658.7888 267.16235
1661.6315 266.28137
1658.599 262.69238
1661.7546 261.7527
1662.5314 262.42734
1663.5277 262.88812
1665.6904 262.33057
1666.6702 261.44366
1666.7935 265.0208
1672.4272 262.79257
1670.0856 259.2942
1667.9918 255.89671
1659.9873 253.38419
1654.8385 256.43866
1649.6489 258.83618
1648.1896 262.4612
1647.2234 262.21454
1646.0786 262.31284
1647.1682 265.62006
1648.6418 264.3305
1652.9009 263.386
1655.0867 266.25662
1655.4396 268.80603
1654.7803 269.92468
1654.4703 272.70654
1650.7212 269.67267
1650.1622 272.78522
1648.402 273.63702
1645.6338 276.04968
1642.3213 276.59738
1638.4547 273.73798
1635.7302 273.12827
1641.4104 277.168
1641.2114 277.6263
1640.2721 279.59064
1638.9514 281.89072
1642.2537 281.4922
1646.2218 285.26285
1646.0138 286.04633
1646.984 286.3485
1646.1349 290.96527
1646.5967 292.21848
1649.7185 290.42273
1650.1139 290.69583
1650.1152 288.36386
1652.9863 288.62494
1656.5243 288.70392
1656.3381 292.47034
1653.099 294.16562
1653.462 296.94962
1648.7715 297.1621
1647.6968 297.78217
1645.6265 298.00635
1646.552 299.02155
1645.362 300.07043
1644.9192 299.04172
1644.6057 299.36047
1640.4211 296.5412
1643.4791 295.12747
1643.1375 294.37558
1644.0408 293.60596
1643.76 292.54852
1642.2905 290.86426
1640.1414 292.95758
1636.322 288.31042
1634.082 291.89786
1633.7202 290.1635
1628.6235 285.7873
1630.3033 282.83563
1625.9243 285.02307
1625.761 287.60126
1623.676 288.49677
1620.3998 291.35107
1620.8662 293.0805
1623.5133 295.45786
1621.8135 296.89316
1613.834 299.43018
1611.1396 300.77097
1605.1975 309.64258
1611.5254 310.3921
1615.8262 308.26913
1616.2301 305.27176
1618.0515 301.74286
1620.633 300.5086
1622.2572 302.73843
1627.344 296.60983
1627.1031 291.85007
1628.6936 292.09366
1629.6981 292.98706
1635.1654 293.78384
1637.436 293.46484
1637.1656 294.161
1638.1127 295.04028
1638.0713 297.00916
1636.5555 296.8563
1633.4469 295.13812
1633.5765 299.65524
1632.7893 303.49606
1634.3016 300.1401
1636.998 301.01044
1640.6328 301.3386
1641.3688 304.40347
1639.1472 304.01028
1639.2631 306.2755
1640.668 308.1658
1638.5568 311.41284
1637.3896 310.91028
1638.2734 313.66638
1635.125 311.61578
1633.5615 315.67126
1632.6609 318.92133
1633.8566 319.65396
1634.5259 318.62054
1635.008 319.34222
1636.9128 318.21112
1639.3489 321.37308
1637.3236 321.87607
1635.0588 321.1509
1632.6141 322.97406
1634.5365 327.17712
1635.4678 329.35175
1634.5381 328.08038
1633.413 327.98358
1628.3394 328.35657
1628.3593 332.51453
1626.0127 331.3938
1623.873 329.57965
1625.0654 325.6198
1626.6918 326.64056
1628.3525 325.64313
1629.2129 322.39276
1629.1991 322.025
1627.1904 319.41125
1625.944 319.09372
1624.1746 315.91275
1622.6597 313.61267
1627.0328 310.63913
1629.7382 309.46082
1630.292 310.7657
1632.8901 308.5605
1634.3035 305.8435
1633.657 304.9063
1632.7064 303.87915
1628.573 304.099
1626.3555 305.41785
1625.9341 307.78107
1622.4766 306.67307
1620.6493 307.72083
1621.6425 310.43295
1621.137 311.59103
1615.3638 313.73767
1618.5261 313.80774
1621.2722 315.91995
1623.2648 318.12085
1624.8569 319.65756
1622.7885 326.16675
1620.1814 325.42587
1618.0317 322.3193
1618.415 321.82248
1617.158 322.24976
1615.263 319.48883
1611.2383 315.64435
1610.0177 314.46005
1608.3853 314.52908
1607.4447 313.68896
1599.0104 320.5946
1597.2778 321.3513
1599.7123 323.48566
1603.0243 323.3905
1605.099 325.82043
1603.2074 330.1426
1603.2954 333.09134
1603.3982 336.5199
1602.4808 338.37842
1600.961 336.81818
1596.592 331.6906
1599.185 327.2117
1594.7003 331.0329
1594.057 329.48505
1589.1105 329.84433
1587.7749 334.83707
1585.7205 334.7834
1586.2692 335.5224
1590.7402 335.27588
1590.9194 336.26868
1593.2388 336.1662
1597.198 337.73956
1598.4858 338.97824
1599.9114 339.54773
1600.0723 341.35913
1599.8925 342.97385
1598.996 342.9464
1598.7173 344.55502
1595.745 345.42596
1591.6571 340.8518
1588.989 337.62817
1585.4257 338.53943
1583.7078 338.0987
1582.8875 337.82083
1578.2949 340.0592
1584.005 339.4552
1587.5375 341.98334
1588.9806 344.9231
1588.8569 349.0478
1586.0802 346.33356
1584.916 347.85864
1584.3964 350.31738
1582.581 348.63864
1578.4269 351.07236
1580.3058 346.49268
1577.1967 341.99716
1577.0012 342.17563
1575.5503 344.3991
1575.0095 343.95248
1574.0005 344.46942
1571.9794 348.34033
1571.1552 352.04218
1575.862 352.57098
1574.4086 357.00403
1567.8014 358.01428
1566.9629 354.03564
1564.8696 358.2359
1563.4312 358.31433
1565.3457 361.93674
1566.5756 365.21234
1568.7434 365.2965
1571.0671 361.91138
1571.6946 367.2761
1573.4587 369.23276
1570.0679 369.61127
1568.835 371.89703
1567.9073 371.67023
1565.661 371.3694
1564.8191 372.86496
1564.2698 370.11935
1559.9828 362.81174
1557.339 364.86188
1556.6768 367.8471
1557.6042 368.9321
1559.1465 369.5047
1558.6171 370.04932
1556.7625 374.31638
1557.9644 374.64185
1553.9724 374.692
1552.7595 372.9692
1550.8912 372.05942
1551.908 373.42392
1550.8777 375.4095
1550.293 375.20514
1545.437 378.8407
1549.7347 381.9779
1549.6597 383.87802
1549.421 384.1208
1546.2639 380.37338
1543.1901 382.9234
1542.8003 382.87207
1537.862 388.0284
1539.2076 390.22345
1540.1924 388.95422
1544.6893 391.38354
1547.0762 387.49524
1548.8771 384.90723
1551.1472 387.00766
1553.13 386.40363
1554.9534 386.3753
1556.2242 383.6773
1557.3752 387.47934
1560.1194 389.0398
1561.4402 388.41498
1563.467 388.8442
1564.3624 389.8845
1567.4384 390.2791
1567.4889 391.7367
1566.3652 394.7481
1566.83 395.6289
1570.0469 396.3789
1571.135 394.16522
1572.5396 393.3637
1573.7878 397.07947
1575.0669 393.44806
1574.3269 391.41052
1572.9805 390.77863
1576.4098 390.17792
1579.1007 393.2376
1577.7084 388.44415
1575.7301 387.42783
1574.9719 385.461
1572.1587 384.374
1568.4958 385.4745
1563.3525 382.378
1560.355 377.70343
1561.5039 374.42905
1562.7513 375.04913
1563.9564 376.70343
1567.697 378.85715
1570.3684 378.65155
1570.4597 375.8558
1571.4172 378.8344
1571.4866 379.5766
1573.5995 380.6239
1574.508 377.0898
1574.6436 374.02386
1575.7761 372.81442
1578.8546 369.48608
1580.3898 365.6211
1582.0757 367.3193
1581.4261 368.5846
1579.0792 371.92917
1580.2544 373.00867
1580.8185 374.63837
1578.2643 379.151
1580.9983 378.61133
1582.3582 379.39056
1583.4468 383.92017
1583.2432 385.08472
1585.2527 381.25766
1584.3224 380.49866
1584.8574 376.7407
1587.5155 377.0526
1588.8486 372.23767
1588.0056 371.54083
1587.1503 369.6712
1590.6107 369.90546
1593.2247 369.35498
1593.7972 367.86887
1595.1431 364.63922
1594.3503 364.31332
1588.4707 365.2887
1587.9143 363.624
1585.6028 364.8823
1584.784 361.50116
1583.2584 361.10043
1581.3982 361.1097
1579.2153 360.721
1577.2428 359.5754
1579.0476 357.2124
1578.9797 352.44946
1582.459 356.69135
1586.4487 359.4962
1587.9661 357.68988
1585.7771 355.71994
1588.1521 353.79468
1594.9142 352.9499
1598.6649 355.7003
1600.0424 354.4791
1600.2075 354.45395
1602.6357 353.3388
1602.626 355.30783
1604.0596 357.3618
1602.9048 359.09753
1602.1539 360.8651
1601.0038 362.17682
1598.4026 360.89618
1596.0892 360.72876
1600.854 364.16895
1604.346 361.74585
1605.7334 360.60687
1608.1694 355.8783
1606.254 351.49768
1604.4954 349.2876
1605.154 348.7436
1604.5731 347.13428
1602.0286 348.51804
1603.3129 347.1164
1605.1458 343.49097
1605.3632 343.51392
1605.4948 341.73727
1606.7733 341.37827
1608.2151 337.66724
1608.4175 334.6469
1609.2693 330.46393
1605.9257 328.52344
1607.6127 325.64136
1612.5532 330.0711
1612.6152 328.14288
1612.6567 325.15753
1614.6919 325.6527
1615.8794 329.37134
1616.3345 329.22137
1616.2941 329.94098
1616.5602 330.7351
1612.7952 332.46628
1616.8103 339.38077
1618.416 339.86966
1619.6991 340.67792
1619.0804 340.75787
1614.6133 342.08807
1611.1161 341.80212
1613.4783 342.5666
1616.0009 344.95013
1613.5797 345.99936
1609.011 350.85272
1616.1049 348.85815
1617.5984 344.9664
1625.6832 346.71164
1628.4995 346.5948
1626.6597 344.1638
1622.5487 342.35004
1621.0955 339.03638
1623.3433 337.49203
1624.8992 338.3896
1625.9863 336.07654
1629.557 336.11655
1632.0969 339.9767
1637.7478 342.03293
1638.8177 341.7987
1640.0323 341.3562
1644.3517 342.53558
1641.3652 347.49274
1638.905 342.93784
1637.4425 342.9327
1633.5674 344.37524
1631.5173 345.81036
1636.0308 347.87793
1638.5004 350.3098
1635.2832 351.9343
1633.5842 349.48325
1632.2559 351.0714
1630.4109 350.5633
1627.1821 350.08774
1628.8441 352.72995
1631.3423 353.36823
1631.594 353.46518
1629.6423 354.20187
1625.0557 356.2617
1626.2529 358.21298
1631.8547 357.06433
1635.6779 356.22226
1634.8363 360.28232
1633.7932 360.0029
1633.8462 361.1926
1634.9396 360.46686
1635.2839 360.3647
1638.3431 363.05383
1637.7894 363.4747
1634.8398 363.69296
1633.8824 363.175
1628.6302 364.5682
1624.7412 365.17355
1627.5988 367.3708
1628.5017 368.8933
1628.7827 369.31018
1627.1704 371.0459
1625.0905 372.162
1626.39 375.09042
1628.6393 375.72076
1631.282 373.16586
1634.1146 376.12766
1631.4517 382.53857
1631.3074 384.2933
1625.481 384.4885
1624.9358 388.50238
1624.7887 388.68393
1626.2512 388.75116
1627.714 387.98254
1633.3336 391.27228
1634.9196 387.9306
1633.7963 384.80368
1637.8479 384.86395
1638.9968 380.2004
1639.8826 373.37878
1639.343 371.16913
1640.9731 365.43268
1640.0608 363.22202
1640.905 365.08264
1642.0945 367.48593
1642.8043 369.93427
1640.8812 372.8486
1643.1008 375.85608
1646.5638 379.38318
1647.9987 379.89026
1646.3478 382.55798
1649.154 381.32428
1652.6843 382.44284
1648.9827 384.48605
1648.074 388.3152
1648.7 388.2458
1652.2756 386.8208
1654.5645 392.2516
1658.1882 391.90427
1657.9008 394.66342
1655.3538 396.02826
1658.2955 400.74524
1656.9387 403.555
1655.17 404.02124
1651.4932 403.41916
1651.6385 406.16565
1650.7996 407.0711
1650.6594 406.20563
1648.338 405.8237
1647.633 408.23358
1647.284 412.289
1648.5541 412.7396
1648.8989 416.56567
1652.325 419.89294
1651.892 421.55078
1655.1073 424.83005
1654.9447 425.6582
1651.7814 429.32703
1652.2731 429.79758
1655.9749 432.64655
1657.0693 434.27466
1656.4681 437.58405
1655.7952 438.13208
1655.4341 438.84137
1652.0085 436.26364
1650.856 434.37292
1646.7683 431.57004
1646.4436 431.1052
1646.1023 426.0348
1642.6978 429.01373
1642.347 431.05087
1644.2767 431.3838
1645.3688 433.2151
1645.0156 434.50974
1643.7292 434.12057
1643.1368 433.63812
1642.4829 434.08887
1643.6508 435.4065
1639.4243 437.3353
1636.9075 436.14197
1636.3005 436.59546
1635.9976 435.2901
1632.4185 429.92358
1630.6572 431.07748
1630.1274 429.07675
1631.6938 428.5422
1636.0557 429.25473
1636.8936 430.89462
1638.6183 429.14368
1640.2709 426.81677
1639.2361 426.3591
1638.0481 425.036
1639.2104 424.63257
1641.7766 423.8412
1644.6398 423.04343
1643.5859 417.93954
1641.8157 412.95007
1640.6819 412.3288
1642.5226 409.21747
1641.4487 408.47107
1642.5186 406.164
1640.051 400.47974
1642.8197 396.89597
1645.864 400.71823
1647.8606 397.56808
1648.542 396.46313
1650.4698 393.13123
1649.4922 391.68445
1646.6768 393.47363
1643.3109 393.24927
1642.1177 394.83334
1640.0452 392.8851
1636.613 391.87128
1635.8658 393.942
1631.4636 394.50485
1629.4502 397.69012
1627.0067 399.1898
1629.6833 401.27975
1629.3262 401.3143
1626.0298 405.10983
1627.1775 409.25092
1625.9841 411.2857
1626.8751 415.10168
1627.8726 413.92627
1631.9178 410.79944
1635.4672 410.75226
1631.3716 417.1327
1636.4131 417.201
1637.031 421.2287
1635.0715 420.9205
1633.9878 424.25793
1631.4375 421.57785
1630.0413 421.83197
1629.4854 420.5554
1627.4412 417.5705
1627.6199 422.90088
1629.0784 423.4547
1629.2466 424.68625
1630.4062 426.29266
1628.7734 426.53082
1629.1567 427.5792
1625.3235 428.6821
1624.117 425.92734
1624.2891 424.1817
1618.2603 425.41986
1616.0212 426.02838
1613.4529 428.44006
1610.4833 430.19653
1613.8746 430.6889
1615.7695 427.8182
1617.0023 429.01794
1618.8018 430.6401
1621.334 431.912
1625.1309 432.64764
1623.5175 435.41498
1624.9506 436.08994
1626.1208 438.54285
1628.1877 437.2458
1630.9373 436.68622
1631.2384 440.15845
1630.1594 442.04187
1632.2983 443.23166
1630.0083 445.87537
1628.1267 445.30792
1627.3145 442.87363
1627.1704 444.38644
1625.0134 449.06003
1621.3243 447.3542
1621.0309 447.04132
1618.6024 445.34973
1619.0521 444.16833
1621.189 442.8266
1622.0267 442.52988
1624.2626 444.40857
1624.0872 443.28427
1623.1709 440.47327
1619.803 438.50128
1616.9576 439.62628
1616.4938 437.6604
1616.0974 437.5826
1615.9196 438.52307
1612.4126 438.2193
1606.8954 436.47205
1604.5642 440.39816
1608.3551 443.26642
1609.5256 441.8308
1614.178 442.38788
1614.8376 446.14233
1611.8604 447.77576
1613.8066 451.01767
1613.5867 451.82233
1611.6522 453.67792
1617.0326 457.0357
1617.6151 458.63287
1617.1282 456.74496
1618.8655 454.3719
1620.5977 453.63867
1621.697 450.81555
1622.7743 450.41452
1623.7434 452.13324
1624.2374 453.3585
1625.5542 457.89886
1626.4841 461.1925
1622.2058 462.14343
1619.4651 463.09872
1617.0995 461.72543
1616.091 460.37976
1616.1008 458.32016
1612.6113 460.34155
1609.7112 462.22617
1608.1887 460.342
1603.5542 458.8338
1607.8728 456.5185
1609.5002 454.391
1606.815 451.0693
1604.7952 451.63217
1606.0245 450.26813
1604.6387 448.27094
1600.1359 444.263
1597.3126 444.72363
1597.8884 442.13354
1596.2052 443.0548
1595.0247 442.2641
1592.2288 442.077
1595.0789 446.14532
1593.7234 450.65674
1594.6974 450.52948
1596.364 450.21457
1598.3694 449.17932
1598.7968 453.78378
1599.6724 455.31757
1600.5806 458.80746
1601.3223 460.5206
1600.6079 461.52072
1598.7701 462.9016
1598.9543 458.70956
1595.4478 456.33282
1595.331 455.69446
1595.3527 454.82416
1589.7229 454.61435
1588.029 456.2513
1591.7449 457.07504
1592.6497 459.453
1591.2937 459.32593
1591.5128 461.26035
1595.8722 463.79248
1595.0415 464.9994
1590.847 462.388
1584.8411 464.77405
1578.8833 463.04126
1573.4552 462.08282
1572.5408 460.15192
1569.544 458.66318
1569.3085 456.32968
1568.7812 459.3119
1568.4885 459.7071
1569.6609 463.44617
1564.6782 463.66962
1564.9862 462.13654
1566.0571 462.05243
1566.1957 458.7772
1566.21 458.4594
1565.0507 459.14746
1562.3923 456.00018
1563.3083 454.49005
1567.5137 451.3225
1570.1755 453.63068
1573.6201 453.7413
1574.85 452.51718
1574.5583 447.691
1578.0787 446.77658
1577.7461 447.88086
1577.2521 449.99692
1578.1271 454.5234
1579.946 455.15637
1581.2573 458.48492
1584.8967 457.24268
1585.9807 453.34006
1581.242 447.99432
1583.1038 446.31085
1590.3293 448.82162
1590.6096 447.94897
1589.9814 447.66696
1588.4054 443.5433
1587.6293 443.86108
1586.647 440.60202
1584.9609 440.23898
1586.7366 438.77734
1590.5394 440.17743
1591.198 440.12192
1591.6914 441.40985
1592.677 440.00104
1594.15 436.60056
1591.5907 434.9187
1592.3584 434.55267
1594.2866 430.8147
1595.7776 429.85568
1595.5455 430.44748
1595.9304 431.88586
1597.7932 432.66052
1600.5205 435.31018
1602.6477 432.34302
1602.992 430.42188
1604.9927 429.97394
1604.8363 427.30627
1603.0486 426.33813
1602.3068 427.77158
1598.5394 428.36597
1595.5597 427.16266
1595.051 424.05222
1595.1278 425.49606
1587.3081 428.86447
1584.8911 428.13763
1584.1704 427.62225
1584.2599 428.73322
1584.5911 428.89026
1584.1956 430.2614
1583.0385 434.03735
1585.7158 431.39606
1589.3247 433.79623
1589.4242 435.58246
1589.5138 436.89243
1588.5876 436.29733
1587.2556 435.85886
1583.382 437.93442
1582.1896 437.1349
1580.6353 436.377
1578.3882 435.92834
1577.8588 439.07745
1577.4059 441.2411
1580.5939 443.9598
1581.1067 445.10895
1580.3071 446.3354
1580.2992 444.45508
1577.1882 442.8308
1575.5645 443.49353
1576.5437 441.34918
1572.8927 440.4946
1574.1553 436.6722
1573.5621 434.25238
1576.5078 434.2859
1581.4648 430.01205
1573.4012 428.797
1573.3608 428.58514
1570.9517 428.29514
1569.5334 428.42456
1568.8234 429.41675
1568.408 428.8426
1566.7966 429.42773
1567.3378 427.55664
1566.4448 424.83838
1564.7183 426.096
1564.6115 426.3089
1560.8325 424.85153
1560.719 427.59723
1557.6836 428.0534
1555.7317 429.26794
1558.4988 430.27658
1559.7147 432.9946
1562.3414 432.70428
1563.0479 432.39743
1566.7319 433.75073
1565.6755 436.6281
1562.8341 437.01123
1566.6375 436.94226
1567.1431 437.7933
1567.5364 442.9237
1568.204 447.7734
1566.4966 448.11328
1566.4673 443.58337
1564.7594 442.88266
1562.8142 439.604
1558.6342 441.4301
1558.3843 443.85205
1558.5977 441.28464
1557.579 438.85715
1557.7142 437.6134
1557.499 436.84137
1553.3086 436.8659
1552.9858 437.35034
1550.1481 440.4752
1546.9388 440.14328
1545.3948 439.21777
1545.8542 438.9321
1543.5809 437.94186
1545.0787 436.4145
1542.7368 435.0199
1543.3267 434.79123
1544.7091 432.40277
1548.6467 430.82574
1549.019 430.8513
1550.9331 430.1743
1553.6062 430.794
1554.7012 432.39572
1552.2977 429.48322
1553.6453 427.0732
1550.0302 425.26654
1552.4778 422.17462
1553.2654 421.39374
1552.8519 419.6861
1551.957 420.63922
1549.7147 419.72137
1549.1702 415.8186
1550.9585 413.90515
1551.3143 415.1019
1556.2156 418.66107
1554.43 415.90338
1552.8427 412.44586
1556.3418 410.81006
1556.4856 410.81543
1557.0509 410.15402
1553.5891 405.4743
1553.177 405.2263
1549.6919 404.53357
1553.2399 400.42807
1557.9496 397.82773
1556.0745 404.10608
1558.2905 405.79236
1561.0875 411.1827
1564.3599 405.73444
1568.1387 406.446
1565.0773 404.83432
1564.505 405.2147
1564.5098 402.64227
1563.141 397.34335
1562.1643 397.14963
1561.3557 394.3875
1561.4481 393.38348
1558.2915 393.0782
1556.5149 392.0493
1552.408 391.62497
1549.9993 391.5337
1550.3698 394.73486
1548.0961 394.53903
1548.1239 395.35812
1546.8911 399.68893
1544.0571 398.27228
1544.928 395.93808
1541.9985 394.92322
1541.3967 392.4118
1534.1339 395.89838
1539.6663 400.62183
1540.257 404.09857
1540.6956 407.84723
1543.217 406.18283
1543.0598 408.3051
1543.243 410.26364
1542.219 413.62537
1540.2844 417.72662
1544.1765 418.53354
1541.7902 420.5923
1544.2347 424.5866
1542.8564 424.5758
1537.7191 424.24835
1539.5425 420.80893
1537.9081 414.5394
1535.0737 412.38013
1533.7909 414.6749
1531.9038 414.07343
1530.2299 412.7579
1528.445 412.9466
1528.5118 409.40814
1532.3616 407.31152
1535.1257 410.84814
1537.2551 409.50836
1536.1066 409.30746
1535.288 405.0321
1532.655 403.96213
1531.6947 404.52158
1526.8068 404.14926
1526.556 404.91736
1525.0859 406.65402
1522.4852 408.2611
1521.5278 408.01886
1521.9358 409.57672
1519.4827 411.39612
1519.1416 414.1544
1514.2279 413.9157
1517.1636 418.44604
1521.5784 418.64267
1521.7676 422.18295
1523.5125 422.388
1523.6902 426.6439
1522.194 425.30408
1517.2725 424.3918
1514.0164 425.14484
1514.1719 423.7579
1514.5745 420.17355
1513.3325 418.7878
1512.6173 419.4624
1513.3367 423.9094
1510.6409 424.6552
1508.5532 423.9781
1508.5414 425.1589
1504.4324 426.7013
1503.2404 431.56604
1505.1921 433.04462
1502.4363 433.81464
1496.2672 436.70148
1500.9661 436.5219
1503.9829 439.53204
1507.5435 439.60956
1509.9154 441.8095
1507.7056 438.82788
1505.5414 435.90353
1504.8419 433.85724
1506.8452 433.60468
1509.0002 428.57642
1512.2435 429.45236
1513.2361 426.4437
1515.2794 425.69492
1515.2659 428.09714
1516.0852 427.07336
1517.5596 426.19708
1520.5095 427.21677
1522.0206 432.69684
1519.0483 434.67822
1515.0352 435.81088
1514.5508 438.92194
1512.2937 440.409
1517.0336 443.49274
1520.2206 438.20798
1522.2882 435.61975
1523.856 434.51813
1523.5522 432.91537
1526.584 430.19333
1525.4005 427.9406
1527.0708 426.67737
1526.1165 423.344
1527.2002 420.52362
1527.6338 418.9707
1526.804 418.5876
1528.3228 417.70517
1529.6351 417.8333
1529.2217 420.24347
1530.4729 425.81006
1532.3378 427.23984
1532.9398 430.06137
1532.0262 429.81433
1530.8333 430.70407
1529.7089 430.57233
1527.4907 434.41376
1528.9049 437.30286
1531.6069 439.55417
1535.0376 439.45306
1534.8198 437.4658
1536.2184 433.84436
1534.5422 432.83447
1536.2007 432.60986
1538.6309 435.96323
1540.4292 439.57727
1541.5238 441.78516
1546.4702 440.90073
1548.499 444.71518
1550.5317 443.71332
1554.7375 442.76303
1554.1979 445.73825
1553.2969 448.31528
1552.338 449.39172
1553.488 453.13098
1553.6106 449.85703
1558.6027 448.64862
1561.3752 448.92944
1563.3738 448.28894
1563.4562 451.2038
1557.342 450.99768
1559.8762 457.0357
1553.3053 462.7893
1549.5781 455.31674
1549.3594 456.38147
1546.4186 461.7767
1543.8983 462.03278
1544.0226 461.64435
1541.4286 458.50745
1539.6056 459.3391
1540.7944 456.73874
1538.9248 452.7148
1539.5603 450.58386
1540.3252 449.4937
1542.1702 447.99713
1549.1832 449.8576
1548.9186 447.55304
1544.8374 446.44733
1538.9397 445.1917
1537.0337 443.1019
1535.1069 441.7448
1537.5773 441.85217
1538.0817 444.48615
1538.0428 447.15414
1534.7834 448.30466
1531.9255 453.31244
1535.6206 456.41144
1534.2021 458.0429
1535.0776 461.81488
1533.2107 458.96252
1529.82 458.90366
1524.2242 459.5649
1521.9305 462.5351
1526.5223 456.4375
1519.3761 450.8701
1516.3927 449.0206
1517.6416 448.86328
1519.2832 448.5534
1522.6442 449.0138
1527.29 449.64496
1527.688 448.32785
1531.3623 445.17685
1534.4431 443.18454
1530.0508 445.30273
1526.406 443.30634
1524.0637 438.1031
1520.6455 438.0666
1522.4171 444.44885
1517.0635 444.55698
1516.0507 448.0122
1512.6476 444.26962
1509.7124 445.91864
1510.0476 446.39185
1512.999 449.5614
1513.1364 452.67307
1512.2708 453.6167
1508.4414 454.406
1505.6438 450.68796
1505.7644 445.73788
1508.1836 445.45984
1505.2563 442.347
1505.2092 441.65137
1501.9873 443.75693
1499.9016 446.05768
1501.1228 449.16696
1502.0027 449.48886
1498.9275 449.46802
1497.7246 449.24
1497.1912 449.26056
1498.1692 450.08212
1501.6489 452.76495
1501.3763 453.98877
1501.9785 454.24487
1502.0948 459.15207
1503.7589 457.2483
1508.404 459.15344
1509.7018 459.59064
1509.0576 459.04022
1507.6675 455.12775
1512.5707 455.41125
1518.2073 455.26523
1517.1671 458.99655
1519.9739 463.1159
1510.8019 462.18198
" />
</g></g></svg>
