<?xml version="1.0" encoding="UTF-8" standalone="no"?>
<!-- Created for Inkscape (http://www.inkscape.org/) -->

<svg
   xmlns:dc="http://purl.org/dc/elements/1.1/"
   xmlns:cc="http://creativecommons.org/ns#"
   xmlns:rdf="http://www.w3.org/1999/02/22-rdf-syntax-ns#"
   xmlns:svg="http://www.w3.org/2000/svg"
   xmlns="http://www.w3.org/2000/svg"
   xmlns:sodipodi="http://sodipodi.sourceforge.net/DTD/sodipodi-0.dtd"
   xmlns:inkscape="http://www.inkscape.org/namespaces/inkscape"
   width="3200"
   height="800"
   id="svg2985"
   version="1.1"
   inkscape:version="0.48.1 r9760">
  <defs
     id="defs2987" />
  <sodipodi:namedview
     id="base"
     pagecolor="#ffffff"
     bordercolor="#666666"
     borderopacity="1.0"
     inkscape:pageopacity="0.0"
     inkscape:pageshadow="2"
     inkscape:zoom="0.35"
     inkscape:cx="1600"
     inkscape:cy="400"
     inkscape:document-units="px"
     inkscape:current-layer="layer1"
     showgrid="false"  />
  <metadata
     id="metadata2990">
    <rdf:RDF>
      <cc:Work
         rdf:about="">
        <dc:format>image/svg+xml</dc:format>
        <dc:type
           rdf:resource="http://purl.org/dc/dcmitype/StillImage" />
        <dc:title />
      </cc:Work>
    </rdf:RDF>
  </metadata>
  <g
     inkscape:label="Layer 1"
     inkscape:groupmode="layer"
     id="layer1"> 
     <g>
<path style="fill:none;stroke:black;stroke-width:2px;stroke-linejoin:round;stroke-linecap:round;" d="M 
1655.5386 387.77084
1655.7263 385.10263
1655.6497 385.07858
1652.1405 389.10718
1650.3992 390.60565
1651.293 391.47592
1649.9637 392.78207
1645.5596 393.01727
1647.9866 398.0835
1650.5227 399.21185
1652.089 401.05185
1652.9686 401.90927
1653.271 402.44128
1652.5763 402.91034
1652.8145 403.3437
1652.906 403.5554
1654.0549 404.6634
1654.2208 406.7859
1655.115 408.3674
1655.1362 409.0339
1652.2482 409.9699
1650.9056 409.26434
1650.3474 409.5854
1648.8093 407.8237
1649.1074 405.60568
1647.5497 407.21954
1645.7269 407.6717
1645.7759 405.99835
1643.5378 403.9088
1644.1914 405.32794
1643.0493 409.81018
1645.0796 409.489
1649.6189 413.21442
1645.9928 416.9245
1645.135 417.541
1639.5348 418.00668
1641.975 414.872
1638.5532 411.79575
1634.6664 414.01257
1632.7795 411.12415
1632.8727 409.74255
1630.5896 406.46066
1628.5085 403.83466
1625.7085 406.13986
1622.7167 404.3098
1613.3026 402.55713
1611.7229 397.57568
1608.013 395.6538
1610.2855 396.79953
1616.421 393.65085
1622.6083 398.83777
1626.9937 399.83655
1628.3032 399.0067
1626.1711 397.20782
1624.7671 394.88998
1623.7218 392.4459
1622.9121 389.78012
1620.0911 386.21204
1615.1497 386.97775
1610.8352 385.9253
1611.4343 388.52863
1610.4312 389.8678
1607.9254 388.56604
1606.4089 389.27206
1602.7424 392.28076
1607.673 393.6804
1603.4707 394.1444
1601.756 396.92365
1600.8638 399.29575
1599.4694 399.1789
1599.7704 400.7669
1598.7935 398.7295
1598.3873 398.89954
1594.106 397.71164
1597.605 394.7136
1597.765 391.0755
1597.7893 388.43063
1599.5453 387.10193
1600.2777 384.7627
1601.8293 384.14026
1601.8977 383.8595
1600.9734 382.5344
1604.6156 380.22577
1602.3198 383.48703
1605.7834 385.6665
1607.0331 383.4712
1607.54 382.35004
1611.078 377.27838
1612.9646 379.72992
1615.2031 378.91025
1615.9868 377.42212
1618.4393 377.2431
1618.9617 379.2381
1623.8843 379.16876
1626.1163 379.4471
1622.788 378.50293
1618.7703 378.03476
1618.3506 376.83075
1617.5109 373.53284
1612.1523 372.74982
1610.9126 372.96307
1610.353 371.99213
1610.8047 370.29843
1611.1858 371.06512
1614.789 372.1009
1619.2026 370.3955
1618.7875 371.8647
1621.9376 374.33575
1624.9712 374.40833
1628.7225 373.67233
1629.4668 373.95343
1630.4434 375.79382
1631.1254 379.2791
1630.6698 384.55807
1632.669 383.93848
1635.9625 382.12912
1635.8219 376.10873
1639.2549 379.8155
1636.8853 384.72336
1634.0575 385.9797
1633.2054 390.38446
1633.2639 392.41583
1629.7493 393.4901
1632.367 395.33893
1635.6742 397.00055
1636.8041 397.88702
1631.5298 403.43207
1633.6953 405.00803
1636.0171 400.53366
1640.1141 401.92352
1642.0157 399.64496
1643.5671 396.5219
1641.6377 394.5615
1637.064 391.91122
1640.554 391.39307
1639.284 388.52643
1640.4918 388.42633
1641.6023 388.78125
1643.7828 384.7939
1646.8096 385.41858
1648.9896 377.4828
1649.1919 375.02026
1652.6572 376.16245
1654.3792 379.00974
1656.368 381.4802
1656.3896 379.96555
1658.4719 376.88132
1657.8379 373.4107
1657.957 372.84485
1656.2303 371.7365
1656.1871 371.3397
1653.8799 371.3767
1652.783 371.0672
1650.8505 372.06873
1648.7712 370.68112
1648.3396 372.65723
1645.6135 373.60223
1645.2196 373.50983
1642.7474 372.9198
1641.8264 375.22925
1638.2538 374.7129
1639.9917 371.65292
1641.2552 371.05206
1639.2935 369.51038
1638.7673 365.4124
1637.0142 367.6512
1631.7245 367.80975
1631.7004 366.3933
1630.7649 365.15155
1630.883 362.2297
1627.4967 364.3652
1629.0244 366.4533
1629.3501 367.6452
1626.3513 367.14996
1622.8453 368.48572
1619.1301 366.82407
1619.8806 367.2235
1623.7109 367.0291
1623.6705 361.29498
1621.4814 362.36606
1619.2764 360.03912
1615.5764 364.38718
1612.6062 364.46948
1612.6086 361.81354
1606.9819 359.0539
1605.3511 359.4439
1606.394 361.1993
1602.7317 367.74274
1603.5105 370.9079
1602.6113 373.68674
1600.2495 370.72046
1598.6833 374.43942
1597.6011 379.87073
1596.8593 379.5298
1592.949 379.62402
1594.4333 380.88266
1596.9985 382.96518
1599.3894 386.83737
1594.3577 387.42792
1590.8323 388.66318
1590.8027 390.69946
1592.8684 390.8001
1591.8479 393.13278
1593.4187 396.3864
1590.5254 396.0716
1589.2932 397.49207
1586.7487 393.01147
1583.2925 391.73425
1581.4297 395.61426
1574.331 396.23337
1577.7484 398.94843
1582.145 399.0797
1584.4133 398.1814
1585.3704 397.9996
1586.3314 397.50848
1587.1974 400.74252
1587.8501 401.35303
1586.6025 401.49756
1584.5283 401.42938
1582.4492 405.32782
1581.1361 401.65216
1577.3513 403.19308
1575.7123 402.582
1574.1279 401.92432
1572.9182 402.52588
1575.2043 406.7286
1572.9644 409.5946
1570.6282 409.93726
1568.8728 413.25375
1567.7173 414.9848
1570.082 415.86804
1567.814 417.588
1565.7999 420.125
1566.9846 420.97937
1565.7191 422.3512
1564.0149 423.33322
1561.3468 420.78162
1557.7283 421.34308
1556.5846 420.84442
1553.0616 419.51556
1554.2146 416.2433
1555.4702 414.51047
1560.9373 415.38766
1561.8889 416.0384
1563.4781 412.20575
1566.5945 413.45856
1567.3223 411.89963
1567.3486 409.32666
1563.8977 408.11066
1559.7319 405.09955
1556.8147 410.08502
1553.1134 411.13666
1549.5973 409.55463
1553.0963 410.91998
1556.3652 408.0163
1555.23 402.41638
1556.2505 402.56818
1557.6743 401.14804
1557.708 399.95285
1558.7012 399.54803
1563.4893 398.43832
1570.1663 399.936
1570.5544 403.63803
1571.1681 397.85132
1571.3687 397.12424
1571.0583 395.0351
1573.276 391.6106
1567.7712 391.42096
1568.7771 386.00336
1572.252 387.5542
1573.1946 384.9624
1573.1567 384.79388
1573.7887 383.91486
1577.1677 387.39108
1579.3733 386.537
1579.0397 384.88718
1578.981 383.52136
1583.1543 385.83154
1583.3665 384.00385
1584.0262 382.28537
1588.9127 382.39377
1592.5 380.33325
1589.0977 379.00754
1588.2236 378.25732
1588.1516 375.2494
1584.5193 375.4426
1583.3071 374.61438
1580.9285 375.5445
1581.493 376.46783
1579.0673 379.45892
1576.5216 379.2252
1575.569 378.1141
1572.5415 374.36182
1569.8298 373.73157
1570.5319 376.5316
1570.7277 379.8365
1567.0386 378.0337
1565.7993 378.79303
1565.5642 379.6826
1565.0664 380.77646
1561.7524 380.9111
1561.133 381.59982
1559.7008 380.97607
1559.561 383.15585
1562.8141 383.80035
1565.243 384.60028
1563.8002 387.40735
1562.602 386.62213
1562.7802 387.15356
1562.9126 390.01672
1561.9047 390.42212
1561.4028 392.11618
1560.494 394.1604
1558.7634 391.23102
1556.7494 392.40866
1552.7112 397.66333
1551.339 396.68127
1549.2235 396.03134
1548.1394 399.42902
1544.1038 401.0324
1549.6248 401.3282
1548.2473 406.90097
1545.4404 412.44177
1543.6241 412.7147
1545.4316 413.30182
1541.3964 411.68134
1538.5217 410.21844
1540.6628 407.6622
1539.5266 404.52948
1541.2 403.93042
1539.0022 402.38925
1538.95 401.46982
1534.7811 402.24286
1536.3375 404.43137
1533.9634 406.9455
1532.1642 411.3169
1535.092 413.30548
1533.3136 413.93555
1531.056 414.41
1528.7998 412.40173
1525.144 414.60483
1522.1099 415.55817
1517.8555 415.45325
1517.965 413.32297
1516.9047 410.0755
1520.2313 409.235
1520.5522 409.4076
1522.4281 410.41962
1523.9303 410.17737
1526.1318 409.73157
1527.4918 404.65854
1527.2867 403.254
1526.7002 403.57635
1523.9104 399.42087
1522.2651 398.1379
1524.6643 394.53143
1521.6277 391.80014
1521.5928 388.90253
1525.2551 387.26367
1526.9426 388.2993
1529.7639 389.31635
1529.1198 391.08447
1530.3147 389.96674
1531.5375 389.76437
1533.1836 391.48425
1536.8604 394.71112
1539.6133 391.18848
1539.9714 393.43622
1540.5461 395.77332
1544.0323 396.6401
1545.247 392.3347
1543.0366 389.92368
1541.3964 386.29523
1543.8442 386.4985
1545.5377 382.49402
1545.779 382.43066
1546.1372 380.32236
1545.8074 382.23203
1548.2455 386.10742
1547.2153 386.78204
1548.8889 388.39044
1551.2886 388.9299
1554.6692 387.19724
1557.3698 386.19977
1553.6083 383.5805
1552.2156 384.76886
1552.5244 383.70724
1552.7036 382.52014
1551.3877 382.77243
1551.3777 379.6548
1547.5657 380.68427
1548.3331 376.78802
1543.7234 369.9145
1548.013 366.8152
1548.9624 367.4033
1549.592 364.87033
1551.4656 367.2752
1554.6283 366.1417
1554.5323 361.30005
1552.9946 360.53424
1553.3044 359.99896
1557.7192 357.3321
1562.0647 352.83212
1560.2468 351.86862
1561.5276 349.51743
1563.7268 348.75717
1563.851 347.36606
1567.2107 349.2972
1566.8976 354.10858
1564.3906 356.93002
1567.9932 353.85873
1572.1589 350.48914
1575.3094 355.1218
1572.2329 357.91162
1572.6978 360.7993
1570.1108 362.3127
1567.5935 360.40668
1565.427 363.31934
1563.2201 362.38776
1563.2114 362.1725
1561.3502 359.55377
1559.8436 361.11462
1558.7115 364.5085
1558.1909 366.53918
1561.0835 368.00327
1559.8171 369.43298
1559.6731 370.6184
1559.08 370.20334
1556.8132 372.31628
1555.8567 370.99155
1555.8772 370.60583
1554.3401 371.03973
1550.6162 373.3989
1553.3069 375.5597
1556.876 378.9503
1559.7139 376.24457
1561.6407 377.93027
1564.1396 372.60944
1565.877 372.645
1565.7778 370.05722
1567.2903 364.97418
1568.4696 365.49902
1573.2944 367.51392
1575.6506 370.52063
1577.7634 373.49017
1581.4578 369.9576
1582.6062 371.1502
1582.787 369.46033
1590.7266 368.24826
1590.614 370.8275
1594.389 370.09824
1595.1895 370.22726
1597.8345 366.74847
1597.8107 363.50937
1596.9155 363.17783
1595.1548 362.7784
1587.9211 363.10028
1584.8553 363.14246
1578.1985 355.1662
1576.2101 352.22675
1576.3771 351.5848
1578.2909 348.46216
1582.952 347.6521
1578.7292 338.7388
1575.0651 339.82727
1572.8096 339.67307
1572.8314 343.7317
1574.0127 344.66467
1571.2549 342.18817
1570.0272 339.58344
1570.0162 338.88474
1567.1523 341.1682
1566.0109 344.29306
1558.3015 343.37958
1560.2092 340.29565
1561.3743 340.73975
1561.0446 337.53494
1560.6577 331.39288
1560.1599 330.3448
1568.565 330.54242
1574.9904 329.56522
1576.5344 333.4629
1576.8923 333.6823
1577.9939 335.5034
1582.0764 336.65128
1584.2622 334.28644
1592.1615 333.54877
1593.3535 330.25406
1594.7377 328.61646
1591.4136 327.98032
1592.9451 324.8554
1592.6221 323.05798
1592.4393 322.60028
1594.3752 320.2804
1591.572 318.4287
1588.5767 318.2549
1589.6797 316.7205
1587.6312 314.3755
1589.3398 313.73602
1588.1309 311.91034
1589.1287 310.22278
1590.4292 311.78613
1593.1233 312.1939
1598.3694 312.93805
1600.7699 315.973
1600.5276 323.1624
1600.4169 323.8902
1602.2866 319.58856
1605.5105 314.8732
1608.6395 313.95734
1606.0474 312.87
1605.9789 309.34888
1603.7119 306.6275
1607.9717 307.0412
1608.3491 310.85376
1612.6226 310.06775
1610.3597 304.80096
1614.2651 302.25153
1614.3961 300.2475
1619.6279 301.01318
1624.3953 300.3973
1625.3131 293.86334
1627.7161 291.67395
1629.0443 290.7793
1630.5791 291.5093
1633.3373 292.52988
1631.154 287.49152
1628.9843 287.856
1631.1891 286.3031
1634.8503 284.4126
1636.575 282.00604
1636.4878 288.31726
1637.9027 287.91748
1639.4869 289.58295
1639.2865 289.07037
1640.7188 283.78006
1639.8944 281.77924
1638.7708 281.62024
1640.9282 281.03342
1642.8477 281.2814
1642.081 282.6068
1644.8193 285.68262
1643.7078 281.88492
1649.0918 278.51263
1651.8787 280.6181
1654.3971 280.52438
1653.188 280.38904
1651.7412 279.06186
1651.1979 278.1377
1649.2649 275.61353
1644.3589 272.04367
1644.5358 267.46692
1643.9149 266.185
1636.2004 270.65387
1635.1826 265.02127
1631.0764 263.21802
1630.002 264.41278
1633.3647 270.78833
1637.7443 273.35968
1639.0654 274.6713
1640.5198 275.36295
1640.4946 278.12875
1639.2931 278.48752
1634.6545 279.5235
1632.7917 273.88983
1633.3711 270.99313
1632.1438 272.94678
1625.1938 276.34003
1623.3248 271.61105
1626.6622 270.87616
1625.0896 267.11414
1626.0227 265.21796
1627.565 263.90396
1626.6709 262.70337
1624.7772 262.9919
1623.1987 265.373
1620.6099 264.83136
1620.6135 262.81226
1622.1843 259.16537
1625.5413 257.01007
1624.938 256.2985
1619.5322 255.09506
1620.1227 259.42224
1615.9072 263.53375
1613.1127 267.11792
1612.1292 271.75296
1611.278 270.5365
1609.95 269.01743
1608.3641 268.07657
1605.4348 268.30017
1606.081 263.67236
1609.0349 263.1908
1609.1606 262.2677
1606.2145 263.4887
1605.6377 264.93835
1599.044 266.11456
1601.526 275.1482
1602.9038 277.91425
1607.5338 275.52347
1612.7031 278.29523
1609.4043 279.8389
1610.3707 283.605
1613.561 285.00818
1612.0815 283.68542
1615.5035 277.55234
1614.5538 275.9543
1614.8988 275.62216
1616.6387 271.36627
1617.2126 269.54315
1618.9736 272.39563
1618.8481 275.065
1619.9624 274.9925
1620.7623 279.5919
1624.959 278.94165
1627.5936 279.93164
1626.7295 282.45358
1625.3455 283.64862
1627.767 287.09122
1627.5197 288.20175
1621.0684 288.29913
1619.891 290.71616
1618.4612 289.10092
1617.4775 284.03708
1617.9938 286.10657
1615.0259 290.3258
1612.767 290.03503
1610.7926 288.28033
1608.8146 287.2577
1606.5951 286.9233
1609.6179 291.49637
1608.938 294.07495
1609.1367 295.6022
1608.0345 295.24304
1606.4039 301.81506
1605.7711 298.919
1602.657 296.17377
1600.6643 294.26578
1598.1948 297.66406
1597.7976 301.0698
1596.5547 303.7587
1595.4419 305.98123
1593.76 305.90308
1590.1914 307.5908
1587.6035 307.8646
1588.7043 306.6124
1588.5933 305.92758
1589.669 305.42773
1588.5204 304.03687
1587.9271 303.92047
1586.2074 302.18295
1585.1721 297.30267
1588.4001 300.15833
1587.1798 302.10904
1588.8467 301.96332
1590.199 301.7864
1590.4268 301.8473
1592.747 303.54816
1593.9579 299.4751
1595.7267 295.8656
1593.7876 296.64053
1590.9891 296.50415
1590.7251 295.73676
1591.5211 294.74582
1592.898 294.87372
1592.8805 293.51172
1593.3501 293.04074
1598.6235 292.27554
1602.7717 291.74927
1602.752 288.7193
1600.0294 289.27902
1598.906 288.226
1599.2386 285.49506
1596.7655 282.56467
1599.2708 280.25623
1599.711 276.91852
1594.6384 279.2707
1593.2434 276.22443
1591.603 277.14136
1588.5923 276.0004
1588.5951 278.6849
1593.5306 280.25916
1592.7708 281.8257
1591.5635 282.69406
1595.3918 283.33997
1594.2783 286.694
1593.5327 290.61816
1590.7759 290.9248
1590.6749 290.63715
1590.0825 287.9359
1589.2522 287.42474
1587.6057 288.80585
1586.8767 287.70532
1586.3344 287.37305
1587.0177 286.4442
1587.9932 283.0321
1585.5906 282.41455
1582.7175 276.07086
1574.1383 285.4201
1571.5168 287.037
1568.2815 291.3398
1567.0184 292.29825
1567.4637 295.19012
1568.1041 296.89734
1563.3462 297.51822
1555.9832 305.28802
1557.0304 306.9922
1562.8826 312.61124
1563.2657 307.21442
1566.1127 306.49496
1567.6693 304.43695
1568.6819 308.11023
1575.2704 313.06064
1575.8723 309.8193
1577.0251 307.50702
1578.2551 304.7403
1577.5963 301.3071
1575.8165 300.73172
1569.0084 298.42462
1570.1428 294.79962
1571.992 293.34518
1575.2039 292.9029
1581.0608 289.8112
1583.3853 290.73627
1579.2694 291.31464
1580.181 292.59436
1577.8928 297.63184
1581.9891 300.43884
1582.3434 300.40454
1581.4214 304.69357
1580.5806 304.6618
1580.5881 306.485
1579.675 309.13104
1582.773 318.46613
1584.2153 319.461
1585.2974 318.93237
1586.211 321.0799
1587.1888 324.96548
1587.0328 329.18546
1585.3601 328.1037
1582.9333 328.42828
1582.4395 327.3299
1582.2574 326.89764
1580.692 324.7314
1582.78 321.30353
1580.8185 319.2447
1579.1157 321.78055
1578.8167 323.86957
1576.2826 324.26028
1579.0964 327.40796
1576.1538 329.54736
1573.4233 325.63803
1572.8137 324.29132
1571.8025 323.18167
1568.2578 321.01288
1565.445 322.3867
1562.9271 321.32422
1560.2793 319.16187
1556.3905 319.36053
1554.7316 317.48596
1554.9609 316.99512
1552.9589 313.50342
1550.845 310.65845
1548.988 312.95123
1549.53 316.2965
1546.7583 316.15216
1547.4355 319.2614
1549.1965 318.72922
1549.6022 318.74478
1551.6592 323.67435
1555.1873 327.84018
1554.3049 329.88916
1550.0376 329.21246
1549.6934 328.15738
1547.9664 328.54642
1546.4337 325.07315
1541.7031 328.80994
1540.2524 328.2156
1541.8926 331.67313
1543.3204 331.42303
1546.1223 332.16037
1546.005 333.867
1547.9838 335.66217
1544.6339 337.65887
1543.8064 342.4503
1547.7446 340.9186
1551.0123 338.57266
1549.5017 342.38535
1552.1932 347.3751
1557.084 346.25928
1550.8075 346.55304
1547.3738 345.77222
1546.2885 346.92896
1548.6423 349.9677
1551.1211 352.82175
1552.1671 352.74304
1552.1539 357.153
1548.4412 355.26657
1544.3917 350.6903
1538.9592 346.39984
1541.1442 341.12735
1539.493 338.90002
1534.0153 336.52753
1534.1829 338.53076
1533.7095 339.4691
1531.3518 341.96082
1532.0779 341.72913
1536.5354 345.02988
1536.5057 346.10126
1531.488 349.1744
1534.6017 350.38705
1537.9685 351.99423
1537.6635 353.63788
1542.7173 354.90207
1545.5022 354.91785
1544.2328 356.62537
1544.674 358.71954
1545.3171 360.2918
1545.5771 365.10165
1544.3223 364.83643
1539.1975 359.88806
1535.396 356.61972
1534.7167 357.21005
1534.0236 356.69308
1531.5845 355.14587
1530.6727 355.31134
1530.9036 356.58276
1527.664 355.87534
1526.4192 355.79553
1527.9343 357.1883
1526.4779 358.11316
1527.5258 359.62927
1525.8176 362.5813
1523.708 362.31232
1522.9921 362.96127
1522.5426 364.8905
1521.2303 367.51437
1521.3684 368.35242
1519.3369 373.3001
1520.6104 373.38098
1522.0653 373.95264
1527.2002 378.98853
1525.2715 376.21588
1528.6506 368.13757
1533.6718 368.161
1537.8015 363.46985
1537.889 365.42212
1535.5469 370.9588
1533.2616 373.48267
1537.691 378.95013
1535.1072 381.9372
1534.1262 381.99557
1534.5688 385.21094
1533.2856 387.4282
1533.0502 386.93137
1530.8091 381.9933
1525.2834 382.3
1521.8022 382.4696
1519.9196 382.02243
1519.5208 383.88763
1517.6519 388.05405
1517.861 388.5633
1517.0801 388.2093
1515.1091 390.64978
1511.8951 394.27585
1515.782 395.02817
1517.9167 398.3944
1515.1654 401.81647
1511.1025 400.31567
1514.2904 405.1312
1510.3828 406.74908
1508.9216 408.9278
1510.2747 418.17297
1511.1313 420.23975
1512.2361 419.38776
1515.3767 420.24435
1516.9102 419.81226
1516.8372 425.14008
1515.4167 426.95026
1509.6262 431.18906
1509.1133 431.21362
1513.6459 438.64413
1514.4666 440.00238
1511.5156 442.02512
1511.415 443.51535
1514.0343 443.7546
1515.3655 442.03754
1518.1226 441.7035
1518.8802 441.34357
1518.0598 437.3432
1520.2076 436.67465
1517.8276 435.82968
1515.4844 434.53387
1516.1721 430.87094
1517.7253 431.6599
1518.6917 433.62106
1521.9175 432.96362
1522.3572 431.84186
1520.2258 430.8099
1521.501 429.04904
1522.1096 426.24396
1522.9875 423.0083
1525.3456 422.6367
1526.0955 422.79233
1530.3162 421.1306
1531.7305 421.0855
1532.9937 424.07343
1534.8713 426.08264
1535.0468 426.39117
1532.8728 427.542
1536.9485 431.6364
1534.0798 430.89694
1528.7764 434.98825
1532.5706 436.89612
1528.1794 444.61273
1523.3558 443.09015
1524.4617 441.9974
1520.2499 444.72382
1521.4854 448.76755
1522.0797 447.37646
1525.0835 445.3197
1527.9254 449.63873
1529.2596 447.5597
1529.4761 446.01117
1530.5895 445.17038
1537.3959 449.23694
1540.9119 443.61353
1546.425 444.06018
1543.7053 442.95508
1540.4697 442.5121
1538.8336 437.91382
1540.9003 432.9774
1540.498 432.07758
1543.6815 433.6207
1544.5225 435.37433
1547.695 435.37415
1546.7122 429.75778
1545.0206 427.79245
1542.2954 425.40735
1540.9121 427.21237
1538.918 426.49396
1537.9208 426.20114
1535.4237 423.03815
1537.3922 418.20798
1536.7924 417.37314
1539.9219 415.80927
1545.5442 418.27686
1539.8756 421.3424
1540.572 421.73755
1542.8398 424.54034
1545.5314 425.72302
1546.8503 426.43744
1552.9729 423.9853
1552.0562 426.7236
1553.8931 429.27353
1562.4313 428.474
1562.3578 432.4542
1561.7816 434.227
1561.9534 436.13556
1560.9656 435.63928
1559.573 435.86874
1559.3735 438.63226
1557.6558 440.30426
1561.8198 441.88803
1561.9894 444.02512
1559.275 449.90366
1559.2925 453.08905
1559.305 454.00018
1558.5752 456.54694
1561.6165 459.5194
1562.8611 467.03476
1558.5643 469.78015
1557.4047 473.30518
1555.925 475.71344
1556.3118 479.7776
1554.0955 478.9574
1550.7859 478.8969
1550.7646 479.74118
1546.1494 479.49915
1543.7761 478.26276
1541.0718 475.80603
1542.3369 475.85532
1544.0798 472.9665
1546.2545 472.49448
1541.4075 467.672
1546.6636 466.90155
1552.938 467.40186
1555.6227 466.0852
1554.4342 464.5359
1553.0936 463.401
1551.2775 461.43573
1550.1713 462.849
1550.3501 461.4171
1548.1744 457.21533
1549.8695 456.7293
1552.8567 457.70956
1552.7302 455.62616
1555.6218 455.232
1555.3408 454.36533
1557.1328 453.2153
1554.9663 452.66284
1554.7815 451.58713
1555.5911 449.4981
1554.939 446.1805
1554.9355 442.78223
1550.9626 442.12012
1551.6069 444.22913
1550.0342 446.1325
1550.3298 446.94238
1547.4977 450.8568
1549.0452 453.88092
1548.002 458.3846
1540.2113 460.59833
1541.517 464.646
1538.3433 465.4428
1536.6398 465.27643
1538.2319 460.28378
1539.255 457.63474
1542.2441 453.6513
1540.8384 451.76544
1538.11 456.01144
1536.6 454.66376
1536.4375 455.84143
1531.6328 461.59576
1530.2905 461.91684
1527.1233 460.75177
1527.8823 458.84882
1529.5667 456.96786
1527.3494 456.05328
1524.756 453.1026
1523.0751 452.6576
1521.135 454.5698
1519.8273 453.69318
1519.4924 451.904
1518.347 450.1529
1517.5271 448.27228
1516.7151 447.66684
1516.4551 447.7467
1513.3248 447.3795
1511.3989 447.60825
1510.6873 448.2203
1513.9481 449.55927
1517.0791 453.00888
1515.6609 453.62842
1515.602 457.9402
1519.5205 460.51776
1520.3972 459.04407
1518.5554 456.48218
1513.6418 455.04437
1512.694 455.57098
1514.0472 459.08945
1513.691 464.9229
1516.2604 468.9543
1518.7932 468.63217
1521.2441 471.2535
1523.6604 473.49585
1524.1782 464.44702
1530.3698 463.64124
1530.64 464.63815
1531.5447 465.08978
1531.2134 468.65244
1531.4678 473.21118
1532.0481 478.43256
1528.7036 478.7691
1526.6031 480.3902
1525.646 477.75082
1524.6138 476.5455
1526.0984 476.25644
1525.3167 474.39905
1522.91 476.01117
1522.902 474.57285
1517.8927 475.0732
1515.6052 472.73816
1519.001 478.2834
1518.242 478.96957
1517.8348 479.5699
1519.2715 480.90436
1523.8021 481.30466
1528.7572 482.8783
1524.8625 487.2782
1525.0254 487.6451
1523.7395 492.31952
1527.7754 496.82257
1526.4911 502.51556
1529.7268 506.3565
1530.7715 509.39685
1532.4482 506.72543
1535.2526 503.82968
1536.875 503.3642
1538.5054 506.3888
1541.2048 506.34106
1541.6663 509.07333
1542.6783 513.0344
1543.8617 515.67896
1540.638 519.9225
1540.3333 515.9784
1538.8828 514.6263
1542.0459 509.9944
1543.4048 505.99542
1543.6056 503.90137
1541.0674 501.7218
1537.1141 502.39844
1531.8918 501.47995
1530.7651 501.64316
1531.4382 500.31494
1532.344 495.8004
1535.96 495.68262
1536.81 498.72858
1542.533 497.40536
1544.6337 495.91504
1544.3767 494.14386
1541.122 492.86203
1540.7402 491.55194
1536.26 488.9985
1535.5002 488.23926
1533.8508 488.98572
1533.0248 487.2269
1532.8009 483.56784
1533.3987 481.20004
1535.5454 480.56964
1537.4104 478.09735
1535.3386 477.61865
1536.7653 477.10754
1537.9878 475.74054
1538.3152 474.733
1539.3867 476.01532
1537.7856 478.81903
1541.3806 482.42786
1544.602 485.48947
1546.0365 487.27307
1547.7697 491.5376
1548.9585 490.08826
1551.4202 487.58676
1550.0471 486.24838
1548.5012 484.71335
1548.1919 482.6063
1550.97 485.2048
1554.6648 485.34924
1557.9369 484.7616
1554.6897 481.9398
1557.5481 481.44073
1560.7793 480.0023
1565.4839 476.59796
1567.1443 478.5555
1565.6659 479.64963
1564.807 482.84396
1560.7859 482.45526
1563.0922 482.8214
1564.8691 484.3133
1571.6157 491.80328
1574.3225 492.11676
1577.8625 495.68207
1576.6458 493.96735
1572.1132 493.36703
1569.2096 497.2772
1566.1693 497.7673
1569.1847 498.27097
1569.0798 500.99597
1571.5118 502.72104
1568.0232 502.03265
1566.8789 503.58423
1569.5122 505.46106
1572.1266 509.58667
1571.2035 510.80603
1570.639 509.52997
1566.7384 509.55157
1566.199 511.3866
1565.1986 510.23364
1562.9128 503.82004
1561.9652 503.89825
1560.5419 504.16647
1556.2383 502.81714
1554.819 500.2699
1559.7164 499.60748
1559.5688 497.5732
1560.2654 495.27307
1564.5867 491.61584
1563.3887 487.5644
1559.0425 490.08676
1556.6765 490.64905
1552.762 490.1408
1551.9944 490.36237
1552.7759 491.44965
1553.4604 493.64767
1553.0177 495.30515
1550.8202 499.33313
1550.5162 500.60602
1553.208 503.59564
1553.9971 504.24976
1549.5538 504.87973
1548.2441 505.91608
1548.2974 509.711
1548.0476 512.83105
1545.8765 513.278
1545.8556 514.04816
1547.9716 517.9742
1549.2678 515.8584
1549.4989 515.1292
1552.5317 513.08606
1553.4221 514.0549
1554.2179 516.94476
1552.2559 519.7945
1549.8606 521.7268
1547.6512 520.12244
1549.6144 521.86334
1551.6787 522.39905
1552.9934 525.3263
1555.9673 525.1697
1558.1077 525.02356
1560.7599 524.1022
1561.3835 524.4266
1563.3193 523.65936
1562.5596 525.4807
1561.2014 527.5174
1562.9814 528.26746
1563.4888 529.8096
1563.4097 533.4023
1567.1664 536.8721
1572.4834 537.2264
1577.3083 539.29376
1581.047 538.10065
1579.8865 536.67346
1577.4622 534.3012
1576.9907 530.2572
1576.859 529.44794
1576.4749 527.79224
1575.1829 525.15955
1569.6371 526.5902
1573.2655 523.1726
1576.4612 525.27747
1582.8014 523.5289
1582.8015 525.7706
1586.3213 526.44476
1588.3127 522.5629
1590.6143 523.10394
1587.9785 522.2632
1589.7275 521.2926
1593.2056 519.5416
1595.0663 519.64056
1596.0322 521.76263
1601.793 523.76184
1600.0703 520.60455
1601.3291 523.1495
1597.2272 527.99695
1601.1425 529.5222
1604.2576 531.2864
1607.8251 530.3196
1609.8658 527.4948
1608.9403 526.602
1611.4058 531.4277
1610.7661 528.719
1610.7312 525.4618
1608.4955 521.8069
1607.3411 522.1052
1608.6628 520.51416
1606.534 518.9149
1608.5968 518.48096
1610.0254 516.8898
1610.2755 518.3074
1612.5769 522.7156
1614.4214 526.38824
1616.8751 523.3783
1618.9633 521.43225
1617.6498 518.84766
1614.6794 517.7738
1616.7053 517.7883
1620.0677 518.419
1620.9727 514.6572
1616.7783 507.66125
1618.5479 506.6532
1621.8845 504.96167
1626.4419 503.2634
1624.7521 507.69397
1626.1947 508.4166
1627.4648 510.3858
1629.6008 509.84198
1628.3792 514.89465
1630.9277 515.9601
1628.5859 517.93115
1628.1881 516.64136
1627.0449 515.5146
1625.1106 519.0016
1626.2117 521.7992
1626.3962 524.1424
1627.0189 525.3681
1626.3799 527.95264
1626.536 529.9627
1629.3455 528.25183
1629.8374 528.4009
1630.4689 529.0075
1634.5735 532.52997
1636.1953 527.2532
1635.6064 527.1151
1633.017 523.9597
1631.8629 521.43286
1631.9805 520.5969
1632.5417 519.7185
1635.7909 518.0061
1636.5305 516.8348
1635.3726 514.59424
1632.8689 511.27045
1635.4163 504.22375
1639.0482 503.61566
1637.042 504.18646
1631.6086 501.74472
1629.9375 499.0013
1627.7893 497.25986
1623.8291 498.86255
1620.2498 501.93552
1617.7609 504.73364
1614.9078 507.00754
1611.5516 502.04706
1609.448 503.09015
1610.0588 504.69464
1607.0779 508.35068
1599.845 511.3701
1599.9989 516.0534
1597.0391 519.16376
1595.7133 517.78094
1591.2384 515.21265
1589.8654 511.82553
1588.6482 512.19214
1586.4058 511.65622
1585.537 511.79065
1585.5535 508.60632
1588.7122 509.1744
1595.2067 506.1615
1596.5049 507.97177
1594.9529 505.3536
1589.5747 501.9889
1588.688 500.20248
1589.3716 501.1185
1587.6633 504.141
1587.5408 506.0822
1583.3738 504.51093
1578.637 502.58167
1578.88 507.5744
1577.4004 511.219
1582.7726 512.1321
1580.769 512.849
1577.8772 516.4573
1581.3857 519.7633
1582.2717 520.16003
1583.6907 523.38367
1581.9983 520.388
1576.5283 519.68427
1576.1545 518.5766
1570.4784 521.2106
1567.8192 518.93695
1570.9913 517.69434
1570.9442 514.8243
1565.3691 515.87573
1565.0999 516.42847
1563.7723 517.55493
1560.7927 519.33875
1562.9122 521.15485
1564.4863 521.74646
1565.6235 522.9131
1566.5061 524.2242
1565.0529 523.7567
1565.0366 524.4034
1567.4337 527.09937
1568.8088 528.7403
1568.222 530.2007
1568.9133 531.6106
1570.2717 533.2004
1575.2732 532.3975
1577.8004 530.70496
1583.042 533.1879
1583.5433 534.8254
1584.1368 538.1688
1585.7086 536.1988
1588.2427 534.0939
1587.46 532.22534
1592.8016 531.114
1592.2314 536.8489
1589.911 535.89966
1587.2253 539.5585
1589.9019 540.03796
1593.577 540.1865
1595.2532 542.6918
1599.0105 541.1056
1599.1906 541.94275
1602.395 541.8894
1605.5631 537.25085
1601.5503 538.8782
1600.9086 537.5248
1599.9017 538.09717
1598.215 537.2735
1596.9089 535.1118
1597.5454 535.8718
1600.2534 536.08777
1602.6296 533.4131
1604.3195 532.64716
1608.1858 534.9595
1610.6555 534.6527
1610.3867 538.5779
1615.4908 536.687
1616.0962 531.8429
1614.8195 526.9077
1617.6321 528.4753
1621.0172 528.47614
1621.0704 534.77484
1621.9187 541.2279
1622.8748 535.0089
1623.7654 534.2893
1626.2361 535.4789
1632.708 538.31995
1634.5392 538.69495
1639.3091 535.7916
1643.3555 534.07367
1645.2623 533.52606
1641.0217 527.73846
1644.8823 524.756
1647.6791 526.6235
1640.5652 522.6038
1640.0813 520.1581
1644.9482 517.2734
1644.798 511.76657
1643.365 509.56836
1643.4141 503.86633
1641.3182 503.25888
1646.3029 498.9596
1646.8987 495.5709
1643.6674 496.47937
1640.7043 495.645
1640.0427 497.04358
1637.071 496.84174
1635.1367 497.02594
1636.709 492.7972
1640.0149 489.77478
1642.0471 491.75925
1644.4932 493.40234
1647.3989 492.5738
1648.4523 490.83905
1651.1038 488.26404
1649.0795 487.80112
1649.3041 484.49045
1649.7869 484.84357
1652.8575 487.5908
1657.3722 485.57343
1659.3542 486.77515
1655.8788 490.1153
1653.2809 492.0399
1652.6974 490.36435
1649.8418 492.14948
1649.5721 498.54233
1646.5186 504.34558
1647.4653 505.57593
1647.2213 506.00702
1649.0309 506.96945
1649.9875 508.24475
1649.9592 508.43683
1646.1172 509.72076
1645.8983 514.2937
1653.4775 517.9426
1652.2261 520.93414
1650.5353 525.5447
1648.8365 529.216
1649.5706 529.48706
1649.5999 532.5818
1652.0693 531.3665
1652.4108 531.16974
1657.1853 529.03876
1659.2563 527.5575
1659.3334 520.01025
1663.7776 520.225
1665.9204 520.77747
1665.2664 517.3395
1663.9829 517.8821
1662.6453 516.1288
1663.2148 513.5608
1661.0494 513.8728
1660.4954 513.6775
1658.7601 513.27295
1655.9868 513.1726
1654.1724 512.93304
1655.0642 510.9643
1654.7063 508.8947
1655.3716 505.1025
1654.6361 504.51135
1654.8696 502.63794
1656.3401 498.07
1659.4584 495.22238
1665.6906 500.55408
1666.0906 502.3784
1667.3646 499.03033
1673.3215 499.93225
1676.2487 501.92908
1677.4979 503.81308
1675.2832 506.67474
1672.2626 504.74097
1670.6255 503.69592
1670.6794 506.4367
1667.4541 504.86346
1664.6599 503.80927
1661.7556 505.6866
1665.1279 506.4354
1666.9684 507.38043
1666.4187 510.61166
1669.1238 511.00238
1669.6342 512.38416
1668.8799 514.80457
1675.0496 513.16846
1678.4924 508.21008
1678.3623 506.56113
1679.2681 506.30804
1683.2699 502.23483
1681.3342 498.62814
1681.1716 498.32562
1679.203 496.86475
1679.819 490.90622
1676.6642 494.12558
1670.4952 490.16943
1664.9385 488.339
1664.3221 487.2518
1664.2322 487.2705
1664.6973 485.5965
1661.0895 484.65793
1658.5842 483.37595
1656.341 483.18835
1654.6306 482.8465
1654.2126 480.64355
1653.1611 477.68243
1651.088 477.5783
1651.0566 477.59406
1649.1143 476.1916
1645.9963 480.26703
1641.1053 481.4039
1641.2092 475.1501
1643.5469 472.4478
1642.8652 470.32043
1646.3987 471.70065
1646.468 471.5445
1646.899 469.8012
1649.8269 467.98578
1654.3606 465.79404
1654.6853 470.57248
1656.05 471.24445
1656.8049 470.6402
1659.4172 471.17856
1661.2361 470.03268
1661.2288 473.33118
1657.0044 474.4016
1657.1519 479.0824
1661.9424 483.85983
1664.5789 483.26477
1666.0603 482.13998
1669.1249 479.42343
1666.4375 479.1522
1663.2811 478.2639
1662.5464 478.33627
1662.0566 475.9037
1665.7562 475.3946
1666.1002 473.95453
1669.807 474.9463
1671.1184 473.82162
1673.9048 471.10156
1671.3503 468.90985
1672.9539 464.3589
1675.7317 463.32367
1677.5886 467.46667
1681.5667 469.5355
1683.5808 471.16635
1685.446 468.12753
1690.6992 466.90292
1691.72 466.40894
1691.9824 471.7159
1691.8435 471.93735
1686.516 473.4549
1684.7163 478.0055
1684.5398 478.5703
1684.6179 480.01154
1688.2673 485.22278
1683.5923 486.4005
1683.2019 485.81268
1681.5507 484.70746
1677.3483 483.65817
1677.7094 479.26913
1680.2981 480.9355
1680.8673 479.01755
1681.1102 476.51294
1678.8209 471.3899
1676.3036 471.96396
1677.953 470.70813
1679.3807 467.6583
1679.7701 467.13754
1678.4492 464.14404
1679.9602 462.43158
1681.6162 460.69553
1682.0525 462.88998
1685.1066 461.7623
1685.6724 459.51544
1687.6243 459.70483
1689.3221 457.55188
1687.6992 460.00656
1685.5576 461.68332
1687.9961 465.4959
1690.5388 462.09982
1692.0023 460.46613
1691.5591 457.2951
1693.9858 456.66455
1695.1681 448.28632
1692.9197 442.6887
1690.7297 439.2722
1689.0901 441.81464
1690.3635 444.4326
1689.511 447.7229
1686.3058 448.7188
1683.9431 450.24826
1684.6099 448.80585
1684.3359 446.685
1679.0217 447.43628
1680.0844 445.2685
1683.5784 444.43445
1681.8691 435.65155
1686.679 436.77426
1690.4381 432.14203
1686.0586 432.60556
1682.1613 433.24716
1684.9232 429.29315
1682.3994 424.68146
1680.8376 425.0796
1678.0525 425.83014
1678.3667 424.6583
1680.4526 423.20172
1682.5007 422.45248
1685.0674 418.25592
1688.7256 419.80713
1687.8181 414.56378
1685.1846 415.4881
1682.3242 414.1856
1677.5736 413.78452
1677.1055 413.77402
1672.1965 418.99084
1675.5239 420.52386
1675.0045 422.59705
1671.9331 422.78485
1668.6721 423.50464
1669.792 425.8845
1670.3541 426.7389
1670.574 428.6347
1671.8654 429.53064
1670.7528 433.56958
1672.7422 434.37952
1673.1978 437.64337
1673.8503 438.16953
1675.3048 437.565
1675.577 437.93222
1673.9915 441.98053
1673.3767 442.19482
1674.563 442.02414
1675.5331 443.34164
1673.2891 445.42413
1669.1576 445.2142
1667.5637 447.09113
1666.6738 449.46643
1667.5471 448.50302
1674.6069 450.04025
1680.6243 450.03256
1677.7698 452.91925
1678.2305 454.80396
1674.8738 457.3664
1675.6946 459.09454
1673.187 458.8053
1670.1213 461.55005
1668.7246 462.0953
1665.7987 466.13245
1661.1797 460.46307
1658.3323 455.19824
1663.4575 455.7868
1666.6328 460.285
1670.1334 456.5173
1671.3232 456.91815
1672.3131 455.26813
1672.8037 455.06573
1671.9003 454.32422
1668.3396 454.67596
1665.1434 453.66937
1662.9547 455.16608
1661.3666 452.06964
1659.3237 451.23386
1658.3167 450.0987
1657.4824 450.40695
1658.1622 448.87982
1658.849 448.9327
1662.0215 448.9526
1661.5747 446.97092
1659.8577 444.07245
1659.2642 442.061
1657.581 440.9195
1652.5524 444.62952
1652.7739 449.3867
1653.9485 449.29443
1654.9784 453.01648
1657.414 453.55634
1658.24 454.53845
1655.013 456.62543
1653.5117 456.88754
1651.1887 458.60956
1646.75 460.91306
1650.521 457.98077
1651.2769 454.59937
1650.1011 454.18518
1648.6342 455.46405
1648.8993 454.1794
1644.3207 451.83826
1645.7352 447.72943
1646.7357 447.24802
1648.0498 444.64166
1647.5656 443.74225
1647.1501 443.86545
1642.7883 442.71027
1643.6829 440.20505
1648.863 441.18954
1651.1658 440.2048
1651.4537 438.73584
1654.2008 438.88226
1653.4539 436.8365
1654.0085 431.0742
1650.8462 430.16904
1649.577 427.9105
1649.8855 425.19043
1642.9636 427.59412
1642.1187 423.43723
1640.1389 422.59137
1643.1779 421.02728
1649.0312 420.01
1649.5433 420.8662
1651.4734 421.01035
1654.0035 421.36594
1652.4088 417.8453
1653.6794 418.56146
1656.2146 418.8061
1658.3926 418.9017
1662.2577 421.08722
1661.6587 419.74936
1657.55 415.01648
1656.9698 412.94348
1656.436 411.64215
1658.325 411.05038
1657.9172 407.3984
1660.5121 408.33252
1660.7888 407.8593
1659.9454 406.52255
1662.6455 402.91882
1662.7733 403.44794
1665.3579 407.8934
1666.1738 408.17603
1666.3875 404.34506
1669.6439 401.20847
1668.6726 399.1815
1664.67 402.56796
1662.7238 399.98825
1658.1582 401.6087
1657.8032 401.53058
1654.6868 397.38794
1654.0981 392.60983
1656.254 390.2971
1657.5157 389.01868
1660.2119 388.3758
1660.4612 382.44858
1660.4935 380.93988
1663.151 381.41467
1665.6521 381.4043
1666.6776 382.81354
1665.0444 386.0034
1665.2295 386.58728
1669.2605 383.54318
1670.3914 384.61908
1670.2766 386.2798
1673.1141 386.96164
1672.787 387.6819
1672.0741 388.13873
1671.4087 388.75293
1668.0923 390.8132
1671.2393 392.9442
1671.5947 394.28857
1672.3596 392.8631
1676.7072 391.45728
1681.3802 397.8405
1683.8848 403.74164
1682.6201 403.88202
1680.9349 403.50452
1680.0264 403.7639
1679.5417 400.8465
1678.4783 401.15656
1675.7789 397.3694
1672.2821 397.87115
1673.2341 398.935
1673.4825 401.43762
1674.066 407.01666
1672.8783 408.2147
1672.4391 409.0031
1671.3796 408.7684
1669.4407 412.50916
1669.3844 414.11496
1665.9182 412.49802
1664.3365 411.18518
1664.4036 415.3386
1665.3925 416.97104
1666.0886 422.008
1667.3384 424.7137
1662.5635 428.80597
1661.8619 428.97897
1665.5813 429.98047
1665.9998 431.0698
1665.5363 432.73532
1669.148 434.08142
1669.3136 434.43604
1669.1288 436.0385
1664.2137 436.4804
1662.2156 439.90692
1662.4443 441.2232
1664.4489 440.6521
1665.8613 441.6106
1667.8191 440.89746
" />
</g></g></svg>
