<?xml version="1.0" encoding="UTF-8" standalone="no"?>
<!-- Created for Inkscape (http://www.inkscape.org/) -->

<svg
   xmlns:dc="http://purl.org/dc/elements/1.1/"
   xmlns:cc="http://creativecommons.org/ns#"
   xmlns:rdf="http://www.w3.org/1999/02/22-rdf-syntax-ns#"
   xmlns:svg="http://www.w3.org/2000/svg"
   xmlns="http://www.w3.org/2000/svg"
   xmlns:sodipodi="http://sodipodi.sourceforge.net/DTD/sodipodi-0.dtd"
   xmlns:inkscape="http://www.inkscape.org/namespaces/inkscape"
   width="3200"
   height="800"
   id="svg2985"
   version="1.1"
   inkscape:version="0.48.1 r9760">
  <defs
     id="defs2987" />
  <sodipodi:namedview
     id="base"
     pagecolor="#ffffff"
     bordercolor="#666666"
     borderopacity="1.0"
     inkscape:pageopacity="0.0"
     inkscape:pageshadow="2"
     inkscape:zoom="0.35"
     inkscape:cx="1600"
     inkscape:cy="400"
     inkscape:document-units="px"
     inkscape:current-layer="layer1"
     showgrid="false"  />
  <metadata
     id="metadata2990">
    <rdf:RDF>
      <cc:Work
         rdf:about="">
        <dc:format>image/svg+xml</dc:format>
        <dc:type
           rdf:resource="http://purl.org/dc/dcmitype/StillImage" />
        <dc:title />
      </cc:Work>
    </rdf:RDF>
  </metadata>
  <g
     inkscape:label="Layer 1"
     inkscape:groupmode="layer"
     id="layer1"> 
     <g>
<path style="fill:none;stroke:black;stroke-width:2px;stroke-linejoin:round;stroke-linecap:round;" d="M 
1513.0245 263.65848
1515.8092 265.15216
1517.7883 263.57587
1517.5677 262.70056
1516.5627 262.128
1517.7266 264.72778
1519.4242 265.94568
1520.2075 264.43262
1524.0642 265.94894
1526.7397 268.93207
1528.6968 268.6034
1528.1958 271.72763
1530.0864 272.49994
1529.4343 273.76343
1531.1503 277.4131
1531.581 277.87936
1530.7351 284.13245
1527.9004 284.90756
1526.2429 284.13632
1527.6866 281.1105
1527.8269 279.23312
1521.9501 278.98505
1519.7141 278.76923
1522.3787 274.2277
1521.8553 270.65344
1520.4203 270.58936
1515.7043 270.91632
1514.973 273.75772
1515.8037 272.01294
1511.4814 268.21088
1512.4147 267.67007
1512.6294 267.46988
1514.4877 262.7353
1513.6686 262.81326
1513.5623 256.73267
1519.5106 255.10168
1521.0747 254.8029
1520.8341 259.72406
1519.7644 262.1772
1522.7722 260.94086
1522.5023 258.42136
1524.7327 255.8244
1526.1836 256.9142
1525.8533 259.9185
1525.78 260.76266
1529.3091 260.677
1529.5773 261.36664
1529.6938 262.30762
1530.176 265.64694
1531.9634 261.46545
1530.813 259.16174
1530.8564 256.4014
1530.5006 253.96161
1531.5557 255.06317
1533.1434 255.88872
1535.4702 258.75546
1537.1354 257.5668
1536.2322 258.62024
1538.311 262.59027
1537.2786 263.87207
1537.8005 263.95316
1541.1887 262.4817
1542.074 260.08484
1543.5935 257.3266
1545.7186 257.37875
1547.425 258.06326
1547.0425 262.7399
1550.0035 262.16513
1549.0421 259.90448
1550.125 259.52872
1552.4341 256.6093
1555.5625 257.52048
1558.5576 257.78094
1561.4868 257.0451
1565.1294 257.94257
1563.3314 261.05066
1560.9702 264.8872
1561.7239 266.0968
1561.0903 269.28833
1560.3203 269.273
1559.7357 268.17218
1558.4393 264.69547
1558.4238 264.5965
1558.2278 263.83493
1556.9043 259.6924
1555.4305 261.604
1554.338 262.6092
1553.6213 263.33984
1551.3423 264.64056
1551.3196 266.09708
1546.4738 267.51556
1545.935 269.18817
1546.236 271.22137
1549.2249 273.7973
1548.512 274.1683
1545.3438 271.7249
1544.9512 269.6505
1544.36 263.2394
1541.087 263.38315
1541.7427 269.54803
1540.207 268.93976
1539.263 266.6875
1535.1836 268.00232
1533.1931 267.94736
1529.987 266.0411
1531.3833 266.77655
1533.4453 270.42807
1532.6786 270.86417
1533.7588 270.5106
1535.0459 274.28278
1534.4059 278.2824
1536.4899 277.1501
1536.896 276.3587
1539.1307 275.52246
1541.2285 271.7137
1541.625 272.9503
1541.3928 274.90118
1544.5759 276.3746
1539.6057 277.40143
1539.0271 280.8863
1538.0326 282.4768
1536.6802 282.9275
1538.8406 290.3368
1535.2762 292.71976
1535.5806 293.8119
1533.5864 294.91028
1532.5964 293.6364
1529.9392 293.66693
1530.0199 289.6036
1525.9324 291.89594
1522.4928 293.59943
1520.9795 297.97565
1517.0193 292.74023
1516.8022 286.78424
1516.7793 286.5465
1512.4102 284.75204
1511.3636 288.8856
1514.0823 290.29578
1516.0382 293.72955
1514.9791 297.1234
1510.2445 295.03012
1511.7041 296.34583
1512.0018 300.73923
1513.2008 300.71652
1514.8306 300.79974
1515.488 299.44205
1521.8359 298.44156
1522.6555 297.93393
1528.6478 297.40826
1531.5348 295.95306
1530.6232 297.14438
1530.6936 300.4333
1533.0461 301.01166
1542.3129 299.8114
1543.1895 301.27957
1545.1414 299.81818
1544.4309 299.636
1543.2272 296.9414
1542.3716 295.20386
1544.448 297.42795
1546.3015 295.8446
1547.5293 295.90582
1548.1553 297.36023
1550.7762 296.8962
1551.9263 295.41394
1551.9622 294.0055
1549.8025 293.80707
1548.7751 293.12527
1546.139 293.17786
1544.819 292.11118
1542.169 290.62698
1540.9039 289.19247
1541.1323 286.9973
1539.248 282.35947
1540.4915 280.8117
1545.0518 281.31403
1546.3439 283.79492
1551.6334 287.914
1552.6696 286.39313
1550.4626 284.25763
1552.5951 281.41037
1550.572 278.51862
1554.414 275.6158
1552.8339 272.57147
1553.645 271.90436
1553.4728 271.07706
1553.9534 269.8556
1556.6935 270.0174
1557.176 273.4587
1557.6276 274.95776
1561.8351 275.92487
1561.8021 277.41403
1555.898 277.75433
1555.43 282.88223
1556.119 286.63638
1558.0435 288.9989
1562.041 290.61703
1562.5472 292.6457
1560.9087 293.2052
1553.8232 290.26477
1555.0806 293.60162
1558.7246 297.02405
1560.1918 297.04807
1561.7377 298.29694
1564.8706 295.1098
1564.5557 294.24225
1567.2971 291.0675
1569.335 291.48322
1567.136 288.38217
1566.4253 288.27863
1565.6775 284.77234
1561.703 284.98248
1562.9563 283.36182
1565.5233 284.44794
1566.8481 283.0691
1568.6956 285.1921
1570.0996 287.25113
1572.2959 286.44055
1575.4584 283.2163
1579.7346 283.9771
1580.3762 287.1297
1579.6012 290.59186
1583.6423 293.2838
1587.6802 290.16522
1588.8103 291.28888
1590.634 289.26163
1590.6829 285.9521
1593.4358 284.68195
1592.1168 282.59256
1589.0188 284.43915
1587.9803 283.5122
1590.7743 279.84164
1591.5964 276.3407
1595.6974 272.50812
1596.6001 271.1178
1596.7283 270.2533
1595.6523 269.5566
1597.5718 266.854
1599.4172 267.05066
1599.9908 269.38202
1600.4236 269.4569
1601.0194 269.35837
1601.5483 267.88937
1601.675 266.477
1600.4993 265.6609
1598.6848 264.8875
1598.6797 264.39514
1597.1313 261.69
1595.255 265.00308
1595.5602 266.0754
1595.3247 265.83597
1595.4877 263.13925
1596.1819 253.64359
1593.645 261.0659
1590.2574 263.94147
1591.3732 267.4551
1591.0203 268.16528
1594.1282 269.80737
1594.528 270.38934
1592.6045 272.77594
1588.8213 276.29358
1587.1213 278.23956
1582.6732 277.01453
1586.9092 273.28656
1589.6614 269.2707
1589.4655 268.36728
1586.2976 268.8341
1584.6158 265.37518
1585.0365 262.06818
1587.9604 260.88678
1587.4576 260.99338
1583.5748 257.26968
1582.6143 260.43988
1584.1702 263.1265
1580.7444 266.7392
1581.4792 268.35376
1580.3256 268.43982
1576.6925 267.8375
1572.4697 267.4481
1575.272 268.9485
1575.8989 264.09854
1572.7727 262.39813
1570.7272 262.2342
1572.4624 260.13657
1574.12 259.31183
1575.3768 259.1429
1577.814 260.3452
1575.6621 257.42145
1574.943 253.33911
1570.9152 254.91064
1567.881 256.6515
1569.3088 257.8078
1568.7036 260.46234
1570.2144 261.99466
1568.9501 264.1585
1564.8787 264.9461
1563.7712 265.67017
1564.3724 268.2022
1563.9182 268.534
1565.8202 271.72086
1564.858 275.47806
1565.3716 275.72577
1565.1138 276.82574
1564.798 279.33435
1567.3116 280.95023
1570.6335 279.70782
1571.7653 274.86377
1571.6134 274.79953
1571.7188 273.31714
1572.9119 272.6255
1572.0134 272.86865
1569.6201 271.31992
1572.2838 271.04593
1572.705 271.20328
1573.1882 271.01312
1574.1161 270.07947
1575.5359 272.84494
1573.5684 275.52487
1577.0962 282.2765
1576.5282 283.91568
1574.3354 288.45914
1575.8263 290.53638
1572.708 290.2959
1571.0938 293.33823
1573.511 293.9587
1572.8031 297.0841
1575.5237 298.19955
1578.9846 297.6408
1579.2856 297.35242
1580.7288 297.68372
1583.678 297.2057
1583.5305 300.50455
1585.1743 299.3269
1587.1592 296.66144
1588.5869 295.76617
1587.4358 296.43918
1589.2048 301.1316
1592.4747 298.07916
1596.0918 300.7411
1596.9374 299.6458
1599.5092 295.59406
1601.8627 292.69092
1597.0598 295.688
1591.8466 294.74976
1595.0477 291.19714
1596.7688 291.21106
1596.2561 289.38687
1596.219 288.875
1602.5271 286.94284
1602.791 291.43216
1604.1943 293.09415
1606.1726 292.452
1605.2864 293.6841
1603.9176 293.91815
1604.652 295.90402
1606.3806 297.57416
1605.5798 299.14066
1607.2212 299.5125
1608.4491 300.5169
1607.8833 299.227
1608.5981 295.11163
1609.1196 295.08026
1608.1086 293.35522
1609.0771 293.56744
1610.6245 292.5012
1616.7349 294.43738
1610.9783 295.87848
1610.9846 299.88846
1615.4563 301.18
1614.7739 299.92337
1616.956 296.03333
1617.0034 295.92694
1618.7944 298.28366
1620.9613 300.65997
1622.6814 299.84552
1623.3721 296.96808
1623.7653 294.28992
1624.6984 293.67804
1623.49 290.36966
1622.9447 292.82587
1618.1393 292.31055
1613.7885 288.29385
1612.5973 289.32776
1608.4089 288.17905
1604.5703 287.27972
1602.2927 284.1919
1603.4547 282.8569
1604.9446 280.32373
1604.3315 279.6878
1600.5183 281.1631
1599.0441 279.7298
1598.4675 273.90924
1599.4565 274.0232
1601.2139 271.89297
1601.4526 271.41846
1601.7069 271.26282
1605.1427 272.80457
1603.9846 276.59555
1607.9579 275.76376
1609.7188 273.92923
1610.0009 272.34918
1607.4856 269.56158
1606.9512 269.74133
1606.419 267.84274
1603.8767 264.54224
1610.4796 261.32227
1611.1382 259.48123
1607.1652 258.89203
1604.519 255.91985
1606.3477 256.12848
1608.3556 256.20477
1608.3936 253.38397
1609.6948 254.43677
1615.7375 255.2615
1624.0399 254.03479
1628.2074 261.10132
1628.7152 261.13672
1629.8424 257.73404
1636.4854 255.35446
1640.5739 255.96039
1640.2893 257.3921
1636.7008 255.83917
1634.8646 259.63278
1635.4604 261.60352
1640.1874 266.04095
1639.6963 262.72693
1642.587 260.36612
1643.8632 259.71423
1642.7104 258.41425
1643.0779 257.10248
1646.2888 256.63196
1646.359 259.016
1648.2726 258.24564
1649.1238 261.04037
1647.8638 263.3982
1650.1833 265.0822
1654.0874 262.86847
1654.8474 263.18137
1653.9565 259.5624
1655.6289 260.15027
1658.8052 261.99765
1656.6257 258.4583
1658.1661 258.51425
1661.3647 255.37791
1660.0696 257.63513
1662.5447 261.72113
1660.3271 262.10474
1662.2178 263.927
1666.3743 266.0382
1670.0112 263.62097
1668.9954 260.71057
1672.437 261.16702
1673.865 259.49072
1671.8225 258.099
1672.2894 253.35843
1676.2611 256.58783
1679.6848 260.2915
1680.9712 264.55658
1678.2917 264.85834
1671.362 264.4397
1670.4413 263.7124
1669.9634 264.70905
1668.2526 267.5055
1668.4847 267.63147
1670.0839 269.2834
1671.4697 270.10297
1672.7024 274.18045
1675.252 276.8142
1674.1665 275.99518
1671.8167 274.05222
1668.8667 273.73993
1666.8425 275.0373
1668.0928 273.28802
1667.7847 269.5423
1666.4407 272.70267
1665.4615 274.26068
1664.605 274.5797
1664.2812 272.6903
1664.0952 272.46112
1662.0278 274.32208
1662.4634 273.14398
1662.3019 270.52368
1659.5394 267.46005
1656.0249 272.0347
1653.0363 272.53693
1647.7971 267.9901
1647.1118 270.71033
1647.9576 275.27188
1648.7737 275.1141
1652.0251 275.51123
1653.4532 275.30338
1654.7971 274.22174
1655.9738 275.49823
1658.7029 275.2066
1660.3052 275.727
1660.0159 277.72522
1665.039 277.70044
1665.3081 279.0505
1667.6119 279.125
1668.5 276.39246
1668.1101 279.55978
1668.105 283.90628
1669.0879 280.1852
1673.2333 279.5342
1679.3567 279.6702
1676.2513 275.4447
1677.8772 275.86942
1680.9087 275.062
1682.6554 268.92432
1684.0278 269.753
1687.7211 268.1554
1692.2361 269.95114
1695.7474 267.28244
1695.0515 262.93787
1693.8662 262.3888
1693.3134 259.21613
1691.188 258.36707
1688.8066 261.63623
1685.5757 264.34314
1684.8494 265.8929
1686.3726 263.58405
1688.663 259.72498
1688.4904 257.04962
1690.8911 253.83203
1694.0051 256.10962
1693.9806 258.05438
1697.3982 256.06882
1698.2078 253.48418
1698.4343 254.13312
1699.1208 257.25183
1700.6228 257.3584
1697.4156 257.53284
1698.9949 258.73956
1699.3723 260.37546
1702.22 262.37054
1700.921 264.16788
1697.7466 264.38745
1696.8271 266.3711
1698.0491 266.84442
1696.565 269.27313
1697.8987 269.34155
1699.3998 268.09595
1701.5322 267.42822
1704.7621 267.82297
1702.1768 270.66238
1703.5516 276.4713
1700.0839 276.65536
1697.7607 274.70813
1698.9907 273.15878
1696.4135 271.1839
1696.6462 272.81088
1696.9707 277.65833
1695.6755 278.0843
1696.6489 280.64825
1699.4478 282.0837
1696.7173 282.56985
1695.3855 287.26804
1692.2515 288.864
1694.5063 290.7092
1693.0867 293.05292
1693.9067 298.22717
1685.3783 303.39484
1681.1456 303.919
1680.9814 304.25262
1679.1138 305.8673
1680.8672 306.76437
1681.1155 307.9283
1682.8857 308.19165
1684.1912 308.59866
1685.0442 311.48376
1684.5537 312.75195
1682.9751 311.56424
1680.1768 311.9377
1679.543 308.97577
1678.3169 308.73773
1677.259 314.41983
1676.8301 317.32196
1678.4117 316.47528
1680.8513 316.1911
1681.7533 314.7023
1682.0608 314.89618
1682.2749 317.76257
1679.7782 322.18848
1680.2515 323.1924
1679.242 328.04153
1676.6521 331.1983
1675.8804 332.47968
1674.4076 330.50745
1676.2156 328.25696
1674.8414 326.86917
1672.1323 327.5419
1671.3633 324.77277
1669.8127 321.26923
1671.5004 321.20007
1671.4685 319.9699
1667.7748 316.80536
1667.3856 314.34885
1667.0708 312.25192
1668.482 311.0125
1670.2635 312.5033
1672.8883 313.36804
1674.6633 311.33942
1674.7473 310.95938
1672.5237 308.52945
1672.858 307.26004
1674.9806 308.18115
1674.9597 303.63214
1679.4114 303.17676
1680.3933 299.235
1683.0681 299.3149
1684.6555 299.30164
1682.8206 295.03293
1682.1504 293.32407
1684.6035 289.9801
1683.9614 288.80542
1684.6025 288.0737
1684.7334 288.15497
1686.225 288.18665
1690.387 292.5525
1692.1733 290.18347
1689.9216 287.37866
1687.0486 286.8933
1688.1019 282.83005
1687.9451 277.84485
1690.6624 277.94833
1692.7788 277.0966
1687.9751 273.92462
1688.2386 271.55515
1685.5801 274.86963
1681.5447 279.67535
1681.102 281.32397
1680.1179 283.46304
1683.2559 285.42178
1680.94 285.39398
1679.2244 288.99017
1675.2125 287.07733
1675.0281 295.32
1672.782 296.2912
1670.3091 294.5703
1668.5892 295.12683
1670.0632 299.16098
1670.769 300.81845
1669.3195 300.0189
1668.5951 300.6737
1666.502 302.35052
1665.7892 301.0603
1664.4445 300.9569
1662.3658 299.08936
1660.2958 297.812
1665.1843 297.37933
1663.9854 294.12573
1662.2191 290.41833
1665.6575 291.33435
1666.9277 287.08997
1664.1842 284.81598
1657.9606 282.74
1657.7306 289.12042
1657.7933 290.3878
1654.1362 294.88135
1656.8372 296.4746
1657.5647 300.49817
1658.1432 304.14557
1659.6198 306.7303
1658.7954 305.97668
1655.7427 306.63535
1655.592 306.3945
1652.1971 303.65482
1656.1382 299.2221
1653.7793 296.01257
1651.4387 293.50757
1651.6182 292.19913
1646.3401 290.24268
1649.8331 295.97864
1651.0706 297.61813
1649.1694 298.71082
1645.2881 300.0946
1640.75 299.05713
1641.5186 297.3823
1642.9011 293.66925
1641.237 294.3609
1639.407 292.56204
1640.6675 289.76828
1643.4463 288.08572
1646.7375 287.5603
1648.9915 286.07294
1651.0049 286.67746
1651.3771 288.72797
1651.9249 286.08704
1653.5369 284.25696
1653.2935 282.73517
1653.8782 282.1087
1654.6401 280.4632
1651.895 278.54486
1651.3538 278.234
1650.6838 278.7991
1644.7483 282.90915
1644.8718 283.97086
1641.4177 282.83542
1637.3213 279.7719
1638.8923 277.31567
1645.3213 271.6509
1641.442 274.32013
1635.9346 274.4262
1635.9507 276.66275
1634.4863 276.10736
1633.9829 275.98383
1632.2399 273.11145
1629.147 275.34186
1626.7529 276.83844
1626.004 278.64755
1623.8419 278.02234
1625.7468 274.92276
1629.2249 272.88348
1630.755 268.90594
1629.5022 266.5495
1633.0464 265.24136
1629.7329 264.51575
1628.6686 265.87164
1627.8523 265.99597
1628.2258 263.56525
1624.1592 261.39178
1624.6277 262.76468
1624.2494 264.84222
1619.2744 266.42535
1615.115 265.3136
1615.9501 263.66986
1615.745 261.00342
1612.1885 262.56677
1612.5502 264.69897
1611.8564 270.02655
1613.3645 270.641
1618.2297 268.9919
1620.113 267.72797
1620.8112 271.01245
1618.0125 274.06418
1616.8717 273.98428
1619.4375 277.426
1616.4948 278.0881
1608.696 278.16867
1612.6656 280.08755
1614.362 283.73816
1615.2957 283.09216
1617.7998 282.9745
1622.213 283.29584
1622.596 283.11954
1623.5049 288.31744
1625.522 286.06992
1626.5388 286.44595
1625.1158 284.07263
1626.9276 282.8589
1626.3796 280.44165
1628.0146 278.89102
1628.9093 279.5202
1632.2227 276.48294
1632.3696 278.43652
1629.2107 280.03845
1630.8533 282.91504
1630.3035 284.39993
1631.9843 286.0189
1630.689 288.87024
1626.7769 291.0262
1625.356 291.56543
1625.2671 293.47534
1631.2065 292.2514
1634.915 291.793
1633.0703 289.12585
1634.1187 283.75052
1637.3776 286.69696
1636.8662 287.63043
1636.3041 288.53268
1635.3616 292.60156
1633.8925 296.13132
1633.2837 295.99646
1632.4204 295.97986
1633.4922 297.89996
1639.8197 303.627
1640.0564 310.17355
1634.4851 312.8517
1634.7681 313.6944
1634.5968 319.37378
1634.241 321.3235
1631.6505 320.143
1630.9568 324.1244
1627.863 330.37726
1626.2401 330.77753
1629.6653 329.84918
1632.4011 326.86157
1636.02 330.07733
1637.7917 330.83777
1635.2261 332.77393
1638.2072 333.94388
1637.1426 335.61423
1635.7961 335.89404
1634.9016 337.45135
1636.5 338.00427
1636.2142 342.42133
1633.742 341.4627
1631.1248 342.42938
1628.3159 342.2636
1625.532 339.72534
1626.8268 338.43597
1625.5518 337.17316
1623.2312 334.83533
1619.5027 337.5611
1619.5723 342.42856
1622.1136 342.3874
1622.6543 342.37778
1622.4141 344.34235
1622.8696 348.6958
1623.3313 350.77072
1618.7589 352.28473
1617.9414 352.6385
1617.0873 353.54065
1616.3939 353.63788
1614.39 350.7336
1615.348 353.9903
1617.0135 356.40912
1614.7849 360.81296
1610.4397 361.96436
1607.8909 364.18134
1605.614 368.6223
1603.723 369.42465
1602.4725 372.61813
1606.3055 373.41293
1602.3372 377.36053
1604.9415 380.18402
1604.6516 383.43573
1603.1058 386.68396
1598.8207 386.12534
1596.9653 392.09503
1599.356 392.41376
1601.7963 391.37314
1602.824 396.60162
1604.2445 399.7412
1603.0598 401.23505
1605.7725 403.73544
1607.114 405.49362
1605.4668 406.58905
1605.1593 407.90207
1606.1415 409.37134
1608.6018 410.49548
1612.3265 412.43942
1613.9521 411.71616
1615.1309 412.64032
1612.66 414.70102
1612.52 416.83673
1607.8535 416.39038
1607.8566 418.30817
1606.116 417.22104
1602.9257 419.3447
1604.0256 423.27472
1599.4045 420.77576
1599.287 420.5018
1594.9781 421.25488
1594.9552 423.14304
1587.9529 425.28745
1587.4962 422.25912
1587.0354 417.67743
1586.1458 416.8724
1588.2124 416.08398
1587.3123 412.57404
1588.075 413.62427
1591.3665 414.13574
1592.2174 416.0582
1593.7979 410.45593
1596.8704 410.77045
1595.643 412.05988
1598.0588 414.90695
1603.1294 413.77023
1602.0762 410.10162
1603.0354 407.63293
1598.8047 405.8288
1597.0483 402.26562
1598.6542 399.56723
1595.7239 403.3435
1595.5085 402.4211
1593.3022 401.03818
1592.9758 401.17648
1592.4115 400.6993
1589.4427 400.97345
1587.3108 410.54346
1584.3063 410.14255
1584.4937 414.09204
1581.6421 416.26804
1582.6235 418.92636
1583.3564 422.25916
1581.6613 426.31714
1582.5996 426.3619
1583.9751 429.64877
1580.1074 433.13403
1579.3414 432.80832
1576.6461 431.55133
1574.4218 432.69174
1572.9414 436.3562
1574.9316 437.5774
1576.8428 435.15308
1576.5251 438.23773
1573.4443 437.4743
1571.3315 439.3
1573.3071 439.3674
1574.6522 443.6882
1572.3535 444.22186
1570.7693 443.0073
1569.2075 445.6728
1568.8328 445.93646
1573.0334 448.93823
1573.986 449.0404
1573.9631 450.1644
1574.8063 450.8867
1576.7415 449.3343
1577.9355 446.40524
1577.1633 448.88364
1579.9744 451.919
1583.8718 452.58575
1587.6785 453.05707
1588.5554 449.55905
1586.7737 446.3613
1585.5789 447.37778
1583.1957 447.8012
1581.9645 445.3853
1576.7417 443.18127
1580.47 441.08887
1580.2302 441.79294
1583.5767 442.67233
1588.8999 442.4677
1589.1355 443.36053
1590.2756 444.64917
1591.6097 444.28876
1590.2966 441.76877
1591.7769 440.87445
1591.6458 438.029
1591.5902 437.6478
1588.7654 436.818
1587.7772 436.21777
1588.6116 436.18243
1591.6733 433.19073
1588.3956 430.1634
1590.667 428.7652
1593.0255 428.78452
1598.015 427.385
1598.631 427.1438
1599.3907 426.55383
1601.5841 425.9627
1605.2593 427.94846
1605.7698 432.84906
1606.3093 433.24948
1607.5181 430.88013
1609.6012 430.65488
1611.7756 430.29953
1610.9999 432.90497
1612.6241 433.6844
1613.9585 430.8773
1615.0463 431.71375
1616.6207 433.31516
1617.8274 432.57648
1618.6104 434.43585
1616.5671 435.01904
1614.7351 435.81903
1611.0594 434.49448
1609.4675 435.05927
1606.5857 437.62802
1606.4874 437.69574
1603.9923 435.91693
1598.867 433.5289
1596.5288 434.98138
1596.4065 436.33124
1596.7969 437.6927
1598.2837 441.35873
1598.5566 442.32843
1594.5095 443.7441
1591.9569 445.01315
1591.4133 445.9655
1591.1406 446.9488
1592.2391 446.59192
1593.0972 448.2506
1597.0886 448.20737
1595.2532 450.44855
1593.8838 450.7619
1594.1051 451.94296
1596.6223 452.37805
1598.8552 453.01184
1601.558 446.31592
1602.5747 445.9961
1604.7634 449.54254
1604.0905 452.45566
1603.9878 454.1386
1605.1796 450.43027
1607.9443 450.92346
1610.7074 456.67477
1609.111 457.28906
1609.2212 462.71332
1605.8723 462.5787
1605.0743 463.1163
1602.7941 460.978
1598.7706 460.3551
1597.9412 461.46326
1597.4889 459.37692
1596.5267 457.69455
1596.2778 457.22095
1592.8665 455.7328
1592.4567 455.19586
1592.7021 454.20233
1590.7644 454.1019
1588.7838 456.52808
1587.426 455.42822
1585.2112 457.67746
1588.6295 462.21786
1584.7412 461.92938
1584.628 464.49182
1584.3008 465.76312
1585.2097 468.57495
1583.6956 470.08994
1584.1514 470.14496
1580.6797 472.60034
1580.0006 471.45908
1578.7216 468.53497
1579.5828 467.1412
1577.0876 470.56476
1575.4333 471.26318
1575.8961 474.2419
1575.2478 474.56873
1574.3436 473.5527
1575.6268 470.62888
1573.6327 469.3858
1572.3511 470.68365
1571.2292 468.81918
1568.8766 464.97687
1569.8684 461.77487
1571.6028 462.76855
1575.3359 463.11768
1575.5923 462.9336
1578.5726 461.16223
1577.9247 458.74286
1577.54 457.2874
1575.4983 456.63474
1575.168 456.15024
1574.0513 459.21063
1571.2037 458.0584
1568.9507 455.0421
1566.9534 450.77643
1565.7087 451.39362
1565.4736 453.21286
1566.9636 455.72726
1563.6553 457.6515
1565.5642 463.6856
1565.9437 464.88828
1561.6809 472.43457
1559.4048 474.36984
1559.4661 475.27817
1559.3333 476.28876
1555.5979 477.4637
1558.407 480.6662
1558.7015 480.78476
1562.0703 479.64777
1563.9681 480.3629
1568.009 475.9913
1565.2805 472.68866
1568.1927 472.03146
1569.3755 471.36298
1571.207 473.3106
1574.3302 475.26352
1573.3253 475.91437
1572.5885 476.09702
1571.4629 478.81918
1572.0212 479.77234
1574.3634 481.0233
1571.2666 484.79047
1569.4866 486.7608
1568.0642 487.94666
1564.2686 490.34592
1569.9907 488.24152
1572.8184 491.8086
1572.3457 492.3016
1575.2118 494.51996
1576.4584 493.88107
1576.6202 494.10162
1580.2941 494.72046
1580.7682 494.00995
1582.3339 491.61682
1586.8772 489.62042
1584.4211 489.80414
1581.8877 489.07446
1581.3486 489.27295
1579.0657 487.08978
1576.253 481.33508
1579.2947 480.92026
1578.543 475.36578
1584.4683 477.52667
1587.406 477.7027
1592.1625 475.44528
1590.5304 474.5179
1588.3345 475.2838
1585.8488 469.85315
1585.5801 467.29428
1587.8384 463.83896
1589.0459 464.72247
1589.7539 464.65585
1592.6687 462.50262
1595.5105 464.08005
1600.3229 466.32452
1596.776 469.17267
1595.2649 466.9956
1592.9978 467.83124
1591.6918 470.04956
1594.6898 472.49817
1597.1187 475.26788
1593.3479 478.56097
1592.8235 480.35065
1591.3203 479.40097
1589.9558 480.41003
1588.5535 486.93915
1588.8406 490.17932
1590.0635 494.95407
1585.177 494.4592
1583.6577 495.51764
1584.0774 496.36096
1584.2039 499.55652
1582.5049 501.81976
1581.181 504.85657
1578.2673 504.56454
1581.1008 500.6898
1584.0719 497.86523
1582.1538 496.4652
1580.6733 495.75583
1580.041 495.79425
1579.2134 497.44513
1577.4934 497.5924
1574.5083 498.4465
1572.6643 500.18234
1569.3239 500.22284
1569.6182 499.3874
1567.239 497.4756
1562.4319 498.62866
1562.0283 498.93567
1560.4407 499.80457
1559.2227 502.17978
1558.1946 503.03595
1557.4231 503.67242
1557.0897 502.9308
1557.5126 502.31384
1556.0723 501.3661
1558.0995 498.50815
1558.7689 496.55127
1556.8918 495.5626
1559.3201 495.50986
1565.1034 492.60556
1564.4834 491.34485
1559.6255 491.675
1558.4061 490.93573
1556.4425 486.69186
1557.3907 485.26343
1558.5198 484.7872
1556.2646 485.73608
1553.2257 487.16876
1551.0457 489.85138
1549.3666 490.754
1550.2822 491.22275
1553.3594 496.1661
1550.7137 497.67908
1549.2896 498.33896
1550.8695 499.34308
1552.867 499.91916
1551.5911 501.6034
1547.5342 503.99277
1549.6975 507.00366
1551.4026 507.34003
1550.7185 508.70642
1550.349 510.2778
1547.363 507.9309
1541.127 511.9808
1541.3228 514.7512
1541.8944 516.1754
1541.1106 517.679
1539.9382 519.8596
1541.9894 521.27527
1543.6068 521.2402
1545.6062 520.2091
1547.8372 523.65814
1546.1538 524.6642
1542.7687 524.3744
1540.7288 527.3097
1538.1556 524.0514
1536.748 525.011
1536.1974 529.03094
1538.7772 532.0409
1536.8245 533.22107
1533.5806 532.38696
1536.2605 537.4552
1539.6471 538.63196
1548.6512 537.9896
1549.6598 537.37213
1551.1437 537.31006
1552.2891 534.92535
1552.7295 533.90955
1558.5623 536.7046
1562.0687 537.1506
1566.1462 536.97955
1566.8843 537.43005
1565.9596 535.4984
1566.4136 532.70953
1570.747 532.31305
1569.7935 535.53674
1571.2192 534.8372
1572.7966 535.94525
1577.7739 535.20807
1579.587 536.281
1579.3995 530.73517
1583.854 531.7639
1586.2115 534.2102
1585.9955 538.64453
1587.684 534.6857
1586.2434 531.30634
1589.1973 530.132
1588.1047 529.1494
1584.562 526.16736
1586.0204 524.5017
1584.4368 523.4868
1581.2411 521.0713
1581.4689 522.773
1580.1573 524.98785
1574.2615 526.39325
1574.6895 532.40454
1572.8009 529.578
1573.4209 525.61707
1571.8154 524.4708
1570.4869 523.49066
1569.5723 522.6186
1571.9553 520.04785
1574.9548 522.22144
1575.0537 521.77545
1571.9174 520.0108
1567.7444 518.2997
1569.345 516.4754
1567.1575 515.08923
1567.6948 514.0105
1567.322 512.16406
1564.6749 509.59686
1563.4551 511.7434
1563.013 512.2208
1563.6569 514.3769
1564.5208 514.6633
1564.7521 515.1583
1565.7477 516.69324
1561.9421 519.10016
1563.6931 521.6651
1565.5312 523.9314
1565.27 527.57043
1559.7141 528.44836
1556.9575 529.7709
1554.794 531.3604
1553.1644 530.67596
1549.9296 531.224
1548.9441 529.5489
1549.0682 528.431
1549.6292 526.75104
1550.962 528.00385
1551.2356 526.92285
1552.8257 523.0292
1554.5879 522.24884
1552.541 519.67365
1550.3568 515.64087
1551.4915 513.8243
1556.2413 511.53513
1555.2198 506.5301
1559.2289 507.76196
1560.7346 508.84857
1557.9581 513.20685
1560.8406 512.3043
1561.8638 510.41595
1562.4016 508.43823
1564.9362 505.68637
1564.3151 504.16046
1566.0269 504.42212
1568.7236 503.8714
1569.5867 507.6744
1570.4951 507.60397
1573.3632 505.313
1573.4927 504.22238
1573.2383 507.458
1575.2983 510.70984
1574.0131 515.9951
1577.7762 515.76587
1577.8853 514.06335
1581.3384 513.46313
1582.1543 514.29675
1583.1375 516.5624
1586.3828 513.7373
1586.9825 513.674
1589.0455 521.04114
1588.216 521.8035
1588.1241 522.3872
1590.7258 523.4666
1592.6979 521.19525
1588.751 512.0929
1587.2214 511.71173
1587.5736 510.2392
1586.2273 508.8443
1587.2805 507.5328
1590.8873 505.06906
1591.402 503.91098
1593.0911 509.74924
1595.2869 510.2988
1597.0242 505.90466
1595.2034 502.58212
1595.6041 502.16284
1594.4373 500.7389
1593.6859 500.46783
1591.5039 498.0211
1592.4565 497.41684
1592.6234 495.90283
1594.4868 490.8839
1595.1793 488.2922
1595.5074 485.6836
1594.1481 484.35486
1596.2854 483.14435
1598.9545 485.68515
1598.9323 487.0874
1600.2156 494.10034
1601.2661 486.99408
1600.8793 486.40045
1604.2549 482.82748
1599.2778 481.57468
1599.6932 477.8973
1597.9015 476.22375
1601.9155 475.9055
1604.2319 478.57858
1604.6748 477.75778
1605.6709 475.24963
1607.6907 474.63583
1608.2135 472.06628
1609.7198 469.8239
1609.7112 468.93857
1608.8275 468.3314
1608.4507 470.03168
1604.2153 471.79407
1603.6064 471.57614
1600.7373 472.92285
1600.7961 471.6336
1603.3153 470.57697
1602.9382 469.24582
1608.0312 463.57092
1609.1404 463.3133
1611.6685 465.46906
1612.3126 465.02475
1612.1288 461.9587
1611.6139 457.78918
1612.2375 455.49426
1614.4768 458.08957
1614.7275 459.06677
1615.808 456.55344
1615.7808 456.11642
1613.6653 453.6867
1612.2605 452.17712
1615.6476 451.37302
1614.2915 447.89648
1612.9287 445.45374
1616.3793 442.38507
1617.7009 442.86914
1618.8857 445.86993
1620.3137 446.2463
1621.1155 447.26633
1620.0621 446.21338
1621.0435 442.28882
1621.5769 441.6539
1623.1948 440.86105
1620.4485 439.9542
1619.6122 438.73227
1616.387 441.56464
1612.8762 441.2739
1612.0269 441.45062
1613.0684 439.6168
1614.5171 439.09308
1614.3411 436.54828
1616.6377 437.39185
1617.0607 437.31396
1619.0771 437.22473
1621.7229 433.90817
1623.0233 432.351
1624.7605 429.50827
1620.1368 431.83984
1619.6257 430.52576
1619.1415 429.53412
1619.1304 429.07898
1620.8296 427.1621
1622.7815 427.28427
1625.7762 426.0974
1629.6837 422.85065
1627.4518 422.43408
1624.5896 421.39258
1622.7518 419.6515
1621.2812 421.59592
1619.665 421.86157
1618.4171 426.27197
1613.1526 427.97238
1608.6643 425.89804
1610.7142 425.22723
1612.811 421.51218
1615.001 418.271
1618.725 416.5028
1623.3154 415.05743
1626.5688 413.46396
1629.2943 415.09552
1633.4855 418.7022
1632.8041 415.84515
1634.0481 413.60504
1633.1154 408.58508
1634.9741 406.1319
1637.3035 405.4481
1640.1516 404.7317
1634.3246 399.53638
1632.882 400.24048
1632.8154 398.831
1630.7957 397.638
1627.8246 399.72778
1628.0795 400.4203
1631.9218 402.03183
1629.9993 403.06552
1629.9756 406.72385
1627.8894 407.8545
1626.1609 408.6152
1622.8826 408.08972
1624.4636 405.07407
1621.7373 403.41992
1620.307 404.7601
1617.8999 405.6279
1617.4081 407.7297
1615.3678 404.09885
1615.6427 400.619
1613.0894 399.57025
1607.5581 396.9289
1606.3722 397.29584
1606.4498 394.07538
1611.3898 390.28622
1610.2003 389.1606
1609.3749 386.22125
1608.1333 386.82043
1608.5391 385.8618
1608.2627 383.08417
1608.835 382.63788
1610.5879 385.1186
1612.2084 387.1966
1613.0376 386.50024
1614.449 387.74634
1616.3795 392.68915
1617.6172 393.21295
1619.3821 391.03723
1618.9404 386.66772
1617.6833 385.27036
1619.5044 387.8368
1622.5317 390.68408
1622.8839 390.72394
1622.0356 394.43005
1622.1868 395.85495
1621.4486 396.92554
1623.5303 397.0842
1624.0249 397.364
1625.2084 397.7325
1629.033 393.0407
1628.2434 390.15118
1631.4717 389.57092
1631.6578 389.48877
1632.4852 393.25085
1641.7085 396.8419
1641.8254 396.14096
1646.3894 394.48883
1646.6625 391.57086
1645.5465 390.8513
1643.0695 390.6444
1642.8962 387.40222
1642.2107 386.11023
1641.0864 383.41696
1640.8582 381.24097
1642.394 381.4033
1647.9572 383.1937
1648.4641 383.0272
1648.9357 384.18405
1652.4436 381.76086
1647.807 378.71558
1647.9052 376.86383
1647.896 376.2693
1645.0007 374.40308
1645.7112 373.17792
1645.4512 372.98642
1646.583 371.46246
1644.5278 369.83078
1641.8198 374.2993
1641.2322 373.82104
1633.149 375.04706
1630.1992 374.27753
1630.5758 375.67706
1631.3662 376.4204
1637.019 379.64795
1637.2537 380.35556
1637.0355 381.284
1634.9849 385.97995
1631.3701 383.03027
1630.515 379.17883
1628.5269 383.3155
1625.0046 385.04327
1624.1028 378.61676
1621.9631 381.7253
1620.5508 382.7341
1619.3162 382.07642
1616.5659 384.3753
1615.3738 383.07837
1613.3387 384.65723
1613.4768 382.79144
1613.621 377.50107
1610.219 376.53845
1611.0951 376.1611
1613.4861 373.8128
1611.9061 373.1006
1612.2227 372.43918
1613.0592 369.39966
1610.5024 369.14117
1611.6749 368.38977
1612.3741 366.23212
1614.0696 365.18005
1615.5221 364.9217
1615.5698 365.1668
1617.3538 366.3515
1618.1411 367.32013
1618.975 366.50092
1619.5359 367.96027
1618.5181 372.7298
1621.427 374.4476
1620.1829 368.58603
1623.7986 368.99
1626.0983 364.7815
1620.9441 363.77765
1618.6608 363.30695
1617.0238 362.99973
1619.1746 363.0277
1621.9949 361.66733
1620.9124 358.45648
1622.7527 355.37253
1624.4084 357.4824
1625.6608 360.2896
1626.271 363.51434
1628.8335 364.37558
1628.9403 367.37082
1631.7677 371.75067
1633.7131 371.59534
1634.1075 369.15903
1635.6096 366.64075
1636.2668 365.52402
1633.4927 364.36166
1631.5768 361.60657
1631.5457 360.10443
1633.789 359.3335
1630.0447 356.6971
1630.3047 355.96582
1632.5974 353.30737
1632.5801 351.18335
1629.856 352.08868
1629.3374 349.7657
1628.7825 350.41058
1625.7919 350.96188
1627.0968 345.24823
1631.7648 345.2219
1632.9023 345.60568
1633.4954 347.04706
1632.8883 345.27008
1636.2871 342.57404
1639.2866 342.9702
1641.3251 343.6385
1641.8666 343.35385
1643.8558 342.7741
1644.0585 341.68604
1642.3707 338.43332
1642.0249 339.23035
1640.6714 340.55652
1639.9446 339.82227
1639.8796 339.2818
1640.1365 335.1056
1643.1648 335.87524
1645.0867 338.45303
1644.2197 340.43573
1649.3091 341.26624
1650.1261 338.93698
1652.5166 331.8833
1655.5908 336.15863
1653.0352 339.99466
1653.7083 342.48877
1651.7333 346.05872
1650.2002 345.42963
1647.0449 343.9914
1643.8762 345.10117
1643.387 346.01196
1645.1272 349.48566
1643.3367 349.50253
1642.7449 351.54657
1640.1823 351.34604
1639.0162 349.1225
1639.3151 346.8087
1639.2537 346.72983
1636.8837 347.99823
1636.2482 351.3021
1636.4672 351.4389
1636.7567 354.2613
1638.1577 357.492
1641.7408 353.9182
1643.1888 353.40796
1647.1914 352.93256
1649.3699 353.58325
1651.7545 354.96613
1649.1714 355.3109
1647.043 357.05798
1646.6595 361.7442
1644.7084 364.1255
1644.1553 364.675
1646.0797 368.11945
1645.8893 368.8282
1646.4849 368.3674
1646.6652 367.73053
1648.2737 367.56854
1650.0 367.60083
1651.7141 363.65927
1651.5677 363.4018
1651.7825 359.44824
1656.6553 360.61288
1656.0692 358.3243
1655.5204 355.7002
1656.9358 357.23706
1658.947 357.37936
1658.3071 353.3083
1656.668 352.11353
1659.5742 351.4713
1660.1865 350.43896
1662.4122 350.25067
1667.1846 350.21057
1667.9325 348.09448
1666.23 347.45068
1667.9177 346.30444
1665.7799 344.27594
1665.2764 340.31458
1664.0828 340.63507
1661.6995 336.41934
1660.2343 333.33325
1665.5085 335.34918
1665.9572 335.02972
1666.8516 333.52173
1663.6034 330.70392
1661.0519 328.88123
1663.0408 328.24936
1667.5679 326.1502
1669.2695 325.8324
1665.783 325.72125
1663.4175 322.34006
1661.2131 323.92963
1662.2122 321.05606
1662.7054 318.9052
1662.3154 316.6458
1663.5945 316.1849
1663.9319 317.3297
1664.52 316.83334
1663.9949 313.77658
1661.4126 314.99884
1660.5175 312.68054
1660.2205 311.8692
1659.1034 312.65344
1658.5339 311.94095
1659.4395 310.7309
1657.2743 311.0329
1657.1179 311.40662
1654.7816 311.1852
1654.5027 310.70496
1652.8079 310.90247
1654.6277 316.4643
1658.8148 315.32782
1659.8745 317.26788
1659.6627 320.5049
1660.3265 322.2294
1659.6234 321.6295
1657.4653 322.2857
1655.1315 321.4715
1652.0044 319.2649
1650.8809 317.72064
1650.3221 317.87183
1645.9434 316.66528
1644.6111 311.85495
1647.0044 310.2481
1646.7007 312.95404
1648.075 312.34113
1647.5082 310.52905
1648.4137 308.26953
1647.6056 307.61
1647.9949 305.46252
1648.6835 302.8376
1646.8202 303.48425
1645.2217 305.3687
1642.7483 304.90265
1643.9847 309.27533
1642.0454 310.23935
1642.1978 313.22708
1643.6647 314.4231
1646.5221 321.48032
1642.2318 323.58356
1641.515 322.90448
1639.6453 320.76437
1640.0454 322.78323
1639.1648 324.45856
1638.5991 324.60703
1639.8518 325.23193
1642.408 324.4245
1646.3203 330.68768
1646.5723 331.7887
1646.3945 326.5576
1647.5188 324.4194
1650.4194 323.96005
1651.9198 328.2658
1653.0059 331.1759
1657.3816 329.14124
1659.311 329.15588
1659.6866 329.9986
1658.9038 333.03928
1659.3322 335.05194
1657.7284 335.07227
1658.0654 337.60327
1659.5173 340.72595
1657.4296 345.37903
1660.6512 340.78357
" />
</g></g></svg>
