<?xml version="1.0" encoding="UTF-8" standalone="no"?>
<!-- Created for Inkscape (http://www.inkscape.org/) -->

<svg
   xmlns:dc="http://purl.org/dc/elements/1.1/"
   xmlns:cc="http://creativecommons.org/ns#"
   xmlns:rdf="http://www.w3.org/1999/02/22-rdf-syntax-ns#"
   xmlns:svg="http://www.w3.org/2000/svg"
   xmlns="http://www.w3.org/2000/svg"
   xmlns:sodipodi="http://sodipodi.sourceforge.net/DTD/sodipodi-0.dtd"
   xmlns:inkscape="http://www.inkscape.org/namespaces/inkscape"
   width="3200"
   height="800"
   id="svg2985"
   version="1.1"
   inkscape:version="0.48.1 r9760">
  <defs
     id="defs2987" />
  <sodipodi:namedview
     id="base"
     pagecolor="#ffffff"
     bordercolor="#666666"
     borderopacity="1.0"
     inkscape:pageopacity="0.0"
     inkscape:pageshadow="2"
     inkscape:zoom="0.35"
     inkscape:cx="1600"
     inkscape:cy="400"
     inkscape:document-units="px"
     inkscape:current-layer="layer1"
     showgrid="false"  />
  <metadata
     id="metadata2990">
    <rdf:RDF>
      <cc:Work
         rdf:about="">
        <dc:format>image/svg+xml</dc:format>
        <dc:type
           rdf:resource="http://purl.org/dc/dcmitype/StillImage" />
        <dc:title />
      </cc:Work>
    </rdf:RDF>
  </metadata>
  <g
     inkscape:label="Layer 1"
     inkscape:groupmode="layer"
     id="layer1"> 
     <g>
<path style="fill:none;stroke:black;stroke-width:2px;stroke-linejoin:round;stroke-linecap:round;" d="M 
1645.8502 332.10962
1645.7703 328.5695
1646.1917 325.38443
1647.1594 325.47626
1647.5066 325.0473
1649.8975 325.5519
1649.9608 326.46918
1650.8501 326.7264
1651.759 327.7713
1650.834 328.54303
1648.0332 328.50403
1648.3938 329.57587
1646.1895 335.92535
1645.626 336.30948
1645.0784 338.57758
1645.7191 340.34033
1646.1471 340.44397
1645.1548 341.84726
1647.162 342.26242
1645.5818 342.64612
1642.9832 342.18793
1643.0492 349.76645
1641.7974 351.30005
1643.8823 349.743
1644.3398 349.8194
1645.0232 350.75348
1647.222 351.2247
1648.0165 351.1084
1645.2808 348.13425
1646.8239 346.80804
1647.7561 344.0346
1648.1709 343.87445
1649.1328 346.10437
1650.7827 344.79022
1651.865 346.22787
1653.7065 347.55267
1652.2852 349.1278
1652.1208 349.47998
1650.6272 349.96237
1651.0889 351.77075
1648.5073 353.51755
1648.4656 353.6281
1648.8901 356.5494
1650.2212 358.6329
1651.8701 359.9775
1649.7434 359.34888
1647.3734 361.06622
1646.7687 359.72156
1643.9027 360.91537
1643.7654 361.34372
1642.7507 361.8974
1642.2515 361.8535
1643.5554 360.60205
1643.3181 358.01178
1644.0402 357.60168
1644.3872 357.34787
1645.564 354.29413
1645.0825 353.67334
1644.7363 352.52588
1641.4698 352.55365
1640.308 354.09735
1640.2874 357.48773
1637.5988 358.71796
1638.1798 359.9077
1637.7244 361.80087
1637.5222 363.85516
1639.1858 363.9609
1639.0898 364.30524
1638.5415 365.79218
1639.8783 367.2992
1636.4792 367.5511
1635.7517 369.7188
1633.6113 367.74802
1631.0425 370.14606
1632.2776 368.2271
1633.2887 366.16888
1633.2545 366.11545
1635.1083 365.49426
1635.0833 364.14844
1634.8033 363.36716
1633.893 363.4975
1633.1256 362.55273
1630.1855 364.43845
1628.2527 370.4574
1626.5466 371.32635
1625.8036 371.6447
1624.7217 373.40503
1623.5038 371.95676
1622.4341 371.71576
1620.0554 372.1246
1620.0063 373.68896
1622.4011 375.4638
1622.2812 375.87704
1619.3529 374.81677
1618.961 375.15036
1617.8726 375.90106
1618.6185 377.89304
1618.502 378.14075
1620.749 379.15424
1622.2552 380.9245
1622.3068 378.28503
1623.8533 378.53696
1623.9244 379.13928
1626.5967 378.08496
1627.6382 376.30612
1625.8267 375.76047
1625.9036 375.63058
1627.4402 374.417
1626.9192 373.5709
1628.3131 372.2271
1630.3643 373.1859
1631.9526 374.67136
1632.2986 375.65024
1632.7736 374.48947
1632.3228 373.68845
1635.2568 372.98004
1637.0062 372.56357
1637.5417 372.4007
1641.0114 373.598
1641.8167 373.86115
1641.302 374.4292
1640.9935 376.93185
1638.9023 375.6715
1637.7885 373.5432
1636.0778 373.89658
1635.2695 375.40625
1634.5126 377.76733
1634.0026 377.98727
1633.4489 378.0786
1630.7463 376.0908
1630.0393 375.239
1630.2881 376.82507
1629.1865 377.8441
1629.2449 378.3529
1631.019 379.7433
1632.44 380.8116
1632.879 381.1384
1630.4862 381.96558
1629.8259 382.96957
1628.1162 382.82275
1625.1777 383.84393
1624.9099 384.55634
1625.0356 386.1054
1625.979 387.858
1626.4205 388.25546
1626.1716 389.52
1623.5537 387.6329
1624.1625 388.46094
1624.0249 391.60376
1625.2384 391.91403
1624.864 392.33374
1626.523 394.20996
1627.5823 393.18332
1629.2089 395.28244
1632.5032 395.13074
1631.8728 397.06183
1630.1865 397.1043
1628.6786 397.07666
1625.2466 398.67273
1625.312 399.69202
1624.8613 398.8005
1619.5289 401.40247
1619.5934 401.89368
1617.0032 400.87863
1615.2709 405.12585
1613.1555 405.58603
1612.1647 404.05658
1611.1646 405.75452
1611.7739 406.95453
1612.0372 408.72052
1611.4534 410.4958
1605.594 408.94232
1605.1907 410.50372
1605.5559 411.21295
1608.6309 412.4981
1610.444 413.5114
1611.5956 412.49387
1612.2336 411.238
1613.1193 411.52368
1613.5826 416.73645
1611.8041 416.74872
1609.9456 415.0395
1609.208 414.75598
1608.8196 414.3921
1608.1251 413.2113
1608.5012 414.00278
1607.8696 415.35736
1605.0563 415.56152
1604.637 416.55878
1603.7444 414.35995
1601.2268 413.19318
1600.516 416.58676
1599.793 415.95724
1598.1846 417.98297
1596.8518 414.39368
1592.8732 412.89417
1592.6531 409.4366
1593.5225 407.8214
1594.2363 407.4459
1594.6329 406.2553
1594.8234 406.95367
1594.5527 407.7347
1594.4229 408.35944
1594.5831 409.4547
1594.7963 409.79468
1598.6401 411.09686
1600.4318 411.30017
1598.9084 409.483
1598.9088 406.89575
1600.454 405.66098
1601.0967 406.7213
1601.5865 406.8777
1601.4205 406.1233
1600.9386 405.59042
1602.5494 404.4524
1606.5576 404.7127
1606.6787 405.2833
1607.1246 406.39948
1608.1267 405.06198
1609.837 404.62738
1610.4253 405.26965
1610.6368 403.46445
1610.3649 403.664
1608.452 402.86945
1609.7229 401.95297
1609.0627 400.46933
1607.3151 401.05344
1606.986 399.98322
1606.5764 399.9277
1607.4036 398.93
1607.9526 397.84222
1609.1375 398.72253
1610.6877 398.74875
1612.9844 399.26892
1612.6621 400.14487
1614.3572 400.39642
1614.8479 400.39447
1615.6473 398.30588
1615.467 396.74252
1616.7052 396.90887
1619.0198 395.82016
1621.0643 397.1866
1621.3392 395.06805
1620.9636 393.20734
1619.0444 391.8237
1620.561 390.25024
1622.3925 389.7428
1621.8176 389.233
1620.1779 387.13498
1619.96 385.9084
1618.3665 388.64417
1617.6145 386.60846
1616.2745 386.64154
1613.3651 386.6377
1612.6008 386.75482
1610.0327 386.9674
1607.6498 388.3187
1607.4429 387.16196
1604.9895 387.8968
1603.1088 388.2358
1601.2911 388.88962
1602.067 388.8642
1602.1582 385.3005
1601.8024 383.6909
1602.2131 383.58984
1602.3406 382.65125
1602.3142 382.46774
1604.593 382.8536
1605.6038 385.22958
1610.0432 385.55145
1608.5071 384.33405
1606.5396 383.65027
1606.6962 382.32446
1608.3989 381.10504
1609.3549 382.04248
1609.9163 382.3525
1611.1371 383.602
1611.9956 383.3781
1614.9355 384.27914
1617.2502 383.24243
1618.0441 382.26685
1617.989 380.6434
1618.4572 380.10626
1616.8608 379.6849
1616.374 377.49667
1615.2825 375.12476
1613.5142 377.88336
1613.8845 379.43744
1612.9243 379.82562
1612.7603 378.5731
1611.1759 379.46783
1609.5991 380.3315
1607.5836 381.37668
1605.5247 380.6728
1604.9968 379.0356
1605.3822 378.21246
1604.6373 377.95862
1602.0558 377.94833
1602.3235 380.52856
1601.3464 380.45746
1601.1615 381.10303
1601.7784 382.99255
1600.4631 383.1146
1599.6919 382.02472
1599.1356 381.9615
1598.1475 378.45764
1595.4838 379.3546
1594.5735 378.43915
1592.8684 376.92856
1589.7825 375.0937
1587.609 377.5318
1585.7981 376.8873
1584.0399 375.53784
1583.5259 376.176
1582.507 375.18918
1582.02 374.31097
1580.1276 377.05835
1577.425 375.3454
1577.8591 373.48117
1576.1727 371.70697
1575.0587 372.3575
1574.2983 372.41205
1572.3251 371.1241
1571.2957 371.10883
1569.7383 369.7541
1568.7819 370.45935
1569.0444 369.54053
1567.9454 369.05637
1566.0227 370.03268
1567.5322 371.9133
1565.3091 372.911
1563.8206 372.4853
1563.1454 371.26855
1559.6908 372.69882
1560.7673 370.1859
1561.0232 369.2594
1564.082 366.9771
1561.5963 365.37885
1563.7043 364.51398
1564.7031 363.43036
1566.0513 364.51657
1567.361 364.95175
1567.0918 363.55258
1566.2864 361.09015
1565.0288 360.31866
1563.9598 361.51123
1561.313 359.78546
1561.7739 358.285
1563.0836 357.74512
1563.3146 356.40924
1564.5662 354.8137
1563.253 355.09766
1561.7172 354.18402
1561.0627 356.01648
1559.0955 357.94626
1557.5226 361.0442
1556.8889 361.3393
1555.7957 359.9911
1556.1228 358.44275
1556.2877 356.5405
1556.0753 354.93958
1554.13 356.40503
1553.0542 355.3457
1552.1089 354.96826
1553.4052 352.87402
1555.324 353.63977
1557.6604 355.2929
1558.2617 351.95404
1557.5508 351.52887
1559.2798 349.89807
1558.2145 349.1915
1558.1423 348.6976
1558.2544 348.58466
1558.4558 347.31638
1558.1936 347.33408
1555.8201 345.53305
1556.3325 344.13776
1557.2709 343.9892
1557.504 343.7107
1558.4865 340.78058
1555.6272 336.73416
1553.7246 336.38196
1551.2533 337.94162
1553.5507 335.98718
1553.8694 333.3664
1555.4575 333.95047
1556.5742 332.42758
1557.5862 330.71664
1559.1074 327.41507
1557.2356 323.43228
1555.2941 321.89243
1552.8108 320.41605
1553.8065 316.0715
1551.6403 317.41608
1549.8496 318.6058
1549.3558 317.62775
1547.9844 316.689
1547.9521 317.68552
1548.7349 319.42172
1549.0315 321.25317
1553.0912 323.7289
1554.6531 322.76257
1556.6042 325.30432
1552.8896 326.06396
1552.992 327.36502
1554.2905 328.04584
1550.4099 331.16684
1548.4392 329.90482
1548.665 328.37866
1549.1508 324.85736
1548.1443 324.21527
1546.8762 322.08224
1546.5839 319.62985
1544.8094 320.8869
1543.6183 323.15073
1542.8022 324.9382
1541.6353 322.27744
1543.2231 318.8692
1541.6165 319.05484
1540.9392 319.66528
1539.4388 323.01297
1541.161 326.21228
1542.114 328.6439
1542.6061 329.6646
1543.9248 328.7767
1545.4817 329.63864
1546.4277 329.96106
1546.4166 330.80023
1548.1726 331.37503
1548.4711 332.12042
1546.7507 332.6822
1546.09 332.79422
1543.7795 332.50336
1541.481 333.78204
1539.6697 332.03912
1539.8975 331.40793
1540.3586 330.8045
1538.0834 329.61353
1537.2759 329.8101
1534.6904 328.01846
1532.6632 329.9797
1533.1501 327.2724
1534.6313 327.2448
1532.9866 325.60992
1534.4836 324.81952
1533.1097 322.8461
1533.211 323.29233
1535.0972 320.75992
1536.0945 321.68213
1539.3313 317.08777
1535.7554 315.64978
1535.7417 312.40936
1533.1423 314.13333
1532.4592 316.39813
1533.416 317.11353
1532.8806 318.62778
1532.3306 320.71356
1531.8528 322.9638
1529.2726 321.55298
1524.3545 322.5729
1525.9584 324.56628
1528.0477 326.72852
1529.2502 325.72598
1529.2686 327.66052
1530.1846 329.23468
1530.024 329.49307
1533.0885 331.3542
1534.154 331.742
1538.2012 334.27094
1533.8494 332.59726
1532.8042 334.57874
1531.2738 335.92987
1533.5573 336.93213
1533.9136 335.20105
1534.2397 335.78467
1537.8804 335.67108
1541.7742 336.30542
1541.3816 339.34488
1540.9314 340.0884
1543.9532 339.93085
1544.4161 339.12646
1548.0674 334.6913
1549.5342 336.80988
1551.2587 339.0275
1547.5513 338.09262
1546.5327 340.5138
1547.8058 341.63306
1546.816 341.0602
1544.4374 340.41968
1545.1138 343.17743
1547.4001 342.9743
1548.6702 344.96417
1548.8828 344.99667
1548.4004 343.10873
1551.3418 342.09235
1552.2195 343.107
1554.3142 343.84814
1553.9012 345.1142
1553.9773 346.58063
1553.855 347.50336
1550.853 348.34396
1550.199 348.57968
1549.5625 347.9785
1547.3292 345.5072
1547.8499 345.8741
1547.6433 348.377
1547.1232 351.36102
1545.0812 352.11057
1545.3043 351.00998
1544.9579 348.6413
1542.5298 346.3376
1541.2205 344.8597
1541.7188 344.6504
1541.5659 343.77316
1540.8423 341.88324
1539.9321 340.08078
1539.977 340.71454
1539.2406 342.10028
1539.2068 341.88007
1536.4784 340.5371
1535.689 340.61023
1536.48 341.48373
1536.005 342.0423
1536.99 342.2551
1535.195 346.17828
1536.4304 348.3349
1535.6002 346.0022
1534.8022 345.88184
1532.981 346.40985
1534.1499 344.15497
1534.197 342.3231
1531.3994 340.26486
1531.417 339.62653
1532.6182 338.49094
1533.4126 338.70352
1535.453 340.0733
1534.7286 338.47955
1533.746 338.3899
1532.5172 338.33728
1529.5696 337.3058
1528.1769 336.20728
1528.475 335.67963
1528.7996 335.55026
1529.693 333.14197
1528.7004 332.95676
1527.3206 332.9546
1527.376 336.1628
1526.6499 334.9403
1525.5173 332.63342
1525.2156 333.60156
1524.0695 333.88303
1523.3949 332.18646
1525.7114 330.0184
1524.539 330.04126
1524.097 329.15802
1524.5221 328.2331
1523.5944 327.44586
1522.9028 326.2796
1523.2273 322.8161
1520.549 322.1073
1518.0618 321.9657
1520.2269 324.30298
1518.1177 324.8994
1518.703 327.0077
1522.2471 327.29492
1521.9988 328.86618
1520.9644 329.76883
1519.7885 329.1748
1517.8856 329.0055
1515.751 328.64032
1518.6168 330.53253
1519.3394 330.42163
1517.1965 334.18286
1517.2078 335.17273
1518.8079 336.67694
1518.3871 337.6194
1517.5952 339.30124
1518.9268 338.93433
1520.3507 338.90002
1521.1267 338.2324
1521.148 339.32898
1519.5812 342.67
1519.7222 343.3286
1522.658 345.83813
1522.4374 347.18207
1525.1726 346.40976
1524.9344 344.81854
1523.8381 343.28345
1524.6943 341.84494
1524.2468 339.7721
1528.3022 340.27722
1527.4631 341.43536
1531.5396 345.3838
1529.5247 346.94003
1529.4417 348.94458
1533.0913 352.77267
1535.2837 354.58673
1535.9885 353.8664
1536.3359 352.46143
1535.7001 351.89438
1535.2161 350.93112
1534.3569 349.92395
1536.6106 349.65427
1537.3097 350.44223
1537.3074 351.64252
1539.7734 350.62408
1540.7048 350.78436
1542.2332 348.48236
1542.2476 348.94598
1543.5515 352.00214
1544.355 352.65942
1544.7878 352.16168
1545.3695 352.5339
1544.8413 353.54327
1543.021 354.18124
1542.128 352.57602
1539.2427 352.92468
1537.7302 354.60773
1536.2974 355.68137
1535.542 355.05957
1534.1298 356.53198
1536.4316 357.11584
1538.5408 358.22253
1535.8218 360.49835
1534.4546 359.93756
1535.6417 359.40332
1536.9434 361.46448
1538.4767 360.80365
1541.4395 363.22678
1542.139 362.61032
1543.7893 360.2844
1542.4515 359.23337
1541.9807 356.81235
1541.7423 354.79095
1542.6099 355.81152
1543.527 357.55267
1545.9518 359.44003
1546.406 359.22333
1548.4531 355.6721
1549.2866 357.63828
1549.0398 359.71115
1549.9513 360.1214
1550.1775 360.96457
1550.0205 359.70654
1550.9128 359.26828
1552.2303 360.6811
1551.8357 363.49557
1552.6462 364.39856
1551.522 364.98273
1552.2146 365.41803
1552.2002 366.48828
1551.4127 368.31213
1553.1277 370.06415
1555.3986 370.01474
1554.8296 372.11066
1554.3092 373.38364
1553.3457 373.1477
1549.9867 372.145
1549.9036 373.17535
1551.5785 375.10083
1551.5149 376.55115
1550.8125 380.18542
1550.9678 380.9686
1550.556 381.956
1550.9006 382.1582
1551.0641 382.6585
1552.0212 385.09186
1549.6353 383.84692
1549.4408 383.0344
1547.7305 383.52243
1546.3076 383.98193
1543.5813 386.81622
1543.1354 387.27356
1543.6488 388.4321
1542.332 388.281
1541.604 389.57788
1539.5305 388.99335
1535.8188 386.75494
1536.2578 386.01917
1536.4872 385.7011
1539.9551 384.52048
1540.4093 383.65207
1540.404 381.59628
1539.8242 382.87048
1536.8528 383.18774
1534.5222 382.8249
1535.5293 378.97433
1537.0397 379.9032
1540.1047 376.9273
1542.941 380.46533
1546.4666 377.45688
1546.6573 377.02304
1547.9392 377.1638
1547.9897 374.90106
1547.2883 374.66318
1546.4921 375.40082
1544.0342 375.63623
1543.202 374.8404
1541.1572 374.0479
1540.7247 373.35577
1541.8291 372.1496
1542.6445 372.25195
1543.1615 371.0266
1546.1382 371.7732
1545.7965 371.87842
1545.9321 371.795
1543.8169 369.6117
1541.2882 367.90094
1538.0391 367.5177
1539.3479 367.18915
1542.3506 368.20612
1544.3386 368.18195
1545.002 368.233
1545.2606 366.48193
1549.6135 366.92578
1552.49 367.07846
1553.3403 365.78308
1554.0394 365.25446
1554.9761 362.9204
1556.2053 363.516
1556.6072 364.0482
1558.1915 363.07162
1558.122 362.19012
1560.0748 362.8597
1561.7192 363.13934
1561.169 364.9315
1558.2844 365.312
1559.427 366.2362
1558.9326 366.59668
1558.8295 367.30035
1557.8679 367.6593
1558.1627 370.7483
1559.096 372.1994
1558.492 372.89902
1558.9075 375.75085
1558.8462 377.0313
1557.716 378.92172
1555.4907 376.50754
1554.2432 378.42035
1555.334 379.33148
1557.6138 380.49945
1557.2933 381.11584
1556.7659 381.81393
1555.9392 382.7627
1555.8469 383.3143
1554.229 384.06384
1555.7462 385.4178
1556.8652 386.44247
1556.9225 386.46545
1558.3059 383.63876
1558.7354 381.95874
1560.9839 380.88123
1560.3909 380.22406
1559.9774 379.27313
1562.0724 378.5149
1561.4346 376.8094
1562.3777 376.86163
1563.4958 376.2224
1563.6287 375.22897
1565.8601 375.6219
1568.7751 377.7474
1570.1887 377.623
1570.073 374.52637
1571.8503 374.66293
1572.1729 376.0499
1572.1313 378.45233
1576.0361 380.62048
1577.01 379.0296
1576.8315 380.28635
1577.4948 381.6041
1578.0211 382.46884
1577.5934 380.29694
1578.1372 380.372
1579.046 380.3387
1579.2166 381.30573
1581.6138 381.97385
1582.0425 383.38605
1579.4596 383.14435
1578.8936 383.31345
1577.9757 382.64304
1577.7885 383.452
1575.7014 384.30756
1576.8184 386.55115
1574.0215 386.97943
1573.569 387.15387
1572.6467 386.56662
1574.3535 385.32745
1574.9858 385.1529
1571.632 382.87097
1572.0583 381.94952
1570.8522 381.2105
1570.1846 381.13315
1569.9231 381.32928
1569.3145 379.30084
1567.9751 379.73837
1566.1127 377.65698
1563.6967 377.55225
1563.2942 379.85315
1564.1946 380.1809
1563.5138 380.41245
1560.9958 382.6733
1560.5911 383.83984
1562.2031 386.11682
1560.6212 386.39526
1559.4714 387.66602
1558.697 388.02927
1560.1586 388.88937
1561.7836 388.2877
1565.3881 388.6173
1565.8235 388.5935
1567.9304 386.41354
1569.0309 389.42477
1569.8817 390.02914
1572.048 389.6036
1573.2349 390.11963
1572.0801 391.74792
1573.0137 392.65414
1573.6577 391.8432
1577.2327 393.3484
1578.9259 392.50934
1578.9906 392.2785
1580.0585 392.2376
1581.3804 390.364
1580.1252 390.13086
1578.4293 391.3231
1579.3295 387.6778
1577.4836 386.42877
1581.2139 386.95895
1581.7871 387.83835
1582.5098 389.67645
1583.9943 389.99594
1587.92 389.77716
1588.8029 389.9176
1589.7794 388.90985
1588.3591 387.66016
1587.3783 388.12585
1588.6606 387.20483
1587.6854 384.88763
1587.3685 385.91037
1586.9673 385.0687
1582.8771 387.02405
1584.6454 384.78503
1586.166 383.34055
1585.8406 382.52655
1586.0566 381.32196
1585.6631 380.64697
1585.1711 380.14804
1585.3203 379.76282
1584.4636 379.47235
1583.851 378.69492
1584.833 377.11163
1587.9475 378.73373
1589.3447 378.7878
1590.1876 378.884
1590.863 380.34912
1591.8778 381.30176
1592.6273 380.6778
1592.4592 379.75668
1593.3306 379.4491
1594.5385 380.34152
1593.5598 382.21722
1590.143 382.9085
1589.8181 383.1867
1590.8081 384.84335
1593.7456 384.25336
1594.0419 383.42456
1593.878 382.53476
1594.7517 383.79218
1596.8531 383.1357
1596.3417 383.23145
1596.2155 385.30066
1597.0941 388.56763
1597.5225 389.33472
1598.4688 390.25742
1599.3645 389.0129
1600.1292 390.45178
1600.4097 391.8637
1601.7177 391.57654
1602.4133 392.99994
1604.0492 393.32257
1604.1875 390.72534
1606.1127 389.9411
1607.1317 389.48907
1609.4314 390.23517
1611.3193 390.35938
1611.5688 389.91406
1614.7833 391.76526
1612.9822 393.6833
1610.5106 394.458
1610.4753 395.117
1608.8439 396.15112
1609.25 395.6026
1608.6133 393.59094
1609.6827 392.9314
1608.1925 393.3777
1607.3329 392.89575
1605.6423 392.69122
1605.8262 394.54877
1604.3262 398.83142
1604.991 399.58636
1602.6171 398.9371
1602.4443 398.64325
1601.2335 398.57343
1600.6718 400.7008
1600.7932 401.64233
1601.6733 402.489
1601.6293 402.87228
1599.3354 403.5995
1598.2668 401.75153
1596.6617 401.7556
1597.9657 399.1444
1598.6147 399.23593
1599.406 397.94403
1597.8845 396.91098
1596.0094 395.6338
1597.2894 393.4458
1596.3713 391.67004
1596.2858 391.48987
1594.3391 392.65643
1594.7394 390.86908
1593.8569 390.53134
1595.9753 388.80017
1596.8522 388.78378
1594.9584 388.0837
1593.2932 386.94748
1592.1929 387.16257
1592.6407 388.89825
1592.0867 391.6388
1592.5863 392.61743
1593.0791 394.55933
1593.3059 394.59213
1594.6051 397.95343
1596.0673 399.55676
1594.108 399.31622
1593.8275 400.31647
1593.023 400.5374
1592.2202 401.15204
1595.5308 402.60126
1596.741 403.4337
1592.2493 402.36078
1590.595 404.4018
1589.6624 401.4682
1589.1079 399.8194
1587.3298 401.36115
1586.1934 399.98322
1585.2025 400.12964
1586.2516 400.81958
1585.7822 403.09726
1586.1995 404.83652
1589.886 406.6433
1593.0603 406.16003
1592.9288 407.38498
1592.7666 407.8236
1592.3916 409.45447
1590.5403 411.23984
1589.7998 411.3487
1586.4354 407.6384
1586.2583 407.43207
1588.8608 410.00946
1587.5132 412.5932
1587.8406 412.77722
1590.5153 417.54962
1589.1978 417.69318
1573.8412 439.19202
1572.3503 440.64655
1569.4586 437.96075
1569.7354 442.55832
1567.9291 443.4181
1569.9937 442.99347
1571.3754 443.44604
1574.6365 441.15387
1573.863 444.2072
1573.0394 445.516
1571.6956 445.23352
1571.9617 445.56137
1570.1014 446.79248
1568.8981 449.41052
1567.0287 448.99362
1567.1482 450.049
1567.2074 450.21368
1564.6919 451.74713
1567.0168 452.38486
1570.6947 452.5477
1572.4495 453.58252
1572.3018 454.78027
1572.5625 452.81842
1570.3086 450.3902
1570.5188 448.6141
1571.8177 449.25385
1571.9963 448.6617
1573.7968 445.48163
1574.1843 446.144
1575.9498 450.24933
1578.1351 451.18634
1577.3164 452.35034
1575.4728 453.4841
1575.2971 454.5158
1575.373 456.0367
1576.3167 457.66965
1575.0208 459.42502
1576.7623 462.25397
1577.6594 462.9565
1577.4453 463.49878
1576.2234 465.0847
1579.1404 467.32465
1580.2318 466.40222
1580.2715 464.7791
1580.4761 464.84042
1580.8892 466.9178
1581.4633 467.09595
1583.939 468.9444
1583.9312 469.41257
1582.8392 469.36005
1582.1558 471.2639
1580.052 470.50146
1580.0493 470.47177
1579.4458 469.8449
1578.7942 468.2192
1579.5632 469.5333
1579.2305 470.06952
1579.5697 470.20032
1579.3921 471.39938
1577.5681 470.46835
1576.4945 469.94824
1576.2076 471.1407
1576.9587 471.6849
1578.2555 471.87497
1577.8065 473.22833
1576.7343 473.93066
1577.427 475.87396
1577.9421 474.6517
1579.234 475.3288
1580.438 473.77344
1581.8174 474.22543
1583.4733 473.47272
1585.2405 473.6246
1585.9907 472.8736
1587.986 473.36444
1587.1431 475.0871
1589.1506 477.04135
1590.646 476.28168
1590.6515 475.6631
1589.9518 474.02863
1591.937 471.90732
1591.2109 470.7859
1591.2031 470.73788
1590.8069 470.2887
1590.2737 470.01953
1590.165 470.1797
1589.7212 471.0732
1587.7809 470.28098
1587.7815 468.6041
1585.6405 468.924
1585.4835 472.26636
1584.465 473.77283
1582.9814 476.488
1582.4213 476.14536
1581.1307 476.16595
1579.7639 478.04303
1580.0067 478.5196
1581.3806 478.83652
1582.031 479.36548
1585.3518 482.68
1585.4824 482.701
1582.7244 483.43488
1581.1046 483.21368
1580.4382 482.72913
1580.5104 486.06683
1579.1226 485.34418
1578.9716 485.32977
1576.7294 487.5255
1573.2512 488.14404
1572.7098 490.2658
1569.8545 486.9585
1568.2498 486.99164
1567.1196 487.8945
1567.7158 487.01282
1567.612 485.90936
1571.2825 486.09384
1573.4319 486.8044
1573.315 482.53073
1576.0836 484.00934
1574.1044 482.5833
1571.8568 479.82086
1571.0225 480.98117
1568.5779 481.17413
1568.1816 481.2003
1566.1477 483.5738
1565.0588 484.29514
1564.0907 481.81256
1564.9026 480.3155
1564.0271 478.21082
1565.6201 477.44308
1566.3291 476.74805
1569.0104 477.0754
1570.5588 478.08392
1573.2744 478.66626
1575.4631 480.38348
1577.0442 479.69528
1577.5679 478.05853
1576.4276 477.7564
1574.6279 474.74664
1576.4087 473.51987
1575.5305 472.47485
1574.9951 471.68283
1574.7755 470.11032
1570.947 470.53577
1570.6667 471.2201
1569.6508 471.67358
1567.3241 473.01013
1565.6417 472.5864
1564.2426 473.97296
1562.109 474.12976
1561.3867 474.43585
1560.8792 475.74084
1562.5162 476.5569
1562.4537 478.10678
1561.7483 478.90402
1561.1663 479.28207
1559.977 477.9876
1557.9917 477.95358
1556.8723 476.07114
1555.6714 476.9261
1556.4485 476.88766
1557.2435 480.937
1558.8181 481.71896
1558.139 483.42505
1560.6375 482.37204
1561.0884 482.9168
1562.8345 484.19946
1562.3298 486.3658
1561.73 488.11786
1560.2357 487.65308
1559.4106 488.3374
1559.9646 489.6689
1561.271 490.4095
1561.6938 491.4441
1564.2168 491.61847
1564.1543 489.7691
1567.0673 489.03162
1567.365 488.68124
1567.9979 491.39612
1566.7073 491.60687
1565.5178 492.12378
1565.1528 492.01038
1564.5795 493.35776
1561.7632 493.13925
1557.8153 496.47226
1556.2274 492.98663
1556.6799 491.3685
1553.5966 490.38815
1550.8358 489.0584
1552.564 487.1024
1555.0609 487.27582
1557.429 487.65704
1557.7473 487.74316
1560.0715 486.32016
1559.4187 486.78326
1557.6571 487.76926
1556.6388 486.24133
1555.206 484.3385
1556.6814 481.04453
1554.9479 480.12292
1554.1448 481.37158
1553.6442 481.34567
1552.1722 481.91748
1551.5563 482.5984
1550.1941 482.02277
1550.6814 483.63037
1549.7406 483.44833
1549.2151 485.9332
1548.5575 483.80038
1548.9696 481.2054
1545.8015 481.2661
1543.6782 479.75494
1542.7817 479.92255
1544.4915 480.6737
1545.5591 483.82394
1545.6575 484.2524
1545.8152 485.11935
1545.3083 487.2391
1543.6267 487.9173
1544.7263 489.73584
1544.5891 491.70813
1543.5854 492.71933
1543.2634 492.23285
1545.1144 492.02954
1547.0476 490.91953
1547.1927 490.38397
1547.5034 491.66086
1551.8622 493.17148
1552.1448 493.56775
1553.2319 493.98212
1555.328 494.72577
1554.6014 495.002
1554.2249 496.84326
1553.2886 497.0943
1552.0083 499.62024
1551.524 497.40244
1551.7627 496.25433
1550.6532 494.68726
1549.0841 494.29736
1546.334 494.13452
1545.3793 493.67737
1544.2323 495.46313
1544.5378 495.73212
1545.082 496.76923
1546.7906 497.08008
1548.5278 497.53503
1547.7749 498.06653
1546.867 499.5265
1545.0527 499.60422
1544.519 500.95764
1544.518 501.9659
1544.749 503.4394
1543.0022 502.43185
1542.2731 502.69333
1539.1267 506.0714
1535.3984 505.2306
1533.5812 506.23642
1531.9906 507.92383
1531.2161 505.9327
1531.2769 505.84018
1531.0774 503.63147
1530.7655 502.29083
1529.012 502.21265
1528.7944 506.8343
1528.1635 508.4282
1527.66 507.87878
1527.0725 507.1141
1526.8855 506.88208
1524.4883 507.92062
1524.231 508.81796
1525.5669 511.07172
1524.6777 510.59274
1522.5785 510.5312
1520.9813 512.3977
1522.7776 513.75586
1520.9956 513.8212
1520.9695 513.95337
1521.029 514.9005
1522.6309 516.41907
1522.2032 516.973
1522.0751 518.10876
1516.4397 520.8571
1514.5027 518.3026
1514.4364 518.27515
1511.5002 518.5812
1513.9852 518.8246
1514.8417 522.03516
1516.2645 525.1924
1515.983 525.28357
1515.1099 525.83826
1514.9867 525.63904
1514.5312 525.09314
1511.8638 524.19855
1514.1362 522.3672
1511.523 521.7711
1510.9186 521.75696
1510.4443 522.25757
1508.7153 522.1956
1507.1212 521.4487
1506.7092 522.6459
1509.4814 522.9016
1507.685 524.45154
1509.3444 525.86694
1509.8604 524.6891
1510.3053 525.0335
1509.5374 525.7646
1509.3667 527.1171
1510.1632 527.6391
1509.0143 527.1124
1508.2361 526.9805
1507.068 526.75616
1505.8364 529.25555
1505.2834 528.32434
1502.4546 526.5003
1501.5554 527.0636
1500.0833 526.8347
1500.1881 528.8385
1500.1028 528.8684
1499.0836 530.26575
1497.4951 529.16437
1494.822 529.0822
1494.9432 527.6197
1494.758 524.9164
1497.5334 524.8706
1500.0879 526.597
1497.633 525.09186
1496.919 525.6897
1496.5728 524.1589
1496.5754 520.87836
1492.4648 520.83887
1493.0581 523.15204
1492.3534 525.87305
1491.1436 526.21545
1489.4603 526.9245
1488.9238 524.714
1485.893 524.36096
1489.8154 520.45715
1489.1924 520.88544
1486.9436 518.75037
1488.5151 518.0922
1489.1948 515.57385
1490.5739 516.774
1491.7632 516.5237
1494.8564 517.31616
1497.4233 518.0872
1500.41 519.3364
1499.7682 520.4033
1500.5902 520.82263
1503.6923 520.2783
1503.894 517.93146
1505.221 516.39557
1507.2579 517.4763
1508.2444 516.7557
1509.0364 516.4272
1510.8757 515.20386
1513.27 515.6161
1513.7015 516.3715
1514.1057 517.06714
1517.6294 515.8203
1514.6218 515.38367
1513.9094 515.3608
1513.6501 513.3377
1513.7119 512.2937
1512.8147 510.42126
1512.8398 507.18597
1511.721 504.71664
1511.9645 503.57483
1509.6871 501.6638
1510.0154 499.95776
1510.7719 500.69617
1512.2195 500.4289
1513.6079 501.30173
1514.8213 501.6572
1514.8673 502.5107
1516.0945 505.20114
1516.3461 505.41293
1516.8439 505.7693
1517.0386 508.34348
1516.2712 509.34094
1520.1 509.8199
1520.7136 510.88788
1520.1665 508.96844
1522.7632 506.1319
1523.5118 504.5289
1523.3153 503.53122
1521.636 503.27264
1520.7788 503.1783
1518.1067 501.29742
1515.1532 500.02112
1516.6267 499.0632
1515.4963 497.14682
1516.1492 496.46906
1516.1082 496.00824
1515.3708 498.27728
1513.3125 499.0678
1511.0487 497.99805
1510.8707 496.80835
1510.9084 495.09857
1511.3312 494.5931
1510.679 492.6909
1510.1118 492.9878
1508.3362 493.19357
1508.7278 494.5063
1507.9211 494.79596
1506.5488 493.19617
1507.0464 495.16193
1507.5105 494.94504
1508.584 496.52826
1507.8575 496.85458
1506.939 496.1993
1503.277 497.2678
1502.3402 496.60226
1501.5227 495.86337
1501.4628 496.91574
1497.2007 499.20456
1497.7471 500.8858
1495.9642 499.44617
1493.8927 499.79535
1492.7596 499.6848
1490.939 498.03644
1490.8541 496.1808
1490.1653 498.1021
1488.6477 498.6797
1485.6619 497.82037
1484.9758 499.19098
1485.8195 501.51935
1484.8923 503.3568
1484.7045 505.00974
1485.5887 506.0337
1486.7761 504.94077
1486.6321 501.96616
1485.9725 501.4688
1488.5515 501.53635
1489.0366 503.09692
1490.9695 502.81262
1490.5325 503.8419
1490.334 505.37396
1491.226 505.7887
1490.5558 507.89832
1491.0131 508.30695
1490.7186 510.8817
1492.235 512.8412
1490.1519 512.05225
1485.9983 513.48444
1484.5723 511.49634
1484.4712 512.6878
1485.4768 518.8227
1484.6709 518.4077
1481.5748 517.49744
1482.5608 513.1051
1480.1434 512.39746
1482.657 508.6858
1480.4106 507.53845
1481.337 506.01935
1482.037 505.02747
1483.2278 503.11768
1481.4608 502.3769
1482.6138 500.77707
1482.4193 497.73108
1484.8528 495.61017
1483.897 494.36447
1485.4282 494.30103
1486.6736 492.2871
1490.2607 491.36536
1491.7985 489.57275
1491.2273 488.80194
1491.0812 493.4151
1491.6781 494.48346
1493.6089 496.5897
1495.5355 494.54333
1495.5763 493.80096
1494.9894 493.95886
1494.8457 493.93408
1494.5518 492.51123
1493.6011 490.967
1494.7874 490.59665
1495.4388 488.81635
1495.0378 488.18503
1496.635 487.77255
1500.7644 488.04465
1498.6039 490.87512
1503.5647 492.66748
1503.915 493.42053
1503.9629 493.47742
1503.8315 492.76233
1502.9899 489.06244
1503.4285 488.01868
1503.3969 487.92758
1504.5342 485.01862
1505.5731 486.45688
1507.4877 487.5965
1507.9768 491.81702
1508.4451 492.25656
1507.8767 489.65305
1509.2542 489.76538
1510.7344 487.28046
1513.957 490.53955
1514.2158 490.952
1514.5725 492.12582
1517.2734 493.9743
1517.9852 490.32953
1518.7659 488.75204
1518.9647 486.86813
1519.2041 490.3906
1520.1907 489.763
1522.9445 488.65707
1525.4962 486.7414
1527.8171 483.23157
1528.6044 485.28217
1526.3105 486.0139
1526.4171 488.3482
1525.6925 489.1244
1526.2441 489.747
1526.9944 489.75092
1527.5427 491.03516
1528.1094 491.52158
1526.8767 490.7426
1524.0842 492.22327
1522.8193 490.90536
1521.8359 491.23154
1520.1753 491.916
1519.262 493.07172
1518.661 493.48117
1519.2659 495.09235
1521.6317 495.06354
1522.1526 494.31586
1522.1788 493.93356
1522.5256 493.56247
1523.4109 494.61346
1523.783 494.4099
1524.863 494.3806
1525.5186 493.82773
1525.9175 493.73822
1527.1165 495.25714
1526.3606 497.07916
1524.6525 499.33093
1523.8601 499.76462
1522.9421 498.42636
1522.9963 497.79272
1521.4448 496.87024
1520.2556 498.1338
1519.9707 500.16833
1520.261 500.78854
1522.71 503.1301
1523.7365 503.13104
1523.9592 501.97736
1525.5818 501.28607
1526.3389 502.07855
1527.2445 501.0571
1527.2233 500.49146
1528.2971 501.2795
1528.6495 500.48822
1529.3142 499.7043
1529.328 497.9576
1530.7113 497.7981
1531.2517 498.6058
1533.199 499.86212
1532.8591 501.0697
1533.2744 500.37762
1533.3856 498.80316
1533.6096 495.73395
1531.1141 495.59552
1528.8262 494.08008
1531.2455 491.80292
1531.1454 491.5543
1531.0 490.29376
1529.4208 487.3827
1532.398 486.46326
1535.993 485.7802
1536.6848 485.82553
1535.5002 488.3464
1534.8008 488.67474
1535.3914 488.85132
1536.6921 490.0097
1534.1715 490.27722
1534.1847 492.86334
1535.373 493.93042
1536.9419 493.19025
1537.9508 495.13962
1537.897 497.63635
1538.8165 498.2989
1537.1243 499.69662
1534.7421 500.76276
1533.803 501.7064
1534.3523 501.63477
1535.4425 502.5263
1536.7444 501.72552
1537.3784 502.43417
1539.8092 502.50195
1542.1976 499.17477
1540.7595 495.4614
1540.5676 495.00763
1539.5785 492.7367
1539.5072 492.3065
1540.1964 489.58752
1540.8811 485.42267
1542.603 482.92072
1540.8636 485.40036
1536.2792 483.89923
1536.2397 482.6574
1534.952 484.4073
1534.0703 483.26733
1534.6553 481.89865
1533.1104 480.44724
1535.4862 481.4548
1537.6863 478.50354
1538.1648 478.70038
1538.652 479.0715
1542.9313 476.10834
1545.1663 478.65558
1546.203 478.23517
1547.6436 477.43103
1548.4414 479.0366
1550.3462 480.14972
1551.1808 478.40524
1552.0095 477.78598
1551.7137 477.0367
1551.417 474.20004
1554.353 474.42816
1555.6702 475.2955
1557.61 474.0405
1558.6437 475.21835
1557.8391 473.90247
1560.5393 471.60925
1560.0879 471.3982
1559.5316 469.23386
1561.0143 468.4792
1561.9027 471.59653
1562.519 471.92938
1564.9979 470.3695
1564.4216 469.10278
1564.6343 467.29535
1565.9303 466.3324
1567.3699 462.4292
1567.7385 462.12143
1565.1497 460.04535
1563.1991 461.08282
1560.2382 460.05
1558.5646 459.67914
1556.6372 458.63843
1554.8226 458.5821
1551.9249 456.87888
1554.0513 455.46103
1555.9861 454.4548
1556.5848 456.38257
1558.5226 456.3829
1559.9354 458.27158
1561.477 457.79962
1559.7312 454.05014
1557.8798 453.26605
1556.28 452.04425
1556.762 450.9458
1555.2793 449.60724
1553.4762 450.60596
1552.2776 452.15338
1549.1716 450.60947
1548.8073 451.982
1547.511 450.52435
1547.5806 451.1988
1545.7434 453.2729
1545.676 450.25677
1540.9781 447.87997
1539.5063 447.79333
1541.6431 446.18414
1542.5894 446.0608
1538.9391 442.95795
1537.3821 445.15735
1535.7666 448.38428
1535.3604 448.87714
1532.8728 446.4027
1532.1647 446.2293
1530.0303 445.6152
1529.227 445.74518
1527.9197 444.86273
1528.038 442.56845
1528.8162 442.6313
1530.4839 442.77466
1532.1665 443.84454
1533.8569 441.78015
1532.2502 441.96643
1532.3772 441.72754
1531.1729 438.45135
1528.289 436.67322
1527.0735 437.62762
1524.496 437.17148
1524.6586 437.3695
1525.4658 440.3615
1522.8578 439.8452
1522.3518 438.29224
1522.0361 436.09875
1524.221 436.79575
1526.6677 435.27414
1527.0895 434.55124
1527.3892 433.13242
1525.0776 432.96124
1524.9827 433.3377
1522.5826 433.6363
1523.4147 430.81418
1522.3999 429.32904
1522.9459 428.83676
1521.8975 429.03363
1521.5945 430.5576
1520.8285 430.40485
1519.8187 429.6947
1520.9637 430.9056
1520.6709 431.3791
1520.5006 433.16953
1520.06 433.62317
1518.7692 435.00226
1516.7485 434.22375
1516.4437 434.42773
1515.8424 437.60324
1515.6272 438.44263
1515.7191 438.81165
1517.2109 440.22437
1519.9492 440.89423
1519.5002 439.8316
1518.4036 437.80286
1517.2865 436.9707
1520.0883 436.24945
1520.5776 436.39655
1519.6823 434.2651
1519.1895 432.73447
1517.7183 432.37988
1515.0493 430.7097
1515.7399 429.33716
1517.4121 428.02118
1517.4556 426.85043
1516.9569 425.9035
1516.6602 426.50415
1514.6697 426.30087
1514.031 425.60727
1514.3533 426.30988
1513.9438 427.18893
1514.3572 429.63913
1514.5452 429.82373
1513.1865 430.22678
1512.6948 430.51447
1511.4368 430.2169
1512.3604 431.10352
1512.0482 432.01132
1511.0682 431.15173
1510.652 430.63104
1508.0599 429.4327
1506.3188 426.38885
1504.8599 428.22498
1507.4685 433.7918
1509.8059 433.97482
1511.3513 432.71942
1512.9673 434.14487
1513.302 435.336
1510.922 436.6092
1513.5956 438.3072
1513.9695 438.57297
1511.8895 439.91797
1511.2972 438.15167
1510.672 437.56335
1506.1279 434.13257
1503.2834 434.15057
1501.5315 431.09567
1487.6472 420.9887
1488.7634 418.50726
1486.7617 418.1395
1486.755 416.69702
1485.8634 415.75192
1487.6033 414.6771
1489.7758 414.4969
1489.2825 415.99252
1490.6091 416.18237
1490.4534 416.2992
1489.5369 418.66122
1502.3193 423.52637
1504.7944 425.81268
1505.9054 425.94662
1506.4149 425.32996
1507.7275 425.13046
1506.1396 422.93674
1506.9707 421.84076
1506.3523 421.44403
1503.4329 421.89816
1503.7332 419.9956
1504.9607 419.00958
1506.7848 420.70648
1509.242 422.4962
1511.668 425.2601
1512.8574 426.23972
1512.751 423.2789
1510.649 421.1954
1509.0603 421.50607
1508.9692 419.8635
1508.6823 418.0152
1509.411 415.1462
1510.4551 415.07007
1508.7532 413.59882
1510.5361 412.11118
1511.0981 412.87616
1511.9626 412.6621
1515.95 414.3653
1517.6914 415.06567
1517.8335 415.7722
1519.3965 417.08154
1520.7595 416.1904
1522.153 418.17737
1520.3323 421.28464
1520.1515 419.8438
1518.9791 417.5315
1516.7163 417.09644
1514.2427 418.99994
1515.3704 419.66632
1515.2955 422.48102
1516.9075 421.24152
1518.8055 420.77576
1517.4609 422.47516
1518.8086 423.546
1519.0779 424.48657
1521.616 425.34467
1522.6012 424.74435
1522.3091 427.10263
1524.9617 427.02048
1525.3607 426.55768
1526.4032 427.0455
1526.3574 426.11996
1525.7517 424.96863
1523.6309 419.19763
1524.3013 418.76562
1525.1537 418.67853
1525.9565 422.6644
1531.2517 422.30417
1533.8684 423.28766
1533.1804 422.2425
1532.2314 421.50684
1543.9995 395.90552
1545.8499 395.94092
1549.6431 395.7304
1550.5725 397.2566
1549.9253 399.13696
1551.4957 399.0758
1551.5708 399.3974
1553.0289 399.15744
1552.929 398.75507
1551.796 398.12628
1553.4629 397.0052
1557.5928 396.9819
1554.9961 397.03546
1553.4436 396.58234
1552.6289 395.0124
1550.9012 395.56064
1550.6514 395.7705
1548.4636 394.93124
1549.2399 394.04163
1549.4727 393.2484
1547.0146 393.00995
1545.7336 388.21982
1545.821 387.1463
1547.4441 385.25458
1548.9368 385.75793
1550.0955 388.25424
1550.5527 388.79974
1550.5072 388.9111
1553.5375 391.40527
1553.0986 393.7032
1553.5237 392.52435
1555.093 390.99512
1556.6519 392.4941
1557.4358 392.1499
1558.28 393.83972
1558.9465 393.98495
1559.7455 394.65146
1562.0435 391.81183
1562.259 388.92004
1564.3099 390.81683
1565.5977 389.0649
1565.7997 390.97736
1566.5115 392.51657
1563.0859 392.22162
1563.988 395.6266
1568.809 394.10614
1569.0898 394.88422
1569.6844 394.57224
1571.3204 396.6845
1574.3512 397.65564
1575.9606 397.2447
1580.1249 396.50424
1581.0488 394.98352
1580.501 393.2634
1582.6821 393.06543
1583.7257 393.0553
1584.2124 394.5758
1587.3717 393.35422
1589.8602 397.64365
1589.8042 398.37347
1586.1611 397.089
1584.9441 395.19504
1584.1007 397.5908
1581.3423 397.2979
1580.512 399.2196
1577.8113 398.49042
1577.6694 399.35883
1574.5624 401.2638
1562.4918 434.05182
1560.4165 433.4367
1561.7749 435.86142
1561.2349 437.95407
1564.0714 437.588
1564.6028 438.7507
1564.5621 437.10983
1565.0907 436.48337
1567.5133 438.10962
1565.1711 438.39874
1564.6504 439.2647
1563.7268 440.22052
1566.9757 442.62546
1567.4474 443.86237
1568.0659 444.59064
1567.7804 444.75653
1567.7239 444.62305
1565.8254 444.1809
1565.9602 443.4221
1563.3827 445.32007
1565.0406 445.197
1563.8309 447.1953
1562.6 447.35837
1561.3156 448.2663
1562.6682 446.7678
1562.3557 444.48425
1561.0884 445.84775
1560.959 444.35516
1558.6743 443.06348
1557.1514 442.08508
1555.5796 443.50806
1555.7002 446.9647
1554.4268 447.38684
1554.5906 448.49896
1552.9094 448.25946
1552.7029 448.30536
1551.0972 448.2878
1549.998 447.546
1549.3182 446.71945
1549.5803 446.03223
1550.5552 445.76038
1552.1208 443.5547
1551.2717 442.16183
1550.2832 441.79404
1551.1404 441.62836
1554.3708 442.9218
1554.9402 441.6203
1554.3041 440.5562
1553.6626 438.6266
1553.8503 438.76926
1553.117 439.51324
1552.2001 440.81833
1550.2063 440.3766
1551.3378 439.21774
1549.0968 437.69604
1546.5332 438.52277
1545.2986 436.1534
1545.5402 438.0389
1544.488 437.94604
1544.0151 439.0567
1544.6891 440.74915
1542.2767 441.66833
1542.1569 441.1231
1544.1865 441.21667
1545.6993 440.14838
1545.9738 442.0101
1547.2139 446.07037
1545.4438 445.26147
1543.6198 445.10773
1543.5762 444.8595
1540.8206 443.47177
1538.9712 442.061
1540.4608 439.8676
1537.9606 438.052
1538.2003 436.8003
1536.9718 438.25348
1537.5762 440.7899
1538.2781 441.75946
1537.564 443.8982
1535.2847 440.34955
1532.4645 436.9039
1530.5944 435.8248
1534.0151 433.76022
1532.499 433.16757
1531.7472 432.42648
1530.4683 434.05795
1528.7604 434.37408
1529.1567 433.88303
1529.3193 431.41452
1529.4072 431.0005
1531.5004 426.6524
1532.5166 425.47214
1534.4286 425.06433
1534.8126 424.70862
1534.2389 424.09857
1535.5166 423.15045
1538.1589 423.575
1538.4525 423.75317
1538.256 425.237
1540.153 427.6578
1537.6715 425.80872
1534.7328 426.88852
1533.7219 429.71112
1532.9288 430.7638
1533.872 430.13303
1534.6185 430.68237
1535.2463 430.51263
1536.0432 430.90863
1536.0432 432.73706
1537.7767 434.91266
1540.6887 435.2137
1545.0532 435.20468
1542.8444 434.1101
1540.5096 432.18463
1541.5355 428.96942
1543.3506 426.75653
1544.7664 427.04025
1545.9899 429.16135
1545.7039 430.0156
1544.7866 433.8349
1548.3599 433.42023
1549.7167 431.65598
1549.4343 430.81207
1552.093 429.58777
1552.636 430.12982
1550.488 434.62964
1551.0758 435.08282
1551.0295 435.11887
1550.7627 435.53668
1551.1776 436.33545
1552.0159 435.5593
1552.3074 434.1793
1552.6677 434.3177
1553.8867 434.71075
1554.288 435.82715
1554.693 435.5182
1555.3462 435.45383
1556.4799 434.3381
1556.3396 435.6677
1559.5464 436.22446
1558.9657 437.22076
1557.8798 438.11435
1556.3383 437.99594
1556.1969 437.91037
1555.3337 439.80774
1557.6953 440.8231
1557.9746 441.6445
1557.8994 444.61426
1558.9541 448.64685
1560.8335 448.36633
1561.1165 449.1502
1561.1066 450.1555
1560.7008 452.13144
1561.8127 452.6371
1563.294 453.66394
1562.8806 454.96054
1564.3927 455.32385
1564.4025 455.41595
1564.2676 456.62534
1564.4634 456.75314
1566.4895 456.79697
1567.1539 456.76132
1568.0077 456.21948
1568.6304 455.6139
1569.8201 456.49542
1571.4617 457.8692
1572.1531 458.46176
1572.4926 459.67245
1572.8071 459.7898
1573.2014 460.3567
1571.8689 461.2197
1571.4343 459.64612
1571.0833 460.0359
1570.514 460.04437
1569.728 459.9662
1570.2882 461.73352
1572.3297 464.27246
1575.7883 462.89133
1576.3478 463.12634
1576.3018 462.94846
1576.7593 460.97052
1577.6481 459.27545
1577.7296 458.67755
1580.4747 457.37488
1579.0999 454.19476
1581.0737 455.60483
1582.0774 454.44995
1584.6824 455.6734
1587.0856 454.04895
1584.9254 454.44653
1582.404 452.79144
1582.444 450.8614
1579.5186 448.49005
1582.9102 449.3016
1583.7623 449.58435
1583.5952 451.5752
1586.3699 451.52533
1586.8269 446.59714
1586.4813 446.31787
1589.9137 446.5641
1588.7877 448.27692
1590.2437 450.09668
1592.1177 449.48105
1593.431 448.1441
1595.913 448.24988
1595.6831 452.1963
1596.3765 452.45135
1597.3339 452.3392
1598.3328 453.42844
1595.6913 453.3922
1594.6714 453.99542
1593.938 453.56787
1593.6078 451.7771
1590.8352 452.00085
1588.9519 451.01376
1590.6132 453.06274
1589.3694 453.4117
1591.6821 454.19476
1591.8783 454.09113
1591.8984 454.81958
1592.3541 459.2229
1593.6672 457.97372
1596.2526 458.24863
1596.3127 458.74097
1597.312 459.99347
1599.6056 460.0075
1601.2896 461.6275
1603.5868 460.52216
1603.4683 460.5398
1603.2751 460.24323
1604.5042 457.9654
1605.5808 456.9078
1607.1024 456.53314
1605.891 457.09167
1605.4531 459.30453
1605.478 459.7578
1606.2661 461.66418
1606.2722 459.45306
1607.8503 459.62363
1608.7576 461.68185
1609.6628 460.36508
1611.474 460.3635
1613.2639 461.34088
1612.7216 462.69568
1610.7535 463.4935
1608.6561 464.10068
1609.0474 465.3346
1607.6051 465.24777
1606.214 466.2354
1605.8987 465.26868
1605.6799 463.6466
1603.8811 466.19476
1602.1772 468.02405
1602.5804 467.3932
1602.6355 463.28635
1601.4163 462.72546
1600.5505 463.16278
1600.7427 466.1872
1597.1002 463.85632
1597.3428 463.1657
1597.0532 462.6438
1595.3125 461.23276
1592.8848 462.05807
1592.3976 462.0681
1589.8413 461.6357
1588.895 458.1139
1586.6841 456.89667
1585.9623 459.24475
1586.4033 459.6952
1586.532 460.66168
1587.0452 462.3031
1584.7129 461.88205
1584.4873 460.1207
1583.0278 460.57465
1584.1055 464.1169
1581.7427 464.4803
1581.6963 464.92767
1583.2261 464.38275
1584.2755 465.99518
1587.2673 465.39233
1589.1539 463.82562
1589.4084 463.8979
1589.9214 465.69165
1592.7635 468.00293
1592.2106 468.49048
1593.707 471.2431
1594.9847 471.47852
1596.1846 470.77655
1596.2219 469.27377
1596.7043 467.9972
1598.6459 467.80194
1600.4858 468.18478
1601.4293 469.00232
1602.2183 469.92133
1602.5985 470.09888
1603.8835 470.08344
1603.9034 472.4439
1603.718 472.57758
1597.8044 472.5399
1597.513 473.71664
1593.8431 472.7705
1593.8068 473.1878
1595.3506 474.8774
1595.1505 476.74
1595.2528 476.082
1593.721 475.73083
1593.1022 476.27805
1594.0367 477.68927
1592.1431 478.78625
1592.144 479.88055
1591.5808 479.05414
1589.7073 480.03305
1590.4171 480.7401
1592.2499 481.5036
1595.9524 479.5776
1597.2788 479.3808
1598.968 479.19342
1598.9886 479.62778
1599.1776 477.4826
1598.2556 476.6186
1598.3052 476.34177
1597.5634 476.68256
1597.524 475.14642
1597.4543 474.9304
1600.774 475.06503
1602.9445 475.54562
1605.7947 475.80795
1606.0094 475.79477
1608.5565 477.01654
1608.2706 475.1432
1607.1067 474.745
1606.0914 473.39304
1606.1726 472.59766
1606.9276 472.05405
1607.3079 470.9759
1606.1455 470.54395
1605.8385 469.4101
1606.3789 468.10983
1607.3563 467.52527
1607.9617 467.88086
1608.5581 469.12714
1609.1287 471.0752
1609.7458 473.85165
1610.9766 472.59702
1612.7462 476.19574
1612.7008 476.82153
1611.9929 480.37985
1612.2135 481.51703
1613.2571 481.42664
1613.3875 481.49582
1615.0471 480.86313
1615.7646 480.22226
1616.1323 479.607
1615.7206 479.44208
1614.4583 478.6572
1614.6528 478.25018
1614.0726 477.5747
1614.0422 477.581
1614.4196 477.21405
1616.6924 478.153
1617.2432 477.55908
1618.6147 477.17355
1620.5586 478.20532
1620.9841 477.56134
1621.4666 477.12878
1624.3768 477.98337
1625.2996 474.97522
1625.8064 472.7661
1626.3634 471.47336
1627.5107 470.6551
1629.4855 470.6801
1630.0492 470.26654
1629.0009 468.60995
1629.2561 467.76196
1628.5592 466.95984
1626.6993 468.00238
1624.1516 469.48425
1624.1091 467.5626
1625.1714 466.84335
1624.5952 465.26837
1622.9094 465.59814
1621.6853 464.05856
1619.35 465.96188
1616.5569 466.93845
1617.301 469.09808
1617.5332 469.85687
1619.1848 472.37048
1620.6162 470.38998
1621.6262 469.07086
1622.8832 472.08533
1620.2 471.28412
1616.6746 473.3966
1615.6384 475.30823
1614.3981 476.09033
1614.0596 476.03973
1615.5417 474.37704
1613.6189 473.0183
1615.308 472.27356
1616.6902 470.666
1615.2648 470.384
1614.905 469.34375
1613.3425 469.7119
1611.2583 468.555
1610.9508 466.97394
1611.9072 466.8286
1611.6106 465.9776
1613.2941 464.02573
1615.6672 465.28085
1616.5732 464.1347
1617.6063 462.4638
1617.5474 461.7025
1617.8387 462.9267
1618.5377 464.01938
1619.167 463.8315
1621.664 462.09082
1624.7998 462.6782
1625.7614 463.39816
1628.954 462.19598
1630.2505 464.21387
1629.9691 465.1899
1630.8347 465.1911
1632.4065 463.5973
1632.2771 462.67023
1631.524 462.0892
1631.883 461.5223
1631.9669 461.28586
1632.7773 461.66956
1633.7706 460.4812
1631.9514 458.05856
1630.4565 458.94116
1630.8799 460.04962
1629.8595 460.69775
1628.3789 461.17844
1628.2734 460.22153
1626.2421 460.2164
1626.1814 458.90936
1625.3745 458.02563
1627.4199 457.61096
1628.1826 456.34015
1627.911 456.14917
1625.7831 453.39777
1623.8615 455.6788
1622.4026 455.5284
1623.3125 457.31567
1622.1836 459.57175
1620.2249 459.69727
1620.2836 459.27246
1620.2782 458.72226
1619.1211 456.7473
1621.636 454.36496
1620.3171 454.70822
1618.4547 454.3873
1616.7494 455.79346
1614.8132 459.6158
1612.783 459.7949
1611.1099 458.2694
1609.2894 457.01828
1609.2408 456.11447
1609.0554 455.0426
1609.6302 455.5025
1608.794 455.30035
1608.0079 454.63068
1607.3073 453.9137
1605.0087 453.34625
1604.7845 454.49103
1603.9711 454.18896
1603.6208 456.3025
1601.4808 455.95227
1601.1598 454.53
1601.0739 453.2601
1599.5078 453.71252
1598.962 453.17807
1598.9703 453.18893
1600.5242 453.11328
1600.3448 450.79465
1601.0839 450.0028
1603.7122 451.19028
1603.6877 451.69452
1605.2357 450.76788
1606.6855 450.6108
1607.565 452.14267
1609.9011 452.68396
1610.4299 454.30673
1612.4967 455.34735
1612.0122 457.1643
1613.7202 455.98764
1612.6409 455.37793
1612.4209 454.09128
1612.3486 453.54144
1611.9003 453.5229
1611.3151 452.4533
1609.1477 450.61633
1607.5027 449.16403
1609.3241 446.15976
1612.4258 447.45343
1613.7335 447.96982
1615.3491 450.77954
1617.1206 450.4859
1616.033 449.54633
1615.1228 447.92938
1615.7795 447.89816
1618.2155 447.12457
1619.2239 447.1634
1618.188 449.76413
1617.3347 450.65918
1619.8589 449.87827
1620.4958 452.51144
1621.5277 453.28268
1622.31 453.1289
1622.5978 453.456
1622.9978 453.7857
1622.9264 452.41693
1624.6511 451.87665
1625.0369 451.78757
1625.9995 451.72913
1627.3628 451.72736
1626.1443 450.53894
1626.7681 450.25717
1626.7281 449.99374
1625.5493 448.3468
1625.718 448.18405
1625.2996 447.25916
1624.2434 446.16443
1622.4656 445.21542
1621.261 446.62607
1617.9011 444.2182
1620.8499 441.62714
1619.2295 444.3141
1623.1987 443.36017
1624.898 442.01584
1625.7048 440.9206
1627.9264 443.57138
1628.4827 446.41693
1631.3557 446.63193
1631.054 449.6889
1631.959 451.0588
1631.1193 451.3392
1628.9667 452.56433
1629.2174 452.79425
1630.1405 454.23874
1630.5056 454.95398
1631.9805 455.73102
1632.0405 456.16623
1633.624 457.301
1635.3752 457.72565
1635.742 457.8896
1637.6357 459.76672
1637.8113 458.19672
1637.5171 456.28424
1636.3606 455.74896
1635.4138 454.98212
1633.5354 452.60144
1632.7516 450.50128
1633.9542 448.4969
1631.7429 447.06488
1634.3572 446.14948
1634.9742 446.37692
1636.28 446.94226
1636.4602 448.3457
1638.2107 448.04822
1636.8381 448.87164
1636.7725 449.8598
1636.2213 450.409
1636.8535 452.6223
1637.8289 454.5581
1637.1951 456.83234
1639.9789 461.10165
1634.8418 466.26498
1636.7385 469.90558
1635.9917 469.87582
1634.0786 470.05096
1631.5105 469.29352
1631.824 472.1114
1632.8259 472.2354
1633.6604 471.58398
1634.7555 471.0665
1634.7028 472.94406
1635.3418 473.51315
1635.0818 473.8789
1634.5719 475.47223
1635.9182 476.65277
1637.6543 478.0276
1636.426 480.46936
1637.0485 482.50928
1637.403 482.51913
1637.2859 479.71356
1637.7363 478.67865
1637.9585 478.73785
1638.8885 479.64722
1641.3223 482.58453
1641.8367 481.6826
1642.969 481.19907
1643.657 482.66382
1643.3099 482.97314
1644.6885 482.75366
1645.022 484.79477
1647.4688 486.4382
1648.5148 487.3263
1648.5581 488.30002
1650.9132 487.99536
1652.1206 487.6534
1655.348 486.6035
1653.5193 487.9834
1652.1235 490.91037
1653.51 490.977
1654.8362 490.55536
1656.6489 490.73325
1655.8776 492.85846
1658.1934 492.36768
1661.0275 493.38245
1662.1582 493.53085
1659.2659 491.3604
1659.4528 489.93854
1659.6267 489.7599
1660.2253 489.01852
1660.1841 488.8952
1663.0248 487.537
1664.1965 485.9098
1663.792 485.0764
1661.6853 482.36713
1666.4565 480.40094
1669.186 482.87805
1668.3467 483.562
1665.2522 484.30115
1667.3905 485.3878
1667.3163 486.79587
1668.0696 487.97885
1667.4092 488.26306
1667.9907 486.01147
1669.0276 484.552
1668.7035 483.82553
1669.7751 484.83093
1670.7734 485.8708
1670.1025 487.9464
1669.6871 489.43164
1667.2104 490.23535
1666.7435 491.68622
1664.8401 489.5078
1664.0887 489.91296
1662.5885 490.53806
1663.2554 490.9796
1663.0686 492.8556
1664.1654 494.68115
1664.3922 494.6296
1665.8911 497.3569
1662.3203 496.6319
1661.7512 496.9699
1659.83 497.53476
1660.9109 501.48755
1659.0146 503.23206
1658.5605 503.9979
1663.7727 505.0691
1664.3096 505.57285
1667.459 504.4536
1668.5111 503.8095
1670.1882 502.5122
1671.0443 501.34384
1671.9437 500.19214
1671.6226 499.4594
1673.0815 499.13306
1672.783 500.69684
1672.5908 500.92938
1673.8236 501.6953
1675.0139 501.9843
1675.7219 501.80603
1675.7959 501.85056
1678.2202 502.12775
1675.7822 504.51575
1673.3262 507.06122
1670.5769 505.1317
1667.1125 507.78113
1670.258 507.88397
1672.4802 508.15524
1673.5574 511.6629
1673.6079 507.19775
1674.819 507.51965
1677.5653 508.4839
1677.3651 510.38184
1680.1335 510.24
1680.3098 506.29498
1678.8741 505.36362
1680.1058 502.96088
1681.0499 503.64575
1680.7853 503.5699
1677.9636 501.10028
1678.112 498.63776
1681.1682 496.9177
1684.6562 494.97852
1685.3826 498.18158
1682.6064 503.44525
1684.2386 502.1577
1695.009 509.95398
1694.4246 510.3006
1695.2292 511.1806
1696.1475 512.80676
1693.1654 516.69507
1691.0916 516.78424
1691.8091 516.1685
1691.9951 517.0294
1693.0886 518.624
1692.6769 519.50806
1693.979 518.5416
1696.2776 521.0296
1696.7446 519.31903
1697.2598 517.9802
1698.0298 516.1214
1697.14 515.3302
1698.4744 516.86884
1698.6484 519.56573
1698.0103 519.9745
1699.3888 520.625
1700.396 523.7405
1701.5029 522.2097
1702.4105 521.379
1704.0308 522.37915
1705.7444 522.0789
1705.5161 520.5727
1707.4453 521.51855
1707.7253 519.5266
1707.6249 519.24255
1707.6459 518.44275
1707.0559 519.19836
1708.6006 519.78864
1711.2108 520.62445
1709.5173 519.1139
1711.5797 515.69653
1711.4733 514.2426
1711.9359 513.8178
1713.8577 514.4211
1712.9053 513.32007
1711.9755 512.50964
1712.2687 511.98517
1711.5652 512.2715
1710.8386 511.60812
1709.7771 514.29504
1708.0359 513.6976
1706.7762 514.1491
1706.3958 512.8976
1705.8215 511.92636
1707.7708 510.21173
1707.1838 510.78143
1706.1516 512.5875
1705.2795 513.9548
1704.8284 515.2606
1706.4551 517.45703
1706.1014 517.9147
1704.4377 518.50024
1702.681 519.5563
1702.0466 518.72003
1700.8826 518.5935
1701.1809 517.12384
1701.6311 513.95593
1702.6167 513.4938
1699.6797 513.0921
1701.1857 510.6183
1703.8302 509.7226
1700.9323 509.62775
1700.1477 507.86826
1697.5433 506.07907
1698.3892 504.60443
1700.4124 505.98273
1702.3947 506.6937
1701.0427 506.52402
1703.2507 507.23755
1703.6355 503.41833
1706.3004 505.172
1708.1252 502.97345
1706.4572 506.4782
1706.957 506.65173
1707.3363 506.0821
1708.6108 507.7414
1709.4552 509.01392
1711.2744 509.41647
1715.7449 507.9216
1715.3447 506.1402
1716.274 504.74713
1715.3689 502.7068
1714.4541 502.83618
1712.6049 505.16357
1711.8834 506.33246
1712.7686 505.77
1713.8848 503.14877
1711.8606 501.20517
1710.2373 501.28387
1710.1152 502.51666
1710.5663 502.63116
1710.6343 501.85605
1709.2477 500.27045
1708.8098 499.32532
1707.4119 498.91196
1706.6703 499.30658
1704.2158 497.5252
1701.2137 499.3104
1700.9797 500.82855
1700.317 501.20053
1700.3628 503.47052
1697.0253 502.9012
1696.9536 501.7934
1686.6863 497.0986
1685.807 496.2256
1686.776 492.22653
1686.7986 492.03436
1689.0853 490.99176
1685.8092 488.78168
1683.5012 491.39722
1682.2566 493.2503
1681.1415 493.25226
1680.6179 492.12067
1681.4944 491.30234
1682.0009 490.69797
1680.7961 489.90668
1679.048 487.7833
1677.1132 485.48242
1673.2627 485.27267
1673.5463 487.571
1674.3298 488.52698
1673.1082 489.5291
1673.3385 490.6775
1673.8883 491.70978
1675.1611 492.03058
1674.448 492.9299
1675.333 493.41064
1677.1066 493.43756
1676.8116 492.70465
1677.7991 490.58795
1677.9756 491.4896
1678.4617 492.9327
1678.4056 493.61594
1678.2815 494.54376
1678.4684 494.95422
1678.7397 496.17633
1676.5874 495.9875
1676.8154 497.2765
1675.2693 497.62744
1675.2721 495.94455
1673.436 493.25766
1672.6018 493.15378
1672.0367 492.2496
1671.0354 492.03973
1672.0917 494.32382
1672.0625 496.74985
1669.3176 497.88885
1669.7501 501.66034
1666.6382 500.92505
1666.0264 501.36316
1665.532 501.73108
1662.9408 498.40637
1661.238 499.377
1657.9735 499.0477
1657.7693 498.14197
1655.8059 497.96518
1656.5254 500.09662
1655.4144 501.16772
1654.0212 498.61182
1653.4526 498.26938
1654.2737 495.97437
1655.5513 497.65976
1656.6969 496.0916
1657.2732 494.51324
1652.8256 494.65546
1651.6875 493.13672
1651.683 492.6262
1650.0436 491.4691
1648.5146 491.42297
1649.0566 496.1589
1648.9086 498.67975
1645.6526 495.76654
1643.6677 491.43146
1638.1866 495.1142
1634.2998 493.009
1635.7117 488.7218
1633.4156 491.8634
1628.8931 490.56882
1627.5701 490.08484
1627.7333 489.00525
1626.1255 488.28558
1625.0776 489.6985
1626.0447 488.33826
1625.6812 486.85425
1625.0376 487.40598
1624.2808 487.25082
1624.1396 487.26608
1620.3646 487.2777
1619.3965 486.87952
1619.3967 482.62045
1621.999 483.41986
1622.3027 482.52768
1623.1855 481.35577
1623.541 481.98602
1624.0759 483.14215
1624.907 482.59225
1625.2722 480.38202
1625.0322 480.249
1624.4877 479.57404
1625.0168 478.8346
1625.4766 478.1806
1628.1738 479.66052
1629.0153 479.20847
1629.9601 477.1611
1630.1824 474.5379
1633.3153 474.9265
1633.0198 477.67786
1632.7634 477.9262
1633.6338 478.91907
1633.6392 479.8329
1630.2374 483.9843
1626.714 483.11252
1626.9578 485.7048
1627.5651 486.57324
1629.2433 487.64783
1630.3165 486.84332
1630.2428 486.1395
1632.0227 484.1073
1635.6619 484.37704
1636.7682 486.39508
1639.0403 487.55396
1640.8606 489.3116
1641.257 489.5311
1642.0743 489.07626
1641.8013 488.32712
1644.2141 487.39365
1647.2957 485.8263
1649.5535 482.67877
1650.1865 482.7602
1651.1482 483.61713
1653.1094 483.8607
1653.1184 484.65625
1652.5519 483.93723
1650.6569 482.00305
1650.3677 478.3028
1651.866 478.2445
1652.3829 478.78693
1653.7065 478.6162
1654.8896 479.05542
1660.1046 478.37518
1660.3787 482.48132
1659.718 483.58124
1658.96 486.33862
1657.4127 487.27313
1657.0798 489.42468
1658.2853 488.9516
1657.514 486.6888
1658.3684 485.21948
1657.6531 484.54565
1656.8236 485.58215
1656.1309 484.20532
1657.7437 482.53552
1654.4976 481.29584
1654.6196 478.68414
1653.6306 478.34628
1654.5132 474.8067
1653.7446 474.15167
1648.832 473.98166
1650.2 475.2756
1650.7677 475.12286
1649.8408 474.89026
1648.9404 473.59448
1647.2379 472.12106
1647.6968 472.13693
1647.883 474.34726
1646.2124 476.83383
1645.024 478.09885
1646.5581 480.3076
1643.4128 477.72592
1644.4481 476.96307
1645.6436 475.84335
1645.8396 474.9411
1644.3573 474.4165
1643.0665 475.55234
1642.1245 477.0096
1640.5658 477.90988
1641.6833 477.2467
1640.4114 475.89685
1638.5946 476.4173
1638.2893 477.6058
1635.8699 475.81653
1637.0176 474.08575
1636.5096 473.60327
1637.362 473.97534
1637.518 473.3255
1638.4519 471.56284
1639.2024 472.62146
1639.8513 472.64142
1642.5957 470.4133
1644.178 456.98798
1643.0225 456.4144
1640.8949 455.89917
1645.1055 457.29822
1645.7249 454.3396
1647.1954 453.80072
1648.1294 454.1031
1648.2582 452.97983
1647.9569 451.59372
1651.2495 452.80206
1652.3362 451.12762
1652.8795 449.9198
1652.7441 449.29977
1652.1302 449.1778
1649.6729 448.2611
1648.7725 450.26022
1647.4115 450.13867
1644.3833 449.58392
1643.336 449.78635
1641.67 449.4309
1641.4497 450.156
1640.6035 449.0399
1639.8479 447.68018
1638.6077 449.70685
1640.0947 450.26642
1640.8184 450.52563
1640.821 451.98578
1642.676 453.18884
1642.956 453.29224
1643.5403 451.73926
1641.7086 452.50665
1647.3384 448.27795
1647.4681 448.85703
1650.6163 447.12787
1650.0145 446.8203
1648.694 445.3919
1648.3442 444.55768
1648.7493 444.5432
1649.1573 442.15424
1649.9996 441.95258
1650.0496 440.86313
1651.2612 441.27002
1651.6943 441.7547
1653.0383 442.52533
1653.6177 442.6938
1654.2078 443.26508
1654.7706 442.60638
1654.9961 439.56372
1655.2614 439.4503
1655.1934 438.70935
1652.6324 438.20883
1650.8983 439.37656
1649.2102 437.58954
1651.0365 436.9238
1653.0223 436.39902
1652.9058 436.19843
1653.1244 435.70142
1651.5453 434.31726
1649.7288 434.42123
1649.7195 436.60413
1648.6217 437.32736
1647.8916 437.5239
1646.7319 438.1491
1645.5962 440.02072
1644.808 440.39972
1644.6509 440.14584
1644.2654 440.42578
1643.919 440.07605
1641.9661 439.18915
1642.647 440.58014
1641.7949 442.0619
1643.3947 441.74664
1644.6841 443.39694
1644.9988 444.72458
1644.3094 443.4848
1643.4918 442.76117
1641.094 443.6441
1639.5865 444.27365
1637.779 444.09265
1633.9559 441.46118
1632.395 445.1651
1630.9379 444.34497
1631.471 441.77808
1630.0487 440.53467
1632.9109 438.23267
1634.1516 436.86908
1636.3663 440.11914
1637.0251 440.52637
1639.5123 439.90326
1641.0563 439.5407
1640.1425 436.95673
1640.284 436.00705
1642.835 437.63055
1644.1886 434.31628
1645.6132 434.16174
1645.9336 433.4968
1645.1268 432.02637
1646.2231 430.1361
1648.0815 431.47128
1648.9755 430.9588
1651.647 433.3506
1652.8215 431.99875
1655.853 432.4249
1656.3481 431.61646
1655.262 432.56256
1653.5077 428.3276
1655.5066 427.86606
1655.81 428.3364
1659.8259 424.2644
1662.032 425.8631
1663.3623 425.60913
1665.1895 423.00397
1667.4059 422.72006
1667.6301 423.15063
1666.2986 425.5999
1667.1685 427.97565
1668.619 426.43994
1670.1365 426.43317
1670.8982 426.3248
1671.2708 427.79633
1670.8224 428.04657
1669.2554 429.4536
1669.0138 429.5251
1669.1534 429.87262
1668.0116 431.81335
1668.2831 432.31845
1665.0729 432.39307
1665.1266 435.42566
1664.952 432.67957
1663.6757 430.78802
1665.2568 428.3122
1664.9093 426.62628
1662.8636 426.65015
1661.9231 426.75745
1660.7439 427.57837
1659.9438 429.7949
1660.0676 430.56604
1661.9512 432.836
1660.6321 433.8531
1661.5342 437.20782
1660.5265 437.99847
1659.2305 437.28696
1657.3633 436.73712
1657.7434 439.12836
1658.6393 439.1458
1659.0952 439.21664
1658.8206 440.541
1660.7136 441.88208
1657.2491 446.89856
1656.9198 449.0084
1656.4198 450.02448
1653.8267 450.8462
1653.3376 452.94772
1657.1407 451.75085
1656.6794 450.3366
1657.7233 448.86877
1657.8385 448.24976
1663.3062 446.1566
1662.37 443.53497
1662.6836 441.2168
1662.78 441.2085
1664.5801 443.08887
1666.1097 443.86963
1667.558 443.28613
1669.6982 441.23822
1667.9938 440.69696
1667.8622 438.80356
1669.4711 434.73312
1669.3801 435.5682
1671.5149 440.38986
1671.8632 443.0582
1672.7483 444.45758
1674.5125 442.48407
1677.2048 441.49838
1678.7339 443.0221
1677.9949 441.2373
1675.4733 439.75232
1678.0718 439.77747
1680.4248 439.73218
1679.936 439.2159
1678.6992 438.83444
1678.8379 438.0505
1677.11 436.12103
1675.8779 435.4499
1675.9535 434.10434
1674.1064 432.89667
1673.3008 432.43933
1671.0815 434.42462
1671.4935 433.90497
1672.0254 431.1798
1671.9878 429.9312
1673.1996 427.91113
1674.5779 429.5898
1676.7345 430.52216
1676.2175 432.16797
1676.1064 432.49103
1677.5077 433.264
1679.0784 434.7777
1679.2045 433.5771
1679.9288 432.40125
1682.9583 435.18686
1682.5232 436.84656
1685.3816 433.9027
1686.6045 434.04382
1686.3717 434.33185
1687.3323 436.00317
1688.2201 435.9073
1688.6719 439.70383
1691.4614 438.8729
1692.6553 440.9194
1694.0549 441.27887
1696.2498 443.62207
1700.6885 442.846
1701.3282 443.1718
1701.3324 438.99286
1700.2668 438.16852
1698.3905 440.32104
1696.949 441.03253
1692.9346 438.47995
1693.079 438.03784
1692.1987 435.03082
1689.9476 431.8247
1689.3572 432.58505
1687.8474 433.23108
1686.2817 429.97333
1685.059 430.05698
1683.4238 430.22406
1682.8008 430.64215
1681.311 427.32556
1682.0167 426.6667
1683.6326 426.07605
1684.0624 425.7685
1684.2234 425.91034
1685.2627 427.44955
1686.9194 427.8858
1686.7032 428.31293
1687.8215 430.3429
1688.4346 429.0711
1688.8145 429.0047
1689.886 427.534
1687.9374 426.87396
1686.435 424.45883
1684.9568 424.28464
1685.0731 421.8949
1686.0 422.535
1689.6133 422.99887
1689.7395 422.46063
1690.1826 423.34485
1690.1891 423.7022
1691.3684 424.0453
1690.387 424.71753
1690.2657 425.44186
1691.8301 425.9319
1694.6278 428.26306
1695.1133 428.91058
1693.5029 431.18097
1695.6996 433.59064
1696.3608 431.2512
1696.7148 431.58453
1702.3745 435.5965
1703.0828 437.31787
1704.2969 438.84174
1710.1263 437.43994
1710.1937 433.61224
1712.138 432.53662
1711.1215 428.81128
1712.6869 427.13367
1713.5253 427.32294
1714.9639 429.26758
1716.0181 429.98004
1716.8744 426.82544
1718.7244 425.99435
1718.4775 425.3911
1718.9637 424.7273
1718.5258 423.6375
1716.602 423.12177
1714.386 424.7497
1713.2004 424.90695
1711.0322 426.95978
1709.3385 428.63812
1707.8129 427.28125
1708.7626 429.0761
1708.0999 429.4055
1706.4785 431.23413
1706.8958 432.40405
1708.4933 433.23422
1707.0892 433.08078
1704.9446 434.23694
1704.8593 434.63898
1704.1282 433.15063
1703.0942 430.83405
1704.9668 430.11273
1705.0325 430.04538
1704.277 428.54916
1704.0549 427.85712
1703.396 428.6904
1702.5103 428.77792
1698.5253 429.37292
1698.5986 428.07748
1695.7642 425.4547
1694.1943 424.3967
1693.1505 421.04623
1692.712 419.7994
1692.6023 418.50854
1689.8033 421.0416
1686.634 420.91632
1685.4829 416.68036
1683.7585 417.03705
1684.0621 415.3482
1685.0057 414.11594
1686.237 413.37982
1686.4109 413.22906
1686.832 411.6126
1687.9463 410.5437
1689.6902 412.43738
1691.9606 414.21344
1692.51 413.42615
1692.5288 412.37216
1692.8162 410.36932
1689.66 408.51794
1689.252 406.47592
1687.4885 406.71332
1687.1672 407.77585
1687.8661 408.94897
1685.7006 411.09143
1683.1809 413.23547
1681.7123 412.83136
1678.2002 412.53558
1681.1807 411.09308
1683.5917 407.78058
1686.256 407.77
1683.9243 406.3055
1686.5195 405.88193
1686.717 404.76947
1688.0942 405.62244
1689.1124 402.60898
1691.5731 403.71252
1693.758 406.5162
1694.4746 405.9377
1697.5979 403.77643
1695.9946 403.09308
1692.1881 401.9834
1691.7549 401.86887
1693.2966 401.81024
1696.55 400.74994
1698.6693 399.06992
1697.9868 401.3524
1698.7732 401.95163
1699.0284 403.457
1702.1361 402.9328
1702.5309 402.7243
1702.7169 403.16827
1704.1035 402.7445
1707.7275 401.34027
1707.5641 402.52753
1706.4559 403.47226
1703.302 405.92844
1701.8899 406.61838
1699.5535 406.34723
1698.4862 405.40134
1694.9934 409.2445
1693.9539 409.50922
1694.3114 411.89923
1693.0275 415.2285
1692.5331 415.69064
1689.993 414.1364
1689.2136 414.978
1689.2544 414.33368
1687.7058 413.81024
1687.6992 413.57736
1686.529 414.93442
1687.5254 415.42734
1686.7235 416.32117
1686.6165 419.83478
1683.5585 418.41614
1682.3611 419.0066
1682.3088 418.0702
1681.4192 416.88852
1680.5186 416.9082
1676.849 417.14752
1676.136 416.6518
1675.9952 418.016
1678.0106 419.64
1678.018 420.29245
1676.8445 420.64587
1675.9333 422.4646
1677.4102 423.06366
1678.282 423.15106
1679.3635 423.7684
1680.1053 423.42294
1680.1467 423.2353
1679.4739 420.96152
1681.168 421.9903
1681.7096 424.15598
1681.841 426.7513
1680.2476 428.2696
1680.6471 429.93677
1678.6328 430.83527
1678.3916 429.38147
1677.8772 427.75348
1678.831 427.1375
1678.2355 426.88364
1675.8337 426.84433
1673.672 426.59607
1671.8936 425.51868
1671.614 425.2329
1669.9205 423.62473
1670.4991 423.021
1670.0199 421.7977
1670.5615 422.65668
1671.3412 422.7556
1674.315 420.84064
1674.793 420.3429
1673.0261 418.484
1657.2075 396.69617
1653.5629 398.0501
1652.904 398.58957
1652.8058 397.07748
1655.4214 395.967
1655.209 392.31088
1658.4031 393.0761
1660.1196 392.9107
1659.3743 392.47626
1659.2379 389.8518
1658.3657 390.53442
1657.6825 390.57037
1655.2893 389.0648
1654.1074 389.9725
1653.7236 388.76657
1651.784 388.90012
1650.4495 389.12534
1649.9736 389.71677
1648.8721 391.07324
1648.9714 391.70493
1649.2881 394.92712
1648.844 395.44183
1649.9055 396.32053
1650.6248 396.87387
1650.7155 397.32764
1651.6061 397.7795
1651.8618 399.68878
1648.4435 399.6598
1647.6763 399.19186
1646.1041 398.03717
1647.8584 395.61926
1648.0293 394.4167
1646.6931 393.87097
1647.015 394.2612
1645.0854 395.86627
1644.9421 395.35413
1643.8915 393.03195
1642.6934 390.5875
1641.6421 390.687
1641.6206 387.6733
1638.6538 388.28513
1638.0538 387.3421
1636.0386 385.22144
1635.0173 386.26782
1634.6344 388.55634
1634.3406 389.26257
1634.6415 390.94455
1635.4614 391.27902
1637.0006 395.12262
1635.4512 393.43515
1633.9474 392.2037
1632.7944 392.3683
1632.8542 391.90253
1632.4209 391.29187
1632.6586 390.20905
1628.7981 389.1726
1630.4652 388.46912
1630.1702 384.72974
1631.0885 383.46002
1631.1836 383.93353
1631.5842 384.638
1631.9939 384.363
1635.1201 383.26202
1635.8079 382.15918
1636.1016 379.74756
1637.927 379.98132
1638.0156 380.79663
1638.5936 381.80475
1637.2643 383.5744
1638.8273 382.65707
1640.3793 381.16843
1641.2354 379.51837
1644.0725 381.2828
1645.5292 381.9323
1644.2181 384.18442
1643.8582 385.06458
1643.1805 388.78204
1644.7269 389.0577
1645.1288 390.0102
1647.1733 391.24936
1647.8259 388.35165
1646.179 386.8198
1647.181 386.50952
1648.6243 385.3507
1648.7206 385.01157
1649.6058 384.7108
1649.8575 382.37183
1649.4988 383.08517
1649.6514 384.8005
1651.9727 385.20908
1652.1787 386.9017
1652.0037 384.97363
1653.7141 384.497
1654.2969 384.64777
1655.1759 384.26535
1654.4769 383.58627
1651.2822 382.95978
1653.1493 382.00647
1653.5269 378.6362
1655.0266 378.4149
1655.1205 376.94873
1655.5519 376.43723
1657.6199 378.71173
1656.5974 380.15338
1656.1039 381.00995
1656.7876 381.16974
1656.8749 380.8774
1658.5236 379.76575
1659.7668 382.4118
1661.1497 385.53204
1657.1637 385.53003
1657.7615 387.64398
1662.219 387.84552
1663.1643 389.07922
1665.0748 384.96143
1665.3623 384.78036
1662.7736 379.48157
1661.3652 379.0133
1662.4795 379.02777
1662.6694 377.13412
1664.5625 375.8744
1659.3251 373.84467
1658.2705 375.4934
1657.719 374.37558
1655.2278 373.15747
1654.825 374.8637
1654.049 376.03268
1653.1552 374.82465
1652.2745 374.10385
1652.8914 375.62067
1651.727 378.0478
1648.9275 377.97662
1648.3018 376.39398
1648.4602 377.66595
1646.9432 379.46594
1645.2819 378.18893
1642.9204 376.64856
1643.215 375.37756
1643.4409 374.2851
1643.4132 373.40985
1643.5715 371.3565
1640.1582 369.71152
1639.3494 369.54367
1642.5205 368.37708
1643.3875 369.1821
1643.6383 369.69073
1644.6365 368.5339
1645.683 365.26733
1647.1874 365.90723
1647.1301 367.03342
1648.0925 367.1845
1648.123 368.8514
1649.326 370.6356
1648.5349 370.0844
1646.3724 369.12518
1645.2036 371.4365
1646.2479 371.6528
1646.4038 372.5855
1646.8948 371.8023
1649.7562 373.15475
1652.6553 373.04135
1653.0774 372.7092
1652.3632 371.8878
1654.8759 370.10236
1654.5906 369.82394
1654.3586 367.80127
1653.531 366.21667
1652.382 368.89584
1651.8353 369.4194
1651.5803 369.67377
1651.1423 368.98434
1651.1465 366.05087
1649.8983 365.9402
1649.4109 364.20648
1649.2354 363.56927
1649.947 364.25766
1650.9833 363.0022
1651.2864 364.19638
1651.6895 364.67267
1653.9922 365.79843
1654.6141 362.447
1656.0371 361.82764
1655.4054 361.04794
1655.1663 359.15927
1657.0629 357.39145
1658.9033 356.38995
1660.5354 359.28342
1662.3434 358.3803
1661.9612 358.64377
1661.2418 360.54224
1661.1707 361.43994
1658.9534 362.90112
1658.5875 364.98218
1658.2596 366.86444
1659.0071 366.8698
1660.8223 368.24005
1660.4562 369.421
1657.7406 369.05634
1655.6837 370.26025
1657.7296 371.66937
1659.0452 372.3711
1661.716 369.9697
1664.0732 365.67035
1661.955 365.5359
1661.7493 362.16513
1662.0022 360.93762
1663.9604 361.1786
1665.0354 361.41208
1664.9182 360.40063
1665.0364 358.82553
1665.4341 357.67896
1664.8333 357.09216
1666.5878 357.15344
1667.7944 355.59702
1668.3989 355.5932
1668.9784 354.4522
1666.8872 354.55905
1666.19 353.0522
1667.9651 350.9366
1670.7455 347.15634
1671.6761 345.5024
1671.0074 343.68408
1670.0823 343.59985
1669.4404 345.3718
1668.9528 345.9018
1667.5087 346.2877
1663.9707 345.62387
1660.9131 347.33685
1660.2734 348.50415
1660.6736 349.65988
1661.6342 350.74512
1664.4001 351.529
1661.9681 352.10773
1661.7831 353.4265
1662.0894 354.56616
1658.5364 353.62177
1658.1643 355.55145
1656.798 357.58252
1654.1123 357.99426
1653.3186 355.6965
1655.606 355.06982
1655.3763 353.4017
1653.6218 353.80078
1652.5054 353.01367
1653.8792 351.9664
1655.8655 350.98584
1655.9958 349.7341
1655.4575 346.87885
1655.6359 347.3955
1659.2775 348.97363
1659.1221 347.84067
1657.5024 345.33447
1656.5437 345.33118
1655.9312 344.62256
1655.4026 343.43964
1654.3613 343.66693
1652.3374 342.78082
1652.7748 341.5202
1651.911 340.34882
1650.4874 340.24164
1649.0948 339.6822
1648.2362 336.1923
1649.9059 335.1654
1652.3785 335.95956
1652.6074 336.97742
1655.2131 336.64545
1657.4402 338.3831
1656.4045 339.7942
1657.6472 341.76328
1659.0005 340.28476
1659.6604 340.6234
1659.6633 340.70105
1660.0242 341.9957
1659.5339 342.57248
1660.9156 343.7325
1664.716 343.81635
1665.3866 343.7558
1665.9199 343.3132
1665.6816 343.7859
1667.0856 342.98642
1666.9531 341.78745
1669.7739 338.79645
1669.0542 337.68265
1670.4895 339.23297
1671.1357 339.30756
1670.7893 339.88715
1671.4525 341.265
1671.9016 341.6057
1673.1599 340.85583
1675.8698 341.1334
1674.9742 340.41772
1673.8439 338.899
1674.7809 338.65613
1675.877 338.32935
1676.1373 336.89484
1676.5145 337.49283
1679.3661 339.64032
1679.992 339.93146
1679.2988 343.7177
1678.3302 344.08078
1677.1593 344.243
1673.7384 343.0044
1675.6477 345.35507
1674.3601 347.25305
1675.1265 347.55664
1678.8047 345.42603
1680.8641 346.9056
1682.2747 342.53345
1683.5708 342.76202
1684.6501 339.84003
1684.9048 338.42477
1684.524 337.96112
1683.6514 336.5845
1684.3588 335.9956
1683.5762 333.84064
1681.7983 333.39154
1681.4454 332.8447
1680.8556 333.35565
1680.8923 333.85037
1681.0193 335.15222
1678.2701 335.67657
1678.1158 335.62036
1676.9341 334.8435
1677.0865 333.55823
1677.3215 333.50424
1679.6644 332.95248
1679.2488 331.0672
1679.2021 328.5269
1681.688 329.41055
1682.8464 327.4052
1682.0917 326.89493
1681.6357 323.43988
1679.5521 325.77795
1678.3667 323.75546
1677.6339 321.0933
1676.8777 324.64825
1676.2333 326.01926
1672.0366 323.32526
1666.6294 320.06906
1666.3223 317.86057
1663.6182 318.56268
1663.8977 319.44882
1664.3125 320.34296
1662.5336 320.9253
1661.7847 321.12958
1663.5593 323.53503
1665.0781 324.42697
1665.0967 325.15848
1665.9475 325.8394
1666.9608 325.6449
1668.3676 324.8924
1671.1588 328.1065
1672.2391 328.3691
1671.2632 329.0725
1670.7505 328.8624
1674.8809 329.92633
1675.1614 331.10358
1676.3413 329.81036
1675.4203 332.61188
1674.9546 333.77695
1675.6328 334.2033
1674.6965 335.05917
1674.4448 334.6037
1673.508 335.346
1671.7579 336.28247
1672.7815 334.12463
1673.41 332.925
1670.8899 331.23004
1668.569 332.42633
1667.7201 332.6438
1668.3358 329.8808
1667.1648 329.10345
1666.282 328.78583
1666.0498 328.91254
1666.9904 330.83725
1666.0957 330.76147
1664.427 332.20288
1666.0771 334.15826
1666.7649 334.51486
1670.4934 335.1156
1669.0635 336.07263
1666.0596 335.75134
1664.4066 334.928
1664.3511 336.4879
1663.2266 338.85266
1661.1782 339.93176
1660.8259 336.06406
1659.7783 335.65796
1660.6418 335.28412
1660.8379 334.9106
1661.2073 334.11694
1663.9663 334.7635
1664.1428 334.55963
1663.7493 332.43567
1663.0293 332.92694
1661.745 333.3899
1661.4031 331.89166
1663.9492 331.393
1663.3281 329.33096
1663.4446 328.1799
1664.856 325.17163
1664.7372 325.0468
1661.7347 324.37994
1660.4131 326.39862
1659.7373 328.03674
1659.6008 330.30734
1658.3062 329.30292
1656.7184 329.60175
1656.8608 329.90057
1655.2205 330.69995
1657.2651 330.87128
1657.4791 333.04147
1657.8693 333.5899
1657.9507 332.60907
1656.1104 332.79044
1654.7461 333.0269
1654.6349 334.49298
1653.1841 332.87814
1652.5583 332.3727
1654.5826 330.19113
1654.034 330.29556
1656.278 328.69342
1655.6821 328.38647
1653.7043 326.16388
1651.2334 322.8695
1651.5906 320.46783
1650.4725 320.07758
1646.8467 322.6539
1646.9454 323.58276
1645.5331 322.78534
1646.527 319.9883
1647.9064 318.2425
1649.4641 316.61835
1648.1416 315.9738
1647.4573 316.624
1647.0669 317.2321
1646.7039 316.3573
1646.0034 316.58908
1644.6294 317.41937
1645.3013 318.6788
1644.4352 319.5805
1644.5116 318.2143
1643.9639 318.4948
1641.8066 316.0537
1641.99 314.98163
1643.2561 313.53302
1644.9963 312.45154
1645.0011 312.40356
1646.8214 313.4944
1647.7692 310.28064
1648.5294 312.62732
1651.5555 312.13855
1651.5585 312.26852
1650.5544 315.7846
1651.3202 317.32428
1652.3204 316.56772
1654.5062 318.71045
1654.7632 319.1671
1654.8802 320.52502
1656.2363 320.5252
1655.3309 323.15918
1654.8372 323.67233
1658.2076 324.45087
1658.8743 321.90753
1659.2329 318.4389
1657.3608 316.721
1660.4703 316.0678
1660.9346 316.19534
1664.0371 317.15686
1665.9644 316.92603
1666.8737 312.5575
1666.119 307.83847
1663.874 302.9522
1661.8625 302.17062
1661.6826 301.9493
1659.2482 298.54224
1661.7595 294.57858
1662.7542 290.23492
1663.6512 288.40607
1664.5115 288.57245
1664.8264 287.61566
1662.2249 285.59918
1660.8792 285.90265
1660.5073 285.90332
1660.6978 286.90082
1660.4807 288.07816
1660.0829 288.19595
1658.4128 287.13547
1657.8691 284.8202
1658.6838 282.24072
1657.0453 281.47125
1655.7891 280.86255
1658.5093 280.9385
1658.9403 281.1367
1661.4263 283.1771
1661.5005 283.76773
1662.1144 283.12982
1664.2401 281.69037
1664.3906 283.32028
1664.1562 284.62616
1666.5038 284.43127
1667.29 281.63895
1665.0865 280.71124
1662.3894 279.7892
1661.9153 279.8595
1661.9158 279.86917
1661.7915 279.8465
1661.6155 278.2327
1663.4727 277.8286
1663.149 276.05685
1660.8875 277.52618
1659.6272 277.52524
1658.0554 277.25827
1657.3146 277.232
1657.6512 274.28857
1655.1997 275.46863
1653.9602 276.59592
1654.8813 277.6587
1653.5278 277.34338
1652.853 277.04547
1650.7515 278.7299
1648.6602 273.63147
1649.522 273.40884
1649.8892 273.28558
1650.9258 273.2216
1653.7429 271.43323
1656.8513 271.41266
1653.7787 269.8822
1651.135 268.54156
1651.0908 268.36243
1649.3269 268.1856
1649.5864 268.8161
1650.7678 270.5639
1648.4946 270.36465
1647.6376 272.60248
1647.4106 273.41125
1643.7091 274.20078
1642.4174 272.6911
1642.8733 273.44604
1643.533 274.3738
1643.6516 275.22046
1643.4562 275.65842
1644.0605 275.80334
1645.0289 277.25833
1645.4692 275.61874
1646.5884 275.2127
1646.5588 276.7744
1645.2048 278.8493
1643.5137 278.4105
1640.9381 278.10104
1639.9246 275.32935
1639.5798 273.81973
1637.4902 272.58545
1637.1652 275.763
1637.759 276.61023
1637.2642 279.51727
1637.4193 279.86716
1635.8418 280.75714
1633.2428 280.85382
1633.5742 278.655
1631.6752 279.16977
1627.9386 277.77692
1629.2993 276.98645
1634.2975 277.62152
1632.7003 275.7709
1632.1279 272.98566
1630.8242 274.2604
1629.8038 273.83273
1628.9922 269.66937
1627.0887 268.024
1621.5315 265.7658
1620.4788 267.97986
1622.2356 268.71457
1621.4556 269.6203
1620.3357 271.16766
1620.6667 272.49774
1621.5538 272.8537
1623.7032 272.29254
1625.3545 272.23865
1626.2329 271.75058
1626.386 272.90765
1626.644 273.65964
1625.8368 276.29904
1622.5984 277.20502
1622.0026 275.29135
1621.3712 276.53714
1619.583 276.5332
1616.5929 278.89807
1617.8562 279.76495
1618.6667 278.2497
1620.8049 279.70074
1620.8236 280.01932
1621.2101 279.32504
1621.6167 279.64862
1621.9663 279.34805
1623.6648 279.70416
1624.2654 279.08347
1626.8835 280.0854
1626.3276 280.84433
1624.6624 282.18195
1624.8649 283.80542
1623.79 285.6272
1623.314 285.45703
1621.9226 283.15182
1621.2507 282.56946
1620.9292 281.60266
1619.8162 282.01123
1619.0377 283.8416
1616.99 283.09192
1615.3601 282.49707
1614.5315 281.45862
1615.0801 282.64536
1613.6438 284.2616
1611.7891 285.07477
1611.5264 283.4738
1610.9852 283.20587
1609.8916 283.73785
1609.5059 285.60324
1609.8265 287.13828
1613.6825 287.1427
1614.9143 286.95056
1615.7961 285.48315
1617.6208 286.06595
1620.096 287.75983
1620.4993 287.877
1616.7568 289.39526
1618.369 293.36804
1620.3743 294.53033
1622.9453 290.04297
1625.2332 288.36548
1626.5037 289.41156
1628.1395 289.45618
1627.9188 288.7772
1626.9077 282.17706
1627.838 280.71405
1628.4536 279.8259
1632.3201 282.25995
1632.5283 283.31213
1632.5162 284.23166
1634.8517 284.35376
1634.2449 284.9867
1633.6094 285.9581
1632.6453 286.4084
1632.2986 286.52017
1632.519 287.97437
1631.3088 288.84775
1632.1875 290.19366
1633.2953 290.18646
1633.7573 291.3473
1634.515 292.9593
1634.987 294.6411
1635.1271 294.78928
1636.3506 295.4801
1635.7695 297.33167
1635.8401 298.32053
1636.4854 299.39972
1637.1323 300.02643
1637.6632 301.17725
1637.7478 299.79083
1638.9487 298.04086
1638.4092 297.3291
1638.9246 296.90176
1637.3567 292.46548
1636.0558 289.753
1637.2573 286.35138
1638.7488 287.06873
1640.1586 286.5865
1640.1772 285.61874
1641.1226 283.07452
1637.1252 283.01825
1639.238 281.69632
1640.5045 280.88416
1645.2284 280.23975
1646.3242 280.784
1647.4305 280.7734
1647.5563 281.13406
1647.5729 283.02936
1645.5154 285.30975
1646.9375 283.9978
1649.6838 283.18
1649.2031 282.16937
1651.2162 280.64252
1652.863 279.84814
1654.2109 281.6717
1654.7756 282.28015
1654.8635 283.05634
1653.8738 282.77734
1652.724 282.03442
1652.6354 283.54608
1652.9966 284.39252
1653.8253 285.33905
1655.6455 285.7902
1655.6915 288.51773
1655.1139 289.81396
1653.5721 287.91647
1654.2228 287.06464
1653.5883 286.98303
1653.0938 287.19785
1652.3623 287.0263
1651.3441 287.70587
1649.8708 286.78168
1649.1595 288.6348
1648.2148 288.16095
1646.8811 290.26526
1645.9757 290.28232
1644.613 290.60046
1643.7026 288.39316
1641.7052 289.06677
1640.1565 289.87714
1639.4532 289.50323
1639.4792 290.39862
1640.6423 291.86743
1643.0741 294.07196
1642.2898 296.35956
1642.4181 296.6775
1641.9473 297.60037
1640.8658 299.97165
1640.2555 301.74866
1639.6177 302.79605
1639.4473 304.0921
1640.9913 307.63293
1641.4292 307.45288
1641.7952 308.12677
1643.1248 306.51923
1645.8206 307.0646
1644.0463 303.10675
1646.1814 301.56467
1642.3218 300.44516
1642.3936 300.20465
1642.4443 300.2638
1644.1377 299.6347
1645.4515 298.45184
1646.294 296.84106
1646.9518 296.5568
1645.7025 296.34332
1645.9209 293.41583
1645.619 293.2749
1646.2798 293.64062
1647.8375 292.95102
1648.5901 293.18298
1649.7253 293.3839
1648.6055 294.61966
1649.5315 296.02692
1649.2242 296.3439
1648.6147 297.6084
1648.657 301.73853
1649.0271 303.29688
1648.9037 301.76654
1650.1052 301.39514
1652.4071 299.3775
1653.5533 299.38806
1652.0859 297.6316
1650.8651 295.97278
1650.5015 295.3677
1651.7089 293.41193
1651.5428 292.8275
1651.3365 291.31976
1653.2781 293.15674
1655.4601 293.63123
1655.5955 294.53693
1654.7657 295.8191
1656.6997 295.7485
1657.3734 295.01657
1657.18 297.64532
1656.8507 297.74075
1656.1235 298.13983
1654.3394 300.0494
1653.5903 300.04385
1655.2869 302.028
1656.2102 301.79626
1656.4567 301.6798
1656.4376 301.33163
1656.9996 301.4635
1659.1359 303.0954
1660.6101 302.1693
1661.1315 303.66003
1661.0457 304.9618
1662.4473 305.69116
1663.2931 308.14725
1662.1108 310.00333
1661.3617 307.9363
1659.8074 308.95517
1659.4861 308.4902
1659.2919 308.28763
1659.0117 306.5772
1658.1963 305.26807
1657.6401 304.8015
1655.246 306.26273
1657.7461 307.6109
1658.8729 309.32962
1659.1334 314.1562
1659.7448 314.73184
1656.8412 312.97913
1655.2999 310.53235
1656.0022 309.21765
1654.2437 307.91556
1652.315 307.70184
1651.7827 303.9758
1654.0647 303.32724
1654.458 303.51266
1651.8564 304.46698
1649.2144 308.48633
1647.5981 306.88647
1647.4263 306.949
1647.2369 308.81802
1645.352 308.67545
1643.5754 309.64832
1641.5942 308.87958
1638.2151 312.66132
1638.3158 311.1583
1636.0156 306.8647
1638.3458 306.029
1638.0254 303.1757
1636.5171 302.20886
1634.728 301.5514
1633.877 298.3581
1632.6058 298.06122
1632.563 298.50064
1633.4653 300.88385
1634.846 303.12952
1636.3522 303.09653
1635.6174 304.63998
1633.6177 304.01352
1633.3209 304.15967
1631.2812 303.62848
1629.4758 301.83884
1630.425 299.83862
1628.262 297.47574
1631.2129 295.51935
1630.6724 294.6217
1631.9573 293.29477
1630.499 292.4228
1629.2926 292.3367
1628.6808 293.55652
1629.409 295.80414
1627.8678 295.30832
1626.2528 296.85434
1625.9282 292.35825
1628.3466 291.10663
1627.7378 290.2805
1625.35 291.08377
1623.2715 293.22583
1621.2992 295.26248
1618.1332 294.26086
1612.8549 290.66864
1611.1653 291.63068
1611.9827 290.74124
1611.6733 288.3403
1608.6802 288.78876
1608.3309 289.2008
1607.3069 286.62
1606.2871 287.48126
1605.203 287.76892
1605.4976 285.6151
1605.1139 285.4226
1604.3386 285.8222
1604.0037 287.60254
1603.1812 288.44672
1602.4094 288.46652
1602.3243 287.72565
1599.7388 288.3664
1597.9794 288.74405
1597.1241 287.9215
1598.5137 286.53546
1598.5178 283.38525
1599.5898 282.89215
1600.064 283.37042
1602.7842 283.75543
1602.8577 283.6374
1603.33 282.5915
1604.2045 283.0703
1604.9852 283.53082
1605.3636 283.4449
1606.8595 279.7779
1608.6189 280.07492
1609.9222 279.30194
1613.4807 279.65137
1614.3464 279.6208
1615.8027 278.5212
1615.4032 275.6681
1615.179 274.94196
1617.8859 273.62982
1614.7212 273.18796
1610.7076 273.7982
1611.3392 272.64948
1610.6528 270.9093
1612.4773 271.04236
1614.1604 270.45428
1615.2728 271.5874
1616.8228 268.71332
1619.1084 268.25443
1615.814 268.35144
1611.5352 268.7829
1610.7063 267.57397
1611.163 266.10498
1611.041 263.76227
1612.1494 262.79108
1611.8586 260.67154
1608.2229 258.76343
1606.9148 259.61627
1605.0131 257.92764
1604.4958 259.32574
1605.4446 260.39383
1607.4716 262.10226
1607.5244 263.40152
1605.2742 262.86655
1602.2468 263.5782
1600.8295 261.78375
1600.19 261.77512
1598.6421 261.64795
1599.3019 261.62003
1600.2894 259.44238
1601.1902 257.31638
1600.6174 257.13104
1601.2654 255.9168
1600.0046 255.483
1598.2979 255.93213
1598.3397 257.46753
1597.7214 257.82263
1597.9604 257.24454
1596.8387 256.72025
1594.7479 258.50305
1595.2523 260.07404
1594.0249 259.33472
1593.8241 259.29517
1593.5806 259.82993
1592.1783 261.65936
1591.4934 259.21722
1588.8557 258.4984
1588.1855 259.28296
1589.0872 257.94934
1591.611 259.0131
1593.0515 259.1594
1593.086 257.72708
1593.524 256.8006
1593.2471 256.66064
1592.2101 256.59576
1593.3688 255.22885
1591.3804 253.42581
1589.7682 255.00415
1586.0348 255.56058
1587.3774 254.99791
1589.5409 249.67241
1592.3074 249.39337
1594.2507 250.90692
1596.6635 250.19012
1597.5137 252.62439
1597.6691 252.78702
1601.0486 252.10873
1600.3248 249.75957
1600.8368 249.96677
1604.627 250.14848
1604.3239 253.68913
1604.4255 256.7425
1607.801 255.06711
1608.5376 252.77524
1609.468 251.6746
1608.7401 251.03247
1608.9513 250.49228
1611.2 250.31555
1612.0386 250.61276
1614.72 254.85477
1613.1982 256.52603
1614.8868 257.38297
1614.4792 258.43414
1613.8988 258.4621
1614.4353 260.1053
1613.5463 260.8568
1613.6987 261.44174
1613.1744 262.245
1613.8413 263.7649
1612.702 263.47296
1612.5354 264.41397
1609.3367 265.04422
1606.3173 265.9524
1607.6438 266.82727
1608.2024 268.04932
1606.9648 268.0858
1606.5044 271.33594
1607.6537 272.21545
1608.7814 273.25613
1607.3611 273.7929
1607.2549 273.40628
1604.5623 272.384
1604.3103 271.5575
1602.7064 272.86874
1601.5486 272.13934
1602.8629 269.5749
1603.9069 267.23682
1603.783 265.26562
1602.9695 266.0498
1601.8164 266.976
1601.7595 266.9751
1600.3425 269.11023
1599.4636 269.20575
1598.1455 271.03763
1597.9926 272.6085
1597.3029 271.58997
1595.5303 270.48825
1596.007 272.5014
1595.6608 271.86484
1594.5198 273.03387
1594.3274 274.11545
1595.261 275.758
1595.176 276.28452
1593.5372 277.5816
1595.2507 279.58856
1595.5183 280.9183
1595.3865 281.65778
1597.5327 280.73993
1598.1392 278.07297
1598.3716 277.17352
1600.1272 276.77313
1601.0917 277.3217
1601.884 279.72766
1600.4188 280.56378
1600.3574 280.8507
1601.3547 280.7706
1602.161 279.45187
1602.7896 279.83026
1604.5115 278.29803
1602.5807 275.8197
1599.8315 276.24622
1598.5162 274.55432
1599.6964 272.36145
1600.3096 272.12134
1599.4485 270.7836
1597.5325 269.20892
1595.9622 266.42157
1598.3989 264.99994
1601.0208 266.28302
1598.5208 263.805
1597.4973 263.16983
1596.0449 263.70172
1596.0156 263.56842
1595.7897 264.8099
1595.5801 265.61395
1595.2136 267.84372
1593.6553 269.15826
1590.75 271.36322
1588.4006 270.63928
1588.6146 272.94324
1590.9675 272.78143
1591.09 273.21735
1592.2827 272.56345
1592.1243 274.62396
1594.0659 273.8244
1590.6107 276.54187
1588.1893 276.09143
1584.5593 276.81238
1583.6339 277.07568
1580.2128 277.99933
1580.1584 276.50238
1582.4664 276.3374
1584.2319 275.60526
1583.8967 272.97308
1585.188 270.61133
1584.4957 269.48505
1585.4692 268.78882
1585.7114 269.03198
1586.553 270.53748
1588.1329 267.8279
1588.1516 266.94492
1588.8577 268.12924
1589.3501 268.01035
1593.0371 268.9226
1592.9622 268.62903
1593.5769 266.38257
1591.7766 266.64105
1592.4739 265.71646
1591.6642 263.42645
1589.4817 263.173
1588.4958 261.5882
1587.8811 263.037
1586.0288 263.39554
1584.5862 266.12756
1583.7003 266.7621
1582.2665 266.54724
1582.3699 267.64447
1580.2769 268.22437
1581.2084 272.56488
1578.582 271.8556
1574.435 269.84137
1572.399 268.1983
1574.7593 272.6944
1576.6971 272.6059
1578.2075 274.71216
1576.7344 274.83066
1576.8772 275.9896
1576.6743 276.58087
1575.2566 275.11438
1573.5354 275.27972
1574.4419 277.6323
1575.3057 279.4359
1576.9684 278.08652
1578.4436 276.83276
1578.4014 278.38116
1579.5237 280.73895
1577.678 282.27255
1577.2579 282.18045
1576.7577 282.87384
1575.2397 282.77402
1576.6316 286.1132
1578.5123 287.38187
1578.5062 284.49228
1578.8732 283.51105
1580.3395 284.65475
1582.1534 285.5163
1580.7883 284.03564
1581.6816 281.15546
1582.9668 280.68768
1585.8151 279.05035
1587.0022 278.61945
1587.2092 279.50488
1586.5159 281.50668
1584.4594 283.5292
1586.6981 283.419
1587.8141 284.60822
1586.8063 282.5208
1587.7407 281.9354
1589.0894 282.14642
1590.7191 282.47107
1591.3862 284.33353
1591.8984 282.63232
1591.7249 282.15558
1592.0669 281.50735
1594.9828 283.07214
1593.6648 285.94852
1594.5864 287.3587
1595.2976 287.32947
1595.2756 287.9158
1595.488 288.02893
1595.2667 290.44806
1592.9138 290.50757
1591.6055 289.98596
1588.2539 292.7773
1588.0671 290.63037
1589.4473 289.2621
1588.7589 287.6481
1589.2653 286.67087
1588.615 286.38315
1587.9326 286.69135
1587.6146 285.8845
1586.1721 285.73633
1584.4036 284.8747
1582.9883 286.7771
1583.3981 287.7536
1585.3906 288.4763
1584.2177 290.55316
1583.6377 292.36737
1580.4807 291.08862
1579.986 290.08148
1578.7222 290.41208
1578.5798 292.044
1579.3313 292.12857
1579.4878 292.42236
1579.1667 293.39154
1577.6174 294.45218
1577.5393 292.44055
1576.8629 292.85907
1574.9843 291.79608
1574.7961 291.323
1572.9891 291.29083
1571.8494 292.47864
1572.1344 293.76654
1571.4761 293.8149
1571.683 294.01633
1571.1323 295.66327
1571.471 295.13
1575.564 295.43005
1576.4369 296.11417
1576.4795 296.28012
1576.3774 296.61633
1574.1913 296.63806
1572.3837 296.7361
1570.5194 296.24194
1570.6749 296.57446
1569.5867 296.5271
1567.1495 297.67752
1570.7578 298.46704
1572.6566 299.0178
1571.902 299.87128
1572.0896 301.10767
1569.4558 301.13873
1569.7448 302.36487
1569.7731 305.24603
1565.7877 304.80157
1565.9388 302.5199
1565.145 303.19363
1562.0511 308.20575
1559.0466 311.302
1559.9744 311.90332
1562.4954 313.08887
1562.5018 314.6585
1560.492 314.25867
1560.3416 318.7318
1557.9369 317.9429
1559.0334 314.72974
1559.5212 313.8427
1556.8789 314.55652
1554.9565 313.75623
1553.6725 312.07452
1551.8992 314.25412
1549.9573 313.4958
1549.3794 314.30194
1549.4043 313.69766
1548.1536 311.1342
1546.3423 311.70343
1544.4336 313.60297
1541.0042 311.98953
1541.5317 309.7878
1541.1462 307.63037
1540.6127 306.2585
1539.5083 305.89648
1539.2761 305.1711
1536.7463 306.8802
1539.3722 307.5456
1540.6074 307.4013
1542.0203 308.58548
1544.9052 309.088
1546.4204 307.44342
1548.1559 308.3662
1549.1418 310.48425
1551.6228 308.67587
1551.8203 308.00092
1551.3894 306.43237
1550.5427 306.83597
1548.4851 307.97897
1547.7297 305.98676
1547.5312 305.77948
1547.0485 304.5805
1546.6885 304.02502
1547.2767 302.18427
1548.1619 303.42847
1549.0249 302.8022
1549.4194 304.0963
1549.6172 303.91144
1550.9885 303.87787
1551.5814 304.3746
1553.5193 301.42426
1554.3809 300.1979
1553.9208 304.0131
1553.1145 304.30356
1554.4414 306.95078
1555.6329 308.34647
1557.7611 306.14127
1558.5118 306.82474
1559.037 306.19632
1558.8336 305.7342
1559.3379 305.23456
1561.9146 303.72656
1565.0471 303.05133
1566.125 301.8437
1566.9354 302.2497
1566.974 301.53027
1564.2684 299.01038
1564.0967 297.8067
1563.2874 297.10214
1563.1362 294.96387
1562.2781 293.99573
1566.8164 293.3944
1566.9231 292.9797
1566.6305 290.6539
1565.4326 288.53906
1567.806 290.8656
1571.2251 289.59552
1574.5195 288.73068
1572.6893 288.2652
1571.7566 284.42325
1572.2673 283.30798
1571.266 281.5398
1570.1635 280.55106
1569.2177 285.53052
1570.5427 286.0032
1568.2446 284.24536
1567.5516 283.97986
1565.843 283.73282
1564.581 287.3932
1564.3481 288.91556
1563.3677 288.1166
1561.3588 288.30487
1561.489 286.8103
1560.7554 285.6847
1563.39 284.9987
1562.5125 282.43063
1561.8805 283.445
1560.6615 285.43173
1558.8474 284.9205
1557.6646 284.8825
1558.8245 286.60587
1559.1243 287.6206
1555.8242 287.46497
1555.3069 287.93127
1554.9221 289.01984
1555.5281 290.4657
1554.2362 288.63086
1554.0349 286.72388
1553.5613 286.37802
1551.4922 284.9375
1551.9971 284.76434
1553.2031 284.06418
1552.7314 283.68674
1550.6399 281.7837
1547.9078 284.50162
1546.8586 286.2191
1547.8662 286.5534
1547.3899 287.6477
1547.4735 287.67468
1547.6843 287.53976
1548.2147 287.31403
1549.9143 286.38074
1551.0432 288.3387
1549.5537 288.4975
1549.6309 289.36133
1548.7689 288.6526
1548.2828 289.32672
1547.8639 290.29688
1548.7141 291.99997
1550.088 292.73004
1551.013 291.90164
1554.1151 291.62598
1554.4038 292.9464
1552.2803 293.5775
1551.7134 294.27582
1553.6819 294.60724
1553.8032 296.06183
1555.4338 296.79242
1554.2913 296.38367
1556.7744 296.00333
1558.2222 296.20465
1559.254 294.34534
1558.825 295.78305
1557.7877 296.5515
1557.7317 299.31335
1556.8989 299.6916
1557.872 301.63205
1556.8048 301.1239
1556.1167 299.7077
1554.6652 298.10156
1552.9279 298.35992
1551.0471 298.41693
1550.7874 299.4013
1550.0796 299.28494
1548.8003 299.1573
1549.2678 298.78714
1548.9996 297.88214
1548.8164 297.58472
1550.5201 296.63007
1549.3704 294.95087
1548.1053 295.35
1548.6661 297.05975
1547.937 295.847
1546.2556 296.1519
1543.7886 296.34293
1543.718 295.9574
1542.8848 295.4531
1540.7349 297.063
1540.7463 298.18857
1541.671 298.86218
1542.2869 298.8898
1544.5281 300.00537
1543.3229 302.37067
1544.9137 303.48572
1542.1853 305.50226
1539.882 304.90475
1538.1958 302.46152
1539.508 298.18488
1539.9634 296.9668
1540.6343 294.55835
1538.1643 291.96332
1537.606 288.36188
1540.4495 289.2835
1541.0574 291.8106
1541.5302 292.2328
1542.6504 293.52448
1542.7229 292.43817
1543.4532 292.13657
1545.2346 291.7389
1545.8003 292.4585
1546.6249 289.95258
1545.623 288.8056
1543.5391 286.30133
1542.797 286.03644
1541.7019 286.21268
1539.0963 283.91986
1538.5562 284.5918
1538.0225 285.79626
1535.895 284.89093
1535.2607 283.4331
1534.9572 282.61066
1535.281 281.9325
1536.1846 281.64685
1537.9716 281.02148
1538.0736 280.08398
1540.3696 281.0207
1542.4846 279.1449
1543.1512 281.12
1544.4629 282.3949
1543.5328 283.4663
1545.1274 283.55594
1545.8839 282.3236
1546.9276 279.31354
1547.1116 278.2804
1546.0919 276.41437
1543.2368 273.76605
1541.2596 275.8092
1539.6667 276.1709
1543.6396 273.4095
1542.7722 272.04544
1543.6035 272.6908
1544.839 272.4957
1546.7668 272.27856
1547.9738 271.26215
1547.6901 270.12344
1548.7905 269.73132
1549.9253 269.6958
1551.85 268.8792
1551.2845 266.28198
1551.1108 268.47037
1548.9208 269.70483
1549.956 272.46854
1550.2161 272.3841
1550.2466 273.2364
1550.4019 273.59283
1549.6211 274.18256
1546.6914 274.9341
1549.326 275.67993
1551.0236 278.46283
1554.0062 280.174
1553.9226 277.70767
1552.5461 276.63208
1555.5676 272.77216
1555.608 270.86847
1555.2439 269.89978
1557.4907 270.3715
1560.1244 271.84558
1557.3795 273.22052
1556.4976 273.78125
1556.8187 274.35373
1558.276 276.27274
1556.8394 279.39478
1558.6628 280.4604
1560.5137 279.04962
1560.7874 279.60938
1561.2402 279.69455
1562.3074 279.86353
1564.4238 279.3625
1564.403 280.31717
1564.3436 280.43726
1564.5026 281.02902
1566.155 283.14322
1566.0092 282.10803
1567.961 279.52692
1566.4789 274.38638
1570.3893 277.4575
1569.8774 278.6369
1570.0686 278.96588
1570.5044 279.474
1572.0284 278.8663
1572.2874 277.02744
1572.3594 274.40363
1571.2368 272.98822
1571.5502 271.51398
1569.2402 269.70764
1569.4551 271.47858
1569.0986 272.05786
1566.4961 271.5851
1564.454 273.41537
1563.2451 274.02396
1564.1467 274.96643
1559.9525 275.80762
1561.2812 278.3439
" />
</g></g></svg>
