<svg width="2000" height="1500" xmlns="http://www.w3.org/2000/svg">
	<g id="my-svg" fill="none" stroke="black" stroke-width="2">
		<!-- <path d="M300 100 H 900 V 600 H 300 L 300 100"/> -->
		<!-- <path d="m 0 0 h -100"/> -->
		<path d=" M1520.3,797.8 V677.2 h-30.7 v-11 h-8.3 v-30.7 h-20 v41.6 h-11.7 v-4 h-6.5 v-22.8 h-0.8 l-9.4-37.6 l-8.1,37.6 h-0.7 v22.8 h-4.9 v65.7 H1405 v-42 h-5.6 v-20.4 h-7 v-8 h-35.8 v7.3 h-19.1 v9.9 h-5.6 v11.1 h-14.8 v-58.3 h-7.9 v-9 h-16.3 v-4.4 h-49.7 v43.5 h-13.9 v12.1 h-13 v-4.2 h-2.4 v-5.2 h-21.3 V666 h-18.5 v5.3 h-13.5 v5.2 h-7 v-5.2 h-17.2 v5.2 h-16.7 v-33 H1082 v-26.9 h-2.8 v26.9 h-17.6 v85.1 h-26 V657 h-4.8 v-13.5 h-5.6 v-90.1 h-7.4 v-20 h-4.9 l-16.6-14.8 l-16.2,14.8 h-4.8 v20 h-5.2 v90.1 h-6.1 V657 h-15.4 v83.5 h-8.1 V560.8 H938 l-7-6.1 v-8.9 l-5.2-5.6 v-5.2 v-1.9 h-1.6 l-5.8-6.5 v-8.3 v-1.9 h-1.2 l-10.5-16.7 v-44.7 H903 v44.7 l-8.7,16.7 h-0.9 v1.9 v8.3 l-6.5,6.5 v6.5 l-4.2,6.1 v8.9 l-6.1,6.1 h-1.9 v-39.1 h-9.3 v-59.5 h-59.5 v59.5 H797 v45.6 h-39.5 v-6.5 H753 l-18.7-30.5 l-17.5,30.5 h-4 v13 h-10.2 v117.1 h-5.6 v-9.3 h-32.6 v9.3 H658 v9.3 h-49.3 v-47.4 h-74.3 v30.7 L524,700.2 h-3.6 v23.2 h-9.3 v18.5 h-13 v-98.6 h-8.3 v-16.7 h-4.8 l-16.2-21.9 l-18.2,21.9 h-1.9 v16.7 h-8.3 v98.6 h-25 v-1.5 h-43.7 v-30.9 h-38.2 v-9.3 h-25 v-53.9 h-66 v53.9 H237 v9.3 h-10.2 v88.2 h-7.4 v-11.7 h-22.3 v11.7 h-8.3 V646.2 h-68.9 v86.4 h-26 v-41.9 H77.1 v-9.3 H34.5 v116.2 H0 v73.4 h1160.6 h13.5 H1590 v-73.4 h-69.7 V797.8"/>
	</g>
</svg>